  0
SECTION
  2
HEADER
  9
$ACADVER
  1
AC1024
  9
$ACADMAINTVER
 70
     6
  9
$DWGCODEPAGE
  3
ANSI_1252
  9
$INSBASE
 10
0.0
 20
0.0
 30
0.0
  9
$EXTMIN
 10
1.000000000000000E+20
 20
1.000000000000000E+20
 30
1.000000000000000E+20
  9
$EXTMAX
 10
-1.000000000000000E+20
 20
-1.000000000000000E+20
 30
-1.000000000000000E+20
  9
$LIMMIN
 10
0.0
 20
0.0
  9
$LIMMAX
 10
12.0
 20
9.0
  9
$ORTHOMODE
 70
     0
  9
$REGENMODE
 70
     1
  9
$FILLMODE
 70
     1
  9
$QTEXTMODE
 70
     0
  9
$MIRRTEXT
 70
     1
  9
$LTSCALE
 40
1.0
  9
$ATTMODE
 70
     1
  9
$TEXTSIZE
 40
0.2
  9
$TRACEWID
 40
0.05
  9
$TEXTSTYLE
  7
Standard
  9
$CLAYER
  8
0
  9
$CELTYPE
  6
ByLayer
  9
$CECOLOR
 62
   256
  9
$CELTSCALE
 40
1.0
  9
$DISPSILH
 70
     0
  9
$DIMSCALE
 40
1.0
  9
$DIMASZ
 40
0.18
  9
$DIMEXO
 40
0.0625
  9
$DIMDLI
 40
0.38
  9
$DIMRND
 40
0.0
  9
$DIMDLE
 40
0.0
  9
$DIMEXE
 40
0.18
  9
$DIMTP
 40
0.0
  9
$DIMTM
 40
0.0
  9
$DIMTXT
 40
0.18
  9
$DIMCEN
 40
0.09
  9
$DIMTSZ
 40
0.0
  9
$DIMTOL
 70
     0
  9
$DIMLIM
 70
     0
  9
$DIMTIH
 70
     1
  9
$DIMTOH
 70
     1
  9
$DIMSE1
 70
     0
  9
$DIMSE2
 70
     0
  9
$DIMTAD
 70
     0
  9
$DIMZIN
 70
     0
  9
$DIMBLK
  1

  9
$DIMASO
 70
     1
  9
$DIMSHO
 70
     1
  9
$DIMPOST
  1

  9
$DIMAPOST
  1

  9
$DIMALT
 70
     0
  9
$DIMALTD
 70
     2
  9
$DIMALTF
 40
25.4
  9
$DIMLFAC
 40
1.0
  9
$DIMTOFL
 70
     0
  9
$DIMTVP
 40
0.0
  9
$DIMTIX
 70
     0
  9
$DIMSOXD
 70
     0
  9
$DIMSAH
 70
     0
  9
$DIMBLK1
  1

  9
$DIMBLK2
  1

  9
$DIMSTYLE
  2
Standard
  9
$DIMCLRD
 70
     0
  9
$DIMCLRE
 70
     0
  9
$DIMCLRT
 70
     0
  9
$DIMTFAC
 40
1.0
  9
$DIMGAP
 40
0.09
  9
$DIMJUST
 70
     0
  9
$DIMSD1
 70
     0
  9
$DIMSD2
 70
     0
  9
$DIMTOLJ
 70
     1
  9
$DIMTZIN
 70
     0
  9
$DIMALTZ
 70
     0
  9
$DIMALTTZ
 70
     0
  9
$DIMUPT
 70
     0
  9
$DIMDEC
 70
     4
  9
$DIMTDEC
 70
     4
  9
$DIMALTU
 70
     2
  9
$DIMALTTD
 70
     2
  9
$DIMTXSTY
  7
Standard
  9
$DIMAUNIT
 70
     0
  9
$DIMADEC
 70
     0
  9
$DIMALTRND
 40
0.0
  9
$DIMAZIN
 70
     0
  9
$DIMDSEP
 70
    46
  9
$DIMATFIT
 70
     3
  9
$DIMFRAC
 70
     0
  9
$DIMLDRBLK
  1

  9
$DIMLUNIT
 70
     2
  9
$DIMLWD
 70
    -2
  9
$DIMLWE
 70
    -2
  9
$DIMTMOVE
 70
     0
  9
$DIMFXL
 40
1.0
  9
$DIMFXLON
 70
     0
  9
$DIMJOGANG
 40
0.7853981633974483
  9
$DIMTFILL
 70
     0
  9
$DIMTFILLCLR
 70
     0
  9
$DIMARCSYM
 70
     0
  9
$DIMLTYPE
  6

  9
$DIMLTEX1
  6

  9
$DIMLTEX2
  6

  9
$DIMTXTDIRECTION
 70
     0
  9
$LUNITS
 70
     2
  9
$LUPREC
 70
     4
  9
$SKETCHINC
 40
0.1
  9
$FILLETRAD
 40
0.5
  9
$AUNITS
 70
     0
  9
$AUPREC
 70
     0
  9
$MENU
  1
.
  9
$ELEVATION
 40
0.0
  9
$PELEVATION
 40
0.0
  9
$THICKNESS
 40
0.0
  9
$LIMCHECK
 70
     0
  9
$CHAMFERA
 40
0.5
  9
$CHAMFERB
 40
0.5
  9
$CHAMFERC
 40
1.0
  9
$CHAMFERD
 40
0.0
  9
$SKPOLY
 70
     0
  9
$TDCREATE
 40
2458128.821990903
  9
$TDUCREATE
 40
2458129.030324236
  9
$TDUPDATE
 40
2458128.821990961
  9
$TDUUPDATE
 40
2458129.030324294
  9
$TDINDWG
 40
0.0000000116
  9
$TDUSRTIMER
 40
0.0000000116
  9
$USRTIMER
 70
     1
  9
$ANGBASE
 50
0.0
  9
$ANGDIR
 70
     0
  9
$PDMODE
 70
     0
  9
$PDSIZE
 40
0.0
  9
$PLINEWID
 40
0.0
  9
$SPLFRAME
 70
     0
  9
$SPLINETYPE
 70
     6
  9
$SPLINESEGS
 70
     8
  9
$HANDSEED
  5
7A
  9
$SURFTAB1
 70
     6
  9
$SURFTAB2
 70
     6
  9
$SURFTYPE
 70
     6
  9
$SURFU
 70
     6
  9
$SURFV
 70
     6
  9
$UCSBASE
  2

  9
$UCSNAME
  2

  9
$UCSORG
 10
0.0
 20
0.0
 30
0.0
  9
$UCSXDIR
 10
1.0
 20
0.0
 30
0.0
  9
$UCSYDIR
 10
0.0
 20
1.0
 30
0.0
  9
$UCSORTHOREF
  2

  9
$UCSORTHOVIEW
 70
     0
  9
$UCSORGTOP
 10
0.0
 20
0.0
 30
0.0
  9
$UCSORGBOTTOM
 10
0.0
 20
0.0
 30
0.0
  9
$UCSORGLEFT
 10
0.0
 20
0.0
 30
0.0
  9
$UCSORGRIGHT
 10
0.0
 20
0.0
 30
0.0
  9
$UCSORGFRONT
 10
0.0
 20
0.0
 30
0.0
  9
$UCSORGBACK
 10
0.0
 20
0.0
 30
0.0
  9
$PUCSBASE
  2

  9
$PUCSNAME
  2

  9
$PUCSORG
 10
0.0
 20
0.0
 30
0.0
  9
$PUCSXDIR
 10
1.0
 20
0.0
 30
0.0
  9
$PUCSYDIR
 10
0.0
 20
1.0
 30
0.0
  9
$PUCSORTHOREF
  2

  9
$PUCSORTHOVIEW
 70
     0
  9
$PUCSORGTOP
 10
0.0
 20
0.0
 30
0.0
  9
$PUCSORGBOTTOM
 10
0.0
 20
0.0
 30
0.0
  9
$PUCSORGLEFT
 10
0.0
 20
0.0
 30
0.0
  9
$PUCSORGRIGHT
 10
0.0
 20
0.0
 30
0.0
  9
$PUCSORGFRONT
 10
0.0
 20
0.0
 30
0.0
  9
$PUCSORGBACK
 10
0.0
 20
0.0
 30
0.0
  9
$USERI1
 70
     0
  9
$USERI2
 70
     0
  9
$USERI3
 70
     0
  9
$USERI4
 70
     0
  9
$USERI5
 70
     0
  9
$USERR1
 40
0.0
  9
$USERR2
 40
0.0
  9
$USERR3
 40
0.0
  9
$USERR4
 40
0.0
  9
$USERR5
 40
0.0
  9
$WORLDVIEW
 70
     1
  9
$SHADEDGE
 70
     3
  9
$SHADEDIF
 70
    70
  9
$TILEMODE
 70
     1
  9
$MAXACTVP
 70
    64
  9
$PINSBASE
 10
0.0
 20
0.0
 30
0.0
  9
$PLIMCHECK
 70
     0
  9
$PEXTMIN
 10
1.000000000000000E+20
 20
1.000000000000000E+20
 30
1.000000000000000E+20
  9
$PEXTMAX
 10
-1.000000000000000E+20
 20
-1.000000000000000E+20
 30
-1.000000000000000E+20
  9
$PLIMMIN
 10
0.0
 20
0.0
  9
$PLIMMAX
 10
12.0
 20
9.0
  9
$UNITMODE
 70
     0
  9
$VISRETAIN
 70
     1
  9
$PLINEGEN
 70
     0
  9
$PSLTSCALE
 70
     1
  9
$TREEDEPTH
 70
  3020
  9
$CMLSTYLE
  2
Standard
  9
$CMLJUST
 70
     0
  9
$CMLSCALE
 40
1.0
  9
$PROXYGRAPHICS
 70
     1
  9
$MEASUREMENT
 70
     0
  9
$CELWEIGHT
370
    -1
  9
$ENDCAPS
280
     0
  9
$JOINSTYLE
280
     0
  9
$LWDISPLAY
290
     1
  9
$INSUNITS
 70
     1
  9
$HYPERLINKBASE
  1

  9
$STYLESHEET
  1

  9
$XEDIT
290
     1
  9
$CEPSNTYPE
380
     0
  9
$PSTYLEMODE
290
     1
  9
$FINGERPRINTGUID
  2
{18674FBB-17E3-4D4F-A4EE-C3E11D1379BF}
  9
$VERSIONGUID
  2
{FAEB1C32-E019-11D5-929B-00C0DF256EC4}
  9
$EXTNAMES
290
     1
  9
$PSVPSCALE
 40
0.0
  9
$OLESTARTUP
290
     0
  9
$SORTENTS
280
   127
  9
$INDEXCTL
280
     0
  9
$HIDETEXT
280
     1
  9
$XCLIPFRAME
280
     2
  9
$HALOGAP
280
     0
  9
$OBSCOLOR
 70
   257
  9
$OBSLTYPE
280
     0
  9
$INTERSECTIONDISPLAY
280
     0
  9
$INTERSECTIONCOLOR
 70
   257
  9
$DIMASSOC
280
     2
  9
$PROJECTNAME
  1

  9
$CAMERADISPLAY
290
     0
  9
$LENSLENGTH
 40
50.0
  9
$CAMERAHEIGHT
 40
0.0
  9
$STEPSPERSEC
 40
2.0
  9
$STEPSIZE
 40
6.0
  9
$3DDWFPREC
 40
2.0
  9
$PSOLWIDTH
 40
0.25
  9
$PSOLHEIGHT
 40
4.0
  9
$LOFTANG1
 40
1.570796326794897
  9
$LOFTANG2
 40
1.570796326794897
  9
$LOFTMAG1
 40
0.0
  9
$LOFTMAG2
 40
0.0
  9
$LOFTPARAM
 70
     7
  9
$LOFTNORMALS
280
     1
  9
$LATITUDE
 40
37.795
  9
$LONGITUDE
 40
-122.394
  9
$NORTHDIRECTION
 40
0.0
  9
$TIMEZONE
 70
 -8000
  9
$LIGHTGLYPHDISPLAY
280
     1
  9
$TILEMODELIGHTSYNCH
280
     1
  9
$CMATERIAL
347
3C
  9
$SOLIDHIST
280
     1
  9
$SHOWHIST
280
     1
  9
$DWFFRAME
280
     2
  9
$DGNFRAME
280
     2
  9
$REALWORLDSCALE
290
     1
  9
$INTERFERECOLOR
 62
   256
  9
$CSHADOW
280
     0
  9
$SHADOWPLANELOCATION
 40
0.0
  0
ENDSEC
  0
SECTION
  2
CLASSES
  0
CLASS
  1
ACDBDICTIONARYWDFLT
  2
AcDbDictionaryWithDefault
  3
ObjectDBX Classes
 90
        0
 91
        4
280
     0
281
     0
  0
CLASS
  1
VISUALSTYLE
  2
AcDbVisualStyle
  3
ObjectDBX Classes
 90
     4095
 91
        4
280
     0
281
     0
  0
CLASS
  1
MATERIAL
  2
AcDbMaterial
  3
ObjectDBX Classes
 90
     1153
 91
        4
280
     0
281
     0
  0
CLASS
  1
SUN
  2
AcDbSun
  3
SCENEOE
 90
     1024
 91
        4
280
     0
281
     0
  0
ENDSEC
  0
SECTION
  2
TABLES
  0
TABLE
  2
VPORT
  5
8
330
0
100
AcDbSymbolTable
 70
     1
  0
VPORT
  5
29
330
8
100
AcDbSymbolTableRecord
100
AcDbViewportTableRecord
  2
*Active
 70
     0
 10
0.0
 20
0.0
 11
1.0
 21
1.0
 12
0.0
 22
0.0
 13
0.0
 23
0.0
 14
0.5
 24
0.5
 15
0.5
 25
0.5
 16
0.0
 26
0.0
 36
1.0
 17
1000.0
 27
-1000.0
 37
0.0
 40
2000.0
 41
1.0
 42
50.0
 43
0.0
 44
0.0
 50
0.0
 51
0.0
 71
     0
 72
   100
 73
     1
 74
     3
 75
     0
 76
     0
 77
     0
 78
     0
281
     0
 65
     1
110
0.0
120
0.0
130
0.0
111
1.0
121
0.0
131
0.0
112
0.0
122
1.0
132
0.0
 79
     0
146
0.0
 60
     3
 61
     5
292
     1
282
     1
141
0.0
142
0.0
 63
   250
361
3F
  0
ENDTAB
  0
TABLE
  2
LTYPE
  5
5
330
0
100
AcDbSymbolTable
 70
     1
  0
LTYPE
  5
14
330
5
100
AcDbSymbolTableRecord
100
AcDbLinetypeTableRecord
  2
ByBlock
 70
     0
  3

 72
    65
 73
     0
 40
0.0
  0
LTYPE
  5
15
330
5
100
AcDbSymbolTableRecord
100
AcDbLinetypeTableRecord
  2
ByLayer
 70
     0
  3

 72
    65
 73
     0
 40
0.0
  0
LTYPE
  5
16
330
5
100
AcDbSymbolTableRecord
100
AcDbLinetypeTableRecord
  2
Continuous
 70
     0
  3
Solid line
 72
    65
 73
     0
 40
0.0
  0
ENDTAB
  0
TABLE
  2
LAYER
  5
2
330
0
100
AcDbSymbolTable
 70
     2
  0
LAYER
  5
10
330
2
100
AcDbSymbolTableRecord
100
AcDbLayerTableRecord
  2
0
 70
     0
 62
     7
  6
Continuous
370
    -3
390
F
347
3E
  0
LAYER
  5
40
330
2
100
AcDbSymbolTableRecord
100
AcDbLayerTableRecord
  2
Layer 1
 70
     0
 62
     7
  6
Continuous
370
    -3
390
F
347
3E
  0
ENDTAB
  0
TABLE
  2
STYLE
  5
3
330
0
100
AcDbSymbolTable
 70
     1
  0
STYLE
  5
11
330
3
100
AcDbSymbolTableRecord
100
AcDbTextStyleTableRecord
  2
Standard
 70
     0
 40
0.0
 41
1.0
 50
0.0
 71
     0
 42
0.2
  3
txt
  4

  0
ENDTAB
  0
TABLE
  2
VIEW
  5
6
330
0
100
AcDbSymbolTable
 70
     0
  0
ENDTAB
  0
TABLE
  2
UCS
  5
7
330
0
100
AcDbSymbolTable
 70
     0
  0
ENDTAB
  0
TABLE
  2
APPID
  5
9
330
0
100
AcDbSymbolTable
 70
     1
  0
APPID
  5
12
330
9
100
AcDbSymbolTableRecord
100
AcDbRegAppTableRecord
  2
ACAD
 70
     0
  0
ENDTAB
  0
TABLE
  2
DIMSTYLE
  5
A
330
0
100
AcDbSymbolTable
 70
     1
100
AcDbDimStyleTable
  0
DIMSTYLE
105
27
330
A
100
AcDbSymbolTableRecord
100
AcDbDimStyleTableRecord
  2
Standard
 70
     0
178
     0
340
11
  0
ENDTAB
  0
TABLE
  2
BLOCK_RECORD
  5
1
330
0
100
AcDbSymbolTable
 70
     3
  0
BLOCK_RECORD
  5
1F
330
1
100
AcDbSymbolTableRecord
100
AcDbBlockTableRecord
  2
*Model_Space
340
22
 70
     0
280
     1
281
     0
  0
BLOCK_RECORD
  5
1B
330
1
100
AcDbSymbolTableRecord
100
AcDbBlockTableRecord
  2
*Paper_Space
340
1E
 70
     0
280
     1
281
     0
  0
BLOCK_RECORD
  5
23
330
1
100
AcDbSymbolTableRecord
100
AcDbBlockTableRecord
  2
*Paper_Space0
340
26
 70
     0
280
     1
281
     0
  0
BLOCK_RECORD
  5
41
330
1
100
AcDbSymbolTableRecord
100
AcDbBlockTableRecord
  2
block 2
340
0
102
{BLKREFS
331
42
102
}
 70
     0
280
     1
281
     0
  0
BLOCK_RECORD
  5
45
330
1
100
AcDbSymbolTableRecord
100
AcDbBlockTableRecord
  2
block 3
340
0
102
{BLKREFS
331
46
102
}
 70
     0
280
     1
281
     0
  0
ENDTAB
  0
ENDSEC
  0
SECTION
  2
BLOCKS
  0
BLOCK
  5
20
330
1F
100
AcDbEntity
  8
0
100
AcDbBlockBegin
  2
*Model_Space
 70
     0
 10
0.0
 20
0.0
 30
0.0
  3
*Model_Space
  1

  0
ENDBLK
  5
21
330
1F
100
AcDbEntity
  8
0
100
AcDbBlockEnd
  0
BLOCK
  5
1C
330
1B
100
AcDbEntity
 67
     1
  8
0
100
AcDbBlockBegin
  2
*Paper_Space
 70
     0
 10
0.0
 20
0.0
 30
0.0
  3
*Paper_Space
  1

  0
ENDBLK
  5
1D
330
1B
100
AcDbEntity
 67
     1
  8
0
100
AcDbBlockEnd
  0
BLOCK
  5
24
330
23
100
AcDbEntity
  8
0
100
AcDbBlockBegin
  2
*Paper_Space0
 70
     0
 10
0.0
 20
0.0
 30
0.0
  3
*Paper_Space0
  1

  0
ENDBLK
  5
25
330
23
100
AcDbEntity
  8
0
100
AcDbBlockEnd
  0
BLOCK
  5
43
330
41
100
AcDbEntity
  8
0
100
AcDbBlockBegin
  2
block 2
 70
     0
 10
0.0
 20
0.0
 30
0.0
  3
block 2
  1

  0
INSERT
  5
46
330
41
100
AcDbEntity
  8
Layer 1
100
AcDbBlockReference
  2
block 3
 10
0.0
 20
0.0
 30
0.0
  0
ENDBLK
  5
44
330
41
100
AcDbEntity
  8
0
100
AcDbBlockEnd
  0
BLOCK
  5
47
330
45
100
AcDbEntity
  8
0
100
AcDbBlockBegin
  2
block 3
 70
     0
 10
0.0
 20
0.0
 30
0.0
  3
block 3
  1

  0
SPLINE
  5
49
330
45
100
AcDbEntity
  8
Layer 1
370
     0
100
AcDbSpline
210
0.0
220
0.0
230
1.0
 70
    11
 71
     3
 72
   107
 73
   103
 74
     0
 42
0.0000000001
 43
0.0000000001
 12
1.0
 22
0.0
 32
0.0
 13
1.0
 23
0.0
 33
0.0
 40
0.0
 40
0.0
 40
0.0
 40
0.0
 40
1.0
 40
1.0
 40
1.0
 40
2.0
 40
2.0
 40
2.0
 40
3.0
 40
3.0
 40
3.0
 40
4.0
 40
4.0
 40
4.0
 40
5.0
 40
5.0
 40
5.0
 40
6.0
 40
6.0
 40
6.0
 40
7.0
 40
7.0
 40
7.0
 40
8.0
 40
8.0
 40
8.0
 40
9.0
 40
9.0
 40
9.0
 40
10.0
 40
10.0
 40
10.0
 40
11.0
 40
11.0
 40
11.0
 40
12.0
 40
12.0
 40
12.0
 40
13.0
 40
13.0
 40
13.0
 40
14.0
 40
14.0
 40
14.0
 40
15.0
 40
15.0
 40
15.0
 40
16.0
 40
16.0
 40
16.0
 40
17.0
 40
17.0
 40
17.0
 40
18.0
 40
18.0
 40
18.0
 40
19.0
 40
19.0
 40
19.0
 40
20.0
 40
20.0
 40
20.0
 40
21.0
 40
21.0
 40
21.0
 40
22.0
 40
22.0
 40
22.0
 40
23.0
 40
23.0
 40
23.0
 40
24.0
 40
24.0
 40
24.0
 40
25.0
 40
25.0
 40
25.0
 40
26.0
 40
26.0
 40
26.0
 40
27.0
 40
27.0
 40
27.0
 40
28.0
 40
28.0
 40
28.0
 40
29.0
 40
29.0
 40
29.0
 40
30.0
 40
30.0
 40
30.0
 40
31.0
 40
31.0
 40
31.0
 40
32.0
 40
32.0
 40
32.0
 40
33.0
 40
33.0
 40
33.0
 40
34.0
 40
34.0
 40
34.0
 40
34.0
 10
767.3905484409806
 20
-1896.060889940609
 30
0.0
 10
765.9632925716087
 20
-1892.777733806903
 30
0.0
 10
764.8487442666546
 20
-1889.313232793151
 30
0.0
 10
763.064385954327
 20
-1886.23729324709
 30
0.0
 10
547.9082510245844
 20
-1515.326767700128
 30
0.0
 10
332.7012836552585
 20
-1144.44563629983
 30
0.0
 10
117.5025833896825
 20
-773.5597678263102
 30
0.0
 10
104.0415521439218
 20
-750.3601946440649
 30
0.0
 10
90.66280477101827
 20
-727.1127648759266
 30
0.0
 10
77.16661366206608
 20
-703.93371901098
 30
0.0
 10
72.81081410191564
 20
-696.4527872213012
 30
0.0
 10
66.58891894195222
 20
-689.6263610485848
 30
0.0
 10
64.0681336321868
 20
-681.6056458383291
 30
0.0
 10
59.80251591373053
 20
-668.033020079145
 30
0.0
 10
58.08504598628588
 20
-653.6804169943007
 30
0.0
 10
54.74670275974586
 20
-639.7877958657391
 30
0.0
 10
52.68791019515811
 20
-631.2201308933645
 30
0.0
 10
49.61026826340913
 20
-622.8972147041723
 30
0.0
 10
46.99005601419231
 20
-614.4644348552338
 30
0.0
 10
46.99005660727562
 20
-611.8110361674844
 30
0.0
 10
46.99005660727562
 20
-609.1576071138816
 30
0.0
 10
46.9900608774733
 20
-606.5042084261322
 30
0.0
 10
48.11079171774691
 20
-605.3269242668293
 30
0.0
 10
49.39452124312265
 20
-604.2658198649033
 30
0.0
 10
50.32851370576827
 20
-602.9554118016958
 30
0.0
 10
76.47183912697801
 20
-566.2768307881261
 30
0.0
 10
102.0410003383604
 20
-529.1743424528158
 30
0.0
 10
128.8283485143738
 20
-492.9730822981601
 30
0.0
 10
163.1814972462435
 20
-446.5471532504471
 30
0.0
 10
191.7973594820223
 20
-395.6705920805643
 30
0.0
 10
236.9614051012086
 20
-357.5967000760229
 30
0.0
 10
267.0506868958919
 20
-332.2310697967596
 30
0.0
 10
293.6905291404028
 20
-302.6423387392952
 30
0.0
 10
324.5682451510838
 20
-278.3710634720792
 30
0.0
 10
385.4932621633025
 20
-230.4812725180063
 30
0.0
 10
448.2155126099424
 20
-184.8723519548985
 30
0.0
 10
510.4541564658921
 20
-138.6699440605616
 30
0.0
 10
515.3768561542347
 20
-135.0156260935
 30
0.0
 10
522.2173113514964
 20
-132.5135499455264
 30
0.0
 10
528.33226556516
 20
-132.1317980205913
 30
0.0
 10
564.3484762055841
 20
-129.8833450766297
 30
0.0
 10
600.4148512368038
 20
-128.4435025607781
 30
0.0
 10
636.4624601702562
 20
-126.692286680217
 30
0.0
 10
731.7062365846987
 20
-122.0652801887272
 30
0.0
 10
826.9522600723358
 20
-117.4799849934288
 30
0.0
 10
922.1895989257318
 20
-112.7231360081314
 30
0.0
 10
939.5973105807971
 20
-111.8536724086198
 30
0.0
 10
956.9684010159472
 20
-110.2531247785746
 30
0.0
 10
974.356435597625
 20
-108.9900555397262
 30
0.0
 10
984.3067186340013
 20
-108.9900566072756
 30
0.0
 10
994.2570016703794
 20
-108.9900566072756
 30
0.0
 10
1004.207284706756
 20
-108.9900575562087
 30
0.0
 10
1006.321962778818
 20
-109.8203022318885
 30
0.0
 10
1008.383743533224
 20
-110.8368324069525
 30
0.0
 10
1010.558849654732
 20
-111.4542608417223
 30
0.0
 10
1175.818572449773
 20
-158.363826845979
 30
0.0
 10
1341.097000610873
 20
-205.2080834897606
 30
0.0
 10
1506.313360966411
 20
-252.2699873920365
 30
0.0
 10
1511.828650295425
 20
-253.8410103971373
 30
0.0
 10
1517.341145965871
 20
-256.8239393324166
 30
0.0
 10
1521.817194307834
 20
-260.4349404087579
 30
0.0
 10
1606.442456702931
 20
-328.706049636
 30
0.0
 10
1690.903743486469
 20
-397.1806859996286
 30
0.0
 10
1775.432078075622
 20
-465.5720895574641
 30
0.0
 10
1780.277982519217
 20
-469.4927464298962
 30
0.0
 10
1787.0448308864
 20
-472.0338218237266
 30
0.0
 10
1790.14457726199
 20
-476.96147114627
 30
0.0
 10
1816.409340477981
 20
-518.7122125815358
 30
0.0
 10
1842.065693443372
 20
-560.8463229234603
 30
0.0
 10
1867.766987872674
 20
-602.9494297284591
 30
0.0
 10
1869.62222008822
 20
-605.988474761918
 30
0.0
 10
1870.670327904638
 20
-609.6127001676723
 30
0.0
 10
1871.628795720068
 20
-613.092839596231
 30
0.0
 10
1886.043223683642
 20
-665.4293302943825
 30
0.0
 10
1900.252014083977
 20
-717.8226962370618
 30
0.0
 10
1914.768714243797
 20
-770.130612666605
 30
0.0
 10
1930.256392950896
 20
-825.9373435249136
 30
0.0
 10
1947.189972161716
 20
-881.3752507206245
 30
0.0
 10
1950.803265860033
 20
-939.7570667292339
 30
0.0
 10
1951.815541968739
 20
-956.1107795922071
 30
0.0
 10
1955.166353225142
 20
-972.3197080633417
 30
0.0
 10
1957.444399591686
 20
-988.5950770230138
 30
0.0
 10
1957.444399591686
 20
-993.2385626838932
 30
0.0
 10
1957.444399591686
 20
-997.8819876130638
 30
0.0
 10
1957.444399591686
 20
-1002.525473273943
 30
0.0
 10
1934.699281780297
 20
-1027.908958675354
 30
0.0
 10
1911.948212261526
 20
-1053.287099686462
 30
0.0
 10
1889.213661767328
 20
-1078.679877039196
 30
0.0
 10
1884.130174882092
 20
-1084.357866613902
 30
0.0
 10
1877.770593348661
 20
-1089.38068252286
 30
0.0
 10
1874.30184111535
 20
-1095.925860155894
 30
0.0
 10
1863.829994170792
 20
-1115.684010373423
 30
0.0
 10
1844.044332489546
 20
-1124.318966078245
 30
0.0
 10
1827.385746452484
 20
-1136.337467430076
 30
0.0
 10
1479.151954813718
 20
-1387.574218976561
 30
0.0
 10
1130.702444148188
 20
-1638.511563202675
 30
0.0
 10
782.3285444590992
 20
-1889.553973283606
 30
0.0
 10
779.7688244309174
 20
-1891.398516718547
 30
0.0
 10
777.6666570907009
 20
-1893.877949428772
 30
0.0
 10
775.3507748700822
 20
-1896.060889940609
 30
0.0
 10
772.6973458164784
 20
-1896.060889940609
 30
0.0
 10
770.0439774945835
 20
-1896.060889940609
 30
0.0
 10
767.3905484409806
 20
-1896.060889940609
 30
0.0
  0
SPLINE
  5
4A
330
45
100
AcDbEntity
  8
Layer 1
370
     0
100
AcDbSpline
210
0.0
220
0.0
230
1.0
 70
    11
 71
     3
 72
    65
 73
    61
 74
     0
 42
0.0000000001
 43
0.0000000001
 12
1.0
 22
0.0
 32
0.0
 13
1.0
 23
0.0
 33
0.0
 40
0.0
 40
0.0
 40
0.0
 40
0.0
 40
1.0
 40
1.0
 40
1.0
 40
2.0
 40
2.0
 40
2.0
 40
3.0
 40
3.0
 40
3.0
 40
4.0
 40
4.0
 40
4.0
 40
5.0
 40
5.0
 40
5.0
 40
6.0
 40
6.0
 40
6.0
 40
7.0
 40
7.0
 40
7.0
 40
8.0
 40
8.0
 40
8.0
 40
9.0
 40
9.0
 40
9.0
 40
10.0
 40
10.0
 40
10.0
 40
11.0
 40
11.0
 40
11.0
 40
12.0
 40
12.0
 40
12.0
 40
13.0
 40
13.0
 40
13.0
 40
14.0
 40
14.0
 40
14.0
 40
15.0
 40
15.0
 40
15.0
 40
16.0
 40
16.0
 40
16.0
 40
17.0
 40
17.0
 40
17.0
 40
18.0
 40
18.0
 40
18.0
 40
19.0
 40
19.0
 40
19.0
 40
20.0
 40
20.0
 40
20.0
 40
20.0
 10
1781.983450342872
 20
-482.8508070647677
 30
0.0
 10
1780.586742522617
 20
-481.3213093650011
 30
0.0
 10
1780.195387396356
 20
-480.7661304564499
 30
0.0
 10
1779.687670317595
 20
-480.354673134847
 30
0.0
 10
1691.351093247491
 20
-408.7823552736991
 30
0.0
 10
1603.025690811657
 20
-337.1963120465471
 30
0.0
 10
1514.584533740401
 20
-265.7535045526784
 30
0.0
 10
1511.375227363604
 20
-263.1610197680384
 30
0.0
 10
1507.199558049339
 20
-261.369859504417
 30
0.0
 10
1503.183491663662
 20
-260.2279819308696
 30
0.0
 10
1337.634200084944
 20
-213.1578033333808
 30
0.0
 10
1172.055271432731
 20
-166.1922275114339
 30
0.0
 10
1006.451928633907
 20
-119.3125747201593
 30
0.0
 10
1002.395475662419
 20
-118.1642491473031
 30
0.0
 10
997.9927304919947
 20
-117.4918390636813
 30
0.0
 10
993.8016960556106
 20
-117.6851376519371
 30
0.0
 10
961.7041988729634
 20
-119.1655119403385
 30
0.0
 10
929.6229777880571
 20
-120.9916754932183
 30
0.0
 10
897.5297318249704
 20
-122.5688485326864
 30
0.0
 10
775.4419938954761
 20
-128.5686630194732
 30
0.0
 10
653.3555313318502
 20
-134.5976496026178
 30
0.0
 10
531.2523371826746
 20
-140.2664610979555
 30
0.0
 10
524.2937588133809
 20
-140.589519622853
 30
0.0
 10
520.5406910891343
 20
-143.2134368621073
 30
0.0
 10
516.9060805613144
 20
-148.4945181550056
 30
0.0
 10
499.9998913507952
 20
-173.0591161845969
 30
0.0
 10
482.8010967712007
 20
-197.4223164833111
 30
0.0
 10
465.7183604855672
 20
-221.8654852585169
 30
0.0
 10
444.6751880587699
 20
-251.9755448887945
 30
0.0
 10
423.6431902662416
 20
-282.0934161350124
 30
0.0
 10
402.3088396655075
 20
-312.6338586053944
 30
0.0
 10
405.2299437220572
 20
-315.1830568651667
 30
0.0
 10
407.6047964311301
 20
-317.4163743287791
 30
0.0
 10
410.1422279224807
 20
-319.4465442291794
 30
0.0
 10
494.5240472661189
 20
-386.9600861310073
 30
0.0
 10
578.8639009995386
 20
-454.5264798017106
 30
0.0
 10
663.4381487599285
 20
-521.7982639569746
 30
0.0
 10
669.4501019968493
 20
-526.5802786437689
 30
0.0
 10
676.8226276877731
 20
-530.5157236870964
 30
0.0
 10
684.1968538665205
 20
-532.5939931002213
 30
0.0
 10
844.7461039267746
 20
-577.8415144520332
 30
0.0
 10
1005.376430817189
 20
-622.8020481177591
 30
0.0
 10
1166.027406488318
 20
-667.6876388558303
 30
0.0
 10
1177.112522220115
 20
-670.7847130362688
 30
0.0
 10
1188.544294541096
 20
-675.3023625982014
 30
0.0
 10
1199.708361493276
 20
-675.0152230828453
 30
0.0
 10
1263.287779266426
 20
-673.3802647721623
 30
0.0
 10
1326.834887770927
 20
-670.4909537647418
 30
0.0
 10
1390.39280651945
 20
-668.0194769082646
 30
0.0
 10
1474.141224514651
 20
-664.7629212626553
 30
0.0
 10
1557.894743973322
 20
-661.6166543987474
 30
0.0
 10
1641.623849285384
 20
-657.9209477726936
 30
0.0
 10
1646.257921531525
 20
-657.7164033801982
 30
0.0
 10
1652.010793302179
 20
-653.9554101680596
 30
0.0
 10
1655.005716749785
 20
-650.1081779305814
 30
0.0
 10
1678.417911641689
 20
-620.0329251604426
 30
0.0
 10
1701.299432869213
 20
-589.5441501906298
 30
0.0
 10
1724.310677024994
 20
-559.157283026816
 30
0.0
 10
1743.498860163078
 20
-533.8190731137083
 30
0.0
 10
1762.641130129921
 20
-508.4460942977785
 30
0.0
 10
1781.983450342872
 20
-482.8508070647677
 30
0.0
  0
SPLINE
  5
4B
330
45
100
AcDbEntity
  8
Layer 1
370
     0
100
AcDbSpline
210
0.0
220
0.0
230
1.0
 70
    11
 71
     3
 72
    26
 73
    22
 74
     0
 42
0.0000000001
 43
0.0000000001
 12
1.0
 22
0.0
 32
0.0
 13
1.0
 23
0.0
 33
0.0
 40
0.0
 40
0.0
 40
0.0
 40
0.0
 40
1.0
 40
1.0
 40
1.0
 40
2.0
 40
2.0
 40
2.0
 40
3.0
 40
3.0
 40
3.0
 40
4.0
 40
4.0
 40
4.0
 40
5.0
 40
5.0
 40
5.0
 40
6.0
 40
6.0
 40
6.0
 40
7.0
 40
7.0
 40
7.0
 40
7.0
 10
878.4762516152005
 20
-784.1440898940582
 30
0.0
 10
965.5851979400823
 20
-892.1948474251085
 30
0.0
 10
1051.646643765627
 20
-998.9461893320968
 30
0.0
 10
1138.030817887406
 20
-1106.097935389835
 30
0.0
 10
1231.458291111121
 20
-1024.271493757258
 30
0.0
 10
1324.295695060046
 20
-942.961818227931
 30
0.0
 10
1417.547775111096
 20
-861.288967084849
 30
0.0
 10
1415.160168743347
 20
-859.1378499879957
 30
0.0
 10
1413.791397508765
 20
-857.7490372897792
 30
0.0
 10
1412.26921797981
 20
-856.5557199595678
 30
0.0
 10
1341.08291085462
 20
-800.7471064183128
 30
0.0
 10
1269.837086655603
 20
-745.0140431217915
 30
0.0
 10
1198.78293172699
 20
-689.0375671396632
 30
0.0
 10
1193.755439476517
 20
-685.0768880716678
 30
0.0
 10
1189.573696991454
 20
-685.6543858829036
 30
0.0
 10
1184.257243274385
 20
-687.3500759015724
 30
0.0
 10
1129.732194381408
 20
-704.7405397515704
 30
0.0
 10
1075.157224024466
 20
-721.9746194535037
 30
0.0
 10
1020.590452448103
 20
-739.2341457410839
 30
0.0
 10
973.613626077251
 20
-754.0930083436979
 30
0.0
 10
926.6292082429027
 20
-768.9281248484886
 30
0.0
 10
878.4762516152005
 20
-784.1440898940582
 30
0.0
  0
SPLINE
  5
4C
330
45
100
AcDbEntity
  8
Layer 1
370
     0
100
AcDbSpline
210
0.0
220
0.0
230
1.0
 70
    11
 71
     3
 72
    26
 73
    22
 74
     0
 42
0.0000000001
 43
0.0000000001
 12
1.0
 22
0.0
 32
0.0
 13
1.0
 23
0.0
 33
0.0
 40
0.0
 40
0.0
 40
0.0
 40
0.0
 40
1.0
 40
1.0
 40
1.0
 40
2.0
 40
2.0
 40
2.0
 40
3.0
 40
3.0
 40
3.0
 40
4.0
 40
4.0
 40
4.0
 40
5.0
 40
5.0
 40
5.0
 40
6.0
 40
6.0
 40
6.0
 40
7.0
 40
7.0
 40
7.0
 40
7.0
 10
863.3884304734811
 20
-779.9208069207325
 30
0.0
 10
861.713814357483
 20
-777.495850552571
 30
0.0
 10
861.0334370329192
 20
-776.36192883277
 30
0.0
 10
860.2116762921651
 20
-775.3418183337344
 30
0.0
 10
798.0519836565963
 20
-698.1823048013184
 30
0.0
 10
735.8104854103722
 20
-621.0884422452345
 30
0.0
 10
673.849081801377
 20
-543.7700545647276
 30
0.0
 10
669.0352436995981
 20
-537.7631116937155
 30
0.0
 10
663.9430114484139
 20
-538.7199701188847
 30
0.0
 10
658.0193621149047
 20
-539.6387193972923
 30
0.0
 10
590.9458062545054
 20
-550.0419091459726
 30
0.0
 10
523.8630495403468
 20
-560.3859765769294
 30
0.0
 10
456.7873377043143
 20
-570.775471325459
 30
0.0
 10
434.9642486835646
 20
-574.1557070943809
 30
0.0
 10
413.1544599068638
 20
-577.6221211569346
 30
0.0
 10
390.6720978300755
 20
-581.1537610738651
 30
0.0
 10
411.1071940306656
 20
-691.1017771623892
 30
0.0
 10
431.3465519364181
 20
-799.9967054344415
 30
0.0
 10
451.8213059423233
 20
-910.1580112814108
 30
0.0
 10
589.3602835541224
 20
-866.6348756802909
 30
0.0
 10
725.7918184708033
 20
-823.4621620342477
 30
0.0
 10
863.3884304734811
 20
-779.9208069207325
 30
0.0
  0
SPLINE
  5
4D
330
45
100
AcDbEntity
  8
Layer 1
370
     0
100
AcDbSpline
210
0.0
220
0.0
230
1.0
 70
    11
 71
     3
 72
    38
 73
    34
 74
     0
 42
0.0000000001
 43
0.0000000001
 12
1.0
 22
0.0
 32
0.0
 13
1.0
 23
0.0
 33
0.0
 40
0.0
 40
0.0
 40
0.0
 40
0.0
 40
1.0
 40
1.0
 40
1.0
 40
2.0
 40
2.0
 40
2.0
 40
3.0
 40
3.0
 40
3.0
 40
4.0
 40
4.0
 40
4.0
 40
5.0
 40
5.0
 40
5.0
 40
6.0
 40
6.0
 40
6.0
 40
7.0
 40
7.0
 40
7.0
 40
8.0
 40
8.0
 40
8.0
 40
9.0
 40
9.0
 40
9.0
 40
10.0
 40
10.0
 40
10.0
 40
11.0
 40
11.0
 40
11.0
 40
11.0
 10
775.6840097517997
 20
-1880.185742936563
 30
0.0
 10
778.7661439320736
 20
-1877.361232661564
 30
0.0
 10
780.2239478505626
 20
-1876.183280453473
 30
0.0
 10
781.5001032304663
 20
-1874.833700438616
 30
0.0
 10
870.282268842062
 20
-1780.938835990244
 30
0.0
 10
958.9970222577931
 20
-1686.979960321654
 30
0.0
 10
1047.946625188306
 20
-1593.243970021374
 30
0.0
 10
1053.48329207853
 20
-1587.409474835187
 30
0.0
 10
1056.596703088417
 20
-1581.39047672014
 30
0.0
 10
1057.837634077689
 20
-1573.550620536267
 30
0.0
 10
1075.543477687255
 20
-1461.690223694981
 30
0.0
 10
1093.453015445406
 20
-1349.861893195512
 30
0.0
 10
1111.273034665986
 20
-1238.019351476374
 30
0.0
 10
1112.933682489147
 20
-1227.597668922612
 30
0.0
 10
1114.319458601965
 20
-1217.132259539099
 30
0.0
 10
1115.832771301553
 20
-1206.687134546055
 30
0.0
 10
1114.836892754003
 20
-1206.13131795457
 30
0.0
 10
1113.841135669871
 20
-1205.575501363084
 30
0.0
 10
1112.845257122321
 20
-1205.0196847716
 30
0.0
 10
1110.189823922354
 20
-1208.374382857313
 30
0.0
 10
1107.811570237634
 20
-1211.999944360645
 30
0.0
 10
1104.838753131733
 20
-1215.044667808799
 30
0.0
 10
997.628522439205
 20
-1324.842008529811
 30
0.0
 10
890.4026229660158
 20
-1434.624287787241
 30
0.0
 10
782.9864510517082
 20
-1544.219999237741
 30
0.0
 10
777.6834797738129
 20
-1549.630587102187
 30
0.0
 10
775.5091024328003
 20
-1554.933801306914
 30
0.0
 10
775.5333343842867
 20
-1562.463925780061
 30
0.0
 10
775.7800265821252
 20
-1639.053047111076
 30
0.0
 10
775.6840704835076
 20
-1715.643383076249
 30
0.0
 10
775.6840704835076
 20
-1792.233354651176
 30
0.0
 10
775.6840704835076
 20
-1820.731222769802
 30
0.0
 10
775.6840097517997
 20
-1849.229090888428
 30
0.0
 10
775.6840097517997
 20
-1880.185742936563
 30
0.0
  0
SPLINE
  5
4E
330
45
100
AcDbEntity
  8
Layer 1
370
     0
100
AcDbSpline
210
0.0
220
0.0
230
1.0
 70
    11
 71
     3
 72
    29
 73
    25
 74
     0
 42
0.0000000001
 43
0.0000000001
 12
1.0
 22
0.0
 32
0.0
 13
1.0
 23
0.0
 33
0.0
 40
0.0
 40
0.0
 40
0.0
 40
0.0
 40
1.0
 40
1.0
 40
1.0
 40
2.0
 40
2.0
 40
2.0
 40
3.0
 40
3.0
 40
3.0
 40
4.0
 40
4.0
 40
4.0
 40
5.0
 40
5.0
 40
5.0
 40
6.0
 40
6.0
 40
6.0
 40
7.0
 40
7.0
 40
7.0
 40
8.0
 40
8.0
 40
8.0
 40
8.0
 10
1431.522019655189
 20
-860.6318500044445
 30
0.0
 10
1535.05719250238
 20
-941.7535001658471
 30
0.0
 10
1638.151696076426
 20
-1022.52995129906
 30
0.0
 10
1742.433504541592
 20
-1104.23663000349
 30
0.0
 10
1747.900329967633
 20
-1063.277404918403
 30
0.0
 10
1753.141111976551
 20
-1024.239731073982
 30
0.0
 10
1758.316182277427
 20
-985.1933725953186
 30
0.0
 10
1769.369353130825
 20
-901.7953158234877
 30
0.0
 10
1780.28150495828
 20
-818.3781285636414
 30
0.0
 10
1791.615742156235
 20
-735.0183934995484
 30
0.0
 10
1792.569594361859
 20
-728.0030917149961
 30
0.0
 10
1790.756874341901
 20
-725.19297485479
 30
0.0
 10
1784.457781589625
 20
-722.5790214113777
 30
0.0
 10
1743.497402602085
 20
-705.5814917120479
 30
0.0
 10
1702.621197761813
 20
-688.371158107936
 30
0.0
 10
1661.950144631119
 20
-670.6953159621144
 30
0.0
 10
1654.640233331127
 20
-667.5183795856738
 30
0.0
 10
1650.106004012914
 20
-668.8964427715773
 30
0.0
 10
1644.534962975971
 20
-673.8403681918617
 30
0.0
 10
1612.820986529254
 20
-701.9850206968431
 30
0.0
 10
1580.810396420735
 20
-729.7954666127789
 30
0.0
 10
1548.916168264717
 20
-757.7372144813799
 30
0.0
 10
1510.034635641528
 20
-791.800232661275
 30
0.0
 10
1471.168407408752
 20
-825.8808630364865
 30
0.0
 10
1431.522019655189
 20
-860.6318500044445
 30
0.0
  0
SPLINE
  5
4F
330
45
100
AcDbEntity
  8
Layer 1
370
     0
100
AcDbSpline
210
0.0
220
0.0
230
1.0
 70
    11
 71
     3
 72
    38
 73
    34
 74
     0
 42
0.0000000001
 43
0.0000000001
 12
1.0
 22
0.0
 32
0.0
 13
1.0
 23
0.0
 33
0.0
 40
0.0
 40
0.0
 40
0.0
 40
0.0
 40
1.0
 40
1.0
 40
1.0
 40
2.0
 40
2.0
 40
2.0
 40
3.0
 40
3.0
 40
3.0
 40
4.0
 40
4.0
 40
4.0
 40
5.0
 40
5.0
 40
5.0
 40
6.0
 40
6.0
 40
6.0
 40
7.0
 40
7.0
 40
7.0
 40
8.0
 40
8.0
 40
8.0
 40
9.0
 40
9.0
 40
9.0
 40
10.0
 40
10.0
 40
10.0
 40
11.0
 40
11.0
 40
11.0
 40
11.0
 10
765.369457930924
 20
-1870.96496917651
 30
0.0
 10
766.0431547676098
 20
-1870.796377955143
 30
0.0
 10
766.7168516042948
 20
-1870.62790819719
 30
0.0
 10
767.3905484409806
 20
-1870.459438439237
 30
0.0
 10
767.3905484409806
 20
-1867.320216453456
 30
0.0
 10
767.3905484409806
 20
-1864.181115931091
 30
0.0
 10
767.3905484409806
 20
-1861.04189394531
 30
0.0
 10
767.3905484409806
 20
-1761.240627968498
 30
0.0
 10
767.4814030761263
 20
-1661.438997601437
 30
0.0
 10
767.1721572190636
 20
-1561.638703331952
 30
0.0
 10
767.1529659993403
 20
-1555.438846190524
 30
0.0
 10
765.2479337832447
 20
-1548.510937333762
 30
0.0
 10
762.108165212092
 20
-1543.161202640718
 30
0.0
 10
663.5415748586283
 20
-1375.216045181965
 30
0.0
 10
564.7145062096133
 20
-1207.423810163922
 30
0.0
 10
465.9062036583664
 20
-1039.620461243316
 30
0.0
 10
464.1489924195084
 20
-1036.636287308023
 30
0.0
 10
462.1354630070964
 20
-1033.803031667074
 30
0.0
 10
458.6899710179441
 20
-1028.520526974769
 30
0.0
 10
459.2786130975956
 20
-1033.464270199929
 30
0.0
 10
459.3863207817076
 20
-1035.432038270374
 30
0.0
 10
459.7592134687402
 20
-1037.348062925616
 30
0.0
 10
482.8431534789806
 20
-1155.968020329125
 30
0.0
 10
505.855855195754
 20
-1274.601946025472
 30
0.0
 10
529.1559089888624
 20
-1393.179634160224
 30
0.0
 10
532.519018416132
 20
-1410.29516556817
 30
0.0
 10
534.1084583116799
 20
-1428.768172113012
 30
0.0
 10
541.8814488850621
 20
-1443.848948376606
 30
0.0
 10
605.5762569033841
 20
-1567.427042420068
 30
0.0
 10
670.5393251795722
 20
-1690.351420358773
 30
0.0
 10
735.1256746711251
 20
-1813.470018299617
 30
0.0
 10
745.1852140501687
 20
-1832.646298022933
 30
0.0
 10
755.2870834296782
 20
-1851.800471404544
 30
0.0
 10
765.369457930924
 20
-1870.96496917651
 30
0.0
  0
SPLINE
  5
50
330
45
100
AcDbEntity
  8
Layer 1
370
     0
100
AcDbSpline
210
0.0
220
0.0
230
1.0
 70
    11
 71
     3
 72
    26
 73
    22
 74
     0
 42
0.0000000001
 43
0.0000000001
 12
1.0
 22
0.0
 32
0.0
 13
1.0
 23
0.0
 33
0.0
 40
0.0
 40
0.0
 40
0.0
 40
0.0
 40
1.0
 40
1.0
 40
1.0
 40
2.0
 40
2.0
 40
2.0
 40
3.0
 40
3.0
 40
3.0
 40
4.0
 40
4.0
 40
4.0
 40
5.0
 40
5.0
 40
5.0
 40
6.0
 40
6.0
 40
6.0
 40
7.0
 40
7.0
 40
7.0
 40
7.0
 10
1115.07666153713
 20
-1192.435831950132
 30
0.0
 10
1112.628323461395
 20
-1191.118804130752
 30
0.0
 10
1111.248741982792
 20
-1190.220096315979
 30
0.0
 10
1109.754499039513
 20
-1189.595652894472
 30
0.0
 10
1058.759723600035
 20
-1168.28307461105
 30
0.0
 10
1007.765130355681
 20
-1146.969767547133
 30
0.0
 10
956.7214658912771
 20
-1125.774705118662
 30
0.0
 10
953.7481022000047
 20
-1124.540029495312
 30
0.0
 10
950.3869058215369
 20
-1123.813678267805
 30
0.0
 10
947.1677609080461
 20
-1123.661363144176
 30
0.0
 10
907.4641031538549
 20
-1121.782263367391
 30
0.0
 10
867.7612956435751
 20
-1119.832350419094
 30
0.0
 10
828.0405722794394
 20
-1118.390701134929
 30
0.0
 10
810.9682211158715
 20
-1117.771116250058
 30
0.0
 10
793.8546938542895
 20
-1118.287032109398
 30
0.0
 10
776.364204881239
 20
-1118.287032109398
 30
0.0
 10
776.364204881239
 20
-1257.07987656427
 30
0.0
 10
776.364204881239
 20
-1396.711425906424
 30
0.0
 10
776.364204881239
 20
-1538.775523080238
 30
0.0
 10
889.9849710101989
 20
-1422.596130093842
 30
0.0
 10
1002.058111024558
 20
-1307.999283954136
 30
0.0
 10
1115.07666153713
 20
-1192.435831950132
 30
0.0
  0
SPLINE
  5
51
330
45
100
AcDbEntity
  8
Layer 1
370
     0
100
AcDbSpline
210
0.0
220
0.0
230
1.0
 70
    11
 71
     3
 72
    29
 73
    25
 74
     0
 42
0.0000000001
 43
0.0000000001
 12
1.0
 22
0.0
 32
0.0
 13
1.0
 23
0.0
 33
0.0
 40
0.0
 40
0.0
 40
0.0
 40
0.0
 40
1.0
 40
1.0
 40
1.0
 40
2.0
 40
2.0
 40
2.0
 40
3.0
 40
3.0
 40
3.0
 40
4.0
 40
4.0
 40
4.0
 40
5.0
 40
5.0
 40
5.0
 40
6.0
 40
6.0
 40
6.0
 40
7.0
 40
7.0
 40
7.0
 40
8.0
 40
8.0
 40
8.0
 40
8.0
 10
455.4016526890582
 20
-1004.786879152498
 30
0.0
 10
559.5145966401697
 20
-1181.623158660357
 30
0.0
 10
662.4003653338686
 20
-1356.37500448673
 30
0.0
 10
765.2861947592755
 20
-1531.126971776519
 30
0.0
 10
765.9875245230942
 20
-1530.943440554987
 30
0.0
 10
766.6888542869137
 20
-1530.759787870038
 30
0.0
 10
767.3901840507324
 20
-1530.576256648505
 30
0.0
 10
767.3901840507324
 20
-1528.440808332312
 30
0.0
 10
767.3901840507324
 20
-1526.305481479534
 30
0.0
 10
767.3901840507324
 20
-1524.170154626758
 30
0.0
 10
767.3902447824403
 20
-1390.178394614986
 30
0.0
 10
767.3494330746744
 20
-1256.186634603217
 30
0.0
 10
767.5286523449395
 20
-1122.195117518277
 30
0.0
 10
767.5363652718534
 20
-1116.403984771592
 30
0.0
 10
765.572119640472
 20
-1113.425398153435
 30
0.0
 10
760.6733178792219
 20
-1110.689738367219
 30
0.0
 10
715.2697464037401
 20
-1085.334068088065
 30
0.0
 10
669.8839693186983
 20
-1059.94135146704
 30
0.0
 10
624.7648651634227
 20
-1034.084887523835
 30
0.0
 10
611.0783674517652
 20
-1026.241569632606
 30
0.0
 10
597.318384373445
 20
-1020.742070547669
 30
0.0
 10
581.2410615135141
 20
-1019.214121506457
 30
0.0
 10
540.0592243528044
 20
-1015.300327317027
 30
0.0
 10
499.0193779253659
 20
-1009.892411647732
 30
0.0
 10
455.4016526890582
 20
-1004.786879152498
 30
0.0
  0
SPLINE
  5
52
330
45
100
AcDbEntity
  8
Layer 1
370
     0
100
AcDbSpline
210
0.0
220
0.0
230
1.0
 70
    11
 71
     3
 72
    38
 73
    34
 74
     0
 42
0.0000000001
 43
0.0000000001
 12
1.0
 22
0.0
 32
0.0
 13
1.0
 23
0.0
 33
0.0
 40
0.0
 40
0.0
 40
0.0
 40
0.0
 40
1.0
 40
1.0
 40
1.0
 40
2.0
 40
2.0
 40
2.0
 40
3.0
 40
3.0
 40
3.0
 40
4.0
 40
4.0
 40
4.0
 40
5.0
 40
5.0
 40
5.0
 40
6.0
 40
6.0
 40
6.0
 40
7.0
 40
7.0
 40
7.0
 40
8.0
 40
8.0
 40
8.0
 40
9.0
 40
9.0
 40
9.0
 40
10.0
 40
10.0
 40
10.0
 40
11.0
 40
11.0
 40
11.0
 40
11.0
 10
79.98787099495621
 20
-676.6649391985684
 30
0.0
 10
83.24305258567165
 20
-676.029199679374
 30
0.0
 10
84.82084717621365
 20
-675.907493336571
 30
0.0
 10
86.27048647570973
 20
-675.4113152823275
 30
0.0
 10
182.3945272443552
 20
-642.5116737006065
 30
0.0
 10
278.4822770217479
 20
-609.5054479713699
 30
0.0
 10
374.6801637515728
 20
-576.8233473676528
 30
0.0
 10
381.2154724820593
 20
-574.6030264895498
 30
0.0
 10
382.1365599312248
 20
-570.7437693738902
 30
0.0
 10
382.3450215188859
 20
-565.0869447994164
 30
0.0
 10
384.6876560568726
 20
-501.5172137336904
 30
0.0
 10
387.3069235247331
 20
-437.9572301070957
 30
0.0
 10
389.4657535485012
 20
-374.3814866022794
 30
0.0
 10
390.1149451410147
 20
-355.2638585259492
 30
0.0
 10
389.5661734276555
 20
-336.1055553881961
 30
0.0
 10
389.5661734276555
 20
-316.2160273033687
 30
0.0
 10
368.6780794172
 20
-309.5130383271326
 30
0.0
 10
346.7293061267737
 20
-302.1615713559531
 30
0.0
 10
324.528465882353
 20
-295.6725857357314
 30
0.0
 10
321.1386648694233
 20
-294.6817782857988
 30
0.0
 10
315.4760404168364
 20
-296.4821849519622
 30
0.0
 10
312.7348844110484
 20
-299.0153955896076
 30
0.0
 10
279.3921594707899
 20
-329.8287815386047
 30
0.0
 10
246.3040522162619
 20
-360.9207741979853
 30
0.0
 10
213.4308289275141
 20
-392.2353941159154
 30
0.0
 10
209.0285999766083
 20
-396.4289185523276
 30
0.0
 10
205.2769290816459
 20
-401.8342834898876
 30
0.0
 10
202.7348364317077
 20
-407.3720435508549
 30
0.0
 10
166.2795583169373
 20
-486.7876489373784
 30
0.0
 10
130.0777591683727
 20
-566.3196162764016
 30
0.0
 10
93.83353512604845
 20
-645.8320583713084
 30
0.0
 10
89.37851893370862
 20
-655.605490674031
 30
0.0
 10
85.03056135535189
 20
-665.4276905382667
 30
0.0
 10
79.98787099495621
 20
-676.6649391985684
 30
0.0
  0
SPLINE
  5
53
330
45
100
AcDbEntity
  8
Layer 1
370
     0
100
AcDbSpline
210
0.0
220
0.0
230
1.0
 70
    11
 71
     3
 72
    29
 73
    25
 74
     0
 42
0.0000000001
 43
0.0000000001
 12
1.0
 22
0.0
 32
0.0
 13
1.0
 23
0.0
 33
0.0
 40
0.0
 40
0.0
 40
0.0
 40
0.0
 40
1.0
 40
1.0
 40
1.0
 40
2.0
 40
2.0
 40
2.0
 40
3.0
 40
3.0
 40
3.0
 40
4.0
 40
4.0
 40
4.0
 40
5.0
 40
5.0
 40
5.0
 40
6.0
 40
6.0
 40
6.0
 40
7.0
 40
7.0
 40
7.0
 40
8.0
 40
8.0
 40
8.0
 40
8.0
 10
1415.258068256619
 20
-1204.570634522754
 30
0.0
 10
1375.227127328093
 20
-1192.216833411134
 30
0.0
 10
1336.975989833796
 20
-1180.356295231775
 30
0.0
 10
1298.663877704681
 20
-1168.696414615601
 30
0.0
 10
1295.622798159004
 20
-1167.770863385898
 30
0.0
 10
1292.06367714421
 20
-1167.640168750313
 30
0.0
 10
1288.905263938706
 20
-1168.143513146098
 30
0.0
 10
1237.558426788037
 20
-1176.326382016676
 30
0.0
 10
1186.256774028107
 20
-1184.796147475778
 30
0.0
 10
1134.885887121074
 20
-1192.822571466584
 30
0.0
 10
1128.479299245664
 20
-1193.823551477604
 30
0.0
 10
1126.334376783025
 20
-1196.191966625631
 30
0.0
 10
1125.325987503629
 20
-1202.593938891236
 30
0.0
 10
1109.195281472381
 20
-1304.999259043059
 30
0.0
 10
1092.723749095914
 20
-1407.350892365024
 30
0.0
 10
1076.37185818418
 20
-1509.72147397988
 30
0.0
 10
1073.159515221985
 20
-1529.831928835432
 30
0.0
 10
1070.123051286115
 20
-1549.970563203491
 30
0.0
 10
1067.005449788378
 20
-1570.09620098604
 30
0.0
 10
1067.631472234294
 20
-1570.380182452582
 30
0.0
 10
1068.257373216795
 20
-1570.664042455706
 30
0.0
 10
1068.883395662711
 20
-1570.947902458831
 30
0.0
 10
1183.932935953742
 20
-1449.254434777582
 30
0.0
 10
1298.982354781358
 20
-1327.560967096331
 30
0.0
 10
1415.258068256619
 20
-1204.570634522754
 30
0.0
  0
SPLINE
  5
54
330
45
100
AcDbEntity
  8
Layer 1
370
     0
100
AcDbSpline
210
0.0
220
0.0
230
1.0
 70
    11
 71
     3
 72
    29
 73
    25
 74
     0
 42
0.0000000001
 43
0.0000000001
 12
1.0
 22
0.0
 32
0.0
 13
1.0
 23
0.0
 33
0.0
 40
0.0
 40
0.0
 40
0.0
 40
0.0
 40
1.0
 40
1.0
 40
1.0
 40
2.0
 40
2.0
 40
2.0
 40
3.0
 40
3.0
 40
3.0
 40
4.0
 40
4.0
 40
4.0
 40
5.0
 40
5.0
 40
5.0
 40
6.0
 40
6.0
 40
6.0
 40
7.0
 40
7.0
 40
7.0
 40
8.0
 40
8.0
 40
8.0
 40
8.0
 10
873.7142783920417
 20
-792.0439490054214
 30
0.0
 10
872.412676426492
 20
-793.8638353669212
 30
0.0
 10
871.6204312958189
 20
-794.563039520961
 30
0.0
 10
871.3345671463303
 20
-795.4293166036687
 30
0.0
 10
847.5877405434248
 20
-867.3952366642716
 30
0.0
 10
823.9615271125804
 20
-939.401118188729
 30
0.0
 10
800.028314897867
 20
-1011.304848980355
 30
0.0
 10
797.9305202406249
 20
-1017.607342708279
 30
0.0
 10
801.2688207651836
 20
-1019.479276143522
 30
0.0
 10
805.3597693468082
 20
-1022.033833976524
 30
0.0
 10
852.845952552535
 20
-1051.686090400543
 30
0.0
 10
900.2403701474959
 20
-1081.486228533506
 30
0.0
 10
947.8470450618661
 20
-1110.943414711475
 30
0.0
 10
951.7787551051524
 20
-1113.376266201674
 30
0.0
 10
957.1158576029356
 20
-1114.797934753911
 30
0.0
 10
961.7378442391873
 20
-1114.656612069428
 30
0.0
 10
1000.471981007096
 20
-1113.472525958832
 30
0.0
 10
1039.191845823627
 20
-1111.817222525973
 30
0.0
 10
1077.915536737761
 20
-1110.294374948231
 30
0.0
 10
1094.1822817949
 20
-1109.654748599727
 30
0.0
 10
1110.448055144709
 20
-1108.992651519266
 30
0.0
 10
1128.638780710833
 20
-1108.263628096605
 30
0.0
 10
1042.805503912192
 20
-1001.792198631723
 30
0.0
 10
958.5973468875391
 20
-897.3366367500093
 30
0.0
 10
873.7142783920417
 20
-792.0439490054214
 30
0.0
  0
SPLINE
  5
55
330
45
100
AcDbEntity
  8
Layer 1
370
     0
100
AcDbSpline
210
0.0
220
0.0
230
1.0
 70
    11
 71
     3
 72
    32
 73
    28
 74
     0
 42
0.0000000001
 43
0.0000000001
 12
1.0
 22
0.0
 32
0.0
 13
1.0
 23
0.0
 33
0.0
 40
0.0
 40
0.0
 40
0.0
 40
0.0
 40
1.0
 40
1.0
 40
1.0
 40
2.0
 40
2.0
 40
2.0
 40
3.0
 40
3.0
 40
3.0
 40
4.0
 40
4.0
 40
4.0
 40
5.0
 40
5.0
 40
5.0
 40
6.0
 40
6.0
 40
6.0
 40
7.0
 40
7.0
 40
7.0
 40
8.0
 40
8.0
 40
8.0
 40
9.0
 40
9.0
 40
9.0
 40
9.0
 10
1708.396661727838
 20
-1182.157840617463
 30
0.0
 10
1703.460145575928
 20
-1180.966891823862
 30
0.0
 10
1700.766937253595
 20
-1180.177744010298
 30
0.0
 10
1698.021256735561
 20
-1179.677679126742
 30
0.0
 10
1680.753653130818
 20
-1176.532019579916
 30
0.0
 10
1663.531355380233
 20
-1173.065332224676
 30
0.0
 10
1646.176905433073
 20
-1170.496138050048
 30
0.0
 10
1636.124471663863
 20
-1169.007968277567
 30
0.0
 10
1625.445165204825
 20
-1166.841668253717
 30
0.0
 10
1615.746675829756
 20
-1168.675644371469
 30
0.0
 10
1554.617296620167
 20
-1180.234831815804
 30
0.0
 10
1493.665253997893
 20
-1192.740340733972
 30
0.0
 10
1432.723657229395
 20
-1205.268806237757
 30
0.0
 10
1428.27724596093
 20
-1206.183061369773
 30
0.0
 10
1423.481262981299
 20
-1208.894975058167
 30
0.0
 10
1420.348842946813
 20
-1212.195500460359
 30
0.0
 10
1320.885974046896
 20
-1316.99510746781
 30
0.0
 10
1221.602628075785
 20
-1421.965127647871
 30
0.0
 10
1122.313208933876
 20
-1526.929196120547
 30
0.0
 10
1112.074085894317
 20
-1537.753651361671
 30
0.0
 10
1101.966386270842
 20
-1548.70248514075
 30
0.0
 10
1091.797712012549
 20
-1559.593502333824
 30
0.0
 10
1092.212631041506
 20
-1559.989958923556
 30
0.0
 10
1092.627550070465
 20
-1560.386294049871
 30
0.0
 10
1093.042469099422
 20
-1560.782750639601
 30
0.0
 10
1297.506938667553
 20
-1434.976653156975
 30
0.0
 10
1501.971408235682
 20
-1309.170434210933
 30
0.0
 10
1708.396661727838
 20
-1182.157840617463
 30
0.0
  0
SPLINE
  5
56
330
45
100
AcDbEntity
  8
Layer 1
370
     0
100
AcDbSpline
210
0.0
220
0.0
230
1.0
 70
    11
 71
     3
 72
    29
 73
    25
 74
     0
 42
0.0000000001
 43
0.0000000001
 12
1.0
 22
0.0
 32
0.0
 13
1.0
 23
0.0
 33
0.0
 40
0.0
 40
0.0
 40
0.0
 40
0.0
 40
1.0
 40
1.0
 40
1.0
 40
2.0
 40
2.0
 40
2.0
 40
3.0
 40
3.0
 40
3.0
 40
4.0
 40
4.0
 40
4.0
 40
5.0
 40
5.0
 40
5.0
 40
6.0
 40
6.0
 40
6.0
 40
7.0
 40
7.0
 40
7.0
 40
8.0
 40
8.0
 40
8.0
 40
8.0
 10
459.7985979813693
 20
-916.6682074506462
 30
0.0
 10
461.7826117836994
 20
-918.5403838127213
 30
0.0
 10
462.5650183776797
 20
-919.544643335973
 30
0.0
 10
463.5754421692918
 20
-920.1941082211715
 30
0.0
 10
510.3688284161717
 20
-950.2697861132656
 30
0.0
 10
557.1629434435481
 20
-980.3446744931571
 30
0.0
 10
604.0495224963324
 20
-1010.274596286086
 30
0.0
 10
606.3993537417145
 20
-1011.774730205041
 30
0.0
 10
609.5605606057861
 20
-1012.662992166039
 30
0.0
 10
612.3599279536793
 20
-1012.702407044522
 30
0.0
 10
668.9994727235953
 20
-1013.500300224039
 30
0.0
 10
725.6429650545297
 20
-1014.035225107977
 30
0.0
 10
782.2806878732063
 20
-1014.935937069113
 30
0.0
 10
788.4589245265915
 20
-1015.034200972634
 30
0.0
 10
790.8581913822745
 20
-1012.712913630005
 30
0.0
 10
792.6645953046009
 20
-1007.181408934959
 30
0.0
 10
815.6625392163342
 20
-936.7570418181558
 30
0.0
 10
838.8824575207545
 20
-866.405188360689
 30
0.0
 10
861.9778758238053
 20
-796.0125231954553
 30
0.0
 10
862.602805098978
 20
-794.1076731744834
 30
0.0
 10
862.4649441218498
 20
-791.9524263214871
 30
0.0
 10
862.7678738812829
 20
-789.1171665341753
 30
0.0
 10
728.043568007789
 20
-831.761149930494
 30
0.0
 10
594.4457745857217
 20
-874.0485774692288
 30
0.0
 10
459.7985979813693
 20
-916.6682074506462
 30
0.0
  0
SPLINE
  5
57
330
45
100
AcDbEntity
  8
Layer 1
370
     0
100
AcDbSpline
210
0.0
220
0.0
230
1.0
 70
    11
 71
     3
 72
    26
 73
    22
 74
     0
 42
0.0000000001
 43
0.0000000001
 12
1.0
 22
0.0
 32
0.0
 13
1.0
 23
0.0
 33
0.0
 40
0.0
 40
0.0
 40
0.0
 40
0.0
 40
1.0
 40
1.0
 40
1.0
 40
2.0
 40
2.0
 40
2.0
 40
3.0
 40
3.0
 40
3.0
 40
4.0
 40
4.0
 40
4.0
 40
5.0
 40
5.0
 40
5.0
 40
6.0
 40
6.0
 40
6.0
 40
7.0
 40
7.0
 40
7.0
 40
7.0
 10
1174.69977292526
 20
-681.3629619332187
 30
0.0
 10
1174.596893411932
 20
-680.5367070460725
 30
0.0
 10
1174.494013898606
 20
-679.7103914272193
 30
0.0
 10
1174.391255848694
 20
-678.884136540074
 30
0.0
 10
1011.64467186181
 20
-633.3291001848766
 30
0.0
 10
848.8982093383402
 20
-587.7740941955326
 30
0.0
 10
683.8828709362351
 20
-541.5839863699284
 30
0.0
 10
686.5330812093143
 20
-545.441239339224
 30
0.0
 10
687.6470221971886
 20
-547.3151465549763
 30
0.0
 10
689.0005497730654
 20
-548.9961698661673
 30
0.0
 10
748.462661403325
 20
-622.8464429962969
 30
0.0
 10
808.0078540101085
 20
-696.630002345204
 30
0.0
 10
867.3017388092476
 20
-770.6150695012075
 30
0.0
 10
871.7449920288973
 20
-776.159267123222
 30
0.0
 10
875.6407489010562
 20
-776.119548586199
 30
0.0
 10
881.7436175048315
 20
-774.1703644183981
 30
0.0
 10
956.7823190626787
 20
-750.2050251301607
 30
0.0
 10
1031.909081597105
 20
-726.5154685278867
 30
0.0
 10
1107.014041448365
 20
-702.7577709492525
 30
0.0
 10
1129.574413404061
 20
-695.6213094072691
 30
0.0
 10
1152.13770048174
 20
-688.4943220117311
 30
0.0
 10
1174.69977292526
 20
-681.3629619332187
 30
0.0
  0
SPLINE
  5
58
330
45
100
AcDbEntity
  8
Layer 1
370
     0
100
AcDbSpline
210
0.0
220
0.0
230
1.0
 70
    11
 71
     3
 72
    32
 73
    28
 74
     0
 42
0.0000000001
 43
0.0000000001
 12
1.0
 22
0.0
 32
0.0
 13
1.0
 23
0.0
 33
0.0
 40
0.0
 40
0.0
 40
0.0
 40
0.0
 40
1.0
 40
1.0
 40
1.0
 40
2.0
 40
2.0
 40
2.0
 40
3.0
 40
3.0
 40
3.0
 40
4.0
 40
4.0
 40
4.0
 40
5.0
 40
5.0
 40
5.0
 40
6.0
 40
6.0
 40
6.0
 40
7.0
 40
7.0
 40
7.0
 40
8.0
 40
8.0
 40
8.0
 40
9.0
 40
9.0
 40
9.0
 40
9.0
 10
1147.754450189581
 20
-1109.081623471466
 30
0.0
 10
1149.094677521409
 20
-1110.477177389268
 30
0.0
 10
1149.460403866899
 20
-1111.198123494767
 30
0.0
 10
1150.003102409459
 20
-1111.374549106466
 30
0.0
 10
1196.854578535029
 20
-1126.603632200959
 30
0.0
 10
1243.700345880046
 20
-1141.851542124929
 30
0.0
 10
1290.626157616189
 20
-1156.84887302175
 30
0.0
 10
1293.880283993478
 20
-1157.888842789298
 30
0.0
 10
1297.88626891563
 20
-1157.721466202089
 30
0.0
 10
1301.291009928726
 20
-1156.972279852376
 30
0.0
 10
1347.497636778902
 20
-1146.804577301411
 30
0.0
 10
1393.622397286714
 20
-1136.260824014598
 30
0.0
 10
1439.872629503223
 20
-1126.298759026871
 30
0.0
 10
1446.949695434798
 20
-1124.774393156431
 30
0.0
 10
1449.662945220767
 20
-1122.150358249492
 30
0.0
 10
1448.038857885813
 20
-1115.133902562487
 30
0.0
 10
1447.521180806943
 20
-1112.897639611039
 30
0.0
 10
1447.627461295917
 20
-1110.522301048302
 30
0.0
 10
1447.3771251956
 20
-1108.218261510739
 30
0.0
 10
1440.906769026804
 20
-1048.648715489055
 30
0.0
 10
1434.442243101974
 20
-989.0786228819961
 30
0.0
 10
1427.940306445025
 20
-929.5124778359577
 30
0.0
 10
1425.838017641392
 20
-910.252084697081
 30
0.0
 10
1423.633821031759
 20
-891.0028661924734
 30
0.0
 10
1421.237226371228
 20
-869.6158915667693
 30
0.0
 10
1329.165892186835
 20
-950.2350475762978
 30
0.0
 10
1238.616616067979
 20
-1029.521324790667
 30
0.0
 10
1147.754450189581
 20
-1109.081623471466
 30
0.0
  0
SPLINE
  5
59
330
45
100
AcDbEntity
  8
Layer 1
370
     0
100
AcDbSpline
210
0.0
220
0.0
230
1.0
 70
    11
 71
     3
 72
    23
 73
    19
 74
     0
 42
0.0000000001
 43
0.0000000001
 12
1.0
 22
0.0
 32
0.0
 13
1.0
 23
0.0
 33
0.0
 40
0.0
 40
0.0
 40
0.0
 40
0.0
 40
1.0
 40
1.0
 40
1.0
 40
2.0
 40
2.0
 40
2.0
 40
3.0
 40
3.0
 40
3.0
 40
4.0
 40
4.0
 40
4.0
 40
5.0
 40
5.0
 40
5.0
 40
6.0
 40
6.0
 40
6.0
 40
6.0
 10
812.8801767466775
 20
-1854.513356800264
 30
0.0
 10
1094.38245350442
 20
-1655.695721440645
 30
0.0
 10
1375.104327814546
 20
-1456.166917780514
 30
0.0
 10
1641.248648793448
 20
-1234.339131435856
 30
0.0
 10
1637.156546309372
 20
-1236.555352923669
 30
0.0
 10
1634.347583351617
 20
-1237.906876353185
 30
0.0
 10
1631.706725761567
 20
-1239.531328078387
 30
0.0
 10
1444.352807601328
 20
-1354.78334788384
 30
0.0
 10
1257.006055782633
 20
-1470.047149640644
 30
0.0
 10
1069.710682988893
 20
-1585.394518227638
 30
0.0
 10
1065.827740507119
 20
-1587.785889961282
 30
0.0
 10
1062.187542662165
 20
-1590.817738287345
 30
0.0
 10
1059.046377261728
 20
-1594.131138811628
 30
0.0
 10
991.0911184647921
 20
-1665.811194722743
 30
0.0
 10
923.2145679614059
 20
-1737.565829171264
 30
0.0
 10
855.3457911166424
 20
-1809.327751424744
 30
0.0
 10
841.143438277355
 20
-1824.345002321783
 30
0.0
 10
827.0329725122492
 20
-1839.449221024659
 30
0.0
 10
812.8801767466775
 20
-1854.513356800264
 30
0.0
  0
SPLINE
  5
5A
330
45
100
AcDbEntity
  8
Layer 1
370
     0
100
AcDbSpline
210
0.0
220
0.0
230
1.0
 70
    11
 71
     3
 72
    20
 73
    16
 74
     0
 42
0.0000000001
 43
0.0000000001
 12
1.0
 22
0.0
 32
0.0
 13
1.0
 23
0.0
 33
0.0
 40
0.0
 40
0.0
 40
0.0
 40
0.0
 40
1.0
 40
1.0
 40
1.0
 40
2.0
 40
2.0
 40
2.0
 40
3.0
 40
3.0
 40
3.0
 40
4.0
 40
4.0
 40
4.0
 40
5.0
 40
5.0
 40
5.0
 40
5.0
 10
1209.159065499764
 20
-683.5153543959395
 30
0.0
 10
1208.985372814925
 20
-684.3337748927552
 30
0.0
 10
1208.811680130084
 20
-685.152134657862
 30
0.0
 10
1208.637987445245
 20
-685.9704944229698
 30
0.0
 10
1244.863358087972
 20
-714.3666369307193
 30
0.0
 10
1280.812399459362
 20
-743.1245582229403
 30
0.0
 10
1317.392078886478
 20
-771.0566497499713
 30
0.0
 10
1353.615506114549
 20
-798.7166024935186
 30
0.0
 10
1387.563316244396
 20
-829.4508550270102
 30
0.0
 10
1426.411324964778
 20
-853.5716674876903
 30
0.0
 10
1497.383006233946
 20
-791.4011646081008
 30
0.0
 10
1567.691861642159
 20
-729.8110746617313
 30
0.0
 10
1639.746996581795
 20
-666.691335186325
 30
0.0
 10
1494.303544248824
 20
-672.3741225659633
 30
0.0
 10
1351.731365606001
 20
-677.944738480951
 30
0.0
 10
1209.159065499764
 20
-683.5153543959395
 30
0.0
  0
SPLINE
  5
5B
330
45
100
AcDbEntity
  8
Layer 1
370
     0
100
AcDbSpline
210
0.0
220
0.0
230
1.0
 70
    11
 71
     3
 72
    32
 73
    28
 74
     0
 42
0.0000000001
 43
0.0000000001
 12
1.0
 22
0.0
 32
0.0
 13
1.0
 23
0.0
 33
0.0
 40
0.0
 40
0.0
 40
0.0
 40
0.0
 40
1.0
 40
1.0
 40
1.0
 40
2.0
 40
2.0
 40
2.0
 40
3.0
 40
3.0
 40
3.0
 40
4.0
 40
4.0
 40
4.0
 40
5.0
 40
5.0
 40
5.0
 40
6.0
 40
6.0
 40
6.0
 40
7.0
 40
7.0
 40
7.0
 40
8.0
 40
8.0
 40
8.0
 40
9.0
 40
9.0
 40
9.0
 40
9.0
 10
520.95193584976
 20
-1405.235849902714
 30
0.0
 10
521.457800611427
 20
-1405.034949412697
 30
0.0
 10
521.963665373094
 20
-1404.833927459264
 30
0.0
 10
522.4695605006145
 20
-1404.633026969248
 30
0.0
 10
522.1957819610152
 20
-1402.743784997228
 30
0.0
 10
522.0013493978986
 20
-1400.839238634797
 30
0.0
 10
521.6366251255904
 20
-1398.967730321508
 30
0.0
 10
513.338730400088
 20
-1356.388365462486
 30
0.0
 10
505.0048521376048
 20
-1313.816045481592
 30
0.0
 10
496.712726924361
 20
-1271.235587451825
 30
0.0
 10
479.9384469835868
 20
-1185.098712844961
 30
0.0
 10
463.2599713121599
 20
-1098.942950676916
 30
0.0
 10
446.2356285637543
 20
-1012.855511680355
 30
0.0
 10
445.2192834306134
 20
-1007.716030160356
 30
0.0
 10
442.5399826694083
 20
-1002.070167659174
 30
0.0
 10
438.8793486047161
 20
-998.420070545817
 30
0.0
 10
407.1868408167729
 20
-966.8175367832537
 30
0.0
 10
375.1218654637523
 20
-935.5877742443072
 30
0.0
 10
343.0528514521511
 20
-904.3650565834869
 30
0.0
 10
340.7813033783623
 20
-902.1533899737715
 30
0.0
 10
337.7176316373152
 20
-899.6405548241555
 30
0.0
 10
334.8199396541941
 20
-899.3603994552177
 30
0.0
 10
307.852814235348
 20
-896.7530050362675
 30
0.0
 10
280.8413394867448
 20
-894.6043172077334
 30
0.0
 10
251.7666567885972
 20
-892.147233766048
 30
0.0
 10
342.1079875393098
 20
-1064.345007613083
 30
0.0
 10
431.5299616945349
 20
-1234.790489489606
 30
0.0
 10
520.95193584976
 20
-1405.235849902714
 30
0.0
  0
SPLINE
  5
5C
330
45
100
AcDbEntity
  8
Layer 1
370
     0
100
AcDbSpline
210
0.0
220
0.0
230
1.0
 70
    11
 71
     3
 72
    23
 73
    19
 74
     0
 42
0.0000000001
 43
0.0000000001
 12
1.0
 22
0.0
 32
0.0
 13
1.0
 23
0.0
 33
0.0
 40
0.0
 40
0.0
 40
0.0
 40
0.0
 40
1.0
 40
1.0
 40
1.0
 40
2.0
 40
2.0
 40
2.0
 40
3.0
 40
3.0
 40
3.0
 40
4.0
 40
4.0
 40
4.0
 40
5.0
 40
5.0
 40
5.0
 40
6.0
 40
6.0
 40
6.0
 40
6.0
 10
400.9928139193107
 20
-323.2807343323675
 30
0.0
 10
400.1825922030739
 20
-325.927103324917
 30
0.0
 10
399.6987426855521
 20
-326.8133307736989
 30
0.0
 10
399.664945490058
 20
-327.7164112714454
 30
0.0
 10
396.8418320443425
 20
-403.1360980164145
 30
0.0
 10
394.0027157935729
 20
-478.5552533589389
 30
0.0
 10
391.3020071053024
 20
-553.9793583356641
 30
0.0
 10
390.6942345376356
 20
-570.9532026688794
 30
0.0
 10
392.4637135815074
 20
-572.0689352421387
 30
0.0
 10
409.4821046225297
 20
-569.4269844813443
 30
0.0
 10
471.6151056724384
 20
-559.7814531556396
 30
0.0
 10
533.776438064122
 20
-550.3182687831613
 30
0.0
 10
595.9213728946497
 20
-540.7495023363508
 30
0.0
 10
616.679956537826
 20
-537.5531621792088
 30
0.0
 10
637.4215353027666
 20
-534.2460777525557
 30
0.0
 10
660.3939111654372
 20
-530.6407399079853
 30
0.0
 10
573.0324423987513
 20
-460.80574365133
 30
0.0
 10
487.502216822958
 20
-392.4346244839626
 30
0.0
 10
400.9928139193107
 20
-323.2807343323675
 30
0.0
  0
SPLINE
  5
5D
330
45
100
AcDbEntity
  8
Layer 1
370
     0
100
AcDbSpline
210
0.0
220
0.0
230
1.0
 70
    11
 71
     3
 72
    29
 73
    25
 74
     0
 42
0.0000000001
 43
0.0000000001
 12
1.0
 22
0.0
 32
0.0
 13
1.0
 23
0.0
 33
0.0
 40
0.0
 40
0.0
 40
0.0
 40
0.0
 40
1.0
 40
1.0
 40
1.0
 40
2.0
 40
2.0
 40
2.0
 40
3.0
 40
3.0
 40
3.0
 40
4.0
 40
4.0
 40
4.0
 40
5.0
 40
5.0
 40
5.0
 40
6.0
 40
6.0
 40
6.0
 40
7.0
 40
7.0
 40
7.0
 40
8.0
 40
8.0
 40
8.0
 40
8.0
 10
1800.647883231284
 20
-745.930848985543
 30
0.0
 10
1799.945946150387
 20
-745.9335819124026
 30
0.0
 10
1799.244130532903
 20
-745.9363148392622
 30
0.0
 10
1798.542193452005
 20
-745.9390477661218
 30
0.0
 10
1782.596111813031
 20
-866.3660771407458
 30
0.0
 10
1766.650030174058
 20
-986.7930457836628
 30
0.0
 10
1750.601676338836
 20
-1107.991428581414
 30
0.0
 10
1783.343476211503
 20
-1107.991428581414
 30
0.0
 10
1814.786346313771
 20
-1108.160930778402
 30
0.0
 10
1846.220106659843
 20
-1107.700766626995
 30
0.0
 10
1849.027854983437
 20
-1107.659651260688
 30
0.0
 10
1852.841927708356
 20
-1104.101927075177
 30
0.0
 10
1854.384148700945
 20
-1101.213830701918
 30
0.0
 10
1867.782413726502
 20
-1076.123011401289
 30
0.0
 10
1880.584779233302
 20
-1050.713715023985
 30
0.0
 10
1894.009158893294
 20
-1025.637167674733
 30
0.0
 10
1897.248831124083
 20
-1019.585131510541
 30
0.0
 10
1897.730676495241
 20
-1014.448686575943
 30
0.0
 10
1895.357038420329
 20
-1007.946810650703
 30
0.0
 10
1875.853779181216
 20
-954.5256820137802
 30
0.0
 10
1856.707136531397
 20
-900.9743445949371
 30
0.0
 10
1837.409271928693
 20
-847.4780301035298
 30
0.0
 10
1825.193817647865
 20
-813.6151836331546
 30
0.0
 10
1812.904270683295
 20
-779.778998382586
 30
0.0
 10
1800.647883231284
 20
-745.930848985543
 30
0.0
  0
SPLINE
  5
5E
330
45
100
AcDbEntity
  8
Layer 1
370
     0
100
AcDbSpline
210
0.0
220
0.0
230
1.0
 70
    11
 71
     3
 72
    26
 73
    22
 74
     0
 42
0.0000000001
 43
0.0000000001
 12
1.0
 22
0.0
 32
0.0
 13
1.0
 23
0.0
 33
0.0
 40
0.0
 40
0.0
 40
0.0
 40
0.0
 40
1.0
 40
1.0
 40
1.0
 40
2.0
 40
2.0
 40
2.0
 40
3.0
 40
3.0
 40
3.0
 40
4.0
 40
4.0
 40
4.0
 40
5.0
 40
5.0
 40
5.0
 40
6.0
 40
6.0
 40
6.0
 40
7.0
 40
7.0
 40
7.0
 40
7.0
 10
273.9333202643493
 20
-800.1086339722588
 30
0.0
 10
294.4050832336361
 20
-827.419865248552
 30
0.0
 10
314.8549372392672
 20
-854.2784631052282
 30
0.0
 10
334.7560195315391
 20
-881.5377080394856
 30
0.0
 10
339.9926110526058
 20
-888.7104871428446
 30
0.0
 10
345.6456702611849
 20
-892.8886464571369
 30
0.0
 10
354.7665099957476
 20
-893.9223001270539
 30
0.0
 10
366.8873746413874
 20
-895.2958084348584
 30
0.0
 10
378.7961641627417
 20
-898.4794252991769
 30
0.0
 10
390.8283908805761
 20
-900.7109511774033
 30
0.0
 10
407.9004687514589
 20
-903.8773202366538
 30
0.0
 10
425.002001500714
 20
-906.8848758795211
 30
0.0
 10
443.1247379197484
 20
-910.1463507934777
 30
0.0
 10
423.3698975803063
 20
-803.9058840140651
 30
0.0
 10
403.9108510246078
 20
-699.2559806667978
 30
0.0
 10
384.4517741030559
 20
-594.6061076853839
 30
0.0
 10
383.6349629965025
 20
-594.5944168315964
 30
0.0
 10
382.8181215240947
 20
-594.5827563436633
 30
0.0
 10
382.001280051687
 20
-594.5710654898758
 30
0.0
 10
346.0099997773914
 20
-663.0239295361926
 30
0.0
 10
310.0186891372414
 20
-731.4768239483628
 30
0.0
 10
273.9333202643493
 20
-800.1086339722588
 30
0.0
  0
SPLINE
  5
5F
330
45
100
AcDbEntity
  8
Layer 1
370
     0
100
AcDbSpline
210
0.0
220
0.0
230
1.0
 70
    11
 71
     3
 72
    17
 73
    13
 74
     0
 42
0.0000000001
 43
0.0000000001
 12
1.0
 22
0.0
 32
0.0
 13
1.0
 23
0.0
 33
0.0
 40
0.0
 40
0.0
 40
0.0
 40
0.0
 40
1.0
 40
1.0
 40
1.0
 40
2.0
 40
2.0
 40
2.0
 40
3.0
 40
3.0
 40
3.0
 40
4.0
 40
4.0
 40
4.0
 40
4.0
 10
1737.275560582366
 20
-1111.209176665619
 30
0.0
 10
1639.961379510984
 20
-1034.966954850619
 30
0.0
 10
1543.907867233967
 20
-959.7124128025916
 30
0.0
 10
1447.854354956953
 20
-884.4578100228546
 30
0.0
 10
1447.401417878795
 20
-884.9334000280905
 30
0.0
 10
1446.948480800638
 20
-885.4089900333265
 30
0.0
 10
1446.49554372248
 20
-885.8845193068546
 30
0.0
 10
1506.36255364988
 20
-976.4592420113568
 30
0.0
 10
1566.229442113865
 20
-1067.033964715858
 30
0.0
 10
1626.427804240035
 20
-1158.109906206364
 30
0.0
 10
1663.124574400146
 20
-1142.583116279326
 30
0.0
 10
1699.335005042707
 20
-1127.262206842357
 30
0.0
 10
1737.275560582366
 20
-1111.209176665619
 30
0.0
  0
SPLINE
  5
60
330
45
100
AcDbEntity
  8
Layer 1
370
     0
100
AcDbSpline
210
0.0
220
0.0
230
1.0
 70
    11
 71
     3
 72
    23
 73
    19
 74
     0
 42
0.0000000001
 43
0.0000000001
 12
1.0
 22
0.0
 32
0.0
 13
1.0
 23
0.0
 33
0.0
 40
0.0
 40
0.0
 40
0.0
 40
0.0
 40
1.0
 40
1.0
 40
1.0
 40
2.0
 40
2.0
 40
2.0
 40
3.0
 40
3.0
 40
3.0
 40
4.0
 40
4.0
 40
4.0
 40
5.0
 40
5.0
 40
5.0
 40
6.0
 40
6.0
 40
6.0
 40
6.0
 10
1432.642762594358
 20
-880.6366316881022
 30
0.0
 10
1432.047591856099
 20
-884.0419192865684
 30
0.0
 10
1431.776849901898
 20
-884.7051702694798
 30
0.0
 10
1431.844140634346
 20
-885.3322251544323
 30
0.0
 10
1440.12782414018
 20
-962.6657957619354
 30
0.0
 10
1448.50479154948
 20
-1039.989588564453
 30
0.0
 10
1456.623406273007
 20
-1117.340406977024
 30
0.0
 10
1457.326800914898
 20
-1124.04172583129
 30
0.0
 10
1461.432021447899
 20
-1124.857170474415
 30
0.0
 10
1466.48878638162
 20
-1125.912748290913
 30
0.0
 10
1506.6501790189
 20
-1134.297003505171
 30
0.0
 10
1546.779748241195
 20
-1142.833573843058
 30
0.0
 10
1586.932395512526
 20
-1151.26021978949
 30
0.0
 10
1595.438114142755
 20
-1153.045367614022
 30
0.0
 10
1603.998005456508
 20
-1154.571069582038
 30
0.0
 10
1615.116523627697
 20
-1156.714291556853
 30
0.0
 10
1553.637329780109
 20
-1063.698032727911
 30
0.0
 10
1493.725621315632
 20
-973.0531649006862
 30
0.0
 10
1432.642762594358
 20
-880.6366316881022
 30
0.0
  0
SPLINE
  5
61
330
45
100
AcDbEntity
  8
Layer 1
370
     0
100
AcDbSpline
210
0.0
220
0.0
230
1.0
 70
    11
 71
     3
 72
    35
 73
    31
 74
     0
 42
0.0000000001
 43
0.0000000001
 12
1.0
 22
0.0
 32
0.0
 13
1.0
 23
0.0
 33
0.0
 40
0.0
 40
0.0
 40
0.0
 40
0.0
 40
1.0
 40
1.0
 40
1.0
 40
2.0
 40
2.0
 40
2.0
 40
3.0
 40
3.0
 40
3.0
 40
4.0
 40
4.0
 40
4.0
 40
5.0
 40
5.0
 40
5.0
 40
6.0
 40
6.0
 40
6.0
 40
7.0
 40
7.0
 40
7.0
 40
8.0
 40
8.0
 40
8.0
 40
9.0
 40
9.0
 40
9.0
 40
10.0
 40
10.0
 40
10.0
 40
10.0
 10
1919.697456737085
 20
-822.503694218818
 30
0.0
 10
1918.879279167102
 20
-818.7972380804504
 30
0.0
 10
1918.553271358634
 20
-816.938908547796
 30
0.0
 10
1918.057093304393
 20
-815.127220966875
 30
0.0
 10
1902.243771179075
 20
-757.4020361850062
 30
0.0
 10
1886.524826127968
 20
-699.6507367687045
 30
0.0
 10
1870.502222536932
 20
-641.9837329630864
 30
0.0
 10
1866.893180058174
 20
-628.9944352591046
 30
0.0
 10
1864.196813687025
 20
-615.1739026679224
 30
0.0
 10
1857.654429712558
 20
-603.6871985170692
 30
0.0
 10
1839.156887557689
 20
-571.2104014521983
 30
0.0
 10
1818.893510261429
 20
-539.7389267154686
 30
0.0
 10
1799.279597850367
 20
-507.8997822185938
 30
0.0
 10
1798.040185153795
 20
-505.8877710988809
 30
0.0
 10
1796.406259282146
 20
-504.1187475428196
 30
0.0
 10
1795.264260245185
 20
-502.6368027704066
 30
0.0
 10
1795.264260245185
 20
-520.0008179615761
 30
0.0
 10
1794.793103654631
 20
-537.1555820528811
 30
0.0
 10
1795.352078294931
 20
-554.2766704121077
 30
0.0
 10
1797.090827094562
 20
-607.5330035594097
 30
0.0
 10
1799.089021750708
 20
-660.7824436578558
 30
0.0
 10
1801.448448605952
 20
-714.0140286341548
 30
0.0
 10
1801.635866656796
 20
-718.2443564856067
 30
0.0
 10
1804.412398882487
 20
-723.3807406884971
 30
0.0
 10
1807.624013064185
 20
-726.2834734033813
 30
0.0
 10
1823.342229334798
 20
-740.4893486817327
 30
0.0
 10
1839.594155855186
 20
-754.1061263926222
 30
0.0
 10
1855.698625788587
 20
-767.8829321540543
 30
0.0
 10
1876.54442016443
 20
-785.7155835698959
 30
0.0
 10
1897.429325760217
 20
-803.5024432779155
 30
0.0
 10
1919.697456737085
 20
-822.503694218818
 30
0.0
  0
SPLINE
  5
62
330
45
100
AcDbEntity
  8
Layer 1
370
     0
100
AcDbSpline
210
0.0
220
0.0
230
1.0
 70
    11
 71
     3
 72
    29
 73
    25
 74
     0
 42
0.0000000001
 43
0.0000000001
 12
1.0
 22
0.0
 32
0.0
 13
1.0
 23
0.0
 33
0.0
 40
0.0
 40
0.0
 40
0.0
 40
0.0
 40
1.0
 40
1.0
 40
1.0
 40
2.0
 40
2.0
 40
2.0
 40
3.0
 40
3.0
 40
3.0
 40
4.0
 40
4.0
 40
4.0
 40
5.0
 40
5.0
 40
5.0
 40
6.0
 40
6.0
 40
6.0
 40
7.0
 40
7.0
 40
7.0
 40
8.0
 40
8.0
 40
8.0
 40
8.0
 10
1905.615959996689
 20
-1011.700941179837
 30
0.0
 10
1916.530784019295
 20
-1007.88085601583
 30
0.0
 10
1926.223200223565
 20
-1003.456186698824
 30
0.0
 10
1936.396733018497
 20
-1001.212453747292
 30
0.0
 10
1947.004011671865
 20
-998.8730683556823
 30
0.0
 10
1948.732921934801
 20
-993.5474441507085
 30
0.0
 10
1947.437636066883
 20
-983.7085430667776
 30
0.0
 10
1942.857372114016
 20
-948.9207526837799
 30
0.0
 10
1939.59255695612
 20
-913.9570225427487
 30
0.0
 10
1934.82973348905
 20
-879.1969865503006
 30
0.0
 10
1931.617997843936
 20
-855.7572801946799
 30
0.0
 10
1925.995334855203
 20
-833.0943323841966
 30
0.0
 10
1903.152196067125
 20
-819.5723568694721
 30
0.0
 10
1897.256361855874
 20
-816.0823485383662
 30
0.0
 10
1892.494753022962
 20
-810.67807677155
 30
0.0
 10
1887.207207598896
 20
-806.1589089169183
 30
0.0
 10
1861.307077557651
 20
-784.0227479415025
 30
0.0
 10
1835.405247028581
 20
-761.8885303807419
 30
0.0
 10
1809.504023816591
 20
-739.7536447711936
 30
0.0
 10
1808.998128689071
 20
-740.0610686770178
 30
0.0
 10
1808.49223356155
 20
-740.368553314549
 30
0.0
 10
1807.986338434028
 20
-740.6759772203723
 30
0.0
 10
1840.415855864234
 20
-830.7018674798073
 30
0.0
 10
1872.845251831022
 20
-920.7278184709503
 30
0.0
 10
1905.615959996689
 20
-1011.700941179837
 30
0.0
  0
SPLINE
  5
63
330
45
100
AcDbEntity
  8
Layer 1
370
     0
100
AcDbSpline
210
0.0
220
0.0
230
1.0
 70
    11
 71
     3
 72
    23
 73
    19
 74
     0
 42
0.0000000001
 43
0.0000000001
 12
1.0
 22
0.0
 32
0.0
 13
1.0
 23
0.0
 33
0.0
 40
0.0
 40
0.0
 40
0.0
 40
0.0
 40
1.0
 40
1.0
 40
1.0
 40
2.0
 40
2.0
 40
2.0
 40
3.0
 40
3.0
 40
3.0
 40
4.0
 40
4.0
 40
4.0
 40
5.0
 40
5.0
 40
5.0
 40
6.0
 40
6.0
 40
6.0
 40
6.0
 10
1658.717031424791
 20
-659.9609865756411
 30
0.0
 10
1662.799781225838
 20
-661.7822697664251
 30
0.0
 10
1665.754257355926
 20
-663.1605758791602
 30
0.0
 10
1668.7550110475
 20
-664.4297471126456
 30
0.0
 10
1705.003216812429
 20
-679.7605558180157
 30
0.0
 10
1741.252029894438
 20
-695.0905142794745
 30
0.0
 10
1777.515054196116
 20
-710.3862200576286
 30
0.0
 10
1791.744857767413
 20
-716.3883954895637
 30
0.0
 10
1792.794666071653
 20
-715.7541742630683
 30
0.0
 10
1792.231926065459
 20
-700.5297675100892
 30
0.0
 10
1790.349243117902
 20
-649.5909259736673
 30
0.0
 10
1788.341209925062
 20
-598.6567304129057
 30
0.0
 10
1786.395730391449
 20
-547.7201966813873
 30
0.0
 10
1785.74954501848
 20
-530.8062945439542
 30
0.0
 10
1785.146843548431
 20
-513.890722284551
 30
0.0
 10
1784.418548906266
 20
-494.1004753593525
 30
0.0
 10
1741.481838677455
 20
-550.7545653733305
 30
0.0
 10
1700.513321641047
 20
-604.8116764562792
 30
0.0
 10
1658.717031424791
 20
-659.9609865756411
 30
0.0
  0
SPLINE
  5
64
330
45
100
AcDbEntity
  8
Layer 1
370
     0
100
AcDbSpline
210
0.0
220
0.0
230
1.0
 70
    11
 71
     3
 72
    17
 73
    13
 74
     0
 42
0.0000000001
 43
0.0000000001
 12
1.0
 22
0.0
 32
0.0
 13
1.0
 23
0.0
 33
0.0
 40
0.0
 40
0.0
 40
0.0
 40
0.0
 40
1.0
 40
1.0
 40
1.0
 40
2.0
 40
2.0
 40
2.0
 40
3.0
 40
3.0
 40
3.0
 40
4.0
 40
4.0
 40
4.0
 40
4.0
 10
362.8620770360949
 20
-592.2431583910766
 30
0.0
 10
362.5680444718828
 20
-591.5318686271476
 30
0.0
 10
362.2740119076698
 20
-590.8205788632195
 30
0.0
 10
361.9799793434568
 20
-590.109258733437
 30
0.0
 10
268.5106316070869
 20
-622.0925803050695
 30
0.0
 10
175.0412990536443
 20
-654.0758411449951
 30
0.0
 10
80.79541292457816
 20
-686.3248639390658
 30
0.0
 10
109.8640528177812
 20
-709.9173712719785
 30
0.0
 10
138.0722990124868
 20
-732.8115854264724
 30
0.0
 10
166.7223531998607
 20
-756.0643595849133
 30
0.0
 10
232.2813285862685
 20
-701.3077406893863
 30
0.0
 10
297.5716952197181
 20
-646.7754647231577
 30
0.0
 10
362.8620770360949
 20
-592.2431583910766
 30
0.0
  0
SPLINE
  5
65
330
45
100
AcDbEntity
  8
Layer 1
370
     0
100
AcDbSpline
210
0.0
220
0.0
230
1.0
 70
    11
 71
     3
 72
    26
 73
    22
 74
     0
 42
0.0000000001
 43
0.0000000001
 12
1.0
 22
0.0
 32
0.0
 13
1.0
 23
0.0
 33
0.0
 40
0.0
 40
0.0
 40
0.0
 40
0.0
 40
1.0
 40
1.0
 40
1.0
 40
2.0
 40
2.0
 40
2.0
 40
3.0
 40
3.0
 40
3.0
 40
4.0
 40
4.0
 40
4.0
 40
5.0
 40
5.0
 40
5.0
 40
6.0
 40
6.0
 40
6.0
 40
7.0
 40
7.0
 40
7.0
 40
7.0
 10
463.3125953371291
 20
-1318.441007971534
 30
0.0
 10
463.8142392450909
 20
-1318.019408454697
 30
0.0
 10
464.3158831530536
 20
-1317.597687474445
 30
0.0
 10
464.8175270610154
 20
-1317.176087957609
 30
0.0
 10
463.993671076335
 20
-1315.449364036158
 30
0.0
 10
463.22605265325
 20
-1313.693245968045
 30
0.0
 10
462.3379728873751
 20
-1312.000288876234
 30
0.0
 10
402.6960650356241
 20
-1198.298506648822
 30
0.0
 10
342.3440820541045
 20
-1084.961782718112
 30
0.0
 10
283.6580153714131
 20
-970.7688631682195
 30
0.0
 10
248.7924732192678
 20
-902.9266260798458
 30
0.0
 10
209.1062606481946
 20
-838.065769268198
 30
0.0
 10
168.4608514811962
 20
-773.6931346570464
 30
0.0
 10
166.8362023779437
 20
-771.1201143848166
 30
0.0
 10
162.8794177307227
 20
-767.7953570311392
 30
0.0
 10
160.6437848707437
 20
-768.2135555723289
 30
0.0
 10
150.421158081368
 20
-770.1253897397182
 30
0.0
 10
140.4250377883891
 20
-773.2483963594677
 30
0.0
 10
129.3263257454655
 20
-776.208642001814
 30
0.0
 10
241.1275850861002
 20
-957.7199269269968
 30
0.0
 10
352.2200902116147
 20
-1138.080467449265
 30
0.0
 10
463.3125953371291
 20
-1318.441007971534
 30
0.0
  0
SPLINE
  5
66
330
45
100
AcDbEntity
  8
Layer 1
370
     0
100
AcDbSpline
210
0.0
220
0.0
230
1.0
 70
    11
 71
     3
 72
    17
 73
    13
 74
     0
 42
0.0000000001
 43
0.0000000001
 12
1.0
 22
0.0
 32
0.0
 13
1.0
 23
0.0
 33
0.0
 40
0.0
 40
0.0
 40
0.0
 40
0.0
 40
1.0
 40
1.0
 40
1.0
 40
2.0
 40
2.0
 40
2.0
 40
3.0
 40
3.0
 40
3.0
 40
4.0
 40
4.0
 40
4.0
 40
4.0
 10
266.8229126250917
 20
-795.0866683072136
 30
0.0
 10
301.3585905053123
 20
-729.3687049007631
 30
0.0
 10
335.1928930729337
 20
-664.9853815090064
 30
0.0
 10
369.0271956405559
 20
-600.6020581172497
 30
0.0
 10
368.5180210008039
 20
-600.2813946990855
 30
0.0
 10
368.0088159951974
 20
-599.9607009150668
 30
0.0
 10
367.4996413554454
 20
-599.6400374969026
 30
0.0
 10
303.6488743110149
 20
-652.9982784502054
 30
0.0
 10
239.7981072665852
 20
-706.3564890376538
 30
0.0
 10
174.946603137967
 20
-760.5509752440648
 30
0.0
 10
206.601517998668
 20
-772.4498351311631
 30
0.0
 10
236.2834418620369
 20
-783.6071001320479
 30
0.0
 10
266.8229126250917
 20
-795.0866683072136
 30
0.0
  0
SPLINE
  5
67
330
45
100
AcDbEntity
  8
Layer 1
370
     0
100
AcDbSpline
210
0.0
220
0.0
230
1.0
 70
    11
 71
     3
 72
    32
 73
    28
 74
     0
 42
0.0000000001
 43
0.0000000001
 12
1.0
 22
0.0
 32
0.0
 13
1.0
 23
0.0
 33
0.0
 40
0.0
 40
0.0
 40
0.0
 40
0.0
 40
1.0
 40
1.0
 40
1.0
 40
2.0
 40
2.0
 40
2.0
 40
3.0
 40
3.0
 40
3.0
 40
4.0
 40
4.0
 40
4.0
 40
5.0
 40
5.0
 40
5.0
 40
6.0
 40
6.0
 40
6.0
 40
7.0
 40
7.0
 40
7.0
 40
8.0
 40
8.0
 40
8.0
 40
9.0
 40
9.0
 40
9.0
 40
9.0
 10
978.4050541787838
 20
-1122.578273863959
 30
0.0
 10
978.1649817371162
 20
-1123.241585578578
 30
0.0
 10
977.9249092954487
 20
-1123.904897293198
 30
0.0
 10
977.6848975854882
 20
-1124.568269739526
 30
0.0
 10
980.8271561566689
 20
-1126.062877073055
 30
0.0
 10
983.9140881418734
 20
-1127.689879529991
 30
0.0
 10
987.1201150064389
 20
-1129.032171739891
 30
0.0
 10
1027.110122763783
 20
-1145.775903631549
 30
0.0
 10
1067.309472718554
 20
-1162.041798444776
 30
0.0
 10
1106.988169740764
 20
-1179.491840100307
 30
0.0
 10
1117.164860584511
 20
-1183.967402588605
 30
0.0
 10
1127.499453869023
 20
-1184.547268936452
 30
0.0
 10
1137.211668610096
 20
-1183.344538191503
 30
0.0
 10
1169.072008473058
 20
-1179.398434733424
 30
0.0
 10
1200.709220040881
 20
-1173.646048816436
 30
0.0
 10
1232.426718926661
 20
-1168.553695101835
 30
0.0
 10
1245.762308829577
 20
-1166.41253800509
 30
0.0
 10
1259.084173366487
 20
-1164.185384809838
 30
0.0
 10
1272.412232537614
 20
-1161.997342834529
 30
0.0
 10
1237.014149221068
 20
-1148.674020736627
 30
0.0
 10
1201.631005904688
 20
-1137.710611347631
 30
0.0
 10
1166.607637226414
 20
-1125.698365361724
 30
0.0
 10
1148.854422884619
 20
-1119.60934358737
 30
0.0
 10
1131.07715878646
 20
-1116.693978677225
 30
0.0
 10
1112.349079068077
 20
-1117.518472344838
 30
0.0
 10
1067.713338576659
 20
-1119.483446756716
 30
0.0
 10
1023.054520036207
 20
-1120.925156772588
 30
0.0
 10
978.4050541787838
 20
-1122.578273863959
 30
0.0
  0
SPLINE
  5
68
330
45
100
AcDbEntity
  8
Layer 1
370
     0
100
AcDbSpline
210
0.0
220
0.0
230
1.0
 70
    11
 71
     3
 72
    35
 73
    31
 74
     0
 42
0.0000000001
 43
0.0000000001
 12
1.0
 22
0.0
 32
0.0
 13
1.0
 23
0.0
 33
0.0
 40
0.0
 40
0.0
 40
0.0
 40
0.0
 40
1.0
 40
1.0
 40
1.0
 40
2.0
 40
2.0
 40
2.0
 40
3.0
 40
3.0
 40
3.0
 40
4.0
 40
4.0
 40
4.0
 40
5.0
 40
5.0
 40
5.0
 40
6.0
 40
6.0
 40
6.0
 40
7.0
 40
7.0
 40
7.0
 40
8.0
 40
8.0
 40
8.0
 40
9.0
 40
9.0
 40
9.0
 40
10.0
 40
10.0
 40
10.0
 40
10.0
 10
584.9118681392938
 20
-1011.113969222157
 30
0.0
 10
585.1310488734143
 20
-1010.469666532135
 30
0.0
 10
585.3502296075349
 20
-1009.825363842116
 30
0.0
 10
585.5694103416554
 20
-1009.181000420387
 30
0.0
 10
582.698865432003
 20
-1007.208556008429
 30
0.0
 10
579.8794566204751
 20
-1005.156492327298
 30
0.0
 10
576.9500626857844
 20
-1003.275631330982
 30
0.0
 10
543.2301482901548
 20
-981.6252025560352
 30
0.0
 10
509.0538047431573
 20
-960.6473167153235
 30
0.0
 10
475.9309437687343
 20
-938.119982808771
 30
0.0
 10
456.9146313642523
 20
-925.1867404712602
 30
0.0
 10
437.2454227330691
 20
-915.6068601218876
 30
0.0
 10
414.2246133332792
 20
-913.4683144885876
 30
0.0
 10
410.9412750044485
 20
-913.1631983876669
 30
0.0
 10
407.7084958225159
 20
-912.3164161832228
 30
0.0
 10
404.4514239573891
 20
-911.7253752011056
 30
0.0
 10
388.5296350016097
 20
-908.8363071205185
 30
0.0
 10
372.6075120214364
 20
-905.9491217228779
 30
0.0
 10
361.6818777548087
 20
-903.9674460913047
 30
0.0
 10
387.9880599956468
 20
-931.7881556658904
 30
0.0
 10
416.539948968526
 20
-962.2000442933931
 30
0.0
 10
445.4890233116321
 20
-992.2290802337538
 30
0.0
 10
448.0753134620572
 20
-994.9117819706062
 30
0.0
 10
453.1476257130225
 20
-995.8304705173068
 30
0.0
 10
457.2199903920036
 20
-996.3454754010254
 30
0.0
 10
483.8325033679221
 20
-999.7112873893002
 30
0.0
 10
510.4823967101047
 20
-1002.785040593873
 30
0.0
 10
537.1308021254426
 20
-1005.86164818872
 30
0.0
 10
553.0477629104371
 20
-1007.699389672369
 30
0.0
 10
568.9841882078399
 20
-1009.368843593187
 30
0.0
 10
584.9118681392938
 20
-1011.113969222157
 30
0.0
  0
SPLINE
  5
69
330
45
100
AcDbEntity
  8
Layer 1
370
     0
100
AcDbSpline
210
0.0
220
0.0
230
1.0
 70
    11
 71
     3
 72
    14
 73
    10
 74
     0
 42
0.0000000001
 43
0.0000000001
 12
1.0
 22
0.0
 32
0.0
 13
1.0
 23
0.0
 33
0.0
 40
0.0
 40
0.0
 40
0.0
 40
0.0
 40
1.0
 40
1.0
 40
1.0
 40
2.0
 40
2.0
 40
2.0
 40
3.0
 40
3.0
 40
3.0
 40
3.0
 10
768.5439650390445
 20
-1105.291114649246
 30
0.0
 10
774.9941582807896
 20
-1077.511763367798
 30
0.0
 10
781.1317046898248
 20
-1051.07865185727
 30
0.0
 10
787.6018786634977
 20
-1023.213122282192
 30
0.0
 10
732.3434336648843
 20
-1023.213122282192
 30
0.0
 10
678.7975013680516
 20
-1023.213122282192
 30
0.0
 10
622.7308995312733
 20
-1023.213122282192
 30
0.0
 10
672.507882762221
 20
-1051.232485273598
 30
0.0
 10
720.0091274315282
 20
-1077.970895080171
 30
0.0
 10
768.5439650390445
 20
-1105.291114649246
 30
0.0
  0
SPLINE
  5
6A
330
45
100
AcDbEntity
  8
Layer 1
370
     0
100
AcDbSpline
210
0.0
220
0.0
230
1.0
 70
    11
 71
     3
 72
    17
 73
    13
 74
     0
 42
0.0000000001
 43
0.0000000001
 12
1.0
 22
0.0
 32
0.0
 13
1.0
 23
0.0
 33
0.0
 40
0.0
 40
0.0
 40
0.0
 40
0.0
 40
1.0
 40
1.0
 40
1.0
 40
2.0
 40
2.0
 40
2.0
 40
3.0
 40
3.0
 40
3.0
 40
4.0
 40
4.0
 40
4.0
 40
4.0
 10
776.7802778126497
 20
-1107.837838091918
 30
0.0
 10
829.6579791265149
 20
-1110.02727689651
 30
0.0
 10
881.0586245704599
 20
-1112.155619602869
 30
0.0
 10
932.4592092826979
 20
-1114.283901577521
 30
0.0
 10
932.6681263581686
 20
-1113.558279130508
 30
0.0
 10
932.8771041653472
 20
-1112.832656683493
 30
0.0
 10
933.0860212408179
 20
-1112.106973504773
 30
0.0
 10
887.5431919589255
 20
-1083.615725142317
 30
0.0
 10
842.0003019453252
 20
-1055.124476779862
 30
0.0
 10
795.78577997311
 20
-1026.213025729854
 30
0.0
 10
789.3579967316118
 20
-1053.819109448417
 30
0.0
 10
783.2148022737347
 20
-1080.203089007186
 30
0.0
 10
776.7802778126497
 20
-1107.837838091918
 30
0.0
  0
SPLINE
  5
6B
330
45
100
AcDbEntity
  8
Layer 1
370
     0
100
AcDbSpline
210
0.0
220
0.0
230
1.0
 70
    11
 71
     3
 72
    23
 73
    19
 74
     0
 42
0.0000000001
 43
0.0000000001
 12
1.0
 22
0.0
 32
0.0
 13
1.0
 23
0.0
 33
0.0
 40
0.0
 40
0.0
 40
0.0
 40
0.0
 40
1.0
 40
1.0
 40
1.0
 40
2.0
 40
2.0
 40
2.0
 40
3.0
 40
3.0
 40
3.0
 40
4.0
 40
4.0
 40
4.0
 40
5.0
 40
5.0
 40
5.0
 40
6.0
 40
6.0
 40
6.0
 40
6.0
 10
326.6019678564007
 20
-286.9396090542195
 30
0.0
 10
348.2516678508509
 20
-293.8750486427707
 30
0.0
 10
367.5722157464879
 20
-299.707266389908
 30
0.0
 10
386.6049560779811
 20
-306.3624746948853
 30
0.0
 10
392.9423705379968
 20
-308.5784684387945
 30
0.0
 10
395.8807223996146
 20
-306.9550947014104
 30
0.0
 10
399.4443071949454
 20
-301.7841693396031
 30
0.0
 10
423.873393805362
 20
-266.3363467542167
 30
0.0
 10
448.6337718828399
 20
-231.1167691103692
 30
0.0
 10
473.2916652030917
 20
-195.8266667706221
 30
0.0
 10
481.1496498017996
 20
-184.5804601833925
 30
0.0
 10
489.0204791567467
 20
-173.3432342974802
 30
0.0
 10
496.8854479018728
 20
-162.1018938383531
 30
0.0
 10
496.3601186277965
 20
-161.5956457077791
 30
0.0
 10
495.8347893537202
 20
-161.089397577206
 30
0.0
 10
495.3094904454974
 20
-160.583149446632
 30
0.0
 10
439.6326343447172
 20
-202.2832975734136
 30
0.0
 10
383.9558086097904
 20
-243.9834494959268
 30
0.0
 10
326.6019678564007
 20
-286.9396090542195
 30
0.0
  0
SPLINE
  5
6C
330
45
100
AcDbEntity
  8
Layer 1
370
     0
100
AcDbSpline
210
0.0
220
0.0
230
1.0
 70
    11
 71
     3
 72
    23
 73
    19
 74
     0
 42
0.0000000001
 43
0.0000000001
 12
1.0
 22
0.0
 32
0.0
 13
1.0
 23
0.0
 33
0.0
 40
0.0
 40
0.0
 40
0.0
 40
0.0
 40
1.0
 40
1.0
 40
1.0
 40
2.0
 40
2.0
 40
2.0
 40
3.0
 40
3.0
 40
3.0
 40
4.0
 40
4.0
 40
4.0
 40
5.0
 40
5.0
 40
5.0
 40
6.0
 40
6.0
 40
6.0
 40
6.0
 10
71.41647102254046
 20
-668.7040447206791
 30
0.0
 10
72.15852139656363
 20
-668.9297237475539
 30
0.0
 10
72.9005717705868
 20
-669.1554635061366
 30
0.0
 10
73.64262214460996
 20
-669.3812032647193
 30
0.0
 10
107.4658905200367
 20
-595.2160665945385
 30
0.0
 10
141.2891588954635
 20
-521.0508995585024
 30
0.0
 10
175.9345865634787
 20
-445.0830028684741
 30
0.0
 10
173.2523251315088
 20
-446.3161298332698
 30
0.0
 10
172.8341417732463
 20
-446.3707276387486
 30
0.0
 10
172.6668259177459
 20
-446.6047572754715
 30
0.0
 10
134.7345678476904
 20
-499.6556654205124
 30
0.0
 10
96.76812541750314
 20
-552.6824630774827
 30
0.0
 10
59.06474143152263
 20
-605.8956767121153
 30
0.0
 10
57.26963265794893
 20
-608.4291302765932
 30
0.0
 10
56.68441907299984
 20
-612.8916658135286
 30
0.0
 10
57.44482845256061
 20
-615.9868269451654
 30
0.0
 10
61.78131153383947
 20
-633.6380423833998
 30
0.0
 10
66.69737058948704
 20
-651.1468116005526
 30
0.0
 10
71.41647102254046
 20
-668.7040447206791
 30
0.0
  0
SPLINE
  5
6D
330
45
100
AcDbEntity
  8
Layer 1
370
     0
100
AcDbSpline
210
0.0
220
0.0
230
1.0
 70
    11
 71
     3
 72
    17
 73
    13
 74
     0
 42
0.0000000001
 43
0.0000000001
 12
1.0
 22
0.0
 32
0.0
 13
1.0
 23
0.0
 33
0.0
 40
0.0
 40
0.0
 40
0.0
 40
0.0
 40
1.0
 40
1.0
 40
1.0
 40
2.0
 40
2.0
 40
2.0
 40
3.0
 40
3.0
 40
3.0
 40
4.0
 40
4.0
 40
4.0
 40
4.0
 10
1595.943523416612
 20
-1163.604060901
 30
0.0
 10
1595.970852685205
 20
-1163.01945747993
 30
0.0
 10
1595.998060490383
 20
-1162.434732595442
 30
0.0
 10
1596.025389758976
 20
-1161.850129174372
 30
0.0
 10
1549.647013638616
 20
-1152.087750042503
 30
0.0
 10
1503.268637518257
 20
-1142.325370910634
 30
0.0
 10
1456.245412122506
 20
-1132.427317143125
 30
0.0
 10
1447.717587150568
 20
-1153.598633473772
 30
0.0
 10
1439.454309498618
 20
-1174.113075650845
 30
0.0
 10
1430.34613232517
 20
-1196.724948094912
 30
0.0
 10
1487.292675878954
 20
-1185.335202115859
 30
0.0
 10
1541.61816037949
 20
-1174.469570776721
 30
0.0
 10
1595.943523416612
 20
-1163.604060901
 30
0.0
  0
SPLINE
  5
6E
330
45
100
AcDbEntity
  8
Layer 1
370
     0
100
AcDbSpline
210
0.0
220
0.0
230
1.0
 70
    11
 71
     3
 72
    14
 73
    10
 74
     0
 42
0.0000000001
 43
0.0000000001
 12
1.0
 22
0.0
 32
0.0
 13
1.0
 23
0.0
 33
0.0
 40
0.0
 40
0.0
 40
0.0
 40
0.0
 40
1.0
 40
1.0
 40
1.0
 40
2.0
 40
2.0
 40
2.0
 40
3.0
 40
3.0
 40
3.0
 40
3.0
 10
343.0492379155266
 20
-1139.630826490724
 30
0.0
 10
342.3315713222592
 20
-1140.160649911191
 30
0.0
 10
341.6138743631382
 20
-1140.690473331659
 30
0.0
 10
340.8962077698716
 20
-1141.220296752126
 30
0.0
 10
441.4479354622636
 20
-1314.542518172517
 30
0.0
 10
541.9996631546564
 20
-1487.864739592906
 30
0.0
 10
642.5514212129028
 20
-1661.187082476712
 30
0.0
 10
559.0348161470829
 20
-1477.902188751515
 30
0.0
 10
447.2939696729673
 20
-1310.932868376678
 30
0.0
 10
343.0492379155266
 20
-1139.630826490724
 30
0.0
  0
SPLINE
  5
6F
330
45
100
AcDbEntity
  8
Layer 1
370
     0
100
AcDbSpline
210
0.0
220
0.0
230
1.0
 70
    11
 71
     3
 72
    17
 73
    13
 74
     0
 42
0.0000000001
 43
0.0000000001
 12
1.0
 22
0.0
 32
0.0
 13
1.0
 23
0.0
 33
0.0
 40
0.0
 40
0.0
 40
0.0
 40
0.0
 40
1.0
 40
1.0
 40
1.0
 40
2.0
 40
2.0
 40
2.0
 40
3.0
 40
3.0
 40
3.0
 40
4.0
 40
4.0
 40
4.0
 40
4.0
 10
1446.557732991458
 20
-1133.453075691003
 30
0.0
 10
1401.686596399886
 20
-1143.451458240104
 30
0.0
 10
1358.782802756805
 20
-1153.011357857549
 30
0.0
 10
1315.878887650306
 20
-1162.571257474994
 30
0.0
 10
1315.907553016476
 20
-1163.373037483821
 30
0.0
 10
1315.936218382645
 20
-1164.174696029233
 30
0.0
 10
1315.964883748815
 20
-1164.976354574645
 30
0.0
 10
1350.766946083188
 20
-1175.67230152167
 30
0.0
 10
1385.568886954146
 20
-1186.368369932112
 30
0.0
 10
1420.674243438199
 20
-1197.157600782602
 30
0.0
 10
1429.433456217561
 20
-1175.599423472087
 30
0.0
 10
1437.629686063896
 20
-1155.426779347557
 30
0.0
 10
1446.557732991458
 20
-1133.453075691003
 30
0.0
  0
SPLINE
  5
70
330
45
100
AcDbEntity
  8
Layer 1
370
     0
100
AcDbSpline
210
0.0
220
0.0
230
1.0
 70
    11
 71
     3
 72
    17
 73
    13
 74
     0
 42
0.0000000001
 43
0.0000000001
 12
1.0
 22
0.0
 32
0.0
 13
1.0
 23
0.0
 33
0.0
 40
0.0
 40
0.0
 40
0.0
 40
0.0
 40
1.0
 40
1.0
 40
1.0
 40
2.0
 40
2.0
 40
2.0
 40
3.0
 40
3.0
 40
3.0
 40
4.0
 40
4.0
 40
4.0
 40
4.0
 10
179.7051753854785
 20
-771.5433536577684
 30
0.0
 10
179.3148982470357
 20
-772.0972268345986
 30
0.0
 10
178.9246211085929
 20
-772.6511000114278
 30
0.0
 10
178.534328787222
 20
-773.2049124565492
 30
0.0
 10
199.5767724335237
 20
-807.0239106337585
 30
0.0
 10
220.6192008968983
 20
-840.84284807926
 30
0.0
 10
242.7950196776292
 20
-876.483372374084
 30
0.0
 10
250.1223609778117
 20
-850.6291555040752
 30
0.0
 10
256.7512420873772
 20
-827.2394920758343
 30
0.0
 10
263.579429479626
 20
-803.1464947374116
 30
0.0
 10
235.0921134952623
 20
-792.4127119363111
 30
0.0
 10
207.398652031834
 20
-781.9780327970402
 30
0.0
 10
179.7051753854785
 20
-771.5433536577684
 30
0.0
  0
SPLINE
  5
71
330
45
100
AcDbEntity
  8
Layer 1
370
     0
100
AcDbSpline
210
0.0
220
0.0
230
1.0
 70
    11
 71
     3
 72
    14
 73
    10
 74
     0
 42
0.0000000001
 43
0.0000000001
 12
1.0
 22
0.0
 32
0.0
 13
1.0
 23
0.0
 33
0.0
 40
0.0
 40
0.0
 40
0.0
 40
0.0
 40
1.0
 40
1.0
 40
1.0
 40
2.0
 40
2.0
 40
2.0
 40
3.0
 40
3.0
 40
3.0
 40
3.0
 10
249.7864235350889
 20
-883.3293541567718
 30
0.0
 10
276.5555939517553
 20
-885.5960436939222
 30
0.0
 10
302.2871175887058
 20
-887.774915181325
 30
0.0
 10
330.6210100957705
 20
-890.1741213053001
 30
0.0
 10
309.7430886464026
 20
-862.3415083159498
 30
0.0
 10
290.6319284969732
 20
-836.8641924257008
 30
0.0
 10
270.5857126055425
 20
-810.140358229045
 30
0.0
 10
263.4562959416853
 20
-835.2275336271941
 30
0.0
 10
256.8671637349953
 20
-858.4135029068502
 30
0.0
 10
249.7864235350889
 20
-883.3293541567718
 30
0.0
  0
SPLINE
  5
72
330
45
100
AcDbEntity
  8
Layer 1
370
     0
100
AcDbSpline
210
0.0
220
0.0
230
1.0
 70
    11
 71
     3
 72
    23
 73
    19
 74
     0
 42
0.0000000001
 43
0.0000000001
 12
1.0
 22
0.0
 32
0.0
 13
1.0
 23
0.0
 33
0.0
 40
0.0
 40
0.0
 40
0.0
 40
0.0
 40
1.0
 40
1.0
 40
1.0
 40
2.0
 40
2.0
 40
2.0
 40
3.0
 40
3.0
 40
3.0
 40
4.0
 40
4.0
 40
4.0
 40
5.0
 40
5.0
 40
5.0
 40
6.0
 40
6.0
 40
6.0
 40
6.0
 10
1501.987927260254
 20
-1357.40343522976
 30
0.0
 10
1502.465885802101
 20
-1358.031401090333
 30
0.0
 10
1502.943722880533
 20
-1358.659366950904
 30
0.0
 10
1503.42168142238
 20
-1359.287332811477
 30
0.0
 10
1599.665405408807
 20
-1289.959415950649
 30
0.0
 10
1695.909250858651
 20
-1220.631499089819
 30
0.0
 10
1792.152974845078
 20
-1151.303582228991
 30
0.0
 10
1791.582947033923
 20
-1150.353373925847
 30
0.0
 10
1791.012919222769
 20
-1149.403044159288
 30
0.0
 10
1790.442891411616
 20
-1148.452835856142
 30
0.0
 10
1766.152758949071
 20
-1161.528858439127
 30
0.0
 10
1739.842082561841
 20
-1171.894303431296
 30
0.0
 10
1717.962270125834
 20
-1188.203803610855
 30
0.0
 10
1659.044375330834
 20
-1232.12205970413
 30
0.0
 10
1602.012442995623
 20
-1278.570641678922
 30
0.0
 10
1544.242498944968
 20
-1324.028203642802
 30
0.0
 10
1530.137073911626
 20
-1335.127287667437
 30
0.0
 10
1516.071731805554
 20
-1346.277021936532
 30
0.0
 10
1501.987927260254
 20
-1357.40343522976
 30
0.0
  0
SPLINE
  5
73
330
45
100
AcDbEntity
  8
Layer 1
370
     0
100
AcDbSpline
210
0.0
220
0.0
230
1.0
 70
    11
 71
     3
 72
    26
 73
    22
 74
     0
 42
0.0000000001
 43
0.0000000001
 12
1.0
 22
0.0
 32
0.0
 13
1.0
 23
0.0
 33
0.0
 40
0.0
 40
0.0
 40
0.0
 40
0.0
 40
1.0
 40
1.0
 40
1.0
 40
2.0
 40
2.0
 40
2.0
 40
3.0
 40
3.0
 40
3.0
 40
4.0
 40
4.0
 40
4.0
 40
5.0
 40
5.0
 40
5.0
 40
6.0
 40
6.0
 40
6.0
 40
7.0
 40
7.0
 40
7.0
 40
7.0
 10
1654.842834308967
 20
-1161.193255020798
 30
0.0
 10
1654.806516747592
 20
-1161.875757955142
 30
0.0
 10
1654.770199186216
 20
-1162.558260889486
 30
0.0
 10
1654.733881624841
 20
-1163.240885287245
 30
0.0
 10
1664.485207585858
 20
-1164.969431159934
 30
0.0
 10
1674.562662818757
 20
-1165.666631167609
 30
0.0
 10
1683.924091214503
 20
-1168.62766632216
 30
0.0
 10
1708.052070016727
 20
-1176.259577137891
 30
0.0
 10
1730.385305384556
 20
-1174.191541017562
 30
0.0
 10
1751.325719761442
 20
-1159.469446221332
 30
0.0
 10
1754.801638336296
 20
-1157.025845218821
 30
0.0
 10
1758.965404235794
 20
-1155.567312519835
 30
0.0
 10
1762.789679887655
 20
-1153.611144205615
 30
0.0
 10
1779.750466903653
 20
-1144.935619719859
 30
0.0
 10
1796.703480261029
 20
-1136.244547916858
 30
0.0
 10
1813.659287276972
 20
-1127.55906343099
 30
0.0
 10
1813.427778006131
 20
-1126.978832692896
 30
0.0
 10
1813.196147271874
 20
-1126.398480491383
 30
0.0
 10
1812.964638001033
 20
-1125.818249753289
 30
0.0
 10
1760.257410591483
 20
-1137.609918175791
 30
0.0
 10
1707.550183181933
 20
-1149.401586598295
 30
0.0
 10
1654.842834308967
 20
-1161.193255020798
 30
0.0
  0
SPLINE
  5
74
330
45
100
AcDbEntity
  8
Layer 1
370
     0
100
AcDbSpline
210
0.0
220
0.0
230
1.0
 70
    11
 71
     3
 72
    20
 73
    16
 74
     0
 42
0.0000000001
 43
0.0000000001
 12
1.0
 22
0.0
 32
0.0
 13
1.0
 23
0.0
 33
0.0
 40
0.0
 40
0.0
 40
0.0
 40
0.0
 40
1.0
 40
1.0
 40
1.0
 40
2.0
 40
2.0
 40
2.0
 40
3.0
 40
3.0
 40
3.0
 40
4.0
 40
4.0
 40
4.0
 40
5.0
 40
5.0
 40
5.0
 40
5.0
 10
156.817413974959
 20
-759.7670503573854
 30
0.0
 10
134.2597142144141
 20
-741.5356952786187
 30
0.0
 10
113.2140062388089
 20
-724.5263228962312
 30
0.0
 10
92.16830205893439
 20
-707.5170112455526
 30
0.0
 10
91.53902667090915
 20
-708.0582522271206
 30
0.0
 10
90.90975507861549
 20
-708.5995539403975
 30
0.0
 10
90.28047969058935
 20
-709.1408556536735
 30
0.0
 10
101.112336608624
 20
-727.8165239080645
 30
0.0
 10
111.8700439069389
 20
-746.5364655775766
 30
0.0
 10
122.9238524432703
 20
-765.0797994402665
 30
0.0
 10
123.7631494647057
 20
-766.4878033582072
 30
0.0
 10
126.9251154751273
 20
-767.6088499559155
 30
0.0
 10
128.6309932378108
 20
-767.2184058052753
 30
0.0
 10
137.5050952257543
 20
-765.1874160268171
 30
0.0
 10
146.2571416635728
 20
-762.6232018522451
 30
0.0
 10
156.817413974959
 20
-759.7670503573854
 30
0.0
  0
SPLINE
  5
75
330
45
100
AcDbEntity
  8
Layer 1
370
     0
100
AcDbSpline
210
0.0
220
0.0
230
1.0
 70
    11
 71
     3
 72
    20
 73
    16
 74
     0
 42
0.0000000001
 43
0.0000000001
 12
1.0
 22
0.0
 32
0.0
 13
1.0
 23
0.0
 33
0.0
 40
0.0
 40
0.0
 40
0.0
 40
0.0
 40
1.0
 40
1.0
 40
1.0
 40
2.0
 40
2.0
 40
2.0
 40
3.0
 40
3.0
 40
3.0
 40
4.0
 40
4.0
 40
4.0
 40
5.0
 40
5.0
 40
5.0
 40
5.0
 10
1681.894923387286
 20
-1144.004724099854
 30
0.0
 10
1682.136149731405
 20
-1144.741642644552
 30
0.0
 10
1682.377254612109
 20
-1145.478561189251
 30
0.0
 10
1682.618480956227
 20
-1146.21547973395
 30
0.0
 10
1724.202088731116
 20
-1136.879680118971
 30
0.0
 10
1765.785817969421
 20
-1127.543880503994
 30
0.0
 10
1807.369547207727
 20
-1118.208020157308
 30
0.0
 10
1794.429077796965
 20
-1116.291934770359
 30
0.0
 10
1781.862958634229
 20
-1116.234057452648
 30
0.0
 10
1769.297568251986
 20
-1116.313676721818
 30
0.0
 10
1761.704890119614
 20
-1116.361836966251
 30
0.0
 10
1753.386103686566
 20
-1114.658616215793
 30
0.0
 10
1746.655208490509
 20
-1117.150195267614
 30
0.0
 10
1724.75584044453
 20
-1125.256967308085
 30
0.0
 10
1703.437067526893
 20
-1134.932743024367
 30
0.0
 10
1681.894923387286
 20
-1144.004724099854
 30
0.0
  0
SPLINE
  5
76
330
45
100
AcDbEntity
  8
Layer 1
370
     0
100
AcDbSpline
210
0.0
220
0.0
230
1.0
 70
    11
 71
     3
 72
    23
 73
    19
 74
     0
 42
0.0000000001
 43
0.0000000001
 12
1.0
 22
0.0
 32
0.0
 13
1.0
 23
0.0
 33
0.0
 40
0.0
 40
0.0
 40
0.0
 40
0.0
 40
1.0
 40
1.0
 40
1.0
 40
2.0
 40
2.0
 40
2.0
 40
3.0
 40
3.0
 40
3.0
 40
4.0
 40
4.0
 40
4.0
 40
5.0
 40
5.0
 40
5.0
 40
6.0
 40
6.0
 40
6.0
 40
6.0
 10
1936.850277413734
 20
-1011.717338740995
 30
0.0
 10
1936.553906678764
 20
-1011.264583857961
 30
0.0
 10
1936.257414480378
 20
-1010.811768243218
 30
0.0
 10
1935.961043745408
 20
-1010.358952628478
 30
0.0
 10
1930.748927102659
 20
-1012.194689965761
 30
0.0
 10
1925.473042166526
 20
-1013.869791935424
 30
0.0
 10
1920.343034792973
 20
-1015.911531226195
 30
0.0
 10
1915.233919126969
 20
-1017.944950272971
 30
0.0
 10
1907.955709778547
 20
-1018.963299552475
 30
0.0
 10
1905.648026338506
 20
-1022.827354473065
 30
0.0
 10
1895.944435499967
 20
-1039.074786847064
 30
0.0
 10
1887.74529053165
 20
-1056.220744840712
 30
0.0
 10
1878.995551898734
 20
-1073.037840635616
 30
0.0
 10
1879.737693370318
 20
-1073.544889665589
 30
0.0
 10
1880.479713378489
 20
-1074.051938695562
 30
0.0
 10
1881.221854850073
 20
-1074.559048457242
 30
0.0
 10
1899.764702859098
 20
-1053.611832129061
 30
0.0
 10
1918.307550868125
 20
-1032.664555069174
 30
0.0
 10
1936.850277413734
 20
-1011.717338740995
 30
0.0
  0
HATCH
  5
77
330
45
100
AcDbEntity
  8
Layer 1
 62
     7
420
 16777215
100
AcDbHatch
 10
0.0
 20
0.0
 30
0.0
210
0.0
220
0.0
230
1.0
  2
SOLID
 70
     1
 71
     0
 91
       46
 92
        1
 93
        1
 72
     4
 94
        3
 73
     0
 74
     1
 95
      107
 96
      103
 40
0.0
 40
0.0
 40
0.0
 40
0.0
 40
1.0
 40
1.0
 40
1.0
 40
2.0
 40
2.0
 40
2.0
 40
3.0
 40
3.0
 40
3.0
 40
4.0
 40
4.0
 40
4.0
 40
5.0
 40
5.0
 40
5.0
 40
6.0
 40
6.0
 40
6.0
 40
7.0
 40
7.0
 40
7.0
 40
8.0
 40
8.0
 40
8.0
 40
9.0
 40
9.0
 40
9.0
 40
10.0
 40
10.0
 40
10.0
 40
11.0
 40
11.0
 40
11.0
 40
12.0
 40
12.0
 40
12.0
 40
13.0
 40
13.0
 40
13.0
 40
14.0
 40
14.0
 40
14.0
 40
15.0
 40
15.0
 40
15.0
 40
16.0
 40
16.0
 40
16.0
 40
17.0
 40
17.0
 40
17.0
 40
18.0
 40
18.0
 40
18.0
 40
19.0
 40
19.0
 40
19.0
 40
20.0
 40
20.0
 40
20.0
 40
21.0
 40
21.0
 40
21.0
 40
22.0
 40
22.0
 40
22.0
 40
23.0
 40
23.0
 40
23.0
 40
24.0
 40
24.0
 40
24.0
 40
25.0
 40
25.0
 40
25.0
 40
26.0
 40
26.0
 40
26.0
 40
27.0
 40
27.0
 40
27.0
 40
28.0
 40
28.0
 40
28.0
 40
29.0
 40
29.0
 40
29.0
 40
30.0
 40
30.0
 40
30.0
 40
31.0
 40
31.0
 40
31.0
 40
32.0
 40
32.0
 40
32.0
 40
33.0
 40
33.0
 40
33.0
 40
34.0
 40
34.0
 40
34.0
 40
34.0
 10
767.3905484409806
 20
-1896.060889940609
 10
765.9632925716087
 20
-1892.777733806903
 10
764.8487442666546
 20
-1889.313232793151
 10
763.064385954327
 20
-1886.23729324709
 10
547.9082510245844
 20
-1515.326767700128
 10
332.7012836552585
 20
-1144.44563629983
 10
117.5025833896825
 20
-773.5597678263102
 10
104.0415521439218
 20
-750.3601946440649
 10
90.66280477101827
 20
-727.1127648759266
 10
77.16661366206608
 20
-703.93371901098
 10
72.81081410191564
 20
-696.4527872213012
 10
66.58891894195222
 20
-689.6263610485848
 10
64.0681336321868
 20
-681.6056458383291
 10
59.80251591373053
 20
-668.033020079145
 10
58.08504598628588
 20
-653.6804169943007
 10
54.74670275974586
 20
-639.7877958657391
 10
52.68791019515811
 20
-631.2201308933645
 10
49.61026826340913
 20
-622.8972147041723
 10
46.99005601419231
 20
-614.4644348552338
 10
46.99005660727562
 20
-611.8110361674844
 10
46.99005660727562
 20
-609.1576071138816
 10
46.9900608774733
 20
-606.5042084261322
 10
48.11079171774691
 20
-605.3269242668293
 10
49.39452124312265
 20
-604.2658198649033
 10
50.32851370576827
 20
-602.9554118016958
 10
76.47183912697801
 20
-566.2768307881261
 10
102.0410003383604
 20
-529.1743424528158
 10
128.8283485143738
 20
-492.9730822981601
 10
163.1814972462435
 20
-446.5471532504471
 10
191.7973594820223
 20
-395.6705920805643
 10
236.9614051012086
 20
-357.5967000760229
 10
267.0506868958919
 20
-332.2310697967596
 10
293.6905291404028
 20
-302.6423387392952
 10
324.5682451510838
 20
-278.3710634720792
 10
385.4932621633025
 20
-230.4812725180063
 10
448.2155126099424
 20
-184.8723519548985
 10
510.4541564658921
 20
-138.6699440605616
 10
515.3768561542347
 20
-135.0156260935
 10
522.2173113514964
 20
-132.5135499455264
 10
528.33226556516
 20
-132.1317980205913
 10
564.3484762055841
 20
-129.8833450766297
 10
600.4148512368038
 20
-128.4435025607781
 10
636.4624601702562
 20
-126.692286680217
 10
731.7062365846987
 20
-122.0652801887272
 10
826.9522600723358
 20
-117.4799849934288
 10
922.1895989257318
 20
-112.7231360081314
 10
939.5973105807971
 20
-111.8536724086198
 10
956.9684010159472
 20
-110.2531247785746
 10
974.356435597625
 20
-108.9900555397262
 10
984.3067186340013
 20
-108.9900566072756
 10
994.2570016703794
 20
-108.9900566072756
 10
1004.207284706756
 20
-108.9900575562087
 10
1006.321962778818
 20
-109.8203022318885
 10
1008.383743533224
 20
-110.8368324069525
 10
1010.558849654732
 20
-111.4542608417223
 10
1175.818572449773
 20
-158.363826845979
 10
1341.097000610873
 20
-205.2080834897606
 10
1506.313360966411
 20
-252.2699873920365
 10
1511.828650295425
 20
-253.8410103971373
 10
1517.341145965871
 20
-256.8239393324166
 10
1521.817194307834
 20
-260.4349404087579
 10
1606.442456702931
 20
-328.706049636
 10
1690.903743486469
 20
-397.1806859996286
 10
1775.432078075622
 20
-465.5720895574641
 10
1780.277982519217
 20
-469.4927464298962
 10
1787.0448308864
 20
-472.0338218237266
 10
1790.14457726199
 20
-476.96147114627
 10
1816.409340477981
 20
-518.7122125815358
 10
1842.065693443372
 20
-560.8463229234603
 10
1867.766987872674
 20
-602.9494297284591
 10
1869.62222008822
 20
-605.988474761918
 10
1870.670327904638
 20
-609.6127001676723
 10
1871.628795720068
 20
-613.092839596231
 10
1886.043223683642
 20
-665.4293302943825
 10
1900.252014083977
 20
-717.8226962370618
 10
1914.768714243797
 20
-770.130612666605
 10
1930.256392950896
 20
-825.9373435249136
 10
1947.189972161716
 20
-881.3752507206245
 10
1950.803265860033
 20
-939.7570667292339
 10
1951.815541968739
 20
-956.1107795922071
 10
1955.166353225142
 20
-972.3197080633417
 10
1957.444399591686
 20
-988.5950770230138
 10
1957.444399591686
 20
-993.2385626838932
 10
1957.444399591686
 20
-997.8819876130638
 10
1957.444399591686
 20
-1002.525473273943
 10
1934.699281780297
 20
-1027.908958675354
 10
1911.948212261526
 20
-1053.287099686462
 10
1889.213661767328
 20
-1078.679877039196
 10
1884.130174882092
 20
-1084.357866613902
 10
1877.770593348661
 20
-1089.38068252286
 10
1874.30184111535
 20
-1095.925860155894
 10
1863.829994170792
 20
-1115.684010373423
 10
1844.044332489546
 20
-1124.318966078245
 10
1827.385746452484
 20
-1136.337467430076
 10
1479.151954813718
 20
-1387.574218976561
 10
1130.702444148188
 20
-1638.511563202675
 10
782.3285444590992
 20
-1889.553973283606
 10
779.7688244309174
 20
-1891.398516718547
 10
777.6666570907009
 20
-1893.877949428772
 10
775.3507748700822
 20
-1896.060889940609
 10
772.6973458164784
 20
-1896.060889940609
 10
770.0439774945835
 20
-1896.060889940609
 10
767.3905484409806
 20
-1896.060889940609
 97
        0
 97
        0
 92
        1
 93
        1
 72
     4
 94
        3
 73
     0
 74
     1
 95
       65
 96
       61
 40
0.0
 40
0.0
 40
0.0
 40
0.0
 40
1.0
 40
1.0
 40
1.0
 40
2.0
 40
2.0
 40
2.0
 40
3.0
 40
3.0
 40
3.0
 40
4.0
 40
4.0
 40
4.0
 40
5.0
 40
5.0
 40
5.0
 40
6.0
 40
6.0
 40
6.0
 40
7.0
 40
7.0
 40
7.0
 40
8.0
 40
8.0
 40
8.0
 40
9.0
 40
9.0
 40
9.0
 40
10.0
 40
10.0
 40
10.0
 40
11.0
 40
11.0
 40
11.0
 40
12.0
 40
12.0
 40
12.0
 40
13.0
 40
13.0
 40
13.0
 40
14.0
 40
14.0
 40
14.0
 40
15.0
 40
15.0
 40
15.0
 40
16.0
 40
16.0
 40
16.0
 40
17.0
 40
17.0
 40
17.0
 40
18.0
 40
18.0
 40
18.0
 40
19.0
 40
19.0
 40
19.0
 40
20.0
 40
20.0
 40
20.0
 40
20.0
 10
1781.983450342872
 20
-482.8508070647677
 10
1780.586742522617
 20
-481.3213093650011
 10
1780.195387396356
 20
-480.7661304564499
 10
1779.687670317595
 20
-480.354673134847
 10
1691.351093247491
 20
-408.7823552736991
 10
1603.025690811657
 20
-337.1963120465471
 10
1514.584533740401
 20
-265.7535045526784
 10
1511.375227363604
 20
-263.1610197680384
 10
1507.199558049339
 20
-261.369859504417
 10
1503.183491663662
 20
-260.2279819308696
 10
1337.634200084944
 20
-213.1578033333808
 10
1172.055271432731
 20
-166.1922275114339
 10
1006.451928633907
 20
-119.3125747201593
 10
1002.395475662419
 20
-118.1642491473031
 10
997.9927304919947
 20
-117.4918390636813
 10
993.8016960556106
 20
-117.6851376519371
 10
961.7041988729634
 20
-119.1655119403385
 10
929.6229777880571
 20
-120.9916754932183
 10
897.5297318249704
 20
-122.5688485326864
 10
775.4419938954761
 20
-128.5686630194732
 10
653.3555313318502
 20
-134.5976496026178
 10
531.2523371826746
 20
-140.2664610979555
 10
524.2937588133809
 20
-140.589519622853
 10
520.5406910891343
 20
-143.2134368621073
 10
516.9060805613144
 20
-148.4945181550056
 10
499.9998913507952
 20
-173.0591161845969
 10
482.8010967712007
 20
-197.4223164833111
 10
465.7183604855672
 20
-221.8654852585169
 10
444.6751880587699
 20
-251.9755448887945
 10
423.6431902662416
 20
-282.0934161350124
 10
402.3088396655075
 20
-312.6338586053944
 10
405.2299437220572
 20
-315.1830568651667
 10
407.6047964311301
 20
-317.4163743287791
 10
410.1422279224807
 20
-319.4465442291794
 10
494.5240472661189
 20
-386.9600861310073
 10
578.8639009995386
 20
-454.5264798017106
 10
663.4381487599285
 20
-521.7982639569746
 10
669.4501019968493
 20
-526.5802786437689
 10
676.8226276877731
 20
-530.5157236870964
 10
684.1968538665205
 20
-532.5939931002213
 10
844.7461039267746
 20
-577.8415144520332
 10
1005.376430817189
 20
-622.8020481177591
 10
1166.027406488318
 20
-667.6876388558303
 10
1177.112522220115
 20
-670.7847130362688
 10
1188.544294541096
 20
-675.3023625982014
 10
1199.708361493276
 20
-675.0152230828453
 10
1263.287779266426
 20
-673.3802647721623
 10
1326.834887770927
 20
-670.4909537647418
 10
1390.39280651945
 20
-668.0194769082646
 10
1474.141224514651
 20
-664.7629212626553
 10
1557.894743973322
 20
-661.6166543987474
 10
1641.623849285384
 20
-657.9209477726936
 10
1646.257921531525
 20
-657.7164033801982
 10
1652.010793302179
 20
-653.9554101680596
 10
1655.005716749785
 20
-650.1081779305814
 10
1678.417911641689
 20
-620.0329251604426
 10
1701.299432869213
 20
-589.5441501906298
 10
1724.310677024994
 20
-559.157283026816
 10
1743.498860163078
 20
-533.8190731137083
 10
1762.641130129921
 20
-508.4460942977785
 10
1781.983450342872
 20
-482.8508070647677
 97
        0
 97
        0
 92
        1
 93
        1
 72
     4
 94
        3
 73
     0
 74
     1
 95
       26
 96
       22
 40
0.0
 40
0.0
 40
0.0
 40
0.0
 40
1.0
 40
1.0
 40
1.0
 40
2.0
 40
2.0
 40
2.0
 40
3.0
 40
3.0
 40
3.0
 40
4.0
 40
4.0
 40
4.0
 40
5.0
 40
5.0
 40
5.0
 40
6.0
 40
6.0
 40
6.0
 40
7.0
 40
7.0
 40
7.0
 40
7.0
 10
878.4762516152005
 20
-784.1440898940582
 10
965.5851979400823
 20
-892.1948474251085
 10
1051.646643765627
 20
-998.9461893320968
 10
1138.030817887406
 20
-1106.097935389835
 10
1231.458291111121
 20
-1024.271493757258
 10
1324.295695060046
 20
-942.961818227931
 10
1417.547775111096
 20
-861.288967084849
 10
1415.160168743347
 20
-859.1378499879957
 10
1413.791397508765
 20
-857.7490372897792
 10
1412.26921797981
 20
-856.5557199595678
 10
1341.08291085462
 20
-800.7471064183128
 10
1269.837086655603
 20
-745.0140431217915
 10
1198.78293172699
 20
-689.0375671396632
 10
1193.755439476517
 20
-685.0768880716678
 10
1189.573696991454
 20
-685.6543858829036
 10
1184.257243274385
 20
-687.3500759015724
 10
1129.732194381408
 20
-704.7405397515704
 10
1075.157224024466
 20
-721.9746194535037
 10
1020.590452448103
 20
-739.2341457410839
 10
973.613626077251
 20
-754.0930083436979
 10
926.6292082429027
 20
-768.9281248484886
 10
878.4762516152005
 20
-784.1440898940582
 97
        0
 97
        0
 92
        1
 93
        1
 72
     4
 94
        3
 73
     0
 74
     1
 95
       26
 96
       22
 40
0.0
 40
0.0
 40
0.0
 40
0.0
 40
1.0
 40
1.0
 40
1.0
 40
2.0
 40
2.0
 40
2.0
 40
3.0
 40
3.0
 40
3.0
 40
4.0
 40
4.0
 40
4.0
 40
5.0
 40
5.0
 40
5.0
 40
6.0
 40
6.0
 40
6.0
 40
7.0
 40
7.0
 40
7.0
 40
7.0
 10
863.3884304734811
 20
-779.9208069207325
 10
861.713814357483
 20
-777.495850552571
 10
861.0334370329192
 20
-776.36192883277
 10
860.2116762921651
 20
-775.3418183337344
 10
798.0519836565963
 20
-698.1823048013184
 10
735.8104854103722
 20
-621.0884422452345
 10
673.849081801377
 20
-543.7700545647276
 10
669.0352436995981
 20
-537.7631116937155
 10
663.9430114484139
 20
-538.7199701188847
 10
658.0193621149047
 20
-539.6387193972923
 10
590.9458062545054
 20
-550.0419091459726
 10
523.8630495403468
 20
-560.3859765769294
 10
456.7873377043143
 20
-570.775471325459
 10
434.9642486835646
 20
-574.1557070943809
 10
413.1544599068638
 20
-577.6221211569346
 10
390.6720978300755
 20
-581.1537610738651
 10
411.1071940306656
 20
-691.1017771623892
 10
431.3465519364181
 20
-799.9967054344415
 10
451.8213059423233
 20
-910.1580112814108
 10
589.3602835541224
 20
-866.6348756802909
 10
725.7918184708033
 20
-823.4621620342477
 10
863.3884304734811
 20
-779.9208069207325
 97
        0
 97
        0
 92
        1
 93
        1
 72
     4
 94
        3
 73
     0
 74
     1
 95
       38
 96
       34
 40
0.0
 40
0.0
 40
0.0
 40
0.0
 40
1.0
 40
1.0
 40
1.0
 40
2.0
 40
2.0
 40
2.0
 40
3.0
 40
3.0
 40
3.0
 40
4.0
 40
4.0
 40
4.0
 40
5.0
 40
5.0
 40
5.0
 40
6.0
 40
6.0
 40
6.0
 40
7.0
 40
7.0
 40
7.0
 40
8.0
 40
8.0
 40
8.0
 40
9.0
 40
9.0
 40
9.0
 40
10.0
 40
10.0
 40
10.0
 40
11.0
 40
11.0
 40
11.0
 40
11.0
 10
775.6840097517997
 20
-1880.185742936563
 10
778.7661439320736
 20
-1877.361232661564
 10
780.2239478505626
 20
-1876.183280453473
 10
781.5001032304663
 20
-1874.833700438616
 10
870.282268842062
 20
-1780.938835990244
 10
958.9970222577931
 20
-1686.979960321654
 10
1047.946625188306
 20
-1593.243970021374
 10
1053.48329207853
 20
-1587.409474835187
 10
1056.596703088417
 20
-1581.39047672014
 10
1057.837634077689
 20
-1573.550620536267
 10
1075.543477687255
 20
-1461.690223694981
 10
1093.453015445406
 20
-1349.861893195512
 10
1111.273034665986
 20
-1238.019351476374
 10
1112.933682489147
 20
-1227.597668922612
 10
1114.319458601965
 20
-1217.132259539099
 10
1115.832771301553
 20
-1206.687134546055
 10
1114.836892754003
 20
-1206.13131795457
 10
1113.841135669871
 20
-1205.575501363084
 10
1112.845257122321
 20
-1205.0196847716
 10
1110.189823922354
 20
-1208.374382857313
 10
1107.811570237634
 20
-1211.999944360645
 10
1104.838753131733
 20
-1215.044667808799
 10
997.628522439205
 20
-1324.842008529811
 10
890.4026229660158
 20
-1434.624287787241
 10
782.9864510517082
 20
-1544.219999237741
 10
777.6834797738129
 20
-1549.630587102187
 10
775.5091024328003
 20
-1554.933801306914
 10
775.5333343842867
 20
-1562.463925780061
 10
775.7800265821252
 20
-1639.053047111076
 10
775.6840704835076
 20
-1715.643383076249
 10
775.6840704835076
 20
-1792.233354651176
 10
775.6840704835076
 20
-1820.731222769802
 10
775.6840097517997
 20
-1849.229090888428
 10
775.6840097517997
 20
-1880.185742936563
 97
        0
 97
        0
 92
        1
 93
        1
 72
     4
 94
        3
 73
     0
 74
     1
 95
       29
 96
       25
 40
0.0
 40
0.0
 40
0.0
 40
0.0
 40
1.0
 40
1.0
 40
1.0
 40
2.0
 40
2.0
 40
2.0
 40
3.0
 40
3.0
 40
3.0
 40
4.0
 40
4.0
 40
4.0
 40
5.0
 40
5.0
 40
5.0
 40
6.0
 40
6.0
 40
6.0
 40
7.0
 40
7.0
 40
7.0
 40
8.0
 40
8.0
 40
8.0
 40
8.0
 10
1431.522019655189
 20
-860.6318500044445
 10
1535.05719250238
 20
-941.7535001658471
 10
1638.151696076426
 20
-1022.52995129906
 10
1742.433504541592
 20
-1104.23663000349
 10
1747.900329967633
 20
-1063.277404918403
 10
1753.141111976551
 20
-1024.239731073982
 10
1758.316182277427
 20
-985.1933725953186
 10
1769.369353130825
 20
-901.7953158234877
 10
1780.28150495828
 20
-818.3781285636414
 10
1791.615742156235
 20
-735.0183934995484
 10
1792.569594361859
 20
-728.0030917149961
 10
1790.756874341901
 20
-725.19297485479
 10
1784.457781589625
 20
-722.5790214113777
 10
1743.497402602085
 20
-705.5814917120479
 10
1702.621197761813
 20
-688.371158107936
 10
1661.950144631119
 20
-670.6953159621144
 10
1654.640233331127
 20
-667.5183795856738
 10
1650.106004012914
 20
-668.8964427715773
 10
1644.534962975971
 20
-673.8403681918617
 10
1612.820986529254
 20
-701.9850206968431
 10
1580.810396420735
 20
-729.7954666127789
 10
1548.916168264717
 20
-757.7372144813799
 10
1510.034635641528
 20
-791.800232661275
 10
1471.168407408752
 20
-825.8808630364865
 10
1431.522019655189
 20
-860.6318500044445
 97
        0
 97
        0
 92
        1
 93
        1
 72
     4
 94
        3
 73
     0
 74
     1
 95
       38
 96
       34
 40
0.0
 40
0.0
 40
0.0
 40
0.0
 40
1.0
 40
1.0
 40
1.0
 40
2.0
 40
2.0
 40
2.0
 40
3.0
 40
3.0
 40
3.0
 40
4.0
 40
4.0
 40
4.0
 40
5.0
 40
5.0
 40
5.0
 40
6.0
 40
6.0
 40
6.0
 40
7.0
 40
7.0
 40
7.0
 40
8.0
 40
8.0
 40
8.0
 40
9.0
 40
9.0
 40
9.0
 40
10.0
 40
10.0
 40
10.0
 40
11.0
 40
11.0
 40
11.0
 40
11.0
 10
765.369457930924
 20
-1870.96496917651
 10
766.0431547676098
 20
-1870.796377955143
 10
766.7168516042948
 20
-1870.62790819719
 10
767.3905484409806
 20
-1870.459438439237
 10
767.3905484409806
 20
-1867.320216453456
 10
767.3905484409806
 20
-1864.181115931091
 10
767.3905484409806
 20
-1861.04189394531
 10
767.3905484409806
 20
-1761.240627968498
 10
767.4814030761263
 20
-1661.438997601437
 10
767.1721572190636
 20
-1561.638703331952
 10
767.1529659993403
 20
-1555.438846190524
 10
765.2479337832447
 20
-1548.510937333762
 10
762.108165212092
 20
-1543.161202640718
 10
663.5415748586283
 20
-1375.216045181965
 10
564.7145062096133
 20
-1207.423810163922
 10
465.9062036583664
 20
-1039.620461243316
 10
464.1489924195084
 20
-1036.636287308023
 10
462.1354630070964
 20
-1033.803031667074
 10
458.6899710179441
 20
-1028.520526974769
 10
459.2786130975956
 20
-1033.464270199929
 10
459.3863207817076
 20
-1035.432038270374
 10
459.7592134687402
 20
-1037.348062925616
 10
482.8431534789806
 20
-1155.968020329125
 10
505.855855195754
 20
-1274.601946025472
 10
529.1559089888624
 20
-1393.179634160224
 10
532.519018416132
 20
-1410.29516556817
 10
534.1084583116799
 20
-1428.768172113012
 10
541.8814488850621
 20
-1443.848948376606
 10
605.5762569033841
 20
-1567.427042420068
 10
670.5393251795722
 20
-1690.351420358773
 10
735.1256746711251
 20
-1813.470018299617
 10
745.1852140501687
 20
-1832.646298022933
 10
755.2870834296782
 20
-1851.800471404544
 10
765.369457930924
 20
-1870.96496917651
 97
        0
 97
        0
 92
        1
 93
        1
 72
     4
 94
        3
 73
     0
 74
     1
 95
       26
 96
       22
 40
0.0
 40
0.0
 40
0.0
 40
0.0
 40
1.0
 40
1.0
 40
1.0
 40
2.0
 40
2.0
 40
2.0
 40
3.0
 40
3.0
 40
3.0
 40
4.0
 40
4.0
 40
4.0
 40
5.0
 40
5.0
 40
5.0
 40
6.0
 40
6.0
 40
6.0
 40
7.0
 40
7.0
 40
7.0
 40
7.0
 10
1115.07666153713
 20
-1192.435831950132
 10
1112.628323461395
 20
-1191.118804130752
 10
1111.248741982792
 20
-1190.220096315979
 10
1109.754499039513
 20
-1189.595652894472
 10
1058.759723600035
 20
-1168.28307461105
 10
1007.765130355681
 20
-1146.969767547133
 10
956.7214658912771
 20
-1125.774705118662
 10
953.7481022000047
 20
-1124.540029495312
 10
950.3869058215369
 20
-1123.813678267805
 10
947.1677609080461
 20
-1123.661363144176
 10
907.4641031538549
 20
-1121.782263367391
 10
867.7612956435751
 20
-1119.832350419094
 10
828.0405722794394
 20
-1118.390701134929
 10
810.9682211158715
 20
-1117.771116250058
 10
793.8546938542895
 20
-1118.287032109398
 10
776.364204881239
 20
-1118.287032109398
 10
776.364204881239
 20
-1257.07987656427
 10
776.364204881239
 20
-1396.711425906424
 10
776.364204881239
 20
-1538.775523080238
 10
889.9849710101989
 20
-1422.596130093842
 10
1002.058111024558
 20
-1307.999283954136
 10
1115.07666153713
 20
-1192.435831950132
 97
        0
 97
        0
 92
        1
 93
        1
 72
     4
 94
        3
 73
     0
 74
     1
 95
       29
 96
       25
 40
0.0
 40
0.0
 40
0.0
 40
0.0
 40
1.0
 40
1.0
 40
1.0
 40
2.0
 40
2.0
 40
2.0
 40
3.0
 40
3.0
 40
3.0
 40
4.0
 40
4.0
 40
4.0
 40
5.0
 40
5.0
 40
5.0
 40
6.0
 40
6.0
 40
6.0
 40
7.0
 40
7.0
 40
7.0
 40
8.0
 40
8.0
 40
8.0
 40
8.0
 10
455.4016526890582
 20
-1004.786879152498
 10
559.5145966401697
 20
-1181.623158660357
 10
662.4003653338686
 20
-1356.37500448673
 10
765.2861947592755
 20
-1531.126971776519
 10
765.9875245230942
 20
-1530.943440554987
 10
766.6888542869137
 20
-1530.759787870038
 10
767.3901840507324
 20
-1530.576256648505
 10
767.3901840507324
 20
-1528.440808332312
 10
767.3901840507324
 20
-1526.305481479534
 10
767.3901840507324
 20
-1524.170154626758
 10
767.3902447824403
 20
-1390.178394614986
 10
767.3494330746744
 20
-1256.186634603217
 10
767.5286523449395
 20
-1122.195117518277
 10
767.5363652718534
 20
-1116.403984771592
 10
765.572119640472
 20
-1113.425398153435
 10
760.6733178792219
 20
-1110.689738367219
 10
715.2697464037401
 20
-1085.334068088065
 10
669.8839693186983
 20
-1059.94135146704
 10
624.7648651634227
 20
-1034.084887523835
 10
611.0783674517652
 20
-1026.241569632606
 10
597.318384373445
 20
-1020.742070547669
 10
581.2410615135141
 20
-1019.214121506457
 10
540.0592243528044
 20
-1015.300327317027
 10
499.0193779253659
 20
-1009.892411647732
 10
455.4016526890582
 20
-1004.786879152498
 97
        0
 97
        0
 92
        1
 93
        1
 72
     4
 94
        3
 73
     0
 74
     1
 95
       38
 96
       34
 40
0.0
 40
0.0
 40
0.0
 40
0.0
 40
1.0
 40
1.0
 40
1.0
 40
2.0
 40
2.0
 40
2.0
 40
3.0
 40
3.0
 40
3.0
 40
4.0
 40
4.0
 40
4.0
 40
5.0
 40
5.0
 40
5.0
 40
6.0
 40
6.0
 40
6.0
 40
7.0
 40
7.0
 40
7.0
 40
8.0
 40
8.0
 40
8.0
 40
9.0
 40
9.0
 40
9.0
 40
10.0
 40
10.0
 40
10.0
 40
11.0
 40
11.0
 40
11.0
 40
11.0
 10
79.98787099495621
 20
-676.6649391985684
 10
83.24305258567165
 20
-676.029199679374
 10
84.82084717621365
 20
-675.907493336571
 10
86.27048647570973
 20
-675.4113152823275
 10
182.3945272443552
 20
-642.5116737006065
 10
278.4822770217479
 20
-609.5054479713699
 10
374.6801637515728
 20
-576.8233473676528
 10
381.2154724820593
 20
-574.6030264895498
 10
382.1365599312248
 20
-570.7437693738902
 10
382.3450215188859
 20
-565.0869447994164
 10
384.6876560568726
 20
-501.5172137336904
 10
387.3069235247331
 20
-437.9572301070957
 10
389.4657535485012
 20
-374.3814866022794
 10
390.1149451410147
 20
-355.2638585259492
 10
389.5661734276555
 20
-336.1055553881961
 10
389.5661734276555
 20
-316.2160273033687
 10
368.6780794172
 20
-309.5130383271326
 10
346.7293061267737
 20
-302.1615713559531
 10
324.528465882353
 20
-295.6725857357314
 10
321.1386648694233
 20
-294.6817782857988
 10
315.4760404168364
 20
-296.4821849519622
 10
312.7348844110484
 20
-299.0153955896076
 10
279.3921594707899
 20
-329.8287815386047
 10
246.3040522162619
 20
-360.9207741979853
 10
213.4308289275141
 20
-392.2353941159154
 10
209.0285999766083
 20
-396.4289185523276
 10
205.2769290816459
 20
-401.8342834898876
 10
202.7348364317077
 20
-407.3720435508549
 10
166.2795583169373
 20
-486.7876489373784
 10
130.0777591683727
 20
-566.3196162764016
 10
93.83353512604845
 20
-645.8320583713084
 10
89.37851893370862
 20
-655.605490674031
 10
85.03056135535189
 20
-665.4276905382667
 10
79.98787099495621
 20
-676.6649391985684
 97
        0
 97
        0
 92
        1
 93
        1
 72
     4
 94
        3
 73
     0
 74
     1
 95
       29
 96
       25
 40
0.0
 40
0.0
 40
0.0
 40
0.0
 40
1.0
 40
1.0
 40
1.0
 40
2.0
 40
2.0
 40
2.0
 40
3.0
 40
3.0
 40
3.0
 40
4.0
 40
4.0
 40
4.0
 40
5.0
 40
5.0
 40
5.0
 40
6.0
 40
6.0
 40
6.0
 40
7.0
 40
7.0
 40
7.0
 40
8.0
 40
8.0
 40
8.0
 40
8.0
 10
1415.258068256619
 20
-1204.570634522754
 10
1375.227127328093
 20
-1192.216833411134
 10
1336.975989833796
 20
-1180.356295231775
 10
1298.663877704681
 20
-1168.696414615601
 10
1295.622798159004
 20
-1167.770863385898
 10
1292.06367714421
 20
-1167.640168750313
 10
1288.905263938706
 20
-1168.143513146098
 10
1237.558426788037
 20
-1176.326382016676
 10
1186.256774028107
 20
-1184.796147475778
 10
1134.885887121074
 20
-1192.822571466584
 10
1128.479299245664
 20
-1193.823551477604
 10
1126.334376783025
 20
-1196.191966625631
 10
1125.325987503629
 20
-1202.593938891236
 10
1109.195281472381
 20
-1304.999259043059
 10
1092.723749095914
 20
-1407.350892365024
 10
1076.37185818418
 20
-1509.72147397988
 10
1073.159515221985
 20
-1529.831928835432
 10
1070.123051286115
 20
-1549.970563203491
 10
1067.005449788378
 20
-1570.09620098604
 10
1067.631472234294
 20
-1570.380182452582
 10
1068.257373216795
 20
-1570.664042455706
 10
1068.883395662711
 20
-1570.947902458831
 10
1183.932935953742
 20
-1449.254434777582
 10
1298.982354781358
 20
-1327.560967096331
 10
1415.258068256619
 20
-1204.570634522754
 97
        0
 97
        0
 92
        1
 93
        1
 72
     4
 94
        3
 73
     0
 74
     1
 95
       29
 96
       25
 40
0.0
 40
0.0
 40
0.0
 40
0.0
 40
1.0
 40
1.0
 40
1.0
 40
2.0
 40
2.0
 40
2.0
 40
3.0
 40
3.0
 40
3.0
 40
4.0
 40
4.0
 40
4.0
 40
5.0
 40
5.0
 40
5.0
 40
6.0
 40
6.0
 40
6.0
 40
7.0
 40
7.0
 40
7.0
 40
8.0
 40
8.0
 40
8.0
 40
8.0
 10
873.7142783920417
 20
-792.0439490054214
 10
872.412676426492
 20
-793.8638353669212
 10
871.6204312958189
 20
-794.563039520961
 10
871.3345671463303
 20
-795.4293166036687
 10
847.5877405434248
 20
-867.3952366642716
 10
823.9615271125804
 20
-939.401118188729
 10
800.028314897867
 20
-1011.304848980355
 10
797.9305202406249
 20
-1017.607342708279
 10
801.2688207651836
 20
-1019.479276143522
 10
805.3597693468082
 20
-1022.033833976524
 10
852.845952552535
 20
-1051.686090400543
 10
900.2403701474959
 20
-1081.486228533506
 10
947.8470450618661
 20
-1110.943414711475
 10
951.7787551051524
 20
-1113.376266201674
 10
957.1158576029356
 20
-1114.797934753911
 10
961.7378442391873
 20
-1114.656612069428
 10
1000.471981007096
 20
-1113.472525958832
 10
1039.191845823627
 20
-1111.817222525973
 10
1077.915536737761
 20
-1110.294374948231
 10
1094.1822817949
 20
-1109.654748599727
 10
1110.448055144709
 20
-1108.992651519266
 10
1128.638780710833
 20
-1108.263628096605
 10
1042.805503912192
 20
-1001.792198631723
 10
958.5973468875391
 20
-897.3366367500093
 10
873.7142783920417
 20
-792.0439490054214
 97
        0
 97
        0
 92
        1
 93
        1
 72
     4
 94
        3
 73
     0
 74
     1
 95
       32
 96
       28
 40
0.0
 40
0.0
 40
0.0
 40
0.0
 40
1.0
 40
1.0
 40
1.0
 40
2.0
 40
2.0
 40
2.0
 40
3.0
 40
3.0
 40
3.0
 40
4.0
 40
4.0
 40
4.0
 40
5.0
 40
5.0
 40
5.0
 40
6.0
 40
6.0
 40
6.0
 40
7.0
 40
7.0
 40
7.0
 40
8.0
 40
8.0
 40
8.0
 40
9.0
 40
9.0
 40
9.0
 40
9.0
 10
1708.396661727838
 20
-1182.157840617463
 10
1703.460145575928
 20
-1180.966891823862
 10
1700.766937253595
 20
-1180.177744010298
 10
1698.021256735561
 20
-1179.677679126742
 10
1680.753653130818
 20
-1176.532019579916
 10
1663.531355380233
 20
-1173.065332224676
 10
1646.176905433073
 20
-1170.496138050048
 10
1636.124471663863
 20
-1169.007968277567
 10
1625.445165204825
 20
-1166.841668253717
 10
1615.746675829756
 20
-1168.675644371469
 10
1554.617296620167
 20
-1180.234831815804
 10
1493.665253997893
 20
-1192.740340733972
 10
1432.723657229395
 20
-1205.268806237757
 10
1428.27724596093
 20
-1206.183061369773
 10
1423.481262981299
 20
-1208.894975058167
 10
1420.348842946813
 20
-1212.195500460359
 10
1320.885974046896
 20
-1316.99510746781
 10
1221.602628075785
 20
-1421.965127647871
 10
1122.313208933876
 20
-1526.929196120547
 10
1112.074085894317
 20
-1537.753651361671
 10
1101.966386270842
 20
-1548.70248514075
 10
1091.797712012549
 20
-1559.593502333824
 10
1092.212631041506
 20
-1559.989958923556
 10
1092.627550070465
 20
-1560.386294049871
 10
1093.042469099422
 20
-1560.782750639601
 10
1297.506938667553
 20
-1434.976653156975
 10
1501.971408235682
 20
-1309.170434210933
 10
1708.396661727838
 20
-1182.157840617463
 97
        0
 97
        0
 92
        1
 93
        1
 72
     4
 94
        3
 73
     0
 74
     1
 95
       29
 96
       25
 40
0.0
 40
0.0
 40
0.0
 40
0.0
 40
1.0
 40
1.0
 40
1.0
 40
2.0
 40
2.0
 40
2.0
 40
3.0
 40
3.0
 40
3.0
 40
4.0
 40
4.0
 40
4.0
 40
5.0
 40
5.0
 40
5.0
 40
6.0
 40
6.0
 40
6.0
 40
7.0
 40
7.0
 40
7.0
 40
8.0
 40
8.0
 40
8.0
 40
8.0
 10
459.7985979813693
 20
-916.6682074506462
 10
461.7826117836994
 20
-918.5403838127213
 10
462.5650183776797
 20
-919.544643335973
 10
463.5754421692918
 20
-920.1941082211715
 10
510.3688284161717
 20
-950.2697861132656
 10
557.1629434435481
 20
-980.3446744931571
 10
604.0495224963324
 20
-1010.274596286086
 10
606.3993537417145
 20
-1011.774730205041
 10
609.5605606057861
 20
-1012.662992166039
 10
612.3599279536793
 20
-1012.702407044522
 10
668.9994727235953
 20
-1013.500300224039
 10
725.6429650545297
 20
-1014.035225107977
 10
782.2806878732063
 20
-1014.935937069113
 10
788.4589245265915
 20
-1015.034200972634
 10
790.8581913822745
 20
-1012.712913630005
 10
792.6645953046009
 20
-1007.181408934959
 10
815.6625392163342
 20
-936.7570418181558
 10
838.8824575207545
 20
-866.405188360689
 10
861.9778758238053
 20
-796.0125231954553
 10
862.602805098978
 20
-794.1076731744834
 10
862.4649441218498
 20
-791.9524263214871
 10
862.7678738812829
 20
-789.1171665341753
 10
728.043568007789
 20
-831.761149930494
 10
594.4457745857217
 20
-874.0485774692288
 10
459.7985979813693
 20
-916.6682074506462
 97
        0
 97
        0
 92
        1
 93
        1
 72
     4
 94
        3
 73
     0
 74
     1
 95
       26
 96
       22
 40
0.0
 40
0.0
 40
0.0
 40
0.0
 40
1.0
 40
1.0
 40
1.0
 40
2.0
 40
2.0
 40
2.0
 40
3.0
 40
3.0
 40
3.0
 40
4.0
 40
4.0
 40
4.0
 40
5.0
 40
5.0
 40
5.0
 40
6.0
 40
6.0
 40
6.0
 40
7.0
 40
7.0
 40
7.0
 40
7.0
 10
1174.69977292526
 20
-681.3629619332187
 10
1174.596893411932
 20
-680.5367070460725
 10
1174.494013898606
 20
-679.7103914272193
 10
1174.391255848694
 20
-678.884136540074
 10
1011.64467186181
 20
-633.3291001848766
 10
848.8982093383402
 20
-587.7740941955326
 10
683.8828709362351
 20
-541.5839863699284
 10
686.5330812093143
 20
-545.441239339224
 10
687.6470221971886
 20
-547.3151465549763
 10
689.0005497730654
 20
-548.9961698661673
 10
748.462661403325
 20
-622.8464429962969
 10
808.0078540101085
 20
-696.630002345204
 10
867.3017388092476
 20
-770.6150695012075
 10
871.7449920288973
 20
-776.159267123222
 10
875.6407489010562
 20
-776.119548586199
 10
881.7436175048315
 20
-774.1703644183981
 10
956.7823190626787
 20
-750.2050251301607
 10
1031.909081597105
 20
-726.5154685278867
 10
1107.014041448365
 20
-702.7577709492525
 10
1129.574413404061
 20
-695.6213094072691
 10
1152.13770048174
 20
-688.4943220117311
 10
1174.69977292526
 20
-681.3629619332187
 97
        0
 97
        0
 92
        1
 93
        1
 72
     4
 94
        3
 73
     0
 74
     1
 95
       32
 96
       28
 40
0.0
 40
0.0
 40
0.0
 40
0.0
 40
1.0
 40
1.0
 40
1.0
 40
2.0
 40
2.0
 40
2.0
 40
3.0
 40
3.0
 40
3.0
 40
4.0
 40
4.0
 40
4.0
 40
5.0
 40
5.0
 40
5.0
 40
6.0
 40
6.0
 40
6.0
 40
7.0
 40
7.0
 40
7.0
 40
8.0
 40
8.0
 40
8.0
 40
9.0
 40
9.0
 40
9.0
 40
9.0
 10
1147.754450189581
 20
-1109.081623471466
 10
1149.094677521409
 20
-1110.477177389268
 10
1149.460403866899
 20
-1111.198123494767
 10
1150.003102409459
 20
-1111.374549106466
 10
1196.854578535029
 20
-1126.603632200959
 10
1243.700345880046
 20
-1141.851542124929
 10
1290.626157616189
 20
-1156.84887302175
 10
1293.880283993478
 20
-1157.888842789298
 10
1297.88626891563
 20
-1157.721466202089
 10
1301.291009928726
 20
-1156.972279852376
 10
1347.497636778902
 20
-1146.804577301411
 10
1393.622397286714
 20
-1136.260824014598
 10
1439.872629503223
 20
-1126.298759026871
 10
1446.949695434798
 20
-1124.774393156431
 10
1449.662945220767
 20
-1122.150358249492
 10
1448.038857885813
 20
-1115.133902562487
 10
1447.521180806943
 20
-1112.897639611039
 10
1447.627461295917
 20
-1110.522301048302
 10
1447.3771251956
 20
-1108.218261510739
 10
1440.906769026804
 20
-1048.648715489055
 10
1434.442243101974
 20
-989.0786228819961
 10
1427.940306445025
 20
-929.5124778359577
 10
1425.838017641392
 20
-910.252084697081
 10
1423.633821031759
 20
-891.0028661924734
 10
1421.237226371228
 20
-869.6158915667693
 10
1329.165892186835
 20
-950.2350475762978
 10
1238.616616067979
 20
-1029.521324790667
 10
1147.754450189581
 20
-1109.081623471466
 97
        0
 97
        0
 92
        1
 93
        1
 72
     4
 94
        3
 73
     0
 74
     1
 95
       23
 96
       19
 40
0.0
 40
0.0
 40
0.0
 40
0.0
 40
1.0
 40
1.0
 40
1.0
 40
2.0
 40
2.0
 40
2.0
 40
3.0
 40
3.0
 40
3.0
 40
4.0
 40
4.0
 40
4.0
 40
5.0
 40
5.0
 40
5.0
 40
6.0
 40
6.0
 40
6.0
 40
6.0
 10
812.8801767466775
 20
-1854.513356800264
 10
1094.38245350442
 20
-1655.695721440645
 10
1375.104327814546
 20
-1456.166917780514
 10
1641.248648793448
 20
-1234.339131435856
 10
1637.156546309372
 20
-1236.555352923669
 10
1634.347583351617
 20
-1237.906876353185
 10
1631.706725761567
 20
-1239.531328078387
 10
1444.352807601328
 20
-1354.78334788384
 10
1257.006055782633
 20
-1470.047149640644
 10
1069.710682988893
 20
-1585.394518227638
 10
1065.827740507119
 20
-1587.785889961282
 10
1062.187542662165
 20
-1590.817738287345
 10
1059.046377261728
 20
-1594.131138811628
 10
991.0911184647921
 20
-1665.811194722743
 10
923.2145679614059
 20
-1737.565829171264
 10
855.3457911166424
 20
-1809.327751424744
 10
841.143438277355
 20
-1824.345002321783
 10
827.0329725122492
 20
-1839.449221024659
 10
812.8801767466775
 20
-1854.513356800264
 97
        0
 97
        0
 92
        1
 93
        1
 72
     4
 94
        3
 73
     0
 74
     1
 95
       20
 96
       16
 40
0.0
 40
0.0
 40
0.0
 40
0.0
 40
1.0
 40
1.0
 40
1.0
 40
2.0
 40
2.0
 40
2.0
 40
3.0
 40
3.0
 40
3.0
 40
4.0
 40
4.0
 40
4.0
 40
5.0
 40
5.0
 40
5.0
 40
5.0
 10
1209.159065499764
 20
-683.5153543959395
 10
1208.985372814925
 20
-684.3337748927552
 10
1208.811680130084
 20
-685.152134657862
 10
1208.637987445245
 20
-685.9704944229698
 10
1244.863358087972
 20
-714.3666369307193
 10
1280.812399459362
 20
-743.1245582229403
 10
1317.392078886478
 20
-771.0566497499713
 10
1353.615506114549
 20
-798.7166024935186
 10
1387.563316244396
 20
-829.4508550270102
 10
1426.411324964778
 20
-853.5716674876903
 10
1497.383006233946
 20
-791.4011646081008
 10
1567.691861642159
 20
-729.8110746617313
 10
1639.746996581795
 20
-666.691335186325
 10
1494.303544248824
 20
-672.3741225659633
 10
1351.731365606001
 20
-677.944738480951
 10
1209.159065499764
 20
-683.5153543959395
 97
        0
 97
        0
 92
        1
 93
        1
 72
     4
 94
        3
 73
     0
 74
     1
 95
       32
 96
       28
 40
0.0
 40
0.0
 40
0.0
 40
0.0
 40
1.0
 40
1.0
 40
1.0
 40
2.0
 40
2.0
 40
2.0
 40
3.0
 40
3.0
 40
3.0
 40
4.0
 40
4.0
 40
4.0
 40
5.0
 40
5.0
 40
5.0
 40
6.0
 40
6.0
 40
6.0
 40
7.0
 40
7.0
 40
7.0
 40
8.0
 40
8.0
 40
8.0
 40
9.0
 40
9.0
 40
9.0
 40
9.0
 10
520.95193584976
 20
-1405.235849902714
 10
521.457800611427
 20
-1405.034949412697
 10
521.963665373094
 20
-1404.833927459264
 10
522.4695605006145
 20
-1404.633026969248
 10
522.1957819610152
 20
-1402.743784997228
 10
522.0013493978986
 20
-1400.839238634797
 10
521.6366251255904
 20
-1398.967730321508
 10
513.338730400088
 20
-1356.388365462486
 10
505.0048521376048
 20
-1313.816045481592
 10
496.712726924361
 20
-1271.235587451825
 10
479.9384469835868
 20
-1185.098712844961
 10
463.2599713121599
 20
-1098.942950676916
 10
446.2356285637543
 20
-1012.855511680355
 10
445.2192834306134
 20
-1007.716030160356
 10
442.5399826694083
 20
-1002.070167659174
 10
438.8793486047161
 20
-998.420070545817
 10
407.1868408167729
 20
-966.8175367832537
 10
375.1218654637523
 20
-935.5877742443072
 10
343.0528514521511
 20
-904.3650565834869
 10
340.7813033783623
 20
-902.1533899737715
 10
337.7176316373152
 20
-899.6405548241555
 10
334.8199396541941
 20
-899.3603994552177
 10
307.852814235348
 20
-896.7530050362675
 10
280.8413394867448
 20
-894.6043172077334
 10
251.7666567885972
 20
-892.147233766048
 10
342.1079875393098
 20
-1064.345007613083
 10
431.5299616945349
 20
-1234.790489489606
 10
520.95193584976
 20
-1405.235849902714
 97
        0
 97
        0
 92
        1
 93
        1
 72
     4
 94
        3
 73
     0
 74
     1
 95
       23
 96
       19
 40
0.0
 40
0.0
 40
0.0
 40
0.0
 40
1.0
 40
1.0
 40
1.0
 40
2.0
 40
2.0
 40
2.0
 40
3.0
 40
3.0
 40
3.0
 40
4.0
 40
4.0
 40
4.0
 40
5.0
 40
5.0
 40
5.0
 40
6.0
 40
6.0
 40
6.0
 40
6.0
 10
400.9928139193107
 20
-323.2807343323675
 10
400.1825922030739
 20
-325.927103324917
 10
399.6987426855521
 20
-326.8133307736989
 10
399.664945490058
 20
-327.7164112714454
 10
396.8418320443425
 20
-403.1360980164145
 10
394.0027157935729
 20
-478.5552533589389
 10
391.3020071053024
 20
-553.9793583356641
 10
390.6942345376356
 20
-570.9532026688794
 10
392.4637135815074
 20
-572.0689352421387
 10
409.4821046225297
 20
-569.4269844813443
 10
471.6151056724384
 20
-559.7814531556396
 10
533.776438064122
 20
-550.3182687831613
 10
595.9213728946497
 20
-540.7495023363508
 10
616.679956537826
 20
-537.5531621792088
 10
637.4215353027666
 20
-534.2460777525557
 10
660.3939111654372
 20
-530.6407399079853
 10
573.0324423987513
 20
-460.80574365133
 10
487.502216822958
 20
-392.4346244839626
 10
400.9928139193107
 20
-323.2807343323675
 97
        0
 97
        0
 92
        1
 93
        1
 72
     4
 94
        3
 73
     0
 74
     1
 95
       29
 96
       25
 40
0.0
 40
0.0
 40
0.0
 40
0.0
 40
1.0
 40
1.0
 40
1.0
 40
2.0
 40
2.0
 40
2.0
 40
3.0
 40
3.0
 40
3.0
 40
4.0
 40
4.0
 40
4.0
 40
5.0
 40
5.0
 40
5.0
 40
6.0
 40
6.0
 40
6.0
 40
7.0
 40
7.0
 40
7.0
 40
8.0
 40
8.0
 40
8.0
 40
8.0
 10
1800.647883231284
 20
-745.930848985543
 10
1799.945946150387
 20
-745.9335819124026
 10
1799.244130532903
 20
-745.9363148392622
 10
1798.542193452005
 20
-745.9390477661218
 10
1782.596111813031
 20
-866.3660771407458
 10
1766.650030174058
 20
-986.7930457836628
 10
1750.601676338836
 20
-1107.991428581414
 10
1783.343476211503
 20
-1107.991428581414
 10
1814.786346313771
 20
-1108.160930778402
 10
1846.220106659843
 20
-1107.700766626995
 10
1849.027854983437
 20
-1107.659651260688
 10
1852.841927708356
 20
-1104.101927075177
 10
1854.384148700945
 20
-1101.213830701918
 10
1867.782413726502
 20
-1076.123011401289
 10
1880.584779233302
 20
-1050.713715023985
 10
1894.009158893294
 20
-1025.637167674733
 10
1897.248831124083
 20
-1019.585131510541
 10
1897.730676495241
 20
-1014.448686575943
 10
1895.357038420329
 20
-1007.946810650703
 10
1875.853779181216
 20
-954.5256820137802
 10
1856.707136531397
 20
-900.9743445949371
 10
1837.409271928693
 20
-847.4780301035298
 10
1825.193817647865
 20
-813.6151836331546
 10
1812.904270683295
 20
-779.778998382586
 10
1800.647883231284
 20
-745.930848985543
 97
        0
 97
        0
 92
        1
 93
        1
 72
     4
 94
        3
 73
     0
 74
     1
 95
       26
 96
       22
 40
0.0
 40
0.0
 40
0.0
 40
0.0
 40
1.0
 40
1.0
 40
1.0
 40
2.0
 40
2.0
 40
2.0
 40
3.0
 40
3.0
 40
3.0
 40
4.0
 40
4.0
 40
4.0
 40
5.0
 40
5.0
 40
5.0
 40
6.0
 40
6.0
 40
6.0
 40
7.0
 40
7.0
 40
7.0
 40
7.0
 10
273.9333202643493
 20
-800.1086339722588
 10
294.4050832336361
 20
-827.419865248552
 10
314.8549372392672
 20
-854.2784631052282
 10
334.7560195315391
 20
-881.5377080394856
 10
339.9926110526058
 20
-888.7104871428446
 10
345.6456702611849
 20
-892.8886464571369
 10
354.7665099957476
 20
-893.9223001270539
 10
366.8873746413874
 20
-895.2958084348584
 10
378.7961641627417
 20
-898.4794252991769
 10
390.8283908805761
 20
-900.7109511774033
 10
407.9004687514589
 20
-903.8773202366538
 10
425.002001500714
 20
-906.8848758795211
 10
443.1247379197484
 20
-910.1463507934777
 10
423.3698975803063
 20
-803.9058840140651
 10
403.9108510246078
 20
-699.2559806667978
 10
384.4517741030559
 20
-594.6061076853839
 10
383.6349629965025
 20
-594.5944168315964
 10
382.8181215240947
 20
-594.5827563436633
 10
382.001280051687
 20
-594.5710654898758
 10
346.0099997773914
 20
-663.0239295361926
 10
310.0186891372414
 20
-731.4768239483628
 10
273.9333202643493
 20
-800.1086339722588
 97
        0
 97
        0
 92
        1
 93
        1
 72
     4
 94
        3
 73
     0
 74
     1
 95
       17
 96
       13
 40
0.0
 40
0.0
 40
0.0
 40
0.0
 40
1.0
 40
1.0
 40
1.0
 40
2.0
 40
2.0
 40
2.0
 40
3.0
 40
3.0
 40
3.0
 40
4.0
 40
4.0
 40
4.0
 40
4.0
 10
1737.275560582366
 20
-1111.209176665619
 10
1639.961379510984
 20
-1034.966954850619
 10
1543.907867233967
 20
-959.7124128025916
 10
1447.854354956953
 20
-884.4578100228546
 10
1447.401417878795
 20
-884.9334000280905
 10
1446.948480800638
 20
-885.4089900333265
 10
1446.49554372248
 20
-885.8845193068546
 10
1506.36255364988
 20
-976.4592420113568
 10
1566.229442113865
 20
-1067.033964715858
 10
1626.427804240035
 20
-1158.109906206364
 10
1663.124574400146
 20
-1142.583116279326
 10
1699.335005042707
 20
-1127.262206842357
 10
1737.275560582366
 20
-1111.209176665619
 97
        0
 97
        0
 92
        1
 93
        1
 72
     4
 94
        3
 73
     0
 74
     1
 95
       23
 96
       19
 40
0.0
 40
0.0
 40
0.0
 40
0.0
 40
1.0
 40
1.0
 40
1.0
 40
2.0
 40
2.0
 40
2.0
 40
3.0
 40
3.0
 40
3.0
 40
4.0
 40
4.0
 40
4.0
 40
5.0
 40
5.0
 40
5.0
 40
6.0
 40
6.0
 40
6.0
 40
6.0
 10
1432.642762594358
 20
-880.6366316881022
 10
1432.047591856099
 20
-884.0419192865684
 10
1431.776849901898
 20
-884.7051702694798
 10
1431.844140634346
 20
-885.3322251544323
 10
1440.12782414018
 20
-962.6657957619354
 10
1448.50479154948
 20
-1039.989588564453
 10
1456.623406273007
 20
-1117.340406977024
 10
1457.326800914898
 20
-1124.04172583129
 10
1461.432021447899
 20
-1124.857170474415
 10
1466.48878638162
 20
-1125.912748290913
 10
1506.6501790189
 20
-1134.297003505171
 10
1546.779748241195
 20
-1142.833573843058
 10
1586.932395512526
 20
-1151.26021978949
 10
1595.438114142755
 20
-1153.045367614022
 10
1603.998005456508
 20
-1154.571069582038
 10
1615.116523627697
 20
-1156.714291556853
 10
1553.637329780109
 20
-1063.698032727911
 10
1493.725621315632
 20
-973.0531649006862
 10
1432.642762594358
 20
-880.6366316881022
 97
        0
 97
        0
 92
        1
 93
        1
 72
     4
 94
        3
 73
     0
 74
     1
 95
       35
 96
       31
 40
0.0
 40
0.0
 40
0.0
 40
0.0
 40
1.0
 40
1.0
 40
1.0
 40
2.0
 40
2.0
 40
2.0
 40
3.0
 40
3.0
 40
3.0
 40
4.0
 40
4.0
 40
4.0
 40
5.0
 40
5.0
 40
5.0
 40
6.0
 40
6.0
 40
6.0
 40
7.0
 40
7.0
 40
7.0
 40
8.0
 40
8.0
 40
8.0
 40
9.0
 40
9.0
 40
9.0
 40
10.0
 40
10.0
 40
10.0
 40
10.0
 10
1919.697456737085
 20
-822.503694218818
 10
1918.879279167102
 20
-818.7972380804504
 10
1918.553271358634
 20
-816.938908547796
 10
1918.057093304393
 20
-815.127220966875
 10
1902.243771179075
 20
-757.4020361850062
 10
1886.524826127968
 20
-699.6507367687045
 10
1870.502222536932
 20
-641.9837329630864
 10
1866.893180058174
 20
-628.9944352591046
 10
1864.196813687025
 20
-615.1739026679224
 10
1857.654429712558
 20
-603.6871985170692
 10
1839.156887557689
 20
-571.2104014521983
 10
1818.893510261429
 20
-539.7389267154686
 10
1799.279597850367
 20
-507.8997822185938
 10
1798.040185153795
 20
-505.8877710988809
 10
1796.406259282146
 20
-504.1187475428196
 10
1795.264260245185
 20
-502.6368027704066
 10
1795.264260245185
 20
-520.0008179615761
 10
1794.793103654631
 20
-537.1555820528811
 10
1795.352078294931
 20
-554.2766704121077
 10
1797.090827094562
 20
-607.5330035594097
 10
1799.089021750708
 20
-660.7824436578558
 10
1801.448448605952
 20
-714.0140286341548
 10
1801.635866656796
 20
-718.2443564856067
 10
1804.412398882487
 20
-723.3807406884971
 10
1807.624013064185
 20
-726.2834734033813
 10
1823.342229334798
 20
-740.4893486817327
 10
1839.594155855186
 20
-754.1061263926222
 10
1855.698625788587
 20
-767.8829321540543
 10
1876.54442016443
 20
-785.7155835698959
 10
1897.429325760217
 20
-803.5024432779155
 10
1919.697456737085
 20
-822.503694218818
 97
        0
 97
        0
 92
        1
 93
        1
 72
     4
 94
        3
 73
     0
 74
     1
 95
       29
 96
       25
 40
0.0
 40
0.0
 40
0.0
 40
0.0
 40
1.0
 40
1.0
 40
1.0
 40
2.0
 40
2.0
 40
2.0
 40
3.0
 40
3.0
 40
3.0
 40
4.0
 40
4.0
 40
4.0
 40
5.0
 40
5.0
 40
5.0
 40
6.0
 40
6.0
 40
6.0
 40
7.0
 40
7.0
 40
7.0
 40
8.0
 40
8.0
 40
8.0
 40
8.0
 10
1905.615959996689
 20
-1011.700941179837
 10
1916.530784019295
 20
-1007.88085601583
 10
1926.223200223565
 20
-1003.456186698824
 10
1936.396733018497
 20
-1001.212453747292
 10
1947.004011671865
 20
-998.8730683556823
 10
1948.732921934801
 20
-993.5474441507085
 10
1947.437636066883
 20
-983.7085430667776
 10
1942.857372114016
 20
-948.9207526837799
 10
1939.59255695612
 20
-913.9570225427487
 10
1934.82973348905
 20
-879.1969865503006
 10
1931.617997843936
 20
-855.7572801946799
 10
1925.995334855203
 20
-833.0943323841966
 10
1903.152196067125
 20
-819.5723568694721
 10
1897.256361855874
 20
-816.0823485383662
 10
1892.494753022962
 20
-810.67807677155
 10
1887.207207598896
 20
-806.1589089169183
 10
1861.307077557651
 20
-784.0227479415025
 10
1835.405247028581
 20
-761.8885303807419
 10
1809.504023816591
 20
-739.7536447711936
 10
1808.998128689071
 20
-740.0610686770178
 10
1808.49223356155
 20
-740.368553314549
 10
1807.986338434028
 20
-740.6759772203723
 10
1840.415855864234
 20
-830.7018674798073
 10
1872.845251831022
 20
-920.7278184709503
 10
1905.615959996689
 20
-1011.700941179837
 97
        0
 97
        0
 92
        1
 93
        1
 72
     4
 94
        3
 73
     0
 74
     1
 95
       23
 96
       19
 40
0.0
 40
0.0
 40
0.0
 40
0.0
 40
1.0
 40
1.0
 40
1.0
 40
2.0
 40
2.0
 40
2.0
 40
3.0
 40
3.0
 40
3.0
 40
4.0
 40
4.0
 40
4.0
 40
5.0
 40
5.0
 40
5.0
 40
6.0
 40
6.0
 40
6.0
 40
6.0
 10
1658.717031424791
 20
-659.9609865756411
 10
1662.799781225838
 20
-661.7822697664251
 10
1665.754257355926
 20
-663.1605758791602
 10
1668.7550110475
 20
-664.4297471126456
 10
1705.003216812429
 20
-679.7605558180157
 10
1741.252029894438
 20
-695.0905142794745
 10
1777.515054196116
 20
-710.3862200576286
 10
1791.744857767413
 20
-716.3883954895637
 10
1792.794666071653
 20
-715.7541742630683
 10
1792.231926065459
 20
-700.5297675100892
 10
1790.349243117902
 20
-649.5909259736673
 10
1788.341209925062
 20
-598.6567304129057
 10
1786.395730391449
 20
-547.7201966813873
 10
1785.74954501848
 20
-530.8062945439542
 10
1785.146843548431
 20
-513.890722284551
 10
1784.418548906266
 20
-494.1004753593525
 10
1741.481838677455
 20
-550.7545653733305
 10
1700.513321641047
 20
-604.8116764562792
 10
1658.717031424791
 20
-659.9609865756411
 97
        0
 97
        0
 92
        1
 93
        1
 72
     4
 94
        3
 73
     0
 74
     1
 95
       17
 96
       13
 40
0.0
 40
0.0
 40
0.0
 40
0.0
 40
1.0
 40
1.0
 40
1.0
 40
2.0
 40
2.0
 40
2.0
 40
3.0
 40
3.0
 40
3.0
 40
4.0
 40
4.0
 40
4.0
 40
4.0
 10
362.8620770360949
 20
-592.2431583910766
 10
362.5680444718828
 20
-591.5318686271476
 10
362.2740119076698
 20
-590.8205788632195
 10
361.9799793434568
 20
-590.109258733437
 10
268.5106316070869
 20
-622.0925803050695
 10
175.0412990536443
 20
-654.0758411449951
 10
80.79541292457816
 20
-686.3248639390658
 10
109.8640528177812
 20
-709.9173712719785
 10
138.0722990124868
 20
-732.8115854264724
 10
166.7223531998607
 20
-756.0643595849133
 10
232.2813285862685
 20
-701.3077406893863
 10
297.5716952197181
 20
-646.7754647231577
 10
362.8620770360949
 20
-592.2431583910766
 97
        0
 97
        0
 92
        1
 93
        1
 72
     4
 94
        3
 73
     0
 74
     1
 95
       26
 96
       22
 40
0.0
 40
0.0
 40
0.0
 40
0.0
 40
1.0
 40
1.0
 40
1.0
 40
2.0
 40
2.0
 40
2.0
 40
3.0
 40
3.0
 40
3.0
 40
4.0
 40
4.0
 40
4.0
 40
5.0
 40
5.0
 40
5.0
 40
6.0
 40
6.0
 40
6.0
 40
7.0
 40
7.0
 40
7.0
 40
7.0
 10
463.3125953371291
 20
-1318.441007971534
 10
463.8142392450909
 20
-1318.019408454697
 10
464.3158831530536
 20
-1317.597687474445
 10
464.8175270610154
 20
-1317.176087957609
 10
463.993671076335
 20
-1315.449364036158
 10
463.22605265325
 20
-1313.693245968045
 10
462.3379728873751
 20
-1312.000288876234
 10
402.6960650356241
 20
-1198.298506648822
 10
342.3440820541045
 20
-1084.961782718112
 10
283.6580153714131
 20
-970.7688631682195
 10
248.7924732192678
 20
-902.9266260798458
 10
209.1062606481946
 20
-838.065769268198
 10
168.4608514811962
 20
-773.6931346570464
 10
166.8362023779437
 20
-771.1201143848166
 10
162.8794177307227
 20
-767.7953570311392
 10
160.6437848707437
 20
-768.2135555723289
 10
150.421158081368
 20
-770.1253897397182
 10
140.4250377883891
 20
-773.2483963594677
 10
129.3263257454655
 20
-776.208642001814
 10
241.1275850861002
 20
-957.7199269269968
 10
352.2200902116147
 20
-1138.080467449265
 10
463.3125953371291
 20
-1318.441007971534
 97
        0
 97
        0
 92
        1
 93
        1
 72
     4
 94
        3
 73
     0
 74
     1
 95
       17
 96
       13
 40
0.0
 40
0.0
 40
0.0
 40
0.0
 40
1.0
 40
1.0
 40
1.0
 40
2.0
 40
2.0
 40
2.0
 40
3.0
 40
3.0
 40
3.0
 40
4.0
 40
4.0
 40
4.0
 40
4.0
 10
266.8229126250917
 20
-795.0866683072136
 10
301.3585905053123
 20
-729.3687049007631
 10
335.1928930729337
 20
-664.9853815090064
 10
369.0271956405559
 20
-600.6020581172497
 10
368.5180210008039
 20
-600.2813946990855
 10
368.0088159951974
 20
-599.9607009150668
 10
367.4996413554454
 20
-599.6400374969026
 10
303.6488743110149
 20
-652.9982784502054
 10
239.7981072665852
 20
-706.3564890376538
 10
174.946603137967
 20
-760.5509752440648
 10
206.601517998668
 20
-772.4498351311631
 10
236.2834418620369
 20
-783.6071001320479
 10
266.8229126250917
 20
-795.0866683072136
 97
        0
 97
        0
 92
        1
 93
        1
 72
     4
 94
        3
 73
     0
 74
     1
 95
       32
 96
       28
 40
0.0
 40
0.0
 40
0.0
 40
0.0
 40
1.0
 40
1.0
 40
1.0
 40
2.0
 40
2.0
 40
2.0
 40
3.0
 40
3.0
 40
3.0
 40
4.0
 40
4.0
 40
4.0
 40
5.0
 40
5.0
 40
5.0
 40
6.0
 40
6.0
 40
6.0
 40
7.0
 40
7.0
 40
7.0
 40
8.0
 40
8.0
 40
8.0
 40
9.0
 40
9.0
 40
9.0
 40
9.0
 10
978.4050541787838
 20
-1122.578273863959
 10
978.1649817371162
 20
-1123.241585578578
 10
977.9249092954487
 20
-1123.904897293198
 10
977.6848975854882
 20
-1124.568269739526
 10
980.8271561566689
 20
-1126.062877073055
 10
983.9140881418734
 20
-1127.689879529991
 10
987.1201150064389
 20
-1129.032171739891
 10
1027.110122763783
 20
-1145.775903631549
 10
1067.309472718554
 20
-1162.041798444776
 10
1106.988169740764
 20
-1179.491840100307
 10
1117.164860584511
 20
-1183.967402588605
 10
1127.499453869023
 20
-1184.547268936452
 10
1137.211668610096
 20
-1183.344538191503
 10
1169.072008473058
 20
-1179.398434733424
 10
1200.709220040881
 20
-1173.646048816436
 10
1232.426718926661
 20
-1168.553695101835
 10
1245.762308829577
 20
-1166.41253800509
 10
1259.084173366487
 20
-1164.185384809838
 10
1272.412232537614
 20
-1161.997342834529
 10
1237.014149221068
 20
-1148.674020736627
 10
1201.631005904688
 20
-1137.710611347631
 10
1166.607637226414
 20
-1125.698365361724
 10
1148.854422884619
 20
-1119.60934358737
 10
1131.07715878646
 20
-1116.693978677225
 10
1112.349079068077
 20
-1117.518472344838
 10
1067.713338576659
 20
-1119.483446756716
 10
1023.054520036207
 20
-1120.925156772588
 10
978.4050541787838
 20
-1122.578273863959
 97
        0
 97
        0
 92
        1
 93
        1
 72
     4
 94
        3
 73
     0
 74
     1
 95
       35
 96
       31
 40
0.0
 40
0.0
 40
0.0
 40
0.0
 40
1.0
 40
1.0
 40
1.0
 40
2.0
 40
2.0
 40
2.0
 40
3.0
 40
3.0
 40
3.0
 40
4.0
 40
4.0
 40
4.0
 40
5.0
 40
5.0
 40
5.0
 40
6.0
 40
6.0
 40
6.0
 40
7.0
 40
7.0
 40
7.0
 40
8.0
 40
8.0
 40
8.0
 40
9.0
 40
9.0
 40
9.0
 40
10.0
 40
10.0
 40
10.0
 40
10.0
 10
584.9118681392938
 20
-1011.113969222157
 10
585.1310488734143
 20
-1010.469666532135
 10
585.3502296075349
 20
-1009.825363842116
 10
585.5694103416554
 20
-1009.181000420387
 10
582.698865432003
 20
-1007.208556008429
 10
579.8794566204751
 20
-1005.156492327298
 10
576.9500626857844
 20
-1003.275631330982
 10
543.2301482901548
 20
-981.6252025560352
 10
509.0538047431573
 20
-960.6473167153235
 10
475.9309437687343
 20
-938.119982808771
 10
456.9146313642523
 20
-925.1867404712602
 10
437.2454227330691
 20
-915.6068601218876
 10
414.2246133332792
 20
-913.4683144885876
 10
410.9412750044485
 20
-913.1631983876669
 10
407.7084958225159
 20
-912.3164161832228
 10
404.4514239573891
 20
-911.7253752011056
 10
388.5296350016097
 20
-908.8363071205185
 10
372.6075120214364
 20
-905.9491217228779
 10
361.6818777548087
 20
-903.9674460913047
 10
387.9880599956468
 20
-931.7881556658904
 10
416.539948968526
 20
-962.2000442933931
 10
445.4890233116321
 20
-992.2290802337538
 10
448.0753134620572
 20
-994.9117819706062
 10
453.1476257130225
 20
-995.8304705173068
 10
457.2199903920036
 20
-996.3454754010254
 10
483.8325033679221
 20
-999.7112873893002
 10
510.4823967101047
 20
-1002.785040593873
 10
537.1308021254426
 20
-1005.86164818872
 10
553.0477629104371
 20
-1007.699389672369
 10
568.9841882078399
 20
-1009.368843593187
 10
584.9118681392938
 20
-1011.113969222157
 97
        0
 97
        0
 92
        1
 93
        1
 72
     4
 94
        3
 73
     0
 74
     1
 95
       14
 96
       10
 40
0.0
 40
0.0
 40
0.0
 40
0.0
 40
1.0
 40
1.0
 40
1.0
 40
2.0
 40
2.0
 40
2.0
 40
3.0
 40
3.0
 40
3.0
 40
3.0
 10
768.5439650390445
 20
-1105.291114649246
 10
774.9941582807896
 20
-1077.511763367798
 10
781.1317046898248
 20
-1051.07865185727
 10
787.6018786634977
 20
-1023.213122282192
 10
732.3434336648843
 20
-1023.213122282192
 10
678.7975013680516
 20
-1023.213122282192
 10
622.7308995312733
 20
-1023.213122282192
 10
672.507882762221
 20
-1051.232485273598
 10
720.0091274315282
 20
-1077.970895080171
 10
768.5439650390445
 20
-1105.291114649246
 97
        0
 97
        0
 92
        1
 93
        1
 72
     4
 94
        3
 73
     0
 74
     1
 95
       17
 96
       13
 40
0.0
 40
0.0
 40
0.0
 40
0.0
 40
1.0
 40
1.0
 40
1.0
 40
2.0
 40
2.0
 40
2.0
 40
3.0
 40
3.0
 40
3.0
 40
4.0
 40
4.0
 40
4.0
 40
4.0
 10
776.7802778126497
 20
-1107.837838091918
 10
829.6579791265149
 20
-1110.02727689651
 10
881.0586245704599
 20
-1112.155619602869
 10
932.4592092826979
 20
-1114.283901577521
 10
932.6681263581686
 20
-1113.558279130508
 10
932.8771041653472
 20
-1112.832656683493
 10
933.0860212408179
 20
-1112.106973504773
 10
887.5431919589255
 20
-1083.615725142317
 10
842.0003019453252
 20
-1055.124476779862
 10
795.78577997311
 20
-1026.213025729854
 10
789.3579967316118
 20
-1053.819109448417
 10
783.2148022737347
 20
-1080.203089007186
 10
776.7802778126497
 20
-1107.837838091918
 97
        0
 97
        0
 92
        1
 93
        1
 72
     4
 94
        3
 73
     0
 74
     1
 95
       23
 96
       19
 40
0.0
 40
0.0
 40
0.0
 40
0.0
 40
1.0
 40
1.0
 40
1.0
 40
2.0
 40
2.0
 40
2.0
 40
3.0
 40
3.0
 40
3.0
 40
4.0
 40
4.0
 40
4.0
 40
5.0
 40
5.0
 40
5.0
 40
6.0
 40
6.0
 40
6.0
 40
6.0
 10
326.6019678564007
 20
-286.9396090542195
 10
348.2516678508509
 20
-293.8750486427707
 10
367.5722157464879
 20
-299.707266389908
 10
386.6049560779811
 20
-306.3624746948853
 10
392.9423705379968
 20
-308.5784684387945
 10
395.8807223996146
 20
-306.9550947014104
 10
399.4443071949454
 20
-301.7841693396031
 10
423.873393805362
 20
-266.3363467542167
 10
448.6337718828399
 20
-231.1167691103692
 10
473.2916652030917
 20
-195.8266667706221
 10
481.1496498017996
 20
-184.5804601833925
 10
489.0204791567467
 20
-173.3432342974802
 10
496.8854479018728
 20
-162.1018938383531
 10
496.3601186277965
 20
-161.5956457077791
 10
495.8347893537202
 20
-161.089397577206
 10
495.3094904454974
 20
-160.583149446632
 10
439.6326343447172
 20
-202.2832975734136
 10
383.9558086097904
 20
-243.9834494959268
 10
326.6019678564007
 20
-286.9396090542195
 97
        0
 97
        0
 92
        1
 93
        1
 72
     4
 94
        3
 73
     0
 74
     1
 95
       23
 96
       19
 40
0.0
 40
0.0
 40
0.0
 40
0.0
 40
1.0
 40
1.0
 40
1.0
 40
2.0
 40
2.0
 40
2.0
 40
3.0
 40
3.0
 40
3.0
 40
4.0
 40
4.0
 40
4.0
 40
5.0
 40
5.0
 40
5.0
 40
6.0
 40
6.0
 40
6.0
 40
6.0
 10
71.41647102254046
 20
-668.7040447206791
 10
72.15852139656363
 20
-668.9297237475539
 10
72.9005717705868
 20
-669.1554635061366
 10
73.64262214460996
 20
-669.3812032647193
 10
107.4658905200367
 20
-595.2160665945385
 10
141.2891588954635
 20
-521.0508995585024
 10
175.9345865634787
 20
-445.0830028684741
 10
173.2523251315088
 20
-446.3161298332698
 10
172.8341417732463
 20
-446.3707276387486
 10
172.6668259177459
 20
-446.6047572754715
 10
134.7345678476904
 20
-499.6556654205124
 10
96.76812541750314
 20
-552.6824630774827
 10
59.06474143152263
 20
-605.8956767121153
 10
57.26963265794893
 20
-608.4291302765932
 10
56.68441907299984
 20
-612.8916658135286
 10
57.44482845256061
 20
-615.9868269451654
 10
61.78131153383947
 20
-633.6380423833998
 10
66.69737058948704
 20
-651.1468116005526
 10
71.41647102254046
 20
-668.7040447206791
 97
        0
 97
        0
 92
        1
 93
        1
 72
     4
 94
        3
 73
     0
 74
     1
 95
       17
 96
       13
 40
0.0
 40
0.0
 40
0.0
 40
0.0
 40
1.0
 40
1.0
 40
1.0
 40
2.0
 40
2.0
 40
2.0
 40
3.0
 40
3.0
 40
3.0
 40
4.0
 40
4.0
 40
4.0
 40
4.0
 10
1595.943523416612
 20
-1163.604060901
 10
1595.970852685205
 20
-1163.01945747993
 10
1595.998060490383
 20
-1162.434732595442
 10
1596.025389758976
 20
-1161.850129174372
 10
1549.647013638616
 20
-1152.087750042503
 10
1503.268637518257
 20
-1142.325370910634
 10
1456.245412122506
 20
-1132.427317143125
 10
1447.717587150568
 20
-1153.598633473772
 10
1439.454309498618
 20
-1174.113075650845
 10
1430.34613232517
 20
-1196.724948094912
 10
1487.292675878954
 20
-1185.335202115859
 10
1541.61816037949
 20
-1174.469570776721
 10
1595.943523416612
 20
-1163.604060901
 97
        0
 97
        0
 92
        1
 93
        1
 72
     4
 94
        3
 73
     0
 74
     1
 95
       14
 96
       10
 40
0.0
 40
0.0
 40
0.0
 40
0.0
 40
1.0
 40
1.0
 40
1.0
 40
2.0
 40
2.0
 40
2.0
 40
3.0
 40
3.0
 40
3.0
 40
3.0
 10
343.0492379155266
 20
-1139.630826490724
 10
342.3315713222592
 20
-1140.160649911191
 10
341.6138743631382
 20
-1140.690473331659
 10
340.8962077698716
 20
-1141.220296752126
 10
441.4479354622636
 20
-1314.542518172517
 10
541.9996631546564
 20
-1487.864739592906
 10
642.5514212129028
 20
-1661.187082476712
 10
559.0348161470829
 20
-1477.902188751515
 10
447.2939696729673
 20
-1310.932868376678
 10
343.0492379155266
 20
-1139.630826490724
 97
        0
 97
        0
 92
        1
 93
        1
 72
     4
 94
        3
 73
     0
 74
     1
 95
       17
 96
       13
 40
0.0
 40
0.0
 40
0.0
 40
0.0
 40
1.0
 40
1.0
 40
1.0
 40
2.0
 40
2.0
 40
2.0
 40
3.0
 40
3.0
 40
3.0
 40
4.0
 40
4.0
 40
4.0
 40
4.0
 10
1446.557732991458
 20
-1133.453075691003
 10
1401.686596399886
 20
-1143.451458240104
 10
1358.782802756805
 20
-1153.011357857549
 10
1315.878887650306
 20
-1162.571257474994
 10
1315.907553016476
 20
-1163.373037483821
 10
1315.936218382645
 20
-1164.174696029233
 10
1315.964883748815
 20
-1164.976354574645
 10
1350.766946083188
 20
-1175.67230152167
 10
1385.568886954146
 20
-1186.368369932112
 10
1420.674243438199
 20
-1197.157600782602
 10
1429.433456217561
 20
-1175.599423472087
 10
1437.629686063896
 20
-1155.426779347557
 10
1446.557732991458
 20
-1133.453075691003
 97
        0
 97
        0
 92
        1
 93
        1
 72
     4
 94
        3
 73
     0
 74
     1
 95
       17
 96
       13
 40
0.0
 40
0.0
 40
0.0
 40
0.0
 40
1.0
 40
1.0
 40
1.0
 40
2.0
 40
2.0
 40
2.0
 40
3.0
 40
3.0
 40
3.0
 40
4.0
 40
4.0
 40
4.0
 40
4.0
 10
179.7051753854785
 20
-771.5433536577684
 10
179.3148982470357
 20
-772.0972268345986
 10
178.9246211085929
 20
-772.6511000114278
 10
178.534328787222
 20
-773.2049124565492
 10
199.5767724335237
 20
-807.0239106337585
 10
220.6192008968983
 20
-840.84284807926
 10
242.7950196776292
 20
-876.483372374084
 10
250.1223609778117
 20
-850.6291555040752
 10
256.7512420873772
 20
-827.2394920758343
 10
263.579429479626
 20
-803.1464947374116
 10
235.0921134952623
 20
-792.4127119363111
 10
207.398652031834
 20
-781.9780327970402
 10
179.7051753854785
 20
-771.5433536577684
 97
        0
 97
        0
 92
        1
 93
        1
 72
     4
 94
        3
 73
     0
 74
     1
 95
       14
 96
       10
 40
0.0
 40
0.0
 40
0.0
 40
0.0
 40
1.0
 40
1.0
 40
1.0
 40
2.0
 40
2.0
 40
2.0
 40
3.0
 40
3.0
 40
3.0
 40
3.0
 10
249.7864235350889
 20
-883.3293541567718
 10
276.5555939517553
 20
-885.5960436939222
 10
302.2871175887058
 20
-887.774915181325
 10
330.6210100957705
 20
-890.1741213053001
 10
309.7430886464026
 20
-862.3415083159498
 10
290.6319284969732
 20
-836.8641924257008
 10
270.5857126055425
 20
-810.140358229045
 10
263.4562959416853
 20
-835.2275336271941
 10
256.8671637349953
 20
-858.4135029068502
 10
249.7864235350889
 20
-883.3293541567718
 97
        0
 97
        0
 92
        1
 93
        1
 72
     4
 94
        3
 73
     0
 74
     1
 95
       23
 96
       19
 40
0.0
 40
0.0
 40
0.0
 40
0.0
 40
1.0
 40
1.0
 40
1.0
 40
2.0
 40
2.0
 40
2.0
 40
3.0
 40
3.0
 40
3.0
 40
4.0
 40
4.0
 40
4.0
 40
5.0
 40
5.0
 40
5.0
 40
6.0
 40
6.0
 40
6.0
 40
6.0
 10
1501.987927260254
 20
-1357.40343522976
 10
1502.465885802101
 20
-1358.031401090333
 10
1502.943722880533
 20
-1358.659366950904
 10
1503.42168142238
 20
-1359.287332811477
 10
1599.665405408807
 20
-1289.959415950649
 10
1695.909250858651
 20
-1220.631499089819
 10
1792.152974845078
 20
-1151.303582228991
 10
1791.582947033923
 20
-1150.353373925847
 10
1791.012919222769
 20
-1149.403044159288
 10
1790.442891411616
 20
-1148.452835856142
 10
1766.152758949071
 20
-1161.528858439127
 10
1739.842082561841
 20
-1171.894303431296
 10
1717.962270125834
 20
-1188.203803610855
 10
1659.044375330834
 20
-1232.12205970413
 10
1602.012442995623
 20
-1278.570641678922
 10
1544.242498944968
 20
-1324.028203642802
 10
1530.137073911626
 20
-1335.127287667437
 10
1516.071731805554
 20
-1346.277021936532
 10
1501.987927260254
 20
-1357.40343522976
 97
        0
 97
        0
 92
        1
 93
        1
 72
     4
 94
        3
 73
     0
 74
     1
 95
       26
 96
       22
 40
0.0
 40
0.0
 40
0.0
 40
0.0
 40
1.0
 40
1.0
 40
1.0
 40
2.0
 40
2.0
 40
2.0
 40
3.0
 40
3.0
 40
3.0
 40
4.0
 40
4.0
 40
4.0
 40
5.0
 40
5.0
 40
5.0
 40
6.0
 40
6.0
 40
6.0
 40
7.0
 40
7.0
 40
7.0
 40
7.0
 10
1654.842834308967
 20
-1161.193255020798
 10
1654.806516747592
 20
-1161.875757955142
 10
1654.770199186216
 20
-1162.558260889486
 10
1654.733881624841
 20
-1163.240885287245
 10
1664.485207585858
 20
-1164.969431159934
 10
1674.562662818757
 20
-1165.666631167609
 10
1683.924091214503
 20
-1168.62766632216
 10
1708.052070016727
 20
-1176.259577137891
 10
1730.385305384556
 20
-1174.191541017562
 10
1751.325719761442
 20
-1159.469446221332
 10
1754.801638336296
 20
-1157.025845218821
 10
1758.965404235794
 20
-1155.567312519835
 10
1762.789679887655
 20
-1153.611144205615
 10
1779.750466903653
 20
-1144.935619719859
 10
1796.703480261029
 20
-1136.244547916858
 10
1813.659287276972
 20
-1127.55906343099
 10
1813.427778006131
 20
-1126.978832692896
 10
1813.196147271874
 20
-1126.398480491383
 10
1812.964638001033
 20
-1125.818249753289
 10
1760.257410591483
 20
-1137.609918175791
 10
1707.550183181933
 20
-1149.401586598295
 10
1654.842834308967
 20
-1161.193255020798
 97
        0
 97
        0
 92
        1
 93
        1
 72
     4
 94
        3
 73
     0
 74
     1
 95
       20
 96
       16
 40
0.0
 40
0.0
 40
0.0
 40
0.0
 40
1.0
 40
1.0
 40
1.0
 40
2.0
 40
2.0
 40
2.0
 40
3.0
 40
3.0
 40
3.0
 40
4.0
 40
4.0
 40
4.0
 40
5.0
 40
5.0
 40
5.0
 40
5.0
 10
156.817413974959
 20
-759.7670503573854
 10
134.2597142144141
 20
-741.5356952786187
 10
113.2140062388089
 20
-724.5263228962312
 10
92.16830205893439
 20
-707.5170112455526
 10
91.53902667090915
 20
-708.0582522271206
 10
90.90975507861549
 20
-708.5995539403975
 10
90.28047969058935
 20
-709.1408556536735
 10
101.112336608624
 20
-727.8165239080645
 10
111.8700439069389
 20
-746.5364655775766
 10
122.9238524432703
 20
-765.0797994402665
 10
123.7631494647057
 20
-766.4878033582072
 10
126.9251154751273
 20
-767.6088499559155
 10
128.6309932378108
 20
-767.2184058052753
 10
137.5050952257543
 20
-765.1874160268171
 10
146.2571416635728
 20
-762.6232018522451
 10
156.817413974959
 20
-759.7670503573854
 97
        0
 97
        0
 92
        1
 93
        1
 72
     4
 94
        3
 73
     0
 74
     1
 95
       20
 96
       16
 40
0.0
 40
0.0
 40
0.0
 40
0.0
 40
1.0
 40
1.0
 40
1.0
 40
2.0
 40
2.0
 40
2.0
 40
3.0
 40
3.0
 40
3.0
 40
4.0
 40
4.0
 40
4.0
 40
5.0
 40
5.0
 40
5.0
 40
5.0
 10
1681.894923387286
 20
-1144.004724099854
 10
1682.136149731405
 20
-1144.741642644552
 10
1682.377254612109
 20
-1145.478561189251
 10
1682.618480956227
 20
-1146.21547973395
 10
1724.202088731116
 20
-1136.879680118971
 10
1765.785817969421
 20
-1127.543880503994
 10
1807.369547207727
 20
-1118.208020157308
 10
1794.429077796965
 20
-1116.291934770359
 10
1781.862958634229
 20
-1116.234057452648
 10
1769.297568251986
 20
-1116.313676721818
 10
1761.704890119614
 20
-1116.361836966251
 10
1753.386103686566
 20
-1114.658616215793
 10
1746.655208490509
 20
-1117.150195267614
 10
1724.75584044453
 20
-1125.256967308085
 10
1703.437067526893
 20
-1134.932743024367
 10
1681.894923387286
 20
-1144.004724099854
 97
        0
 97
        0
 92
        1
 93
        1
 72
     4
 94
        3
 73
     0
 74
     1
 95
       23
 96
       19
 40
0.0
 40
0.0
 40
0.0
 40
0.0
 40
1.0
 40
1.0
 40
1.0
 40
2.0
 40
2.0
 40
2.0
 40
3.0
 40
3.0
 40
3.0
 40
4.0
 40
4.0
 40
4.0
 40
5.0
 40
5.0
 40
5.0
 40
6.0
 40
6.0
 40
6.0
 40
6.0
 10
1936.850277413734
 20
-1011.717338740995
 10
1936.553906678764
 20
-1011.264583857961
 10
1936.257414480378
 20
-1010.811768243218
 10
1935.961043745408
 20
-1010.358952628478
 10
1930.748927102659
 20
-1012.194689965761
 10
1925.473042166526
 20
-1013.869791935424
 10
1920.343034792973
 20
-1015.911531226195
 10
1915.233919126969
 20
-1017.944950272971
 10
1907.955709778547
 20
-1018.963299552475
 10
1905.648026338506
 20
-1022.827354473065
 10
1895.944435499967
 20
-1039.074786847064
 10
1887.74529053165
 20
-1056.220744840712
 10
1878.995551898734
 20
-1073.037840635616
 10
1879.737693370318
 20
-1073.544889665589
 10
1880.479713378489
 20
-1074.051938695562
 10
1881.221854850073
 20
-1074.559048457242
 10
1899.764702859098
 20
-1053.611832129061
 10
1918.307550868125
 20
-1032.664555069174
 10
1936.850277413734
 20
-1011.717338740995
 97
        0
 97
        0
 75
     2
 76
     1
 98
        0
  0
ENDBLK
  5
48
330
45
100
AcDbEntity
  8
0
100
AcDbBlockEnd
  0
ENDSEC
  0
SECTION
  2
ENTITIES
  0
INSERT
  5
42
330
1F
100
AcDbEntity
  8
Layer 1
100
AcDbBlockReference
  2
block 2
 10
0.0
 20
0.0
 30
0.0
  0
ENDSEC
  0
SECTION
  2
OBJECTS
  0
DICTIONARY
  5
C
330
0
100
AcDbDictionary
281
     1
  3
ACAD_GROUP
350
D
  3
ACAD_LAYOUT
350
1A
  3
ACAD_MATERIAL
350
3B
  3
ACAD_MLEADERSTYLE
350
79
  3
ACAD_MLINESTYLE
350
17
  3
ACAD_PLOTSETTINGS
350
19
  3
ACAD_PLOTSTYLENAME
350
E
  3
ACAD_TABLESTYLE
350
78
  3
ACAD_VISUALSTYLE
350
2A
  0
SUN
  5
3F
330
29
100
AcDbSun
 90
        1
290
     0
 63
     7
421
 16777215
 40
1.0
291
     1
 91
  2455826
 92
 54000000
292
     0
 70
     2
 71
   256
280
     1
  0
DICTIONARY
  5
D
102
{ACAD_REACTORS
330
C
102
}
330
C
100
AcDbDictionary
281
     1
  0
DICTIONARY
  5
1A
102
{ACAD_REACTORS
330
C
102
}
330
C
100
AcDbDictionary
281
     1
  3
Layout1
350
1E
  3
Layout2
350
26
  3
Model
350
22
  0
DICTIONARY
  5
3B
102
{ACAD_REACTORS
330
C
102
}
330
C
100
AcDbDictionary
281
     1
  3
ByBlock
350
3D
  3
ByLayer
350
3C
  3
Global
350
3E
  0
DICTIONARY
  5
79
102
{ACAD_REACTORS
330
C
102
}
330
C
100
AcDbDictionary
281
     1
  0
DICTIONARY
  5
17
102
{ACAD_REACTORS
330
C
102
}
330
C
100
AcDbDictionary
281
     1
  3
Standard
350
18
  0
DICTIONARY
  5
19
102
{ACAD_REACTORS
330
C
102
}
330
C
100
AcDbDictionary
281
     1
  0
ACDBDICTIONARYWDFLT
  5
E
102
{ACAD_REACTORS
330
C
102
}
330
C
100
AcDbDictionary
281
     1
  3
Normal
350
F
100
AcDbDictionaryWithDefault
340
F
  0
DICTIONARY
  5
78
102
{ACAD_REACTORS
330
C
102
}
330
C
100
AcDbDictionary
281
     1
  0
DICTIONARY
  5
2A
102
{ACAD_REACTORS
330
C
102
}
330
C
100
AcDbDictionary
281
     1
  3
2dWireframe
350
2F
  3
3D Hidden
350
31
  3
3dWireframe
350
30
  3
Basic
350
32
  3
Brighten
350
36
  3
ColorChange
350
3A
  3
Conceptual
350
34
  3
Dim
350
35
  3
Facepattern
350
39
  3
Flat
350
2B
  3
FlatWithEdges
350
2C
  3
Gouraud
350
2D
  3
GouraudWithEdges
350
2E
  3
Linepattern
350
38
  3
Realistic
350
33
  3
Thicken
350
37
  0
LAYOUT
  5
1E
102
{ACAD_REACTORS
330
1A
102
}
330
1A
100
AcDbPlotSettings
  1

  2
none_device
  4

  6

 40
0.0
 41
0.0
 42
0.0
 43
0.0
 44
0.0
 45
0.0
 46
0.0
 47
0.0
 48
0.0
 49
0.0
140
0.0
141
0.0
142
1.0
143
1.0
 70
   688
 72
     0
 73
     0
 74
     5
  7

 75
    16
 76
     0
 77
     2
 78
   300
147
1.0
148
0.0
149
0.0
100
AcDbLayout
  1
Layout1
 70
     1
 71
     1
 10
0.0
 20
0.0
 11
12.0
 21
9.0
 12
0.0
 22
0.0
 32
0.0
 14
1.000000000000000E+20
 24
1.000000000000000E+20
 34
1.000000000000000E+20
 15
-1.000000000000000E+20
 25
-1.000000000000000E+20
 35
-1.000000000000000E+20
146
0.0
 13
0.0
 23
0.0
 33
0.0
 16
1.0
 26
0.0
 36
0.0
 17
0.0
 27
1.0
 37
0.0
 76
     0
330
1B
  0
LAYOUT
  5
26
102
{ACAD_REACTORS
330
1A
102
}
330
1A
100
AcDbPlotSettings
  1

  2
none_device
  4

  6

 40
0.0
 41
0.0
 42
0.0
 43
0.0
 44
0.0
 45
0.0
 46
0.0
 47
0.0
 48
0.0
 49
0.0
140
0.0
141
0.0
142
1.0
143
1.0
 70
   688
 72
     0
 73
     0
 74
     5
  7

 75
    16
 76
     0
 77
     2
 78
   300
147
1.0
148
0.0
149
0.0
100
AcDbLayout
  1
Layout2
 70
     1
 71
     2
 10
0.0
 20
0.0
 11
0.0
 21
0.0
 12
0.0
 22
0.0
 32
0.0
 14
0.0
 24
0.0
 34
0.0
 15
0.0
 25
0.0
 35
0.0
146
0.0
 13
0.0
 23
0.0
 33
0.0
 16
1.0
 26
0.0
 36
0.0
 17
0.0
 27
1.0
 37
0.0
 76
     0
330
23
  0
LAYOUT
  5
22
102
{ACAD_REACTORS
330
1A
102
}
330
1A
100
AcDbPlotSettings
  1

  2
none_device
  4

  6

 40
0.0
 41
0.0
 42
0.0
 43
0.0
 44
0.0
 45
0.0
 46
0.0
 47
0.0
 48
0.0
 49
0.0
140
0.0
141
0.0
142
1.0
143
1.0
 70
  1712
 72
     0
 73
     0
 74
     0
  7

 75
     0
 76
     0
 77
     2
 78
   300
147
1.0
148
0.0
149
0.0
100
AcDbLayout
  1
Model
 70
     1
 71
     0
 10
0.0
 20
0.0
 11
12.0
 21
9.0
 12
0.0
 22
0.0
 32
0.0
 14
1.000000000000000E+20
 24
1.000000000000000E+20
 34
1.000000000000000E+20
 15
-1.000000000000000E+20
 25
-1.000000000000000E+20
 35
-1.000000000000000E+20
146
0.0
 13
0.0
 23
0.0
 33
0.0
 16
1.0
 26
0.0
 36
0.0
 17
0.0
 27
1.0
 37
0.0
 76
     0
330
1F
331
29
  0
MATERIAL
  5
3D
102
{ACAD_REACTORS
330
3B
102
}
330
3B
100
AcDbMaterial
  1
ByBlock
 72
     1
 94
      127
  0
MATERIAL
  5
3C
102
{ACAD_REACTORS
330
3B
102
}
330
3B
100
AcDbMaterial
  1
ByLayer
 72
     1
 94
      127
  0
MATERIAL
  5
3E
102
{ACAD_REACTORS
330
3B
102
}
330
3B
100
AcDbMaterial
  1
Global
 72
     1
 94
      127
  0
MLINESTYLE
  5
18
102
{ACAD_REACTORS
330
17
102
}
330
17
100
AcDbMlineStyle
  2
Standard
 70
     0
  3

 62
   256
 51
90.0
 52
90.0
 71
     2
 49
0.5
 62
   256
  6
BYLAYER
 49
-0.5
 62
   256
  6
BYLAYER
  0
ACDBPLACEHOLDER
  5
F
102
{ACAD_REACTORS
330
E
102
}
330
E
  0
VISUALSTYLE
  5
2F
102
{ACAD_REACTORS
330
2A
102
}
330
2A
100
AcDbVisualStyle
  2
2dWireframe
 70
     4
177
     2
291
     0
 71
     0
176
     1
 72
     2
176
     1
 73
     0
176
     1
 90
        0
176
     1
 40
-0.6
176
     1
 41
-30.0
176
     1
 62
     5
 63
     7
421
 16777215
176
     1
 74
     1
176
     1
 91
        4
176
     1
 64
     7
176
     1
 65
   257
176
     1
 75
     1
176
     1
175
     1
176
     1
 42
1.0
176
     1
 92
        0
176
     1
 66
   257
176
     1
 43
1.0
176
     1
 76
     1
176
     1
 77
     6
176
     1
 78
     2
176
     1
 67
     7
176
     1
 79
     5
176
     1
170
     0
176
     1
171
     0
176
     1
290
     0
176
     1
 93
        1
176
     1
 44
0.0
176
     1
173
     0
176
     1
  0
VISUALSTYLE
  5
31
102
{ACAD_REACTORS
330
2A
102
}
330
2A
100
AcDbVisualStyle
  2
3D Hidden
 70
     6
177
     2
291
     0
 71
     1
176
     1
 72
     2
176
     1
 73
     2
176
     1
 90
        0
176
     1
 40
-0.6
176
     1
 41
-30.0
176
     1
 62
     5
 63
     7
421
 16777215
176
     1
 74
     2
176
     1
 91
        2
176
     1
 64
     7
176
     1
 65
   257
176
     1
 75
     2
176
     1
175
     1
176
     1
 42
40.0
176
     1
 92
        0
176
     1
 66
   257
176
     1
 43
1.0
176
     1
 76
     1
176
     1
 77
     6
176
     1
 78
     2
176
     1
 67
     7
176
     1
 79
     3
176
     1
170
     0
176
     1
171
     0
176
     1
290
     0
176
     1
 93
        1
176
     1
 44
0.0
176
     1
173
     0
176
     1
  0
VISUALSTYLE
  5
30
102
{ACAD_REACTORS
330
2A
102
}
330
2A
100
AcDbVisualStyle
  2
3dWireframe
 70
     5
177
     2
291
     0
 71
     0
176
     1
 72
     2
176
     1
 73
     0
176
     1
 90
        0
176
     1
 40
-0.6
176
     1
 41
-30.0
176
     1
 62
     5
 63
     7
421
 16777215
176
     1
 74
     1
176
     1
 91
        4
176
     1
 64
     7
176
     1
 65
   257
176
     1
 75
     1
176
     1
175
     1
176
     1
 42
1.0
176
     1
 92
        0
176
     1
 66
   257
176
     1
 43
1.0
176
     1
 76
     1
176
     1
 77
     6
176
     1
 78
     2
176
     1
 67
     7
176
     1
 79
     5
176
     1
170
     0
176
     1
171
     0
176
     1
290
     0
176
     1
 93
        1
176
     1
 44
0.0
176
     1
173
     0
176
     1
  0
VISUALSTYLE
  5
32
102
{ACAD_REACTORS
330
2A
102
}
330
2A
100
AcDbVisualStyle
  2
Basic
 70
     7
177
     2
291
     1
 71
     1
176
     1
 72
     0
176
     1
 73
     1
176
     1
 90
        0
176
     1
 40
-0.6
176
     1
 41
-30.0
176
     1
 62
     5
 63
     7
421
 16777215
176
     1
 74
     0
176
     1
 91
        4
176
     1
 64
     7
176
     1
 65
   257
176
     1
 75
     1
176
     1
175
     1
176
     1
 42
1.0
176
     1
 92
        8
176
     1
 66
     7
176
     1
 43
1.0
176
     1
 76
     1
176
     1
 77
     6
176
     1
 78
     2
176
     1
 67
     7
176
     1
 79
     5
176
     1
170
     0
176
     1
171
     0
176
     1
290
     0
176
     1
 93
        1
176
     1
 44
0.0
176
     1
173
     0
176
     1
  0
VISUALSTYLE
  5
36
102
{ACAD_REACTORS
330
2A
102
}
330
2A
100
AcDbVisualStyle
  2
Brighten
 70
    12
177
     2
291
     1
 71
     2
176
     1
 72
     2
176
     1
 73
     0
176
     1
 90
        0
176
     1
 40
-0.6
176
     1
 41
-30.0
176
     1
 62
     5
 63
     7
421
 16777215
176
     1
 74
     1
176
     1
 91
        4
176
     1
 64
     7
176
     1
 65
   257
176
     1
 75
     1
176
     1
175
     1
176
     1
 42
1.0
176
     1
 92
        8
176
     1
 66
     7
176
     1
 43
1.0
176
     1
 76
     1
176
     1
 77
     6
176
     1
 78
     2
176
     1
 67
     7
176
     1
 79
     5
176
     1
170
     0
176
     1
171
     0
176
     1
290
     0
176
     1
 93
        1
176
     1
 44
50.0
176
     1
173
     0
176
     1
  0
VISUALSTYLE
  5
3A
102
{ACAD_REACTORS
330
2A
102
}
330
2A
100
AcDbVisualStyle
  2
ColorChange
 70
    16
177
     2
291
     1
 71
     2
176
     1
 72
     2
176
     1
 73
     3
176
     1
 90
        0
176
     1
 40
-0.6
176
     1
 41
-30.0
176
     1
 62
     5
 63
     8
421
  8421504
176
     1
 74
     1
176
     1
 91
        4
176
     1
 64
     7
176
     1
 65
   257
176
     1
 75
     1
176
     1
175
     1
176
     1
 42
1.0
176
     1
 92
        8
176
     1
 66
     8
424
  8421504
176
     1
 43
1.0
176
     1
 76
     1
176
     1
 77
     6
176
     1
 78
     2
176
     1
 67
     7
176
     1
 79
     5
176
     1
170
     0
176
     1
171
     0
176
     1
290
     0
176
     1
 93
        1
176
     1
 44
0.0
176
     1
173
     0
176
     1
  0
VISUALSTYLE
  5
34
102
{ACAD_REACTORS
330
2A
102
}
330
2A
100
AcDbVisualStyle
  2
Conceptual
 70
     9
177
     2
291
     0
 71
     3
176
     1
 72
     2
176
     1
 73
     0
176
     1
 90
        0
176
     1
 40
-0.6
176
     1
 41
-30.0
176
     1
 62
     5
 63
     7
421
 16777215
176
     1
 74
     2
176
     1
 91
        2
176
     1
 64
     7
176
     1
 65
   257
176
     1
 75
     1
176
     1
175
     1
176
     1
 42
40.0
176
     1
 92
        8
176
     1
 66
     7
176
     1
 43
1.0
176
     1
 76
     1
176
     1
 77
     6
176
     1
 78
     2
176
     1
 67
     7
176
     1
 79
     3
176
     1
170
     0
176
     1
171
     0
176
     1
290
     0
176
     1
 93
        1
176
     1
 44
0.0
176
     1
173
     0
176
     1
  0
VISUALSTYLE
  5
35
102
{ACAD_REACTORS
330
2A
102
}
330
2A
100
AcDbVisualStyle
  2
Dim
 70
    11
177
     2
291
     1
 71
     2
176
     1
 72
     2
176
     1
 73
     0
176
     1
 90
        0
176
     1
 40
-0.6
176
     1
 41
-30.0
176
     1
 62
     5
 63
     7
421
 16777215
176
     1
 74
     1
176
     1
 91
        4
176
     1
 64
     7
176
     1
 65
   257
176
     1
 75
     1
176
     1
175
     1
176
     1
 42
1.0
176
     1
 92
        8
176
     1
 66
     7
176
     1
 43
1.0
176
     1
 76
     1
176
     1
 77
     6
176
     1
 78
     2
176
     1
 67
     7
176
     1
 79
     5
176
     1
170
     0
176
     1
171
     0
176
     1
290
     0
176
     1
 93
        1
176
     1
 44
-50.0
176
     1
173
     0
176
     1
  0
VISUALSTYLE
  5
39
102
{ACAD_REACTORS
330
2A
102
}
330
2A
100
AcDbVisualStyle
  2
Facepattern
 70
    15
177
     2
291
     1
 71
     2
176
     1
 72
     2
176
     1
 73
     0
176
     1
 90
        0
176
     1
 40
-0.6
176
     1
 41
-30.0
176
     1
 62
     5
 63
     7
421
 16777215
176
     1
 74
     1
176
     1
 91
        4
176
     1
 64
     7
176
     1
 65
   257
176
     1
 75
     1
176
     1
175
     1
176
     1
 42
1.0
176
     1
 92
        8
176
     1
 66
     7
176
     1
 43
1.0
176
     1
 76
     1
176
     1
 77
     6
176
     1
 78
     2
176
     1
 67
     7
176
     1
 79
     5
176
     1
170
     0
176
     1
171
     0
176
     1
290
     0
176
     1
 93
        1
176
     1
 44
0.0
176
     1
173
     0
176
     1
  0
VISUALSTYLE
  5
2B
102
{ACAD_REACTORS
330
2A
102
}
330
2A
100
AcDbVisualStyle
  2
Flat
 70
     0
177
     2
291
     1
 71
     2
176
     1
 72
     1
176
     1
 73
     1
176
     1
 90
        2
176
     1
 40
-0.6
176
     1
 41
30.0
176
     1
 62
     5
 63
     7
421
 16777215
176
     1
 74
     0
176
     1
 91
        4
176
     1
 64
     7
176
     1
 65
   257
176
     1
 75
     1
176
     1
175
     1
176
     1
 42
1.0
176
     1
 92
        8
176
     1
 66
     7
176
     1
 43
1.0
176
     1
 76
     1
176
     1
 77
     6
176
     1
 78
     2
176
     1
 67
     7
176
     1
 79
     5
176
     1
170
     0
176
     1
171
     0
176
     1
290
     0
176
     1
 93
       13
176
     1
 44
0.0
176
     1
173
     0
176
     1
  0
VISUALSTYLE
  5
2C
102
{ACAD_REACTORS
330
2A
102
}
330
2A
100
AcDbVisualStyle
  2
FlatWithEdges
 70
     1
177
     2
291
     1
 71
     2
176
     1
 72
     1
176
     1
 73
     1
176
     1
 90
        2
176
     1
 40
-0.6
176
     1
 41
30.0
176
     1
 62
     5
 63
     7
421
 16777215
176
     1
 74
     1
176
     1
 91
        4
176
     1
 64
     7
176
     1
 65
   257
176
     1
 75
     1
176
     1
175
     1
176
     1
 42
1.0
176
     1
 92
        0
176
     1
 66
   257
176
     1
 43
1.0
176
     1
 76
     1
176
     1
 77
     6
176
     1
 78
     2
176
     1
 67
     7
176
     1
 79
     5
176
     1
170
     0
176
     1
171
     0
176
     1
290
     0
176
     1
 93
       13
176
     1
 44
0.0
176
     1
173
     0
176
     1
  0
VISUALSTYLE
  5
2D
102
{ACAD_REACTORS
330
2A
102
}
330
2A
100
AcDbVisualStyle
  2
Gouraud
 70
     2
177
     2
291
     1
 71
     2
176
     1
 72
     2
176
     1
 73
     1
176
     1
 90
        2
176
     1
 40
-0.6
176
     1
 41
30.0
176
     1
 62
     5
 63
     7
421
 16777215
176
     1
 74
     0
176
     1
 91
        4
176
     1
 64
     7
176
     1
 65
   257
176
     1
 75
     1
176
     1
175
     1
176
     1
 42
1.0
176
     1
 92
        0
176
     1
 66
     7
176
     1
 43
1.0
176
     1
 76
     1
176
     1
 77
     6
176
     1
 78
     2
176
     1
 67
     7
176
     1
 79
     5
176
     1
170
     0
176
     1
171
     0
176
     1
290
     0
176
     1
 93
       13
176
     1
 44
0.0
176
     1
173
     0
176
     1
  0
VISUALSTYLE
  5
2E
102
{ACAD_REACTORS
330
2A
102
}
330
2A
100
AcDbVisualStyle
  2
GouraudWithEdges
 70
     3
177
     2
291
     1
 71
     2
176
     1
 72
     2
176
     1
 73
     1
176
     1
 90
        2
176
     1
 40
-0.6
176
     1
 41
30.0
176
     1
 62
     5
 63
     7
421
 16777215
176
     1
 74
     1
176
     1
 91
        4
176
     1
 64
     7
176
     1
 65
   257
176
     1
 75
     1
176
     1
175
     1
176
     1
 42
1.0
176
     1
 92
        0
176
     1
 66
   257
176
     1
 43
1.0
176
     1
 76
     1
176
     1
 77
     6
176
     1
 78
     2
176
     1
 67
     7
176
     1
 79
     5
176
     1
170
     0
176
     1
171
     0
176
     1
290
     0
176
     1
 93
       13
176
     1
 44
0.0
176
     1
173
     0
176
     1
  0
VISUALSTYLE
  5
38
102
{ACAD_REACTORS
330
2A
102
}
330
2A
100
AcDbVisualStyle
  2
Linepattern
 70
    14
177
     2
291
     1
 71
     2
176
     1
 72
     2
176
     1
 73
     0
176
     1
 90
        0
176
     1
 40
-0.6
176
     1
 41
-30.0
176
     1
 62
     5
 63
     7
421
 16777215
176
     1
 74
     1
176
     1
 91
        4
176
     1
 64
     7
176
     1
 65
   257
176
     1
 75
     7
176
     1
175
     7
176
     1
 42
1.0
176
     1
 92
        8
176
     1
 66
     7
176
     1
 43
1.0
176
     1
 76
     1
176
     1
 77
     6
176
     1
 78
     2
176
     1
 67
     7
176
     1
 79
     5
176
     1
170
     0
176
     1
171
     0
176
     1
290
     0
176
     1
 93
        1
176
     1
 44
0.0
176
     1
173
     0
176
     1
  0
VISUALSTYLE
  5
33
102
{ACAD_REACTORS
330
2A
102
}
330
2A
100
AcDbVisualStyle
  2
Realistic
 70
     8
177
     2
291
     0
 71
     2
176
     1
 72
     2
176
     1
 73
     0
176
     1
 90
        0
176
     1
 40
-0.6
176
     1
 41
-30.0
176
     1
 62
     5
 63
     7
421
 16777215
176
     1
 74
     1
176
     1
 91
        0
176
     1
 64
     7
176
     1
 65
   257
176
     1
 75
     1
176
     1
175
     1
176
     1
 42
1.0
176
     1
 92
        8
176
     1
 66
     8
424
  7895160
176
     1
 43
1.0
176
     1
 76
     1
176
     1
 77
     6
176
     1
 78
     2
176
     1
 67
     7
176
     1
 79
     5
176
     1
170
     0
176
     1
171
     0
176
     1
290
     0
176
     1
 93
       13
176
     1
 44
0.0
176
     1
173
     0
176
     1
  0
VISUALSTYLE
  5
37
102
{ACAD_REACTORS
330
2A
102
}
330
2A
100
AcDbVisualStyle
  2
Thicken
 70
    13
177
     2
291
     1
 71
     2
176
     1
 72
     2
176
     1
 73
     0
176
     1
 90
        0
176
     1
 40
-0.6
176
     1
 41
-30.0
176
     1
 62
     5
 63
     7
421
 16777215
176
     1
 74
     1
176
     1
 91
        4
176
     1
 64
     7
176
     1
 65
   257
176
     1
 75
     1
176
     1
175
     1
176
     1
 42
1.0
176
     1
 92
       12
176
     1
 66
     7
176
     1
 43
1.0
176
     1
 76
     1
176
     1
 77
     6
176
     1
 78
     2
176
     1
 67
     7
176
     1
 79
     5
176
     1
170
     0
176
     1
171
     0
176
     1
290
     0
176
     1
 93
        1
176
     1
 44
0.0
176
     1
173
     0
176
     1
  0
ENDSEC
  0
EOF
