<?xml version="1.0" encoding="utf-8"?>
<!-- Generator: Adobe Illustrator 22.0.1, SVG Export Plug-In . SVG Version: 6.00 Build 0)  -->
<svg version="1.1" id="Layer_1" xmlns="http://www.w3.org/2000/svg" xmlns:xlink="http://www.w3.org/1999/xlink" x="0px" y="0px"
	 viewBox="0 0 2000 2000" style="enable-background:new 0 0 2000 2000;" xml:space="preserve">
<g>
	<g>
		<path d="M767.4,1896.1c-1.4-3.3-2.5-6.7-4.3-9.8c-215.2-370.9-430.4-741.8-645.6-1112.7c-13.5-23.2-26.8-46.4-40.3-69.6
			c-4.4-7.5-10.6-14.3-13.1-22.3c-4.3-13.6-6-27.9-9.3-41.8c-2.1-8.6-5.1-16.9-7.8-25.3c0-2.7,0-5.3,0-8c1.1-1.2,2.4-2.2,3.3-3.5
			c26.1-36.7,51.7-73.8,78.5-110c34.4-46.4,63-97.3,108.1-135.4c30.1-25.4,56.7-55,87.6-79.2c60.9-47.9,123.6-93.5,185.9-139.7
			c4.9-3.7,11.8-6.2,17.9-6.5c36-2.2,72.1-3.7,108.1-5.4c95.2-4.6,190.5-9.2,285.7-14c17.4-0.9,34.8-2.5,52.2-3.7
			c10,0,19.9,0,29.9,0c2.1,0.8,4.2,1.8,6.4,2.5c165.3,46.9,330.5,93.8,495.8,140.8c5.5,1.6,11,4.6,15.5,8.2
			c84.6,68.3,169.1,136.7,253.6,205.1c4.8,3.9,11.6,6.5,14.7,11.4c26.3,41.8,51.9,83.9,77.6,126c1.9,3,2.9,6.7,3.9,10.1
			c14.4,52.3,28.6,104.7,43.1,157c15.5,55.8,32.4,111.2,36,169.6c1,16.4,4.4,32.6,6.6,48.8c0,4.6,0,9.3,0,13.9
			c-22.7,25.4-45.5,50.8-68.2,76.2c-5.1,5.7-11.4,10.7-14.9,17.2c-10.5,19.8-30.3,28.4-46.9,40.4
			c-348.2,251.2-696.7,502.2-1045.1,753.2c-2.6,1.8-4.7,4.3-7,6.5C772.7,1896.1,770,1896.1,767.4,1896.1z M1782,482.9
			c-1.4-1.5-1.8-2.1-2.3-2.5c-88.3-71.6-176.7-143.2-265.1-214.6c-3.2-2.6-7.4-4.4-11.4-5.5c-165.5-47.1-331.1-94-496.7-140.9
			c-4.1-1.1-8.5-1.8-12.7-1.6c-32.1,1.5-64.2,3.3-96.3,4.9c-122.1,6-244.2,12-366.3,17.7c-7,0.3-10.7,2.9-14.3,8.2
			c-16.9,24.6-34.1,48.9-51.2,73.4c-21,30.1-42.1,60.2-63.4,90.8c2.9,2.5,5.3,4.8,7.8,6.8c84.4,67.5,168.7,135.1,253.3,202.4
			c6,4.8,13.4,8.7,20.8,10.8c160.5,45.2,321.2,90.2,481.8,135.1c11.1,3.1,22.5,7.6,33.7,7.3c63.6-1.6,127.1-4.5,190.7-7
			c83.7-3.3,167.5-6.4,251.2-10.1c4.6-0.2,10.4-4,13.4-7.8c23.4-30.1,46.3-60.6,69.3-91C1743.5,533.8,1762.6,508.4,1782,482.9z
			 M878.5,784.1c87.1,108.1,173.2,214.8,259.6,322c93.4-81.8,186.3-163.1,279.5-244.8c-2.4-2.2-3.8-3.5-5.3-4.7
			c-71.2-55.8-142.4-111.5-213.5-167.5c-5-4-9.2-3.4-14.5-1.7c-54.5,17.4-109.1,34.6-163.7,51.9
			C973.6,754.1,926.6,768.9,878.5,784.1z M863.4,779.9c-1.7-2.4-2.4-3.6-3.2-4.6c-62.2-77.2-124.4-154.3-186.4-231.6
			c-4.8-6-9.9-5.1-15.8-4.1c-67.1,10.4-134.2,20.7-201.2,31.1c-21.8,3.4-43.6,6.8-66.1,10.4c20.4,109.9,40.7,218.8,61.1,329
			C589.4,866.6,725.8,823.5,863.4,779.9z M775.7,1880.2c3.1-2.8,4.5-4,5.8-5.4c88.8-93.9,177.5-187.9,266.4-281.6
			c5.5-5.8,8.7-11.9,9.9-19.7c17.7-111.9,35.6-223.7,53.4-335.5c1.7-10.4,3-20.9,4.6-31.3c-1-0.6-2-1.1-3-1.7c-2.7,3.4-5,7-8,10
			c-107.2,109.8-214.4,219.6-321.9,329.2c-5.3,5.4-7.5,10.7-7.5,18.2c0.2,76.6,0.2,153.2,0.2,229.8
			C775.7,1820.7,775.7,1849.2,775.7,1880.2z M1431.5,860.6c103.5,81.1,206.6,161.9,310.9,243.6c5.5-41,10.7-80,15.9-119
			c11.1-83.4,22-166.8,33.3-250.2c1-7-0.9-9.8-7.2-12.4c-41-17-81.8-34.2-122.5-51.9c-7.3-3.2-11.8-1.8-17.4,3.1
			c-31.7,28.1-63.7,56-95.6,83.9C1510,791.8,1471.2,825.9,1431.5,860.6z M765.4,1871c0.7-0.2,1.3-0.3,2-0.5c0-3.1,0-6.3,0-9.4
			c0-99.8,0.1-199.6-0.2-299.4c0-6.2-1.9-13.1-5.1-18.5c-98.6-167.9-197.4-335.7-296.2-503.5c-1.8-3-3.8-5.8-7.2-11.1
			c0.6,4.9,0.7,6.9,1.1,8.8c23.1,118.6,46.1,237.3,69.4,355.8c3.4,17.1,5,35.6,12.7,50.7c63.7,123.6,128.7,246.5,193.2,369.6
			C745.2,1832.6,755.3,1851.8,765.4,1871z M1115.1,1192.4c-2.4-1.3-3.8-2.2-5.3-2.8c-51-21.3-102-42.6-153-63.8
			c-3-1.2-6.3-2-9.6-2.1c-39.7-1.9-79.4-3.8-119.1-5.3c-17.1-0.6-34.2-0.1-51.7-0.1c0,138.8,0,278.4,0,420.5
			C890,1422.6,1002.1,1308,1115.1,1192.4z M455.4,1004.8c104.1,176.8,207,351.6,309.9,526.3c0.7-0.2,1.4-0.4,2.1-0.6
			c0-2.1,0-4.3,0-6.4c0-134,0-268,0.1-402c0-5.8-2-8.8-6.9-11.5c-45.4-25.4-90.8-50.7-135.9-76.6c-13.7-7.8-27.4-13.3-43.5-14.9
			C540.1,1015.3,499,1009.9,455.4,1004.8z M80,676.7c3.3-0.6,4.8-0.8,6.3-1.3c96.1-32.9,192.2-65.9,288.4-98.6
			c6.5-2.2,7.5-6.1,7.7-11.7c2.3-63.6,5-127.1,7.1-190.7c0.6-19.1,0.1-38.3,0.1-58.2c-20.9-6.7-42.8-14.1-65-20.5
			c-3.4-1-9.1,0.8-11.8,3.3c-33.3,30.8-66.4,61.9-99.3,93.2c-4.4,4.2-8.2,9.6-10.7,15.1c-36.5,79.4-72.7,158.9-108.9,238.5
			C89.4,655.6,85,665.4,80,676.7z M1415.3,1204.6c-40-12.4-78.3-24.2-116.6-35.9c-3-0.9-6.6-1.1-9.8-0.6
			c-51.3,8.2-102.6,16.7-154,24.7c-6.4,1-8.6,3.4-9.6,9.8c-16.1,102.4-32.6,204.8-49,307.1c-3.2,20.1-6.2,40.2-9.4,60.4
			c0.6,0.3,1.3,0.6,1.9,0.9C1183.9,1449.3,1299,1327.6,1415.3,1204.6z M873.7,792c-1.3,1.8-2.1,2.5-2.4,3.4
			c-23.7,72-47.4,144-71.3,215.9c-2.1,6.3,1.2,8.2,5.3,10.7c47.5,29.7,94.9,59.5,142.5,88.9c3.9,2.4,9.3,3.9,13.9,3.7
			c38.7-1.2,77.5-2.8,116.2-4.4c16.3-0.6,32.5-1.3,50.7-2C1042.8,1001.8,958.6,897.3,873.7,792z M1708.4,1182.2
			c-4.9-1.2-7.6-2-10.4-2.5c-17.3-3.1-34.5-6.6-51.8-9.2c-10.1-1.5-20.7-3.7-30.4-1.8c-61.1,11.6-122.1,24.1-183,36.6
			c-4.4,0.9-9.2,3.6-12.4,6.9c-99.5,104.8-198.7,209.8-298,314.7c-10.2,10.8-20.3,21.8-30.5,32.7c0.4,0.4,0.8,0.8,1.2,1.2
			C1297.5,1435,1502,1309.2,1708.4,1182.2z M459.8,916.7c2,1.9,2.8,2.9,3.8,3.5c46.8,30.1,93.6,60.2,140.5,90.1
			c2.3,1.5,5.5,2.4,8.3,2.4c56.6,0.8,113.3,1.3,169.9,2.2c6.2,0.1,8.6-2.2,10.4-7.8c23-70.4,46.2-140.8,69.3-211.2
			c0.6-1.9,0.5-4.1,0.8-6.9C728,831.8,594.4,874,459.8,916.7z M1174.7,681.4c-0.1-0.8-0.2-1.7-0.3-2.5
			c-162.7-45.6-325.5-91.1-490.5-137.3c2.7,3.9,3.8,5.7,5.1,7.4c59.5,73.9,119,147.6,178.3,221.6c4.4,5.5,8.3,5.5,14.4,3.6
			c75-24,150.2-47.7,225.3-71.4C1129.6,695.6,1152.1,688.5,1174.7,681.4z M1147.8,1109.1c1.3,1.4,1.7,2.1,2.2,2.3
			c46.9,15.2,93.7,30.5,140.6,45.5c3.3,1,7.3,0.9,10.7,0.1c46.2-10.2,92.3-20.7,138.6-30.7c7.1-1.5,9.8-4.1,8.2-11.2
			c-0.5-2.2-0.4-4.6-0.7-6.9c-6.5-59.6-12.9-119.1-19.4-178.7c-2.1-19.3-4.3-38.5-6.7-59.9
			C1329.2,950.2,1238.6,1029.5,1147.8,1109.1z M812.9,1854.5c281.5-198.8,562.2-398.3,828.4-620.2c-4.1,2.2-6.9,3.6-9.5,5.2
			c-187.4,115.3-374.7,230.5-562,345.9c-3.9,2.4-7.5,5.4-10.7,8.7c-68,71.7-135.8,143.4-203.7,215.2
			C841.1,1824.3,827,1839.4,812.9,1854.5z M1209.2,683.5c-0.2,0.8-0.3,1.6-0.5,2.5c36.2,28.4,72.2,57.2,108.8,85.1
			c36.2,27.7,70.2,58.4,109,82.5c71-62.2,141.3-123.8,213.3-186.9C1494.3,672.4,1351.7,677.9,1209.2,683.5z M521,1405.2
			c0.5-0.2,1-0.4,1.5-0.6c-0.3-1.9-0.5-3.8-0.8-5.7c-8.3-42.6-16.6-85.2-24.9-127.7c-16.8-86.1-33.5-172.3-50.5-258.4
			c-1-5.1-3.7-10.8-7.4-14.4c-31.7-31.6-63.8-62.8-95.8-94.1c-2.3-2.2-5.3-4.7-8.2-5c-27-2.6-54-4.8-83.1-7.2
			C342.1,1064.3,431.5,1234.8,521,1405.2z M401,323.3c-0.8,2.6-1.3,3.5-1.3,4.4c-2.8,75.4-5.7,150.8-8.4,226.3
			c-0.6,17,1.2,18.1,18.2,15.4c62.1-9.6,124.3-19.1,186.4-28.7c20.8-3.2,41.5-6.5,64.5-10.1C573,460.8,487.5,392.4,401,323.3z
			 M1800.6,745.9c-0.7,0-1.4,0-2.1,0c-15.9,120.4-31.9,240.9-47.9,362.1c32.7,0,64.2,0.2,95.6-0.3c2.8,0,6.6-3.6,8.2-6.5
			c13.4-25.1,26.2-50.5,39.6-75.6c3.2-6.1,3.7-11.2,1.3-17.7c-19.5-53.4-38.6-107-57.9-160.5
			C1825.2,813.6,1812.9,779.8,1800.6,745.9z M273.9,800.1c20.5,27.3,40.9,54.2,60.8,81.4c5.2,7.2,10.9,11.4,20,12.4
			c12.1,1.4,24,4.6,36.1,6.8c17.1,3.2,34.2,6.2,52.3,9.4c-19.8-106.2-39.2-210.9-58.7-315.5c-0.8,0-1.6,0-2.5,0
			C346,663,310,731.5,273.9,800.1z M1737.3,1111.2c-97.3-76.2-193.4-151.5-289.4-226.8c-0.5,0.5-0.9,1-1.4,1.4
			c59.9,90.6,119.7,181.1,179.9,272.2C1663.1,1142.6,1699.3,1127.3,1737.3,1111.2z M1432.6,880.6c-0.6,3.4-0.9,4.1-0.8,4.7
			c8.3,77.3,16.7,154.7,24.8,232c0.7,6.7,4.8,7.5,9.9,8.6c40.2,8.4,80.3,16.9,120.4,25.3c8.5,1.8,17.1,3.3,28.2,5.5
			C1553.6,1063.7,1493.7,973.1,1432.6,880.6z M1919.7,822.5c-0.8-3.7-1.1-5.6-1.6-7.4c-15.8-57.7-31.5-115.5-47.6-173.1
			c-3.6-13-6.3-26.8-12.8-38.3c-18.5-32.5-38.8-63.9-58.4-95.8c-1.2-2-2.9-3.8-4-5.3c0,17.4-0.5,34.5,0.1,51.6
			c1.7,53.3,3.7,106.5,6.1,159.7c0.2,4.2,3,9.4,6.2,12.3c15.7,14.2,32,27.8,48.1,41.6C1876.5,785.7,1897.4,803.5,1919.7,822.5z
			 M1905.6,1011.7c10.9-3.8,20.6-8.2,30.8-10.5c10.6-2.3,12.3-7.7,11-17.5c-4.6-34.8-7.8-69.8-12.6-104.5
			c-3.2-23.4-8.8-46.1-31.7-59.6c-5.9-3.5-10.7-8.9-15.9-13.4c-25.9-22.1-51.8-44.3-77.7-66.4c-0.5,0.3-1,0.6-1.5,0.9
			C1840.4,830.7,1872.8,920.7,1905.6,1011.7z M1658.7,660c4.1,1.8,7,3.2,10,4.5c36.2,15.3,72.5,30.7,108.8,46
			c14.2,6,15.3,5.4,14.7-9.9c-1.9-50.9-3.9-101.9-5.8-152.8c-0.6-16.9-1.2-33.8-2-53.6C1741.5,550.8,1700.5,604.8,1658.7,660z
			 M362.9,592.2c-0.3-0.7-0.6-1.4-0.9-2.1c-93.5,32-186.9,64-281.2,96.2c29.1,23.6,57.3,46.5,85.9,69.7
			C232.3,701.3,297.6,646.8,362.9,592.2z M463.3,1318.4c0.5-0.4,1-0.8,1.5-1.3c-0.8-1.7-1.6-3.5-2.5-5.2
			c-59.6-113.7-120-227-178.7-341.2c-34.9-67.8-74.6-132.7-115.2-197.1c-1.6-2.6-5.6-5.9-7.8-5.5c-10.2,1.9-20.2,5-31.3,8
			C241.1,957.7,352.2,1138.1,463.3,1318.4z M266.8,795.1C301.4,729.4,335.2,665,369,600.6c-0.5-0.3-1-0.6-1.5-1
			C303.6,653,239.8,706.4,174.9,760.6C206.6,772.4,236.3,783.6,266.8,795.1z M978.4,1122.6c-0.2,0.7-0.5,1.3-0.7,2
			c3.1,1.5,6.2,3.1,9.4,4.5c40,16.7,80.2,33,119.9,50.5c10.2,4.5,20.5,5.1,30.2,3.9c31.9-3.9,63.5-9.7,95.2-14.8
			c13.3-2.1,26.7-4.4,40-6.6c-35.4-13.3-70.8-24.3-105.8-36.3c-17.8-6.1-35.5-9-54.3-8.2C1067.7,1119.5,1023.1,1120.9,978.4,1122.6z
			 M584.9,1011.1c0.2-0.6,0.4-1.3,0.7-1.9c-2.9-2-5.7-4-8.6-5.9c-33.7-21.7-67.9-42.6-101-65.2c-19-12.9-38.7-22.5-61.7-24.7
			c-3.3-0.3-6.5-1.2-9.8-1.7c-15.9-2.9-31.8-5.8-42.8-7.8c26.3,27.8,54.9,58.2,83.8,88.3c2.6,2.7,7.7,3.6,11.7,4.1
			c26.6,3.4,53.3,6.4,79.9,9.5C553,1007.7,569,1009.4,584.9,1011.1z M768.5,1105.3c6.5-27.8,12.6-54.2,19.1-82.1
			c-55.3,0-108.8,0-164.9,0C672.5,1051.2,720,1078,768.5,1105.3z M776.8,1107.8c52.9,2.2,104.3,4.3,155.7,6.4
			c0.2-0.7,0.4-1.5,0.6-2.2c-45.5-28.5-91.1-57-137.3-85.9C789.4,1053.8,783.2,1080.2,776.8,1107.8z M326.6,286.9
			c21.6,6.9,41,12.8,60,19.4c6.3,2.2,9.3,0.6,12.8-4.6c24.4-35.4,49.2-70.7,73.8-106c7.9-11.2,15.7-22.5,23.6-33.7
			c-0.5-0.5-1.1-1-1.6-1.5C439.6,202.3,384,244,326.6,286.9z M71.4,668.7c0.7,0.2,1.5,0.5,2.2,0.7c33.8-74.2,67.6-148.3,102.3-224.3
			c-2.7,1.2-3.1,1.3-3.3,1.5c-37.9,53.1-75.9,106.1-113.6,159.3c-1.8,2.5-2.4,7-1.6,10.1C61.8,633.6,66.7,651.1,71.4,668.7z
			 M1595.9,1163.6c0-0.6,0.1-1.2,0.1-1.8c-46.4-9.8-92.8-19.5-139.8-29.4c-8.5,21.2-16.8,41.7-25.9,64.3
			C1487.3,1185.3,1541.6,1174.5,1595.9,1163.6z M343,1139.6c-0.7,0.5-1.4,1.1-2.2,1.6c100.6,173.3,201.1,346.6,301.7,520
			C559,1477.9,447.3,1310.9,343,1139.6z M1446.6,1133.5c-44.9,10-87.8,19.6-130.7,29.1c0,0.8,0.1,1.6,0.1,2.4
			c34.8,10.7,69.6,21.4,104.7,32.2C1429.4,1175.6,1437.6,1155.4,1446.6,1133.5z M179.7,771.5c-0.4,0.6-0.8,1.1-1.2,1.7
			c21,33.8,42.1,67.6,64.3,103.3c7.3-25.9,14-49.2,20.8-73.3C235.1,792.4,207.4,782,179.7,771.5z M249.8,883.3
			c26.8,2.3,52.5,4.4,80.8,6.8c-20.9-27.8-40-53.3-60-80C263.5,835.2,256.9,858.4,249.8,883.3z M1502,1357.4c0.5,0.6,1,1.3,1.4,1.9
			c96.2-69.3,192.5-138.7,288.7-208c-0.6-1-1.1-1.9-1.7-2.9c-24.3,13.1-50.6,23.4-72.5,39.8c-58.9,43.9-115.9,90.4-173.7,135.8
			C1530.1,1335.1,1516.1,1346.3,1502,1357.4z M1654.8,1161.2c0,0.7-0.1,1.4-0.1,2c9.8,1.7,19.8,2.4,29.2,5.4
			c24.1,7.6,46.5,5.6,67.4-9.2c3.5-2.4,7.6-3.9,11.5-5.9c17-8.7,33.9-17.4,50.9-26.1c-0.2-0.6-0.5-1.2-0.7-1.7
			C1760.3,1137.6,1707.6,1149.4,1654.8,1161.2z M156.8,759.8c-22.6-18.2-43.6-35.2-64.6-52.3c-0.6,0.5-1.3,1.1-1.9,1.6
			c10.8,18.7,21.6,37.4,32.6,55.9c0.8,1.4,4,2.5,5.7,2.1C137.5,765.2,146.3,762.6,156.8,759.8z M1681.9,1144
			c0.2,0.7,0.5,1.5,0.7,2.2c41.6-9.3,83.2-18.7,124.8-28c-12.9-1.9-25.5-2-38.1-1.9c-7.6,0-15.9-1.7-22.6,0.8
			C1724.8,1125.3,1703.4,1134.9,1681.9,1144z M1936.9,1011.7c-0.3-0.5-0.6-0.9-0.9-1.4c-5.2,1.8-10.5,3.5-15.6,5.6
			c-5.1,2-12.4,3.1-14.7,6.9c-9.7,16.2-17.9,33.4-26.7,50.2c0.7,0.5,1.5,1,2.2,1.5C1899.8,1053.6,1918.3,1032.7,1936.9,1011.7z"/>
	</g>
</g>
</svg>
