<?xml version="1.0" encoding="utf-8"?>
<!-- Generator: Adobe Illustrator 22.0.1, SVG Export Plug-In . SVG Version: 6.00 Build 0)  -->
<svg version="1.1" id="Layer_1" xmlns="http://www.w3.org/2000/svg" xmlns:xlink="http://www.w3.org/1999/xlink" x="0px" y="0px"
	 viewBox="0 0 2000 2000" style="enable-background:new 0 0 2000 2000;" xml:space="preserve">
<g>
	<g>
		<path d="M1174,1803c-28.6-25.4-57.2-50.8-85.8-76.3c-127.6-114.1-254.9-228.4-382.8-342.1c-69.4-61.7-139.6-122.4-209.7-183.3
			c-17.2-15-35.4-28.9-53.1-43.2c-1.3-1-2.7-2.2-4.2-2.6c-7.1-1.9-10.4-7.7-13.1-13.4c-2.5-5.4,0.3-10.2,4-14.5
			c23.9-28.3,47.7-56.6,71.5-84.9c68.5-81.3,137-162.6,205.4-244c3.8-4.5,8.1-6.9,13.8-8c72.5-13.4,144.9-27.3,217.5-40.3
			c40.3-7.2,80.8-12.9,121.3-19.4c49.8-8.1,99.6-16,149.3-24.6c22.2-3.8,44.5-3.4,66.8-4.2c61.8-2.2,123.6-3.7,185.4-6.2
			c10.4-0.4,17.9,2.8,24.8,9.9c10.8,11.1,21.9,21.9,32.9,32.8c71.6,70.1,143.1,140.1,214.8,210.1c2,2,4.7,3.5,7.3,4.6
			c6.9,2.9,10.1,9.6,7.1,16.7c-1.1,2.6-2.7,5-4.2,7.3c-182.1,269.5-364.2,539.1-546.4,808.5c-4.3,6.3-10.3,11.4-15.5,17
			C1178.7,1803,1176.3,1803,1174,1803z M1181,1715c0.3-0.1,0.6-0.2,0.8-0.3c37.4-204.6,74.8-409.1,112.4-614.4
			c-74.8,8.1-148.9,16.2-223.3,24.3C1107.7,1321.9,1144.4,1518.5,1181,1715z M1058.6,1126c-66.2,7.2-131.9,14.4-198.2,21.6
			c104.2,198.5,208,396.2,311.8,593.9c0.4-0.1,0.7-0.2,1.1-0.4C1135.1,1536.2,1096.9,1331.4,1058.6,1126z M1518.3,1039.9
			c-2.6,0.7-4.3,1.1-6,1.6c-59.5,16.9-119,34-178.7,50.3c-10.5,2.8-14.1,7.6-15.9,17.9c-11.3,64.8-23.4,129.4-35.3,194
			c-11.8,64.5-23.6,129-35.4,193.5c-11.2,61.1-22.3,122.1-33.5,183.2c-2.9,15.7-5.7,31.4-8.6,47.1c0.4,0.1,0.8,0.3,1.2,0.4
			C1310,1498.8,1414,1269.8,1518.3,1039.9z M1125.2,1711.8c0.3-0.2,0.6-0.5,0.9-0.7c-7.6-15.7-14.8-31.6-22.9-47
			c-89.7-171.1-179.5-342.2-269.2-513.3c-1.6-3-3.5-3.8-6.6-3.7c-58.6,1.4-117.3,2.7-175.9,4.1c-0.9,0-1.8,0.2-3.6,0.4
			C807.4,1338.8,966.3,1525.3,1125.2,1711.8z M1250.9,1659.3c0.3,0.2,0.6,0.5,0.9,0.7c151.4-224.1,302.9-448.3,454.9-673.3
			c-2.5,0.6-3.8,0.8-5,1.2c-53.8,15.2-107.5,30.5-161.4,45.5c-4.9,1.4-7.4,3.8-9.4,8.2c-86.5,190.8-173,381.5-259.6,572.3
			C1264.5,1629.1,1257.7,1644.2,1250.9,1659.3z M1058.9,1097.4c1.4-2.9,2.3-4.7,3.1-6.4c51.2-113.5,102.2-227,153.6-340.3
			c3.3-7.2,2.2-13.3-0.3-20.3c-88.9,14.6-177.7,29.2-266.8,43.8C985.3,882,1021.9,989.1,1058.9,1097.4z M480.9,1154
			c-0.1,0.7-0.2,1.3-0.3,2c106,89.3,209.5,181.5,313,273.6c103.5,92.2,206.5,184.8,309.8,277.2c-0.4-1.9-1.4-3.2-2.5-4.5
			c-83.4-97.9-166.8-195.8-250.2-293.7c-71.6-84.1-143.3-168.1-214.8-252.3c-2.9-3.4-5.8-4.6-10.2-4.5c-32.6,0.9-65.3,1.6-97.9,2.2
			C512.1,1154.3,496.5,1154,480.9,1154z M1294.5,1075.2c-23.7-103.9-47.3-207.1-70.8-310.2c-0.4,0-0.7,0-1.1,0
			c-50.1,111.2-100.3,222.4-150.8,334.4C1146.5,1091.3,1220.1,1083.2,1294.5,1075.2z M1514.1,1012.4
			c-90.1-91.9-179.6-183.3-269.1-274.6c-0.5,0.2-0.9,0.4-1.4,0.6c24.6,109.2,49.2,218.4,73.9,327.7
			C1383.4,1048.1,1448.2,1030.4,1514.1,1012.4z M634.7,1123c2.5,0,3.6,0,4.8,0c63.8-0.9,127.6-1.9,191.4-2.7c4,0,4.5-2,5.2-5
			C857,1030.1,878,944.8,899,859.6c5-20.5,9.9-41,14.8-61.5c-0.2-0.1-0.5-0.3-0.7-0.4C820.5,905.8,728,1013.9,634.7,1123z
			 M1524.9,1005.7c-0.2-1.8-0.3-2.4-0.4-3.1c-10.9-57.2-21.8-114.4-32.7-171.7c-6.2-32.7-12.5-65.4-18.8-98.1
			c-1.4-7.1-7.1-11.9-14.2-11.7c-19.3,0.6-38.6,1.3-58,1.9c-46.6,1.5-93.3,2.9-139.9,4.4c-2.4,0.1-4.8,0.3-8.3,0.5
			C1343.7,820.8,1433.9,912.9,1524.9,1005.7z M941.7,792.7c-0.4,0-0.8,0-1.1,0.1c-26.4,109.6-52.8,219.1-79.4,329.5
			c62.4-6.8,124.1-13.5,186.2-20.3C1012,998.5,976.9,895.6,941.7,792.7z M911.2,780.8c-2.2,0.2-3,0.2-3.8,0.3
			c-57.9,10.8-115.8,21.7-173.8,32.2c-7.9,1.4-13.8,3.6-13.1,13c0.1,0.9-0.5,1.9-0.8,2.9c-26.4,86-52.9,172-79.3,258.1
			c-1.4,4.5-2.7,8.9-4,13.4c0.3,0.1,0.5,0.2,0.8,0.4C728.2,994.6,819.3,888.2,911.2,780.8z M1489,745.1c-0.3,0.1-0.7,0.2-1,0.4
			c16.6,86.7,33.1,173.4,49.8,260.4c56.8-15.5,113-30.9,170.2-46.5C1634.5,887.6,1561.7,816.3,1489,745.1z M702.2,843.7
			c-0.3-0.2-0.6-0.3-0.9-0.5c-78.9,93.8-157.9,187.5-237.6,282.2c2.6,0,3.8,0,4.9,0c47.3-0.7,94.6-1.4,142-1.9
			c4.4,0,6.2-1.4,7.5-5.6c25.1-82.1,50.4-164.1,75.6-246.1C696.6,862.3,699.4,853,702.2,843.7z"/>
		<path d="M990,199c6.7,2.4,9.6,7.3,10.5,14.2c4.7,35.3,9.6,70.6,14.5,105.9c5.2,37.8,10.4,75.5,15.6,113.3
			c5.2,37.6,10.3,75.2,15.5,112.8c2.5,18.5,5,36.9,7.7,55.4c1.6,11.4-6.4,19.1-16.3,15.6c-5.4-1.9-7.5-6.4-8.2-11.5
			c-4.1-29.7-8.1-59.4-12.2-89c-5.2-37.6-10.4-75.2-15.5-112.8c-5.2-37.6-10.3-75.2-15.4-112.8c-3.4-24.7-6.8-49.5-10.1-74.2
			c-1.3-9.5,1.2-13.3,10.1-16.7C987.3,199,988.7,199,990,199z"/>
		<path d="M41,878c6.3-10.9,11.3-12.2,22.3-6.1c91,50.7,182,101.4,272.9,152.1c8.3,4.6,11,11,7.6,17.9c-2.5,5.1-8.1,7.7-13.7,6.2
			c-2.2-0.6-4.4-1.5-6.4-2.7c-91-50.7-182-101.3-272.9-152.2c-3.8-2.1-6.6-6.1-9.9-9.2C41,882,41,880,41,878z"/>
		<path d="M1961,679c-2.5,3.4-4.4,7.5-7.6,10.1c-69.6,55.6-139.3,111-209.1,166.4c-6.8,5.4-13.2,5.8-18,1.3
			c-6.4-5.9-5.5-14.2,2.3-20.5c12.9-10.3,25.8-20.5,38.7-30.8c56.8-45.2,113.6-90.3,170.4-135.6c4.8-3.8,9.9-7.1,15.8-3.6
			c3.1,1.8,5,5.7,7.5,8.6C1961,676.3,1961,677.7,1961,679z"/>
		<path d="M1542.7,289.9c6.1,0.1,11.7,6.5,10.5,13.7c-0.4,2.4-1.3,4.8-2.4,7c-43.9,88.3-87.9,176.6-131.8,264.9
			c-4,8-10.2,11-16.8,8.3c-7.3-3-9.8-10.3-5.9-18.3c5.4-11.2,11.1-22.3,16.7-33.5c38.5-77.3,76.9-154.6,115.4-231.9
			C1531.1,294.5,1534.4,289.7,1542.7,289.9z"/>
		<path d="M474.8,464.2c0.8-5.8,3.7-9.4,8.4-11.6c4.2-1.9,9.6-0.5,13.2,3.3c1.5,1.6,2.7,3.4,3.8,5.2c45.7,76.6,91.4,153.2,137,229.8
			c5.1,8.6,4.3,15.4-2.2,19.7c-4.5,3-10.8,2.6-14.6-1.3c-1.7-1.7-3.3-3.8-4.5-5.9c-45.7-76.6-91.4-153.2-137-229.8
			C477.2,470.6,476.1,467.3,474.8,464.2z"/>
		<path d="M561.8,1459.2c-2.6,4.2-4.4,8.1-7.2,11.1c-36.9,40.3-74,80.4-111,120.6c-16.3,17.6-32.5,35.3-48.8,52.9
			c-5.8,6.3-12.9,6.9-18.5,2c-4.2-3.8-5.3-9.4-2.5-14.4c1.1-2,2.5-3.9,4.1-5.6c53-57.6,106.1-115.2,159.1-172.8
			c6.3-6.8,13.2-8.2,18.7-3.3C558.1,1452,559.4,1455.6,561.8,1459.2z"/>
		<path d="M1726.5,1529.9c-3.1-1.7-6.6-2.9-9.2-5.2c-45.2-40.2-90.3-80.5-135.4-120.8c-5.1-4.5-6.5-10.7-3.9-15.7
			c2.4-4.7,7.6-7.6,12.9-6.4c2.9,0.7,5.9,2.4,8.2,4.4c44.9,40,89.8,80,134.6,120.1c5.1,4.6,6.6,9.9,4.6,15.1
			C1736.5,1525.9,1731.9,1529,1726.5,1529.9z"/>
	</g>
</g>
</svg>
