  0
SECTION
  2
HEADER
  9
$ACADVER
  1
AC1024
  9
$ACADMAINTVER
 70
     6
  9
$DWGCODEPAGE
  3
ANSI_1252
  9
$INSBASE
 10
0.0
 20
0.0
 30
0.0
  9
$EXTMIN
 10
1.000000000000000E+20
 20
1.000000000000000E+20
 30
1.000000000000000E+20
  9
$EXTMAX
 10
-1.000000000000000E+20
 20
-1.000000000000000E+20
 30
-1.000000000000000E+20
  9
$LIMMIN
 10
0.0
 20
0.0
  9
$LIMMAX
 10
12.0
 20
9.0
  9
$ORTHOMODE
 70
     0
  9
$REGENMODE
 70
     1
  9
$FILLMODE
 70
     1
  9
$QTEXTMODE
 70
     0
  9
$MIRRTEXT
 70
     1
  9
$LTSCALE
 40
1.0
  9
$ATTMODE
 70
     1
  9
$TEXTSIZE
 40
0.2
  9
$TRACEWID
 40
0.05
  9
$TEXTSTYLE
  7
Standard
  9
$CLAYER
  8
0
  9
$CELTYPE
  6
ByLayer
  9
$CECOLOR
 62
   256
  9
$CELTSCALE
 40
1.0
  9
$DISPSILH
 70
     0
  9
$DIMSCALE
 40
1.0
  9
$DIMASZ
 40
0.18
  9
$DIMEXO
 40
0.0625
  9
$DIMDLI
 40
0.38
  9
$DIMRND
 40
0.0
  9
$DIMDLE
 40
0.0
  9
$DIMEXE
 40
0.18
  9
$DIMTP
 40
0.0
  9
$DIMTM
 40
0.0
  9
$DIMTXT
 40
0.18
  9
$DIMCEN
 40
0.09
  9
$DIMTSZ
 40
0.0
  9
$DIMTOL
 70
     0
  9
$DIMLIM
 70
     0
  9
$DIMTIH
 70
     1
  9
$DIMTOH
 70
     1
  9
$DIMSE1
 70
     0
  9
$DIMSE2
 70
     0
  9
$DIMTAD
 70
     0
  9
$DIMZIN
 70
     0
  9
$DIMBLK
  1

  9
$DIMASO
 70
     1
  9
$DIMSHO
 70
     1
  9
$DIMPOST
  1

  9
$DIMAPOST
  1

  9
$DIMALT
 70
     0
  9
$DIMALTD
 70
     2
  9
$DIMALTF
 40
25.4
  9
$DIMLFAC
 40
1.0
  9
$DIMTOFL
 70
     0
  9
$DIMTVP
 40
0.0
  9
$DIMTIX
 70
     0
  9
$DIMSOXD
 70
     0
  9
$DIMSAH
 70
     0
  9
$DIMBLK1
  1

  9
$DIMBLK2
  1

  9
$DIMSTYLE
  2
Standard
  9
$DIMCLRD
 70
     0
  9
$DIMCLRE
 70
     0
  9
$DIMCLRT
 70
     0
  9
$DIMTFAC
 40
1.0
  9
$DIMGAP
 40
0.09
  9
$DIMJUST
 70
     0
  9
$DIMSD1
 70
     0
  9
$DIMSD2
 70
     0
  9
$DIMTOLJ
 70
     1
  9
$DIMTZIN
 70
     0
  9
$DIMALTZ
 70
     0
  9
$DIMALTTZ
 70
     0
  9
$DIMUPT
 70
     0
  9
$DIMDEC
 70
     4
  9
$DIMTDEC
 70
     4
  9
$DIMALTU
 70
     2
  9
$DIMALTTD
 70
     2
  9
$DIMTXSTY
  7
Standard
  9
$DIMAUNIT
 70
     0
  9
$DIMADEC
 70
     0
  9
$DIMALTRND
 40
0.0
  9
$DIMAZIN
 70
     0
  9
$DIMDSEP
 70
    46
  9
$DIMATFIT
 70
     3
  9
$DIMFRAC
 70
     0
  9
$DIMLDRBLK
  1

  9
$DIMLUNIT
 70
     2
  9
$DIMLWD
 70
    -2
  9
$DIMLWE
 70
    -2
  9
$DIMTMOVE
 70
     0
  9
$DIMFXL
 40
1.0
  9
$DIMFXLON
 70
     0
  9
$DIMJOGANG
 40
0.7853981633974483
  9
$DIMTFILL
 70
     0
  9
$DIMTFILLCLR
 70
     0
  9
$DIMARCSYM
 70
     0
  9
$DIMLTYPE
  6

  9
$DIMLTEX1
  6

  9
$DIMLTEX2
  6

  9
$DIMTXTDIRECTION
 70
     0
  9
$LUNITS
 70
     2
  9
$LUPREC
 70
     4
  9
$SKETCHINC
 40
0.1
  9
$FILLETRAD
 40
0.5
  9
$AUNITS
 70
     0
  9
$AUPREC
 70
     0
  9
$MENU
  1
.
  9
$ELEVATION
 40
0.0
  9
$PELEVATION
 40
0.0
  9
$THICKNESS
 40
0.0
  9
$LIMCHECK
 70
     0
  9
$CHAMFERA
 40
0.5
  9
$CHAMFERB
 40
0.5
  9
$CHAMFERC
 40
1.0
  9
$CHAMFERD
 40
0.0
  9
$SKPOLY
 70
     0
  9
$TDCREATE
 40
2458128.813349132
  9
$TDUCREATE
 40
2458129.021682465
  9
$TDUPDATE
 40
2458128.813349201
  9
$TDUUPDATE
 40
2458129.021682535
  9
$TDINDWG
 40
0.0000000116
  9
$TDUSRTIMER
 40
0.0000000116
  9
$USRTIMER
 70
     1
  9
$ANGBASE
 50
0.0
  9
$ANGDIR
 70
     0
  9
$PDMODE
 70
     0
  9
$PDSIZE
 40
0.0
  9
$PLINEWID
 40
0.0
  9
$SPLFRAME
 70
     0
  9
$SPLINETYPE
 70
     6
  9
$SPLINESEGS
 70
     8
  9
$HANDSEED
  5
6A
  9
$SURFTAB1
 70
     6
  9
$SURFTAB2
 70
     6
  9
$SURFTYPE
 70
     6
  9
$SURFU
 70
     6
  9
$SURFV
 70
     6
  9
$UCSBASE
  2

  9
$UCSNAME
  2

  9
$UCSORG
 10
0.0
 20
0.0
 30
0.0
  9
$UCSXDIR
 10
1.0
 20
0.0
 30
0.0
  9
$UCSYDIR
 10
0.0
 20
1.0
 30
0.0
  9
$UCSORTHOREF
  2

  9
$UCSORTHOVIEW
 70
     0
  9
$UCSORGTOP
 10
0.0
 20
0.0
 30
0.0
  9
$UCSORGBOTTOM
 10
0.0
 20
0.0
 30
0.0
  9
$UCSORGLEFT
 10
0.0
 20
0.0
 30
0.0
  9
$UCSORGRIGHT
 10
0.0
 20
0.0
 30
0.0
  9
$UCSORGFRONT
 10
0.0
 20
0.0
 30
0.0
  9
$UCSORGBACK
 10
0.0
 20
0.0
 30
0.0
  9
$PUCSBASE
  2

  9
$PUCSNAME
  2

  9
$PUCSORG
 10
0.0
 20
0.0
 30
0.0
  9
$PUCSXDIR
 10
1.0
 20
0.0
 30
0.0
  9
$PUCSYDIR
 10
0.0
 20
1.0
 30
0.0
  9
$PUCSORTHOREF
  2

  9
$PUCSORTHOVIEW
 70
     0
  9
$PUCSORGTOP
 10
0.0
 20
0.0
 30
0.0
  9
$PUCSORGBOTTOM
 10
0.0
 20
0.0
 30
0.0
  9
$PUCSORGLEFT
 10
0.0
 20
0.0
 30
0.0
  9
$PUCSORGRIGHT
 10
0.0
 20
0.0
 30
0.0
  9
$PUCSORGFRONT
 10
0.0
 20
0.0
 30
0.0
  9
$PUCSORGBACK
 10
0.0
 20
0.0
 30
0.0
  9
$USERI1
 70
     0
  9
$USERI2
 70
     0
  9
$USERI3
 70
     0
  9
$USERI4
 70
     0
  9
$USERI5
 70
     0
  9
$USERR1
 40
0.0
  9
$USERR2
 40
0.0
  9
$USERR3
 40
0.0
  9
$USERR4
 40
0.0
  9
$USERR5
 40
0.0
  9
$WORLDVIEW
 70
     1
  9
$SHADEDGE
 70
     3
  9
$SHADEDIF
 70
    70
  9
$TILEMODE
 70
     1
  9
$MAXACTVP
 70
    64
  9
$PINSBASE
 10
0.0
 20
0.0
 30
0.0
  9
$PLIMCHECK
 70
     0
  9
$PEXTMIN
 10
1.000000000000000E+20
 20
1.000000000000000E+20
 30
1.000000000000000E+20
  9
$PEXTMAX
 10
-1.000000000000000E+20
 20
-1.000000000000000E+20
 30
-1.000000000000000E+20
  9
$PLIMMIN
 10
0.0
 20
0.0
  9
$PLIMMAX
 10
12.0
 20
9.0
  9
$UNITMODE
 70
     0
  9
$VISRETAIN
 70
     1
  9
$PLINEGEN
 70
     0
  9
$PSLTSCALE
 70
     1
  9
$TREEDEPTH
 70
  3020
  9
$CMLSTYLE
  2
Standard
  9
$CMLJUST
 70
     0
  9
$CMLSCALE
 40
1.0
  9
$PROXYGRAPHICS
 70
     1
  9
$MEASUREMENT
 70
     0
  9
$CELWEIGHT
370
    -1
  9
$ENDCAPS
280
     0
  9
$JOINSTYLE
280
     0
  9
$LWDISPLAY
290
     1
  9
$INSUNITS
 70
     1
  9
$HYPERLINKBASE
  1

  9
$STYLESHEET
  1

  9
$XEDIT
290
     1
  9
$CEPSNTYPE
380
     0
  9
$PSTYLEMODE
290
     1
  9
$FINGERPRINTGUID
  2
{72C1FE54-8291-4121-98B0-F11993CE20AE}
  9
$VERSIONGUID
  2
{FAEB1C32-E019-11D5-929B-00C0DF256EC4}
  9
$EXTNAMES
290
     1
  9
$PSVPSCALE
 40
0.0
  9
$OLESTARTUP
290
     0
  9
$SORTENTS
280
   127
  9
$INDEXCTL
280
     0
  9
$HIDETEXT
280
     1
  9
$XCLIPFRAME
280
     2
  9
$HALOGAP
280
     0
  9
$OBSCOLOR
 70
   257
  9
$OBSLTYPE
280
     0
  9
$INTERSECTIONDISPLAY
280
     0
  9
$INTERSECTIONCOLOR
 70
   257
  9
$DIMASSOC
280
     2
  9
$PROJECTNAME
  1

  9
$CAMERADISPLAY
290
     0
  9
$LENSLENGTH
 40
50.0
  9
$CAMERAHEIGHT
 40
0.0
  9
$STEPSPERSEC
 40
2.0
  9
$STEPSIZE
 40
6.0
  9
$3DDWFPREC
 40
2.0
  9
$PSOLWIDTH
 40
0.25
  9
$PSOLHEIGHT
 40
4.0
  9
$LOFTANG1
 40
1.570796326794897
  9
$LOFTANG2
 40
1.570796326794897
  9
$LOFTMAG1
 40
0.0
  9
$LOFTMAG2
 40
0.0
  9
$LOFTPARAM
 70
     7
  9
$LOFTNORMALS
280
     1
  9
$LATITUDE
 40
37.795
  9
$LONGITUDE
 40
-122.394
  9
$NORTHDIRECTION
 40
0.0
  9
$TIMEZONE
 70
 -8000
  9
$LIGHTGLYPHDISPLAY
280
     1
  9
$TILEMODELIGHTSYNCH
280
     1
  9
$CMATERIAL
347
3C
  9
$SOLIDHIST
280
     1
  9
$SHOWHIST
280
     1
  9
$DWFFRAME
280
     2
  9
$DGNFRAME
280
     2
  9
$REALWORLDSCALE
290
     1
  9
$INTERFERECOLOR
 62
   256
  9
$CSHADOW
280
     0
  9
$SHADOWPLANELOCATION
 40
0.0
  0
ENDSEC
  0
SECTION
  2
CLASSES
  0
CLASS
  1
ACDBDICTIONARYWDFLT
  2
AcDbDictionaryWithDefault
  3
ObjectDBX Classes
 90
        0
 91
        4
280
     0
281
     0
  0
CLASS
  1
VISUALSTYLE
  2
AcDbVisualStyle
  3
ObjectDBX Classes
 90
     4095
 91
        4
280
     0
281
     0
  0
CLASS
  1
MATERIAL
  2
AcDbMaterial
  3
ObjectDBX Classes
 90
     1153
 91
        4
280
     0
281
     0
  0
CLASS
  1
SUN
  2
AcDbSun
  3
SCENEOE
 90
     1024
 91
        4
280
     0
281
     0
  0
ENDSEC
  0
SECTION
  2
TABLES
  0
TABLE
  2
VPORT
  5
8
330
0
100
AcDbSymbolTable
 70
     1
  0
VPORT
  5
29
330
8
100
AcDbSymbolTableRecord
100
AcDbViewportTableRecord
  2
*Active
 70
     0
 10
0.0
 20
0.0
 11
1.0
 21
1.0
 12
0.0
 22
0.0
 13
0.0
 23
0.0
 14
0.5
 24
0.5
 15
0.5
 25
0.5
 16
0.0
 26
0.0
 36
1.0
 17
1000.0
 27
-1000.0
 37
0.0
 40
2000.0
 41
1.0
 42
50.0
 43
0.0
 44
0.0
 50
0.0
 51
0.0
 71
     0
 72
   100
 73
     1
 74
     3
 75
     0
 76
     0
 77
     0
 78
     0
281
     0
 65
     1
110
0.0
120
0.0
130
0.0
111
1.0
121
0.0
131
0.0
112
0.0
122
1.0
132
0.0
 79
     0
146
0.0
 60
     3
 61
     5
292
     1
282
     1
141
0.0
142
0.0
 63
   250
361
3F
  0
ENDTAB
  0
TABLE
  2
LTYPE
  5
5
330
0
100
AcDbSymbolTable
 70
     1
  0
LTYPE
  5
14
330
5
100
AcDbSymbolTableRecord
100
AcDbLinetypeTableRecord
  2
ByBlock
 70
     0
  3

 72
    65
 73
     0
 40
0.0
  0
LTYPE
  5
15
330
5
100
AcDbSymbolTableRecord
100
AcDbLinetypeTableRecord
  2
ByLayer
 70
     0
  3

 72
    65
 73
     0
 40
0.0
  0
LTYPE
  5
16
330
5
100
AcDbSymbolTableRecord
100
AcDbLinetypeTableRecord
  2
Continuous
 70
     0
  3
Solid line
 72
    65
 73
     0
 40
0.0
  0
ENDTAB
  0
TABLE
  2
LAYER
  5
2
330
0
100
AcDbSymbolTable
 70
     2
  0
LAYER
  5
10
330
2
100
AcDbSymbolTableRecord
100
AcDbLayerTableRecord
  2
0
 70
     0
 62
     7
  6
Continuous
370
    -3
390
F
347
3E
  0
LAYER
  5
40
330
2
100
AcDbSymbolTableRecord
100
AcDbLayerTableRecord
  2
Layer 1
 70
     0
 62
     7
  6
Continuous
370
    -3
390
F
347
3E
  0
ENDTAB
  0
TABLE
  2
STYLE
  5
3
330
0
100
AcDbSymbolTable
 70
     1
  0
STYLE
  5
11
330
3
100
AcDbSymbolTableRecord
100
AcDbTextStyleTableRecord
  2
Standard
 70
     0
 40
0.0
 41
1.0
 50
0.0
 71
     0
 42
0.2
  3
txt
  4

  0
ENDTAB
  0
TABLE
  2
VIEW
  5
6
330
0
100
AcDbSymbolTable
 70
     0
  0
ENDTAB
  0
TABLE
  2
UCS
  5
7
330
0
100
AcDbSymbolTable
 70
     0
  0
ENDTAB
  0
TABLE
  2
APPID
  5
9
330
0
100
AcDbSymbolTable
 70
     1
  0
APPID
  5
12
330
9
100
AcDbSymbolTableRecord
100
AcDbRegAppTableRecord
  2
ACAD
 70
     0
  0
ENDTAB
  0
TABLE
  2
DIMSTYLE
  5
A
330
0
100
AcDbSymbolTable
 70
     1
100
AcDbDimStyleTable
  0
DIMSTYLE
105
27
330
A
100
AcDbSymbolTableRecord
100
AcDbDimStyleTableRecord
  2
Standard
 70
     0
178
     0
340
11
  0
ENDTAB
  0
TABLE
  2
BLOCK_RECORD
  5
1
330
0
100
AcDbSymbolTable
 70
     3
  0
BLOCK_RECORD
  5
1F
330
1
100
AcDbSymbolTableRecord
100
AcDbBlockTableRecord
  2
*Model_Space
340
22
 70
     0
280
     1
281
     0
  0
BLOCK_RECORD
  5
1B
330
1
100
AcDbSymbolTableRecord
100
AcDbBlockTableRecord
  2
*Paper_Space
340
1E
 70
     0
280
     1
281
     0
  0
BLOCK_RECORD
  5
23
330
1
100
AcDbSymbolTableRecord
100
AcDbBlockTableRecord
  2
*Paper_Space0
340
26
 70
     0
280
     1
281
     0
  0
BLOCK_RECORD
  5
41
330
1
100
AcDbSymbolTableRecord
100
AcDbBlockTableRecord
  2
block 2
340
0
102
{BLKREFS
331
42
102
}
 70
     0
280
     1
281
     0
  0
BLOCK_RECORD
  5
45
330
1
100
AcDbSymbolTableRecord
100
AcDbBlockTableRecord
  2
block 3
340
0
102
{BLKREFS
331
46
102
}
 70
     0
280
     1
281
     0
  0
ENDTAB
  0
ENDSEC
  0
SECTION
  2
BLOCKS
  0
BLOCK
  5
20
330
1F
100
AcDbEntity
  8
0
100
AcDbBlockBegin
  2
*Model_Space
 70
     0
 10
0.0
 20
0.0
 30
0.0
  3
*Model_Space
  1

  0
ENDBLK
  5
21
330
1F
100
AcDbEntity
  8
0
100
AcDbBlockEnd
  0
BLOCK
  5
1C
330
1B
100
AcDbEntity
 67
     1
  8
0
100
AcDbBlockBegin
  2
*Paper_Space
 70
     0
 10
0.0
 20
0.0
 30
0.0
  3
*Paper_Space
  1

  0
ENDBLK
  5
1D
330
1B
100
AcDbEntity
 67
     1
  8
0
100
AcDbBlockEnd
  0
BLOCK
  5
24
330
23
100
AcDbEntity
  8
0
100
AcDbBlockBegin
  2
*Paper_Space0
 70
     0
 10
0.0
 20
0.0
 30
0.0
  3
*Paper_Space0
  1

  0
ENDBLK
  5
25
330
23
100
AcDbEntity
  8
0
100
AcDbBlockEnd
  0
BLOCK
  5
43
330
41
100
AcDbEntity
  8
0
100
AcDbBlockBegin
  2
block 2
 70
     0
 10
0.0
 20
0.0
 30
0.0
  3
block 2
  1

  0
INSERT
  5
46
330
41
100
AcDbEntity
  8
Layer 1
100
AcDbBlockReference
  2
block 3
 10
0.0
 20
0.0
 30
0.0
  0
ENDBLK
  5
44
330
41
100
AcDbEntity
  8
0
100
AcDbBlockEnd
  0
BLOCK
  5
47
330
45
100
AcDbEntity
  8
0
100
AcDbBlockBegin
  2
block 3
 70
     0
 10
0.0
 20
0.0
 30
0.0
  3
block 3
  1

  0
SPLINE
  5
49
330
45
100
AcDbEntity
  8
Layer 1
370
     0
100
AcDbSpline
210
0.0
220
0.0
230
1.0
 70
    11
 71
     3
 72
    77
 73
    73
 74
     0
 42
0.0000000001
 43
0.0000000001
 12
1.0
 22
0.0
 32
0.0
 13
1.0
 23
0.0
 33
0.0
 40
0.0
 40
0.0
 40
0.0
 40
0.0
 40
1.0
 40
1.0
 40
1.0
 40
2.0
 40
2.0
 40
2.0
 40
3.0
 40
3.0
 40
3.0
 40
4.0
 40
4.0
 40
4.0
 40
5.0
 40
5.0
 40
5.0
 40
6.0
 40
6.0
 40
6.0
 40
7.0
 40
7.0
 40
7.0
 40
8.0
 40
8.0
 40
8.0
 40
9.0
 40
9.0
 40
9.0
 40
10.0
 40
10.0
 40
10.0
 40
11.0
 40
11.0
 40
11.0
 40
12.0
 40
12.0
 40
12.0
 40
13.0
 40
13.0
 40
13.0
 40
14.0
 40
14.0
 40
14.0
 40
15.0
 40
15.0
 40
15.0
 40
16.0
 40
16.0
 40
16.0
 40
17.0
 40
17.0
 40
17.0
 40
18.0
 40
18.0
 40
18.0
 40
19.0
 40
19.0
 40
19.0
 40
20.0
 40
20.0
 40
20.0
 40
21.0
 40
21.0
 40
21.0
 40
22.0
 40
22.0
 40
22.0
 40
23.0
 40
23.0
 40
23.0
 40
24.0
 40
24.0
 40
24.0
 40
24.0
 10
1174.0
 20
-1803.0
 30
0.0
 10
1145.411376953125
 20
-1777.581420898438
 30
0.0
 10
1116.765747070312
 20
-1752.226684570312
 30
0.0
 10
1088.244018554688
 20
-1726.733276367188
 30
0.0
 10
960.6397705078125
 20
-1612.676391601562
 30
0.0
 10
833.304443359375
 20
-1498.317138671875
 30
0.0
 10
705.3956909179688
 20
-1384.602905273438
 30
0.0
 10
636.0287475585938
 20
-1322.93408203125
 30
0.0
 10
565.8118896484375
 20
-1262.218505859375
 30
0.0
 10
495.7402954101562
 20
-1201.346984863281
 30
0.0
 10
478.5201416015625
 20
-1186.387817382812
 30
0.0
 10
460.3761291503906
 20
-1172.491394042969
 30
0.0
 10
442.6280822753906
 20
-1158.141967773438
 30
0.0
 10
441.351318359375
 20
-1157.109802246094
 30
0.0
 10
439.9439697265625
 20
-1155.969055175781
 30
0.0
 10
438.415771484375
 20
-1155.564147949219
 30
0.0
 10
431.3585815429688
 20
-1153.694580078125
 30
0.0
 10
428.0594177246094
 20
-1147.900573730469
 30
0.0
 10
425.3525695800781
 20
-1142.201782226562
 30
0.0
 10
422.8091735839844
 20
-1136.84716796875
 30
0.0
 10
425.6990356445312
 20
-1131.962951660156
 30
0.0
 10
429.3307189941406
 20
-1127.660339355469
 30
0.0
 10
453.1915283203125
 20
-1099.391357421875
 30
0.0
 10
476.998779296875
 20
-1071.0771484375
 30
0.0
 10
500.8266906738281
 20
-1042.780395507812
 30
0.0
 10
569.304931640625
 20
-961.458984375
 30
0.0
 10
637.8052368164062
 20
-880.1559448242188
 30
0.0
 10
706.2089233398438
 20
-798.7718505859375
 30
0.0
 10
709.9701538085938
 20
-794.296875
 30
0.0
 10
714.330322265625
 20
-791.8232421875
 30
0.0
 10
720.0322875976562
 20
-790.7677001953125
 30
0.0
 10
792.5302124023438
 20
-777.3472900390625
 30
0.0
 10
864.941162109375
 20
-763.4452514648438
 30
0.0
 10
937.5128784179688
 20
-750.4398803710938
 30
0.0
 10
977.799072265625
 20
-743.2202758789062
 30
0.0
 10
1018.359436035156
 20
-737.5397338867188
 30
0.0
 10
1058.76904296875
 20
-730.99755859375
 30
0.0
 10
1108.559326171875
 20
-722.9367065429688
 30
0.0
 10
1158.375122070312
 20
-715.0113525390625
 30
0.0
 10
1208.070922851562
 20
-706.3990478515625
 30
0.0
 10
1230.245361328125
 20
-702.5561828613281
 30
0.0
 10
1252.558837890625
 20
-703.0165405273438
 30
0.0
 10
1274.825805664062
 20
-702.2084045410156
 30
0.0
 10
1336.610595703125
 20
-699.9660034179688
 30
0.0
 10
1398.4228515625
 20
-698.4593811035156
 30
0.0
 10
1460.200561523438
 20
-696.0557556152344
 30
0.0
 10
1470.572631835938
 20
-695.6521606445312
 30
0.0
 10
1478.071044921875
 20
-698.8589172363281
 30
0.0
 10
1484.965698242188
 20
-705.9543762207031
 30
0.0
 10
1495.759399414062
 20
-717.0625610351562
 30
0.0
 10
1506.84423828125
 20
-727.8907470703125
 30
0.0
 10
1517.912353515625
 20
-738.7288208007812
 30
0.0
 10
1589.477661132812
 20
-808.8077392578125
 30
0.0
 10
1661.061157226562
 20
-878.8682250976562
 30
0.0
 10
1732.711181640625
 20
-948.8604736328125
 30
0.0
 10
1734.735595703125
 20
-950.8380737304688
 30
0.0
 10
1737.418701171875
 20
-952.3483276367188
 30
0.0
 10
1740.056030273438
 20
-953.4513549804688
 30
0.0
 10
1747.005126953125
 20
-956.3579711914062
 30
0.0
 10
1750.111328125
 20
-963.1002197265625
 30
0.0
 10
1747.141723632812
 20
-970.1488037109375
 30
0.0
 10
1746.057006835938
 20
-972.7232666015625
 30
0.0
 10
1744.467895507812
 20
-975.1177978515625
 30
0.0
 10
1742.893310546875
 20
-977.44873046875
 30
0.0
 10
1560.7998046875
 20
-1246.985107421875
 30
0.0
 10
1378.705200195312
 20
-1516.520874023438
 30
0.0
 10
1196.45556640625
 20
-1785.95166015625
 30
0.0
 10
1192.201049804688
 20
-1792.241333007812
 30
0.0
 10
1186.191040039062
 20
-1797.34375
 30
0.0
 10
1181.0
 20
-1803.0
 30
0.0
 10
1178.666625976562
 20
-1803.0
 30
0.0
 10
1176.333374023438
 20
-1803.0
 30
0.0
 10
1174.0
 20
-1803.0
 30
0.0
  0
SPLINE
  5
4A
330
45
100
AcDbEntity
  8
Layer 1
370
     0
100
AcDbSpline
210
0.0
220
0.0
230
1.0
 70
    11
 71
     3
 72
    17
 73
    13
 74
     0
 42
0.0000000001
 43
0.0000000001
 12
1.0
 22
0.0
 32
0.0
 13
1.0
 23
0.0
 33
0.0
 40
0.0
 40
0.0
 40
0.0
 40
0.0
 40
1.0
 40
1.0
 40
1.0
 40
2.0
 40
2.0
 40
2.0
 40
3.0
 40
3.0
 40
3.0
 40
4.0
 40
4.0
 40
4.0
 40
4.0
 10
1181.006713867188
 20
-1715.02197265625
 30
0.0
 10
1181.283325195312
 20
-1714.929443359375
 30
0.0
 10
1181.56005859375
 20
-1714.8369140625
 30
0.0
 10
1181.836669921875
 20
-1714.744506835938
 30
0.0
 10
1219.255004882812
 20
-1510.180297851562
 30
0.0
 10
1256.67333984375
 20
-1305.6162109375
 30
0.0
 10
1294.223999023438
 20
-1100.329223632812
 30
0.0
 10
1219.432495117188
 20
-1108.472778320312
 30
0.0
 10
1145.36865234375
 20
-1116.537109375
 30
0.0
 10
1070.925537109375
 20
-1124.642700195312
 30
0.0
 10
1107.712890625
 20
-1321.937866210938
 30
0.0
 10
1144.35986328125
 20
-1518.47998046875
 30
0.0
 10
1181.006713867188
 20
-1715.02197265625
 30
0.0
  0
SPLINE
  5
4B
330
45
100
AcDbEntity
  8
Layer 1
370
     0
100
AcDbSpline
210
0.0
220
0.0
230
1.0
 70
    11
 71
     3
 72
    17
 73
    13
 74
     0
 42
0.0000000001
 43
0.0000000001
 12
1.0
 22
0.0
 32
0.0
 13
1.0
 23
0.0
 33
0.0
 40
0.0
 40
0.0
 40
0.0
 40
0.0
 40
1.0
 40
1.0
 40
1.0
 40
2.0
 40
2.0
 40
2.0
 40
3.0
 40
3.0
 40
3.0
 40
4.0
 40
4.0
 40
4.0
 40
4.0
 10
1058.564819335938
 20
-1125.978271484375
 30
0.0
 10
992.3417358398438
 20
-1133.196044921875
 30
0.0
 10
926.6947631835938
 20
-1140.351013183594
 30
0.0
 10
860.3880004882812
 20
-1147.577880859375
 30
0.0
 10
964.6138305664062
 20
-1346.1083984375
 30
0.0
 10
1068.382690429688
 20
-1543.768432617188
 30
0.0
 10
1172.151489257812
 20
-1741.428588867188
 30
0.0
 10
1172.52294921875
 20
-1741.304931640625
 30
0.0
 10
1172.894287109375
 20
-1741.181274414062
 30
0.0
 10
1173.265625
 20
-1741.057495117188
 30
0.0
 10
1135.065673828125
 20
-1536.21142578125
 30
0.0
 10
1096.86572265625
 20
-1331.365356445312
 30
0.0
 10
1058.564819335938
 20
-1125.978271484375
 30
0.0
  0
SPLINE
  5
4C
330
45
100
AcDbEntity
  8
Layer 1
370
     0
100
AcDbSpline
210
0.0
220
0.0
230
1.0
 70
    11
 71
     3
 72
    32
 73
    28
 74
     0
 42
0.0000000001
 43
0.0000000001
 12
1.0
 22
0.0
 32
0.0
 13
1.0
 23
0.0
 33
0.0
 40
0.0
 40
0.0
 40
0.0
 40
0.0
 40
1.0
 40
1.0
 40
1.0
 40
2.0
 40
2.0
 40
2.0
 40
3.0
 40
3.0
 40
3.0
 40
4.0
 40
4.0
 40
4.0
 40
5.0
 40
5.0
 40
5.0
 40
6.0
 40
6.0
 40
6.0
 40
7.0
 40
7.0
 40
7.0
 40
8.0
 40
8.0
 40
8.0
 40
9.0
 40
9.0
 40
9.0
 40
9.0
 10
1518.26416015625
 20
-1039.897033691406
 30
0.0
 10
1515.677490234375
 20
-1040.58203125
 30
0.0
 10
1513.953491210938
 20
-1041.011413574219
 30
0.0
 10
1512.244995117188
 20
-1041.494995117188
 30
0.0
 10
1452.704345703125
 20
-1058.346618652344
 30
0.0
 10
1393.253295898438
 20
-1075.527709960938
 30
0.0
 10
1333.542602539062
 20
-1091.753967285156
 30
0.0
 10
1323.0703125
 20
-1094.599731445312
 30
0.0
 10
1319.478149414062
 20
-1099.3173828125
 30
0.0
 10
1317.676147460938
 20
-1109.642517089844
 30
0.0
 10
1306.374755859375
 20
-1174.397888183594
 30
0.0
 10
1294.250366210938
 20
-1239.009521484375
 30
0.0
 10
1282.41357421875
 20
-1303.671630859375
 30
0.0
 10
1270.606567382812
 20
-1368.17041015625
 30
0.0
 10
1258.816528320312
 20
-1432.672241210938
 30
0.0
 10
1247.021118164062
 20
-1497.173095703125
 30
0.0
 10
1235.8544921875
 20
-1558.23583984375
 30
0.0
 10
1224.690673828125
 20
-1619.29931640625
 30
0.0
 10
1213.524658203125
 20
-1680.362182617188
 30
0.0
 10
1210.654418945312
 20
-1696.058471679688
 30
0.0
 10
1207.781005859375
 20
-1711.75439453125
 30
0.0
 10
1204.9091796875
 20
-1727.450439453125
 30
0.0
 10
1205.293701171875
 20
-1727.595947265625
 30
0.0
 10
1205.678100585938
 20
-1727.741577148438
 30
0.0
 10
1206.062622070312
 20
-1727.887084960938
 30
0.0
 10
1310.0087890625
 20
-1498.82373046875
 30
0.0
 10
1413.954956054688
 20
-1269.76025390625
 30
0.0
 10
1518.26416015625
 20
-1039.897033691406
 30
0.0
  0
SPLINE
  5
4D
330
45
100
AcDbEntity
  8
Layer 1
370
     0
100
AcDbSpline
210
0.0
220
0.0
230
1.0
 70
    11
 71
     3
 72
    26
 73
    22
 74
     0
 42
0.0000000001
 43
0.0000000001
 12
1.0
 22
0.0
 32
0.0
 13
1.0
 23
0.0
 33
0.0
 40
0.0
 40
0.0
 40
0.0
 40
0.0
 40
1.0
 40
1.0
 40
1.0
 40
2.0
 40
2.0
 40
2.0
 40
3.0
 40
3.0
 40
3.0
 40
4.0
 40
4.0
 40
4.0
 40
5.0
 40
5.0
 40
5.0
 40
6.0
 40
6.0
 40
6.0
 40
7.0
 40
7.0
 40
7.0
 40
7.0
 10
1125.240966796875
 20
-1711.774169921875
 30
0.0
 10
1125.554809570312
 20
-1711.537841796875
 30
0.0
 10
1125.86865234375
 20
-1711.301635742188
 30
0.0
 10
1126.182495117188
 20
-1711.065307617188
 30
0.0
 10
1118.581909179688
 20
-1695.39404296875
 30
0.0
 10
1111.396484375
 20
-1679.505126953125
 30
0.0
 10
1103.317016601562
 20
-1664.084594726562
 30
0.0
 10
1013.651428222656
 20
-1492.94873046875
 30
0.0
 10
923.8379516601562
 20
-1321.890258789062
 30
0.0
 10
834.15673828125
 20
-1150.762573242188
 30
0.0
 10
832.5595703125
 20
-1147.714782714844
 30
0.0
 10
830.7058715820312
 20
-1147.002258300781
 30
0.0
 10
827.5176391601562
 20
-1147.079650878906
 30
0.0
 10
768.8822631835938
 20
-1148.504272460938
 30
0.0
 10
710.244384765625
 20
-1149.821105957031
 30
0.0
 10
651.6072387695312
 20
-1151.173828125
 30
0.0
 10
650.6994018554688
 20
-1151.194763183594
 30
0.0
 10
649.79541015625
 20
-1151.378845214844
 30
0.0
 10
647.9834594726562
 20
-1151.594665527344
 30
0.0
 10
807.4446411132812
 20
-1338.76171875
 30
0.0
 10
966.3428344726562
 20
-1525.267944335938
 30
0.0
 10
1125.240966796875
 20
-1711.774169921875
 30
0.0
  0
SPLINE
  5
4E
330
45
100
AcDbEntity
  8
Layer 1
370
     0
100
AcDbSpline
210
0.0
220
0.0
230
1.0
 70
    11
 71
     3
 72
    26
 73
    22
 74
     0
 42
0.0000000001
 43
0.0000000001
 12
1.0
 22
0.0
 32
0.0
 13
1.0
 23
0.0
 33
0.0
 40
0.0
 40
0.0
 40
0.0
 40
0.0
 40
1.0
 40
1.0
 40
1.0
 40
2.0
 40
2.0
 40
2.0
 40
3.0
 40
3.0
 40
3.0
 40
4.0
 40
4.0
 40
4.0
 40
5.0
 40
5.0
 40
5.0
 40
6.0
 40
6.0
 40
6.0
 40
7.0
 40
7.0
 40
7.0
 40
7.0
 10
1250.856567382812
 20
-1659.29443359375
 30
0.0
 10
1251.167358398438
 20
-1659.536499023438
 30
0.0
 10
1251.478149414062
 20
-1659.778686523438
 30
0.0
 10
1251.7890625
 20
-1660.020874023438
 30
0.0
 10
1403.218627929688
 20
-1435.88427734375
 30
0.0
 10
1554.648193359375
 20
-1211.747680664062
 30
0.0
 10
1706.7119140625
 20
-986.6724243164062
 30
0.0
 10
1704.22509765625
 20
-987.2640380859375
 30
0.0
 10
1702.954467773438
 20
-987.5172119140625
 30
0.0
 10
1701.7119140625
 20
-987.8687133789062
 30
0.0
 10
1647.931518554688
 20
-1003.0849609375
 30
0.0
 10
1594.173706054688
 20
-1018.382629394531
 30
0.0
 10
1540.340454101562
 20
-1033.410095214844
 30
0.0
 10
1535.482788085938
 20
-1034.766174316406
 30
0.0
 10
1532.966430664062
 20
-1037.227844238281
 30
0.0
 10
1530.959106445312
 20
-1041.657531738281
 30
0.0
 10
1444.5
 20
-1232.448608398438
 30
0.0
 10
1357.932250976562
 20
-1423.1904296875
 30
0.0
 10
1271.381591796875
 20
-1613.940185546875
 30
0.0
 10
1264.525146484375
 20
-1629.051513671875
 30
0.0
 10
1257.697509765625
 20
-1644.176025390625
 30
0.0
 10
1250.856567382812
 20
-1659.29443359375
 30
0.0
  0
SPLINE
  5
4F
330
45
100
AcDbEntity
  8
Layer 1
370
     0
100
AcDbSpline
210
0.0
220
0.0
230
1.0
 70
    11
 71
     3
 72
    20
 73
    16
 74
     0
 42
0.0000000001
 43
0.0000000001
 12
1.0
 22
0.0
 32
0.0
 13
1.0
 23
0.0
 33
0.0
 40
0.0
 40
0.0
 40
0.0
 40
0.0
 40
1.0
 40
1.0
 40
1.0
 40
2.0
 40
2.0
 40
2.0
 40
3.0
 40
3.0
 40
3.0
 40
4.0
 40
4.0
 40
4.0
 40
5.0
 40
5.0
 40
5.0
 40
5.0
 10
1058.929992675781
 20
-1097.445007324219
 30
0.0
 10
1060.329040527344
 20
-1094.510437011719
 30
0.0
 10
1061.195434570312
 20
-1092.776794433594
 30
0.0
 10
1061.991394042969
 20
-1091.011413574219
 30
0.0
 10
1113.144653320312
 20
-977.5497436523438
 30
0.0
 10
1164.218627929688
 20
-864.05224609375
 30
0.0
 10
1215.612060546875
 20
-750.6995239257812
 30
0.0
 10
1218.892944335938
 20
-743.4635009765625
 30
0.0
 10
1217.821044921875
 20
-737.4212036132812
 30
0.0
 10
1215.357543945312
 20
-730.4457397460938
 30
0.0
 10
1126.427368164062
 20
-745.047607421875
 30
0.0
 10
1037.689636230469
 20
-759.6178588867188
 30
0.0
 10
948.52783203125
 20
-774.2577514648438
 30
0.0
 10
985.349609375
 20
-882.0486450195312
 30
0.0
 10
1021.905578613281
 20
-989.0610961914062
 30
0.0
 10
1058.929992675781
 20
-1097.445007324219
 30
0.0
  0
SPLINE
  5
50
330
45
100
AcDbEntity
  8
Layer 1
370
     0
100
AcDbSpline
210
0.0
220
0.0
230
1.0
 70
    11
 71
     3
 72
    32
 73
    28
 74
     0
 42
0.0000000001
 43
0.0000000001
 12
1.0
 22
0.0
 32
0.0
 13
1.0
 23
0.0
 33
0.0
 40
0.0
 40
0.0
 40
0.0
 40
0.0
 40
1.0
 40
1.0
 40
1.0
 40
2.0
 40
2.0
 40
2.0
 40
3.0
 40
3.0
 40
3.0
 40
4.0
 40
4.0
 40
4.0
 40
5.0
 40
5.0
 40
5.0
 40
6.0
 40
6.0
 40
6.0
 40
7.0
 40
7.0
 40
7.0
 40
8.0
 40
8.0
 40
8.0
 40
9.0
 40
9.0
 40
9.0
 40
9.0
 10
480.8811950683594
 20
-1154.041809082031
 30
0.0
 10
480.7803955078125
 20
-1154.695922851562
 30
0.0
 10
480.6795959472656
 20
-1155.349975585938
 30
0.0
 10
480.5787658691406
 20
-1156.004089355469
 30
0.0
 10
586.5977783203125
 20
-1245.306396484375
 30
0.0
 10
690.1219482421875
 20
-1337.465698242188
 30
0.0
 10
793.6260986328125
 20
-1429.639282226562
 30
0.0
 10
897.1074829101562
 20
-1521.792602539062
 30
0.0
 10
1000.17333984375
 20
-1614.41259765625
 30
0.0
 10
1103.42138671875
 20
-1706.827880859375
 30
0.0
 10
1103.010375976562
 20
-1704.88671875
 30
0.0
 10
1101.979736328125
 20
-1703.596313476562
 30
0.0
 10
1100.909423828125
 20
-1702.339721679688
 30
0.0
 10
1017.504272460938
 20
-1604.428344726562
 30
0.0
 10
934.0972900390625
 20
-1506.5185546875
 30
0.0
 10
850.6876831054688
 20
-1408.611083984375
 30
0.0
 10
779.0547485351562
 20
-1324.527099609375
 30
0.0
 10
707.3986206054688
 20
-1240.463134765625
 30
0.0
 10
635.8555908203125
 20
-1156.302978515625
 30
0.0
 10
632.97412109375
 20
-1152.913330078125
 30
0.0
 10
630.0626831054688
 20
-1151.693908691406
 30
0.0
 10
625.6744995117188
 20
-1151.812377929688
 30
0.0
 10
593.02880859375
 20
-1152.693359375
 30
0.0
 10
560.3783569335938
 20
-1153.435180664062
 30
0.0
 10
527.7255554199219
 20
-1153.995727539062
 30
0.0
 10
512.1151123046875
 20
-1154.263671875
 30
0.0
 10
496.4962463378906
 20
-1154.041809082031
 30
0.0
 10
480.8811950683594
 20
-1154.041809082031
 30
0.0
  0
SPLINE
  5
51
330
45
100
AcDbEntity
  8
Layer 1
370
     0
100
AcDbSpline
210
0.0
220
0.0
230
1.0
 70
    11
 71
     3
 72
    17
 73
    13
 74
     0
 42
0.0000000001
 43
0.0000000001
 12
1.0
 22
0.0
 32
0.0
 13
1.0
 23
0.0
 33
0.0
 40
0.0
 40
0.0
 40
0.0
 40
0.0
 40
1.0
 40
1.0
 40
1.0
 40
2.0
 40
2.0
 40
2.0
 40
3.0
 40
3.0
 40
3.0
 40
4.0
 40
4.0
 40
4.0
 40
4.0
 10
1294.47265625
 20
-1075.15185546875
 30
0.0
 10
1270.750122070312
 20
-971.2199096679688
 30
0.0
 10
1247.210815429688
 20
-868.0905151367188
 30
0.0
 10
1223.67138671875
 20
-764.9611206054688
 30
0.0
 10
1223.31103515625
 20
-764.9633178710938
 30
0.0
 10
1222.950561523438
 20
-764.9654541015625
 30
0.0
 10
1222.590209960938
 20
-764.9676513671875
 30
0.0
 10
1172.453857421875
 20
-876.1625366210938
 30
0.0
 10
1122.317504882812
 20
-987.357421875
 30
0.0
 10
1071.805908203125
 20
-1099.384704589844
 30
0.0
 10
1146.456420898438
 20
-1091.260498046875
 30
0.0
 10
1220.06640625
 20
-1083.24951171875
 30
0.0
 10
1294.47265625
 20
-1075.15185546875
 30
0.0
  0
SPLINE
  5
52
330
45
100
AcDbEntity
  8
Layer 1
370
     0
100
AcDbSpline
210
0.0
220
0.0
230
1.0
 70
    11
 71
     3
 72
    17
 73
    13
 74
     0
 42
0.0000000001
 43
0.0000000001
 12
1.0
 22
0.0
 32
0.0
 13
1.0
 23
0.0
 33
0.0
 40
0.0
 40
0.0
 40
0.0
 40
0.0
 40
1.0
 40
1.0
 40
1.0
 40
2.0
 40
2.0
 40
2.0
 40
3.0
 40
3.0
 40
3.0
 40
4.0
 40
4.0
 40
4.0
 40
4.0
 10
1514.112182617188
 20
-1012.401611328125
 30
0.0
 10
1424.01220703125
 20
-920.4533081054688
 30
0.0
 10
1334.524047851562
 20
-829.1292114257812
 30
0.0
 10
1245.035766601562
 20
-737.8051147460938
 30
0.0
 10
1244.577514648438
 20
-737.9978637695312
 30
0.0
 10
1244.119384765625
 20
-738.1906127929688
 30
0.0
 10
1243.6611328125
 20
-738.3833618164062
 30
0.0
 10
1268.28466796875
 20
-847.5637817382812
 30
0.0
 10
1292.908325195312
 20
-956.7442626953125
 30
0.0
 10
1317.571899414062
 20
-1066.102294921875
 30
0.0
 10
1383.393188476562
 20
-1048.117919921875
 30
0.0
 10
1448.199340820312
 20
-1030.410949707031
 30
0.0
 10
1514.112182617188
 20
-1012.401611328125
 30
0.0
  0
SPLINE
  5
53
330
45
100
AcDbEntity
  8
Layer 1
370
     0
100
AcDbSpline
210
0.0
220
0.0
230
1.0
 70
    11
 71
     3
 72
    26
 73
    22
 74
     0
 42
0.0000000001
 43
0.0000000001
 12
1.0
 22
0.0
 32
0.0
 13
1.0
 23
0.0
 33
0.0
 40
0.0
 40
0.0
 40
0.0
 40
0.0
 40
1.0
 40
1.0
 40
1.0
 40
2.0
 40
2.0
 40
2.0
 40
3.0
 40
3.0
 40
3.0
 40
4.0
 40
4.0
 40
4.0
 40
5.0
 40
5.0
 40
5.0
 40
6.0
 40
6.0
 40
6.0
 40
7.0
 40
7.0
 40
7.0
 40
7.0
 10
634.695068359375
 20
-1122.995056152344
 30
0.0
 10
637.17236328125
 20
-1122.995056152344
 30
0.0
 10
638.3328247070312
 20
-1123.010009765625
 30
0.0
 10
639.4927978515625
 20
-1122.992858886719
 30
0.0
 10
703.2998046875
 20
-1122.050170898438
 30
0.0
 10
767.1062622070312
 20
-1121.05859375
 30
0.0
 10
830.9151000976562
 20
-1120.269897460938
 30
0.0
 10
834.9008178710938
 20
-1120.220642089844
 30
0.0
 10
835.4149169921875
 20
-1118.227783203125
 30
0.0
 10
836.1312866210938
 20
-1115.307861328125
 30
0.0
 10
857.0467529296875
 20
-1030.055480957031
 30
0.0
 10
878.031005859375
 20
-944.8198852539062
 30
0.0
 10
898.9566650390625
 20
-859.5700073242188
 30
0.0
 10
903.984130859375
 20
-839.0883178710938
 30
0.0
 10
908.8436279296875
 20
-818.5654296875
 30
0.0
 10
913.7803955078125
 20
-798.0614624023438
 30
0.0
 10
913.5466918945312
 20
-797.9288940429688
 30
0.0
 10
913.31298828125
 20
-797.7962646484375
 30
0.0
 10
913.0792846679688
 20
-797.6636352539062
 30
0.0
 10
820.5469970703125
 20
-905.80078125
 30
0.0
 10
728.0146484375
 20
-1013.937866210938
 30
0.0
 10
634.695068359375
 20
-1122.995056152344
 30
0.0
  0
SPLINE
  5
54
330
45
100
AcDbEntity
  8
Layer 1
370
     0
100
AcDbSpline
210
0.0
220
0.0
230
1.0
 70
    11
 71
     3
 72
    29
 73
    25
 74
     0
 42
0.0000000001
 43
0.0000000001
 12
1.0
 22
0.0
 32
0.0
 13
1.0
 23
0.0
 33
0.0
 40
0.0
 40
0.0
 40
0.0
 40
0.0
 40
1.0
 40
1.0
 40
1.0
 40
2.0
 40
2.0
 40
2.0
 40
3.0
 40
3.0
 40
3.0
 40
4.0
 40
4.0
 40
4.0
 40
5.0
 40
5.0
 40
5.0
 40
6.0
 40
6.0
 40
6.0
 40
7.0
 40
7.0
 40
7.0
 40
8.0
 40
8.0
 40
8.0
 40
8.0
 10
1524.881713867188
 20
-1005.65185546875
 30
0.0
 10
1524.644653320312
 20
-1003.85546875
 30
0.0
 10
1524.591918945312
 20
-1003.210876464844
 30
0.0
 10
1524.471557617188
 20
-1002.579040527344
 30
0.0
 10
1513.565551757812
 20
-945.3574829101562
 30
0.0
 10
1502.662841796875
 20
-888.13525390625
 30
0.0
 10
1491.739990234375
 20
-830.9168701171875
 30
0.0
 10
1485.498413085938
 20
-798.2212524414062
 30
0.0
 10
1479.214111328125
 20
-765.53369140625
 30
0.0
 10
1472.970703125
 20
-732.83837890625
 30
0.0
 10
1471.615112304688
 20
-725.739501953125
 30
0.0
 10
1465.881469726562
 20
-720.913330078125
 30
0.0
 10
1458.808837890625
 20
-721.135009765625
 30
0.0
 10
1439.486938476562
 20
-721.7406005859375
 30
0.0
 10
1420.166748046875
 20
-722.4025268554688
 30
0.0
 10
1400.844848632812
 20
-723.0066528320312
 30
0.0
 10
1354.205200195312
 20
-724.46484375
 30
0.0
 10
1307.564819335938
 20
-725.8997192382812
 30
0.0
 10
1260.925170898438
 20
-727.3577270507812
 30
0.0
 10
1258.526611328125
 20
-727.4326782226562
 30
0.0
 10
1256.132080078125
 20
-727.6346435546875
 30
0.0
 10
1252.606567382812
 20
-727.8448486328125
 30
0.0
 10
1343.712646484375
 20
-820.8019409179688
 30
0.0
 10
1433.939086914062
 20
-912.861572265625
 30
0.0
 10
1524.881713867188
 20
-1005.65185546875
 30
0.0
  0
SPLINE
  5
55
330
45
100
AcDbEntity
  8
Layer 1
370
     0
100
AcDbSpline
210
0.0
220
0.0
230
1.0
 70
    11
 71
     3
 72
    17
 73
    13
 74
     0
 42
0.0000000001
 43
0.0000000001
 12
1.0
 22
0.0
 32
0.0
 13
1.0
 23
0.0
 33
0.0
 40
0.0
 40
0.0
 40
0.0
 40
0.0
 40
1.0
 40
1.0
 40
1.0
 40
2.0
 40
2.0
 40
2.0
 40
3.0
 40
3.0
 40
3.0
 40
4.0
 40
4.0
 40
4.0
 40
4.0
 10
941.7205810546875
 20
-792.7315063476562
 30
0.0
 10
941.3403930664062
 20
-792.7542724609375
 30
0.0
 10
940.9602661132812
 20
-792.7770385742188
 30
0.0
 10
940.580078125
 20
-792.7998046875
 30
0.0
 10
914.1701049804688
 20
-902.3736572265625
 30
0.0
 10
887.7601318359375
 20
-1011.947509765625
 30
0.0
 10
861.1603393554688
 20
-1122.308898925781
 30
0.0
 10
923.5352783203125
 20
-1115.519653320312
 30
0.0
 10
985.2110595703125
 20
-1108.806579589844
 30
0.0
 10
1047.400207519531
 20
-1102.03759765625
 30
0.0
 10
1012.0390625
 20
-998.5415649414062
 30
0.0
 10
976.8798217773438
 20
-895.6365356445312
 30
0.0
 10
941.7205810546875
 20
-792.7315063476562
 30
0.0
  0
SPLINE
  5
56
330
45
100
AcDbEntity
  8
Layer 1
370
     0
100
AcDbSpline
210
0.0
220
0.0
230
1.0
 70
    11
 71
     3
 72
    29
 73
    25
 74
     0
 42
0.0000000001
 43
0.0000000001
 12
1.0
 22
0.0
 32
0.0
 13
1.0
 23
0.0
 33
0.0
 40
0.0
 40
0.0
 40
0.0
 40
0.0
 40
1.0
 40
1.0
 40
1.0
 40
2.0
 40
2.0
 40
2.0
 40
3.0
 40
3.0
 40
3.0
 40
4.0
 40
4.0
 40
4.0
 40
5.0
 40
5.0
 40
5.0
 40
6.0
 40
6.0
 40
6.0
 40
7.0
 40
7.0
 40
7.0
 40
8.0
 40
8.0
 40
8.0
 40
8.0
 10
911.187744140625
 20
-780.813720703125
 30
0.0
 10
909.0302734375
 20
-780.9830322265625
 30
0.0
 10
908.2059326171875
 20
-780.9729614257812
 30
0.0
 10
907.4110717773438
 20
-781.1207885742188
 30
0.0
 10
849.4892578125
 20
-791.8955688476562
 30
0.0
 10
791.5888061523438
 20
-802.7871704101562
 30
0.0
 10
733.6278686523438
 20
-813.3468627929688
 30
0.0
 10
725.725341796875
 20
-814.78662109375
 30
0.0
 10
719.8641967773438
 20
-816.917236328125
 30
0.0
 10
720.5098266601562
 20
-826.384033203125
 30
0.0
 10
720.5735473632812
 20
-827.319091796875
 30
0.0
 10
720.007568359375
 20
-828.3015747070312
 30
0.0
 10
719.7142333984375
 20
-829.2560424804688
 30
0.0
 10
693.268310546875
 20
-915.2755126953125
 30
0.0
 10
666.81884765625
 20
-1001.293884277344
 30
0.0
 10
640.3773803710938
 20
-1087.314636230469
 30
0.0
 10
639.0067749023438
 20
-1091.773559570312
 30
0.0
 10
637.7032470703125
 20
-1096.253112792969
 30
0.0
 10
636.3684692382812
 20
-1100.723022460938
 30
0.0
 10
636.625
 20
-1100.839782714844
 30
0.0
 10
636.8815307617188
 20
-1100.956604003906
 30
0.0
 10
637.1381225585938
 20
-1101.073364257812
 30
0.0
 10
728.20751953125
 20
-994.64794921875
 30
0.0
 10
819.2769165039062
 20
-888.2224731445312
 30
0.0
 10
911.187744140625
 20
-780.813720703125
 30
0.0
  0
SPLINE
  5
57
330
45
100
AcDbEntity
  8
Layer 1
370
     0
100
AcDbSpline
210
0.0
220
0.0
230
1.0
 70
    11
 71
     3
 72
    17
 73
    13
 74
     0
 42
0.0000000001
 43
0.0000000001
 12
1.0
 22
0.0
 32
0.0
 13
1.0
 23
0.0
 33
0.0
 40
0.0
 40
0.0
 40
0.0
 40
0.0
 40
1.0
 40
1.0
 40
1.0
 40
2.0
 40
2.0
 40
2.0
 40
3.0
 40
3.0
 40
3.0
 40
4.0
 40
4.0
 40
4.0
 40
4.0
 10
1488.969116210938
 20
-745.1294555664062
 30
0.0
 10
1488.641723632812
 20
-745.2536010742188
 30
0.0
 10
1488.314453125
 20
-745.3777465820312
 30
0.0
 10
1487.987060546875
 20
-745.5018310546875
 30
0.0
 10
1504.549560546875
 20
-832.1774291992188
 30
0.0
 10
1521.111938476562
 20
-918.85302734375
 30
0.0
 10
1537.753295898438
 20
-1005.941528320312
 30
0.0
 10
1594.572143554688
 20
-990.4170532226562
 30
0.0
 10
1650.763427734375
 20
-975.0641479492188
 30
0.0
 10
1707.962158203125
 20
-959.4359130859375
 30
0.0
 10
1634.523071289062
 20
-887.5684814453125
 30
0.0
 10
1561.74609375
 20
-816.3489379882812
 30
0.0
 10
1488.969116210938
 20
-745.1294555664062
 30
0.0
  0
SPLINE
  5
58
330
45
100
AcDbEntity
  8
Layer 1
370
     0
100
AcDbSpline
210
0.0
220
0.0
230
1.0
 70
    11
 71
     3
 72
    26
 73
    22
 74
     0
 42
0.0000000001
 43
0.0000000001
 12
1.0
 22
0.0
 32
0.0
 13
1.0
 23
0.0
 33
0.0
 40
0.0
 40
0.0
 40
0.0
 40
0.0
 40
1.0
 40
1.0
 40
1.0
 40
2.0
 40
2.0
 40
2.0
 40
3.0
 40
3.0
 40
3.0
 40
4.0
 40
4.0
 40
4.0
 40
5.0
 40
5.0
 40
5.0
 40
6.0
 40
6.0
 40
6.0
 40
7.0
 40
7.0
 40
7.0
 40
7.0
 10
702.220703125
 20
-843.6506958007812
 30
0.0
 10
701.9231567382812
 20
-843.4912719726562
 30
0.0
 10
701.6256713867188
 20
-843.3318481445312
 30
0.0
 10
701.328125
 20
-843.1724243164062
 30
0.0
 10
622.3873291015625
 20
-936.9359130859375
 30
0.0
 10
543.4465942382812
 20
-1030.699401855469
 30
0.0
 10
463.7385864257812
 20
-1125.374206542969
 30
0.0
 10
466.3561401367188
 20
-1125.374206542969
 30
0.0
 10
467.5009155273438
 20
-1125.388488769531
 30
0.0
 10
468.6452331542969
 20
-1125.372009277344
 30
0.0
 10
515.9659423828125
 20
-1124.691589355469
 30
0.0
 10
563.285888671875
 20
-1123.9404296875
 30
0.0
 10
610.6084594726562
 20
-1123.437377929688
 30
0.0
 10
615.0376586914062
 20
-1123.390258789062
 30
0.0
 10
616.8242797851562
 20
-1122.071838378906
 30
0.0
 10
618.1224975585938
 20
-1117.824584960938
 30
0.0
 10
643.21142578125
 20
-1035.743957519531
 30
0.0
 10
668.4798583984375
 20
-953.71826171875
 30
0.0
 10
693.7015991210938
 20
-871.6782836914062
 30
0.0
 10
696.571044921875
 20
-862.3449096679688
 30
0.0
 10
699.3823852539062
 20
-852.99365234375
 30
0.0
 10
702.220703125
 20
-843.6506958007812
 30
0.0
  0
HATCH
  5
59
330
45
100
AcDbEntity
  8
Layer 1
 62
     7
420
 16777215
100
AcDbHatch
 10
0.0
 20
0.0
 30
0.0
210
0.0
220
0.0
230
1.0
  2
SOLID
 70
     1
 71
     0
 91
       16
 92
        1
 93
        1
 72
     4
 94
        3
 73
     0
 74
     1
 95
       77
 96
       73
 40
0.0
 40
0.0
 40
0.0
 40
0.0
 40
1.0
 40
1.0
 40
1.0
 40
2.0
 40
2.0
 40
2.0
 40
3.0
 40
3.0
 40
3.0
 40
4.0
 40
4.0
 40
4.0
 40
5.0
 40
5.0
 40
5.0
 40
6.0
 40
6.0
 40
6.0
 40
7.0
 40
7.0
 40
7.0
 40
8.0
 40
8.0
 40
8.0
 40
9.0
 40
9.0
 40
9.0
 40
10.0
 40
10.0
 40
10.0
 40
11.0
 40
11.0
 40
11.0
 40
12.0
 40
12.0
 40
12.0
 40
13.0
 40
13.0
 40
13.0
 40
14.0
 40
14.0
 40
14.0
 40
15.0
 40
15.0
 40
15.0
 40
16.0
 40
16.0
 40
16.0
 40
17.0
 40
17.0
 40
17.0
 40
18.0
 40
18.0
 40
18.0
 40
19.0
 40
19.0
 40
19.0
 40
20.0
 40
20.0
 40
20.0
 40
21.0
 40
21.0
 40
21.0
 40
22.0
 40
22.0
 40
22.0
 40
23.0
 40
23.0
 40
23.0
 40
24.0
 40
24.0
 40
24.0
 40
24.0
 10
1174.0
 20
-1803.0
 10
1145.411376953125
 20
-1777.581420898438
 10
1116.765747070312
 20
-1752.226684570312
 10
1088.244018554688
 20
-1726.733276367188
 10
960.6397705078125
 20
-1612.676391601562
 10
833.304443359375
 20
-1498.317138671875
 10
705.3956909179688
 20
-1384.602905273438
 10
636.0287475585938
 20
-1322.93408203125
 10
565.8118896484375
 20
-1262.218505859375
 10
495.7402954101562
 20
-1201.346984863281
 10
478.5201416015625
 20
-1186.387817382812
 10
460.3761291503906
 20
-1172.491394042969
 10
442.6280822753906
 20
-1158.141967773438
 10
441.351318359375
 20
-1157.109802246094
 10
439.9439697265625
 20
-1155.969055175781
 10
438.415771484375
 20
-1155.564147949219
 10
431.3585815429688
 20
-1153.694580078125
 10
428.0594177246094
 20
-1147.900573730469
 10
425.3525695800781
 20
-1142.201782226562
 10
422.8091735839844
 20
-1136.84716796875
 10
425.6990356445312
 20
-1131.962951660156
 10
429.3307189941406
 20
-1127.660339355469
 10
453.1915283203125
 20
-1099.391357421875
 10
476.998779296875
 20
-1071.0771484375
 10
500.8266906738281
 20
-1042.780395507812
 10
569.304931640625
 20
-961.458984375
 10
637.8052368164062
 20
-880.1559448242188
 10
706.2089233398438
 20
-798.7718505859375
 10
709.9701538085938
 20
-794.296875
 10
714.330322265625
 20
-791.8232421875
 10
720.0322875976562
 20
-790.7677001953125
 10
792.5302124023438
 20
-777.3472900390625
 10
864.941162109375
 20
-763.4452514648438
 10
937.5128784179688
 20
-750.4398803710938
 10
977.799072265625
 20
-743.2202758789062
 10
1018.359436035156
 20
-737.5397338867188
 10
1058.76904296875
 20
-730.99755859375
 10
1108.559326171875
 20
-722.9367065429688
 10
1158.375122070312
 20
-715.0113525390625
 10
1208.070922851562
 20
-706.3990478515625
 10
1230.245361328125
 20
-702.5561828613281
 10
1252.558837890625
 20
-703.0165405273438
 10
1274.825805664062
 20
-702.2084045410156
 10
1336.610595703125
 20
-699.9660034179688
 10
1398.4228515625
 20
-698.4593811035156
 10
1460.200561523438
 20
-696.0557556152344
 10
1470.572631835938
 20
-695.6521606445312
 10
1478.071044921875
 20
-698.8589172363281
 10
1484.965698242188
 20
-705.9543762207031
 10
1495.759399414062
 20
-717.0625610351562
 10
1506.84423828125
 20
-727.8907470703125
 10
1517.912353515625
 20
-738.7288208007812
 10
1589.477661132812
 20
-808.8077392578125
 10
1661.061157226562
 20
-878.8682250976562
 10
1732.711181640625
 20
-948.8604736328125
 10
1734.735595703125
 20
-950.8380737304688
 10
1737.418701171875
 20
-952.3483276367188
 10
1740.056030273438
 20
-953.4513549804688
 10
1747.005126953125
 20
-956.3579711914062
 10
1750.111328125
 20
-963.1002197265625
 10
1747.141723632812
 20
-970.1488037109375
 10
1746.057006835938
 20
-972.7232666015625
 10
1744.467895507812
 20
-975.1177978515625
 10
1742.893310546875
 20
-977.44873046875
 10
1560.7998046875
 20
-1246.985107421875
 10
1378.705200195312
 20
-1516.520874023438
 10
1196.45556640625
 20
-1785.95166015625
 10
1192.201049804688
 20
-1792.241333007812
 10
1186.191040039062
 20
-1797.34375
 10
1181.0
 20
-1803.0
 10
1178.666625976562
 20
-1803.0
 10
1176.333374023438
 20
-1803.0
 10
1174.0
 20
-1803.0
 97
        0
 97
        0
 92
        1
 93
        1
 72
     4
 94
        3
 73
     0
 74
     1
 95
       17
 96
       13
 40
0.0
 40
0.0
 40
0.0
 40
0.0
 40
1.0
 40
1.0
 40
1.0
 40
2.0
 40
2.0
 40
2.0
 40
3.0
 40
3.0
 40
3.0
 40
4.0
 40
4.0
 40
4.0
 40
4.0
 10
1181.006713867188
 20
-1715.02197265625
 10
1181.283325195312
 20
-1714.929443359375
 10
1181.56005859375
 20
-1714.8369140625
 10
1181.836669921875
 20
-1714.744506835938
 10
1219.255004882812
 20
-1510.180297851562
 10
1256.67333984375
 20
-1305.6162109375
 10
1294.223999023438
 20
-1100.329223632812
 10
1219.432495117188
 20
-1108.472778320312
 10
1145.36865234375
 20
-1116.537109375
 10
1070.925537109375
 20
-1124.642700195312
 10
1107.712890625
 20
-1321.937866210938
 10
1144.35986328125
 20
-1518.47998046875
 10
1181.006713867188
 20
-1715.02197265625
 97
        0
 97
        0
 92
        1
 93
        1
 72
     4
 94
        3
 73
     0
 74
     1
 95
       17
 96
       13
 40
0.0
 40
0.0
 40
0.0
 40
0.0
 40
1.0
 40
1.0
 40
1.0
 40
2.0
 40
2.0
 40
2.0
 40
3.0
 40
3.0
 40
3.0
 40
4.0
 40
4.0
 40
4.0
 40
4.0
 10
1058.564819335938
 20
-1125.978271484375
 10
992.3417358398438
 20
-1133.196044921875
 10
926.6947631835938
 20
-1140.351013183594
 10
860.3880004882812
 20
-1147.577880859375
 10
964.6138305664062
 20
-1346.1083984375
 10
1068.382690429688
 20
-1543.768432617188
 10
1172.151489257812
 20
-1741.428588867188
 10
1172.52294921875
 20
-1741.304931640625
 10
1172.894287109375
 20
-1741.181274414062
 10
1173.265625
 20
-1741.057495117188
 10
1135.065673828125
 20
-1536.21142578125
 10
1096.86572265625
 20
-1331.365356445312
 10
1058.564819335938
 20
-1125.978271484375
 97
        0
 97
        0
 92
        1
 93
        1
 72
     4
 94
        3
 73
     0
 74
     1
 95
       32
 96
       28
 40
0.0
 40
0.0
 40
0.0
 40
0.0
 40
1.0
 40
1.0
 40
1.0
 40
2.0
 40
2.0
 40
2.0
 40
3.0
 40
3.0
 40
3.0
 40
4.0
 40
4.0
 40
4.0
 40
5.0
 40
5.0
 40
5.0
 40
6.0
 40
6.0
 40
6.0
 40
7.0
 40
7.0
 40
7.0
 40
8.0
 40
8.0
 40
8.0
 40
9.0
 40
9.0
 40
9.0
 40
9.0
 10
1518.26416015625
 20
-1039.897033691406
 10
1515.677490234375
 20
-1040.58203125
 10
1513.953491210938
 20
-1041.011413574219
 10
1512.244995117188
 20
-1041.494995117188
 10
1452.704345703125
 20
-1058.346618652344
 10
1393.253295898438
 20
-1075.527709960938
 10
1333.542602539062
 20
-1091.753967285156
 10
1323.0703125
 20
-1094.599731445312
 10
1319.478149414062
 20
-1099.3173828125
 10
1317.676147460938
 20
-1109.642517089844
 10
1306.374755859375
 20
-1174.397888183594
 10
1294.250366210938
 20
-1239.009521484375
 10
1282.41357421875
 20
-1303.671630859375
 10
1270.606567382812
 20
-1368.17041015625
 10
1258.816528320312
 20
-1432.672241210938
 10
1247.021118164062
 20
-1497.173095703125
 10
1235.8544921875
 20
-1558.23583984375
 10
1224.690673828125
 20
-1619.29931640625
 10
1213.524658203125
 20
-1680.362182617188
 10
1210.654418945312
 20
-1696.058471679688
 10
1207.781005859375
 20
-1711.75439453125
 10
1204.9091796875
 20
-1727.450439453125
 10
1205.293701171875
 20
-1727.595947265625
 10
1205.678100585938
 20
-1727.741577148438
 10
1206.062622070312
 20
-1727.887084960938
 10
1310.0087890625
 20
-1498.82373046875
 10
1413.954956054688
 20
-1269.76025390625
 10
1518.26416015625
 20
-1039.897033691406
 97
        0
 97
        0
 92
        1
 93
        1
 72
     4
 94
        3
 73
     0
 74
     1
 95
       26
 96
       22
 40
0.0
 40
0.0
 40
0.0
 40
0.0
 40
1.0
 40
1.0
 40
1.0
 40
2.0
 40
2.0
 40
2.0
 40
3.0
 40
3.0
 40
3.0
 40
4.0
 40
4.0
 40
4.0
 40
5.0
 40
5.0
 40
5.0
 40
6.0
 40
6.0
 40
6.0
 40
7.0
 40
7.0
 40
7.0
 40
7.0
 10
1125.240966796875
 20
-1711.774169921875
 10
1125.554809570312
 20
-1711.537841796875
 10
1125.86865234375
 20
-1711.301635742188
 10
1126.182495117188
 20
-1711.065307617188
 10
1118.581909179688
 20
-1695.39404296875
 10
1111.396484375
 20
-1679.505126953125
 10
1103.317016601562
 20
-1664.084594726562
 10
1013.651428222656
 20
-1492.94873046875
 10
923.8379516601562
 20
-1321.890258789062
 10
834.15673828125
 20
-1150.762573242188
 10
832.5595703125
 20
-1147.714782714844
 10
830.7058715820312
 20
-1147.002258300781
 10
827.5176391601562
 20
-1147.079650878906
 10
768.8822631835938
 20
-1148.504272460938
 10
710.244384765625
 20
-1149.821105957031
 10
651.6072387695312
 20
-1151.173828125
 10
650.6994018554688
 20
-1151.194763183594
 10
649.79541015625
 20
-1151.378845214844
 10
647.9834594726562
 20
-1151.594665527344
 10
807.4446411132812
 20
-1338.76171875
 10
966.3428344726562
 20
-1525.267944335938
 10
1125.240966796875
 20
-1711.774169921875
 97
        0
 97
        0
 92
        1
 93
        1
 72
     4
 94
        3
 73
     0
 74
     1
 95
       26
 96
       22
 40
0.0
 40
0.0
 40
0.0
 40
0.0
 40
1.0
 40
1.0
 40
1.0
 40
2.0
 40
2.0
 40
2.0
 40
3.0
 40
3.0
 40
3.0
 40
4.0
 40
4.0
 40
4.0
 40
5.0
 40
5.0
 40
5.0
 40
6.0
 40
6.0
 40
6.0
 40
7.0
 40
7.0
 40
7.0
 40
7.0
 10
1250.856567382812
 20
-1659.29443359375
 10
1251.167358398438
 20
-1659.536499023438
 10
1251.478149414062
 20
-1659.778686523438
 10
1251.7890625
 20
-1660.020874023438
 10
1403.218627929688
 20
-1435.88427734375
 10
1554.648193359375
 20
-1211.747680664062
 10
1706.7119140625
 20
-986.6724243164062
 10
1704.22509765625
 20
-987.2640380859375
 10
1702.954467773438
 20
-987.5172119140625
 10
1701.7119140625
 20
-987.8687133789062
 10
1647.931518554688
 20
-1003.0849609375
 10
1594.173706054688
 20
-1018.382629394531
 10
1540.340454101562
 20
-1033.410095214844
 10
1535.482788085938
 20
-1034.766174316406
 10
1532.966430664062
 20
-1037.227844238281
 10
1530.959106445312
 20
-1041.657531738281
 10
1444.5
 20
-1232.448608398438
 10
1357.932250976562
 20
-1423.1904296875
 10
1271.381591796875
 20
-1613.940185546875
 10
1264.525146484375
 20
-1629.051513671875
 10
1257.697509765625
 20
-1644.176025390625
 10
1250.856567382812
 20
-1659.29443359375
 97
        0
 97
        0
 92
        1
 93
        1
 72
     4
 94
        3
 73
     0
 74
     1
 95
       20
 96
       16
 40
0.0
 40
0.0
 40
0.0
 40
0.0
 40
1.0
 40
1.0
 40
1.0
 40
2.0
 40
2.0
 40
2.0
 40
3.0
 40
3.0
 40
3.0
 40
4.0
 40
4.0
 40
4.0
 40
5.0
 40
5.0
 40
5.0
 40
5.0
 10
1058.929992675781
 20
-1097.445007324219
 10
1060.329040527344
 20
-1094.510437011719
 10
1061.195434570312
 20
-1092.776794433594
 10
1061.991394042969
 20
-1091.011413574219
 10
1113.144653320312
 20
-977.5497436523438
 10
1164.218627929688
 20
-864.05224609375
 10
1215.612060546875
 20
-750.6995239257812
 10
1218.892944335938
 20
-743.4635009765625
 10
1217.821044921875
 20
-737.4212036132812
 10
1215.357543945312
 20
-730.4457397460938
 10
1126.427368164062
 20
-745.047607421875
 10
1037.689636230469
 20
-759.6178588867188
 10
948.52783203125
 20
-774.2577514648438
 10
985.349609375
 20
-882.0486450195312
 10
1021.905578613281
 20
-989.0610961914062
 10
1058.929992675781
 20
-1097.445007324219
 97
        0
 97
        0
 92
        1
 93
        1
 72
     4
 94
        3
 73
     0
 74
     1
 95
       32
 96
       28
 40
0.0
 40
0.0
 40
0.0
 40
0.0
 40
1.0
 40
1.0
 40
1.0
 40
2.0
 40
2.0
 40
2.0
 40
3.0
 40
3.0
 40
3.0
 40
4.0
 40
4.0
 40
4.0
 40
5.0
 40
5.0
 40
5.0
 40
6.0
 40
6.0
 40
6.0
 40
7.0
 40
7.0
 40
7.0
 40
8.0
 40
8.0
 40
8.0
 40
9.0
 40
9.0
 40
9.0
 40
9.0
 10
480.8811950683594
 20
-1154.041809082031
 10
480.7803955078125
 20
-1154.695922851562
 10
480.6795959472656
 20
-1155.349975585938
 10
480.5787658691406
 20
-1156.004089355469
 10
586.5977783203125
 20
-1245.306396484375
 10
690.1219482421875
 20
-1337.465698242188
 10
793.6260986328125
 20
-1429.639282226562
 10
897.1074829101562
 20
-1521.792602539062
 10
1000.17333984375
 20
-1614.41259765625
 10
1103.42138671875
 20
-1706.827880859375
 10
1103.010375976562
 20
-1704.88671875
 10
1101.979736328125
 20
-1703.596313476562
 10
1100.909423828125
 20
-1702.339721679688
 10
1017.504272460938
 20
-1604.428344726562
 10
934.0972900390625
 20
-1506.5185546875
 10
850.6876831054688
 20
-1408.611083984375
 10
779.0547485351562
 20
-1324.527099609375
 10
707.3986206054688
 20
-1240.463134765625
 10
635.8555908203125
 20
-1156.302978515625
 10
632.97412109375
 20
-1152.913330078125
 10
630.0626831054688
 20
-1151.693908691406
 10
625.6744995117188
 20
-1151.812377929688
 10
593.02880859375
 20
-1152.693359375
 10
560.3783569335938
 20
-1153.435180664062
 10
527.7255554199219
 20
-1153.995727539062
 10
512.1151123046875
 20
-1154.263671875
 10
496.4962463378906
 20
-1154.041809082031
 10
480.8811950683594
 20
-1154.041809082031
 97
        0
 97
        0
 92
        1
 93
        1
 72
     4
 94
        3
 73
     0
 74
     1
 95
       17
 96
       13
 40
0.0
 40
0.0
 40
0.0
 40
0.0
 40
1.0
 40
1.0
 40
1.0
 40
2.0
 40
2.0
 40
2.0
 40
3.0
 40
3.0
 40
3.0
 40
4.0
 40
4.0
 40
4.0
 40
4.0
 10
1294.47265625
 20
-1075.15185546875
 10
1270.750122070312
 20
-971.2199096679688
 10
1247.210815429688
 20
-868.0905151367188
 10
1223.67138671875
 20
-764.9611206054688
 10
1223.31103515625
 20
-764.9633178710938
 10
1222.950561523438
 20
-764.9654541015625
 10
1222.590209960938
 20
-764.9676513671875
 10
1172.453857421875
 20
-876.1625366210938
 10
1122.317504882812
 20
-987.357421875
 10
1071.805908203125
 20
-1099.384704589844
 10
1146.456420898438
 20
-1091.260498046875
 10
1220.06640625
 20
-1083.24951171875
 10
1294.47265625
 20
-1075.15185546875
 97
        0
 97
        0
 92
        1
 93
        1
 72
     4
 94
        3
 73
     0
 74
     1
 95
       17
 96
       13
 40
0.0
 40
0.0
 40
0.0
 40
0.0
 40
1.0
 40
1.0
 40
1.0
 40
2.0
 40
2.0
 40
2.0
 40
3.0
 40
3.0
 40
3.0
 40
4.0
 40
4.0
 40
4.0
 40
4.0
 10
1514.112182617188
 20
-1012.401611328125
 10
1424.01220703125
 20
-920.4533081054688
 10
1334.524047851562
 20
-829.1292114257812
 10
1245.035766601562
 20
-737.8051147460938
 10
1244.577514648438
 20
-737.9978637695312
 10
1244.119384765625
 20
-738.1906127929688
 10
1243.6611328125
 20
-738.3833618164062
 10
1268.28466796875
 20
-847.5637817382812
 10
1292.908325195312
 20
-956.7442626953125
 10
1317.571899414062
 20
-1066.102294921875
 10
1383.393188476562
 20
-1048.117919921875
 10
1448.199340820312
 20
-1030.410949707031
 10
1514.112182617188
 20
-1012.401611328125
 97
        0
 97
        0
 92
        1
 93
        1
 72
     4
 94
        3
 73
     0
 74
     1
 95
       26
 96
       22
 40
0.0
 40
0.0
 40
0.0
 40
0.0
 40
1.0
 40
1.0
 40
1.0
 40
2.0
 40
2.0
 40
2.0
 40
3.0
 40
3.0
 40
3.0
 40
4.0
 40
4.0
 40
4.0
 40
5.0
 40
5.0
 40
5.0
 40
6.0
 40
6.0
 40
6.0
 40
7.0
 40
7.0
 40
7.0
 40
7.0
 10
634.695068359375
 20
-1122.995056152344
 10
637.17236328125
 20
-1122.995056152344
 10
638.3328247070312
 20
-1123.010009765625
 10
639.4927978515625
 20
-1122.992858886719
 10
703.2998046875
 20
-1122.050170898438
 10
767.1062622070312
 20
-1121.05859375
 10
830.9151000976562
 20
-1120.269897460938
 10
834.9008178710938
 20
-1120.220642089844
 10
835.4149169921875
 20
-1118.227783203125
 10
836.1312866210938
 20
-1115.307861328125
 10
857.0467529296875
 20
-1030.055480957031
 10
878.031005859375
 20
-944.8198852539062
 10
898.9566650390625
 20
-859.5700073242188
 10
903.984130859375
 20
-839.0883178710938
 10
908.8436279296875
 20
-818.5654296875
 10
913.7803955078125
 20
-798.0614624023438
 10
913.5466918945312
 20
-797.9288940429688
 10
913.31298828125
 20
-797.7962646484375
 10
913.0792846679688
 20
-797.6636352539062
 10
820.5469970703125
 20
-905.80078125
 10
728.0146484375
 20
-1013.937866210938
 10
634.695068359375
 20
-1122.995056152344
 97
        0
 97
        0
 92
        1
 93
        1
 72
     4
 94
        3
 73
     0
 74
     1
 95
       29
 96
       25
 40
0.0
 40
0.0
 40
0.0
 40
0.0
 40
1.0
 40
1.0
 40
1.0
 40
2.0
 40
2.0
 40
2.0
 40
3.0
 40
3.0
 40
3.0
 40
4.0
 40
4.0
 40
4.0
 40
5.0
 40
5.0
 40
5.0
 40
6.0
 40
6.0
 40
6.0
 40
7.0
 40
7.0
 40
7.0
 40
8.0
 40
8.0
 40
8.0
 40
8.0
 10
1524.881713867188
 20
-1005.65185546875
 10
1524.644653320312
 20
-1003.85546875
 10
1524.591918945312
 20
-1003.210876464844
 10
1524.471557617188
 20
-1002.579040527344
 10
1513.565551757812
 20
-945.3574829101562
 10
1502.662841796875
 20
-888.13525390625
 10
1491.739990234375
 20
-830.9168701171875
 10
1485.498413085938
 20
-798.2212524414062
 10
1479.214111328125
 20
-765.53369140625
 10
1472.970703125
 20
-732.83837890625
 10
1471.615112304688
 20
-725.739501953125
 10
1465.881469726562
 20
-720.913330078125
 10
1458.808837890625
 20
-721.135009765625
 10
1439.486938476562
 20
-721.7406005859375
 10
1420.166748046875
 20
-722.4025268554688
 10
1400.844848632812
 20
-723.0066528320312
 10
1354.205200195312
 20
-724.46484375
 10
1307.564819335938
 20
-725.8997192382812
 10
1260.925170898438
 20
-727.3577270507812
 10
1258.526611328125
 20
-727.4326782226562
 10
1256.132080078125
 20
-727.6346435546875
 10
1252.606567382812
 20
-727.8448486328125
 10
1343.712646484375
 20
-820.8019409179688
 10
1433.939086914062
 20
-912.861572265625
 10
1524.881713867188
 20
-1005.65185546875
 97
        0
 97
        0
 92
        1
 93
        1
 72
     4
 94
        3
 73
     0
 74
     1
 95
       17
 96
       13
 40
0.0
 40
0.0
 40
0.0
 40
0.0
 40
1.0
 40
1.0
 40
1.0
 40
2.0
 40
2.0
 40
2.0
 40
3.0
 40
3.0
 40
3.0
 40
4.0
 40
4.0
 40
4.0
 40
4.0
 10
941.7205810546875
 20
-792.7315063476562
 10
941.3403930664062
 20
-792.7542724609375
 10
940.9602661132812
 20
-792.7770385742188
 10
940.580078125
 20
-792.7998046875
 10
914.1701049804688
 20
-902.3736572265625
 10
887.7601318359375
 20
-1011.947509765625
 10
861.1603393554688
 20
-1122.308898925781
 10
923.5352783203125
 20
-1115.519653320312
 10
985.2110595703125
 20
-1108.806579589844
 10
1047.400207519531
 20
-1102.03759765625
 10
1012.0390625
 20
-998.5415649414062
 10
976.8798217773438
 20
-895.6365356445312
 10
941.7205810546875
 20
-792.7315063476562
 97
        0
 97
        0
 92
        1
 93
        1
 72
     4
 94
        3
 73
     0
 74
     1
 95
       29
 96
       25
 40
0.0
 40
0.0
 40
0.0
 40
0.0
 40
1.0
 40
1.0
 40
1.0
 40
2.0
 40
2.0
 40
2.0
 40
3.0
 40
3.0
 40
3.0
 40
4.0
 40
4.0
 40
4.0
 40
5.0
 40
5.0
 40
5.0
 40
6.0
 40
6.0
 40
6.0
 40
7.0
 40
7.0
 40
7.0
 40
8.0
 40
8.0
 40
8.0
 40
8.0
 10
911.187744140625
 20
-780.813720703125
 10
909.0302734375
 20
-780.9830322265625
 10
908.2059326171875
 20
-780.9729614257812
 10
907.4110717773438
 20
-781.1207885742188
 10
849.4892578125
 20
-791.8955688476562
 10
791.5888061523438
 20
-802.7871704101562
 10
733.6278686523438
 20
-813.3468627929688
 10
725.725341796875
 20
-814.78662109375
 10
719.8641967773438
 20
-816.917236328125
 10
720.5098266601562
 20
-826.384033203125
 10
720.5735473632812
 20
-827.319091796875
 10
720.007568359375
 20
-828.3015747070312
 10
719.7142333984375
 20
-829.2560424804688
 10
693.268310546875
 20
-915.2755126953125
 10
666.81884765625
 20
-1001.293884277344
 10
640.3773803710938
 20
-1087.314636230469
 10
639.0067749023438
 20
-1091.773559570312
 10
637.7032470703125
 20
-1096.253112792969
 10
636.3684692382812
 20
-1100.723022460938
 10
636.625
 20
-1100.839782714844
 10
636.8815307617188
 20
-1100.956604003906
 10
637.1381225585938
 20
-1101.073364257812
 10
728.20751953125
 20
-994.64794921875
 10
819.2769165039062
 20
-888.2224731445312
 10
911.187744140625
 20
-780.813720703125
 97
        0
 97
        0
 92
        1
 93
        1
 72
     4
 94
        3
 73
     0
 74
     1
 95
       17
 96
       13
 40
0.0
 40
0.0
 40
0.0
 40
0.0
 40
1.0
 40
1.0
 40
1.0
 40
2.0
 40
2.0
 40
2.0
 40
3.0
 40
3.0
 40
3.0
 40
4.0
 40
4.0
 40
4.0
 40
4.0
 10
1488.969116210938
 20
-745.1294555664062
 10
1488.641723632812
 20
-745.2536010742188
 10
1488.314453125
 20
-745.3777465820312
 10
1487.987060546875
 20
-745.5018310546875
 10
1504.549560546875
 20
-832.1774291992188
 10
1521.111938476562
 20
-918.85302734375
 10
1537.753295898438
 20
-1005.941528320312
 10
1594.572143554688
 20
-990.4170532226562
 10
1650.763427734375
 20
-975.0641479492188
 10
1707.962158203125
 20
-959.4359130859375
 10
1634.523071289062
 20
-887.5684814453125
 10
1561.74609375
 20
-816.3489379882812
 10
1488.969116210938
 20
-745.1294555664062
 97
        0
 97
        0
 92
        1
 93
        1
 72
     4
 94
        3
 73
     0
 74
     1
 95
       26
 96
       22
 40
0.0
 40
0.0
 40
0.0
 40
0.0
 40
1.0
 40
1.0
 40
1.0
 40
2.0
 40
2.0
 40
2.0
 40
3.0
 40
3.0
 40
3.0
 40
4.0
 40
4.0
 40
4.0
 40
5.0
 40
5.0
 40
5.0
 40
6.0
 40
6.0
 40
6.0
 40
7.0
 40
7.0
 40
7.0
 40
7.0
 10
702.220703125
 20
-843.6506958007812
 10
701.9231567382812
 20
-843.4912719726562
 10
701.6256713867188
 20
-843.3318481445312
 10
701.328125
 20
-843.1724243164062
 10
622.3873291015625
 20
-936.9359130859375
 10
543.4465942382812
 20
-1030.699401855469
 10
463.7385864257812
 20
-1125.374206542969
 10
466.3561401367188
 20
-1125.374206542969
 10
467.5009155273438
 20
-1125.388488769531
 10
468.6452331542969
 20
-1125.372009277344
 10
515.9659423828125
 20
-1124.691589355469
 10
563.285888671875
 20
-1123.9404296875
 10
610.6084594726562
 20
-1123.437377929688
 10
615.0376586914062
 20
-1123.390258789062
 10
616.8242797851562
 20
-1122.071838378906
 10
618.1224975585938
 20
-1117.824584960938
 10
643.21142578125
 20
-1035.743957519531
 10
668.4798583984375
 20
-953.71826171875
 10
693.7015991210938
 20
-871.6782836914062
 10
696.571044921875
 20
-862.3449096679688
 10
699.3823852539062
 20
-852.99365234375
 10
702.220703125
 20
-843.6506958007812
 97
        0
 97
        0
 75
     2
 76
     1
 98
        0
  0
SPLINE
  5
5A
330
45
100
AcDbEntity
  8
Layer 1
370
     0
100
AcDbSpline
210
0.0
220
0.0
230
1.0
 70
    11
 71
     3
 72
    44
 73
    40
 74
     0
 42
0.0000000001
 43
0.0000000001
 12
1.0
 22
0.0
 32
0.0
 13
1.0
 23
0.0
 33
0.0
 40
0.0
 40
0.0
 40
0.0
 40
0.0
 40
1.0
 40
1.0
 40
1.0
 40
2.0
 40
2.0
 40
2.0
 40
3.0
 40
3.0
 40
3.0
 40
4.0
 40
4.0
 40
4.0
 40
5.0
 40
5.0
 40
5.0
 40
6.0
 40
6.0
 40
6.0
 40
7.0
 40
7.0
 40
7.0
 40
8.0
 40
8.0
 40
8.0
 40
9.0
 40
9.0
 40
9.0
 40
10.0
 40
10.0
 40
10.0
 40
11.0
 40
11.0
 40
11.0
 40
12.0
 40
12.0
 40
12.0
 40
13.0
 40
13.0
 40
13.0
 40
13.0
 10
990.0
 20
-199.0
 30
0.0
 10
996.6594848632812
 20
-201.3912377357483
 30
0.0
 10
999.6027221679688
 20
-206.2975120544434
 30
0.0
 10
1000.521606445312
 20
-213.1817579269409
 30
0.0
 10
1005.2333984375
 20
-248.4803466796875
 30
0.0
 10
1010.152404785156
 20
-283.7512817382812
 30
0.0
 10
1014.998840332031
 20
-319.0318984985352
 30
0.0
 10
1020.184936523438
 20
-356.7854309082031
 30
0.0
 10
1025.376037597656
 20
-394.5382537841797
 30
0.0
 10
1030.555480957031
 20
-432.2926940917969
 30
0.0
 10
1035.712219238281
 20
-469.8825073242188
 30
0.0
 10
1040.850708007812
 20
-507.4747924804688
 30
0.0
 10
1046.010131835938
 20
-545.064208984375
 30
0.0
 10
1048.544555664062
 20
-563.5289001464844
 30
0.0
 10
1051.056335449219
 20
-581.9968872070312
 30
0.0
 10
1053.677307128906
 20
-600.4493713378906
 30
0.0
 10
1055.291381835938
 20
-611.8124084472656
 30
0.0
 10
1047.253356933594
 20
-619.5731506347656
 30
0.0
 10
1037.343444824219
 20
-616.0373229980469
 30
0.0
 10
1031.953430175781
 20
-614.1141967773438
 30
0.0
 10
1029.847106933594
 20
-609.6577453613281
 30
0.0
 10
1029.132019042969
 20
-604.5123901367188
 30
0.0
 10
1025.008972167969
 20
-574.8436889648438
 30
0.0
 10
1021.020385742188
 20
-545.1563110351562
 30
0.0
 10
1016.950439453125
 20
-515.4801635742188
 30
0.0
 10
1011.795227050781
 20
-477.8901062011719
 30
0.0
 10
1006.59521484375
 20
-440.3061828613281
 30
0.0
 10
1001.43408203125
 20
-402.7169342041016
 30
0.0
 10
996.2730102539062
 20
-365.1278533935547
 30
0.0
 10
991.1312255859375
 20
-327.5361022949219
 30
0.0
 10
985.9899291992188
 20
-289.9442977905273
 30
0.0
 10
982.6076049804688
 20
-265.212776184082
 30
0.0
 10
979.1829223632812
 20
-240.4868087768555
 30
0.0
 10
975.8964233398438
 20
-215.7425098419189
 30
0.0
 10
974.63818359375
 20
-206.2690773010254
 30
0.0
 10
977.1024780273438
 20
-202.4263644218445
 30
0.0
 10
986.0
 20
-199.0
 30
0.0
 10
987.3333129882812
 20
-199.0
 30
0.0
 10
988.6666870117188
 20
-199.0
 30
0.0
 10
990.0
 20
-199.0
 30
0.0
  0
HATCH
  5
5B
330
45
100
AcDbEntity
  8
Layer 1
 62
     7
420
 16777215
100
AcDbHatch
 10
0.0
 20
0.0
 30
0.0
210
0.0
220
0.0
230
1.0
  2
SOLID
 70
     1
 71
     0
 91
        1
 92
        1
 93
        1
 72
     4
 94
        3
 73
     0
 74
     1
 95
       44
 96
       40
 40
0.0
 40
0.0
 40
0.0
 40
0.0
 40
1.0
 40
1.0
 40
1.0
 40
2.0
 40
2.0
 40
2.0
 40
3.0
 40
3.0
 40
3.0
 40
4.0
 40
4.0
 40
4.0
 40
5.0
 40
5.0
 40
5.0
 40
6.0
 40
6.0
 40
6.0
 40
7.0
 40
7.0
 40
7.0
 40
8.0
 40
8.0
 40
8.0
 40
9.0
 40
9.0
 40
9.0
 40
10.0
 40
10.0
 40
10.0
 40
11.0
 40
11.0
 40
11.0
 40
12.0
 40
12.0
 40
12.0
 40
13.0
 40
13.0
 40
13.0
 40
13.0
 10
990.0
 20
-199.0
 10
996.6594848632812
 20
-201.3912377357483
 10
999.6027221679688
 20
-206.2975120544434
 10
1000.521606445312
 20
-213.1817579269409
 10
1005.2333984375
 20
-248.4803466796875
 10
1010.152404785156
 20
-283.7512817382812
 10
1014.998840332031
 20
-319.0318984985352
 10
1020.184936523438
 20
-356.7854309082031
 10
1025.376037597656
 20
-394.5382537841797
 10
1030.555480957031
 20
-432.2926940917969
 10
1035.712219238281
 20
-469.8825073242188
 10
1040.850708007812
 20
-507.4747924804688
 10
1046.010131835938
 20
-545.064208984375
 10
1048.544555664062
 20
-563.5289001464844
 10
1051.056335449219
 20
-581.9968872070312
 10
1053.677307128906
 20
-600.4493713378906
 10
1055.291381835938
 20
-611.8124084472656
 10
1047.253356933594
 20
-619.5731506347656
 10
1037.343444824219
 20
-616.0373229980469
 10
1031.953430175781
 20
-614.1141967773438
 10
1029.847106933594
 20
-609.6577453613281
 10
1029.132019042969
 20
-604.5123901367188
 10
1025.008972167969
 20
-574.8436889648438
 10
1021.020385742188
 20
-545.1563110351562
 10
1016.950439453125
 20
-515.4801635742188
 10
1011.795227050781
 20
-477.8901062011719
 10
1006.59521484375
 20
-440.3061828613281
 10
1001.43408203125
 20
-402.7169342041016
 10
996.2730102539062
 20
-365.1278533935547
 10
991.1312255859375
 20
-327.5361022949219
 10
985.9899291992188
 20
-289.9442977905273
 10
982.6076049804688
 20
-265.212776184082
 10
979.1829223632812
 20
-240.4868087768555
 10
975.8964233398438
 20
-215.7425098419189
 10
974.63818359375
 20
-206.2690773010254
 10
977.1024780273438
 20
-202.4263644218445
 10
986.0
 20
-199.0
 10
987.3333129882812
 20
-199.0
 10
988.6666870117188
 20
-199.0
 10
990.0
 20
-199.0
 97
        0
 97
        0
 75
     2
 76
     1
 98
        0
  0
SPLINE
  5
5C
330
45
100
AcDbEntity
  8
Layer 1
370
     0
100
AcDbSpline
210
0.0
220
0.0
230
1.0
 70
    11
 71
     3
 72
    29
 73
    25
 74
     0
 42
0.0000000001
 43
0.0000000001
 12
1.0
 22
0.0
 32
0.0
 13
1.0
 23
0.0
 33
0.0
 40
0.0
 40
0.0
 40
0.0
 40
0.0
 40
1.0
 40
1.0
 40
1.0
 40
2.0
 40
2.0
 40
2.0
 40
3.0
 40
3.0
 40
3.0
 40
4.0
 40
4.0
 40
4.0
 40
5.0
 40
5.0
 40
5.0
 40
6.0
 40
6.0
 40
6.0
 40
7.0
 40
7.0
 40
7.0
 40
8.0
 40
8.0
 40
8.0
 40
8.0
 10
41.0
 20
-878.0
 30
0.0
 10
47.33163785934448
 20
-867.1286010742188
 30
0.0
 10
52.27721691131592
 20
-865.7689208984375
 30
0.0
 10
63.32634925842285
 20
-871.9246215820312
 30
0.0
 10
154.3122482299805
 20
-922.613525390625
 30
0.0
 10
245.2960968017578
 20
-973.3060302734375
 30
0.0
 10
336.275390625
 20
-1024.006713867188
 30
0.0
 10
344.6182250976562
 20
-1028.656005859375
 30
0.0
 10
347.3163146972656
 20
-1035.046691894531
 30
0.0
 10
343.9205322265625
 20
-1041.909606933594
 30
0.0
 10
341.3807067871094
 20
-1047.042663574219
 30
0.0
 10
335.7807006835938
 20
-1049.650634765625
 30
0.0
 10
330.2086486816406
 20
-1048.070007324219
 30
0.0
 10
327.99658203125
 20
-1047.442504882812
 30
0.0
 10
325.811767578125
 20
-1046.527526855469
 30
0.0
 10
323.8013305664062
 20
-1045.408081054688
 30
0.0
 10
232.8045043945312
 20
-994.7388305664062
 30
0.0
 10
141.8085861206055
 20
-944.0678100585938
 30
0.0
 10
50.91935253143311
 20
-893.2061767578125
 30
0.0
 10
47.09367561340332
 20
-891.0653076171875
 30
0.0
 10
44.28336524963379
 20
-887.1099853515625
 30
0.0
 10
41.00000357627869
 20
-884.0
 30
0.0
 10
41.0
 20
-882.0
 30
0.0
 10
41.0
 20
-880.0
 30
0.0
 10
41.0
 20
-878.0
 30
0.0
  0
HATCH
  5
5D
330
45
100
AcDbEntity
  8
Layer 1
 62
     7
420
 16777215
100
AcDbHatch
 10
0.0
 20
0.0
 30
0.0
210
0.0
220
0.0
230
1.0
  2
SOLID
 70
     1
 71
     0
 91
        1
 92
        1
 93
        1
 72
     4
 94
        3
 73
     0
 74
     1
 95
       29
 96
       25
 40
0.0
 40
0.0
 40
0.0
 40
0.0
 40
1.0
 40
1.0
 40
1.0
 40
2.0
 40
2.0
 40
2.0
 40
3.0
 40
3.0
 40
3.0
 40
4.0
 40
4.0
 40
4.0
 40
5.0
 40
5.0
 40
5.0
 40
6.0
 40
6.0
 40
6.0
 40
7.0
 40
7.0
 40
7.0
 40
8.0
 40
8.0
 40
8.0
 40
8.0
 10
41.0
 20
-878.0
 10
47.33163785934448
 20
-867.1286010742188
 10
52.27721691131592
 20
-865.7689208984375
 10
63.32634925842285
 20
-871.9246215820312
 10
154.3122482299805
 20
-922.613525390625
 10
245.2960968017578
 20
-973.3060302734375
 10
336.275390625
 20
-1024.006713867188
 10
344.6182250976562
 20
-1028.656005859375
 10
347.3163146972656
 20
-1035.046691894531
 10
343.9205322265625
 20
-1041.909606933594
 10
341.3807067871094
 20
-1047.042663574219
 10
335.7807006835938
 20
-1049.650634765625
 10
330.2086486816406
 20
-1048.070007324219
 10
327.99658203125
 20
-1047.442504882812
 10
325.811767578125
 20
-1046.527526855469
 10
323.8013305664062
 20
-1045.408081054688
 10
232.8045043945312
 20
-994.7388305664062
 10
141.8085861206055
 20
-944.0678100585938
 10
50.91935253143311
 20
-893.2061767578125
 10
47.09367561340332
 20
-891.0653076171875
 10
44.28336524963379
 20
-887.1099853515625
 10
41.00000357627869
 20
-884.0
 10
41.0
 20
-882.0
 10
41.0
 20
-880.0
 10
41.0
 20
-878.0
 97
        0
 97
        0
 75
     2
 76
     1
 98
        0
  0
SPLINE
  5
5E
330
45
100
AcDbEntity
  8
Layer 1
370
     0
100
AcDbSpline
210
0.0
220
0.0
230
1.0
 70
    11
 71
     3
 72
    32
 73
    28
 74
     0
 42
0.0000000001
 43
0.0000000001
 12
1.0
 22
0.0
 32
0.0
 13
1.0
 23
0.0
 33
0.0
 40
0.0
 40
0.0
 40
0.0
 40
0.0
 40
1.0
 40
1.0
 40
1.0
 40
2.0
 40
2.0
 40
2.0
 40
3.0
 40
3.0
 40
3.0
 40
4.0
 40
4.0
 40
4.0
 40
5.0
 40
5.0
 40
5.0
 40
6.0
 40
6.0
 40
6.0
 40
7.0
 40
7.0
 40
7.0
 40
8.0
 40
8.0
 40
8.0
 40
9.0
 40
9.0
 40
9.0
 40
9.0
 10
1961.0
 20
-679.0
 30
0.0
 10
1958.482055664062
 20
-682.3893737792969
 30
0.0
 10
1956.55029296875
 20
-686.5127868652344
 30
0.0
 10
1953.359985351562
 20
-689.0602111816406
 30
0.0
 10
1883.754760742188
 20
-744.6407470703125
 30
0.0
 10
1814.013427734375
 20
-800.0508422851562
 30
0.0
 10
1744.285400390625
 20
-855.4773559570312
 30
0.0
 10
1737.504028320312
 20
-860.867919921875
 30
0.0
 10
1731.122802734375
 20
-861.2727661132812
 30
0.0
 10
1726.256713867188
 20
-856.7760009765625
 30
0.0
 10
1719.857177734375
 20
-850.8623657226562
 30
0.0
 10
1720.740356445312
 20
-842.5490112304688
 30
0.0
 10
1728.56201171875
 20
-836.28857421875
 30
0.0
 10
1741.43017578125
 20
-825.9886474609375
 30
0.0
 10
1754.360595703125
 20
-815.7665405273438
 30
0.0
 10
1767.261962890625
 20
-805.5078735351562
 30
0.0
 10
1824.079711914062
 20
-760.3282470703125
 30
0.0
 10
1880.906616210938
 20
-715.160400390625
 30
0.0
 10
1937.694091796875
 20
-669.94287109375
 30
0.0
 10
1942.489135742188
 20
-666.1249084472656
 30
0.0
 10
1947.625366210938
 20
-662.8529663085938
 30
0.0
 10
1953.51123046875
 20
-666.3536376953125
 30
0.0
 10
1956.621337890625
 20
-668.2034912109375
 30
0.0
 10
1958.542114257812
 20
-672.05322265625
 30
0.0
 10
1961.0
 20
-675.0
 30
0.0
 10
1961.0
 20
-676.3333435058594
 30
0.0
 10
1961.0
 20
-677.6666564941406
 30
0.0
 10
1961.0
 20
-679.0
 30
0.0
  0
HATCH
  5
5F
330
45
100
AcDbEntity
  8
Layer 1
 62
     7
420
 16777215
100
AcDbHatch
 10
0.0
 20
0.0
 30
0.0
210
0.0
220
0.0
230
1.0
  2
SOLID
 70
     1
 71
     0
 91
        1
 92
        1
 93
        1
 72
     4
 94
        3
 73
     0
 74
     1
 95
       32
 96
       28
 40
0.0
 40
0.0
 40
0.0
 40
0.0
 40
1.0
 40
1.0
 40
1.0
 40
2.0
 40
2.0
 40
2.0
 40
3.0
 40
3.0
 40
3.0
 40
4.0
 40
4.0
 40
4.0
 40
5.0
 40
5.0
 40
5.0
 40
6.0
 40
6.0
 40
6.0
 40
7.0
 40
7.0
 40
7.0
 40
8.0
 40
8.0
 40
8.0
 40
9.0
 40
9.0
 40
9.0
 40
9.0
 10
1961.0
 20
-679.0
 10
1958.482055664062
 20
-682.3893737792969
 10
1956.55029296875
 20
-686.5127868652344
 10
1953.359985351562
 20
-689.0602111816406
 10
1883.754760742188
 20
-744.6407470703125
 10
1814.013427734375
 20
-800.0508422851562
 10
1744.285400390625
 20
-855.4773559570312
 10
1737.504028320312
 20
-860.867919921875
 10
1731.122802734375
 20
-861.2727661132812
 10
1726.256713867188
 20
-856.7760009765625
 10
1719.857177734375
 20
-850.8623657226562
 10
1720.740356445312
 20
-842.5490112304688
 10
1728.56201171875
 20
-836.28857421875
 10
1741.43017578125
 20
-825.9886474609375
 10
1754.360595703125
 20
-815.7665405273438
 10
1767.261962890625
 20
-805.5078735351562
 10
1824.079711914062
 20
-760.3282470703125
 10
1880.906616210938
 20
-715.160400390625
 10
1937.694091796875
 20
-669.94287109375
 10
1942.489135742188
 20
-666.1249084472656
 10
1947.625366210938
 20
-662.8529663085938
 10
1953.51123046875
 20
-666.3536376953125
 10
1956.621337890625
 20
-668.2034912109375
 10
1958.542114257812
 20
-672.05322265625
 10
1961.0
 20
-675.0
 10
1961.0
 20
-676.3333435058594
 10
1961.0
 20
-677.6666564941406
 10
1961.0
 20
-679.0
 97
        0
 97
        0
 75
     2
 76
     1
 98
        0
  0
SPLINE
  5
60
330
45
100
AcDbEntity
  8
Layer 1
370
     0
100
AcDbSpline
210
0.0
220
0.0
230
1.0
 70
    11
 71
     3
 72
    29
 73
    25
 74
     0
 42
0.0000000001
 43
0.0000000001
 12
1.0
 22
0.0
 32
0.0
 13
1.0
 23
0.0
 33
0.0
 40
0.0
 40
0.0
 40
0.0
 40
0.0
 40
1.0
 40
1.0
 40
1.0
 40
2.0
 40
2.0
 40
2.0
 40
3.0
 40
3.0
 40
3.0
 40
4.0
 40
4.0
 40
4.0
 40
5.0
 40
5.0
 40
5.0
 40
6.0
 40
6.0
 40
6.0
 40
7.0
 40
7.0
 40
7.0
 40
8.0
 40
8.0
 40
8.0
 40
8.0
 10
1542.6943359375
 20
-289.9381561279297
 30
0.0
 10
1548.7958984375
 20
-289.9977111816406
 30
0.0
 10
1554.36962890625
 20
-296.4278182983398
 30
0.0
 10
1553.146728515625
 20
-303.5895614624023
 30
0.0
 10
1552.734252929688
 20
-306.0050354003906
 30
0.0
 10
1551.879516601562
 20
-308.4304428100586
 30
0.0
 10
1550.78515625
 20
-310.6316757202148
 30
0.0
 10
1506.873413085938
 20
-398.9552459716797
 30
0.0
 10
1462.915893554688
 20
-487.2560729980469
 30
0.0
 10
1418.946166992188
 20
-575.5508728027344
 30
0.0
 10
1414.965209960938
 20
-583.5450744628906
 30
0.0
 10
1408.770874023438
 20
-586.5414428710938
 30
0.0
 10
1402.161499023438
 20
-583.8279113769531
 30
0.0
 10
1394.910278320312
 20
-580.8508911132812
 30
0.0
 10
1392.408569335938
 20
-573.5208435058594
 30
0.0
 10
1396.267211914062
 20
-565.5217590332031
 30
0.0
 10
1401.687377929688
 20
-554.2853698730469
 30
0.0
 10
1407.368530273438
 20
-543.1750793457031
 30
0.0
 10
1412.927001953125
 20
-532.0052795410156
 30
0.0
 10
1451.387939453125
 20
-454.71728515625
 30
0.0
 10
1489.857177734375
 20
-377.4334564208984
 30
0.0
 10
1528.281005859375
 20
-300.126953125
 30
0.0
 10
1531.084594726562
 20
-294.4864807128906
 30
0.0
 10
1534.376098632812
 20
-289.7495956420898
 30
0.0
 10
1542.6943359375
 20
-289.9381561279297
 30
0.0
  0
HATCH
  5
61
330
45
100
AcDbEntity
  8
Layer 1
 62
     7
420
 16777215
100
AcDbHatch
 10
0.0
 20
0.0
 30
0.0
210
0.0
220
0.0
230
1.0
  2
SOLID
 70
     1
 71
     0
 91
        1
 92
        1
 93
        1
 72
     4
 94
        3
 73
     0
 74
     1
 95
       29
 96
       25
 40
0.0
 40
0.0
 40
0.0
 40
0.0
 40
1.0
 40
1.0
 40
1.0
 40
2.0
 40
2.0
 40
2.0
 40
3.0
 40
3.0
 40
3.0
 40
4.0
 40
4.0
 40
4.0
 40
5.0
 40
5.0
 40
5.0
 40
6.0
 40
6.0
 40
6.0
 40
7.0
 40
7.0
 40
7.0
 40
8.0
 40
8.0
 40
8.0
 40
8.0
 10
1542.6943359375
 20
-289.9381561279297
 10
1548.7958984375
 20
-289.9977111816406
 10
1554.36962890625
 20
-296.4278182983398
 10
1553.146728515625
 20
-303.5895614624023
 10
1552.734252929688
 20
-306.0050354003906
 10
1551.879516601562
 20
-308.4304428100586
 10
1550.78515625
 20
-310.6316757202148
 10
1506.873413085938
 20
-398.9552459716797
 10
1462.915893554688
 20
-487.2560729980469
 10
1418.946166992188
 20
-575.5508728027344
 10
1414.965209960938
 20
-583.5450744628906
 10
1408.770874023438
 20
-586.5414428710938
 10
1402.161499023438
 20
-583.8279113769531
 10
1394.910278320312
 20
-580.8508911132812
 10
1392.408569335938
 20
-573.5208435058594
 10
1396.267211914062
 20
-565.5217590332031
 10
1401.687377929688
 20
-554.2853698730469
 10
1407.368530273438
 20
-543.1750793457031
 10
1412.927001953125
 20
-532.0052795410156
 10
1451.387939453125
 20
-454.71728515625
 10
1489.857177734375
 20
-377.4334564208984
 10
1528.281005859375
 20
-300.126953125
 10
1531.084594726562
 20
-294.4864807128906
 10
1534.376098632812
 20
-289.7495956420898
 10
1542.6943359375
 20
-289.9381561279297
 97
        0
 97
        0
 75
     2
 76
     1
 98
        0
  0
SPLINE
  5
62
330
45
100
AcDbEntity
  8
Layer 1
370
     0
100
AcDbSpline
210
0.0
220
0.0
230
1.0
 70
    11
 71
     3
 72
    32
 73
    28
 74
     0
 42
0.0000000001
 43
0.0000000001
 12
1.0
 22
0.0
 32
0.0
 13
1.0
 23
0.0
 33
0.0
 40
0.0
 40
0.0
 40
0.0
 40
0.0
 40
1.0
 40
1.0
 40
1.0
 40
2.0
 40
2.0
 40
2.0
 40
3.0
 40
3.0
 40
3.0
 40
4.0
 40
4.0
 40
4.0
 40
5.0
 40
5.0
 40
5.0
 40
6.0
 40
6.0
 40
6.0
 40
7.0
 40
7.0
 40
7.0
 40
8.0
 40
8.0
 40
8.0
 40
9.0
 40
9.0
 40
9.0
 40
9.0
 10
474.7841186523438
 20
-464.1753234863281
 30
0.0
 10
475.5789184570312
 20
-458.3568115234375
 30
0.0
 10
478.5037841796875
 20
-454.751953125
 30
0.0
 10
483.2275390625
 20
-452.5877838134766
 30
0.0
 10
487.4545593261719
 20
-450.6511840820312
 30
0.0
 10
492.8775329589844
 20
-452.0536956787109
 30
0.0
 10
496.4002685546875
 20
-455.8380126953125
 30
0.0
 10
497.8565063476562
 20
-457.4023742675781
 30
0.0
 10
499.1220703125
 20
-459.1945495605469
 30
0.0
 10
500.2200927734375
 20
-461.0347900390625
 30
0.0
 10
545.9123840332031
 20
-537.6158142089844
 30
0.0
 10
591.5783081054688
 20
-614.2125854492188
 30
0.0
 10
637.2391357421875
 20
-690.8123779296875
 30
0.0
 10
642.3445434570312
 20
-699.3771362304688
 30
0.0
 10
641.5580444335938
 20
-706.212890625
 30
0.0
 10
635.03759765625
 20
-710.5136108398438
 30
0.0
 10
630.5107421875
 20
-713.49951171875
 30
0.0
 10
624.2312622070312
 20
-713.0708618164062
 30
0.0
 10
620.4075927734375
 20
-709.2466125488281
 30
0.0
 10
618.6675415039062
 20
-707.5062866210938
 30
0.0
 10
617.1505737304688
 20
-705.4586486816406
 30
0.0
 10
615.885986328125
 20
-703.3394165039062
 30
0.0
 10
570.1897583007812
 20
-626.7607727050781
 30
0.0
 10
524.523193359375
 20
-550.1643676757812
 30
0.0
 10
478.921875
 20
-473.5290832519531
 30
0.0
 10
477.1910705566406
 20
-470.620361328125
 30
0.0
 10
476.1477661132812
 20
-467.3025207519531
 30
0.0
 10
474.7841186523438
 20
-464.1753234863281
 30
0.0
  0
HATCH
  5
63
330
45
100
AcDbEntity
  8
Layer 1
 62
     7
420
 16777215
100
AcDbHatch
 10
0.0
 20
0.0
 30
0.0
210
0.0
220
0.0
230
1.0
  2
SOLID
 70
     1
 71
     0
 91
        1
 92
        1
 93
        1
 72
     4
 94
        3
 73
     0
 74
     1
 95
       32
 96
       28
 40
0.0
 40
0.0
 40
0.0
 40
0.0
 40
1.0
 40
1.0
 40
1.0
 40
2.0
 40
2.0
 40
2.0
 40
3.0
 40
3.0
 40
3.0
 40
4.0
 40
4.0
 40
4.0
 40
5.0
 40
5.0
 40
5.0
 40
6.0
 40
6.0
 40
6.0
 40
7.0
 40
7.0
 40
7.0
 40
8.0
 40
8.0
 40
8.0
 40
9.0
 40
9.0
 40
9.0
 40
9.0
 10
474.7841186523438
 20
-464.1753234863281
 10
475.5789184570312
 20
-458.3568115234375
 10
478.5037841796875
 20
-454.751953125
 10
483.2275390625
 20
-452.5877838134766
 10
487.4545593261719
 20
-450.6511840820312
 10
492.8775329589844
 20
-452.0536956787109
 10
496.4002685546875
 20
-455.8380126953125
 10
497.8565063476562
 20
-457.4023742675781
 10
499.1220703125
 20
-459.1945495605469
 10
500.2200927734375
 20
-461.0347900390625
 10
545.9123840332031
 20
-537.6158142089844
 10
591.5783081054688
 20
-614.2125854492188
 10
637.2391357421875
 20
-690.8123779296875
 10
642.3445434570312
 20
-699.3771362304688
 10
641.5580444335938
 20
-706.212890625
 10
635.03759765625
 20
-710.5136108398438
 10
630.5107421875
 20
-713.49951171875
 10
624.2312622070312
 20
-713.0708618164062
 10
620.4075927734375
 20
-709.2466125488281
 10
618.6675415039062
 20
-707.5062866210938
 10
617.1505737304688
 20
-705.4586486816406
 10
615.885986328125
 20
-703.3394165039062
 10
570.1897583007812
 20
-626.7607727050781
 10
524.523193359375
 20
-550.1643676757812
 10
478.921875
 20
-473.5290832519531
 10
477.1910705566406
 20
-470.620361328125
 10
476.1477661132812
 20
-467.3025207519531
 10
474.7841186523438
 20
-464.1753234863281
 97
        0
 97
        0
 75
     2
 76
     1
 98
        0
  0
SPLINE
  5
64
330
45
100
AcDbEntity
  8
Layer 1
370
     0
100
AcDbSpline
210
0.0
220
0.0
230
1.0
 70
    11
 71
     3
 72
    32
 73
    28
 74
     0
 42
0.0000000001
 43
0.0000000001
 12
1.0
 22
0.0
 32
0.0
 13
1.0
 23
0.0
 33
0.0
 40
0.0
 40
0.0
 40
0.0
 40
0.0
 40
1.0
 40
1.0
 40
1.0
 40
2.0
 40
2.0
 40
2.0
 40
3.0
 40
3.0
 40
3.0
 40
4.0
 40
4.0
 40
4.0
 40
5.0
 40
5.0
 40
5.0
 40
6.0
 40
6.0
 40
6.0
 40
7.0
 40
7.0
 40
7.0
 40
8.0
 40
8.0
 40
8.0
 40
9.0
 40
9.0
 40
9.0
 40
9.0
 10
561.7501831054688
 20
-1459.2431640625
 30
0.0
 10
559.10986328125
 20
-1463.405883789062
 30
0.0
 10
557.3466796875
 20
-1467.356079101562
 30
0.0
 10
554.5739135742188
 20
-1470.380493164062
 30
0.0
 10
517.64599609375
 20
-1510.662109375
 30
0.0
 10
480.5772705078125
 20
-1550.814331054688
 30
0.0
 10
443.5423889160156
 20
-1590.997802734375
 30
0.0
 10
427.2832336425781
 20
-1608.639282226562
 30
0.0
 10
411.057861328125
 20
-1626.312255859375
 30
0.0
 10
394.740234375
 20
-1643.8994140625
 30
0.0
 10
388.9153747558594
 20
-1650.177612304688
 30
0.0
 10
381.820068359375
 20
-1650.821655273438
 30
0.0
 10
376.2470703125
 20
-1645.877685546875
 30
0.0
 10
372.00830078125
 20
-1642.1171875
 30
0.0
 10
370.9230041503906
 20
-1636.453247070312
 30
0.0
 10
373.7094116210938
 20
-1631.452514648438
 30
0.0
 10
374.8294067382812
 20
-1629.442626953125
 30
0.0
 10
376.2337646484375
 20
-1627.529907226562
 30
0.0
 10
377.7934265136719
 20
-1625.835083007812
 30
0.0
 10
430.8173217773438
 20
-1568.214233398438
 30
0.0
 10
483.8747253417969
 20
-1510.624267578125
 30
0.0
 10
536.9299926757812
 20
-1453.032348632812
 30
0.0
 10
543.1901245117188
 20
-1446.236938476562
 30
0.0
 10
550.1241455078125
 20
-1444.784301757812
 30
0.0
 10
555.6407470703125
 20
-1449.780639648438
 30
0.0
 10
558.1217651367188
 20
-1452.027709960938
 30
0.0
 10
559.4412841796875
 20
-1455.557373046875
 30
0.0
 10
561.7501831054688
 20
-1459.2431640625
 30
0.0
  0
HATCH
  5
65
330
45
100
AcDbEntity
  8
Layer 1
 62
     7
420
 16777215
100
AcDbHatch
 10
0.0
 20
0.0
 30
0.0
210
0.0
220
0.0
230
1.0
  2
SOLID
 70
     1
 71
     0
 91
        1
 92
        1
 93
        1
 72
     4
 94
        3
 73
     0
 74
     1
 95
       32
 96
       28
 40
0.0
 40
0.0
 40
0.0
 40
0.0
 40
1.0
 40
1.0
 40
1.0
 40
2.0
 40
2.0
 40
2.0
 40
3.0
 40
3.0
 40
3.0
 40
4.0
 40
4.0
 40
4.0
 40
5.0
 40
5.0
 40
5.0
 40
6.0
 40
6.0
 40
6.0
 40
7.0
 40
7.0
 40
7.0
 40
8.0
 40
8.0
 40
8.0
 40
9.0
 40
9.0
 40
9.0
 40
9.0
 10
561.7501831054688
 20
-1459.2431640625
 10
559.10986328125
 20
-1463.405883789062
 10
557.3466796875
 20
-1467.356079101562
 10
554.5739135742188
 20
-1470.380493164062
 10
517.64599609375
 20
-1510.662109375
 10
480.5772705078125
 20
-1550.814331054688
 10
443.5423889160156
 20
-1590.997802734375
 10
427.2832336425781
 20
-1608.639282226562
 10
411.057861328125
 20
-1626.312255859375
 10
394.740234375
 20
-1643.8994140625
 10
388.9153747558594
 20
-1650.177612304688
 10
381.820068359375
 20
-1650.821655273438
 10
376.2470703125
 20
-1645.877685546875
 10
372.00830078125
 20
-1642.1171875
 10
370.9230041503906
 20
-1636.453247070312
 10
373.7094116210938
 20
-1631.452514648438
 10
374.8294067382812
 20
-1629.442626953125
 10
376.2337646484375
 20
-1627.529907226562
 10
377.7934265136719
 20
-1625.835083007812
 10
430.8173217773438
 20
-1568.214233398438
 10
483.8747253417969
 20
-1510.624267578125
 10
536.9299926757812
 20
-1453.032348632812
 10
543.1901245117188
 20
-1446.236938476562
 10
550.1241455078125
 20
-1444.784301757812
 10
555.6407470703125
 20
-1449.780639648438
 10
558.1217651367188
 20
-1452.027709960938
 10
559.4412841796875
 20
-1455.557373046875
 10
561.7501831054688
 20
-1459.2431640625
 97
        0
 97
        0
 75
     2
 76
     1
 98
        0
  0
SPLINE
  5
66
330
45
100
AcDbEntity
  8
Layer 1
370
     0
100
AcDbSpline
210
0.0
220
0.0
230
1.0
 70
    11
 71
     3
 72
    29
 73
    25
 74
     0
 42
0.0000000001
 43
0.0000000001
 12
1.0
 22
0.0
 32
0.0
 13
1.0
 23
0.0
 33
0.0
 40
0.0
 40
0.0
 40
0.0
 40
0.0
 40
1.0
 40
1.0
 40
1.0
 40
2.0
 40
2.0
 40
2.0
 40
3.0
 40
3.0
 40
3.0
 40
4.0
 40
4.0
 40
4.0
 40
5.0
 40
5.0
 40
5.0
 40
6.0
 40
6.0
 40
6.0
 40
7.0
 40
7.0
 40
7.0
 40
8.0
 40
8.0
 40
8.0
 40
8.0
 10
1726.489624023438
 20
-1529.901000976562
 30
0.0
 10
1723.3916015625
 20
-1528.177856445312
 30
0.0
 10
1719.847900390625
 20
-1526.9560546875
 30
0.0
 10
1717.261840820312
 20
-1524.656982421875
 30
0.0
 10
1672.06591796875
 20
-1484.47705078125
 30
0.0
 10
1626.974731445312
 20
-1444.179077148438
 30
0.0
 10
1581.900268554688
 20
-1403.86279296875
 30
0.0
 10
1576.818359375
 20
-1399.3173828125
 30
0.0
 10
1575.442138671875
 20
-1393.132690429688
 30
0.0
 10
1578.019775390625
 20
-1388.12841796875
 30
0.0
 10
1580.458374023438
 20
-1383.394287109375
 30
0.0
 10
1585.61328125
 20
-1380.494506835938
 30
0.0
 10
1590.919555664062
 20
-1381.769897460938
 30
0.0
 10
1593.8466796875
 20
-1382.473754882812
 30
0.0
 10
1596.846801757812
 20
-1384.129272460938
 30
0.0
 10
1599.1123046875
 20
-1386.144653320312
 30
0.0
 10
1644.047607421875
 20
-1426.116333007812
 30
0.0
 10
1688.890380859375
 20
-1466.1923828125
 30
0.0
 10
1733.719482421875
 20
-1506.283325195312
 30
0.0
 10
1738.868530273438
 20
-1510.88818359375
 30
0.0
 10
1740.354125976562
 20
-1516.221557617188
 30
0.0
 10
1738.297729492188
 20
-1521.432495117188
 30
0.0
 10
1736.529541015625
 20
-1525.913208007812
 30
0.0
 10
1731.904052734375
 20
-1529.001708984375
 30
0.0
 10
1726.489624023438
 20
-1529.901000976562
 30
0.0
  0
HATCH
  5
67
330
45
100
AcDbEntity
  8
Layer 1
 62
     7
420
 16777215
100
AcDbHatch
 10
0.0
 20
0.0
 30
0.0
210
0.0
220
0.0
230
1.0
  2
SOLID
 70
     1
 71
     0
 91
        1
 92
        1
 93
        1
 72
     4
 94
        3
 73
     0
 74
     1
 95
       29
 96
       25
 40
0.0
 40
0.0
 40
0.0
 40
0.0
 40
1.0
 40
1.0
 40
1.0
 40
2.0
 40
2.0
 40
2.0
 40
3.0
 40
3.0
 40
3.0
 40
4.0
 40
4.0
 40
4.0
 40
5.0
 40
5.0
 40
5.0
 40
6.0
 40
6.0
 40
6.0
 40
7.0
 40
7.0
 40
7.0
 40
8.0
 40
8.0
 40
8.0
 40
8.0
 10
1726.489624023438
 20
-1529.901000976562
 10
1723.3916015625
 20
-1528.177856445312
 10
1719.847900390625
 20
-1526.9560546875
 10
1717.261840820312
 20
-1524.656982421875
 10
1672.06591796875
 20
-1484.47705078125
 10
1626.974731445312
 20
-1444.179077148438
 10
1581.900268554688
 20
-1403.86279296875
 10
1576.818359375
 20
-1399.3173828125
 10
1575.442138671875
 20
-1393.132690429688
 10
1578.019775390625
 20
-1388.12841796875
 10
1580.458374023438
 20
-1383.394287109375
 10
1585.61328125
 20
-1380.494506835938
 10
1590.919555664062
 20
-1381.769897460938
 10
1593.8466796875
 20
-1382.473754882812
 10
1596.846801757812
 20
-1384.129272460938
 10
1599.1123046875
 20
-1386.144653320312
 10
1644.047607421875
 20
-1426.116333007812
 10
1688.890380859375
 20
-1466.1923828125
 10
1733.719482421875
 20
-1506.283325195312
 10
1738.868530273438
 20
-1510.88818359375
 10
1740.354125976562
 20
-1516.221557617188
 10
1738.297729492188
 20
-1521.432495117188
 10
1736.529541015625
 20
-1525.913208007812
 10
1731.904052734375
 20
-1529.001708984375
 10
1726.489624023438
 20
-1529.901000976562
 97
        0
 97
        0
 75
     2
 76
     1
 98
        0
  0
ENDBLK
  5
48
330
45
100
AcDbEntity
  8
0
100
AcDbBlockEnd
  0
ENDSEC
  0
SECTION
  2
ENTITIES
  0
INSERT
  5
42
330
1F
100
AcDbEntity
  8
Layer 1
100
AcDbBlockReference
  2
block 2
 10
0.0
 20
0.0
 30
0.0
  0
ENDSEC
  0
SECTION
  2
OBJECTS
  0
DICTIONARY
  5
C
330
0
100
AcDbDictionary
281
     1
  3
ACAD_GROUP
350
D
  3
ACAD_LAYOUT
350
1A
  3
ACAD_MATERIAL
350
3B
  3
ACAD_MLEADERSTYLE
350
69
  3
ACAD_MLINESTYLE
350
17
  3
ACAD_PLOTSETTINGS
350
19
  3
ACAD_PLOTSTYLENAME
350
E
  3
ACAD_TABLESTYLE
350
68
  3
ACAD_VISUALSTYLE
350
2A
  0
SUN
  5
3F
330
29
100
AcDbSun
 90
        1
290
     0
 63
     7
421
 16777215
 40
1.0
291
     1
 91
  2455826
 92
 54000000
292
     0
 70
     2
 71
   256
280
     1
  0
DICTIONARY
  5
D
102
{ACAD_REACTORS
330
C
102
}
330
C
100
AcDbDictionary
281
     1
  0
DICTIONARY
  5
1A
102
{ACAD_REACTORS
330
C
102
}
330
C
100
AcDbDictionary
281
     1
  3
Layout1
350
1E
  3
Layout2
350
26
  3
Model
350
22
  0
DICTIONARY
  5
3B
102
{ACAD_REACTORS
330
C
102
}
330
C
100
AcDbDictionary
281
     1
  3
ByBlock
350
3D
  3
ByLayer
350
3C
  3
Global
350
3E
  0
DICTIONARY
  5
69
102
{ACAD_REACTORS
330
C
102
}
330
C
100
AcDbDictionary
281
     1
  0
DICTIONARY
  5
17
102
{ACAD_REACTORS
330
C
102
}
330
C
100
AcDbDictionary
281
     1
  3
Standard
350
18
  0
DICTIONARY
  5
19
102
{ACAD_REACTORS
330
C
102
}
330
C
100
AcDbDictionary
281
     1
  0
ACDBDICTIONARYWDFLT
  5
E
102
{ACAD_REACTORS
330
C
102
}
330
C
100
AcDbDictionary
281
     1
  3
Normal
350
F
100
AcDbDictionaryWithDefault
340
F
  0
DICTIONARY
  5
68
102
{ACAD_REACTORS
330
C
102
}
330
C
100
AcDbDictionary
281
     1
  0
DICTIONARY
  5
2A
102
{ACAD_REACTORS
330
C
102
}
330
C
100
AcDbDictionary
281
     1
  3
2dWireframe
350
2F
  3
3D Hidden
350
31
  3
3dWireframe
350
30
  3
Basic
350
32
  3
Brighten
350
36
  3
ColorChange
350
3A
  3
Conceptual
350
34
  3
Dim
350
35
  3
Facepattern
350
39
  3
Flat
350
2B
  3
FlatWithEdges
350
2C
  3
Gouraud
350
2D
  3
GouraudWithEdges
350
2E
  3
Linepattern
350
38
  3
Realistic
350
33
  3
Thicken
350
37
  0
LAYOUT
  5
1E
102
{ACAD_REACTORS
330
1A
102
}
330
1A
100
AcDbPlotSettings
  1

  2
none_device
  4

  6

 40
0.0
 41
0.0
 42
0.0
 43
0.0
 44
0.0
 45
0.0
 46
0.0
 47
0.0
 48
0.0
 49
0.0
140
0.0
141
0.0
142
1.0
143
1.0
 70
   688
 72
     0
 73
     0
 74
     5
  7

 75
    16
 76
     0
 77
     2
 78
   300
147
1.0
148
0.0
149
0.0
100
AcDbLayout
  1
Layout1
 70
     1
 71
     1
 10
0.0
 20
0.0
 11
12.0
 21
9.0
 12
0.0
 22
0.0
 32
0.0
 14
1.000000000000000E+20
 24
1.000000000000000E+20
 34
1.000000000000000E+20
 15
-1.000000000000000E+20
 25
-1.000000000000000E+20
 35
-1.000000000000000E+20
146
0.0
 13
0.0
 23
0.0
 33
0.0
 16
1.0
 26
0.0
 36
0.0
 17
0.0
 27
1.0
 37
0.0
 76
     0
330
1B
  0
LAYOUT
  5
26
102
{ACAD_REACTORS
330
1A
102
}
330
1A
100
AcDbPlotSettings
  1

  2
none_device
  4

  6

 40
0.0
 41
0.0
 42
0.0
 43
0.0
 44
0.0
 45
0.0
 46
0.0
 47
0.0
 48
0.0
 49
0.0
140
0.0
141
0.0
142
1.0
143
1.0
 70
   688
 72
     0
 73
     0
 74
     5
  7

 75
    16
 76
     0
 77
     2
 78
   300
147
1.0
148
0.0
149
0.0
100
AcDbLayout
  1
Layout2
 70
     1
 71
     2
 10
0.0
 20
0.0
 11
0.0
 21
0.0
 12
0.0
 22
0.0
 32
0.0
 14
0.0
 24
0.0
 34
0.0
 15
0.0
 25
0.0
 35
0.0
146
0.0
 13
0.0
 23
0.0
 33
0.0
 16
1.0
 26
0.0
 36
0.0
 17
0.0
 27
1.0
 37
0.0
 76
     0
330
23
  0
LAYOUT
  5
22
102
{ACAD_REACTORS
330
1A
102
}
330
1A
100
AcDbPlotSettings
  1

  2
none_device
  4

  6

 40
0.0
 41
0.0
 42
0.0
 43
0.0
 44
0.0
 45
0.0
 46
0.0
 47
0.0
 48
0.0
 49
0.0
140
0.0
141
0.0
142
1.0
143
1.0
 70
  1712
 72
     0
 73
     0
 74
     0
  7

 75
     0
 76
     0
 77
     2
 78
   300
147
1.0
148
0.0
149
0.0
100
AcDbLayout
  1
Model
 70
     1
 71
     0
 10
0.0
 20
0.0
 11
12.0
 21
9.0
 12
0.0
 22
0.0
 32
0.0
 14
1.000000000000000E+20
 24
1.000000000000000E+20
 34
1.000000000000000E+20
 15
-1.000000000000000E+20
 25
-1.000000000000000E+20
 35
-1.000000000000000E+20
146
0.0
 13
0.0
 23
0.0
 33
0.0
 16
1.0
 26
0.0
 36
0.0
 17
0.0
 27
1.0
 37
0.0
 76
     0
330
1F
331
29
  0
MATERIAL
  5
3D
102
{ACAD_REACTORS
330
3B
102
}
330
3B
100
AcDbMaterial
  1
ByBlock
 72
     1
 94
      127
  0
MATERIAL
  5
3C
102
{ACAD_REACTORS
330
3B
102
}
330
3B
100
AcDbMaterial
  1
ByLayer
 72
     1
 94
      127
  0
MATERIAL
  5
3E
102
{ACAD_REACTORS
330
3B
102
}
330
3B
100
AcDbMaterial
  1
Global
 72
     1
 94
      127
  0
MLINESTYLE
  5
18
102
{ACAD_REACTORS
330
17
102
}
330
17
100
AcDbMlineStyle
  2
Standard
 70
     0
  3

 62
   256
 51
90.0
 52
90.0
 71
     2
 49
0.5
 62
   256
  6
BYLAYER
 49
-0.5
 62
   256
  6
BYLAYER
  0
ACDBPLACEHOLDER
  5
F
102
{ACAD_REACTORS
330
E
102
}
330
E
  0
VISUALSTYLE
  5
2F
102
{ACAD_REACTORS
330
2A
102
}
330
2A
100
AcDbVisualStyle
  2
2dWireframe
 70
     4
177
     2
291
     0
 71
     0
176
     1
 72
     2
176
     1
 73
     0
176
     1
 90
        0
176
     1
 40
-0.6
176
     1
 41
-30.0
176
     1
 62
     5
 63
     7
421
 16777215
176
     1
 74
     1
176
     1
 91
        4
176
     1
 64
     7
176
     1
 65
   257
176
     1
 75
     1
176
     1
175
     1
176
     1
 42
1.0
176
     1
 92
        0
176
     1
 66
   257
176
     1
 43
1.0
176
     1
 76
     1
176
     1
 77
     6
176
     1
 78
     2
176
     1
 67
     7
176
     1
 79
     5
176
     1
170
     0
176
     1
171
     0
176
     1
290
     0
176
     1
 93
        1
176
     1
 44
0.0
176
     1
173
     0
176
     1
  0
VISUALSTYLE
  5
31
102
{ACAD_REACTORS
330
2A
102
}
330
2A
100
AcDbVisualStyle
  2
3D Hidden
 70
     6
177
     2
291
     0
 71
     1
176
     1
 72
     2
176
     1
 73
     2
176
     1
 90
        0
176
     1
 40
-0.6
176
     1
 41
-30.0
176
     1
 62
     5
 63
     7
421
 16777215
176
     1
 74
     2
176
     1
 91
        2
176
     1
 64
     7
176
     1
 65
   257
176
     1
 75
     2
176
     1
175
     1
176
     1
 42
40.0
176
     1
 92
        0
176
     1
 66
   257
176
     1
 43
1.0
176
     1
 76
     1
176
     1
 77
     6
176
     1
 78
     2
176
     1
 67
     7
176
     1
 79
     3
176
     1
170
     0
176
     1
171
     0
176
     1
290
     0
176
     1
 93
        1
176
     1
 44
0.0
176
     1
173
     0
176
     1
  0
VISUALSTYLE
  5
30
102
{ACAD_REACTORS
330
2A
102
}
330
2A
100
AcDbVisualStyle
  2
3dWireframe
 70
     5
177
     2
291
     0
 71
     0
176
     1
 72
     2
176
     1
 73
     0
176
     1
 90
        0
176
     1
 40
-0.6
176
     1
 41
-30.0
176
     1
 62
     5
 63
     7
421
 16777215
176
     1
 74
     1
176
     1
 91
        4
176
     1
 64
     7
176
     1
 65
   257
176
     1
 75
     1
176
     1
175
     1
176
     1
 42
1.0
176
     1
 92
        0
176
     1
 66
   257
176
     1
 43
1.0
176
     1
 76
     1
176
     1
 77
     6
176
     1
 78
     2
176
     1
 67
     7
176
     1
 79
     5
176
     1
170
     0
176
     1
171
     0
176
     1
290
     0
176
     1
 93
        1
176
     1
 44
0.0
176
     1
173
     0
176
     1
  0
VISUALSTYLE
  5
32
102
{ACAD_REACTORS
330
2A
102
}
330
2A
100
AcDbVisualStyle
  2
Basic
 70
     7
177
     2
291
     1
 71
     1
176
     1
 72
     0
176
     1
 73
     1
176
     1
 90
        0
176
     1
 40
-0.6
176
     1
 41
-30.0
176
     1
 62
     5
 63
     7
421
 16777215
176
     1
 74
     0
176
     1
 91
        4
176
     1
 64
     7
176
     1
 65
   257
176
     1
 75
     1
176
     1
175
     1
176
     1
 42
1.0
176
     1
 92
        8
176
     1
 66
     7
176
     1
 43
1.0
176
     1
 76
     1
176
     1
 77
     6
176
     1
 78
     2
176
     1
 67
     7
176
     1
 79
     5
176
     1
170
     0
176
     1
171
     0
176
     1
290
     0
176
     1
 93
        1
176
     1
 44
0.0
176
     1
173
     0
176
     1
  0
VISUALSTYLE
  5
36
102
{ACAD_REACTORS
330
2A
102
}
330
2A
100
AcDbVisualStyle
  2
Brighten
 70
    12
177
     2
291
     1
 71
     2
176
     1
 72
     2
176
     1
 73
     0
176
     1
 90
        0
176
     1
 40
-0.6
176
     1
 41
-30.0
176
     1
 62
     5
 63
     7
421
 16777215
176
     1
 74
     1
176
     1
 91
        4
176
     1
 64
     7
176
     1
 65
   257
176
     1
 75
     1
176
     1
175
     1
176
     1
 42
1.0
176
     1
 92
        8
176
     1
 66
     7
176
     1
 43
1.0
176
     1
 76
     1
176
     1
 77
     6
176
     1
 78
     2
176
     1
 67
     7
176
     1
 79
     5
176
     1
170
     0
176
     1
171
     0
176
     1
290
     0
176
     1
 93
        1
176
     1
 44
50.0
176
     1
173
     0
176
     1
  0
VISUALSTYLE
  5
3A
102
{ACAD_REACTORS
330
2A
102
}
330
2A
100
AcDbVisualStyle
  2
ColorChange
 70
    16
177
     2
291
     1
 71
     2
176
     1
 72
     2
176
     1
 73
     3
176
     1
 90
        0
176
     1
 40
-0.6
176
     1
 41
-30.0
176
     1
 62
     5
 63
     8
421
  8421504
176
     1
 74
     1
176
     1
 91
        4
176
     1
 64
     7
176
     1
 65
   257
176
     1
 75
     1
176
     1
175
     1
176
     1
 42
1.0
176
     1
 92
        8
176
     1
 66
     8
424
  8421504
176
     1
 43
1.0
176
     1
 76
     1
176
     1
 77
     6
176
     1
 78
     2
176
     1
 67
     7
176
     1
 79
     5
176
     1
170
     0
176
     1
171
     0
176
     1
290
     0
176
     1
 93
        1
176
     1
 44
0.0
176
     1
173
     0
176
     1
  0
VISUALSTYLE
  5
34
102
{ACAD_REACTORS
330
2A
102
}
330
2A
100
AcDbVisualStyle
  2
Conceptual
 70
     9
177
     2
291
     0
 71
     3
176
     1
 72
     2
176
     1
 73
     0
176
     1
 90
        0
176
     1
 40
-0.6
176
     1
 41
-30.0
176
     1
 62
     5
 63
     7
421
 16777215
176
     1
 74
     2
176
     1
 91
        2
176
     1
 64
     7
176
     1
 65
   257
176
     1
 75
     1
176
     1
175
     1
176
     1
 42
40.0
176
     1
 92
        8
176
     1
 66
     7
176
     1
 43
1.0
176
     1
 76
     1
176
     1
 77
     6
176
     1
 78
     2
176
     1
 67
     7
176
     1
 79
     3
176
     1
170
     0
176
     1
171
     0
176
     1
290
     0
176
     1
 93
        1
176
     1
 44
0.0
176
     1
173
     0
176
     1
  0
VISUALSTYLE
  5
35
102
{ACAD_REACTORS
330
2A
102
}
330
2A
100
AcDbVisualStyle
  2
Dim
 70
    11
177
     2
291
     1
 71
     2
176
     1
 72
     2
176
     1
 73
     0
176
     1
 90
        0
176
     1
 40
-0.6
176
     1
 41
-30.0
176
     1
 62
     5
 63
     7
421
 16777215
176
     1
 74
     1
176
     1
 91
        4
176
     1
 64
     7
176
     1
 65
   257
176
     1
 75
     1
176
     1
175
     1
176
     1
 42
1.0
176
     1
 92
        8
176
     1
 66
     7
176
     1
 43
1.0
176
     1
 76
     1
176
     1
 77
     6
176
     1
 78
     2
176
     1
 67
     7
176
     1
 79
     5
176
     1
170
     0
176
     1
171
     0
176
     1
290
     0
176
     1
 93
        1
176
     1
 44
-50.0
176
     1
173
     0
176
     1
  0
VISUALSTYLE
  5
39
102
{ACAD_REACTORS
330
2A
102
}
330
2A
100
AcDbVisualStyle
  2
Facepattern
 70
    15
177
     2
291
     1
 71
     2
176
     1
 72
     2
176
     1
 73
     0
176
     1
 90
        0
176
     1
 40
-0.6
176
     1
 41
-30.0
176
     1
 62
     5
 63
     7
421
 16777215
176
     1
 74
     1
176
     1
 91
        4
176
     1
 64
     7
176
     1
 65
   257
176
     1
 75
     1
176
     1
175
     1
176
     1
 42
1.0
176
     1
 92
        8
176
     1
 66
     7
176
     1
 43
1.0
176
     1
 76
     1
176
     1
 77
     6
176
     1
 78
     2
176
     1
 67
     7
176
     1
 79
     5
176
     1
170
     0
176
     1
171
     0
176
     1
290
     0
176
     1
 93
        1
176
     1
 44
0.0
176
     1
173
     0
176
     1
  0
VISUALSTYLE
  5
2B
102
{ACAD_REACTORS
330
2A
102
}
330
2A
100
AcDbVisualStyle
  2
Flat
 70
     0
177
     2
291
     1
 71
     2
176
     1
 72
     1
176
     1
 73
     1
176
     1
 90
        2
176
     1
 40
-0.6
176
     1
 41
30.0
176
     1
 62
     5
 63
     7
421
 16777215
176
     1
 74
     0
176
     1
 91
        4
176
     1
 64
     7
176
     1
 65
   257
176
     1
 75
     1
176
     1
175
     1
176
     1
 42
1.0
176
     1
 92
        8
176
     1
 66
     7
176
     1
 43
1.0
176
     1
 76
     1
176
     1
 77
     6
176
     1
 78
     2
176
     1
 67
     7
176
     1
 79
     5
176
     1
170
     0
176
     1
171
     0
176
     1
290
     0
176
     1
 93
       13
176
     1
 44
0.0
176
     1
173
     0
176
     1
  0
VISUALSTYLE
  5
2C
102
{ACAD_REACTORS
330
2A
102
}
330
2A
100
AcDbVisualStyle
  2
FlatWithEdges
 70
     1
177
     2
291
     1
 71
     2
176
     1
 72
     1
176
     1
 73
     1
176
     1
 90
        2
176
     1
 40
-0.6
176
     1
 41
30.0
176
     1
 62
     5
 63
     7
421
 16777215
176
     1
 74
     1
176
     1
 91
        4
176
     1
 64
     7
176
     1
 65
   257
176
     1
 75
     1
176
     1
175
     1
176
     1
 42
1.0
176
     1
 92
        0
176
     1
 66
   257
176
     1
 43
1.0
176
     1
 76
     1
176
     1
 77
     6
176
     1
 78
     2
176
     1
 67
     7
176
     1
 79
     5
176
     1
170
     0
176
     1
171
     0
176
     1
290
     0
176
     1
 93
       13
176
     1
 44
0.0
176
     1
173
     0
176
     1
  0
VISUALSTYLE
  5
2D
102
{ACAD_REACTORS
330
2A
102
}
330
2A
100
AcDbVisualStyle
  2
Gouraud
 70
     2
177
     2
291
     1
 71
     2
176
     1
 72
     2
176
     1
 73
     1
176
     1
 90
        2
176
     1
 40
-0.6
176
     1
 41
30.0
176
     1
 62
     5
 63
     7
421
 16777215
176
     1
 74
     0
176
     1
 91
        4
176
     1
 64
     7
176
     1
 65
   257
176
     1
 75
     1
176
     1
175
     1
176
     1
 42
1.0
176
     1
 92
        0
176
     1
 66
     7
176
     1
 43
1.0
176
     1
 76
     1
176
     1
 77
     6
176
     1
 78
     2
176
     1
 67
     7
176
     1
 79
     5
176
     1
170
     0
176
     1
171
     0
176
     1
290
     0
176
     1
 93
       13
176
     1
 44
0.0
176
     1
173
     0
176
     1
  0
VISUALSTYLE
  5
2E
102
{ACAD_REACTORS
330
2A
102
}
330
2A
100
AcDbVisualStyle
  2
GouraudWithEdges
 70
     3
177
     2
291
     1
 71
     2
176
     1
 72
     2
176
     1
 73
     1
176
     1
 90
        2
176
     1
 40
-0.6
176
     1
 41
30.0
176
     1
 62
     5
 63
     7
421
 16777215
176
     1
 74
     1
176
     1
 91
        4
176
     1
 64
     7
176
     1
 65
   257
176
     1
 75
     1
176
     1
175
     1
176
     1
 42
1.0
176
     1
 92
        0
176
     1
 66
   257
176
     1
 43
1.0
176
     1
 76
     1
176
     1
 77
     6
176
     1
 78
     2
176
     1
 67
     7
176
     1
 79
     5
176
     1
170
     0
176
     1
171
     0
176
     1
290
     0
176
     1
 93
       13
176
     1
 44
0.0
176
     1
173
     0
176
     1
  0
VISUALSTYLE
  5
38
102
{ACAD_REACTORS
330
2A
102
}
330
2A
100
AcDbVisualStyle
  2
Linepattern
 70
    14
177
     2
291
     1
 71
     2
176
     1
 72
     2
176
     1
 73
     0
176
     1
 90
        0
176
     1
 40
-0.6
176
     1
 41
-30.0
176
     1
 62
     5
 63
     7
421
 16777215
176
     1
 74
     1
176
     1
 91
        4
176
     1
 64
     7
176
     1
 65
   257
176
     1
 75
     7
176
     1
175
     7
176
     1
 42
1.0
176
     1
 92
        8
176
     1
 66
     7
176
     1
 43
1.0
176
     1
 76
     1
176
     1
 77
     6
176
     1
 78
     2
176
     1
 67
     7
176
     1
 79
     5
176
     1
170
     0
176
     1
171
     0
176
     1
290
     0
176
     1
 93
        1
176
     1
 44
0.0
176
     1
173
     0
176
     1
  0
VISUALSTYLE
  5
33
102
{ACAD_REACTORS
330
2A
102
}
330
2A
100
AcDbVisualStyle
  2
Realistic
 70
     8
177
     2
291
     0
 71
     2
176
     1
 72
     2
176
     1
 73
     0
176
     1
 90
        0
176
     1
 40
-0.6
176
     1
 41
-30.0
176
     1
 62
     5
 63
     7
421
 16777215
176
     1
 74
     1
176
     1
 91
        0
176
     1
 64
     7
176
     1
 65
   257
176
     1
 75
     1
176
     1
175
     1
176
     1
 42
1.0
176
     1
 92
        8
176
     1
 66
     8
424
  7895160
176
     1
 43
1.0
176
     1
 76
     1
176
     1
 77
     6
176
     1
 78
     2
176
     1
 67
     7
176
     1
 79
     5
176
     1
170
     0
176
     1
171
     0
176
     1
290
     0
176
     1
 93
       13
176
     1
 44
0.0
176
     1
173
     0
176
     1
  0
VISUALSTYLE
  5
37
102
{ACAD_REACTORS
330
2A
102
}
330
2A
100
AcDbVisualStyle
  2
Thicken
 70
    13
177
     2
291
     1
 71
     2
176
     1
 72
     2
176
     1
 73
     0
176
     1
 90
        0
176
     1
 40
-0.6
176
     1
 41
-30.0
176
     1
 62
     5
 63
     7
421
 16777215
176
     1
 74
     1
176
     1
 91
        4
176
     1
 64
     7
176
     1
 65
   257
176
     1
 75
     1
176
     1
175
     1
176
     1
 42
1.0
176
     1
 92
       12
176
     1
 66
     7
176
     1
 43
1.0
176
     1
 76
     1
176
     1
 77
     6
176
     1
 78
     2
176
     1
 67
     7
176
     1
 79
     5
176
     1
170
     0
176
     1
171
     0
176
     1
290
     0
176
     1
 93
        1
176
     1
 44
0.0
176
     1
173
     0
176
     1
  0
ENDSEC
  0
EOF
