<?xml version="1.0" encoding="utf-8"?>
<!-- Generator: Adobe Illustrator 22.0.1, SVG Export Plug-In . SVG Version: 6.00 Build 0)  -->
<svg version="1.1" id="Layer_1" xmlns="http://www.w3.org/2000/svg" xmlns:xlink="http://www.w3.org/1999/xlink" x="0px" y="0px"
	 viewBox="0 0 2000 2000" style="enable-background:new 0 0 2000 2000;" xml:space="preserve">
<path d="M1955.4,939.1c-3.6,2.1-7.1,4.3-10.7,6.4c-4.7,2.8-9,6.1-13,9.8c-113.8,108.3-227.7,216.5-341.5,324.8
	c-106.4,101.2-212.8,202.5-319.1,303.7c-84.8,80.7-169.6,161.5-254.5,242.2c-3.8,3.6-6.9,7.5-9.2,12.2c-0.3,0.7-0.4,1.5-0.6,2.2
	c-2.6,0-5.1,0-7.7,0c-0.5-0.8-1-1.7-1.6-2.3c-16.6-17.4-32.9-34.9-49.8-52c-14.4-14.5-29.5-28.4-44.4-42.5
	c-57.4-54.6-114.7-109.2-172.1-163.8c-69.9-66.5-139.8-133-209.7-199.5c-81.5-77.5-163-155-244.5-232.5
	c-69.1-65.7-138.2-131.4-207.3-197.1c-5.8-5.5-11.6-11-17.4-16.6c-0.9-0.9-1.8-1.8-2.4-2.9c-0.8-1.4,0.2-3,1.8-3.2
	c0.8-0.1,1.6-0.1,2.4-0.1c1.8,0,3.5,0,5.3,0c629.4,0,1258.8,0,1888.2,0c2.5,0,5.1-0.3,7.6-0.5
	C1955.4,931.4,1955.4,935.3,1955.4,939.1z M909.2,1523.6c25.6-191.7,51.1-383,76.6-574.2c0.1-0.9,0-1.9,0-2.8
	c-0.6-0.2-1-0.5-1.5-0.5C879.5,946,774.7,946,670,946c-0.6,0-1.2,0.2-1.9,0.3c-0.4,1.9,0.6,3.3,1.2,4.7
	c5.8,14.4,11.6,28.8,17.4,43.1c59.4,147.2,118.8,294.4,178.3,441.6c11.5,28.5,23,56.9,34.5,85.4c0.6,1.6,0.9,3.4,2.8,4.8
	C904.3,1525.2,906.5,1524.5,909.2,1523.6z M1334.7,947.7c-2.2-0.4-4.2-0.3-6.3-0.3c-101.1,0-202.2,0-303.3,0c-1.3,0-2.6-0.1-3.8,0
	c-0.9,0.1-1.8,0.4-2.6,0.5c-0.1,0.6-0.1,0.9-0.1,1.2c1.3,9.3,2.6,18.7,3.9,28c2.1,14.7,4.2,29.4,6.3,44.2
	c2.1,14.6,4.1,29.1,6.1,43.7c2.1,14.7,4.2,29.4,6.3,44.2c2.1,14.7,4.1,29.5,6.2,44.2c2.1,14.7,4.2,29.4,6.3,44.2
	c2.1,14.7,4.1,29.5,6.2,44.2c2.4,16.9,4.9,33.9,7.3,50.8c2.1,14.7,4.1,29.5,6.2,44.2c2.1,14.7,4.2,29.4,6.3,44.2
	c2.1,14.7,4.1,29.5,6.2,44.2c2.1,14.7,4.2,29.4,6.3,44.2c2,14.4,4,28.8,6.1,43.2c0.1,0.8,0.5,1.5,0.8,2.3c2.3,0.3,4.3,1.4,6.8,0.8
	c76.1-188.6,152.3-377.1,228.4-565.7C1334.5,949.4,1334.5,948.8,1334.7,947.7z M395.5,944.1c2.6,4.2,456.2,556.2,466.4,567.8
	c0.5,0.6,1.1,1,1.8,1.6c2.2-0.9,4.1-2,5.9-3.6c-0.6-1.6-1.1-3-1.7-4.5c-12.5-31.2-24.9-62.4-37.4-93.5
	C770.9,1263,711.2,1114,651.5,965c-1-2.5-1.8-5.2-3.1-7.5c-4.2-7.8-10.2-13-19.6-13.1c-7.7-0.1-15.4-0.3-23-0.3
	c-68.6-0.1-137.2-0.2-205.9-0.2C398.6,943.9,397.4,944,395.5,944.1z M1603.8,944.9c-1.8-0.1-3.1-0.2-4.3-0.2
	c-28.5-0.1-56.9-0.3-85.4-0.3c-21.1,0-42.2,0-63.3,0.2c-21.3,0.2-42.5,0.7-63.8,1.1c-2.7,0-5.5,0.3-8,1.4
	c-11.1,4.8-19.9,12.1-24.8,23.4c-3.2,7.3-6.3,14.7-9.3,22.1c-53.1,127.5-106.2,255-159.3,382.5c-16.6,39.9-33,79.8-49.5,119.7
	c-1.2,2.8-2.3,5.7-2.8,8.6c-1.1,5.6-1.8,11.4-2.6,17.1c-0.1,0.5,0.1,1.1,0.1,1.8c0.5-0.2,0.9-0.2,1.1-0.4
	c157-191.7,314-383.4,471.1-575C1603.1,946.4,1603.2,945.9,1603.8,944.9z M1003.6,1787.3c1.1-2.6,1.7-4.2,2.4-5.8
	c17.5-45.7,35-91.4,52.4-137.1c8.4-22.1,16.6-44.3,24.9-66.4c1.2-3.2,2.4-6.3,2.3-9.7c0-3.7-0.1-7.4-0.5-11
	c-1-8.3-2.2-16.5-3.3-24.7c-1.4-10.6-2.8-21.2-4.2-31.9c-1.8-13.3-3.6-26.6-5.4-39.9c-1.4-10.5-2.8-20.9-4.2-31.4
	c-1.8-13.2-3.6-26.3-5.4-39.4c-1.5-10.8-2.9-21.5-4.4-32.3c-1.7-12.8-3.5-25.7-5.2-38.5c-1.4-10.5-2.8-20.9-4.3-31.4
	c-1.8-13-3.6-26-5.3-39c-1.7-12.7-3.4-25.3-5.2-38c-1.8-13-3.6-26-5.4-39c-1.7-12.4-3.4-24.7-5.2-37.1c-1.8-12.3-3.6-24.7-5.4-37
	c-1.7-12-3.5-24-5.3-36.1c-1.8-12-3.5-24-5.3-36.1c-1.7-11.7-3.4-23.4-5.1-35.1c-0.1-1-0.7-1.9-1.2-3.4c-0.3,1.1-0.5,1.5-0.6,2
	c-1.1,6.9-2.3,13.9-3.4,20.8c-2.4,15.2-4.8,30.3-7.2,45.5c-2.1,13.4-4.2,26.9-6.2,40.3c-2.1,13.7-4.2,27.5-6.2,41.3
	c-1.8,11.9-3.5,23.7-5.3,35.6c-1.8,12.2-3.5,24.4-5.3,36.6c-1.8,12.3-3.5,24.7-5.3,37c-1.8,12.5-3.5,25-5.3,37.5
	c-1.8,12.7-3.5,25.3-5.2,38c-1.8,13.1-3.6,26.3-5.4,39.4c-1.4,10.5-2.8,20.9-4.2,31.4c-1.5,11.1-3,22.2-4.5,33.3
	c-1.4,10.6-2.8,21.2-4.2,31.9c-1.5,11.3-3,22.5-4.5,33.8c-1.1,7.9-2.1,15.9-3.3,23.8c-1.8,11.7-3.9,23.3-4.9,35.1
	c-1,12.2-0.2,24.2,3.6,36c8.7,26.9,18,53.6,28.2,80.1c15,39.1,30.3,78.1,45.4,117.2C1002.3,1784.4,1002.8,1785.4,1003.6,1787.3z
	 M972.2,1779.2c0-2.2-0.8-4.1-1.4-6c-16.4-59.5-39.7-116.1-69.6-170c-18.1-32.7-38.5-63.8-62.2-92.7
	c-53.6-65.3-107.2-130.6-160.8-195.8c-70.1-85.1-140.2-170-210.4-255.1c-12.9-15.7-25.8-31.3-38.8-47c-1-1.2-1.6-2.8-3.6-3.1
	c-1.3,1.3-2.6,2.6-4,4c1,2.5,1.9,4.7,2.9,6.9c1,2.2,2.1,4.3,3.3,6.4c5.8,10,11.6,19.9,17.4,29.8c90.3,154.8,180.7,309.6,270.9,464.5
	c6.6,11.3,14.4,21.5,23.6,30.7c13.6,13.6,27.1,27.2,40.7,40.7c50.4,50.3,101.1,100.2,152.4,149.6c12,11.5,23.9,23.1,35.9,34.7
	C969.6,1777.7,970.3,1779.1,972.2,1779.2z M1033,1782.3c0.3,0.2,0.5,0.3,0.8,0.5c1.1-0.9,2.2-1.8,3.2-2.8
	c61.2-57.1,122.4-114.2,183.6-171.2c4.8-4.5,9-9.5,12.4-15.2c2.9-4.8,5.7-9.6,8.6-14.4c25.3-42.1,50.7-84.1,76-126.2
	c83.9-139.5,167.8-279.1,251.6-418.7c4.9-8.2,9.1-16.9,13.6-25.4c0.3-0.6,1-1.3-0.1-2.2c-3.7,1.5-7,3.6-10.1,6.1
	c-4.2,3.3-7.6,7.3-10.9,11.4c-16.2,19.8-32.4,39.6-48.6,59.5c-58.3,71.7-116.5,143.6-175,215.3c-46.2,56.6-93.2,112.7-141.2,167.9
	c-10.7,12.3-21.6,24.5-32,37c-24,28.8-43.4,60.6-60,94.1c-13.5,27.3-25.2,55.3-35.7,83.8c-12,32.6-23.6,65.2-35.4,97.9
	C1033.5,1780.5,1033.3,1781.4,1033,1782.3z M1307.1,1514.7c0.9-0.8,1.7-1.6,2.5-2.4c2.5-2.7,5-5.4,7.4-8.2
	c79.6-87.4,159.2-174.8,238.7-262.2c80.7-88.6,161.3-177.2,242-265.8c9.3-10.2,18.5-20.3,27.8-30.5c0.8-0.9,2-1.6,1.9-3.4
	c-1.4-0.1-2.6-0.2-3.8-0.2c-53.6,0.1-107.2-0.8-160.7,0.7c-6.1,0.2-11.2,1.9-16,5.5c-5.1,3.9-9.5,8.6-12.9,14
	c-3.9,6.1-7.8,12.1-11.6,18.2c-18.9,31.1-37.9,62.3-56.7,93.5c-86.8,143.5-173.5,287.1-260.3,430.6c-1,1.6-1.9,3.3-2.9,4.9
	C1303.6,1511.8,1305,1513.4,1307.1,1514.7z M189.5,946.9c1.7,2,2.7,3.2,3.8,4.4c74.9,83.6,149.9,167.3,224.8,250.9
	c62.4,69.7,124.9,139.4,187.3,209.1c16,17.9,32,35.7,48.1,53.6c1,1.1,1.7,2.7,3.8,3c1.4-1.3,3-2.7,4.7-4.2c-0.9-1.7-1.7-3.3-2.6-4.7
	c-74.1-126.7-148.3-253.4-222.5-380.1c-22.5-38.5-45.2-76.9-67.8-115.4c-3.2-5.5-7.4-10-12.9-13.2c-3.2-1.9-6.7-3-10.4-3.1
	c-3.7-0.1-7.4-0.3-11-0.3c-47-0.1-94.1-0.2-141.1-0.2C192.6,946.7,191.5,946.8,189.5,946.9z M1904.4,939.6
	c-10.1,2.2-19.6,4.1-29.1,6.3c-5.4,1.3-10.8,2.8-16.2,4.5c-7.5,2.4-13.7,6.5-19.1,12.3c-55.6,59-111.5,117.8-167,176.9
	c-76.6,81.7-152.9,163.6-229.4,245.4c-21.1,22.6-42.1,45.1-63.2,67.7c-1.3,1.4-2.9,2.5-3.5,4.4c0.9,1.5,1.4,3.1,3.3,3.8
	C1556.6,1291,1733.1,1121,1909.7,951C1908.2,946.9,1906.5,943.1,1904.4,939.6z M96.7,949.6c1.2,1.3,1.8,2.1,2.6,2.9
	c151.1,144.6,302.1,289.1,453.2,433.7c0.2,0.2,0.6,0.1,1.1,0.2c-0.1-0.7,0-1.3-0.2-1.9c-1.2-3.7-3-7.1-5.3-10.1
	c-2.3-2.9-4.6-5.8-7.1-8.5c-46.4-51-92.9-101.9-139.4-152.9c-70.6-77.4-141-155-210.5-233.5c-3.4-3.8-7-7.5-10.6-11.1
	c-5-4.9-10.6-9.3-16.6-13c-11.5-7-23.9-10.6-37.4-10.5c-4.9,0.1-9.9,0.4-14.8,1.1C107,946.7,102.1,947.6,96.7,949.6z"/>
<path d="M1955.4,631.7c-1.6,0-3.2,0-4.8,0c-631.2,0-1262.4,0-1893.6,0c-2.2,0-4.5,0.4-6.6-0.4c-1-1.6-0.7-2.9,0.5-4
	c0.8-0.8,1.7-1.5,2.6-2.1c95.8-75.6,191.6-151.3,287.4-226.9c32.5-25.7,65.1-51.3,97.5-77.1c2.5-2,5-3.3,8.3-2.9
	c1.3,0.1,2.6,0,3.8,0c368.3,0,736.6,0,1104.9,0c10,0,6.8-1.1,14.7,5.1c126.7,100,253.4,200,380.1,300.1c1.8,1.4,3.4,2.9,5.1,4.3
	C1955.4,629.1,1955.4,630.4,1955.4,631.7z M767.1,438.2c1.7,1.9,3.3,2.9,4.8,4c60.5,45.2,121,90.3,181.5,135.5
	c11.4,8.5,22.9,16.9,34.4,25.3c1.7,1.2,3.3,2.6,5.5,2.9c6.6,0.8,12.8-0.1,18.2-4.1c1-0.8,2-1.6,3-2.3
	c69-54.3,138.1-108.5,207.1-162.8c1.2-1,2.4-2,3.7-3.1c-1.1-1.6-2.8-1.9-4.2-2.5c-29.5-12.7-59-25.4-88.6-38
	c-38.4-16.4-76.8-32.6-115.2-48.9c-3.7-1.6-7.4-3-11.4-3.8c-7.1-1.3-13.9-1.3-20.6,1.9c-6,2.9-12.3,5.3-18.5,8
	c-65.4,28.7-130.8,57.5-196.2,86.2C769.7,437,768.7,437.5,767.1,438.2z M726.6,435.3c-1.1-0.9-2.1-1.8-3.2-2.7
	c-23.1-17.4-46.2-34.9-69.3-52.3c-16.3-12.2-32.7-24.1-49-36.2c-3.9-2.9-8.2-4.1-13-4.3c-4.7-0.2-9.2,0.9-13.6,2.5
	c-58.3,21.5-116.7,42.8-175,64.3c-30.7,11.3-61.4,22.7-92.2,34.1c-1.7,0.6-3.8,0.9-5.3,2.7c17.7,59.1,35.5,118.4,53.2,177.6
	c0.1,0.3,0.4,0.4,0.9,0.8c0.6-0.2,1.3-0.4,2-0.8C483.5,559.5,604.8,497.9,726,436.3C726.3,436.2,726.4,435.8,726.6,435.3z
	 M1696.9,444.7c-1.7-0.7-3.4-1.5-5.2-2.2c-45.5-17.8-91-35.7-136.6-53.5c-45-17.5-89.9-34.9-134.9-52.4c-1.6-0.6-3.3-1.3-5-1.7
	c-6.7-1.4-12.9-0.2-18.7,3.8c-24.2,16.9-48.6,33.7-72.9,50.6c-17.2,12-34.3,24.1-51.4,36.1c-1,0.7-2.2,1.2-2.7,2.8
	c2.1,1,4.1,1.9,6.1,2.9c99.2,46.3,198.3,92.6,297.5,139c21.9,10.2,43.7,20.4,65.6,30.6c1.7,0.8,3.3,1.9,5.1,2
	C1646,598.8,1696.1,449,1696.9,444.7z M1342.8,616.3c-0.4-2.1-1.5-3.7-2.4-5.3c-21.7-39.3-43.4-78.7-65.1-118
	c-8.9-16.1-17.7-32.2-26.7-48.3c-0.8-1.5-1.3-3.3-3.1-4.1c-1.2,0.9-2.4,1.7-3.5,2.6c-73,56.4-146,112.9-219.1,169.3
	c-1,0.8-2,1.5-3,2.4c-0.4,0.3-0.6,0.9-0.9,1.5c3.7,0.5,314,0.9,321.8,0.4C1341.4,616.7,1342,616.5,1342.8,616.3z M972.5,615.9
	c-0.2-0.5-0.2-0.7-0.3-0.8c-0.4-0.4-0.9-0.9-1.4-1.3C898.4,557.8,826,502,753.5,446.1c-0.1-0.1-0.3-0.2-0.4-0.2
	c-0.1,0-0.3,0-0.7,0.1c-1.3,1.5-1.9,3.5-2.7,5.4c-18,40.3-36,80.6-53.9,120.9c-5.9,13.3-11.9,26.6-17.8,39.9
	c-0.5,1.2-1.7,2.4-0.8,3.9C682.5,616.5,968.6,616.4,972.5,615.9z M1612.9,610.2c-113.3-55.3-226.2-110.4-339-165.5
	c-0.2-0.1-0.6,0.1-1.1,0.3c0.2,1.8,1.3,3.2,2.1,4.7c15.9,30.3,31.8,60.6,47.8,90.8c10.9,20.5,21.9,40.8,32.9,61.3
	c2.9,5.3,6.8,9.7,11.8,13c3.5,2.4,7.4,3.6,11.7,3.6c31.5,0.2,63,0.5,94.5,0.6c34.4,0.1,68.8,0,103.1,0c10.1,0,20.1,0,30.2-0.1
	c1.5,0,3.2,0.3,4.9-0.8C1612.2,615.7,1612.5,613.2,1612.9,610.2z M415.9,611.3c1.3,1,2.9,1,4.5,1.1c11.8,1,23.6,2.1,35.4,2.8
	c20.9,1.2,41.8,2.2,62.8,2.9c18.5,0.6,37.1,0.7,55.7,0.8c18.1,0,36.1-0.3,54.2-0.5c3.2,0,6.4-0.5,9.4-1.5
	c9.6-2.9,17.5-7.9,21.3-17.7c23-45,44.3-90.8,66-136.4c0.4-0.8,0.6-1.7,0.9-2.6c-1.6-1.9-3.2-3.5-5.2-4.6c-0.6,0.2-1.3,0.3-1.8,0.6
	C618.2,507.6,517.4,559,416.6,610.4C416.3,610.5,416.2,610.9,415.9,611.3z M624.9,338.6c4.2,3.2,8.2,6.2,12.1,9.2
	c31.1,23.3,62.2,46.7,93.3,70c1.9,1.4,3.9,2.9,6,4c7.5,4.1,15.2,5.8,23.3,1.3c0.1-0.1,0.3-0.2,0.4-0.2
	c53.6-23.3,107.3-46.7,160.9-70c7.2-3.1,14.3-6.3,21.5-9.5c0.7-0.3,1.3-0.9,2-1.4c-0.5-1.5-0.9-2.8-1.4-4.2
	c-1.3-0.1-2.4-0.3-3.5-0.3c-104.5,0-208.9,0.1-313.4,0.2C625.9,337.6,625.7,338,624.9,338.6z M1836.5,616.5c-1.8-2.4-3-4-4.3-5.7
	c-34.1-45-68.3-89.9-102.4-134.9c-5.2-6.9-10.4-13.8-15.7-20.6c-0.5-0.7-1-1.8-2.4-1.1c-0.4,1.3-0.9,2.6-1.3,4
	c-9.2,29.6-18.4,59.2-27.6,88.8c-6.8,21.8-13.6,43.6-20.3,65.5c-0.4,1.3-1.4,2.6-0.5,4.1c4.4,0.6,153.8,1,171.2,0.4
	C1834.1,616.9,1834.8,616.7,1836.5,616.5z M1361.1,338c-1.2-0.1-1.8-0.2-2.4-0.2c-102.2,0-204.4,0-306.6,0.1c-0.2,0-0.3,0.1-0.5,0.1
	c-0.1,0.1-0.3,0.1-0.8,0.4c-0.2,1.1-0.5,2.4-0.9,4c1.8,0.8,3.4,1.5,5,2.2c13.6,5.6,27.1,11.3,40.7,16.9
	c44.3,18.2,88.7,36.4,133.1,54.5c3.1,1.3,6.3,2.3,9.6,3c7.6,1.7,15,1.5,21.3-3.9c34.5-22.4,67.9-46.3,101.7-69.6
	c0.7-0.5,1.4-1.2,2.2-2C1362.7,341.7,1362,339.9,1361.1,338z M291.5,456.9c-1.8,2.1-3.2,3.8-4.6,5.6
	c-29.1,36.1-58.2,72.2-87.3,108.3c-11.3,14.1-22.7,28.1-34,42.2c-0.7,0.9-2,1.7-1.7,3.2c4.5,0.7,147.7,1,168.8,0.4
	c0.9,0,1.9-0.2,3-0.4c-0.3-1.6-0.6-3-1-4.3C321.3,561,293.7,462,291.5,456.9z M547.8,338.1c-1.7-0.1-3-0.2-4.3-0.3
	c-6.9-0.4-13.7-0.9-20.6-1.3c-17.6-1-35.1-1.5-52.7,0.3c-10.5,1.1-20.8,3.4-30.6,7.4c-11.5,4.6-21.9,11.2-31.6,18.8
	c-14.5,11.3-27.7,24.2-40.8,37.1c-0.3,0.3-0.4,0.7-0.8,1.6c1-0.2,1.6-0.3,2.2-0.5c59.4-20.6,118.9-41.2,178.3-61.9
	C547.2,339.3,547.3,338.9,547.8,338.1z M1469.6,338.3c1.1,0.6,1.7,1,2.2,1.3c56,23,112,46,168,68.9c0.2,0.1,0.6,0,1.2-0.1
	c-0.6-0.9-0.9-1.7-1.5-2.3c-11.8-14.4-24.7-27.6-39.5-39c-28.5-21.9-60.6-33-96.6-32.7c-8.3,0.1-16.6,0.7-24.8,1.9
	C1475.8,336.7,1472.8,336.6,1469.6,338.3z M89.3,616c2.3,1.1,3.9,1.2,5.5,1.2c4.2,0.1,8.3,0.3,12.5,0.1c17.6-0.6,33.5-6,47.5-16.9
	c6.6-5.1,12.5-11,17.7-17.4c5.5-6.8,10.8-13.9,16.1-20.8c4.5-5.8,8.9-11.7,13.6-17.4c5.7-6.9,12.1-13.2,19.5-18.3
	c0.6-0.4,1.1-1.1,1.8-1.7c-2.1-2.7-4-5.2-6-7.8c-0.9,0.5-1.7,0.9-2.3,1.3C173.4,550.7,131.7,583.1,89.3,616z M1783,524.5
	c1,0.8,1.4,1.3,1.9,1.6c7.3,5.1,13.4,11.4,18.8,18.4c4.2,5.5,8.1,11.1,12.1,16.7c4.3,6.1,8.5,12.4,12.9,18.5
	c4.3,6,9.1,11.6,14.4,16.7c9.1,8.8,19.7,15.3,32,18.6c10.8,2.9,21.7,3.8,32.8,2.5c1.3-0.2,2.8,0,4.3-0.8c-1.2-1.9-2.9-2.9-4.3-4.1
	c-21.9-17.8-43.7-35.5-65.6-53.2c-16.4-13.3-32.8-26.6-49.2-39.9c-1.2-1-2.2-2.4-4.3-2.3C1787,519.6,1785.1,521.9,1783,524.5z"/>
</svg>
