<?xml version="1.0" encoding="utf-8"?>
<!-- Generator: Adobe Illustrator 22.0.1, SVG Export Plug-In . SVG Version: 6.00 Build 0)  -->
<svg version="1.1" id="Layer_1" xmlns="http://www.w3.org/2000/svg" xmlns:xlink="http://www.w3.org/1999/xlink" x="0px" y="0px"
	 viewBox="0 0 2000 2000" style="enable-background:new 0 0 2000 2000;" xml:space="preserve">
<g>
	<g>
		<path d="M1922.9,545.1c-7.4,17.4-12.6,36.2-22.6,51.8c-62.3,96.9-126,192.8-188.6,289.4c-143.4,221.7-285.2,444.5-430.1,665.2
			c-86.4,131.6-177.6,260.1-271,396.5c-19.6-29-37.1-54.2-53.8-79.9c-128.3-197.8-256.4-395.7-384.6-593.5
			c-85.8-132.3-171.3-264.8-258-396.6c-14.3-21.8-35.2-39.2-50.8-60.3c-17.6-23.9-32.6-49.8-48.9-74.8
			c-45.8-70.5-91.6-141-137.5-211.4c-11.8-18.1-11.4-32.7,10.7-41.8c5.8,3,11.7,8.8,17.3,8.6c107.6-3.8,210.1,21.2,311.7,52.7
			c49.7,15.4,100.8,15.3,152.5,12.8c4.6-6.9,9.8-12.2,12.2-18.6c25.1-65.1,64.9-121.6,105-177.7c15-21,33.9-39.1,51-58.5
			c-0.6,8.6,1.3,18.5-2.2,25.7c-39.9,80.6-67,168.1-137.3,243.6c82.1-13.1,155.8,13.2,228.6-11.4c9.7-3.3,21.3-1.9,31.9-1.1
			c38.8,2.7,77.5,8.3,116.3,8.6c126.4,0.9,252.9-0.1,379.3-0.3c17.4,0,34.7,0,62,0c-56.9-99.6-109.2-191.1-162.6-284.6
			c-17.7,0-35.4-0.4-53.1,0.1c-110.1,2.8-220.2,5.8-330.4,8.5c-24.9,0.6-49.9-1.3-74.8,0.3c-19,1.2-37.7,6.1-56.5,9.3
			c-17.9-6.8-35.3-15.5-53.8-20.1c-53.2-13.3-106.9-24.8-160.4-37.3c-34.2-7.9-68.2-16.3-103.2-24.7
			C353.2,304.9,273.7,367.3,190.3,425c-30.2,20.9-63,38.1-94.6,57c18.3-21,34.7-44,55.2-62.7c51-46.7,101.9-93.9,156.6-136.2
			c43.2-33.4,89-66.5,138.9-87.4c54.1-22.6,114.1-31,171.6-45.4c39.5-9.9,79.8-17.2,118.4-29.9c34.5-11.3,68.8-15.5,104.6-15.4
			c103.2,0.3,206.4-0.6,309.6-0.6c38.4,0,74.8,0.8,112.9,17.8c44.3,19.7,95.4,24.2,143.7,34.5c58.7,12.5,119.2,19,175.7,37.7
			c39.4,13,80.9,35.5,107.9,65.8c31.1,35,66.3,63.6,103,89.8c48,34.3,93.1,70.8,133.5,113.7c9.6,10.2,21.5,18.1,34.8,29.1
			c-4.1,22.9-16.8,39.9-38.3,51c-7.6-2.8-15.4-8.4-22.8-7.9c-24.6,1.5-49,5.7-73.6,8c-21.3,1.9-43.2-0.1-63.9,4.3
			c-81.2,17.2-161.5,39.2-243.1,53.6c-49.1,8.6-75,33.4-85.1,79.7c-3.4,15.5-7.8,30.8-12.2,46.1c-16.6,57.7-31.8,115.9-50.4,172.9
			c-32.4,99.3-67.2,197.8-100.6,296.8c-62.8,186.2-125.4,372.6-187.9,558.9c-8.1,24.2-14.8,48.9-22.2,73.4
			c47.6-69.5,88.2-142.4,133.6-212.1c120-184.5,241.2-368.3,363.6-551.2c113.4-169.6,229-337.7,344-506.2
			C1907.7,553.7,1916.3,550,1922.9,545.1z M589.3,610C667.1,826.3,725,1037.1,796,1243.8c71,206.6,141.7,413.4,215,627.6
			c14.4-39.3,27.5-69.5,36.6-100.9c17.6-60.5,43.7-118.1,63.1-177.7c93.4-287.4,183.5-575.8,274.8-863.9
			c10.9-34.4,21.6-68.9,32.7-104.5C1144.2,619.6,874.8,614.9,589.3,610z M104.5,523.7c265.1,410.4,539.8,802.8,811.3,1197.9
			c-0.2-8.8-2.3-17-4.7-25c-52.5-168.7-104.9-337.5-157.5-506.2c-21-67.5-34.1-139-65.6-201.1c-34-67.1-59.5-135.5-79.5-207.2
			c-13.7-49.3-30.7-97.8-45.5-146.8c-8-26.5-27.6-37.9-52.4-36.2c-57.4,3.9-108.7-26.4-165.2-27.1c-24.5-0.3-49.3-4.8-73.4-9.8
			C220.3,551.2,169.1,538.6,104.5,523.7z M1305.5,302.6c9.9,18.8,17.6,34.3,26.2,49.4c9.6,16.9,23.2,32.3,29.2,50.3
			c18.3,54.2,54.4,98.1,80.8,147.5c10.2,19,27.6,26.9,49.6,21.5c100.5-24.5,205.6-27,303.8-63.9c31.5-11.9,66.4-14.7,108.2-23.5
			c-90.5-50.3-154.9-118.8-222.5-184c-23.8-23-54-40.1-83-57c-11-6.4-27.8-8.9-40.1-5.8c-25.4,6.5-49.5,18.2-74.3,27.2
			c-23,8.4-45.8,18.8-69.6,23.7C1381.2,294.9,1347.6,297.2,1305.5,302.6z M554.5,212.6c-0.3,3.2-0.6,6.5-0.9,9.7
			c62.5,11,124.7,28.4,187.7,31.7c101,5.2,202.5,1.7,303.7,0.6c24.5-0.3,50.1-11.5,73.3-7.2c74.4,13.7,148.8,6.4,223,5.3
			c52.1-0.8,101.8-15.5,146.5-43.6c-76.6-13-151.7-23.7-225.8-39.1c-52.2-10.8-103.8-20.6-157.3-19.4c-53.3,1.2-106.6,0.9-159.9,0.1
			c-92.4-1.3-183.4,8.6-272.7,32.7C633,193.8,593.7,202.9,554.5,212.6z"/>
	</g>
</g>
</svg>
