  0
SECTION
  2
HEADER
  9
$ACADVER
  1
AC1024
  9
$ACADMAINTVER
 70
     6
  9
$DWGCODEPAGE
  3
ANSI_1252
  9
$INSBASE
 10
0.0
 20
0.0
 30
0.0
  9
$EXTMIN
 10
1.000000000000000E+20
 20
1.000000000000000E+20
 30
1.000000000000000E+20
  9
$EXTMAX
 10
-1.000000000000000E+20
 20
-1.000000000000000E+20
 30
-1.000000000000000E+20
  9
$LIMMIN
 10
0.0
 20
0.0
  9
$LIMMAX
 10
12.0
 20
9.0
  9
$ORTHOMODE
 70
     0
  9
$REGENMODE
 70
     1
  9
$FILLMODE
 70
     1
  9
$QTEXTMODE
 70
     0
  9
$MIRRTEXT
 70
     1
  9
$LTSCALE
 40
1.0
  9
$ATTMODE
 70
     1
  9
$TEXTSIZE
 40
0.2
  9
$TRACEWID
 40
0.05
  9
$TEXTSTYLE
  7
Standard
  9
$CLAYER
  8
0
  9
$CELTYPE
  6
ByLayer
  9
$CECOLOR
 62
   256
  9
$CELTSCALE
 40
1.0
  9
$DISPSILH
 70
     0
  9
$DIMSCALE
 40
1.0
  9
$DIMASZ
 40
0.18
  9
$DIMEXO
 40
0.0625
  9
$DIMDLI
 40
0.38
  9
$DIMRND
 40
0.0
  9
$DIMDLE
 40
0.0
  9
$DIMEXE
 40
0.18
  9
$DIMTP
 40
0.0
  9
$DIMTM
 40
0.0
  9
$DIMTXT
 40
0.18
  9
$DIMCEN
 40
0.09
  9
$DIMTSZ
 40
0.0
  9
$DIMTOL
 70
     0
  9
$DIMLIM
 70
     0
  9
$DIMTIH
 70
     1
  9
$DIMTOH
 70
     1
  9
$DIMSE1
 70
     0
  9
$DIMSE2
 70
     0
  9
$DIMTAD
 70
     0
  9
$DIMZIN
 70
     0
  9
$DIMBLK
  1

  9
$DIMASO
 70
     1
  9
$DIMSHO
 70
     1
  9
$DIMPOST
  1

  9
$DIMAPOST
  1

  9
$DIMALT
 70
     0
  9
$DIMALTD
 70
     2
  9
$DIMALTF
 40
25.4
  9
$DIMLFAC
 40
1.0
  9
$DIMTOFL
 70
     0
  9
$DIMTVP
 40
0.0
  9
$DIMTIX
 70
     0
  9
$DIMSOXD
 70
     0
  9
$DIMSAH
 70
     0
  9
$DIMBLK1
  1

  9
$DIMBLK2
  1

  9
$DIMSTYLE
  2
Standard
  9
$DIMCLRD
 70
     0
  9
$DIMCLRE
 70
     0
  9
$DIMCLRT
 70
     0
  9
$DIMTFAC
 40
1.0
  9
$DIMGAP
 40
0.09
  9
$DIMJUST
 70
     0
  9
$DIMSD1
 70
     0
  9
$DIMSD2
 70
     0
  9
$DIMTOLJ
 70
     1
  9
$DIMTZIN
 70
     0
  9
$DIMALTZ
 70
     0
  9
$DIMALTTZ
 70
     0
  9
$DIMUPT
 70
     0
  9
$DIMDEC
 70
     4
  9
$DIMTDEC
 70
     4
  9
$DIMALTU
 70
     2
  9
$DIMALTTD
 70
     2
  9
$DIMTXSTY
  7
Standard
  9
$DIMAUNIT
 70
     0
  9
$DIMADEC
 70
     0
  9
$DIMALTRND
 40
0.0
  9
$DIMAZIN
 70
     0
  9
$DIMDSEP
 70
    46
  9
$DIMATFIT
 70
     3
  9
$DIMFRAC
 70
     0
  9
$DIMLDRBLK
  1

  9
$DIMLUNIT
 70
     2
  9
$DIMLWD
 70
    -2
  9
$DIMLWE
 70
    -2
  9
$DIMTMOVE
 70
     0
  9
$DIMFXL
 40
1.0
  9
$DIMFXLON
 70
     0
  9
$DIMJOGANG
 40
0.7853981633974483
  9
$DIMTFILL
 70
     0
  9
$DIMTFILLCLR
 70
     0
  9
$DIMARCSYM
 70
     0
  9
$DIMLTYPE
  6

  9
$DIMLTEX1
  6

  9
$DIMLTEX2
  6

  9
$DIMTXTDIRECTION
 70
     0
  9
$LUNITS
 70
     2
  9
$LUPREC
 70
     4
  9
$SKETCHINC
 40
0.1
  9
$FILLETRAD
 40
0.5
  9
$AUNITS
 70
     0
  9
$AUPREC
 70
     0
  9
$MENU
  1
.
  9
$ELEVATION
 40
0.0
  9
$PELEVATION
 40
0.0
  9
$THICKNESS
 40
0.0
  9
$LIMCHECK
 70
     0
  9
$CHAMFERA
 40
0.5
  9
$CHAMFERB
 40
0.5
  9
$CHAMFERC
 40
1.0
  9
$CHAMFERD
 40
0.0
  9
$SKPOLY
 70
     0
  9
$TDCREATE
 40
2458128.83268221
  9
$TDUCREATE
 40
2458129.041015544
  9
$TDUPDATE
 40
2458128.832682257
  9
$TDUUPDATE
 40
2458129.04101559
  9
$TDINDWG
 40
0.0000000116
  9
$TDUSRTIMER
 40
0.0000000116
  9
$USRTIMER
 70
     1
  9
$ANGBASE
 50
0.0
  9
$ANGDIR
 70
     0
  9
$PDMODE
 70
     0
  9
$PDSIZE
 40
0.0
  9
$PLINEWID
 40
0.0
  9
$SPLFRAME
 70
     0
  9
$SPLINETYPE
 70
     6
  9
$SPLINESEGS
 70
     8
  9
$HANDSEED
  5
51
  9
$SURFTAB1
 70
     6
  9
$SURFTAB2
 70
     6
  9
$SURFTYPE
 70
     6
  9
$SURFU
 70
     6
  9
$SURFV
 70
     6
  9
$UCSBASE
  2

  9
$UCSNAME
  2

  9
$UCSORG
 10
0.0
 20
0.0
 30
0.0
  9
$UCSXDIR
 10
1.0
 20
0.0
 30
0.0
  9
$UCSYDIR
 10
0.0
 20
1.0
 30
0.0
  9
$UCSORTHOREF
  2

  9
$UCSORTHOVIEW
 70
     0
  9
$UCSORGTOP
 10
0.0
 20
0.0
 30
0.0
  9
$UCSORGBOTTOM
 10
0.0
 20
0.0
 30
0.0
  9
$UCSORGLEFT
 10
0.0
 20
0.0
 30
0.0
  9
$UCSORGRIGHT
 10
0.0
 20
0.0
 30
0.0
  9
$UCSORGFRONT
 10
0.0
 20
0.0
 30
0.0
  9
$UCSORGBACK
 10
0.0
 20
0.0
 30
0.0
  9
$PUCSBASE
  2

  9
$PUCSNAME
  2

  9
$PUCSORG
 10
0.0
 20
0.0
 30
0.0
  9
$PUCSXDIR
 10
1.0
 20
0.0
 30
0.0
  9
$PUCSYDIR
 10
0.0
 20
1.0
 30
0.0
  9
$PUCSORTHOREF
  2

  9
$PUCSORTHOVIEW
 70
     0
  9
$PUCSORGTOP
 10
0.0
 20
0.0
 30
0.0
  9
$PUCSORGBOTTOM
 10
0.0
 20
0.0
 30
0.0
  9
$PUCSORGLEFT
 10
0.0
 20
0.0
 30
0.0
  9
$PUCSORGRIGHT
 10
0.0
 20
0.0
 30
0.0
  9
$PUCSORGFRONT
 10
0.0
 20
0.0
 30
0.0
  9
$PUCSORGBACK
 10
0.0
 20
0.0
 30
0.0
  9
$USERI1
 70
     0
  9
$USERI2
 70
     0
  9
$USERI3
 70
     0
  9
$USERI4
 70
     0
  9
$USERI5
 70
     0
  9
$USERR1
 40
0.0
  9
$USERR2
 40
0.0
  9
$USERR3
 40
0.0
  9
$USERR4
 40
0.0
  9
$USERR5
 40
0.0
  9
$WORLDVIEW
 70
     1
  9
$SHADEDGE
 70
     3
  9
$SHADEDIF
 70
    70
  9
$TILEMODE
 70
     1
  9
$MAXACTVP
 70
    64
  9
$PINSBASE
 10
0.0
 20
0.0
 30
0.0
  9
$PLIMCHECK
 70
     0
  9
$PEXTMIN
 10
1.000000000000000E+20
 20
1.000000000000000E+20
 30
1.000000000000000E+20
  9
$PEXTMAX
 10
-1.000000000000000E+20
 20
-1.000000000000000E+20
 30
-1.000000000000000E+20
  9
$PLIMMIN
 10
0.0
 20
0.0
  9
$PLIMMAX
 10
12.0
 20
9.0
  9
$UNITMODE
 70
     0
  9
$VISRETAIN
 70
     1
  9
$PLINEGEN
 70
     0
  9
$PSLTSCALE
 70
     1
  9
$TREEDEPTH
 70
  3020
  9
$CMLSTYLE
  2
Standard
  9
$CMLJUST
 70
     0
  9
$CMLSCALE
 40
1.0
  9
$PROXYGRAPHICS
 70
     1
  9
$MEASUREMENT
 70
     0
  9
$CELWEIGHT
370
    -1
  9
$ENDCAPS
280
     0
  9
$JOINSTYLE
280
     0
  9
$LWDISPLAY
290
     1
  9
$INSUNITS
 70
     1
  9
$HYPERLINKBASE
  1

  9
$STYLESHEET
  1

  9
$XEDIT
290
     1
  9
$CEPSNTYPE
380
     0
  9
$PSTYLEMODE
290
     1
  9
$FINGERPRINTGUID
  2
{B17741BA-70A3-4B1D-91D5-89B75DFD608C}
  9
$VERSIONGUID
  2
{FAEB1C32-E019-11D5-929B-00C0DF256EC4}
  9
$EXTNAMES
290
     1
  9
$PSVPSCALE
 40
0.0
  9
$OLESTARTUP
290
     0
  9
$SORTENTS
280
   127
  9
$INDEXCTL
280
     0
  9
$HIDETEXT
280
     1
  9
$XCLIPFRAME
280
     2
  9
$HALOGAP
280
     0
  9
$OBSCOLOR
 70
   257
  9
$OBSLTYPE
280
     0
  9
$INTERSECTIONDISPLAY
280
     0
  9
$INTERSECTIONCOLOR
 70
   257
  9
$DIMASSOC
280
     2
  9
$PROJECTNAME
  1

  9
$CAMERADISPLAY
290
     0
  9
$LENSLENGTH
 40
50.0
  9
$CAMERAHEIGHT
 40
0.0
  9
$STEPSPERSEC
 40
2.0
  9
$STEPSIZE
 40
6.0
  9
$3DDWFPREC
 40
2.0
  9
$PSOLWIDTH
 40
0.25
  9
$PSOLHEIGHT
 40
4.0
  9
$LOFTANG1
 40
1.570796326794897
  9
$LOFTANG2
 40
1.570796326794897
  9
$LOFTMAG1
 40
0.0
  9
$LOFTMAG2
 40
0.0
  9
$LOFTPARAM
 70
     7
  9
$LOFTNORMALS
280
     1
  9
$LATITUDE
 40
37.795
  9
$LONGITUDE
 40
-122.394
  9
$NORTHDIRECTION
 40
0.0
  9
$TIMEZONE
 70
 -8000
  9
$LIGHTGLYPHDISPLAY
280
     1
  9
$TILEMODELIGHTSYNCH
280
     1
  9
$CMATERIAL
347
3C
  9
$SOLIDHIST
280
     1
  9
$SHOWHIST
280
     1
  9
$DWFFRAME
280
     2
  9
$DGNFRAME
280
     2
  9
$REALWORLDSCALE
290
     1
  9
$INTERFERECOLOR
 62
   256
  9
$CSHADOW
280
     0
  9
$SHADOWPLANELOCATION
 40
0.0
  0
ENDSEC
  0
SECTION
  2
CLASSES
  0
CLASS
  1
ACDBDICTIONARYWDFLT
  2
AcDbDictionaryWithDefault
  3
ObjectDBX Classes
 90
        0
 91
        4
280
     0
281
     0
  0
CLASS
  1
VISUALSTYLE
  2
AcDbVisualStyle
  3
ObjectDBX Classes
 90
     4095
 91
        4
280
     0
281
     0
  0
CLASS
  1
MATERIAL
  2
AcDbMaterial
  3
ObjectDBX Classes
 90
     1153
 91
        4
280
     0
281
     0
  0
CLASS
  1
SUN
  2
AcDbSun
  3
SCENEOE
 90
     1024
 91
        4
280
     0
281
     0
  0
ENDSEC
  0
SECTION
  2
TABLES
  0
TABLE
  2
VPORT
  5
8
330
0
100
AcDbSymbolTable
 70
     1
  0
VPORT
  5
29
330
8
100
AcDbSymbolTableRecord
100
AcDbViewportTableRecord
  2
*Active
 70
     0
 10
0.0
 20
0.0
 11
1.0
 21
1.0
 12
0.0
 22
0.0
 13
0.0
 23
0.0
 14
0.5
 24
0.5
 15
0.5
 25
0.5
 16
0.0
 26
0.0
 36
1.0
 17
1000.0
 27
-1000.0
 37
0.0
 40
2000.0
 41
1.0
 42
50.0
 43
0.0
 44
0.0
 50
0.0
 51
0.0
 71
     0
 72
   100
 73
     1
 74
     3
 75
     0
 76
     0
 77
     0
 78
     0
281
     0
 65
     1
110
0.0
120
0.0
130
0.0
111
1.0
121
0.0
131
0.0
112
0.0
122
1.0
132
0.0
 79
     0
146
0.0
 60
     3
 61
     5
292
     1
282
     1
141
0.0
142
0.0
 63
   250
361
3F
  0
ENDTAB
  0
TABLE
  2
LTYPE
  5
5
330
0
100
AcDbSymbolTable
 70
     1
  0
LTYPE
  5
14
330
5
100
AcDbSymbolTableRecord
100
AcDbLinetypeTableRecord
  2
ByBlock
 70
     0
  3

 72
    65
 73
     0
 40
0.0
  0
LTYPE
  5
15
330
5
100
AcDbSymbolTableRecord
100
AcDbLinetypeTableRecord
  2
ByLayer
 70
     0
  3

 72
    65
 73
     0
 40
0.0
  0
LTYPE
  5
16
330
5
100
AcDbSymbolTableRecord
100
AcDbLinetypeTableRecord
  2
Continuous
 70
     0
  3
Solid line
 72
    65
 73
     0
 40
0.0
  0
ENDTAB
  0
TABLE
  2
LAYER
  5
2
330
0
100
AcDbSymbolTable
 70
     2
  0
LAYER
  5
10
330
2
100
AcDbSymbolTableRecord
100
AcDbLayerTableRecord
  2
0
 70
     0
 62
     7
  6
Continuous
370
    -3
390
F
347
3E
  0
LAYER
  5
40
330
2
100
AcDbSymbolTableRecord
100
AcDbLayerTableRecord
  2
Layer 1
 70
     0
 62
     7
  6
Continuous
370
    -3
390
F
347
3E
  0
ENDTAB
  0
TABLE
  2
STYLE
  5
3
330
0
100
AcDbSymbolTable
 70
     1
  0
STYLE
  5
11
330
3
100
AcDbSymbolTableRecord
100
AcDbTextStyleTableRecord
  2
Standard
 70
     0
 40
0.0
 41
1.0
 50
0.0
 71
     0
 42
0.2
  3
txt
  4

  0
ENDTAB
  0
TABLE
  2
VIEW
  5
6
330
0
100
AcDbSymbolTable
 70
     0
  0
ENDTAB
  0
TABLE
  2
UCS
  5
7
330
0
100
AcDbSymbolTable
 70
     0
  0
ENDTAB
  0
TABLE
  2
APPID
  5
9
330
0
100
AcDbSymbolTable
 70
     1
  0
APPID
  5
12
330
9
100
AcDbSymbolTableRecord
100
AcDbRegAppTableRecord
  2
ACAD
 70
     0
  0
ENDTAB
  0
TABLE
  2
DIMSTYLE
  5
A
330
0
100
AcDbSymbolTable
 70
     1
100
AcDbDimStyleTable
  0
DIMSTYLE
105
27
330
A
100
AcDbSymbolTableRecord
100
AcDbDimStyleTableRecord
  2
Standard
 70
     0
178
     0
340
11
  0
ENDTAB
  0
TABLE
  2
BLOCK_RECORD
  5
1
330
0
100
AcDbSymbolTable
 70
     3
  0
BLOCK_RECORD
  5
1F
330
1
100
AcDbSymbolTableRecord
100
AcDbBlockTableRecord
  2
*Model_Space
340
22
 70
     0
280
     1
281
     0
  0
BLOCK_RECORD
  5
1B
330
1
100
AcDbSymbolTableRecord
100
AcDbBlockTableRecord
  2
*Paper_Space
340
1E
 70
     0
280
     1
281
     0
  0
BLOCK_RECORD
  5
23
330
1
100
AcDbSymbolTableRecord
100
AcDbBlockTableRecord
  2
*Paper_Space0
340
26
 70
     0
280
     1
281
     0
  0
BLOCK_RECORD
  5
41
330
1
100
AcDbSymbolTableRecord
100
AcDbBlockTableRecord
  2
block 2
340
0
102
{BLKREFS
331
42
102
}
 70
     0
280
     1
281
     0
  0
BLOCK_RECORD
  5
45
330
1
100
AcDbSymbolTableRecord
100
AcDbBlockTableRecord
  2
block 3
340
0
102
{BLKREFS
331
46
102
}
 70
     0
280
     1
281
     0
  0
ENDTAB
  0
ENDSEC
  0
SECTION
  2
BLOCKS
  0
BLOCK
  5
20
330
1F
100
AcDbEntity
  8
0
100
AcDbBlockBegin
  2
*Model_Space
 70
     0
 10
0.0
 20
0.0
 30
0.0
  3
*Model_Space
  1

  0
ENDBLK
  5
21
330
1F
100
AcDbEntity
  8
0
100
AcDbBlockEnd
  0
BLOCK
  5
1C
330
1B
100
AcDbEntity
 67
     1
  8
0
100
AcDbBlockBegin
  2
*Paper_Space
 70
     0
 10
0.0
 20
0.0
 30
0.0
  3
*Paper_Space
  1

  0
ENDBLK
  5
1D
330
1B
100
AcDbEntity
 67
     1
  8
0
100
AcDbBlockEnd
  0
BLOCK
  5
24
330
23
100
AcDbEntity
  8
0
100
AcDbBlockBegin
  2
*Paper_Space0
 70
     0
 10
0.0
 20
0.0
 30
0.0
  3
*Paper_Space0
  1

  0
ENDBLK
  5
25
330
23
100
AcDbEntity
  8
0
100
AcDbBlockEnd
  0
BLOCK
  5
43
330
41
100
AcDbEntity
  8
0
100
AcDbBlockBegin
  2
block 2
 70
     0
 10
0.0
 20
0.0
 30
0.0
  3
block 2
  1

  0
INSERT
  5
46
330
41
100
AcDbEntity
  8
Layer 1
100
AcDbBlockReference
  2
block 3
 10
0.0
 20
0.0
 30
0.0
  0
ENDBLK
  5
44
330
41
100
AcDbEntity
  8
0
100
AcDbBlockEnd
  0
BLOCK
  5
47
330
45
100
AcDbEntity
  8
0
100
AcDbBlockBegin
  2
block 3
 70
     0
 10
0.0
 20
0.0
 30
0.0
  3
block 3
  1

  0
SPLINE
  5
49
330
45
100
AcDbEntity
  8
Layer 1
370
     0
100
AcDbSpline
210
0.0
220
0.0
230
1.0
 70
    11
 71
     3
 72
   194
 73
   190
 74
     0
 42
0.0000000001
 43
0.0000000001
 12
1.0
 22
0.0
 32
0.0
 13
1.0
 23
0.0
 33
0.0
 40
0.0
 40
0.0
 40
0.0
 40
0.0
 40
1.0
 40
1.0
 40
1.0
 40
2.0
 40
2.0
 40
2.0
 40
3.0
 40
3.0
 40
3.0
 40
4.0
 40
4.0
 40
4.0
 40
5.0
 40
5.0
 40
5.0
 40
6.0
 40
6.0
 40
6.0
 40
7.0
 40
7.0
 40
7.0
 40
8.0
 40
8.0
 40
8.0
 40
9.0
 40
9.0
 40
9.0
 40
10.0
 40
10.0
 40
10.0
 40
11.0
 40
11.0
 40
11.0
 40
12.0
 40
12.0
 40
12.0
 40
13.0
 40
13.0
 40
13.0
 40
14.0
 40
14.0
 40
14.0
 40
15.0
 40
15.0
 40
15.0
 40
16.0
 40
16.0
 40
16.0
 40
17.0
 40
17.0
 40
17.0
 40
18.0
 40
18.0
 40
18.0
 40
19.0
 40
19.0
 40
19.0
 40
20.0
 40
20.0
 40
20.0
 40
21.0
 40
21.0
 40
21.0
 40
22.0
 40
22.0
 40
22.0
 40
23.0
 40
23.0
 40
23.0
 40
24.0
 40
24.0
 40
24.0
 40
25.0
 40
25.0
 40
25.0
 40
26.0
 40
26.0
 40
26.0
 40
27.0
 40
27.0
 40
27.0
 40
28.0
 40
28.0
 40
28.0
 40
29.0
 40
29.0
 40
29.0
 40
30.0
 40
30.0
 40
30.0
 40
31.0
 40
31.0
 40
31.0
 40
32.0
 40
32.0
 40
32.0
 40
33.0
 40
33.0
 40
33.0
 40
34.0
 40
34.0
 40
34.0
 40
35.0
 40
35.0
 40
35.0
 40
36.0
 40
36.0
 40
36.0
 40
37.0
 40
37.0
 40
37.0
 40
38.0
 40
38.0
 40
38.0
 40
39.0
 40
39.0
 40
39.0
 40
40.0
 40
40.0
 40
40.0
 40
41.0
 40
41.0
 40
41.0
 40
42.0
 40
42.0
 40
42.0
 40
43.0
 40
43.0
 40
43.0
 40
44.0
 40
44.0
 40
44.0
 40
45.0
 40
45.0
 40
45.0
 40
46.0
 40
46.0
 40
46.0
 40
47.0
 40
47.0
 40
47.0
 40
48.0
 40
48.0
 40
48.0
 40
49.0
 40
49.0
 40
49.0
 40
50.0
 40
50.0
 40
50.0
 40
51.0
 40
51.0
 40
51.0
 40
52.0
 40
52.0
 40
52.0
 40
53.0
 40
53.0
 40
53.0
 40
54.0
 40
54.0
 40
54.0
 40
55.0
 40
55.0
 40
55.0
 40
56.0
 40
56.0
 40
56.0
 40
57.0
 40
57.0
 40
57.0
 40
58.0
 40
58.0
 40
58.0
 40
59.0
 40
59.0
 40
59.0
 40
60.0
 40
60.0
 40
60.0
 40
61.0
 40
61.0
 40
61.0
 40
62.0
 40
62.0
 40
62.0
 40
63.0
 40
63.0
 40
63.0
 40
63.0
 10
1922.932251117196
 20
-545.0930050616989
 30
0.0
 10
1915.506428450482
 20
-562.4550379739921
 30
0.0
 10
1910.35324441233
 20
-581.2782159269127
 30
0.0
 10
1900.283483830464
 20
-596.940457990092
 30
0.0
 10
1838.008750036564
 20
-693.8013045139578
 30
0.0
 10
1774.244090207711
 20
-789.7025943175986
 30
0.0
 10
1711.692145703575
 20
-886.3870859102171
 30
0.0
 10
1568.25223579934
 20
-1108.097439849431
 30
0.0
 10
1426.489939887402
 20
-1330.905629733739
 30
0.0
 10
1281.553418278145
 20
-1551.630744195752
 30
0.0
 10
1195.133550090173
 20
-1683.240442443002
 30
0.0
 10
1103.993354234826
 20
-1811.750761884698
 30
0.0
 10
1010.559158219719
 20
-1948.098806495491
 30
0.0
 10
990.99713219146
 20
-1919.111045591293
 30
0.0
 10
973.4217285648465
 20
-1893.928246282761
 30
0.0
 10
956.7186418172951
 20
-1868.179284864855
 30
0.0
 10
828.4246282621461
 20
-1670.405912689348
 30
0.0
 10
700.3449638120583
 20
-1472.493445963353
 30
0.0
 10
572.1068000617661
 20
-1274.683873330392
 30
0.0
 10
486.3206437106501
 20
-1142.357177734375
 30
0.0
 10
400.785770715107
 20
-1009.863748049405
 30
0.0
 10
314.1169020832958
 20
-878.1169935657126
 30
0.0
 10
299.7778927324007
 20
-856.3200784850223
 30
0.0
 10
278.916115369665
 20
-838.9141810544625
 30
0.0
 10
263.356237437868
 20
-817.793904704432
 30
0.0
 10
245.7255955006121
 20
-793.8631194154232
 30
0.0
 10
230.7164292577227
 20
-768.0049858972225
 30
0.0
 10
214.4874951235161
 20
-743.0367802914388
 30
0.0
 10
168.6766926901682
 20
-672.5567725396922
 30
0.0
 10
122.8688865784679
 20
-602.0748895390243
 30
0.0
 10
76.95912399819372
 20
-531.6593740436883
 30
0.0
 10
65.18889992357981
 20
-513.6065565012568
 30
0.0
 10
65.566742198258
 20
-499.0036670139853
 30
0.0
 10
87.70099825353645
 20
-489.817556337277
 30
0.0
 10
93.48102501021003
 20
-492.8316520831549
 30
0.0
 10
99.36131643479894
 20
-498.6478589141425
 30
0.0
 10
105.0262395973032
 20
-498.4451689654234
 30
0.0
 10
212.5932898807087
 20
-494.5960167212415
 30
0.0
 10
315.1243184173163
 20
-519.6280215566603
 30
0.0
 10
416.681195905132
 20
-551.1442702684535
 30
0.0
 10
466.3953085868588
 20
-566.5720246837982
 30
0.0
 10
517.4879330577933
 20
-566.4403495964361
 30
0.0
 10
569.1519784883421
 20
-563.9644502912251
 30
0.0
 10
573.7866969657935
 20
-557.0523642966273
 30
0.0
 10
578.9224330357138
 20
-551.72739115069
 30
0.0
 10
581.3798244493892
 20
-545.3675251973937
 30
0.0
 10
606.5278908865794
 20
-480.2835869855044
 30
0.0
 10
646.2900983045729
 20
-423.7726345853316
 30
0.0
 10
686.3628632505915
 20
-367.6365689044724
 30
0.0
 10
701.3218054353911
 20
-346.6813144595944
 30
0.0
 10
720.2597812353742
 20
-328.5664506376061
 30
0.0
 10
737.3834129368652
 20
-309.1564828371675
 30
0.0
 10
736.7718371905485
 20
-317.7912295644728
 30
0.0
 10
738.710599978398
 20
-327.6880188164068
 30
0.0
 10
735.1580631941688
 20
-334.8674908475386
 30
0.0
 10
695.287662066622
 20
-415.4422081450712
 30
0.0
 10
668.1588435722388
 20
-502.9703076797696
 30
0.0
 10
597.9069639285035
 20
-578.453683387299
 30
0.0
 10
679.9828587545226
 20
-565.401054030739
 30
0.0
 10
753.6785922775616
 20
-591.6050486762397
 30
0.0
 10
826.4676837130073
 20
-567.0361080257571
 30
0.0
 10
836.1365486883342
 20
-563.7726041732294
 30
0.0
 10
847.7340664138437
 20
-565.1834436232039
 30
0.0
 10
858.3365607547321
 20
-565.9121001283147
 30
0.0
 10
897.1150778141982
 20
-568.5770734444186
 30
0.0
 10
935.8339130384029
 20
-574.2181483325867
 30
0.0
 10
974.6054182975513
 20
-574.4934022613379
 30
0.0
 10
1101.036005151986
 20
-575.3909127020061
 30
0.0
 10
1227.479881813999
 20
-574.4120327646278
 30
0.0
 10
1353.918784989739
 20
-574.1661305581365
 30
0.0
 10
1371.290112614082
 20
-574.1323760775376
 30
0.0
 10
1388.661603303548
 20
-574.1614832021123
 30
0.0
 10
1415.930168608915
 20
-574.1614832021123
 30
0.0
 10
1358.993860833656
 20
-474.5270619897801
 30
0.0
 10
1306.731162567841
 20
-383.0710905224496
 30
0.0
 10
1253.315593877694
 20
-289.5977996439424
 30
0.0
 10
1235.580141832203
 20
-289.5977996439424
 30
0.0
 10
1217.884151546636
 20
-289.2177763732343
 30
0.0
 10
1200.20862593409
 20
-289.6597643909363
 30
0.0
 10
1090.081453209099
 20
-292.4135266668782
 30
0.0
 10
979.9619445449189
 20
-295.4787840953068
 30
0.0
 10
869.8324073756339
 20
-298.1311606306081
 30
0.0
 10
844.9165456745477
 20
-298.731199519425
 30
0.0
 10
819.8915118731657
 20
-296.8640630871469
 30
0.0
 10
795.065254457535
 20
-298.4528473533246
 30
0.0
 10
776.0953178933132
 20
-299.6668671990319
 30
0.0
 10
757.3596243792417
 20
-304.542229032736
 30
0.0
 10
738.5197322511449
 20
-307.7888964112453
 30
0.0
 10
720.6114311745641
 20
-300.9567938598066
 30
0.0
 10
703.1697409493581
 20
-292.2544974050215
 30
0.0
 10
684.706366191811
 20
-287.6466846729754
 30
0.0
 10
631.4564716673112
 20
-274.3574478219725
 30
0.0
 10
577.7680950252688
 20
-262.832494076496
 30
0.0
 10
524.3038513957081
 20
-250.391644297657
 30
0.0
 10
490.1459884467758
 20
-242.443320208431
 30
0.0
 10
456.0802165264358
 20
-234.0993593629055
 30
0.0
 10
421.134952861592
 20
-225.7320802046952
 30
0.0
 10
353.2068327626876
 20
-304.8869079378892
 30
0.0
 10
273.6764252834055
 20
-367.3379558967554
 30
0.0
 10
190.3293155195524
 20
-425.0137232415682
 30
0.0
 10
160.1133481038878
 20
-445.923034087853
 30
0.0
 10
127.3389704304354
 20
-463.1351693852157
 30
0.0
 10
95.73193521104076
 20
-482.0342541532027
 30
0.0
 10
114.000956724316
 20
-461.0035005560667
 30
0.0
 10
130.4735916858444
 20
-438.0092390385635
 30
0.0
 10
150.8927083872431
 20
-419.3287023025723
 30
0.0
 10
201.9305837429065
 20
-372.6362678949736
 30
0.0
 10
252.841431367232
 20
-325.4209651683332
 30
0.0
 10
307.4808038105066
 20
-283.171484652752
 30
0.0
 10
350.6795679435199
 20
-249.7683278624363
 30
0.0
 10
396.5014791884178
 20
-216.6412810927714
 30
0.0
 10
446.3451471108992
 20
-195.7901641124954
 30
0.0
 10
500.41265016547
 20
-173.1720530690136
 30
0.0
 10
560.4618303852694
 20
-164.8170037950786
 30
0.0
 10
617.9454662481212
 20
-150.4134206552108
 30
0.0
 10
657.4359256375219
 20
-140.5183843533559
 30
0.0
 10
697.7501900316929
 20
-133.195455779678
 30
0.0
 10
736.3068569904099
 20
-120.5026092353501
 30
0.0
 10
770.7588486561572
 20
-109.1610018382971
 30
0.0
 10
805.0926181072464
 20
-104.9553892337781
 30
0.0
 10
840.9320493777223
 20
-105.0677818702661
 30
0.0
 10
944.1424072195296
 20
-105.3914253744661
 30
0.0
 10
1047.356107896374
 20
-104.4775268888689
 30
0.0
 10
1150.568422519666
 20
-104.488880298105
 30
0.0
 10
1188.964551864132
 20
-104.4930996081794
 30
0.0
 10
1225.333455591157
 20
-105.2829666840862
 30
0.0
 10
1263.482215143018
 20
-122.253582150156
 30
0.0
 10
1307.754396218857
 20
-141.9482616565192
 30
0.0
 10
1358.893249652352
 20
-146.4453939358755
 30
0.0
 10
1407.228035219254
 20
-156.7081624747425
 30
0.0
 10
1465.892344110023
 20
-169.1641161606603
 30
0.0
 10
1526.397821312126
 20
-175.7390446289346
 30
0.0
 10
1582.941957464966
 20
-194.4318927817631
 30
0.0
 10
1622.322021765642
 20
-207.450563826319
 30
0.0
 10
1663.850469070645
 20
-229.9284388634469
 30
0.0
 10
1690.84687868461
 20
-260.260427114601
 30
0.0
 10
1721.986446960729
 20
-295.2476392825074
 30
0.0
 10
1757.139537125688
 20
-323.8320178370323
 30
0.0
 10
1793.843213551605
 20
-350.0647934768604
 30
0.0
 10
1841.815342283468
 20
-384.3513148083666
 30
0.0
 10
1886.955845142838
 20
-420.8999163016742
 30
0.0
 10
1927.308103710824
 20
-463.7459298059139
 30
0.0
 10
1936.891114898541
 20
-473.9210712239492
 30
0.0
 10
1948.822263867074
 20
-481.8848049673616
 30
0.0
 10
1962.107342557423
 20
-492.8803270225699
 30
0.0
 10
1958.052075996926
 20
-515.7971326063307
 30
0.0
 10
1945.302013977331
 20
-532.7943480706981
 30
0.0
 10
1923.801714356592
 20
-543.8777214612828
 30
0.0
 10
1916.202553463421
 20
-541.06480731173
 30
0.0
 10
1908.430380474038
 20
-535.4832919599821
 30
0.0
 10
1901.035866311067
 20
-535.9454185204568
 30
0.0
 10
1876.4453195317
 20
-537.4819811807793
 30
0.0
 10
1852.035122779107
 20
-541.6832317932403
 30
0.0
 10
1827.469851093907
 20
-543.9160825316258
 30
0.0
 10
1806.2136599633
 20
-545.8481596494048
 30
0.0
 10
1784.26917094569
 20
-543.7985533437422
 30
0.0
 10
1763.619419010003
 20
-548.1783602666192
 30
0.0
 10
1682.428478610131
 20
-565.3990157166936
 30
0.0
 10
1602.142549646614
 20
-587.3812543104323
 30
0.0
 10
1520.491765597997
 20
-601.7515313987906
 30
0.0
 10
1471.425959081693
 20
-610.3869711528723
 30
0.0
 10
1445.468763500863
 20
-635.1252549342844
 30
0.0
 10
1435.414657170872
 20
-681.4633080618714
 30
0.0
 10
1432.046057846139
 20
-696.9882492909228
 30
0.0
 10
1427.609218896259
 20
-712.2995752079696
 30
0.0
 10
1423.216733660016
 20
-727.5808971422603
 30
0.0
 10
1406.625835717548
 20
-785.2968192737771
 30
0.0
 10
1391.419523740144
 20
-843.4715251307334
 30
0.0
 10
1372.80025872437
 20
-900.5299686836206
 30
0.0
 10
1340.398240260814
 20
-999.8255405689706
 30
0.0
 10
1305.625581029373
 20
-1098.345167063348
 30
0.0
 10
1272.246313279675
 20
-1197.324800271592
 30
0.0
 10
1209.436236684773
 20
-1383.574523222611
 30
0.0
 10
1146.826322529172
 20
-1569.891918199952
 30
0.0
 10
1084.369200394449
 20
-1756.260189495877
 30
0.0
 10
1076.2500248219
 20
-1780.487590244837
 30
0.0
 10
1069.528235826623
 20
-1805.182987898725
 30
0.0
 10
1062.159241355508
 20
-1829.661672003258
 30
0.0
 10
1109.803119993428
 20
-1760.117168865994
 30
0.0
 10
1150.402585288895
 20
-1687.302068543324
 30
0.0
 10
1195.753034494988
 20
-1617.576889249036
 30
0.0
 10
1315.757469423355
 20
-1433.072778446884
 30
0.0
 10
1436.933119602467
 20
-1249.314201390138
 30
0.0
 10
1559.319691389936
 20
-1066.380896924278
 30
0.0
 10
1672.761488883725
 20
-896.8177096107593
 30
0.0
 10
1788.29785789103
 20
-728.6548440467377
 30
0.0
 10
1903.310461721112
 20
-560.147421876406
 30
0.0
 10
1907.725776074669
 20
-553.6786284205
 30
0.0
 10
1916.297294300271
 20
-550.0467604536061
 30
0.0
 10
1922.932251117196
 20
-545.0930050616989
 30
0.0
  0
SPLINE
  5
4A
330
45
100
AcDbEntity
  8
Layer 1
370
     0
100
AcDbSpline
210
0.0
220
0.0
230
1.0
 70
    11
 71
     3
 72
    26
 73
    22
 74
     0
 42
0.0000000001
 43
0.0000000001
 12
1.0
 22
0.0
 32
0.0
 13
1.0
 23
0.0
 33
0.0
 40
0.0
 40
0.0
 40
0.0
 40
0.0
 40
1.0
 40
1.0
 40
1.0
 40
2.0
 40
2.0
 40
2.0
 40
3.0
 40
3.0
 40
3.0
 40
4.0
 40
4.0
 40
4.0
 40
5.0
 40
5.0
 40
5.0
 40
6.0
 40
6.0
 40
6.0
 40
7.0
 40
7.0
 40
7.0
 40
7.0
 10
589.3372394192602
 20
-609.9987946259807
 30
0.0
 10
667.13463153048
 20
-826.2949787966118
 30
0.0
 10
724.9525508968509
 20
-1037.084698338662
 30
0.0
 10
795.9733641312414
 20
-1243.784989176807
 30
0.0
 10
866.9739572902972
 20
-1450.426495037869
 30
0.0
 10
937.6471156810276
 20
-1657.180678899387
 30
0.0
 10
1011.017452749787
 20
-1871.33948696154
 30
0.0
 10
1025.434284930954
 20
-1832.081395373365
 30
0.0
 10
1038.498818041542
 20
-1801.847816924344
 30
0.0
 10
1047.640738069736
 20
-1770.471151958413
 30
0.0
 10
1065.277128052601
 20
-1709.940236597016
 30
0.0
 10
1091.330042861024
 20
-1652.385259742561
 30
0.0
 10
1110.704380931942
 20
-1592.789033670029
 30
0.0
 10
1204.127488518639
 20
-1305.415941862466
 30
0.0
 10
1294.224719843007
 20
-1016.961157557053
 30
0.0
 10
1385.467157530893
 20
-728.8791401243425
 30
0.0
 10
1396.372137676186
 20
-694.4486730549188
 30
0.0
 10
1407.067253007317
 20
-659.9516754150391
 30
0.0
 10
1418.210308233163
 20
-624.3650766188093
 30
0.0
 10
1144.193146912183
 20
-619.6157233594195
 30
0.0
 10
874.8470675912322
 20
-614.9473319339313
 30
0.0
 10
589.3372394192602
 20
-609.9987946259807
 30
0.0
  0
SPLINE
  5
4B
330
45
100
AcDbEntity
  8
Layer 1
370
     0
100
AcDbSpline
210
0.0
220
0.0
230
1.0
 70
    11
 71
     3
 72
    35
 73
    31
 74
     0
 42
0.0000000001
 43
0.0000000001
 12
1.0
 22
0.0
 32
0.0
 13
1.0
 23
0.0
 33
0.0
 40
0.0
 40
0.0
 40
0.0
 40
0.0
 40
1.0
 40
1.0
 40
1.0
 40
2.0
 40
2.0
 40
2.0
 40
3.0
 40
3.0
 40
3.0
 40
4.0
 40
4.0
 40
4.0
 40
5.0
 40
5.0
 40
5.0
 40
6.0
 40
6.0
 40
6.0
 40
7.0
 40
7.0
 40
7.0
 40
8.0
 40
8.0
 40
8.0
 40
9.0
 40
9.0
 40
9.0
 40
10.0
 40
10.0
 40
10.0
 40
10.0
 10
104.4961148802586
 20
-523.704608882078
 30
0.0
 10
369.5790196080361
 20
-934.0802102154848
 30
0.0
 10
644.2527626494657
 20
-1326.481999058877
 30
0.0
 10
915.8115541660281
 20
-1721.592707269203
 30
0.0
 10
915.5716853691138
 20
-1712.758491129369
 30
0.0
 10
913.5542436590931
 20
-1704.597733950284
 30
0.0
 10
911.0626901020096
 20
-1696.584387642995
 30
0.0
 10
858.5956712362404
 20
-1527.842803955078
 30
0.0
 10
806.1180531374321
 20
-1359.104318504509
 30
0.0
 10
753.5437374202884
 20
-1190.396081634381
 30
0.0
 10
732.5235830561905
 20
-1122.94345943609
 30
0.0
 10
719.4047492594209
 20
-1051.442990140431
 30
0.0
 10
687.914183304606
 20
-989.2684598650249
 30
0.0
 10
653.9203231038036
 20
-922.1515887563673
 30
0.0
 10
628.3729917113133
 20
-853.7291367350635
 30
0.0
 10
608.3873224917643
 20
-782.0310325095179
 30
0.0
 10
594.6380789268951
 20
-732.7061970442664
 30
0.0
 10
577.7155880554474
 20
-684.2738985334117
 30
0.0
 10
562.8519574354323
 20
-635.2484506352157
 30
0.0
 10
554.8279303625432
 20
-608.782654933666
 30
0.0
 10
535.2571803501669
 20
-597.3587200323009
 30
0.0
 10
510.4587663044022
 20
-599.0580216860435
 30
0.0
 10
453.0141030061077
 20
-602.9943322388253
 30
0.0
 10
401.7725185447025
 20
-572.6981367823164
 30
0.0
 10
345.2234496718729
 20
-571.90963537682
 30
0.0
 10
320.7081574470767
 20
-571.5676878124887
 30
0.0
 10
295.9648186468312
 20
-567.1563685544625
 30
0.0
 10
271.8594721429354
 20
-562.0639262748755
 30
0.0
 10
220.3213537541405
 20
-551.175986435007
 30
0.0
 10
169.1314201706564
 20
-538.6395804936983
 30
0.0
 10
104.4961148802586
 20
-523.704608882078
 30
0.0
  0
SPLINE
  5
4C
330
45
100
AcDbEntity
  8
Layer 1
370
     0
100
AcDbSpline
210
0.0
220
0.0
230
1.0
 70
    11
 71
     3
 72
    41
 73
    37
 74
     0
 42
0.0000000001
 43
0.0000000001
 12
1.0
 22
0.0
 32
0.0
 13
1.0
 23
0.0
 33
0.0
 40
0.0
 40
0.0
 40
0.0
 40
0.0
 40
1.0
 40
1.0
 40
1.0
 40
2.0
 40
2.0
 40
2.0
 40
3.0
 40
3.0
 40
3.0
 40
4.0
 40
4.0
 40
4.0
 40
5.0
 40
5.0
 40
5.0
 40
6.0
 40
6.0
 40
6.0
 40
7.0
 40
7.0
 40
7.0
 40
8.0
 40
8.0
 40
8.0
 40
9.0
 40
9.0
 40
9.0
 40
10.0
 40
10.0
 40
10.0
 40
11.0
 40
11.0
 40
11.0
 40
12.0
 40
12.0
 40
12.0
 40
12.0
 10
1305.47246287825
 20
-302.5934377397807
 30
0.0
 10
1315.375570903725
 20
-321.396844046456
 30
0.0
 10
1323.096867574524
 20
-336.9396409065494
 30
0.0
 10
1331.629413235572
 20
-352.0235725086404
 30
0.0
 10
1341.199542278518
 20
-368.9423128822427
 30
0.0
 10
1354.796401485321
 20
-384.3350082959996
 30
0.0
 10
1360.871229602444
 20
-402.3385394048028
 30
0.0
 10
1379.146264142155
 20
-456.5006202311006
 30
0.0
 10
1415.306281445763
 20
-500.4222520573348
 30
0.0
 10
1441.707992553711
 20
-549.8496962516538
 30
0.0
 10
1451.860916348645
 20
-568.857056261757
 30
0.0
 10
1469.270890407299
 20
-576.7735418855864
 30
0.0
 10
1491.301477810204
 20
-571.398263148998
 30
0.0
 10
1591.835040114442
 20
-546.8694365189367
 30
0.0
 10
1696.864307878204
 20
-544.4448211951185
 30
0.0
 10
1795.088541901056
 20
-507.4793029468728
 30
0.0
 10
1826.615389845887
 20
-495.6146030162336
 30
0.0
 10
1861.525023781209
 20
-492.7382565335738
 30
0.0
 10
1903.320571758779
 20
-483.9830046798779
 30
0.0
 10
1812.800023373371
 20
-433.7108423786776
 30
0.0
 10
1748.371525426064
 20
-365.2136657644523
 30
0.0
 10
1680.8133185602
 20
-299.9845588262178
 30
0.0
 10
1656.964391963273
 20
-276.9579288816667
 30
0.0
 10
1626.813324466828
 20
-259.9001754901374
 30
0.0
 10
1597.850838656799
 20
-243.0133551144927
 30
0.0
 10
1586.848834762925
 20
-236.5984954482401
 30
0.0
 10
1570.023612237745
 20
-234.0988701675342
 30
0.0
 10
1557.737796625233
 20
-237.2247878219678
 30
0.0
 10
1532.302898635513
 20
-243.6961903198526
 30
0.0
 10
1508.222908758347
 20
-255.3838422924691
 30
0.0
 10
1483.413528583016
 20
-264.4553181872388
 30
0.0
 10
1460.373568064606
 20
-272.879914736418
 30
0.0
 10
1437.635930285476
 20
-283.2525280192149
 30
0.0
 10
1413.816029280561
 20
-288.1506782039514
 30
0.0
 10
1381.150497577157
 20
-294.8677383106424
 30
0.0
 10
1347.589086084321
 20
-297.2274944815217
 30
0.0
 10
1305.47246287825
 20
-302.5934377397807
 30
0.0
  0
SPLINE
  5
4D
330
45
100
AcDbEntity
  8
Layer 1
370
     0
100
AcDbSpline
210
0.0
220
0.0
230
1.0
 70
    11
 71
     3
 72
    38
 73
    34
 74
     0
 42
0.0000000001
 43
0.0000000001
 12
1.0
 22
0.0
 32
0.0
 13
1.0
 23
0.0
 33
0.0
 40
0.0
 40
0.0
 40
0.0
 40
0.0
 40
1.0
 40
1.0
 40
1.0
 40
2.0
 40
2.0
 40
2.0
 40
3.0
 40
3.0
 40
3.0
 40
4.0
 40
4.0
 40
4.0
 40
5.0
 40
5.0
 40
5.0
 40
6.0
 40
6.0
 40
6.0
 40
7.0
 40
7.0
 40
7.0
 40
8.0
 40
8.0
 40
8.0
 40
9.0
 40
9.0
 40
9.0
 40
10.0
 40
10.0
 40
10.0
 40
11.0
 40
11.0
 40
11.0
 40
11.0
 10
554.4628275506502
 20
-212.6354640310255
 30
0.0
 10
554.163847646405
 20
-215.8628489586617
 30
0.0
 10
553.8648677421606
 20
-219.090233886297
 30
0.0
 10
553.5659693704765
 20
-222.3176188139323
 30
0.0
 10
616.1012812319987
 20
-233.3512165755174
 30
0.0
 10
678.3088321949481
 20
-250.7146763076425
 30
0.0
 10
741.2467518468056
 20
-253.9735735704271
 30
0.0
 10
842.2282540457581
 20
-259.2024198259624
 30
0.0
 10
943.6991146808396
 20
-255.6424635786061
 30
0.0
 10
1044.94951126872
 20
-254.5407956031058
 30
0.0
 10
1069.47426127069
 20
-254.2739395282233
 30
0.0
 10
1095.060157564927
 20
-243.0402608598979
 30
0.0
 10
1118.235869798791
 20
-247.3023347634871
 30
0.0
 10
1192.614030864381
 20
-260.9806449995613
 30
0.0
 10
1267.025457215199
 20
-253.7484621672038
 30
0.0
 10
1341.280259514733
 20
-252.5664438520162
 30
0.0
 10
1393.33945250621
 20
-251.7377061272546
 30
0.0
 10
1443.079696374005
 20
-237.0936834625381
 30
0.0
 10
1487.794436195478
 20
-208.9263439617944
 30
0.0
 10
1411.16948232343
 20
-195.9187613456479
 30
0.0
 10
1336.07815593948
 20
-185.2754599575619
 30
0.0
 10
1261.975330335204
 20
-169.8759565748924
 30
0.0
 10
1209.821559571999
 20
-159.0377515977425
 30
0.0
 10
1158.203050077236
 20
-149.2485445611492
 30
0.0
 10
1104.640722775788
 20
-150.4634001156155
 30
0.0
 10
1051.372564957437
 20
-151.6715496168708
 30
0.0
 10
998.046763617871
 20
-151.3446040439167
 30
0.0
 10
944.7618916243446
 20
-150.5854951269612
 30
0.0
 10
852.3298938593007
 20
-149.2686423376408
 30
0.0
 10
761.4010304042267
 20
-159.1681425472561
 30
0.0
 10
672.0252807195284
 20
-183.3028407734109
 30
0.0
 10
633.0403232134977
 20
-193.8302232417091
 30
0.0
 10
593.6623787594281
 20
-202.9023921632543
 30
0.0
 10
554.4628275506502
 20
-212.6354640310255
 30
0.0
  0
HATCH
  5
4E
330
45
100
AcDbEntity
  8
Layer 1
 62
     7
420
 16777215
100
AcDbHatch
 10
0.0
 20
0.0
 30
0.0
210
0.0
220
0.0
230
1.0
  2
SOLID
 70
     1
 71
     0
 91
        5
 92
        1
 93
        1
 72
     4
 94
        3
 73
     0
 74
     1
 95
      194
 96
      190
 40
0.0
 40
0.0
 40
0.0
 40
0.0
 40
1.0
 40
1.0
 40
1.0
 40
2.0
 40
2.0
 40
2.0
 40
3.0
 40
3.0
 40
3.0
 40
4.0
 40
4.0
 40
4.0
 40
5.0
 40
5.0
 40
5.0
 40
6.0
 40
6.0
 40
6.0
 40
7.0
 40
7.0
 40
7.0
 40
8.0
 40
8.0
 40
8.0
 40
9.0
 40
9.0
 40
9.0
 40
10.0
 40
10.0
 40
10.0
 40
11.0
 40
11.0
 40
11.0
 40
12.0
 40
12.0
 40
12.0
 40
13.0
 40
13.0
 40
13.0
 40
14.0
 40
14.0
 40
14.0
 40
15.0
 40
15.0
 40
15.0
 40
16.0
 40
16.0
 40
16.0
 40
17.0
 40
17.0
 40
17.0
 40
18.0
 40
18.0
 40
18.0
 40
19.0
 40
19.0
 40
19.0
 40
20.0
 40
20.0
 40
20.0
 40
21.0
 40
21.0
 40
21.0
 40
22.0
 40
22.0
 40
22.0
 40
23.0
 40
23.0
 40
23.0
 40
24.0
 40
24.0
 40
24.0
 40
25.0
 40
25.0
 40
25.0
 40
26.0
 40
26.0
 40
26.0
 40
27.0
 40
27.0
 40
27.0
 40
28.0
 40
28.0
 40
28.0
 40
29.0
 40
29.0
 40
29.0
 40
30.0
 40
30.0
 40
30.0
 40
31.0
 40
31.0
 40
31.0
 40
32.0
 40
32.0
 40
32.0
 40
33.0
 40
33.0
 40
33.0
 40
34.0
 40
34.0
 40
34.0
 40
35.0
 40
35.0
 40
35.0
 40
36.0
 40
36.0
 40
36.0
 40
37.0
 40
37.0
 40
37.0
 40
38.0
 40
38.0
 40
38.0
 40
39.0
 40
39.0
 40
39.0
 40
40.0
 40
40.0
 40
40.0
 40
41.0
 40
41.0
 40
41.0
 40
42.0
 40
42.0
 40
42.0
 40
43.0
 40
43.0
 40
43.0
 40
44.0
 40
44.0
 40
44.0
 40
45.0
 40
45.0
 40
45.0
 40
46.0
 40
46.0
 40
46.0
 40
47.0
 40
47.0
 40
47.0
 40
48.0
 40
48.0
 40
48.0
 40
49.0
 40
49.0
 40
49.0
 40
50.0
 40
50.0
 40
50.0
 40
51.0
 40
51.0
 40
51.0
 40
52.0
 40
52.0
 40
52.0
 40
53.0
 40
53.0
 40
53.0
 40
54.0
 40
54.0
 40
54.0
 40
55.0
 40
55.0
 40
55.0
 40
56.0
 40
56.0
 40
56.0
 40
57.0
 40
57.0
 40
57.0
 40
58.0
 40
58.0
 40
58.0
 40
59.0
 40
59.0
 40
59.0
 40
60.0
 40
60.0
 40
60.0
 40
61.0
 40
61.0
 40
61.0
 40
62.0
 40
62.0
 40
62.0
 40
63.0
 40
63.0
 40
63.0
 40
63.0
 10
1922.932251117196
 20
-545.0930050616989
 10
1915.506428450482
 20
-562.4550379739921
 10
1910.35324441233
 20
-581.2782159269127
 10
1900.283483830464
 20
-596.940457990092
 10
1838.008750036564
 20
-693.8013045139578
 10
1774.244090207711
 20
-789.7025943175986
 10
1711.692145703575
 20
-886.3870859102171
 10
1568.25223579934
 20
-1108.097439849431
 10
1426.489939887402
 20
-1330.905629733739
 10
1281.553418278145
 20
-1551.630744195752
 10
1195.133550090173
 20
-1683.240442443002
 10
1103.993354234826
 20
-1811.750761884698
 10
1010.559158219719
 20
-1948.098806495491
 10
990.99713219146
 20
-1919.111045591293
 10
973.4217285648465
 20
-1893.928246282761
 10
956.7186418172951
 20
-1868.179284864855
 10
828.4246282621461
 20
-1670.405912689348
 10
700.3449638120583
 20
-1472.493445963353
 10
572.1068000617661
 20
-1274.683873330392
 10
486.3206437106501
 20
-1142.357177734375
 10
400.785770715107
 20
-1009.863748049405
 10
314.1169020832958
 20
-878.1169935657126
 10
299.7778927324007
 20
-856.3200784850223
 10
278.916115369665
 20
-838.9141810544625
 10
263.356237437868
 20
-817.793904704432
 10
245.7255955006121
 20
-793.8631194154232
 10
230.7164292577227
 20
-768.0049858972225
 10
214.4874951235161
 20
-743.0367802914388
 10
168.6766926901682
 20
-672.5567725396922
 10
122.8688865784679
 20
-602.0748895390243
 10
76.95912399819372
 20
-531.6593740436883
 10
65.18889992357981
 20
-513.6065565012568
 10
65.566742198258
 20
-499.0036670139853
 10
87.70099825353645
 20
-489.817556337277
 10
93.48102501021003
 20
-492.8316520831549
 10
99.36131643479894
 20
-498.6478589141425
 10
105.0262395973032
 20
-498.4451689654234
 10
212.5932898807087
 20
-494.5960167212415
 10
315.1243184173163
 20
-519.6280215566603
 10
416.681195905132
 20
-551.1442702684535
 10
466.3953085868588
 20
-566.5720246837982
 10
517.4879330577933
 20
-566.4403495964361
 10
569.1519784883421
 20
-563.9644502912251
 10
573.7866969657935
 20
-557.0523642966273
 10
578.9224330357138
 20
-551.72739115069
 10
581.3798244493892
 20
-545.3675251973937
 10
606.5278908865794
 20
-480.2835869855044
 10
646.2900983045729
 20
-423.7726345853316
 10
686.3628632505915
 20
-367.6365689044724
 10
701.3218054353911
 20
-346.6813144595944
 10
720.2597812353742
 20
-328.5664506376061
 10
737.3834129368652
 20
-309.1564828371675
 10
736.7718371905485
 20
-317.7912295644728
 10
738.710599978398
 20
-327.6880188164068
 10
735.1580631941688
 20
-334.8674908475386
 10
695.287662066622
 20
-415.4422081450712
 10
668.1588435722388
 20
-502.9703076797696
 10
597.9069639285035
 20
-578.453683387299
 10
679.9828587545226
 20
-565.401054030739
 10
753.6785922775616
 20
-591.6050486762397
 10
826.4676837130073
 20
-567.0361080257571
 10
836.1365486883342
 20
-563.7726041732294
 10
847.7340664138437
 20
-565.1834436232039
 10
858.3365607547321
 20
-565.9121001283147
 10
897.1150778141982
 20
-568.5770734444186
 10
935.8339130384029
 20
-574.2181483325867
 10
974.6054182975513
 20
-574.4934022613379
 10
1101.036005151986
 20
-575.3909127020061
 10
1227.479881813999
 20
-574.4120327646278
 10
1353.918784989739
 20
-574.1661305581365
 10
1371.290112614082
 20
-574.1323760775376
 10
1388.661603303548
 20
-574.1614832021123
 10
1415.930168608915
 20
-574.1614832021123
 10
1358.993860833656
 20
-474.5270619897801
 10
1306.731162567841
 20
-383.0710905224496
 10
1253.315593877694
 20
-289.5977996439424
 10
1235.580141832203
 20
-289.5977996439424
 10
1217.884151546636
 20
-289.2177763732343
 10
1200.20862593409
 20
-289.6597643909363
 10
1090.081453209099
 20
-292.4135266668782
 10
979.9619445449189
 20
-295.4787840953068
 10
869.8324073756339
 20
-298.1311606306081
 10
844.9165456745477
 20
-298.731199519425
 10
819.8915118731657
 20
-296.8640630871469
 10
795.065254457535
 20
-298.4528473533246
 10
776.0953178933132
 20
-299.6668671990319
 10
757.3596243792417
 20
-304.542229032736
 10
738.5197322511449
 20
-307.7888964112453
 10
720.6114311745641
 20
-300.9567938598066
 10
703.1697409493581
 20
-292.2544974050215
 10
684.706366191811
 20
-287.6466846729754
 10
631.4564716673112
 20
-274.3574478219725
 10
577.7680950252688
 20
-262.832494076496
 10
524.3038513957081
 20
-250.391644297657
 10
490.1459884467758
 20
-242.443320208431
 10
456.0802165264358
 20
-234.0993593629055
 10
421.134952861592
 20
-225.7320802046952
 10
353.2068327626876
 20
-304.8869079378892
 10
273.6764252834055
 20
-367.3379558967554
 10
190.3293155195524
 20
-425.0137232415682
 10
160.1133481038878
 20
-445.923034087853
 10
127.3389704304354
 20
-463.1351693852157
 10
95.73193521104076
 20
-482.0342541532027
 10
114.000956724316
 20
-461.0035005560667
 10
130.4735916858444
 20
-438.0092390385635
 10
150.8927083872431
 20
-419.3287023025723
 10
201.9305837429065
 20
-372.6362678949736
 10
252.841431367232
 20
-325.4209651683332
 10
307.4808038105066
 20
-283.171484652752
 10
350.6795679435199
 20
-249.7683278624363
 10
396.5014791884178
 20
-216.6412810927714
 10
446.3451471108992
 20
-195.7901641124954
 10
500.41265016547
 20
-173.1720530690136
 10
560.4618303852694
 20
-164.8170037950786
 10
617.9454662481212
 20
-150.4134206552108
 10
657.4359256375219
 20
-140.5183843533559
 10
697.7501900316929
 20
-133.195455779678
 10
736.3068569904099
 20
-120.5026092353501
 10
770.7588486561572
 20
-109.1610018382971
 10
805.0926181072464
 20
-104.9553892337781
 10
840.9320493777223
 20
-105.0677818702661
 10
944.1424072195296
 20
-105.3914253744661
 10
1047.356107896374
 20
-104.4775268888689
 10
1150.568422519666
 20
-104.488880298105
 10
1188.964551864132
 20
-104.4930996081794
 10
1225.333455591157
 20
-105.2829666840862
 10
1263.482215143018
 20
-122.253582150156
 10
1307.754396218857
 20
-141.9482616565192
 10
1358.893249652352
 20
-146.4453939358755
 10
1407.228035219254
 20
-156.7081624747425
 10
1465.892344110023
 20
-169.1641161606603
 10
1526.397821312126
 20
-175.7390446289346
 10
1582.941957464966
 20
-194.4318927817631
 10
1622.322021765642
 20
-207.450563826319
 10
1663.850469070645
 20
-229.9284388634469
 10
1690.84687868461
 20
-260.260427114601
 10
1721.986446960729
 20
-295.2476392825074
 10
1757.139537125688
 20
-323.8320178370323
 10
1793.843213551605
 20
-350.0647934768604
 10
1841.815342283468
 20
-384.3513148083666
 10
1886.955845142838
 20
-420.8999163016742
 10
1927.308103710824
 20
-463.7459298059139
 10
1936.891114898541
 20
-473.9210712239492
 10
1948.822263867074
 20
-481.8848049673616
 10
1962.107342557423
 20
-492.8803270225699
 10
1958.052075996926
 20
-515.7971326063307
 10
1945.302013977331
 20
-532.7943480706981
 10
1923.801714356592
 20
-543.8777214612828
 10
1916.202553463421
 20
-541.06480731173
 10
1908.430380474038
 20
-535.4832919599821
 10
1901.035866311067
 20
-535.9454185204568
 10
1876.4453195317
 20
-537.4819811807793
 10
1852.035122779107
 20
-541.6832317932403
 10
1827.469851093907
 20
-543.9160825316258
 10
1806.2136599633
 20
-545.8481596494048
 10
1784.26917094569
 20
-543.7985533437422
 10
1763.619419010003
 20
-548.1783602666192
 10
1682.428478610131
 20
-565.3990157166936
 10
1602.142549646614
 20
-587.3812543104323
 10
1520.491765597997
 20
-601.7515313987906
 10
1471.425959081693
 20
-610.3869711528723
 10
1445.468763500863
 20
-635.1252549342844
 10
1435.414657170872
 20
-681.4633080618714
 10
1432.046057846139
 20
-696.9882492909228
 10
1427.609218896259
 20
-712.2995752079696
 10
1423.216733660016
 20
-727.5808971422603
 10
1406.625835717548
 20
-785.2968192737771
 10
1391.419523740144
 20
-843.4715251307334
 10
1372.80025872437
 20
-900.5299686836206
 10
1340.398240260814
 20
-999.8255405689706
 10
1305.625581029373
 20
-1098.345167063348
 10
1272.246313279675
 20
-1197.324800271592
 10
1209.436236684773
 20
-1383.574523222611
 10
1146.826322529172
 20
-1569.891918199952
 10
1084.369200394449
 20
-1756.260189495877
 10
1076.2500248219
 20
-1780.487590244837
 10
1069.528235826623
 20
-1805.182987898725
 10
1062.159241355508
 20
-1829.661672003258
 10
1109.803119993428
 20
-1760.117168865994
 10
1150.402585288895
 20
-1687.302068543324
 10
1195.753034494988
 20
-1617.576889249036
 10
1315.757469423355
 20
-1433.072778446884
 10
1436.933119602467
 20
-1249.314201390138
 10
1559.319691389936
 20
-1066.380896924278
 10
1672.761488883725
 20
-896.8177096107593
 10
1788.29785789103
 20
-728.6548440467377
 10
1903.310461721112
 20
-560.147421876406
 10
1907.725776074669
 20
-553.6786284205
 10
1916.297294300271
 20
-550.0467604536061
 10
1922.932251117196
 20
-545.0930050616989
 97
        0
 97
        0
 92
        1
 93
        1
 72
     4
 94
        3
 73
     0
 74
     1
 95
       26
 96
       22
 40
0.0
 40
0.0
 40
0.0
 40
0.0
 40
1.0
 40
1.0
 40
1.0
 40
2.0
 40
2.0
 40
2.0
 40
3.0
 40
3.0
 40
3.0
 40
4.0
 40
4.0
 40
4.0
 40
5.0
 40
5.0
 40
5.0
 40
6.0
 40
6.0
 40
6.0
 40
7.0
 40
7.0
 40
7.0
 40
7.0
 10
589.3372394192602
 20
-609.9987946259807
 10
667.13463153048
 20
-826.2949787966118
 10
724.9525508968509
 20
-1037.084698338662
 10
795.9733641312414
 20
-1243.784989176807
 10
866.9739572902972
 20
-1450.426495037869
 10
937.6471156810276
 20
-1657.180678899387
 10
1011.017452749787
 20
-1871.33948696154
 10
1025.434284930954
 20
-1832.081395373365
 10
1038.498818041542
 20
-1801.847816924344
 10
1047.640738069736
 20
-1770.471151958413
 10
1065.277128052601
 20
-1709.940236597016
 10
1091.330042861024
 20
-1652.385259742561
 10
1110.704380931942
 20
-1592.789033670029
 10
1204.127488518639
 20
-1305.415941862466
 10
1294.224719843007
 20
-1016.961157557053
 10
1385.467157530893
 20
-728.8791401243425
 10
1396.372137676186
 20
-694.4486730549188
 10
1407.067253007317
 20
-659.9516754150391
 10
1418.210308233163
 20
-624.3650766188093
 10
1144.193146912183
 20
-619.6157233594195
 10
874.8470675912322
 20
-614.9473319339313
 10
589.3372394192602
 20
-609.9987946259807
 97
        0
 97
        0
 92
        1
 93
        1
 72
     4
 94
        3
 73
     0
 74
     1
 95
       35
 96
       31
 40
0.0
 40
0.0
 40
0.0
 40
0.0
 40
1.0
 40
1.0
 40
1.0
 40
2.0
 40
2.0
 40
2.0
 40
3.0
 40
3.0
 40
3.0
 40
4.0
 40
4.0
 40
4.0
 40
5.0
 40
5.0
 40
5.0
 40
6.0
 40
6.0
 40
6.0
 40
7.0
 40
7.0
 40
7.0
 40
8.0
 40
8.0
 40
8.0
 40
9.0
 40
9.0
 40
9.0
 40
10.0
 40
10.0
 40
10.0
 40
10.0
 10
104.4961148802586
 20
-523.704608882078
 10
369.5790196080361
 20
-934.0802102154848
 10
644.2527626494657
 20
-1326.481999058877
 10
915.8115541660281
 20
-1721.592707269203
 10
915.5716853691138
 20
-1712.758491129369
 10
913.5542436590931
 20
-1704.597733950284
 10
911.0626901020096
 20
-1696.584387642995
 10
858.5956712362404
 20
-1527.842803955078
 10
806.1180531374321
 20
-1359.104318504509
 10
753.5437374202884
 20
-1190.396081634381
 10
732.5235830561905
 20
-1122.94345943609
 10
719.4047492594209
 20
-1051.442990140431
 10
687.914183304606
 20
-989.2684598650249
 10
653.9203231038036
 20
-922.1515887563673
 10
628.3729917113133
 20
-853.7291367350635
 10
608.3873224917643
 20
-782.0310325095179
 10
594.6380789268951
 20
-732.7061970442664
 10
577.7155880554474
 20
-684.2738985334117
 10
562.8519574354323
 20
-635.2484506352157
 10
554.8279303625432
 20
-608.782654933666
 10
535.2571803501669
 20
-597.3587200323009
 10
510.4587663044022
 20
-599.0580216860435
 10
453.0141030061077
 20
-602.9943322388253
 10
401.7725185447025
 20
-572.6981367823164
 10
345.2234496718729
 20
-571.90963537682
 10
320.7081574470767
 20
-571.5676878124887
 10
295.9648186468312
 20
-567.1563685544625
 10
271.8594721429354
 20
-562.0639262748755
 10
220.3213537541405
 20
-551.175986435007
 10
169.1314201706564
 20
-538.6395804936983
 10
104.4961148802586
 20
-523.704608882078
 97
        0
 97
        0
 92
        1
 93
        1
 72
     4
 94
        3
 73
     0
 74
     1
 95
       41
 96
       37
 40
0.0
 40
0.0
 40
0.0
 40
0.0
 40
1.0
 40
1.0
 40
1.0
 40
2.0
 40
2.0
 40
2.0
 40
3.0
 40
3.0
 40
3.0
 40
4.0
 40
4.0
 40
4.0
 40
5.0
 40
5.0
 40
5.0
 40
6.0
 40
6.0
 40
6.0
 40
7.0
 40
7.0
 40
7.0
 40
8.0
 40
8.0
 40
8.0
 40
9.0
 40
9.0
 40
9.0
 40
10.0
 40
10.0
 40
10.0
 40
11.0
 40
11.0
 40
11.0
 40
12.0
 40
12.0
 40
12.0
 40
12.0
 10
1305.47246287825
 20
-302.5934377397807
 10
1315.375570903725
 20
-321.396844046456
 10
1323.096867574524
 20
-336.9396409065494
 10
1331.629413235572
 20
-352.0235725086404
 10
1341.199542278518
 20
-368.9423128822427
 10
1354.796401485321
 20
-384.3350082959996
 10
1360.871229602444
 20
-402.3385394048028
 10
1379.146264142155
 20
-456.5006202311006
 10
1415.306281445763
 20
-500.4222520573348
 10
1441.707992553711
 20
-549.8496962516538
 10
1451.860916348645
 20
-568.857056261757
 10
1469.270890407299
 20
-576.7735418855864
 10
1491.301477810204
 20
-571.398263148998
 10
1591.835040114442
 20
-546.8694365189367
 10
1696.864307878204
 20
-544.4448211951185
 10
1795.088541901056
 20
-507.4793029468728
 10
1826.615389845887
 20
-495.6146030162336
 10
1861.525023781209
 20
-492.7382565335738
 10
1903.320571758779
 20
-483.9830046798779
 10
1812.800023373371
 20
-433.7108423786776
 10
1748.371525426064
 20
-365.2136657644523
 10
1680.8133185602
 20
-299.9845588262178
 10
1656.964391963273
 20
-276.9579288816667
 10
1626.813324466828
 20
-259.9001754901374
 10
1597.850838656799
 20
-243.0133551144927
 10
1586.848834762925
 20
-236.5984954482401
 10
1570.023612237745
 20
-234.0988701675342
 10
1557.737796625233
 20
-237.2247878219678
 10
1532.302898635513
 20
-243.6961903198526
 10
1508.222908758347
 20
-255.3838422924691
 10
1483.413528583016
 20
-264.4553181872388
 10
1460.373568064606
 20
-272.879914736418
 10
1437.635930285476
 20
-283.2525280192149
 10
1413.816029280561
 20
-288.1506782039514
 10
1381.150497577157
 20
-294.8677383106424
 10
1347.589086084321
 20
-297.2274944815217
 10
1305.47246287825
 20
-302.5934377397807
 97
        0
 97
        0
 92
        1
 93
        1
 72
     4
 94
        3
 73
     0
 74
     1
 95
       38
 96
       34
 40
0.0
 40
0.0
 40
0.0
 40
0.0
 40
1.0
 40
1.0
 40
1.0
 40
2.0
 40
2.0
 40
2.0
 40
3.0
 40
3.0
 40
3.0
 40
4.0
 40
4.0
 40
4.0
 40
5.0
 40
5.0
 40
5.0
 40
6.0
 40
6.0
 40
6.0
 40
7.0
 40
7.0
 40
7.0
 40
8.0
 40
8.0
 40
8.0
 40
9.0
 40
9.0
 40
9.0
 40
10.0
 40
10.0
 40
10.0
 40
11.0
 40
11.0
 40
11.0
 40
11.0
 10
554.4628275506502
 20
-212.6354640310255
 10
554.163847646405
 20
-215.8628489586617
 10
553.8648677421606
 20
-219.090233886297
 10
553.5659693704765
 20
-222.3176188139323
 10
616.1012812319987
 20
-233.3512165755174
 10
678.3088321949481
 20
-250.7146763076425
 10
741.2467518468056
 20
-253.9735735704271
 10
842.2282540457581
 20
-259.2024198259624
 10
943.6991146808396
 20
-255.6424635786061
 10
1044.94951126872
 20
-254.5407956031058
 10
1069.47426127069
 20
-254.2739395282233
 10
1095.060157564927
 20
-243.0402608598979
 10
1118.235869798791
 20
-247.3023347634871
 10
1192.614030864381
 20
-260.9806449995613
 10
1267.025457215199
 20
-253.7484621672038
 10
1341.280259514733
 20
-252.5664438520162
 10
1393.33945250621
 20
-251.7377061272546
 10
1443.079696374005
 20
-237.0936834625381
 10
1487.794436195478
 20
-208.9263439617944
 10
1411.16948232343
 20
-195.9187613456479
 10
1336.07815593948
 20
-185.2754599575619
 10
1261.975330335204
 20
-169.8759565748924
 10
1209.821559571999
 20
-159.0377515977425
 10
1158.203050077236
 20
-149.2485445611492
 10
1104.640722775788
 20
-150.4634001156155
 10
1051.372564957437
 20
-151.6715496168708
 10
998.046763617871
 20
-151.3446040439167
 10
944.7618916243446
 20
-150.5854951269612
 10
852.3298938593007
 20
-149.2686423376408
 10
761.4010304042267
 20
-159.1681425472561
 10
672.0252807195284
 20
-183.3028407734109
 10
633.0403232134977
 20
-193.8302232417091
 10
593.6623787594281
 20
-202.9023921632543
 10
554.4628275506502
 20
-212.6354640310255
 97
        0
 97
        0
 75
     2
 76
     1
 98
        0
  0
ENDBLK
  5
48
330
45
100
AcDbEntity
  8
0
100
AcDbBlockEnd
  0
ENDSEC
  0
SECTION
  2
ENTITIES
  0
INSERT
  5
42
330
1F
100
AcDbEntity
  8
Layer 1
100
AcDbBlockReference
  2
block 2
 10
0.0
 20
0.0
 30
0.0
  0
ENDSEC
  0
SECTION
  2
OBJECTS
  0
DICTIONARY
  5
C
330
0
100
AcDbDictionary
281
     1
  3
ACAD_GROUP
350
D
  3
ACAD_LAYOUT
350
1A
  3
ACAD_MATERIAL
350
3B
  3
ACAD_MLEADERSTYLE
350
50
  3
ACAD_MLINESTYLE
350
17
  3
ACAD_PLOTSETTINGS
350
19
  3
ACAD_PLOTSTYLENAME
350
E
  3
ACAD_TABLESTYLE
350
4F
  3
ACAD_VISUALSTYLE
350
2A
  0
SUN
  5
3F
330
29
100
AcDbSun
 90
        1
290
     0
 63
     7
421
 16777215
 40
1.0
291
     1
 91
  2455826
 92
 54000000
292
     0
 70
     2
 71
   256
280
     1
  0
DICTIONARY
  5
D
102
{ACAD_REACTORS
330
C
102
}
330
C
100
AcDbDictionary
281
     1
  0
DICTIONARY
  5
1A
102
{ACAD_REACTORS
330
C
102
}
330
C
100
AcDbDictionary
281
     1
  3
Layout1
350
1E
  3
Layout2
350
26
  3
Model
350
22
  0
DICTIONARY
  5
3B
102
{ACAD_REACTORS
330
C
102
}
330
C
100
AcDbDictionary
281
     1
  3
ByBlock
350
3D
  3
ByLayer
350
3C
  3
Global
350
3E
  0
DICTIONARY
  5
50
102
{ACAD_REACTORS
330
C
102
}
330
C
100
AcDbDictionary
281
     1
  0
DICTIONARY
  5
17
102
{ACAD_REACTORS
330
C
102
}
330
C
100
AcDbDictionary
281
     1
  3
Standard
350
18
  0
DICTIONARY
  5
19
102
{ACAD_REACTORS
330
C
102
}
330
C
100
AcDbDictionary
281
     1
  0
ACDBDICTIONARYWDFLT
  5
E
102
{ACAD_REACTORS
330
C
102
}
330
C
100
AcDbDictionary
281
     1
  3
Normal
350
F
100
AcDbDictionaryWithDefault
340
F
  0
DICTIONARY
  5
4F
102
{ACAD_REACTORS
330
C
102
}
330
C
100
AcDbDictionary
281
     1
  0
DICTIONARY
  5
2A
102
{ACAD_REACTORS
330
C
102
}
330
C
100
AcDbDictionary
281
     1
  3
2dWireframe
350
2F
  3
3D Hidden
350
31
  3
3dWireframe
350
30
  3
Basic
350
32
  3
Brighten
350
36
  3
ColorChange
350
3A
  3
Conceptual
350
34
  3
Dim
350
35
  3
Facepattern
350
39
  3
Flat
350
2B
  3
FlatWithEdges
350
2C
  3
Gouraud
350
2D
  3
GouraudWithEdges
350
2E
  3
Linepattern
350
38
  3
Realistic
350
33
  3
Thicken
350
37
  0
LAYOUT
  5
1E
102
{ACAD_REACTORS
330
1A
102
}
330
1A
100
AcDbPlotSettings
  1

  2
none_device
  4

  6

 40
0.0
 41
0.0
 42
0.0
 43
0.0
 44
0.0
 45
0.0
 46
0.0
 47
0.0
 48
0.0
 49
0.0
140
0.0
141
0.0
142
1.0
143
1.0
 70
   688
 72
     0
 73
     0
 74
     5
  7

 75
    16
 76
     0
 77
     2
 78
   300
147
1.0
148
0.0
149
0.0
100
AcDbLayout
  1
Layout1
 70
     1
 71
     1
 10
0.0
 20
0.0
 11
12.0
 21
9.0
 12
0.0
 22
0.0
 32
0.0
 14
1.000000000000000E+20
 24
1.000000000000000E+20
 34
1.000000000000000E+20
 15
-1.000000000000000E+20
 25
-1.000000000000000E+20
 35
-1.000000000000000E+20
146
0.0
 13
0.0
 23
0.0
 33
0.0
 16
1.0
 26
0.0
 36
0.0
 17
0.0
 27
1.0
 37
0.0
 76
     0
330
1B
  0
LAYOUT
  5
26
102
{ACAD_REACTORS
330
1A
102
}
330
1A
100
AcDbPlotSettings
  1

  2
none_device
  4

  6

 40
0.0
 41
0.0
 42
0.0
 43
0.0
 44
0.0
 45
0.0
 46
0.0
 47
0.0
 48
0.0
 49
0.0
140
0.0
141
0.0
142
1.0
143
1.0
 70
   688
 72
     0
 73
     0
 74
     5
  7

 75
    16
 76
     0
 77
     2
 78
   300
147
1.0
148
0.0
149
0.0
100
AcDbLayout
  1
Layout2
 70
     1
 71
     2
 10
0.0
 20
0.0
 11
0.0
 21
0.0
 12
0.0
 22
0.0
 32
0.0
 14
0.0
 24
0.0
 34
0.0
 15
0.0
 25
0.0
 35
0.0
146
0.0
 13
0.0
 23
0.0
 33
0.0
 16
1.0
 26
0.0
 36
0.0
 17
0.0
 27
1.0
 37
0.0
 76
     0
330
23
  0
LAYOUT
  5
22
102
{ACAD_REACTORS
330
1A
102
}
330
1A
100
AcDbPlotSettings
  1

  2
none_device
  4

  6

 40
0.0
 41
0.0
 42
0.0
 43
0.0
 44
0.0
 45
0.0
 46
0.0
 47
0.0
 48
0.0
 49
0.0
140
0.0
141
0.0
142
1.0
143
1.0
 70
  1712
 72
     0
 73
     0
 74
     0
  7

 75
     0
 76
     0
 77
     2
 78
   300
147
1.0
148
0.0
149
0.0
100
AcDbLayout
  1
Model
 70
     1
 71
     0
 10
0.0
 20
0.0
 11
12.0
 21
9.0
 12
0.0
 22
0.0
 32
0.0
 14
1.000000000000000E+20
 24
1.000000000000000E+20
 34
1.000000000000000E+20
 15
-1.000000000000000E+20
 25
-1.000000000000000E+20
 35
-1.000000000000000E+20
146
0.0
 13
0.0
 23
0.0
 33
0.0
 16
1.0
 26
0.0
 36
0.0
 17
0.0
 27
1.0
 37
0.0
 76
     0
330
1F
331
29
  0
MATERIAL
  5
3D
102
{ACAD_REACTORS
330
3B
102
}
330
3B
100
AcDbMaterial
  1
ByBlock
 72
     1
 94
      127
  0
MATERIAL
  5
3C
102
{ACAD_REACTORS
330
3B
102
}
330
3B
100
AcDbMaterial
  1
ByLayer
 72
     1
 94
      127
  0
MATERIAL
  5
3E
102
{ACAD_REACTORS
330
3B
102
}
330
3B
100
AcDbMaterial
  1
Global
 72
     1
 94
      127
  0
MLINESTYLE
  5
18
102
{ACAD_REACTORS
330
17
102
}
330
17
100
AcDbMlineStyle
  2
Standard
 70
     0
  3

 62
   256
 51
90.0
 52
90.0
 71
     2
 49
0.5
 62
   256
  6
BYLAYER
 49
-0.5
 62
   256
  6
BYLAYER
  0
ACDBPLACEHOLDER
  5
F
102
{ACAD_REACTORS
330
E
102
}
330
E
  0
VISUALSTYLE
  5
2F
102
{ACAD_REACTORS
330
2A
102
}
330
2A
100
AcDbVisualStyle
  2
2dWireframe
 70
     4
177
     2
291
     0
 71
     0
176
     1
 72
     2
176
     1
 73
     0
176
     1
 90
        0
176
     1
 40
-0.6
176
     1
 41
-30.0
176
     1
 62
     5
 63
     7
421
 16777215
176
     1
 74
     1
176
     1
 91
        4
176
     1
 64
     7
176
     1
 65
   257
176
     1
 75
     1
176
     1
175
     1
176
     1
 42
1.0
176
     1
 92
        0
176
     1
 66
   257
176
     1
 43
1.0
176
     1
 76
     1
176
     1
 77
     6
176
     1
 78
     2
176
     1
 67
     7
176
     1
 79
     5
176
     1
170
     0
176
     1
171
     0
176
     1
290
     0
176
     1
 93
        1
176
     1
 44
0.0
176
     1
173
     0
176
     1
  0
VISUALSTYLE
  5
31
102
{ACAD_REACTORS
330
2A
102
}
330
2A
100
AcDbVisualStyle
  2
3D Hidden
 70
     6
177
     2
291
     0
 71
     1
176
     1
 72
     2
176
     1
 73
     2
176
     1
 90
        0
176
     1
 40
-0.6
176
     1
 41
-30.0
176
     1
 62
     5
 63
     7
421
 16777215
176
     1
 74
     2
176
     1
 91
        2
176
     1
 64
     7
176
     1
 65
   257
176
     1
 75
     2
176
     1
175
     1
176
     1
 42
40.0
176
     1
 92
        0
176
     1
 66
   257
176
     1
 43
1.0
176
     1
 76
     1
176
     1
 77
     6
176
     1
 78
     2
176
     1
 67
     7
176
     1
 79
     3
176
     1
170
     0
176
     1
171
     0
176
     1
290
     0
176
     1
 93
        1
176
     1
 44
0.0
176
     1
173
     0
176
     1
  0
VISUALSTYLE
  5
30
102
{ACAD_REACTORS
330
2A
102
}
330
2A
100
AcDbVisualStyle
  2
3dWireframe
 70
     5
177
     2
291
     0
 71
     0
176
     1
 72
     2
176
     1
 73
     0
176
     1
 90
        0
176
     1
 40
-0.6
176
     1
 41
-30.0
176
     1
 62
     5
 63
     7
421
 16777215
176
     1
 74
     1
176
     1
 91
        4
176
     1
 64
     7
176
     1
 65
   257
176
     1
 75
     1
176
     1
175
     1
176
     1
 42
1.0
176
     1
 92
        0
176
     1
 66
   257
176
     1
 43
1.0
176
     1
 76
     1
176
     1
 77
     6
176
     1
 78
     2
176
     1
 67
     7
176
     1
 79
     5
176
     1
170
     0
176
     1
171
     0
176
     1
290
     0
176
     1
 93
        1
176
     1
 44
0.0
176
     1
173
     0
176
     1
  0
VISUALSTYLE
  5
32
102
{ACAD_REACTORS
330
2A
102
}
330
2A
100
AcDbVisualStyle
  2
Basic
 70
     7
177
     2
291
     1
 71
     1
176
     1
 72
     0
176
     1
 73
     1
176
     1
 90
        0
176
     1
 40
-0.6
176
     1
 41
-30.0
176
     1
 62
     5
 63
     7
421
 16777215
176
     1
 74
     0
176
     1
 91
        4
176
     1
 64
     7
176
     1
 65
   257
176
     1
 75
     1
176
     1
175
     1
176
     1
 42
1.0
176
     1
 92
        8
176
     1
 66
     7
176
     1
 43
1.0
176
     1
 76
     1
176
     1
 77
     6
176
     1
 78
     2
176
     1
 67
     7
176
     1
 79
     5
176
     1
170
     0
176
     1
171
     0
176
     1
290
     0
176
     1
 93
        1
176
     1
 44
0.0
176
     1
173
     0
176
     1
  0
VISUALSTYLE
  5
36
102
{ACAD_REACTORS
330
2A
102
}
330
2A
100
AcDbVisualStyle
  2
Brighten
 70
    12
177
     2
291
     1
 71
     2
176
     1
 72
     2
176
     1
 73
     0
176
     1
 90
        0
176
     1
 40
-0.6
176
     1
 41
-30.0
176
     1
 62
     5
 63
     7
421
 16777215
176
     1
 74
     1
176
     1
 91
        4
176
     1
 64
     7
176
     1
 65
   257
176
     1
 75
     1
176
     1
175
     1
176
     1
 42
1.0
176
     1
 92
        8
176
     1
 66
     7
176
     1
 43
1.0
176
     1
 76
     1
176
     1
 77
     6
176
     1
 78
     2
176
     1
 67
     7
176
     1
 79
     5
176
     1
170
     0
176
     1
171
     0
176
     1
290
     0
176
     1
 93
        1
176
     1
 44
50.0
176
     1
173
     0
176
     1
  0
VISUALSTYLE
  5
3A
102
{ACAD_REACTORS
330
2A
102
}
330
2A
100
AcDbVisualStyle
  2
ColorChange
 70
    16
177
     2
291
     1
 71
     2
176
     1
 72
     2
176
     1
 73
     3
176
     1
 90
        0
176
     1
 40
-0.6
176
     1
 41
-30.0
176
     1
 62
     5
 63
     8
421
  8421504
176
     1
 74
     1
176
     1
 91
        4
176
     1
 64
     7
176
     1
 65
   257
176
     1
 75
     1
176
     1
175
     1
176
     1
 42
1.0
176
     1
 92
        8
176
     1
 66
     8
424
  8421504
176
     1
 43
1.0
176
     1
 76
     1
176
     1
 77
     6
176
     1
 78
     2
176
     1
 67
     7
176
     1
 79
     5
176
     1
170
     0
176
     1
171
     0
176
     1
290
     0
176
     1
 93
        1
176
     1
 44
0.0
176
     1
173
     0
176
     1
  0
VISUALSTYLE
  5
34
102
{ACAD_REACTORS
330
2A
102
}
330
2A
100
AcDbVisualStyle
  2
Conceptual
 70
     9
177
     2
291
     0
 71
     3
176
     1
 72
     2
176
     1
 73
     0
176
     1
 90
        0
176
     1
 40
-0.6
176
     1
 41
-30.0
176
     1
 62
     5
 63
     7
421
 16777215
176
     1
 74
     2
176
     1
 91
        2
176
     1
 64
     7
176
     1
 65
   257
176
     1
 75
     1
176
     1
175
     1
176
     1
 42
40.0
176
     1
 92
        8
176
     1
 66
     7
176
     1
 43
1.0
176
     1
 76
     1
176
     1
 77
     6
176
     1
 78
     2
176
     1
 67
     7
176
     1
 79
     3
176
     1
170
     0
176
     1
171
     0
176
     1
290
     0
176
     1
 93
        1
176
     1
 44
0.0
176
     1
173
     0
176
     1
  0
VISUALSTYLE
  5
35
102
{ACAD_REACTORS
330
2A
102
}
330
2A
100
AcDbVisualStyle
  2
Dim
 70
    11
177
     2
291
     1
 71
     2
176
     1
 72
     2
176
     1
 73
     0
176
     1
 90
        0
176
     1
 40
-0.6
176
     1
 41
-30.0
176
     1
 62
     5
 63
     7
421
 16777215
176
     1
 74
     1
176
     1
 91
        4
176
     1
 64
     7
176
     1
 65
   257
176
     1
 75
     1
176
     1
175
     1
176
     1
 42
1.0
176
     1
 92
        8
176
     1
 66
     7
176
     1
 43
1.0
176
     1
 76
     1
176
     1
 77
     6
176
     1
 78
     2
176
     1
 67
     7
176
     1
 79
     5
176
     1
170
     0
176
     1
171
     0
176
     1
290
     0
176
     1
 93
        1
176
     1
 44
-50.0
176
     1
173
     0
176
     1
  0
VISUALSTYLE
  5
39
102
{ACAD_REACTORS
330
2A
102
}
330
2A
100
AcDbVisualStyle
  2
Facepattern
 70
    15
177
     2
291
     1
 71
     2
176
     1
 72
     2
176
     1
 73
     0
176
     1
 90
        0
176
     1
 40
-0.6
176
     1
 41
-30.0
176
     1
 62
     5
 63
     7
421
 16777215
176
     1
 74
     1
176
     1
 91
        4
176
     1
 64
     7
176
     1
 65
   257
176
     1
 75
     1
176
     1
175
     1
176
     1
 42
1.0
176
     1
 92
        8
176
     1
 66
     7
176
     1
 43
1.0
176
     1
 76
     1
176
     1
 77
     6
176
     1
 78
     2
176
     1
 67
     7
176
     1
 79
     5
176
     1
170
     0
176
     1
171
     0
176
     1
290
     0
176
     1
 93
        1
176
     1
 44
0.0
176
     1
173
     0
176
     1
  0
VISUALSTYLE
  5
2B
102
{ACAD_REACTORS
330
2A
102
}
330
2A
100
AcDbVisualStyle
  2
Flat
 70
     0
177
     2
291
     1
 71
     2
176
     1
 72
     1
176
     1
 73
     1
176
     1
 90
        2
176
     1
 40
-0.6
176
     1
 41
30.0
176
     1
 62
     5
 63
     7
421
 16777215
176
     1
 74
     0
176
     1
 91
        4
176
     1
 64
     7
176
     1
 65
   257
176
     1
 75
     1
176
     1
175
     1
176
     1
 42
1.0
176
     1
 92
        8
176
     1
 66
     7
176
     1
 43
1.0
176
     1
 76
     1
176
     1
 77
     6
176
     1
 78
     2
176
     1
 67
     7
176
     1
 79
     5
176
     1
170
     0
176
     1
171
     0
176
     1
290
     0
176
     1
 93
       13
176
     1
 44
0.0
176
     1
173
     0
176
     1
  0
VISUALSTYLE
  5
2C
102
{ACAD_REACTORS
330
2A
102
}
330
2A
100
AcDbVisualStyle
  2
FlatWithEdges
 70
     1
177
     2
291
     1
 71
     2
176
     1
 72
     1
176
     1
 73
     1
176
     1
 90
        2
176
     1
 40
-0.6
176
     1
 41
30.0
176
     1
 62
     5
 63
     7
421
 16777215
176
     1
 74
     1
176
     1
 91
        4
176
     1
 64
     7
176
     1
 65
   257
176
     1
 75
     1
176
     1
175
     1
176
     1
 42
1.0
176
     1
 92
        0
176
     1
 66
   257
176
     1
 43
1.0
176
     1
 76
     1
176
     1
 77
     6
176
     1
 78
     2
176
     1
 67
     7
176
     1
 79
     5
176
     1
170
     0
176
     1
171
     0
176
     1
290
     0
176
     1
 93
       13
176
     1
 44
0.0
176
     1
173
     0
176
     1
  0
VISUALSTYLE
  5
2D
102
{ACAD_REACTORS
330
2A
102
}
330
2A
100
AcDbVisualStyle
  2
Gouraud
 70
     2
177
     2
291
     1
 71
     2
176
     1
 72
     2
176
     1
 73
     1
176
     1
 90
        2
176
     1
 40
-0.6
176
     1
 41
30.0
176
     1
 62
     5
 63
     7
421
 16777215
176
     1
 74
     0
176
     1
 91
        4
176
     1
 64
     7
176
     1
 65
   257
176
     1
 75
     1
176
     1
175
     1
176
     1
 42
1.0
176
     1
 92
        0
176
     1
 66
     7
176
     1
 43
1.0
176
     1
 76
     1
176
     1
 77
     6
176
     1
 78
     2
176
     1
 67
     7
176
     1
 79
     5
176
     1
170
     0
176
     1
171
     0
176
     1
290
     0
176
     1
 93
       13
176
     1
 44
0.0
176
     1
173
     0
176
     1
  0
VISUALSTYLE
  5
2E
102
{ACAD_REACTORS
330
2A
102
}
330
2A
100
AcDbVisualStyle
  2
GouraudWithEdges
 70
     3
177
     2
291
     1
 71
     2
176
     1
 72
     2
176
     1
 73
     1
176
     1
 90
        2
176
     1
 40
-0.6
176
     1
 41
30.0
176
     1
 62
     5
 63
     7
421
 16777215
176
     1
 74
     1
176
     1
 91
        4
176
     1
 64
     7
176
     1
 65
   257
176
     1
 75
     1
176
     1
175
     1
176
     1
 42
1.0
176
     1
 92
        0
176
     1
 66
   257
176
     1
 43
1.0
176
     1
 76
     1
176
     1
 77
     6
176
     1
 78
     2
176
     1
 67
     7
176
     1
 79
     5
176
     1
170
     0
176
     1
171
     0
176
     1
290
     0
176
     1
 93
       13
176
     1
 44
0.0
176
     1
173
     0
176
     1
  0
VISUALSTYLE
  5
38
102
{ACAD_REACTORS
330
2A
102
}
330
2A
100
AcDbVisualStyle
  2
Linepattern
 70
    14
177
     2
291
     1
 71
     2
176
     1
 72
     2
176
     1
 73
     0
176
     1
 90
        0
176
     1
 40
-0.6
176
     1
 41
-30.0
176
     1
 62
     5
 63
     7
421
 16777215
176
     1
 74
     1
176
     1
 91
        4
176
     1
 64
     7
176
     1
 65
   257
176
     1
 75
     7
176
     1
175
     7
176
     1
 42
1.0
176
     1
 92
        8
176
     1
 66
     7
176
     1
 43
1.0
176
     1
 76
     1
176
     1
 77
     6
176
     1
 78
     2
176
     1
 67
     7
176
     1
 79
     5
176
     1
170
     0
176
     1
171
     0
176
     1
290
     0
176
     1
 93
        1
176
     1
 44
0.0
176
     1
173
     0
176
     1
  0
VISUALSTYLE
  5
33
102
{ACAD_REACTORS
330
2A
102
}
330
2A
100
AcDbVisualStyle
  2
Realistic
 70
     8
177
     2
291
     0
 71
     2
176
     1
 72
     2
176
     1
 73
     0
176
     1
 90
        0
176
     1
 40
-0.6
176
     1
 41
-30.0
176
     1
 62
     5
 63
     7
421
 16777215
176
     1
 74
     1
176
     1
 91
        0
176
     1
 64
     7
176
     1
 65
   257
176
     1
 75
     1
176
     1
175
     1
176
     1
 42
1.0
176
     1
 92
        8
176
     1
 66
     8
424
  7895160
176
     1
 43
1.0
176
     1
 76
     1
176
     1
 77
     6
176
     1
 78
     2
176
     1
 67
     7
176
     1
 79
     5
176
     1
170
     0
176
     1
171
     0
176
     1
290
     0
176
     1
 93
       13
176
     1
 44
0.0
176
     1
173
     0
176
     1
  0
VISUALSTYLE
  5
37
102
{ACAD_REACTORS
330
2A
102
}
330
2A
100
AcDbVisualStyle
  2
Thicken
 70
    13
177
     2
291
     1
 71
     2
176
     1
 72
     2
176
     1
 73
     0
176
     1
 90
        0
176
     1
 40
-0.6
176
     1
 41
-30.0
176
     1
 62
     5
 63
     7
421
 16777215
176
     1
 74
     1
176
     1
 91
        4
176
     1
 64
     7
176
     1
 65
   257
176
     1
 75
     1
176
     1
175
     1
176
     1
 42
1.0
176
     1
 92
       12
176
     1
 66
     7
176
     1
 43
1.0
176
     1
 76
     1
176
     1
 77
     6
176
     1
 78
     2
176
     1
 67
     7
176
     1
 79
     5
176
     1
170
     0
176
     1
171
     0
176
     1
290
     0
176
     1
 93
        1
176
     1
 44
0.0
176
     1
173
     0
176
     1
  0
ENDSEC
  0
EOF
