<?xml version="1.0" encoding="utf-8"?>
<!-- Generator: Adobe Illustrator 22.0.1, SVG Export Plug-In . SVG Version: 6.00 Build 0)  -->
<svg version="1.1" id="Layer_1" xmlns="http://www.w3.org/2000/svg" xmlns:xlink="http://www.w3.org/1999/xlink" x="0px" y="0px"
	 viewBox="0 0 2000 2000" style="enable-background:new 0 0 2000 2000;" xml:space="preserve">
<g>
	<g>
		<path d="M1025.7,1542.8c-18.1-0.6-29.1-9.6-40.3-19.8c-34.4-31.4-69.8-61.8-104.7-92.7c-18.6-16.5-37-33.2-55.5-49.8
			c-48-43-95.9-86.2-144.2-128.9c-44.8-39.6-90.1-78.5-135-118c-21.6-19-42.3-38.9-63.9-57.9c-34.9-30.8-70.4-61-105.4-91.7
			c-29.2-25.6-58-51.6-87.1-77.3c-48.3-42.6-96.7-85.2-145.1-127.8c-14.6-12.8-29.4-25.4-43.6-38.7c-15.6-14.5-14.9-25.6,2.3-38.1
			c67.9-49.1,136.3-97.6,204-147c52.6-38.4,104.5-77.9,156.9-116.6c14.3-10.6,29.3-20.4,44.4-29.9c4.3-2.7,10.1-3.8,15.3-3.8
			c52.1-0.4,104.2,0,156.3-0.5c69.2-0.6,138.4-2,207.6-2.7c33.4-0.3,66.9,0.2,100.3,0.1c148.6-0.6,297.2-1.4,445.8-2
			c11.7-0.1,23.4,0.7,35,0.2c16-0.7,28.4,2.6,40.5,15.8c13.4,14.6,32.1,24.2,48.6,35.9c52.7,37.1,105.1,74.5,158.2,111.1
			c53.7,37,108.1,73.1,162.1,109.7c9.6,6.5,18.9,13.6,28.4,20.4c17.4,12.4,16.8,36,2.3,48.2c-23.8,20-46.5,41.2-69.6,61.9
			c-22,19.7-43.8,39.6-65.7,59.4c-52.3,47.5-104.6,95.1-156.8,142.7c-18.4,16.7-36.6,33.7-55,50.4c-45.5,41.2-91.2,82.1-136.5,123.4
			c-33.8,30.8-67,62.4-100.8,93.2c-37.3,34-74.9,67.6-112.4,101.5c-9.8,8.9-19.4,18-29.1,27c-43.9,40.7-87.6,81.5-131.6,122.1
			C1043.4,1529.8,1034.4,1536,1025.7,1542.8z M1094.9,1314.3c1.9,0.5,3.9,1,5.8,1.5c3.5-5.6,7.8-10.8,10.2-16.8
			c21.4-54.2,42.5-108.5,63.7-162.7c37.3-95.5,74.6-191,112-286.4c12.5-31.8,25.3-63.5,38-95.2c3-7.4,5.9-14.7-1.8-21.5
			c-2.1-0.4-4.3-1.1-6.6-1.1c-93.3,0-186.7,0.1-280,0.3c-3.9,0-7.8-0.2-11.6,0.5c-10.4,1.8-14.3,7.4-12.9,17.9
			c5.6,41.5,11.1,83.1,17.1,124.5c7.3,49.9,15.2,99.7,22.5,149.6c5.3,36.1,9.9,72.3,15.1,108.4c5.7,39.9,11.7,79.8,17.8,119.7
			C1087.5,1273.3,1091.4,1293.8,1094.9,1314.3z M689.5,736.9c2,10.5,2.4,17.3,4.6,23.5c4.7,13.2,10.5,25.9,15.7,38.9
			c24.5,60.5,48.7,121.2,73.5,181.6c21.3,51.7,43.5,103.1,65.1,154.7c20.3,48.8,40.2,97.7,60.5,146.5c2.5,5.9,3.5,14.3,14.6,13.4
			c1-3.2,2.6-6.6,3.1-10.2c4.4-37,8.4-74,12.8-111c4.4-37,9.3-73.9,13.5-110.9c4.2-37,7.1-74.2,11.6-111.2
			c8.1-65.5,17-130.9,25.5-196.3c0.5-3.8,0.6-7.8,0.4-11.6c-0.5-7.3-4.6-11.3-11.8-12c-3.9-0.3-7.8-0.2-11.7-0.2
			c-60.7,0-121.4-0.6-182.1,0.1C754.7,732.5,724.6,735.1,689.5,736.9z M370.2,734.6c4.4,7.4,5.8,11.1,8.2,13.7
			c34.7,37.6,69,75.6,104.5,112.4c63,65.5,126.7,130.4,190.2,195.5c50.5,51.8,101.2,103.3,151.8,155c17.4,17.8,34.4,35.8,51.9,53.4
			c3.3,3.3,8,5.3,17.1,11c-4.3-12.8-6.3-20-9.2-27c-8.1-19.4-16.7-38.5-24.7-57.9c-16.5-40.2-32.3-80.8-49-120.9
			c-36.2-86.7-72.7-173.3-109.2-259.9c-7.8-18.6-16.4-36.9-24.1-55.6c-4.3-10.4-11.6-16.4-22.6-17.6c-17-1.9-34-4.7-51-4.8
			c-70.8-0.5-141.6-0.3-212.4-0.1C386,732,380.2,733.4,370.2,734.6z M1634.5,735.8c-9.9-7.1-20.6-4.7-30-3.6
			c-17.1,2-33.8,0.5-50.8,0.2c-64.5-1.1-129.1-0.4-193.7-0.7c-11.1-0.1-16.8,4.5-20.6,14.7c-14,37-28.7,73.8-43.2,110.6
			c-35.6,90.3-71.1,180.7-106.8,271c-19.1,48.4-38.7,96.6-57.7,145.1c-2.5,6.5-7,13.5-2.5,23.1c5.2-4.6,9.6-7.7,13-11.6
			c9.8-11.1,18.9-22.7,28.7-33.7c44.1-49.1,88.5-98,132.6-147.1c54.1-60,107.7-120.5,162.1-180.1c55.5-60.8,111.7-120.8,167.5-181.3
			C1634.1,741.5,1633.8,739.5,1634.5,735.8z M763.6,485.2c3.1,5,3.9,7.4,5.5,8.8c32.6,27.5,65.3,54.8,97.8,82.3
			c40.8,34.6,81.5,69.3,121.9,104.3c15.5,13.4,20.9,14.1,35.4,0.7c8.6-7.9,16.7-16.3,25.5-23.9c62.2-53.6,124.6-107,186.8-160.6
			c2.7-2.3,4.2-5.9,6.5-9.2c-8.9-9.4-20.1-10.3-30.3-13.2c-60.4-17.3-121-33.8-181.1-52c-21.5-6.5-42.6-7.7-64.2-3.3
			c-8.3,1.7-16.1,5.5-24.2,8c-54.8,16.8-109.7,33.5-164.5,50.4C774.1,479,769.8,482.1,763.6,485.2z M1012.7,1524c2,0.3,4,0.5,6,0.8
			c3.2-4.9,7.3-9.5,9.4-14.9c16.5-42.8,31.4-86.2,49.2-128.4c9.7-23,8.6-45.3,4.9-68.5c-0.9-5.4-2.3-10.6-3-16
			c-7.9-57.7-15.6-115.4-23.6-173.1c-9.3-66.1-18.9-132.2-28.4-198.3c-6-41.5-12-83-18.3-124.5c-0.6-4-3.3-7.7-6-13.5
			c-9,14.6-10.4,28.6-12,42.3c-4.3,36.2-7.9,72.5-12.5,108.7c-4.8,37.7-11,75.3-15.4,113c-5.5,47.8-8.6,95.9-18,143.2
			c-0.6,3-0.5,6.2-0.8,9.3c-4,35.5-7.5,71-12.3,106.4c-1.5,11.2-1,21.2,3.5,31.7c22.2,51.4,43.9,103,65.7,154.5
			C1005,1505.9,1008.9,1514.9,1012.7,1524z M1041.8,1507.1c1.2,0.9,2.3,1.9,3.5,2.8c4.5-2.9,9.4-5.2,13.3-8.7
			c21.3-19.3,42.4-38.8,63.5-58.3c37.7-34.7,75.6-69.3,113.1-104.2c8.5-7.9,16.6-16.5,23.3-25.8c17.1-24,33.6-48.4,50-73
			c34.4-51.7,68.6-103.6,102.8-155.5c54.4-82.3,108.7-164.7,163-247c5-7.5,9.4-15.3,9.9-25.3c-8.6,5.8-15.8,12.5-22.4,19.8
			c-49.1,55.1-98,110.4-147,165.5c-27.9,31.3-56.1,62.3-84,93.7c-43.9,49.3-87.6,98.8-131.3,148.2c-26.7,30.2-52.8,61.1-80.5,90.3
			c-11.5,12.2-20.3,25-26.2,40.5c-14.8,39.2-30.2,78.3-45.1,117.4C1045.3,1493.8,1043.8,1500.5,1041.8,1507.1z M455.2,848.5
			c-1.5,1-3,2.1-4.6,3.1c3.5,6.7,6.2,13.9,10.5,20c27.2,38.8,54.9,77.1,82,115.9c67.2,96,134,192.3,201.4,288.2
			c13.8,19.6,26.2,40.2,45.2,55.9c31.1,25.6,61.4,52.3,91.6,78.9c30.9,27.2,61.2,54.9,92,82.2c2.4,2.1,6.3,2.6,12.5,4.9
			c-2-8.1-2.6-13.3-4.5-18c-4.4-10.8-9.8-21.1-14.2-31.9c-14.5-35.2-28.5-70.6-43.4-105.5c-4.8-11.3-10.4-23-18.4-32
			c-18.5-20.9-38.7-40.2-58.1-60.2c-48.7-50.2-97.2-100.5-145.9-150.6c-70.9-73-142-145.9-213.1-218.7
			C477.5,869.6,466.3,859.2,455.2,848.5z M196.8,736.2c3.6,5.5,4.6,7.7,6.1,9.3c80.1,81.4,160.2,162.9,240.4,244.2
			c37.1,37.6,74.5,75,111.8,112.5c24.7,24.8,51.2,48,73.5,74.8c24,28.8,51.9,53.4,77.6,80.3c2.7,2.9,7,4.3,10.7,6.4
			c5.1-8.8-0.4-12.9-3.9-17.8c-25.1-35.5-50.3-70.9-75.1-106.6C563.8,1032.8,489.9,926.3,415.7,820c-17.3-24.8-35.6-49-53.2-73.6
			c-6.7-9.4-14.7-14.9-27.2-14.7c-40.4,0.5-80.9,0-121.3,0.3C209.1,732,204.2,734.3,196.8,736.2z M1809.3,736.8
			c-4.8-2.7-6.1-4.1-7.4-4.1c-42.8-0.3-85.6-0.6-128.3-0.5c-12.5,0-22.4,6.2-29.5,16.3c-12.1,17.1-24.5,34.1-35.8,51.8
			c-42,65.4-83.2,131.3-125.4,196.5c-51.9,80.3-104.5,160.1-156.7,240.2c-3.1,4.7-5.1,10.2-10.2,20.4c9.7-5.2,15.3-6.6,18.6-10.2
			c28.7-30.6,57-61.5,85.5-92.3c37.5-40.5,74.7-81.2,112.6-121.4c58.6-62.3,117.7-124.2,176.5-186.3c30.5-32.2,61-64.4,91.2-96.8
			C1803.8,746.8,1805.9,742,1809.3,736.8z M386.4,691.1c15.4-9.2,28.6-17.2,41.8-24.9c51.5-30.2,103.1-60.1,154.4-90.5
			c44.7-26.5,89.1-53.2,133.5-80.2c12.2-7.4,12.3-14.2,0.6-22.6c-20.8-14.8-42.9-28-62.8-44.1c-14-11.3-28.2-11.7-43.5-7.9
			c-12,3-23.4,7.9-35.2,11.8c-34.6,11.4-69.3,22.5-103.8,34.1c-14.7,4.9-29.2,10.4-43.6,16.2c-10.1,4-15.1,11.6-17,22.9
			c-8.1,49.7-17.2,99.2-25.5,148.9C383.4,665.7,379.4,677.2,386.4,691.1z M1274.4,480c4.3,4.5,7,8.4,10.6,10.8
			c35.8,24.4,331.5,188.4,347.5,192.8c4.3-12.9,4.4-13,1.4-24c-5.5-20.3-11.4-40.4-16.5-60.7c-7.7-30.8-15.1-61.8-22.3-92.8
			c-4.5-19.4-18-28-36-31.6c-6.8-1.4-13.9-1.7-20.5-3.7c-27.5-8.2-54.8-16.9-82.2-25.2c-28.2-8.5-56.6-16.5-84.7-25.3
			c-8.5-2.7-14.7-0.2-21.5,4.7C1325.8,443,1301.2,460.5,1274.4,480z M748.1,494.9c-13.6,24-15.7,47.6-23.6,69.1
			c-8.3,22.6-15,45.7-22,68.8c-6.6,21.9-12.7,44-18.7,65.3c10.6,9.2,21.2,10.7,32.3,10.7c79.4-0.1,158.7,0,238.1-0.4
			c7.5,0,15.3-2.1,22.5-4.7c5.1-1.8,5.7-7.2,2.7-11.7c-1.6-2.5-4.4-4.3-6.7-6.3c-29.5-25.3-59-50.5-88.4-75.9
			c-35.9-31-71.6-62.1-107.5-93C768.7,509.8,759.8,503.8,748.1,494.9z M1258.2,504.6c-8.6-4-13.9,0.2-19.3,5.2
			c-16,14.6-32.1,29.3-48.5,43.5c-28.8,24.9-58,49.3-86.7,74.2c-23.5,20.3-46.6,41-69.7,61.8c-2.5,2.3-5.5,7.2-4.6,9.4
			c1.4,3.7,5.4,7.7,9.1,8.8c5.8,1.6,12.3,1.1,18.5,1.1c77.7,0,155.5-0.1,233.2-0.1c6.2,0,12.5,0.1,18.7-0.3
			c17.7-1,22.6-7.6,17.3-23.8c-3.6-11-7.8-21.9-11.9-32.8C1295.7,603,1277.2,554.5,1258.2,504.6z M1625.4,699.2
			c-3.2-3.2-6.3-7.6-10.5-10c-88.9-49.3-177.9-98.3-266.9-147.5c-6.8-3.7-13.3-8-19.9-12c-15.2-9.4-30.2-19-45.5-28
			c-2.7-1.6-6.7-0.9-11.5-1.4c0.7,5.1,0.5,8.3,1.5,11c21.5,56.6,43,113.2,64.6,169.7c8.4,22,15.5,27.1,40.3,27.3
			c38.1,0.3,76.1,0,114.2,0c36.5,0,73,0.1,109.6-0.2C1609.5,708,1619,710.8,1625.4,699.2z M728.5,502.9c-6.6,2.5-10.9,3.5-14.6,5.7
			c-22.1,13-43.9,26.4-66,39.3c-59.7,34.9-119.5,69.5-179.1,104.3c-20.8,12.1-41.4,24.6-61.9,37.2c-6.2,3.8-14.1,7-12.5,17.8
			c3.3,0.7,6.3,1.8,9.2,1.8c81.7,0,163.4,0,245.1-0.3c16.9-0.1,20.5-3.3,25.9-20.9c17.5-56.4,34.8-112.9,52.1-169.4
			C728,514.3,727.8,509.8,728.5,502.9z M199.4,707c8.6,1.1,12.3,1.9,16.1,1.9c42,0,84,0.1,126-0.1c20.5-0.1,24.1-3.1,27.5-23.2
			c3-17.6,5.4-35.3,8.4-52.9c6.4-37.4,13.2-74.8,19.3-112.3c0.5-3.4-3-7.4-5.5-13.3c-12.3,10.8-23.4,19.3-33.1,29.2
			c-45.1,46.1-89.8,92.6-134.7,138.9c-4.3,4.5-9.2,8.5-13,13.4C206.8,693.3,204.3,698.7,199.4,707z M1609.1,510.4
			c0.6,5.7,0.5,10.1,1.6,14.2c4.6,17.2,9.9,34.3,14.2,51.6c9.2,36.9,18.4,73.7,26.6,110.8c3.1,13.9,11.5,19.3,24.2,20.9
			c3.1,0.4,6.2,0.2,9.3,0.2c37.7-0.6,75.4-2.2,113.1-0.9c3.1,0.1,6.3-3.4,11.3-6.3c-4.7-5.9-8-10.9-12.1-15.1
			c-55-54.8-110.1-109.5-165.3-164.2C1626.6,516.3,1621.7,509.9,1609.1,510.4z M541.7,1105.9c-3.4-4.6-6.2-9.8-10.1-13.8
			c-23.3-23.9-46.8-47.5-70.2-71.3c-49.1-49.8-98-99.7-147.2-149.4c-31.1-31.5-62.3-62.9-93.7-94.1c-12.7-12.6-25.8-24.8-39.4-36.3
			c-13.6-11.5-40.2-12.7-61.3-1.9C260.9,862.2,398.9,986.3,541.7,1105.9z M1894.9,729.9c-18.6,0.8-31.7,0.8-44.6,2.3
			c-6.6,0.8-13.9,2.8-19,6.8c-12.2,9.6-23.8,20-34.6,31.2c-42.5,44.3-84.4,89.1-126.7,133.6c-46.1,48.4-92.4,96.6-138.4,145.1
			c-15.1,15.9-29.4,32.5-44,48.8c4.2,1.2,6.5,0.7,8.1-0.7c29.1-25.7,58.4-51.1,87.1-77.3c29.3-26.7,57.7-54.4,87-81
			c39.1-35.5,78.8-70.3,118.1-105.5c31.8-28.5,63.6-57,95-85.9C1887.2,743.4,1889.6,737.7,1894.9,729.9z M1081,421.7
			c2.5,2,4.4,4.8,7,5.5c9.7,2.7,19.7,4.5,29.4,7.1c45.6,12,91.3,23.8,136.8,36.3c8.3,2.3,14.9,1.8,21.7-3.3
			c16.8-12.4,34.1-24.3,50.8-36.9c3.8-2.9,6.2-7.7,11-13.9c-8.2-1.1-13.4-2.4-18.5-2.4c-20.2-0.1-40.4,0.2-60.5,0.2
			c-52,0.2-104,0.3-156,0.6C1095.3,414.9,1086.9,412.6,1081,421.7z M672.6,422.2c2.9,4.5,3.6,7,5.3,8.3
			c18.8,13.6,37.9,26.9,56.8,40.3c7.8,5.6,15.2,4.1,24,1.3c38.3-12,77.1-22.6,115.5-34.4c13.5-4.1,28.5-5.2,41.1-16.4
			c-4.4-2.1-7.1-4.6-9.8-4.6c-74.3,0.3-148.7,0.9-223,1.6C679.9,418.3,677.2,420.3,672.6,422.2z M1714.3,577.1
			c-1.3,1.6-2.7,3.2-4,4.7c3.1,4.2,5.8,8.8,9.4,12.4c20.4,20.1,41.2,39.7,61.6,59.9c13.2,13,25.6,26.9,38.8,39.9
			c4.8,4.8,10.5,10.6,16.6,11.9c16.4,3.3,33.2,3.9,50-0.4c-0.2-3.5,0.5-6.8-0.7-7.8c-44.3-38.8-96.5-66.7-142.9-102.6
			C1734.3,588,1724,583,1714.3,577.1z M136.2,705.1c18.1,8.2,33,4.2,45.8-7.2c15.5-13.8,30-28.8,44.9-43.4
			c16.5-16.2,33.1-32.5,49.3-49c3-3,4.7-7.2,9.6-14.7c-8.2,3.4-12.8,4.3-16.2,6.8c-43,32.7-85.9,65.7-128.6,98.8
			C138.9,698.1,138.2,701.5,136.2,705.1z M1530.8,454.6c0.2-1.7,0.4-3.4,0.7-5c-26.9-17.6-50.2-43.5-88.1-36.2
			c-4.3,0.8-9.3-2.5-13.6-1.7c-3.3,0.6-6,4.5-11.8,9.3c37.1,12.6,70.6,24.1,104.3,35.2C1524.6,456.9,1527.9,455.2,1530.8,454.6z
			 M472.1,452.4c18.6,2.5,74.4-18.7,85.4-31.7C522.5,412.9,494.4,422.7,472.1,452.4z"/>
	</g>
</g>
</svg>
