  0
SECTION
  2
HEADER
  9
$ACADVER
  1
AC1024
  9
$ACADMAINTVER
 70
     6
  9
$DWGCODEPAGE
  3
ANSI_1252
  9
$INSBASE
 10
0.0
 20
0.0
 30
0.0
  9
$EXTMIN
 10
1.000000000000000E+20
 20
1.000000000000000E+20
 30
1.000000000000000E+20
  9
$EXTMAX
 10
-1.000000000000000E+20
 20
-1.000000000000000E+20
 30
-1.000000000000000E+20
  9
$LIMMIN
 10
0.0
 20
0.0
  9
$LIMMAX
 10
12.0
 20
9.0
  9
$ORTHOMODE
 70
     0
  9
$REGENMODE
 70
     1
  9
$FILLMODE
 70
     1
  9
$QTEXTMODE
 70
     0
  9
$MIRRTEXT
 70
     1
  9
$LTSCALE
 40
1.0
  9
$ATTMODE
 70
     1
  9
$TEXTSIZE
 40
0.2
  9
$TRACEWID
 40
0.05
  9
$TEXTSTYLE
  7
Standard
  9
$CLAYER
  8
0
  9
$CELTYPE
  6
ByLayer
  9
$CECOLOR
 62
   256
  9
$CELTSCALE
 40
1.0
  9
$DISPSILH
 70
     0
  9
$DIMSCALE
 40
1.0
  9
$DIMASZ
 40
0.18
  9
$DIMEXO
 40
0.0625
  9
$DIMDLI
 40
0.38
  9
$DIMRND
 40
0.0
  9
$DIMDLE
 40
0.0
  9
$DIMEXE
 40
0.18
  9
$DIMTP
 40
0.0
  9
$DIMTM
 40
0.0
  9
$DIMTXT
 40
0.18
  9
$DIMCEN
 40
0.09
  9
$DIMTSZ
 40
0.0
  9
$DIMTOL
 70
     0
  9
$DIMLIM
 70
     0
  9
$DIMTIH
 70
     1
  9
$DIMTOH
 70
     1
  9
$DIMSE1
 70
     0
  9
$DIMSE2
 70
     0
  9
$DIMTAD
 70
     0
  9
$DIMZIN
 70
     0
  9
$DIMBLK
  1

  9
$DIMASO
 70
     1
  9
$DIMSHO
 70
     1
  9
$DIMPOST
  1

  9
$DIMAPOST
  1

  9
$DIMALT
 70
     0
  9
$DIMALTD
 70
     2
  9
$DIMALTF
 40
25.4
  9
$DIMLFAC
 40
1.0
  9
$DIMTOFL
 70
     0
  9
$DIMTVP
 40
0.0
  9
$DIMTIX
 70
     0
  9
$DIMSOXD
 70
     0
  9
$DIMSAH
 70
     0
  9
$DIMBLK1
  1

  9
$DIMBLK2
  1

  9
$DIMSTYLE
  2
Standard
  9
$DIMCLRD
 70
     0
  9
$DIMCLRE
 70
     0
  9
$DIMCLRT
 70
     0
  9
$DIMTFAC
 40
1.0
  9
$DIMGAP
 40
0.09
  9
$DIMJUST
 70
     0
  9
$DIMSD1
 70
     0
  9
$DIMSD2
 70
     0
  9
$DIMTOLJ
 70
     1
  9
$DIMTZIN
 70
     0
  9
$DIMALTZ
 70
     0
  9
$DIMALTTZ
 70
     0
  9
$DIMUPT
 70
     0
  9
$DIMDEC
 70
     4
  9
$DIMTDEC
 70
     4
  9
$DIMALTU
 70
     2
  9
$DIMALTTD
 70
     2
  9
$DIMTXSTY
  7
Standard
  9
$DIMAUNIT
 70
     0
  9
$DIMADEC
 70
     0
  9
$DIMALTRND
 40
0.0
  9
$DIMAZIN
 70
     0
  9
$DIMDSEP
 70
    46
  9
$DIMATFIT
 70
     3
  9
$DIMFRAC
 70
     0
  9
$DIMLDRBLK
  1

  9
$DIMLUNIT
 70
     2
  9
$DIMLWD
 70
    -2
  9
$DIMLWE
 70
    -2
  9
$DIMTMOVE
 70
     0
  9
$DIMFXL
 40
1.0
  9
$DIMFXLON
 70
     0
  9
$DIMJOGANG
 40
0.7853981633974483
  9
$DIMTFILL
 70
     0
  9
$DIMTFILLCLR
 70
     0
  9
$DIMARCSYM
 70
     0
  9
$DIMLTYPE
  6

  9
$DIMLTEX1
  6

  9
$DIMLTEX2
  6

  9
$DIMTXTDIRECTION
 70
     0
  9
$LUNITS
 70
     2
  9
$LUPREC
 70
     4
  9
$SKETCHINC
 40
0.1
  9
$FILLETRAD
 40
0.5
  9
$AUNITS
 70
     0
  9
$AUPREC
 70
     0
  9
$MENU
  1
.
  9
$ELEVATION
 40
0.0
  9
$PELEVATION
 40
0.0
  9
$THICKNESS
 40
0.0
  9
$LIMCHECK
 70
     0
  9
$CHAMFERA
 40
0.5
  9
$CHAMFERB
 40
0.5
  9
$CHAMFERC
 40
1.0
  9
$CHAMFERD
 40
0.0
  9
$SKPOLY
 70
     0
  9
$TDCREATE
 40
2458128.826693981
  9
$TDUCREATE
 40
2458129.035027315
  9
$TDUPDATE
 40
2458128.826694039
  9
$TDUUPDATE
 40
2458129.035027373
  9
$TDINDWG
 40
0.0000000116
  9
$TDUSRTIMER
 40
0.0000000116
  9
$USRTIMER
 70
     1
  9
$ANGBASE
 50
0.0
  9
$ANGDIR
 70
     0
  9
$PDMODE
 70
     0
  9
$PDSIZE
 40
0.0
  9
$PLINEWID
 40
0.0
  9
$SPLFRAME
 70
     0
  9
$SPLINETYPE
 70
     6
  9
$SPLINESEGS
 70
     8
  9
$HANDSEED
  5
67
  9
$SURFTAB1
 70
     6
  9
$SURFTAB2
 70
     6
  9
$SURFTYPE
 70
     6
  9
$SURFU
 70
     6
  9
$SURFV
 70
     6
  9
$UCSBASE
  2

  9
$UCSNAME
  2

  9
$UCSORG
 10
0.0
 20
0.0
 30
0.0
  9
$UCSXDIR
 10
1.0
 20
0.0
 30
0.0
  9
$UCSYDIR
 10
0.0
 20
1.0
 30
0.0
  9
$UCSORTHOREF
  2

  9
$UCSORTHOVIEW
 70
     0
  9
$UCSORGTOP
 10
0.0
 20
0.0
 30
0.0
  9
$UCSORGBOTTOM
 10
0.0
 20
0.0
 30
0.0
  9
$UCSORGLEFT
 10
0.0
 20
0.0
 30
0.0
  9
$UCSORGRIGHT
 10
0.0
 20
0.0
 30
0.0
  9
$UCSORGFRONT
 10
0.0
 20
0.0
 30
0.0
  9
$UCSORGBACK
 10
0.0
 20
0.0
 30
0.0
  9
$PUCSBASE
  2

  9
$PUCSNAME
  2

  9
$PUCSORG
 10
0.0
 20
0.0
 30
0.0
  9
$PUCSXDIR
 10
1.0
 20
0.0
 30
0.0
  9
$PUCSYDIR
 10
0.0
 20
1.0
 30
0.0
  9
$PUCSORTHOREF
  2

  9
$PUCSORTHOVIEW
 70
     0
  9
$PUCSORGTOP
 10
0.0
 20
0.0
 30
0.0
  9
$PUCSORGBOTTOM
 10
0.0
 20
0.0
 30
0.0
  9
$PUCSORGLEFT
 10
0.0
 20
0.0
 30
0.0
  9
$PUCSORGRIGHT
 10
0.0
 20
0.0
 30
0.0
  9
$PUCSORGFRONT
 10
0.0
 20
0.0
 30
0.0
  9
$PUCSORGBACK
 10
0.0
 20
0.0
 30
0.0
  9
$USERI1
 70
     0
  9
$USERI2
 70
     0
  9
$USERI3
 70
     0
  9
$USERI4
 70
     0
  9
$USERI5
 70
     0
  9
$USERR1
 40
0.0
  9
$USERR2
 40
0.0
  9
$USERR3
 40
0.0
  9
$USERR4
 40
0.0
  9
$USERR5
 40
0.0
  9
$WORLDVIEW
 70
     1
  9
$SHADEDGE
 70
     3
  9
$SHADEDIF
 70
    70
  9
$TILEMODE
 70
     1
  9
$MAXACTVP
 70
    64
  9
$PINSBASE
 10
0.0
 20
0.0
 30
0.0
  9
$PLIMCHECK
 70
     0
  9
$PEXTMIN
 10
1.000000000000000E+20
 20
1.000000000000000E+20
 30
1.000000000000000E+20
  9
$PEXTMAX
 10
-1.000000000000000E+20
 20
-1.000000000000000E+20
 30
-1.000000000000000E+20
  9
$PLIMMIN
 10
0.0
 20
0.0
  9
$PLIMMAX
 10
12.0
 20
9.0
  9
$UNITMODE
 70
     0
  9
$VISRETAIN
 70
     1
  9
$PLINEGEN
 70
     0
  9
$PSLTSCALE
 70
     1
  9
$TREEDEPTH
 70
  3020
  9
$CMLSTYLE
  2
Standard
  9
$CMLJUST
 70
     0
  9
$CMLSCALE
 40
1.0
  9
$PROXYGRAPHICS
 70
     1
  9
$MEASUREMENT
 70
     0
  9
$CELWEIGHT
370
    -1
  9
$ENDCAPS
280
     0
  9
$JOINSTYLE
280
     0
  9
$LWDISPLAY
290
     1
  9
$INSUNITS
 70
     1
  9
$HYPERLINKBASE
  1

  9
$STYLESHEET
  1

  9
$XEDIT
290
     1
  9
$CEPSNTYPE
380
     0
  9
$PSTYLEMODE
290
     1
  9
$FINGERPRINTGUID
  2
{C052149B-A408-4264-950E-6DE53D021025}
  9
$VERSIONGUID
  2
{FAEB1C32-E019-11D5-929B-00C0DF256EC4}
  9
$EXTNAMES
290
     1
  9
$PSVPSCALE
 40
0.0
  9
$OLESTARTUP
290
     0
  9
$SORTENTS
280
   127
  9
$INDEXCTL
280
     0
  9
$HIDETEXT
280
     1
  9
$XCLIPFRAME
280
     2
  9
$HALOGAP
280
     0
  9
$OBSCOLOR
 70
   257
  9
$OBSLTYPE
280
     0
  9
$INTERSECTIONDISPLAY
280
     0
  9
$INTERSECTIONCOLOR
 70
   257
  9
$DIMASSOC
280
     2
  9
$PROJECTNAME
  1

  9
$CAMERADISPLAY
290
     0
  9
$LENSLENGTH
 40
50.0
  9
$CAMERAHEIGHT
 40
0.0
  9
$STEPSPERSEC
 40
2.0
  9
$STEPSIZE
 40
6.0
  9
$3DDWFPREC
 40
2.0
  9
$PSOLWIDTH
 40
0.25
  9
$PSOLHEIGHT
 40
4.0
  9
$LOFTANG1
 40
1.570796326794897
  9
$LOFTANG2
 40
1.570796326794897
  9
$LOFTMAG1
 40
0.0
  9
$LOFTMAG2
 40
0.0
  9
$LOFTPARAM
 70
     7
  9
$LOFTNORMALS
280
     1
  9
$LATITUDE
 40
37.795
  9
$LONGITUDE
 40
-122.394
  9
$NORTHDIRECTION
 40
0.0
  9
$TIMEZONE
 70
 -8000
  9
$LIGHTGLYPHDISPLAY
280
     1
  9
$TILEMODELIGHTSYNCH
280
     1
  9
$CMATERIAL
347
3C
  9
$SOLIDHIST
280
     1
  9
$SHOWHIST
280
     1
  9
$DWFFRAME
280
     2
  9
$DGNFRAME
280
     2
  9
$REALWORLDSCALE
290
     1
  9
$INTERFERECOLOR
 62
   256
  9
$CSHADOW
280
     0
  9
$SHADOWPLANELOCATION
 40
0.0
  0
ENDSEC
  0
SECTION
  2
CLASSES
  0
CLASS
  1
ACDBDICTIONARYWDFLT
  2
AcDbDictionaryWithDefault
  3
ObjectDBX Classes
 90
        0
 91
        4
280
     0
281
     0
  0
CLASS
  1
VISUALSTYLE
  2
AcDbVisualStyle
  3
ObjectDBX Classes
 90
     4095
 91
        4
280
     0
281
     0
  0
CLASS
  1
MATERIAL
  2
AcDbMaterial
  3
ObjectDBX Classes
 90
     1153
 91
        4
280
     0
281
     0
  0
CLASS
  1
SUN
  2
AcDbSun
  3
SCENEOE
 90
     1024
 91
        4
280
     0
281
     0
  0
ENDSEC
  0
SECTION
  2
TABLES
  0
TABLE
  2
VPORT
  5
8
330
0
100
AcDbSymbolTable
 70
     1
  0
VPORT
  5
29
330
8
100
AcDbSymbolTableRecord
100
AcDbViewportTableRecord
  2
*Active
 70
     0
 10
0.0
 20
0.0
 11
1.0
 21
1.0
 12
0.0
 22
0.0
 13
0.0
 23
0.0
 14
0.5
 24
0.5
 15
0.5
 25
0.5
 16
0.0
 26
0.0
 36
1.0
 17
1000.0
 27
-1000.0
 37
0.0
 40
2000.0
 41
1.0
 42
50.0
 43
0.0
 44
0.0
 50
0.0
 51
0.0
 71
     0
 72
   100
 73
     1
 74
     3
 75
     0
 76
     0
 77
     0
 78
     0
281
     0
 65
     1
110
0.0
120
0.0
130
0.0
111
1.0
121
0.0
131
0.0
112
0.0
122
1.0
132
0.0
 79
     0
146
0.0
 60
     3
 61
     5
292
     1
282
     1
141
0.0
142
0.0
 63
   250
361
3F
  0
ENDTAB
  0
TABLE
  2
LTYPE
  5
5
330
0
100
AcDbSymbolTable
 70
     1
  0
LTYPE
  5
14
330
5
100
AcDbSymbolTableRecord
100
AcDbLinetypeTableRecord
  2
ByBlock
 70
     0
  3

 72
    65
 73
     0
 40
0.0
  0
LTYPE
  5
15
330
5
100
AcDbSymbolTableRecord
100
AcDbLinetypeTableRecord
  2
ByLayer
 70
     0
  3

 72
    65
 73
     0
 40
0.0
  0
LTYPE
  5
16
330
5
100
AcDbSymbolTableRecord
100
AcDbLinetypeTableRecord
  2
Continuous
 70
     0
  3
Solid line
 72
    65
 73
     0
 40
0.0
  0
ENDTAB
  0
TABLE
  2
LAYER
  5
2
330
0
100
AcDbSymbolTable
 70
     2
  0
LAYER
  5
10
330
2
100
AcDbSymbolTableRecord
100
AcDbLayerTableRecord
  2
0
 70
     0
 62
     7
  6
Continuous
370
    -3
390
F
347
3E
  0
LAYER
  5
40
330
2
100
AcDbSymbolTableRecord
100
AcDbLayerTableRecord
  2
Layer 1
 70
     0
 62
     7
  6
Continuous
370
    -3
390
F
347
3E
  0
ENDTAB
  0
TABLE
  2
STYLE
  5
3
330
0
100
AcDbSymbolTable
 70
     1
  0
STYLE
  5
11
330
3
100
AcDbSymbolTableRecord
100
AcDbTextStyleTableRecord
  2
Standard
 70
     0
 40
0.0
 41
1.0
 50
0.0
 71
     0
 42
0.2
  3
txt
  4

  0
ENDTAB
  0
TABLE
  2
VIEW
  5
6
330
0
100
AcDbSymbolTable
 70
     0
  0
ENDTAB
  0
TABLE
  2
UCS
  5
7
330
0
100
AcDbSymbolTable
 70
     0
  0
ENDTAB
  0
TABLE
  2
APPID
  5
9
330
0
100
AcDbSymbolTable
 70
     1
  0
APPID
  5
12
330
9
100
AcDbSymbolTableRecord
100
AcDbRegAppTableRecord
  2
ACAD
 70
     0
  0
ENDTAB
  0
TABLE
  2
DIMSTYLE
  5
A
330
0
100
AcDbSymbolTable
 70
     1
100
AcDbDimStyleTable
  0
DIMSTYLE
105
27
330
A
100
AcDbSymbolTableRecord
100
AcDbDimStyleTableRecord
  2
Standard
 70
     0
178
     0
340
11
  0
ENDTAB
  0
TABLE
  2
BLOCK_RECORD
  5
1
330
0
100
AcDbSymbolTable
 70
     3
  0
BLOCK_RECORD
  5
1F
330
1
100
AcDbSymbolTableRecord
100
AcDbBlockTableRecord
  2
*Model_Space
340
22
 70
     0
280
     1
281
     0
  0
BLOCK_RECORD
  5
1B
330
1
100
AcDbSymbolTableRecord
100
AcDbBlockTableRecord
  2
*Paper_Space
340
1E
 70
     0
280
     1
281
     0
  0
BLOCK_RECORD
  5
23
330
1
100
AcDbSymbolTableRecord
100
AcDbBlockTableRecord
  2
*Paper_Space0
340
26
 70
     0
280
     1
281
     0
  0
BLOCK_RECORD
  5
41
330
1
100
AcDbSymbolTableRecord
100
AcDbBlockTableRecord
  2
block 2
340
0
102
{BLKREFS
331
42
102
}
 70
     0
280
     1
281
     0
  0
BLOCK_RECORD
  5
45
330
1
100
AcDbSymbolTableRecord
100
AcDbBlockTableRecord
  2
block 3
340
0
102
{BLKREFS
331
46
102
}
 70
     0
280
     1
281
     0
  0
ENDTAB
  0
ENDSEC
  0
SECTION
  2
BLOCKS
  0
BLOCK
  5
20
330
1F
100
AcDbEntity
  8
0
100
AcDbBlockBegin
  2
*Model_Space
 70
     0
 10
0.0
 20
0.0
 30
0.0
  3
*Model_Space
  1

  0
ENDBLK
  5
21
330
1F
100
AcDbEntity
  8
0
100
AcDbBlockEnd
  0
BLOCK
  5
1C
330
1B
100
AcDbEntity
 67
     1
  8
0
100
AcDbBlockBegin
  2
*Paper_Space
 70
     0
 10
0.0
 20
0.0
 30
0.0
  3
*Paper_Space
  1

  0
ENDBLK
  5
1D
330
1B
100
AcDbEntity
 67
     1
  8
0
100
AcDbBlockEnd
  0
BLOCK
  5
24
330
23
100
AcDbEntity
  8
0
100
AcDbBlockBegin
  2
*Paper_Space0
 70
     0
 10
0.0
 20
0.0
 30
0.0
  3
*Paper_Space0
  1

  0
ENDBLK
  5
25
330
23
100
AcDbEntity
  8
0
100
AcDbBlockEnd
  0
BLOCK
  5
43
330
41
100
AcDbEntity
  8
0
100
AcDbBlockBegin
  2
block 2
 70
     0
 10
0.0
 20
0.0
 30
0.0
  3
block 2
  1

  0
INSERT
  5
46
330
41
100
AcDbEntity
  8
Layer 1
100
AcDbBlockReference
  2
block 3
 10
0.0
 20
0.0
 30
0.0
  0
ENDBLK
  5
44
330
41
100
AcDbEntity
  8
0
100
AcDbBlockEnd
  0
BLOCK
  5
47
330
45
100
AcDbEntity
  8
0
100
AcDbBlockBegin
  2
block 3
 70
     0
 10
0.0
 20
0.0
 30
0.0
  3
block 3
  1

  0
SPLINE
  5
49
330
45
100
AcDbEntity
  8
Layer 1
370
     0
100
AcDbSpline
210
0.0
220
0.0
230
1.0
 70
    11
 71
     3
 72
   113
 73
   109
 74
     0
 42
0.0000000001
 43
0.0000000001
 12
1.0
 22
0.0
 32
0.0
 13
1.0
 23
0.0
 33
0.0
 40
0.0
 40
0.0
 40
0.0
 40
0.0
 40
1.0
 40
1.0
 40
1.0
 40
2.0
 40
2.0
 40
2.0
 40
3.0
 40
3.0
 40
3.0
 40
4.0
 40
4.0
 40
4.0
 40
5.0
 40
5.0
 40
5.0
 40
6.0
 40
6.0
 40
6.0
 40
7.0
 40
7.0
 40
7.0
 40
8.0
 40
8.0
 40
8.0
 40
9.0
 40
9.0
 40
9.0
 40
10.0
 40
10.0
 40
10.0
 40
11.0
 40
11.0
 40
11.0
 40
12.0
 40
12.0
 40
12.0
 40
13.0
 40
13.0
 40
13.0
 40
14.0
 40
14.0
 40
14.0
 40
15.0
 40
15.0
 40
15.0
 40
16.0
 40
16.0
 40
16.0
 40
17.0
 40
17.0
 40
17.0
 40
18.0
 40
18.0
 40
18.0
 40
19.0
 40
19.0
 40
19.0
 40
20.0
 40
20.0
 40
20.0
 40
21.0
 40
21.0
 40
21.0
 40
22.0
 40
22.0
 40
22.0
 40
23.0
 40
23.0
 40
23.0
 40
24.0
 40
24.0
 40
24.0
 40
25.0
 40
25.0
 40
25.0
 40
26.0
 40
26.0
 40
26.0
 40
27.0
 40
27.0
 40
27.0
 40
28.0
 40
28.0
 40
28.0
 40
29.0
 40
29.0
 40
29.0
 40
30.0
 40
30.0
 40
30.0
 40
31.0
 40
31.0
 40
31.0
 40
32.0
 40
32.0
 40
32.0
 40
33.0
 40
33.0
 40
33.0
 40
34.0
 40
34.0
 40
34.0
 40
35.0
 40
35.0
 40
35.0
 40
36.0
 40
36.0
 40
36.0
 40
36.0
 10
1025.743498051832
 20
-1542.801720633724
 30
0.0
 10
1007.594034417632
 20
-1542.172287064761
 30
0.0
 10
996.6488167235093
 20
-1533.248268708361
 30
0.0
 10
985.402670923223
 20
-1522.970964615721
 30
0.0
 10
951.0023769630388
 20
-1491.533846937462
 30
0.0
 10
915.5991793404983
 20
-1461.196189299453
 30
0.0
 10
880.6973622898158
 20
-1430.305345564326
 30
0.0
 10
862.0849981162755
 20
-1413.831829864968
 30
0.0
 10
843.7317328283625
 20
-1397.066150955743
 30
0.0
 10
825.2095829532836
 20
-1380.490378132932
 30
0.0
 10
777.1701127260467
 20
-1337.498633060359
 30
0.0
 10
729.2880543355404
 20
-1294.328525911129
 30
0.0
 10
680.9908391497465
 20
-1251.628017677269
 30
0.0
 10
636.2186443503133
 20
-1212.043964521534
 30
0.0
 10
590.8669331352121
 20
-1173.115782142291
 30
0.0
 10
546.0167806402678
 20
-1133.619092912239
 30
0.0
 10
524.449221228585
 20
-1114.625918935399
 30
0.0
 10
503.7008945833004
 20
-1094.70266832071
 30
0.0
 10
482.1356867291597
 20
-1075.706786489729
 30
0.0
 10
447.1923254952217
 20
-1044.926608477754
 30
0.0
 10
411.772381932602
 20
-1014.688072553141
 30
0.0
 10
376.7599704180875
 20
-983.9855315697387
 30
0.0
 10
347.5711198990721
 20
-958.3898253465068
 30
0.0
 10
318.7438391670967
 20
-932.382240256683
 30
0.0
 10
289.6397872382613
 20
-906.6891581733826
 30
0.0
 10
241.3312061910101
 20
-864.0424507257303
 30
0.0
 10
192.9224968924736
 20
-821.50918811469
 30
0.0
 10
144.5701982527216
 20
-778.9119346347561
 30
0.0
 10
130.0003708195563
 20
-766.0762784541566
 30
0.0
 10
115.21904795303
 20
-753.4652672782167
 30
0.0
 10
101.0030052262518
 20
-740.2475898858866
 30
0.0
 10
85.4496221493946
 20
-725.7864373686361
 30
0.0
 10
86.11278809871783
 20
-714.6277980126715
 30
0.0
 10
103.3362624850979
 20
-702.1842462375089
 30
0.0
 10
171.2698004088425
 20
-653.1038198713122
 30
0.0
 10
239.6029539156689
 20
-604.5733373032017
 30
0.0
 10
307.3126507289517
 20
-555.1873153454162
 30
0.0
 10
359.9573257368829
 20
-516.7894537291559
 30
0.0
 10
411.795006766537
 20
-477.2869390497362
 30
0.0
 10
464.2167469934766
 20
-438.5806181079852
 30
0.0
 10
478.5572218531888
 20
-427.992144608862
 30
0.0
 10
493.5000873701219
 20
-418.1676445007333
 30
0.0
 10
508.6239515585339
 20
-408.7252557919119
 30
0.0
 10
512.8876816802822
 20
-406.0632581371956
 30
0.0
 10
518.7667180559965
 20
-404.9429603131302
 30
0.0
 10
523.9169853713911
 20
-404.9081590429787
 30
0.0
 10
576.0313128940952
 20
-404.5560121875133
 30
0.0
 10
628.1509136064406
 20
-404.8855308687635
 30
0.0
 10
680.2635665351363
 20
-404.4155110780366
 30
0.0
 10
749.452232709391
 20
-403.7914765159503
 30
0.0
 10
818.6343430262532
 20
-402.4654285411552
 30
0.0
 10
887.8225816445911
 20
-401.760656056671
 30
0.0
 10
921.259520864729
 20
-401.4200565512419
 30
0.0
 10
954.7046549066072
 20
-401.9803117955407
 30
0.0
 10
988.1448007961217
 20
-401.8383309417577
 30
0.0
 10
1136.731170809209
 20
-401.2074610521358
 30
0.0
 10
1285.317042007058
 20
-400.4596735475034
 30
0.0
 10
1433.903269501507
 20
-399.7912087997211
 30
0.0
 10
1445.571840547667
 20
-399.7387123930885
 30
0.0
 10
1457.264354725174
 20
-400.4741369625044
 30
0.0
 10
1468.905277155378
 20
-399.9479275282274
 30
0.0
 10
1484.922519432106
 20
-399.2239038932148
 30
0.0
 10
1497.276177575746
 20
-402.516348892058
 30
0.0
 10
1509.41277983225
 20
-415.7485910212336
 30
0.0
 10
1522.769626675523
 20
-430.3113125641339
 30
0.0
 10
1541.497430946622
 20
-439.9828278207542
 30
0.0
 10
1558.00764519551
 20
-451.6115960832785
 30
0.0
 10
1610.679826300762
 20
-488.7107966853891
 30
0.0
 10
1663.13865700349
 20
-526.1214227821629
 30
0.0
 10
1716.191220356122
 20
-562.6695617056139
 30
0.0
 10
1769.908348122224
 20
-599.6754704974037
 30
0.0
 10
1824.262961760391
 20
-635.7549368766367
 30
0.0
 10
1878.266837028077
 20
-672.3460095400751
 30
0.0
 10
1887.903234801317
 20
-678.8753762801898
 30
0.0
 10
1897.166091221843
 20
-685.954579929411
 30
0.0
 10
1906.644435824477
 20
-692.719476535236
 30
0.0
 10
1924.014607540847
 20
-705.1166741230772
 30
0.0
 10
1923.450091211929
 20
-728.7098153206307
 30
0.0
 10
1908.952240145147
 20
-740.8765602692747
 30
0.0
 10
1885.166449377379
 20
-760.8376495826069
 30
0.0
 10
1862.418621857154
 20
-782.0391142404633
 30
0.0
 10
1839.319343373256
 20
-802.8134861670178
 30
0.0
 10
1817.362636817894
 20
-822.5602630770154
 30
0.0
 10
1795.480610029346
 20
-842.3904133908045
 30
0.0
 10
1773.629367266814
 20
-862.2538418067907
 30
0.0
 10
1721.32488425008
 20
-909.8001619135675
 30
0.0
 10
1669.040638880077
 20
-957.3687505576827
 30
0.0
 10
1616.784897237865
 20
-1004.968728932028
 30
0.0
 10
1598.40042036802
 20
-1021.715310343632
 30
0.0
 10
1580.213759369051
 20
-1038.679802754205
 30
0.0
 10
1561.778973419654
 20
-1055.370445600016
 30
0.0
 10
1516.313389812025
 20
-1096.534389127935
 30
0.0
 10
1470.607519779109
 20
-1137.433889321266
 30
0.0
 10
1425.285309922272
 20
-1178.754603352039
 30
0.0
 10
1391.465066822653
 20
-1209.588938446821
 30
0.0
 10
1358.270338029426
 20
-1241.108788194997
 30
0.0
 10
1324.47432309843
 20
-1271.969988053221
 30
0.0
 10
1287.210544644273
 20
-1305.997809550485
 30
0.0
 10
1249.552345856797
 20
-1339.593443275104
 30
0.0
 10
1212.124100893281
 20
-1373.44154876864
 30
0.0
 10
1202.316965790569
 20
-1382.310554930402
 30
0.0
 10
1192.725461388603
 20
-1391.417994775144
 30
0.0
 10
1183.034336458002
 20
-1400.415338971288
 30
0.0
 10
1139.181707546795
 20
-1441.128353525541
 30
0.0
 10
1095.417297673104
 20
-1481.937140605172
 30
0.0
 10
1051.395214100176
 20
-1522.466021077887
 30
0.0
 10
1043.427210773913
 20
-1529.801740462406
 30
0.0
 10
1034.401861665212
 20
-1535.988973394869
 30
0.0
 10
1025.743498051832
 20
-1542.801720633724
 30
0.0
  0
SPLINE
  5
4A
330
45
100
AcDbEntity
  8
Layer 1
370
     0
100
AcDbSpline
210
0.0
220
0.0
230
1.0
 70
    11
 71
     3
 72
    50
 73
    46
 74
     0
 42
0.0000000001
 43
0.0000000001
 12
1.0
 22
0.0
 32
0.0
 13
1.0
 23
0.0
 33
0.0
 40
0.0
 40
0.0
 40
0.0
 40
0.0
 40
1.0
 40
1.0
 40
1.0
 40
2.0
 40
2.0
 40
2.0
 40
3.0
 40
3.0
 40
3.0
 40
4.0
 40
4.0
 40
4.0
 40
5.0
 40
5.0
 40
5.0
 40
6.0
 40
6.0
 40
6.0
 40
7.0
 40
7.0
 40
7.0
 40
8.0
 40
8.0
 40
8.0
 40
9.0
 40
9.0
 40
9.0
 40
10.0
 40
10.0
 40
10.0
 40
11.0
 40
11.0
 40
11.0
 40
12.0
 40
12.0
 40
12.0
 40
13.0
 40
13.0
 40
13.0
 40
14.0
 40
14.0
 40
14.0
 40
15.0
 40
15.0
 40
15.0
 40
15.0
 10
1094.937579934367
 20
-1314.260968978031
 30
0.0
 10
1096.869990160018
 20
-1314.765057404031
 30
0.0
 10
1098.802400385668
 20
-1315.26907457071
 30
0.0
 10
1100.734810611319
 20
-1315.773162996709
 30
0.0
 10
1104.186897084193
 20
-1310.197976359257
 30
0.0
 10
1108.570200344027
 20
-1304.991271662835
 30
0.0
 10
1110.945629758884
 20
-1298.989883035574
 30
0.0
 10
1132.383354690475
 20
-1244.830021117545
 30
0.0
 10
1153.455234275856
 20
-1190.525360262334
 30
0.0
 10
1174.661223900499
 20
-1136.273716340816
 30
0.0
 10
1211.985786554173
 20
-1040.785586904149
 30
0.0
 10
1249.271370360089
 20
-945.2822792324323
 30
0.0
 10
1286.69762006266
 20
-849.8340906443336
 30
0.0
 10
1299.172276530775
 20
-818.0199042770473
 30
0.0
 10
1312.010498046875
 20
-786.3481296597411
 30
0.0
 10
1324.721877974302
 20
-754.6269723340347
 30
0.0
 10
1327.678142102237
 20
-747.2496018772808
 30
0.0
 10
1330.642814829869
 20
-739.9476237805375
 30
0.0
 10
1322.968328640545
 20
-733.1339858001875
 30
0.0
 10
1320.914635053141
 20
-732.7666440082694
 30
0.0
 10
1318.642460392211
 20
-732.0041692898367
 30
0.0
 10
1316.37057076856
 20
-732.0051312906498
 30
0.0
 10
1223.041669971446
 20
-732.0439676197657
 30
0.0
 10
1129.712769174334
 20
-732.1467591881155
 30
0.0
 10
1036.383868377221
 20
-732.267080549057
 30
0.0
 10
1032.500948058772
 20
-732.2721043310803
 30
0.0
 10
1028.539571229576
 20
-732.0763906101292
 30
0.0
 10
1024.750641953522
 20
-732.74462487855
 30
0.0
 10
1014.3969478704
 20
-734.5707874588561
 30
0.0
 10
1010.423100660295
 20
-740.1249525970625
 30
0.0
 10
1011.846505566902
 20
-750.6029229333562
 30
0.0
 10
1017.486823222358
 20
-792.1228067620768
 30
0.0
 10
1022.956118511065
 20
-833.6685220941081
 30
0.0
 10
1028.987863608423
 20
-875.1320041714598
 30
0.0
 10
1036.245411519472
 20
-925.0223283332016
 30
0.0
 10
1044.187618972081
 20
-974.812818188353
 30
0.0
 10
1051.497186186351
 20
-1024.69580264019
 30
0.0
 10
1056.785340284938
 20
-1060.783944841569
 30
0.0
 10
1061.361970078522
 20
-1096.975983130751
 30
0.0
 10
1066.553710317854
 20
-1133.078876011263
 30
0.0
 10
1072.295643762889
 20
-1173.008038051237
 30
0.0
 10
1078.219644769193
 20
-1212.912686885313
 30
0.0
 10
1084.37516730449
 20
-1252.779995835977
 30
0.0
 10
1087.547703467044
 20
-1273.32747808931
 30
0.0
 10
1091.395136644393
 20
-1293.770636698922
 30
0.0
 10
1094.937579934367
 20
-1314.260968978031
 30
0.0
  0
SPLINE
  5
4B
330
45
100
AcDbEntity
  8
Layer 1
370
     0
100
AcDbSpline
210
0.0
220
0.0
230
1.0
 70
    11
 71
     3
 72
    53
 73
    49
 74
     0
 42
0.0000000001
 43
0.0000000001
 12
1.0
 22
0.0
 32
0.0
 13
1.0
 23
0.0
 33
0.0
 40
0.0
 40
0.0
 40
0.0
 40
0.0
 40
1.0
 40
1.0
 40
1.0
 40
2.0
 40
2.0
 40
2.0
 40
3.0
 40
3.0
 40
3.0
 40
4.0
 40
4.0
 40
4.0
 40
5.0
 40
5.0
 40
5.0
 40
6.0
 40
6.0
 40
6.0
 40
7.0
 40
7.0
 40
7.0
 40
8.0
 40
8.0
 40
8.0
 40
9.0
 40
9.0
 40
9.0
 40
10.0
 40
10.0
 40
10.0
 40
11.0
 40
11.0
 40
11.0
 40
12.0
 40
12.0
 40
12.0
 40
13.0
 40
13.0
 40
13.0
 40
14.0
 40
14.0
 40
14.0
 40
15.0
 40
15.0
 40
15.0
 40
16.0
 40
16.0
 40
16.0
 40
16.0
 10
689.5031924175128
 20
-736.921703667811
 30
0.0
 10
691.4960305460818
 20
-747.4413607060014
 30
0.0
 10
691.9106172668144
 20
-754.2517920169739
 30
0.0
 10
694.1335517379839
 20
-760.4094523318536
 30
0.0
 10
698.880776342402
 20
-773.5598252969357
 30
0.0
 10
704.6095980726523
 20
-786.3538660349586
 30
0.0
 10
709.8572768777758
 20
-799.325841293723
 30
0.0
 10
734.343831793306
 20
-859.8556806690203
 30
0.0
 10
758.5086508813847
 20
-920.5177060819533
 30
0.0
 10
783.3624050701937
 20
-980.8962262923351
 30
0.0
 10
804.6608180322019
 20
-1032.637440018243
 30
0.0
 10
826.8936544505468
 20
-1083.993176455426
 30
0.0
 10
848.4238027195033
 20
-1135.640007212683
 30
0.0
 10
868.7510936756426
 20
-1184.40133434625
 30
0.0
 10
888.5982393371269
 20
-1233.362828908233
 30
0.0
 10
908.9513974262372
 20
-1282.113182106599
 30
0.0
 10
911.4136206922194
 20
-1288.010888424018
 30
0.0
 10
912.4917029366279
 20
-1296.390058023677
 30
0.0
 10
923.5344746391183
 20
-1295.555753911209
 30
0.0
 10
924.52440910533
 20
-1292.352790019235
 30
0.0
 10
926.1805469493574
 20
-1288.913458964547
 30
0.0
 10
926.6041836036638
 20
-1285.328402601524
 30
0.0
 10
930.9765841876188
 20
-1248.330136371749
 30
0.0
 10
935.0263938322887
 20
-1211.293746406052
 30
0.0
 10
939.4131887987787
 20
-1174.297261659265
 30
0.0
 10
943.7996274686702
 20
-1137.304268619131
 30
0.0
 10
948.7555706198445
 20
-1100.377190449517
 30
0.0
 10
952.9312242227161
 20
-1063.361323167832
 30
0.0
 10
957.1090156051714
 20
-1026.325859573288
 30
0.0
 10
960.0123340587324
 20
-989.1400388146421
 30
0.0
 10
964.5755671002535
 20
-952.1559888191041
 30
0.0
 10
972.6558751140146
 20
-886.6669996232558
 30
0.0
 10
981.5884445887532
 20
-821.2832960719388
 30
0.0
 10
990.0887550315274
 20
-755.8457204750957
 30
0.0
 10
990.5872852306074
 20
-752.0077647872395
 30
0.0
 10
990.7331530575821
 20
-748.0617443413912
 30
0.0
 10
990.4835316614453
 20
-744.2022327093919
 30
0.0
 10
990.0142177833513
 20
-736.9475708007822
 30
0.0
 10
985.852459747779
 20
-732.8638060903795
 30
0.0
 10
978.6353158708753
 20
-732.243315566011
 30
0.0
 10
974.7720631246029
 20
-731.9111758779154
 30
0.0
 10
970.8646296002535
 20
-732.0531957016392
 30
0.0
 10
966.9771486853588
 20
-732.0500959212413
 30
0.0
 10
906.2711919019666
 20
-732.0018533619532
 30
0.0
 10
845.5594631136973
 20
-731.4563632713362
 30
0.0
 10
784.8616298927263
 20
-732.14070214596
 30
0.0
 10
754.7120968581457
 20
-732.4806447295377
 30
0.0
 10
724.5881459192578
 20
-735.0833557438737
 30
0.0
 10
689.5031924175128
 20
-736.921703667811
 30
0.0
  0
SPLINE
  5
4C
330
45
100
AcDbEntity
  8
Layer 1
370
     0
100
AcDbSpline
210
0.0
220
0.0
230
1.0
 70
    11
 71
     3
 72
    50
 73
    46
 74
     0
 42
0.0000000001
 43
0.0000000001
 12
1.0
 22
0.0
 32
0.0
 13
1.0
 23
0.0
 33
0.0
 40
0.0
 40
0.0
 40
0.0
 40
0.0
 40
1.0
 40
1.0
 40
1.0
 40
2.0
 40
2.0
 40
2.0
 40
3.0
 40
3.0
 40
3.0
 40
4.0
 40
4.0
 40
4.0
 40
5.0
 40
5.0
 40
5.0
 40
6.0
 40
6.0
 40
6.0
 40
7.0
 40
7.0
 40
7.0
 40
8.0
 40
8.0
 40
8.0
 40
9.0
 40
9.0
 40
9.0
 40
10.0
 40
10.0
 40
10.0
 40
11.0
 40
11.0
 40
11.0
 40
12.0
 40
12.0
 40
12.0
 40
13.0
 40
13.0
 40
13.0
 40
14.0
 40
14.0
 40
14.0
 40
15.0
 40
15.0
 40
15.0
 40
15.0
 10
370.2202532618176
 20
-734.6206333528326
 30
0.0
 10
374.6043403741669
 20
-742.0435741443935
 30
0.0
 10
375.9924897324618
 20
-745.6984290108467
 30
0.0
 10
378.4529137006266
 20
-748.3633137814295
 30
0.0
 10
413.1630075522489
 20
-785.9574860703533
 30
0.0
 10
447.487873522763
 20
-823.9279075661298
 30
0.0
 10
482.9560596446699
 20
-860.7971231683268
 30
0.0
 10
545.9858897252734
 20
-926.3166113529114
 30
0.0
 10
609.6751535483427
 20
-991.2025685576627
 30
0.0
 10
673.1926824114653
 20
-1056.251852122661
 30
0.0
 10
723.724126670566
 20
-1108.002008893163
 30
0.0
 10
774.4404532340577
 20
-1159.571452029466
 30
0.0
 10
825.0121946383251
 20
-1211.282273655615
 30
0.0
 10
842.37353019908
 20
-1229.034609102357
 30
0.0
 10
859.4236050523477
 20
-1247.093074585582
 30
0.0
 10
876.9122097576937
 20
-1264.717642072494
 30
0.0
 10
880.223559074595
 20
-1268.054716003728
 30
0.0
 10
884.9330874990083
 20
-1270.004513503332
 30
0.0
 10
893.9739711393559
 20
-1275.765615705306
 30
0.0
 10
889.6711909105325
 20
-1263.013047891222
 30
0.0
 10
887.6673075874442
 20
-1255.728207660812
 30
0.0
 10
884.790853897327
 20
-1248.805863588595
 30
0.0
 10
876.7406885757064
 20
-1229.432663660969
 30
0.0
 10
868.0647951697338
 20
-1210.317921285097
 30
0.0
 10
860.1166731936073
 20
-1190.904246064008
 30
0.0
 10
843.6420173451379
 20
-1150.664322131783
 30
0.0
 10
827.8488856281729
 20
-1110.142496331695
 30
0.0
 10
811.1107128162676
 20
-1070.013808197178
 30
0.0
 10
774.9320712791477
 20
-983.2777840086655
 30
0.0
 10
738.3784632029265
 20
-896.6979958781139
 30
0.0
 10
701.8736677605484
 20
-810.0983976567468
 30
0.0
 10
694.0296556501826
 20
-791.4901308940762
 30
0.0
 10
685.4786085719388
 20
-773.177732825885
 30
0.0
 10
677.764074645067
 20
-754.5178743159113
 30
0.0
 10
673.4507836666207
 20
-744.0850111288473
 30
0.0
 10
666.1573566882134
 20
-738.1237058687948
 30
0.0
 10
655.1754760742188
 20
-736.9034256523646
 30
0.0
 10
638.2100929221524
 20
-735.0183316148486
 30
0.0
 10
621.2134981881545
 20
-732.1889803349077
 30
0.0
 10
604.2127704136265
 20
-732.0607491895034
 30
0.0
 10
533.4198788095855
 20
-731.5266249603437
 30
0.0
 10
462.6203957184925
 20
-731.8008664513609
 30
0.0
 10
391.8236917408594
 20
-731.9604160676763
 30
0.0
 10
385.9932542210299
 20
-731.9735277824602
 30
0.0
 10
380.1659164815992
 20
-733.3515048728987
 30
0.0
 10
370.2202532618176
 20
-734.6206333528326
 30
0.0
  0
SPLINE
  5
4D
330
45
100
AcDbEntity
  8
Layer 1
370
     0
100
AcDbSpline
210
0.0
220
0.0
230
1.0
 70
    11
 71
     3
 72
    47
 73
    43
 74
     0
 42
0.0000000001
 43
0.0000000001
 12
1.0
 22
0.0
 32
0.0
 13
1.0
 23
0.0
 33
0.0
 40
0.0
 40
0.0
 40
0.0
 40
0.0
 40
1.0
 40
1.0
 40
1.0
 40
2.0
 40
2.0
 40
2.0
 40
3.0
 40
3.0
 40
3.0
 40
4.0
 40
4.0
 40
4.0
 40
5.0
 40
5.0
 40
5.0
 40
6.0
 40
6.0
 40
6.0
 40
7.0
 40
7.0
 40
7.0
 40
8.0
 40
8.0
 40
8.0
 40
9.0
 40
9.0
 40
9.0
 40
10.0
 40
10.0
 40
10.0
 40
11.0
 40
11.0
 40
11.0
 40
12.0
 40
12.0
 40
12.0
 40
13.0
 40
13.0
 40
13.0
 40
14.0
 40
14.0
 40
14.0
 40
14.0
 10
1634.475450854616
 20
-735.8315073390913
 30
0.0
 10
1624.533778156725
 20
-728.7065730215945
 30
0.0
 10
1613.894619239769
 20
-731.1590693904673
 30
0.0
 10
1604.461738082962
 20
-732.2644439542364
 30
0.0
 10
1587.398836552189
 20
-734.2638735698574
 30
0.0
 10
1570.658739738657
 20
-732.7310143485292
 30
0.0
 10
1553.693748512849
 20
-732.4287679449562
 30
0.0
 10
1489.156320639673
 20
-731.2790344548112
 30
0.0
 10
1424.586255998176
 20
-732.0620674869142
 30
0.0
 10
1360.030585739212
 20
-731.7240845346223
 30
0.0
 10
1348.958882753013
 20
-731.6661507078843
 30
0.0
 10
1343.243885330743
 20
-736.1858443052042
 30
0.0
 10
1339.384623106362
 20
-746.3759626204601
 30
0.0
 10
1325.363496886897
 20
-783.3983857595385
 30
0.0
 10
1310.678233809882
 20
-820.1699048347291
 30
0.0
 10
1296.170833994289
 20
-857.007481299077
 30
0.0
 10
1260.597112820233
 20
-947.3378968214638
 30
0.0
 10
1225.056954785652
 20
-1037.681673466253
 30
0.0
 10
1189.355608170408
 20
-1127.961601760788
 30
0.0
 10
1170.215426217481
 20
-1176.362285478466
 30
0.0
 10
1150.634149076976
 20
-1224.588811419339
 30
0.0
 10
1131.623801604141
 20
-1273.039946735209
 30
0.0
 10
1129.07777737845
 20
-1279.528962885668
 30
0.0
 10
1124.597418925483
 20
-1286.498195590102
 30
0.0
 10
1129.144974916719
 20
-1296.172574580625
 30
0.0
 10
1134.351252057226
 20
-1291.589816485566
 30
0.0
 10
1138.711752334828
 20
-1288.481556229181
 30
0.0
 10
1142.165477772049
 20
-1284.572269962524
 30
0.0
 10
1151.93199506266
 20
-1273.517312916403
 30
0.0
 10
1161.058247367742
 20
-1261.892566351722
 30
0.0
 10
1170.914622660215
 20
-1250.921624043267
 30
0.0
 10
1215.040744839585
 20
-1201.806066832567
 30
0.0
 10
1259.374231638642
 20
-1152.876924001626
 30
0.0
 10
1303.554867197414
 20
-1103.81017942477
 30
0.0
 10
1357.610476731044
 20
-1043.776411802031
 30
0.0
 10
1411.242093313769
 20
-983.3567037049897
 30
0.0
 10
1465.696327480568
 20
-923.6873562420697
 30
0.0
 10
1521.161731390785
 20
-862.910068879879
 30
0.0
 10
1577.411557889831
 20
-802.8487595301604
 30
0.0
 10
1633.230265506028
 20
-742.393136736101
 30
0.0
 10
1634.093785939483
 20
-741.4579650569094
 30
0.0
 10
1633.831124087881
 20
-739.4831555361689
 30
0.0
 10
1634.475450854616
 20
-735.8315073390913
 30
0.0
  0
SPLINE
  5
4E
330
45
100
AcDbEntity
  8
Layer 1
370
     0
100
AcDbSpline
210
0.0
220
0.0
230
1.0
 70
    11
 71
     3
 72
    44
 73
    40
 74
     0
 42
0.0000000001
 43
0.0000000001
 12
1.0
 22
0.0
 32
0.0
 13
1.0
 23
0.0
 33
0.0
 40
0.0
 40
0.0
 40
0.0
 40
0.0
 40
1.0
 40
1.0
 40
1.0
 40
2.0
 40
2.0
 40
2.0
 40
3.0
 40
3.0
 40
3.0
 40
4.0
 40
4.0
 40
4.0
 40
5.0
 40
5.0
 40
5.0
 40
6.0
 40
6.0
 40
6.0
 40
7.0
 40
7.0
 40
7.0
 40
8.0
 40
8.0
 40
8.0
 40
9.0
 40
9.0
 40
9.0
 40
10.0
 40
10.0
 40
10.0
 40
11.0
 40
11.0
 40
11.0
 40
12.0
 40
12.0
 40
12.0
 40
13.0
 40
13.0
 40
13.0
 40
13.0
 10
763.5979914786249
 20
-485.1975608089861
 30
0.0
 10
766.6848026798461
 20
-490.2257698175272
 30
0.0
 10
767.4704366771093
 20
-492.6276809769852
 30
0.0
 10
769.1129639911169
 20
-494.0151177420839
 30
0.0
 10
801.6747675087245
 20
-521.520074912135
 30
0.0
 10
834.4475698713122
 20
-548.7759362235292
 30
0.0
 10
866.9485179300837
 20
-576.3522952316989
 30
0.0
 10
907.7250245379919
 20
-610.9504050627584
 30
0.0
 10
948.4570653305436
 20
-645.605059163825
 30
0.0
 10
988.8722871886894
 20
-680.6230467200894
 30
0.0
 10
1004.346889747581
 20
-694.0310399399204
 30
0.0
 10
1009.740650157639
 20
-694.6913287942189
 30
0.0
 10
1024.282967039777
 20
-681.2912631736799
 30
0.0
 10
1032.849833686945
 20
-673.3972270210388
 30
0.0
 10
1040.967624102752
 20
-664.993597659969
 30
0.0
 10
1049.787318815434
 20
-657.3998482796151
 30
0.0
 10
1112.02250059486
 20
-603.8156904036632
 30
0.0
 10
1174.409607243417
 20
-550.4079706027433
 30
0.0
 10
1236.634812718115
 20
-496.8123043466958
 30
0.0
 10
1239.302405342838
 20
-494.5146455716367
 30
0.0
 10
1240.856713619329
 20
-490.9245921488346
 30
0.0
 10
1243.169933648278
 20
-487.5902171643265
 30
0.0
 10
1234.26629545725
 20
-478.2033873427345
 30
0.0
 10
1223.061622580901
 20
-477.3088601978907
 30
0.0
 10
1212.888570872659
 20
-474.3888937858164
 30
0.0
 10
1152.5287918633
 20
-457.0640786262948
 30
0.0
 10
1091.929296503213
 20
-440.5441330265885
 30
0.0
 10
1031.814079478307
 20
-422.4146799000391
 30
0.0
 10
1010.272529718235
 20
-415.9182015627175
 30
0.0
 10
989.2258046726283
 20
-414.741763642598
 30
0.0
 10
967.662592079434
 20
-419.0919958976328
 30
0.0
 10
959.3963685011504
 20
-420.7596488023173
 30
0.0
 10
951.5896250148717
 20
-424.5958809053845
 30
0.0
 10
943.4644236298382
 20
-427.0886343360562
 30
0.0
 10
888.6358642578125
 20
-443.909692870785
 30
0.0
 10
833.7582072146652
 20
-460.5714356088401
 30
0.0
 10
778.9638523159902
 20
-477.5029438619094
 30
0.0
 10
774.128907489292
 20
-478.9969489392906
 30
0.0
 10
769.7763169961536
 20
-482.0520675581729
 30
0.0
 10
763.5979914786249
 20
-485.1975608089861
 30
0.0
  0
SPLINE
  5
4F
330
45
100
AcDbEntity
  8
Layer 1
370
     0
100
AcDbSpline
210
0.0
220
0.0
230
1.0
 70
    11
 71
     3
 72
    59
 73
    55
 74
     0
 42
0.0000000001
 43
0.0000000001
 12
1.0
 22
0.0
 32
0.0
 13
1.0
 23
0.0
 33
0.0
 40
0.0
 40
0.0
 40
0.0
 40
0.0
 40
1.0
 40
1.0
 40
1.0
 40
2.0
 40
2.0
 40
2.0
 40
3.0
 40
3.0
 40
3.0
 40
4.0
 40
4.0
 40
4.0
 40
5.0
 40
5.0
 40
5.0
 40
6.0
 40
6.0
 40
6.0
 40
7.0
 40
7.0
 40
7.0
 40
8.0
 40
8.0
 40
8.0
 40
9.0
 40
9.0
 40
9.0
 40
10.0
 40
10.0
 40
10.0
 40
11.0
 40
11.0
 40
11.0
 40
12.0
 40
12.0
 40
12.0
 40
13.0
 40
13.0
 40
13.0
 40
14.0
 40
14.0
 40
14.0
 40
15.0
 40
15.0
 40
15.0
 40
16.0
 40
16.0
 40
16.0
 40
17.0
 40
17.0
 40
17.0
 40
18.0
 40
18.0
 40
18.0
 40
18.0
 10
1012.680880938689
 20
-1524.014343571544
 30
0.0
 10
1014.690750044614
 20
-1524.283133724621
 30
0.0
 10
1016.70054789122
 20
-1524.551923877698
 30
0.0
 10
1018.710345737825
 20
-1524.820714030775
 30
0.0
 10
1021.891789315316
 20
-1519.881160523082
 30
0.0
 10
1026.035732521019
 20
-1515.312084217363
 30
0.0
 10
1028.10225278593
 20
-1509.943335828444
 30
0.0
 10
1044.569640183812
 20
-1467.16109315514
 30
0.0
 10
1059.513004515982
 20
-1423.75126965518
 30
0.0
 10
1077.287857907679
 20
-1381.529267751626
 30
0.0
 10
1086.976845058693
 20
-1358.514004005394
 30
0.0
 10
1085.894914811033
 20
-1336.212117306473
 30
0.0
 10
1082.20981036346
 20
-1313.017351334471
 30
0.0
 10
1081.358404014316
 20
-1307.657652879125
 30
0.0
 10
1079.947897044534
 20
-1302.38132782757
 30
0.0
 10
1079.210933162476
 20
-1297.009586547232
 30
0.0
 10
1071.296873141062
 20
-1239.321818240403
 30
0.0
 10
1063.645403711929
 20
-1181.597565162001
 30
0.0
 10
1055.565737032044
 20
-1123.933169911961
 30
0.0
 10
1046.30109912853
 20
-1057.811362329474
 30
0.0
 10
1036.71130495023
 20
-991.7348756741758
 30
0.0
 10
1027.196048020107
 20
-925.6483414548311
 30
0.0
 10
1021.219813932623
 20
-884.1418900078334
 30
0.0
 10
1015.216216266457
 20
-842.6387164895314
 30
0.0
 10
1008.924517171637
 20
-801.1796168603278
 30
0.0
 10
1008.31738776967
 20
-797.1790474054178
 30
0.0
 10
1005.581172420289
 20
-793.5016389643488
 30
0.0
 10
1002.909446755037
 20
-787.6513557240451
 30
0.0
 10
993.9005585491359
 20
-802.2751576380087
 30
0.0
 10
992.5348024319874
 20
-816.2109151927361
 30
0.0
 10
990.9155769154504
 20
-829.9824556457215
 30
0.0
 10
986.6564786494682
 20
-866.2084846302951
 30
0.0
 10
982.9871937708203
 20
-902.5070556020983
 30
0.0
 10
978.4123454602232
 20
-938.691967959332
 30
0.0
 10
973.6435292820033
 20
-976.4122336140754
 30
0.0
 10
967.3744906507773
 20
-1013.951607486319
 30
0.0
 10
963.0610927833513
 20
-1051.718547995322
 30
0.0
 10
957.6023438739294
 20
-1099.513313719464
 30
0.0
 10
954.4875990194714
 20
-1147.584850640467
 30
0.0
 10
945.108803686152
 20
-1194.889067209313
 30
0.0
 10
944.5079451042984
 20
-1197.919726066784
 30
0.0
 10
944.6543117465098
 20
-1201.091193339547
 30
0.0
 10
944.3068513047274
 20
-1204.18064113559
 30
0.0
 10
940.3159018579472
 20
-1239.657734672432
 30
0.0
 10
936.7763089407517
 20
-1275.196253742664
 30
0.0
 10
932.0051412049888
 20
-1310.568596079871
 30
0.0
 10
930.4888854050996
 20
-1321.810608839627
 30
0.0
 10
930.9633299541956
 20
-1331.792044237787
 30
0.0
 10
935.4802444380548
 20
-1342.271012204554
 30
0.0
 10
957.6345530863337
 20
-1393.666440082687
 30
0.0
 10
979.3333009051794
 20
-1445.258258645306
 30
0.0
 10
1001.186538928656
 20
-1496.783378484892
 30
0.0
 10
1005.033544550088
 20
-1505.853834742822
 30
0.0
 10
1008.850193701419
 20
-1514.937046418941
 30
0.0
 10
1012.680880938689
 20
-1524.014343571544
 30
0.0
  0
SPLINE
  5
50
330
45
100
AcDbEntity
  8
Layer 1
370
     0
100
AcDbSpline
210
0.0
220
0.0
230
1.0
 70
    11
 71
     3
 72
    56
 73
    52
 74
     0
 42
0.0000000001
 43
0.0000000001
 12
1.0
 22
0.0
 32
0.0
 13
1.0
 23
0.0
 33
0.0
 40
0.0
 40
0.0
 40
0.0
 40
0.0
 40
1.0
 40
1.0
 40
1.0
 40
2.0
 40
2.0
 40
2.0
 40
3.0
 40
3.0
 40
3.0
 40
4.0
 40
4.0
 40
4.0
 40
5.0
 40
5.0
 40
5.0
 40
6.0
 40
6.0
 40
6.0
 40
7.0
 40
7.0
 40
7.0
 40
8.0
 40
8.0
 40
8.0
 40
9.0
 40
9.0
 40
9.0
 40
10.0
 40
10.0
 40
10.0
 40
11.0
 40
11.0
 40
11.0
 40
12.0
 40
12.0
 40
12.0
 40
13.0
 40
13.0
 40
13.0
 40
14.0
 40
14.0
 40
14.0
 40
15.0
 40
15.0
 40
15.0
 40
16.0
 40
16.0
 40
16.0
 40
17.0
 40
17.0
 40
17.0
 40
17.0
 10
1041.81432733681
 20
-1507.068734880631
 30
0.0
 10
1042.972291278355
 20
-1508.01270708578
 30
0.0
 10
1044.130255219899
 20
-1508.956750550247
 30
0.0
 10
1045.288219161444
 20
-1509.900722755394
 30
0.0
 10
1049.760881607908
 20
-1507.017428170606
 30
0.0
 10
1054.728440028157
 20
-1504.681405159423
 30
0.0
 10
1058.623901986834
 20
-1501.159627072098
 30
0.0
 10
1079.939274666878
 20
-1481.889040564523
 30
0.0
 10
1100.987709936151
 20
-1462.323155437025
 30
0.0
 10
1122.134981881543
 20
-1442.866582105609
 30
0.0
 10
1159.858810502261
 20
-1408.158946700509
 30
0.0
 10
1197.716107828363
 20
-1373.594400008924
 30
0.0
 10
1235.216752260469
 20
-1338.647262031052
 30
0.0
 10
1243.687846382258
 20
-1330.752940841134
 30
0.0
 10
1251.83499563769
 20
-1322.185860416006
 30
0.0
 10
1258.552326647763
 20
-1312.798585223669
 30
0.0
 10
1275.701736992385
 20
-1288.832579636937
 30
0.0
 10
1292.197699377379
 20
-1264.387141348747
 30
0.0
 10
1308.526202361596
 20
-1239.847997055442
 30
0.0
 10
1342.953717381821
 20
-1188.109384294694
 30
0.0
 10
1377.129401967006
 20
-1136.203169614531
 30
0.0
 10
1411.367367197414
 20
-1084.338570376944
 30
0.0
 10
1465.721838316942
 20
-1002.000707016379
 30
0.0
 10
1520.042675037674
 20
-919.6405751184775
 30
0.0
 10
1574.378191178221
 20
-837.2901344880247
 30
0.0
 10
1579.35380190157
 20
-829.7492238930645
 30
0.0
 10
1583.824896643004
 20
-822.0058655714638
 30
0.0
 10
1584.233782618179
 20
-812.027743731659
 30
0.0
 10
1575.68066901967
 20
-817.8159601046964
 30
0.0
 10
1568.397396494289
 20
-824.5056424988106
 30
0.0
 10
1561.851372888246
 20
-831.8523358185284
 30
0.0
 10
1512.765530813769
 20
-886.9419537074682
 30
0.0
 10
1463.884630542116
 20
-942.2141379729146
 30
0.0
 10
1414.816460778871
 20
-997.3194685418002
 30
0.0
 10
1386.928698544574
 20
-1028.638153231084
 30
0.0
 10
1358.693618387135
 20
-1059.647572473827
 30
0.0
 10
1330.820393054013
 20
-1090.979083840619
 30
0.0
 10
1286.952728426397
 20
-1140.289392771456
 30
0.0
 10
1243.250385419971
 20
-1189.74670967838
 30
0.0
 10
1199.493742812103
 20
-1239.155784026016
 30
0.0
 10
1172.75468080782
 20
-1269.34878524548
 30
0.0
 10
1146.72201243754
 20
-1300.20927251051
 30
0.0
 10
1118.998574193964
 20
-1329.468420348192
 30
0.0
 10
1107.45634592124
 20
-1341.650129753927
 30
0.0
 10
1098.697007852157
 20
-1354.485073341331
 30
0.0
 10
1092.841415792553
 20
-1369.981338733345
 30
0.0
 10
1078.018194673024
 20
-1409.209879144195
 30
0.0
 10
1062.669721109613
 20
-1448.239677313017
 30
0.0
 10
1047.71032343056
 20
-1487.417338569758
 30
0.0
 10
1045.277316485564
 20
-1493.789204398994
 30
0.0
 10
1043.756713867188
 20
-1500.509457041166
 30
0.0
 10
1041.81432733681
 20
-1507.068734880631
 30
0.0
  0
SPLINE
  5
51
330
45
100
AcDbEntity
  8
Layer 1
370
     0
100
AcDbSpline
210
0.0
220
0.0
230
1.0
 70
    11
 71
     3
 72
    53
 73
    49
 74
     0
 42
0.0000000001
 43
0.0000000001
 12
1.0
 22
0.0
 32
0.0
 13
1.0
 23
0.0
 33
0.0
 40
0.0
 40
0.0
 40
0.0
 40
0.0
 40
1.0
 40
1.0
 40
1.0
 40
2.0
 40
2.0
 40
2.0
 40
3.0
 40
3.0
 40
3.0
 40
4.0
 40
4.0
 40
4.0
 40
5.0
 40
5.0
 40
5.0
 40
6.0
 40
6.0
 40
6.0
 40
7.0
 40
7.0
 40
7.0
 40
8.0
 40
8.0
 40
8.0
 40
9.0
 40
9.0
 40
9.0
 40
10.0
 40
10.0
 40
10.0
 40
11.0
 40
11.0
 40
11.0
 40
12.0
 40
12.0
 40
12.0
 40
13.0
 40
13.0
 40
13.0
 40
14.0
 40
14.0
 40
14.0
 40
15.0
 40
15.0
 40
15.0
 40
16.0
 40
16.0
 40
16.0
 40
16.0
 10
455.2490466742347
 20
-848.4682276382064
 30
0.0
 10
453.7260568686552
 20
-849.5080792577146
 30
0.0
 10
452.2030670630747
 20
-850.5479665068815
 30
0.0
 10
450.6800772574952
 20
-851.5878537560484
 30
0.0
 10
454.1467718908625
 20
-858.2737950358905
 30
0.0
 10
456.9094957070911
 20
-865.4533139921095
 30
0.0
 10
461.1947461433219
 20
-871.5653327128621
 30
0.0
 10
488.3695588862229
 20
-910.3245948752783
 30
0.0
 10
516.0962037991749
 20
-948.6972395998582
 30
0.0
 10
543.2390567372895
 20
-987.4785921513139
 30
0.0
 10
610.4373788591565
 20
-1083.490584475136
 30
0.0
 10
677.2118861784184
 20
-1179.800048828125
 30
0.0
 10
744.6606135489374
 20
-1275.635353669299
 30
0.0
 10
758.426916441942
 20
-1295.195395532599
 30
0.0
 10
770.8239002518239
 20
-1315.853971065
 30
0.0
 10
789.8792836145703
 20
-1331.559026263089
 30
0.0
 10
820.9715774458673
 20
-1357.184590141182
 30
0.0
 10
851.2450304370241
 20
-1383.819471020384
 30
0.0
 10
881.4862029564565
 20
-1410.457416050325
 30
0.0
 10
912.3447662198605
 20
-1437.639354725176
 30
0.0
 10
942.6929702371508
 20
-1465.400204111478
 30
0.0
 10
973.4569723836057
 20
-1492.690741989214
 30
0.0
 10
975.8570575230015
 20
-1494.819827936628
 30
0.0
 10
979.7704768301874
 20
-1495.242965775698
 30
0.0
 10
985.9421039716844
 20
-1497.580841529189
 30
0.0
 10
983.9769144590737
 20
-1489.483502538073
 30
0.0
 10
983.3672909809247
 20
-1484.267320352159
 30
0.0
 10
981.4437169108896
 20
-1479.591711363817
 30
0.0
 10
977.0145939086296
 20
-1468.825853376826
 30
0.0
 10
971.6405723300686
 20
-1458.44921379283
 30
0.0
 10
967.1942758318128
 20
-1447.689697885273
 30
0.0
 10
952.6677785185993
 20
-1412.537689363897
 30
0.0
 10
938.7355839298461
 20
-1377.135346853189
 30
0.0
 10
923.8063289429329
 20
-1342.157211071344
 30
0.0
 10
918.9897690206617
 20
-1330.872371460582
 30
0.0
 10
913.3831570233187
 20
-1319.197672112945
 30
0.0
 10
905.3724693646891
 20
-1310.149662540649
 30
0.0
 10
886.8922912287835
 20
-1289.276382678658
 30
0.0
 10
866.6711766586686
 20
-1269.948361159582
 30
0.0
 10
847.2400429043064
 20
-1249.912307042156
 30
0.0
 10
798.575770963872
 20
-1199.732990710265
 30
0.0
 10
750.0303595683299
 20
-1149.438163021496
 30
0.0
 10
701.3043770572258
 20
-1099.318847036604
 30
0.0
 10
630.3546080613496
 20
-1026.340325215142
 30
0.0
 10
559.325848109831
 20
-953.4384071621198
 30
0.0
 10
488.231280176773
 20
-880.600907533908
 30
0.0
 10
477.5134509711097
 20
-869.6203452173231
 30
0.0
 10
466.2565450135826
 20
-859.1659973454362
 30
0.0
 10
455.2490466742347
 20
-848.4682276382064
 30
0.0
  0
SPLINE
  5
52
330
45
100
AcDbEntity
  8
Layer 1
370
     0
100
AcDbSpline
210
0.0
220
0.0
230
1.0
 70
    11
 71
     3
 72
    44
 73
    40
 74
     0
 42
0.0000000001
 43
0.0000000001
 12
1.0
 22
0.0
 32
0.0
 13
1.0
 23
0.0
 33
0.0
 40
0.0
 40
0.0
 40
0.0
 40
0.0
 40
1.0
 40
1.0
 40
1.0
 40
2.0
 40
2.0
 40
2.0
 40
3.0
 40
3.0
 40
3.0
 40
4.0
 40
4.0
 40
4.0
 40
5.0
 40
5.0
 40
5.0
 40
6.0
 40
6.0
 40
6.0
 40
7.0
 40
7.0
 40
7.0
 40
8.0
 40
8.0
 40
8.0
 40
9.0
 40
9.0
 40
9.0
 40
10.0
 40
10.0
 40
10.0
 40
11.0
 40
11.0
 40
11.0
 40
12.0
 40
12.0
 40
12.0
 40
13.0
 40
13.0
 40
13.0
 40
13.0
 10
196.8376798678173
 20
-736.1617586552202
 30
0.0
 10
200.4250788809686
 20
-741.6313033515435
 30
0.0
 10
201.4018036508314
 20
-743.8199977197028
 30
0.0
 10
202.9762604999059
 20
-745.4207670724945
 30
0.0
 10
283.062462976136
 20
-826.8450146980103
 30
0.0
 10
363.1408714642985
 20
-908.2771008486689
 30
0.0
 10
443.3574339581019
 20
-989.5728679211625
 30
0.0
 10
480.4882068924489
 20
-1027.203133055402
 30
0.0
 10
517.8981382108577
 20
-1064.557909660534
 30
0.0
 10
555.1832588311981
 20
-1102.035893629047
 30
0.0
 10
579.8526651605134
 20
-1126.83285414023
 30
0.0
 10
606.4192083523358
 20
-1150.052988429965
 30
0.0
 10
628.6825437594189
 20
-1176.848701593235
 30
0.0
 10
652.6380385965258
 20
-1205.681077366553
 30
0.0
 10
680.5425467708992
 20
-1230.257632802586
 30
0.0
 10
706.2935983105963
 20
-1257.099807042156
 30
0.0
 10
709.0386498155931
 20
-1259.961153756543
 30
0.0
 10
713.3066554965098
 20
-1261.36147064364
 30
0.0
 10
717.0072232164102
 20
-1263.520628023874
 30
0.0
 10
722.1045448574314
 20
-1254.766705663073
 30
0.0
 10
716.5963419802902
 20
-1250.622619938731
 30
0.0
 10
713.1104785899824
 20
-1245.69496673739
 30
0.0
 10
688.007245523675
 20
-1210.209749638128
 30
0.0
 10
662.8500691525223
 20
-1174.761373607036
 30
0.0
 10
637.9885120682302
 20
-1139.107129401968
 30
0.0
 10
563.8457554851084
 20
-1032.777820877618
 30
0.0
 10
489.918700862052
 20
-926.2979770408674
 30
0.0
 10
415.7006588078993
 20
-820.0213291536138
 30
0.0
 10
398.3696084579233
 20
-795.204095366038
 30
0.0
 10
380.1435054256226
 20
-771.0133735153286
 30
0.0
 10
362.4869959487523
 20
-746.4210697696908
 30
0.0
 10
355.738934357154
 20
-737.0222861972561
 30
0.0
 10
347.7930036051021
 20
-731.537420747245
 30
0.0
 10
335.3238341045862
 20
-731.7008183668113
 30
0.0
 10
294.900595572999
 20
-732.2304532588441
 30
0.0
 10
254.4645659935659
 20
-731.7173148992715
 30
0.0
 10
214.0357959573039
 20
-731.975416154427
 30
0.0
 10
209.1246303810085
 20
-732.0067702549977
 30
0.0
 10
204.2278502798326
 20
-734.2919497417324
 30
0.0
 10
196.8376798678173
 20
-736.1617586552202
 30
0.0
  0
SPLINE
  5
53
330
45
100
AcDbEntity
  8
Layer 1
370
     0
100
AcDbSpline
210
0.0
220
0.0
230
1.0
 70
    11
 71
     3
 72
    44
 73
    40
 74
     0
 42
0.0000000001
 43
0.0000000001
 12
1.0
 22
0.0
 32
0.0
 13
1.0
 23
0.0
 33
0.0
 40
0.0
 40
0.0
 40
0.0
 40
0.0
 40
1.0
 40
1.0
 40
1.0
 40
2.0
 40
2.0
 40
2.0
 40
3.0
 40
3.0
 40
3.0
 40
4.0
 40
4.0
 40
4.0
 40
5.0
 40
5.0
 40
5.0
 40
6.0
 40
6.0
 40
6.0
 40
7.0
 40
7.0
 40
7.0
 40
8.0
 40
8.0
 40
8.0
 40
9.0
 40
9.0
 40
9.0
 40
10.0
 40
10.0
 40
10.0
 40
11.0
 40
11.0
 40
11.0
 40
12.0
 40
12.0
 40
12.0
 40
13.0
 40
13.0
 40
13.0
 40
13.0
 10
1809.267008050443
 20
-736.7588404931403
 30
0.0
 10
1804.506172916006
 20
-734.0546918375248
 30
0.0
 10
1803.190868397049
 20
-732.6580091757223
 30
0.0
 10
1801.866300166561
 20
-732.6493867980653
 30
0.0
 10
1759.091040906567
 20
-732.3702284140036
 30
0.0
 10
1716.314641497462
 20
-732.0830889861609
 30
0.0
 10
1673.53909720019
 20
-732.1475786702895
 30
0.0
 10
1660.995034154901
 20
-732.166498019611
 30
0.0
 10
1651.156544951618
 20
-738.3569019917923
 30
0.0
 10
1644.02362959034
 20
-748.4470791114782
 30
0.0
 10
1631.914675949794
 20
-765.5768218839239
 30
0.0
 10
1619.571991741355
 20
-782.5756612864861
 30
0.0
 10
1608.25031106242
 20
-800.2215709395832
 30
0.0
 10
1566.287835600413
 20
-865.6246213961385
 30
0.0
 10
1525.070305064244
 20
-931.5074252210907
 30
0.0
 10
1482.881224966291
 20
-996.7628619973439
 30
0.0
 10
1430.985770443369
 20
-1077.031497238857
 30
0.0
 10
1378.36945664459
 20
-1156.833811493696
 30
0.0
 10
1326.182551504997
 20
-1236.914464650421
 30
0.0
 10
1323.098020601999
 20
-1241.647722428221
 30
0.0
 10
1321.062569400381
 20
-1247.06464211711
 30
0.0
 10
1315.985057850174
 20
-1257.323490046003
 30
0.0
 10
1325.731907568606
 20
-1252.125550245877
 30
0.0
 10
1331.276595217321
 20
-1250.690458810875
 30
0.0
 10
1334.592718908629
 20
-1247.161269754324
 30
0.0
 10
1363.308514435279
 20
-1216.599359037913
 30
0.0
 10
1391.590910780853
 20
-1185.630842644552
 30
0.0
 10
1420.065707289023
 20
-1154.8419709956
 30
0.0
 10
1457.53485510192
 20
-1114.327769942696
 30
0.0
 10
1494.798633556074
 20
-1073.619315984892
 30
0.0
 10
1532.623650410453
 20
-1033.439677436945
 30
0.0
 10
1591.259238925682
 20
-971.1540084296685
 30
0.0
 10
1650.315114907202
 20
-909.2641493124411
 30
0.0
 10
1709.151654703363
 20
-847.1675669094038
 30
0.0
 10
1739.642234840974
 20
-814.9874639365889
 30
0.0
 10
1770.109299403157
 20
-782.7842373146032
 30
0.0
 10
1800.396505442972
 20
-750.4132306249021
 30
0.0
 10
1803.773057037199
 20
-746.8042667601931
 30
0.0
 10
1805.900575279584
 20
-742.0267213153365
 30
0.0
 10
1809.267008050443
 20
-736.7588404931403
 30
0.0
  0
SPLINE
  5
54
330
45
100
AcDbEntity
  8
Layer 1
370
     0
100
AcDbSpline
210
0.0
220
0.0
230
1.0
 70
    11
 71
     3
 72
    41
 73
    37
 74
     0
 42
0.0000000001
 43
0.0000000001
 12
1.0
 22
0.0
 32
0.0
 13
1.0
 23
0.0
 33
0.0
 40
0.0
 40
0.0
 40
0.0
 40
0.0
 40
1.0
 40
1.0
 40
1.0
 40
2.0
 40
2.0
 40
2.0
 40
3.0
 40
3.0
 40
3.0
 40
4.0
 40
4.0
 40
4.0
 40
5.0
 40
5.0
 40
5.0
 40
6.0
 40
6.0
 40
6.0
 40
7.0
 40
7.0
 40
7.0
 40
8.0
 40
8.0
 40
8.0
 40
9.0
 40
9.0
 40
9.0
 40
10.0
 40
10.0
 40
10.0
 40
11.0
 40
11.0
 40
11.0
 40
12.0
 40
12.0
 40
12.0
 40
12.0
 10
386.3525793395065
 20
-691.0935882723279
 30
0.0
 10
401.780685192437
 20
-681.8881134188123
 30
0.0
 10
414.920974963813
 20
-673.9361078097745
 30
0.0
 10
428.1668710466565
 20
-666.164049797253
 30
0.0
 10
479.6195201583323
 20
-635.9739523950575
 30
0.0
 10
531.2187140605174
 20
-606.0316949060125
 30
0.0
 10
582.5453766953524
 20
-575.6291734724491
 30
0.0
 10
627.2024520641653
 20
-549.1772687108396
 30
0.0
 10
671.6570440766773
 20
-522.3794266754003
 30
0.0
 10
715.9996164389677
 20
-495.4031780262294
 30
0.0
 10
728.2257204007374
 20
-487.9652460553325
 30
0.0
 10
728.3365999018479
 20
-481.1793813947506
 30
0.0
 10
716.6051781359056
 20
-472.8175990690443
 30
0.0
 10
695.7747963842403
 20
-457.970292299533
 30
0.0
 10
673.6593953243973
 20
-444.7774665948709
 30
0.0
 10
653.8124634408705
 20
-428.7492681977719
 30
0.0
 10
639.8350904435674
 20
-417.4612530935847
 30
0.0
 10
625.6362434813218
 20
-417.0243867012459
 30
0.0
 10
610.27116649647
 20
-420.8827292350352
 30
0.0
 10
598.3068692744682
 20
-423.8871089915947
 30
0.0
 10
586.8280617960818
 20
-428.7908524643963
 30
0.0
 10
575.0707728971684
 20
-432.6598905766687
 30
0.0
 10
540.4876631528596
 20
-444.0403067496836
 30
0.0
 10
505.8197548183689
 20
-455.1656947256961
 30
0.0
 10
471.2965385320831
 20
-466.7239029008133
 30
0.0
 10
456.5960972200191
 20
-471.6455257822427
 30
0.0
 10
442.0475451474258
 20
-477.0838678040491
 30
0.0
 10
427.6661318086735
 20
-482.8739725490523
 30
0.0
 10
417.6139359062699
 20
-486.9211010618264
 30
0.0
 10
412.5434077693726
 20
-494.4769315768026
 30
0.0
 10
410.7068769580819
 20
-505.7895355999171
 30
0.0
 10
402.6398588074044
 20
-555.4798526667109
 30
0.0
 10
393.4575610475495
 20
-604.9883159501915
 30
0.0
 10
385.2124302278316
 20
-654.6511625493249
 30
0.0
 10
383.3799968274116
 20
-665.6884650990451
 30
0.0
 10
379.428382524984
 20
-677.1879734097411
 30
0.0
 10
386.3525793395065
 20
-691.0935882723279
 30
0.0
  0
SPLINE
  5
55
330
45
100
AcDbEntity
  8
Layer 1
370
     0
100
AcDbSpline
210
0.0
220
0.0
230
1.0
 70
    11
 71
     3
 72
    38
 73
    34
 74
     0
 42
0.0000000001
 43
0.0000000001
 12
1.0
 22
0.0
 32
0.0
 13
1.0
 23
0.0
 33
0.0
 40
0.0
 40
0.0
 40
0.0
 40
0.0
 40
1.0
 40
1.0
 40
1.0
 40
2.0
 40
2.0
 40
2.0
 40
3.0
 40
3.0
 40
3.0
 40
4.0
 40
4.0
 40
4.0
 40
5.0
 40
5.0
 40
5.0
 40
6.0
 40
6.0
 40
6.0
 40
7.0
 40
7.0
 40
7.0
 40
8.0
 40
8.0
 40
8.0
 40
9.0
 40
9.0
 40
9.0
 40
10.0
 40
10.0
 40
10.0
 40
11.0
 40
11.0
 40
11.0
 40
11.0
 10
1274.357429930402
 20
-480.0021239924563
 30
0.0
 10
1278.705744864372
 20
-484.5086078934264
 30
0.0
 10
1281.36443007416
 20
-488.3681106180111
 30
0.0
 10
1284.974712236279
 20
-490.8344847393528
 30
0.0
 10
1320.733208825746
 20
-515.2637382546063
 30
0.0
 10
1616.522092867624
 20
-679.1891666935189
 30
0.0
 10
1632.426887938214
 20
-683.6353028583053
 30
0.0
 10
1636.76059471169
 20
-670.70047151982
 30
0.0
 10
1636.821592689166
 20
-670.68399280219
 30
0.0
 10
1633.835827202965
 20
-659.6378540968544
 30
0.0
 10
1628.361543761897
 20
-639.3849756850814
 30
0.0
 10
1622.467115373176
 20
-619.2389862525288
 30
0.0
 10
1617.366373284818
 20
-598.8933638364542
 30
0.0
 10
1609.634309565356
 20
-568.0506379568042
 30
0.0
 10
1602.251131474064
 20
-537.1169673706681
 30
0.0
 10
1595.067764514593
 20
-506.141244878625
 30
0.0
 10
1590.572441604538
 20
-486.7570175713099
 30
0.0
 10
1577.042434614927
 20
-478.1599904171717
 30
0.0
 10
1559.0307865046
 20
-474.5131165944995
 30
0.0
 10
1552.213834965894
 20
-473.132885928082
 30
0.0
 10
1545.124387789499
 20
-472.7831630029059
 30
0.0
 10
1538.502116711612
 20
-470.811658133106
 30
0.0
 10
1511.023382971129
 20
-462.6308922937078
 30
0.0
 10
1483.712821224619
 20
-453.887079848857
 30
0.0
 10
1456.269432106599
 20
-445.5848480456989
 30
0.0
 10
1428.063568270147
 20
-437.0520166309961
 30
0.0
 10
1399.698653632615
 20
-429.0380733122083
 30
0.0
 10
1371.569037268004
 20
-420.2653073151105
 30
0.0
 10
1363.023619676
 20
-417.6002221276922
 30
0.0
 10
1356.81935576618
 20
-420.0308418854856
 30
0.0
 10
1350.11542150817
 20
-424.9917420130705
 30
0.0
 10
1325.828250168544
 20
-442.9641752291463
 30
0.0
 10
1301.242644798936
 20
-460.533721614006
 30
0.0
 10
1274.357429930402
 20
-480.0021239924563
 30
0.0
  0
SPLINE
  5
56
330
45
100
AcDbEntity
  8
Layer 1
370
     0
100
AcDbSpline
210
0.0
220
0.0
230
1.0
 70
    11
 71
     3
 72
    38
 73
    34
 74
     0
 42
0.0000000001
 43
0.0000000001
 12
1.0
 22
0.0
 32
0.0
 13
1.0
 23
0.0
 33
0.0
 40
0.0
 40
0.0
 40
0.0
 40
0.0
 40
1.0
 40
1.0
 40
1.0
 40
2.0
 40
2.0
 40
2.0
 40
3.0
 40
3.0
 40
3.0
 40
4.0
 40
4.0
 40
4.0
 40
5.0
 40
5.0
 40
5.0
 40
6.0
 40
6.0
 40
6.0
 40
7.0
 40
7.0
 40
7.0
 40
8.0
 40
8.0
 40
8.0
 40
9.0
 40
9.0
 40
9.0
 40
10.0
 40
10.0
 40
10.0
 40
11.0
 40
11.0
 40
11.0
 40
11.0
 10
748.1213223994682
 20
-494.932510221066
 30
0.0
 10
734.5687262055835
 20
-518.9111821518345
 30
0.0
 10
732.4616593878891
 20
-542.5237147917005
 30
0.0
 10
724.5356990601204
 20
-564.0058699089877
 30
0.0
 10
716.2141069906011
 20
-586.5604421547832
 30
0.0
 10
709.4927854586376
 20
-609.7221081728876
 30
0.0
 10
702.5334577996109
 20
-632.7578589734703
 30
0.0
 10
695.9105453878492
 20
-654.6802363516726
 30
0.0
 10
689.8830045903396
 20
-676.7825256967317
 30
0.0
 10
683.8052972319165
 20
-698.0648874970266
 30
0.0
 10
694.4311306561312
 20
-707.2401305842532
 30
0.0
 10
705.0516908907048
 20
-708.7932274523127
 30
0.0
 10
716.130448549532
 20
-708.7837499628222
 30
0.0
 10
795.4942329522919
 20
-708.7156973127185
 30
0.0
 10
874.858729948247
 20
-708.7551393460508
 30
0.0
 10
954.2208041273398
 20
-708.3485336691001
 30
0.0
 10
961.7469996728269
 20
-708.3099823772609
 30
0.0
 10
969.5325791412197
 20
-706.2025236333093
 30
0.0
 10
976.6849482967164
 20
-703.6300978297513
 30
0.0
 10
981.8159755958513
 20
-701.7846239738665
 30
0.0
 10
982.3551948663544
 20
-696.4558520631754
 30
0.0
 10
979.394370141973
 20
-691.9219066019596
 30
0.0
 10
977.7672348409742
 20
-689.4303066815228
 30
0.0
 10
975.0141310328763
 20
-687.6484139534432
 30
0.0
 10
972.6833812113337
 20
-685.6457954832749
 30
0.0
 10
943.2240659452327
 20
-660.333772610893
 30
0.0
 10
913.697268103585
 20
-635.1001171751077
 30
0.0
 10
884.2916111050527
 20
-609.7259739909687
 30
0.0
 10
848.4186720485013
 20
-578.7711750166072
 30
0.0
 10
812.7253777363576
 20
-547.60769312515
 30
0.0
 10
776.765217272763
 20
-516.7549464036983
 30
0.0
 10
768.6685196155222
 20
-509.8082850887095
 30
0.0
 10
759.7896084083513
 20
-503.7734580257829
 30
0.0
 10
748.1213223994682
 20
-494.932510221066
 30
0.0
  0
SPLINE
  5
57
330
45
100
AcDbEntity
  8
Layer 1
370
     0
100
AcDbSpline
210
0.0
220
0.0
230
1.0
 70
    11
 71
     3
 72
    41
 73
    37
 74
     0
 42
0.0000000001
 43
0.0000000001
 12
1.0
 22
0.0
 32
0.0
 13
1.0
 23
0.0
 33
0.0
 40
0.0
 40
0.0
 40
0.0
 40
0.0
 40
1.0
 40
1.0
 40
1.0
 40
2.0
 40
2.0
 40
2.0
 40
3.0
 40
3.0
 40
3.0
 40
4.0
 40
4.0
 40
4.0
 40
5.0
 40
5.0
 40
5.0
 40
6.0
 40
6.0
 40
6.0
 40
7.0
 40
7.0
 40
7.0
 40
8.0
 40
8.0
 40
8.0
 40
9.0
 40
9.0
 40
9.0
 40
10.0
 40
10.0
 40
10.0
 40
11.0
 40
11.0
 40
11.0
 40
12.0
 40
12.0
 40
12.0
 40
12.0
 10
1258.158690166958
 20
-504.5570967621015
 30
0.0
 10
1249.568521722318
 20
-500.5526882113545
 30
0.0
 10
1244.289560075944
 20
-504.7700641457814
 30
0.0
 10
1238.854540519907
 20
-509.7307638565308
 30
0.0
 10
1222.820979859018
 20
-524.3649429088928
 30
0.0
 10
1206.766326439561
 20
-538.9884776004083
 30
0.0
 10
1190.346896563689
 20
-553.1848215790578
 30
0.0
 10
1161.573024691665
 20
-578.0629642699587
 30
0.0
 10
1132.381003132932
 20
-602.4577371819987
 30
0.0
 10
1103.630290539737
 20
-627.3621745617875
 30
0.0
 10
1080.159394704751
 20
-647.6930641135596
 30
0.0
 10
1056.993773794416
 20
-668.3801255589215
 30
0.0
 10
1033.940172534303
 20
-689.1833575098653
 30
0.0
 10
1031.417450106084
 20
-691.459789915134
 30
0.0
 10
1028.471233542195
 20
-696.3437611536337
 30
0.0
 10
1029.350217247978
 20
-698.612052181652
 30
0.0
 10
1030.767351334471
 20
-702.2689379387102
 30
0.0
 10
1034.762291303141
 20
-706.3317524091854
 30
0.0
 10
1038.468987324515
 20
-707.3731004744022
 30
0.0
 10
1044.286598166838
 20
-709.0074329666686
 30
0.0
 10
1050.770483646296
 20
-708.5011711314255
 30
0.0
 10
1056.972253479933
 20
-708.5015274280231
 30
0.0
 10
1134.701990427704
 20
-708.5061949134488
 30
0.0
 10
1212.431656116156
 20
-708.4434510826468
 30
0.0
 10
1290.161393063927
 20
-708.3809566594628
 30
0.0
 10
1296.38019387492
 20
-708.3759685071
 30
0.0
 10
1302.612533956615
 20
-708.4826793380207
 30
0.0
 10
1308.815230161406
 20
-708.1278079270114
 30
0.0
 10
1326.544548847953
 20
-707.1134315142181
 30
0.0
 10
1331.458021444718
 20
-700.5231558707774
 30
0.0
 10
1326.164594156488
 20
-684.3713581840411
 30
0.0
 10
1322.546473469225
 20
-673.3316506322881
 30
0.0
 10
1318.349727107789
 20
-662.4756852358132
 30
0.0
 10
1314.217826727077
 20
-651.6113290544699
 30
0.0
 10
1295.744418226523
 20
-603.0374495607957
 30
0.0
 10
1277.201318111516
 20
-554.490025089478
 30
0.0
 10
1258.158690166958
 20
-504.5570967621015
 30
0.0
  0
SPLINE
  5
58
330
45
100
AcDbEntity
  8
Layer 1
370
     0
100
AcDbSpline
210
0.0
220
0.0
230
1.0
 70
    11
 71
     3
 72
    38
 73
    34
 74
     0
 42
0.0000000001
 43
0.0000000001
 12
1.0
 22
0.0
 32
0.0
 13
1.0
 23
0.0
 33
0.0
 40
0.0
 40
0.0
 40
0.0
 40
0.0
 40
1.0
 40
1.0
 40
1.0
 40
2.0
 40
2.0
 40
2.0
 40
3.0
 40
3.0
 40
3.0
 40
4.0
 40
4.0
 40
4.0
 40
5.0
 40
5.0
 40
5.0
 40
6.0
 40
6.0
 40
6.0
 40
7.0
 40
7.0
 40
7.0
 40
8.0
 40
8.0
 40
8.0
 40
9.0
 40
9.0
 40
9.0
 40
10.0
 40
10.0
 40
10.0
 40
11.0
 40
11.0
 40
11.0
 40
11.0
 10
1625.402286742545
 20
-699.1911410414032
 30
0.0
 10
1622.158277482551
 20
-696.0346025960707
 30
0.0
 10
1619.140587821224
 20
-691.5658594121796
 30
0.0
 10
1614.937285602395
 20
-689.2340763305056
 30
0.0
 10
1526.060097011818
 20
-639.9302163680804
 30
0.0
 10
1437.03924963317
 20
-590.8852058836655
 30
0.0
 10
1348.084388384359
 20
-541.7212279653795
 30
0.0
 10
1341.309194806869
 20
-537.9766576157017
 30
0.0
 10
1334.786544257615
 20
-533.7699438569516
 30
0.0
 10
1328.195912317577
 20
-529.6978122304545
 30
0.0
 10
1313.038912545606
 20
-520.3326185197402
 30
0.0
 10
1298.020725927981
 20
-510.733818944942
 30
0.0
 10
1282.671611030695
 20
-501.6962755851946
 30
0.0
 10
1279.96746237508
 20
-500.104173147135
 30
0.0
 10
1275.930764445193
 20
-500.7754982885381
 30
0.0
 10
1271.176841464745
 20
-500.2559198679664
 30
0.0
 10
1271.8541612964
 20
-505.355904826054
 30
0.0
 10
1271.691975085263
 20
-508.5225888169971
 30
0.0
 10
1272.721173436508
 20
-511.2376935929824
 30
0.0
 10
1294.176000604775
 20
-567.8397103711441
 30
0.0
 10
1315.757455583756
 20
-624.3937607198814
 30
0.0
 10
1337.333352335818
 20
-680.949859774053
 30
0.0
 10
1345.731833211057
 20
-702.9644645264925
 30
0.0
 10
1352.833536990403
 20
-708.0725463247545
 30
0.0
 10
1377.674963316942
 20
-708.2398275772339
 30
0.0
 10
1415.746537416719
 20
-708.4961473494022
 30
0.0
 10
1453.821531963833
 20
-708.2695783431163
 30
0.0
 10
1491.894958805917
 20
-708.2494475853637
 30
0.0
 10
1528.414789964705
 20
-708.230136309784
 30
0.0
 10
1564.935761272605
 20
-708.3733675419389
 30
0.0
 10
1601.45331213317
 20
-708.0696959519755
 30
0.0
 10
1609.526993030218
 20
-708.0025696730263
 30
0.0
 10
1618.981394501507
 20
-710.7729894957574
 30
0.0
 10
1625.402286742545
 20
-699.1911410414032
 30
0.0
  0
SPLINE
  5
59
330
45
100
AcDbEntity
  8
Layer 1
370
     0
100
AcDbSpline
210
0.0
220
0.0
230
1.0
 70
    11
 71
     3
 72
    35
 73
    31
 74
     0
 42
0.0000000001
 43
0.0000000001
 12
1.0
 22
0.0
 32
0.0
 13
1.0
 23
0.0
 33
0.0
 40
0.0
 40
0.0
 40
0.0
 40
0.0
 40
1.0
 40
1.0
 40
1.0
 40
2.0
 40
2.0
 40
2.0
 40
3.0
 40
3.0
 40
3.0
 40
4.0
 40
4.0
 40
4.0
 40
5.0
 40
5.0
 40
5.0
 40
6.0
 40
6.0
 40
6.0
 40
7.0
 40
7.0
 40
7.0
 40
8.0
 40
8.0
 40
8.0
 40
9.0
 40
9.0
 40
9.0
 40
10.0
 40
10.0
 40
10.0
 40
10.0
 10
728.5299976949154
 20
-502.9059916075121
 30
0.0
 10
721.9571093254281
 20
-505.396843305095
 30
0.0
 10
717.588628004045
 20
-506.3947499076739
 30
0.0
 10
713.903238519194
 20
-508.5568467348367
 30
0.0
 10
691.8205454869922
 20
-521.5118533681498
 30
0.0
 10
670.0024026783594
 20
-534.9185906424746
 30
0.0
 10
647.8960515520903
 20
-547.832355944639
 30
0.0
 10
588.2315140932342
 20
-582.6863758067802
 30
0.0
 10
528.4247074030372
 20
-617.2969025742595
 30
0.0
 10
468.764481133011
 20
-652.1582443314765
 30
0.0
 10
447.9784583077217
 20
-664.3041637440028
 30
0.0
 10
427.3785291952527
 20
-676.7749900236959
 30
0.0
 10
406.8604057815473
 20
-689.3691840002393
 30
0.0
 10
400.6356904470376
 20
-693.1900018217611
 30
0.0
 10
392.7166066435993
 20
-696.3515640491169
 30
0.0
 10
394.3789440484215
 20
-707.1513058425217
 30
0.0
 10
397.6928230711655
 20
-707.8414523516822
 30
0.0
 10
400.6346571869053
 20
-708.9889411732638
 30
0.0
 10
403.5764556729855
 20
-708.9888342842842
 30
0.0
 10
485.2908356177622
 20
-708.985912652186
 30
0.0
 10
567.0057143777758
 20
-708.9884779876875
 30
0.0
 10
648.719239210719
 20
-708.6663146043193
 30
0.0
 10
665.5981135489374
 20
-708.5997583999251
 30
0.0
 10
669.1794644273477
 20
-705.3552859543552
 30
0.0
 10
674.6431658594738
 20
-687.7286697620075
 30
0.0
 10
692.1328038249521
 20
-631.3048280047897
 30
0.0
 10
709.4910752349697
 20
-574.8400299537007
 30
0.0
 10
726.723146390189
 20
-518.3370458147865
 30
0.0
 10
727.9609920288704
 20
-514.2779902734137
 30
0.0
 10
727.7708009051794
 20
-509.7833888639661
 30
0.0
 10
728.5299976949154
 20
-502.9059916075121
 30
0.0
  0
SPLINE
  5
5A
330
45
100
AcDbEntity
  8
Layer 1
370
     0
100
AcDbSpline
210
0.0
220
0.0
230
1.0
 70
    11
 71
     3
 72
    35
 73
    31
 74
     0
 42
0.0000000001
 43
0.0000000001
 12
1.0
 22
0.0
 32
0.0
 13
1.0
 23
0.0
 33
0.0
 40
0.0
 40
0.0
 40
0.0
 40
0.0
 40
1.0
 40
1.0
 40
1.0
 40
2.0
 40
2.0
 40
2.0
 40
3.0
 40
3.0
 40
3.0
 40
4.0
 40
4.0
 40
4.0
 40
5.0
 40
5.0
 40
5.0
 40
6.0
 40
6.0
 40
6.0
 40
7.0
 40
7.0
 40
7.0
 40
8.0
 40
8.0
 40
8.0
 40
9.0
 40
9.0
 40
9.0
 40
10.0
 40
10.0
 40
10.0
 40
10.0
 10
199.4328730239476
 20
-707.0347612255127
 30
0.0
 10
208.028706584485
 20
-708.0866912996717
 30
0.0
 10
211.7666854471117
 20
-708.9373137963012
 30
0.0
 10
215.5056084957223
 20
-708.9414468368304
 30
0.0
 10
257.4957414811033
 20
-708.988192950409
 30
0.0
 10
299.486453448455
 20
-709.0015184431522
 30
0.0
 10
341.4760965260157
 20
-708.8147477667953
 30
0.0
 10
362.0259659665489
 20
-708.7233576895633
 30
0.0
 10
365.5871860872066
 20
-705.6702165167953
 30
0.0
 10
368.9868257009439
 20
-685.6004032967667
 30
0.0
 10
371.9671932936926
 20
-668.0057112795457
 30
0.0
 10
374.3658710615282
 20
-650.312164771376
 30
0.0
 10
377.3732815660196
 20
-632.7224252768592
 30
0.0
 10
383.7742033827726
 20
-595.2847740831721
 30
0.0
 10
390.5722355721564
 20
-557.9135365752409
 30
0.0
 10
396.6516175245879
 20
-520.4249260607112
 30
0.0
 10
397.1976420601004
 20
-517.0578430485612
 30
0.0
 10
393.7006265862947
 20
-513.0351119452935
 30
0.0
 10
391.146478798184
 20
-507.1705412114343
 30
0.0
 10
378.8139312279409
 20
-517.9588458840626
 30
0.0
 10
367.724359967382
 20
-526.4424460164191
 30
0.0
 10
358.06095491206
 20
-536.3211343833045
 30
0.0
 10
312.9592748341829
 20
-582.4275619584296
 30
0.0
 10
268.2550614255333
 20
-628.9227714732224
 30
0.0
 10
223.3965626827958
 20
-675.2671962679951
 30
0.0
 10
219.071513916635
 20
-679.7355118959695
 30
0.0
 10
214.213864089269
 20
-683.773635012245
 30
0.0
 10
210.422342755468
 20
-688.6483781688721
 30
0.0
 10
206.830623646073
 20
-693.2662136639447
 30
0.0
 10
204.316060409933
 20
-698.7217915336505
 30
0.0
 10
199.4328730239476
 20
-707.0347612255127
 30
0.0
  0
SPLINE
  5
5B
330
45
100
AcDbEntity
  8
Layer 1
370
     0
100
AcDbSpline
210
0.0
220
0.0
230
1.0
 70
    11
 71
     3
 72
    35
 73
    31
 74
     0
 42
0.0000000001
 43
0.0000000001
 12
1.0
 22
0.0
 32
0.0
 13
1.0
 23
0.0
 33
0.0
 40
0.0
 40
0.0
 40
0.0
 40
0.0
 40
1.0
 40
1.0
 40
1.0
 40
2.0
 40
2.0
 40
2.0
 40
3.0
 40
3.0
 40
3.0
 40
4.0
 40
4.0
 40
4.0
 40
5.0
 40
5.0
 40
5.0
 40
6.0
 40
6.0
 40
6.0
 40
7.0
 40
7.0
 40
7.0
 40
8.0
 40
8.0
 40
8.0
 40
9.0
 40
9.0
 40
9.0
 40
10.0
 40
10.0
 40
10.0
 40
10.0
 10
1609.109270899429
 20
-510.4037279622817
 30
0.0
 10
1609.723668751983
 20
-516.1176564947609
 30
0.0
 10
1609.649131503807
 20
-520.5182312321549
 30
0.0
 10
1610.73213064126
 20
-524.6125868589152
 30
0.0
 10
1615.292299532042
 20
-541.8540018924004
 30
0.0
 10
1620.588577193052
 20
-558.9067133404887
 30
0.0
 10
1624.896915648795
 20
-576.2074428500264
 30
0.0
 10
1634.074830960501
 20
-613.0627806997545
 30
0.0
 10
1643.247330563927
 20
-649.9312302642675
 30
0.0
 10
1651.491748790449
 20
-687.0011655546095
 30
0.0
 10
1654.57613717481
 20
-700.8700462380048
 30
0.0
 10
1662.986447097081
 20
-706.3454698281857
 30
0.0
 10
1675.65920447335
 20
-707.8878065390036
 30
0.0
 10
1678.725635509199
 20
-708.2610628544389
 30
0.0
 10
1681.86603371867
 20
-708.1250644432112
 30
0.0
 10
1684.970232193846
 20
-708.0767862542643
 30
0.0
 10
1722.673538130552
 20
-707.4905358329042
 30
0.0
 10
1760.365300057503
 20
-705.878899433892
 30
0.0
 10
1798.094829423779
 20
-707.2171850833802
 30
0.0
 10
1801.160262829157
 20
-707.3259624345665
 30
0.0
 10
1804.352395304568
 20
-703.8616193587413
 30
0.0
 10
1809.435465081693
 20
-700.9350703670298
 30
0.0
 10
1804.729357104616
 20
-695.032874712485
 30
0.0
 10
1801.453851225413
 20
-689.9925248973877
 30
0.0
 10
1797.290169188214
 20
-685.8437895024499
 30
0.0
 10
1742.282107590419
 20
-631.0358775182431
 30
0.0
 10
1687.156610634122
 20
-576.3460065967547
 30
0.0
 10
1632.036101830186
 20
-521.6511297080733
 30
0.0
 10
1626.616830583756
 20
-516.273696589592
 30
0.0
 10
1621.694664350016
 20
-509.9281788937342
 30
0.0
 10
1609.109270899429
 20
-510.4037279622817
 30
0.0
  0
SPLINE
  5
5C
330
45
100
AcDbEntity
  8
Layer 1
370
     0
100
AcDbSpline
210
0.0
220
0.0
230
1.0
 70
    11
 71
     3
 72
    26
 73
    22
 74
     0
 42
0.0000000001
 43
0.0000000001
 12
1.0
 22
0.0
 32
0.0
 13
1.0
 23
0.0
 33
0.0
 40
0.0
 40
0.0
 40
0.0
 40
0.0
 40
1.0
 40
1.0
 40
1.0
 40
2.0
 40
2.0
 40
2.0
 40
3.0
 40
3.0
 40
3.0
 40
4.0
 40
4.0
 40
4.0
 40
5.0
 40
5.0
 40
5.0
 40
6.0
 40
6.0
 40
6.0
 40
7.0
 40
7.0
 40
7.0
 40
7.0
 10
541.7498794788035
 20
-1105.881117767491
 30
0.0
 10
538.3996225734654
 20
-1101.23828806611
 30
0.0
 10
535.5653187708203
 20
-1096.093008903079
 30
0.0
 10
531.6141676539701
 20
-1092.035289473946
 30
0.0
 10
508.3491756226204
 20
-1068.14260972696
 30
0.0
 10
484.7978280159423
 20
-1044.529052734375
 30
0.0
 10
461.3920988286209
 20
-1020.773048362153
 30
0.0
 10
412.3269932161129
 20
-970.9736867217252
 30
0.0
 10
363.3495365665649
 20
-921.0878875267699
 30
0.0
 10
314.224733459163
 20
-871.347564232532
 30
0.0
 10
283.1193279130812
 20
-839.8524058385556
 30
0.0
 10
251.9628650645918
 20
-808.404456743735
 30
0.0
 10
220.5235561622585
 20
-777.2438608547163
 30
0.0
 10
207.8543884742076
 20
-764.687006761581
 30
0.0
 10
194.7581013326117
 20
-752.4936820867715
 30
0.0
 10
181.1446229576459
 20
-740.9759313902887
 30
0.0
 10
167.5350816600821
 20
-729.4615655114812
 30
0.0
 10
140.9403286851602
 20
-728.2371166248622
 30
0.0
 10
119.8380837222649
 20
-739.0867755715626
 30
0.0
 10
260.8713845190059
 20
-862.2068106559336
 30
0.0
 10
398.9417495340258
 20
-986.3467803800177
 30
0.0
 10
541.7498794788035
 20
-1105.881117767491
 30
0.0
  0
SPLINE
  5
5D
330
45
100
AcDbEntity
  8
Layer 1
370
     0
100
AcDbSpline
210
0.0
220
0.0
230
1.0
 70
    11
 71
     3
 72
    41
 73
    37
 74
     0
 42
0.0000000001
 43
0.0000000001
 12
1.0
 22
0.0
 32
0.0
 13
1.0
 23
0.0
 33
0.0
 40
0.0
 40
0.0
 40
0.0
 40
0.0
 40
1.0
 40
1.0
 40
1.0
 40
2.0
 40
2.0
 40
2.0
 40
3.0
 40
3.0
 40
3.0
 40
4.0
 40
4.0
 40
4.0
 40
5.0
 40
5.0
 40
5.0
 40
6.0
 40
6.0
 40
6.0
 40
7.0
 40
7.0
 40
7.0
 40
8.0
 40
8.0
 40
8.0
 40
9.0
 40
9.0
 40
9.0
 40
10.0
 40
10.0
 40
10.0
 40
11.0
 40
11.0
 40
11.0
 40
12.0
 40
12.0
 40
12.0
 40
12.0
 10
1894.908595980727
 20
-729.8921143197786
 30
0.0
 10
1876.26416511342
 20
-730.7216084281818
 30
0.0
 10
1863.18622724659
 20
-730.6665606038832
 30
0.0
 10
1850.283587305679
 20
-732.1431249628222
 30
0.0
 10
1843.718893757932
 20
-732.8943407087772
 30
0.0
 10
1836.349682493259
 20
-734.9760392087373
 30
0.0
 10
1831.300104596288
 20
-738.9448270071589
 30
0.0
 10
1819.126875049571
 20
-748.5124595370999
 30
0.0
 10
1807.450607996907
 20
-758.9176028488864
 30
0.0
 10
1796.734631533551
 20
-770.0977625193336
 30
0.0
 10
1754.275621133407
 20
-814.3962966221852
 30
0.0
 10
1712.344927327887
 20
-859.200593745044
 30
0.0
 10
1670.061927446859
 20
-903.6688675468959
 30
0.0
 10
1624.008169416244
 20
-952.102936255751
 30
0.0
 10
1577.666808772208
 20
-1000.263689844743
 30
0.0
 10
1531.694713921715
 20
-1048.774825507615
 30
0.0
 10
1516.636194529267
 20
-1064.665154936351
 30
0.0
 10
1502.340719929807
 20
-1081.278766457806
 30
0.0
 10
1487.696359702173
 20
-1097.561592218235
 30
0.0
 10
1491.887262799413
 20
-1098.769223905458
 30
0.0
 10
1494.238820342243
 20
-1098.243330127698
 30
0.0
 10
1495.823485088833
 20
-1096.847003762494
 30
0.0
 10
1524.945031180599
 20
-1071.186309039897
 30
0.0
 10
1554.251708984375
 20
-1045.72542544912
 30
0.0
 10
1582.947124345654
 20
-1019.59406292136
 30
0.0
 10
1612.240405397366
 20
-992.9183504520952
 30
0.0
 10
1640.601329513007
 20
-965.2178577093919
 30
0.0
 10
1669.935798451381
 20
-938.5888200943855
 30
0.0
 10
1709.023530446939
 20
-903.1062395899435
 30
0.0
 10
1748.714543841212
 20
-868.289221129442
 30
0.0
 10
1788.038999296081
 20
-833.0662383258659
 30
0.0
 10
1819.841748542593
 20
-804.580396623177
 30
0.0
 10
1851.590055669019
 20
-776.03124101513
 30
0.0
 10
1883.073420645622
 20
-747.1945540529832
 30
0.0
 10
1887.21515481242
 20
-743.4011710694613
 30
0.0
 10
1889.642532271177
 20
-737.7359839115052
 30
0.0
 10
1894.908595980727
 20
-729.8921143197786
 30
0.0
  0
SPLINE
  5
5E
330
45
100
AcDbEntity
  8
Layer 1
370
     0
100
AcDbSpline
210
0.0
220
0.0
230
1.0
 70
    11
 71
     3
 72
    35
 73
    31
 74
     0
 42
0.0000000001
 43
0.0000000001
 12
1.0
 22
0.0
 32
0.0
 13
1.0
 23
0.0
 33
0.0
 40
0.0
 40
0.0
 40
0.0
 40
0.0
 40
1.0
 40
1.0
 40
1.0
 40
2.0
 40
2.0
 40
2.0
 40
3.0
 40
3.0
 40
3.0
 40
4.0
 40
4.0
 40
4.0
 40
5.0
 40
5.0
 40
5.0
 40
6.0
 40
6.0
 40
6.0
 40
7.0
 40
7.0
 40
7.0
 40
8.0
 40
8.0
 40
8.0
 40
9.0
 40
9.0
 40
9.0
 40
10.0
 40
10.0
 40
10.0
 40
10.0
 10
1080.998544450944
 20
-421.6641477981811
 30
0.0
 10
1083.448796151253
 20
-423.6579457007092
 30
0.0
 10
1085.426456044774
 20
-426.4271808372541
 30
0.0
 10
1087.976969607591
 20
-427.1365272793073
 30
0.0
 10
1097.681277512294
 20
-429.8354784583089
 30
0.0
 10
1107.631501328522
 20
-431.636428600641
 30
0.0
 10
1117.380275048581
 20
-434.1912845282395
 30
0.0
 10
1163.024719548104
 20
-446.1532435538211
 30
0.0
 10
1208.693178438292
 20
-458.033953594073
 30
0.0
 10
1254.198524746193
 20
-470.507256135119
 30
0.0
 10
1262.472016775064
 20
-472.7750661627297
 30
0.0
 10
1269.071912426634
 20
-472.3055741363378
 30
0.0
 10
1275.918507842243
 20
-467.2540722377416
 30
0.0
 10
1292.753949625238
 20
-454.8327088331826
 30
0.0
 10
1309.970628767449
 20
-442.9237177505111
 30
0.0
 10
1326.674668365324
 20
-430.33208910947
 30
0.0
 10
1330.51397798025
 20
-427.4378985293633
 30
0.0
 10
1332.90800607749
 20
-422.6262911297954
 30
0.0
 10
1337.707463763087
 20
-416.4618923555181
 30
0.0
 10
1329.472879322653
 20
-415.3367967750828
 30
0.0
 10
1324.344773655615
 20
-414.0683430318313
 30
0.0
 10
1319.208544426157
 20
-414.0345683412515
 30
0.0
 10
1299.032038190038
 20
-413.901896849502
 30
0.0
 10
1278.853109137055
 20
-414.1923787848
 30
0.0
 10
1258.674750158629
 20
-414.2632795808286
 30
0.0
 10
1206.670411395542
 20
-414.4460018370974
 30
0.0
 10
1154.66536003926
 20
-414.5148472471292
 30
0.0
 10
1102.662018906647
 20
-414.8500421785466
 30
0.0
 10
1095.336917160732
 20
-414.8972581582639
 30
0.0
 10
1086.936726061826
 20
-412.5598233218134
 30
0.0
 10
1080.998544450944
 20
-421.6641477981811
 30
0.0
  0
SPLINE
  5
5F
330
45
100
AcDbEntity
  8
Layer 1
370
     0
100
AcDbSpline
210
0.0
220
0.0
230
1.0
 70
    11
 71
     3
 72
    29
 73
    25
 74
     0
 42
0.0000000001
 43
0.0000000001
 12
1.0
 22
0.0
 32
0.0
 13
1.0
 23
0.0
 33
0.0
 40
0.0
 40
0.0
 40
0.0
 40
0.0
 40
1.0
 40
1.0
 40
1.0
 40
2.0
 40
2.0
 40
2.0
 40
3.0
 40
3.0
 40
3.0
 40
4.0
 40
4.0
 40
4.0
 40
5.0
 40
5.0
 40
5.0
 40
6.0
 40
6.0
 40
6.0
 40
7.0
 40
7.0
 40
7.0
 40
8.0
 40
8.0
 40
8.0
 40
8.0
 10
672.6120971060045
 20
-422.185104641213
 30
0.0
 10
675.4705934476124
 20
-426.7201479413188
 30
0.0
 10
676.2447903241
 20
-429.2248751645166
 30
0.0
 10
677.9423654624052
 20
-430.4458234370668
 30
0.0
 10
696.7884602038384
 20
-444.0007711884946
 30
0.0
 10
715.7983088614374
 20
-457.3276980250021
 30
0.0
 10
734.718014479894
 20
-470.7808741070903
 30
0.0
 10
742.5299598964939
 20
-476.3356894865865
 30
0.0
 10
749.9362260072967
 20
-474.85884009037
 30
0.0
 10
758.7621202807741
 20
-472.0972475158387
 30
0.0
 10
797.1056912030062
 20
-460.0997389972526
 30
0.0
 10
835.8763904861989
 20
-449.473767508106
 30
0.0
 10
874.2959238429967
 20
-437.7091210844565
 30
0.0
 10
887.7874508000868
 20
-433.5777907783013
 30
0.0
 10
902.7933095554408
 20
-432.4954196136023
 30
0.0
 10
915.4374919445982
 20
-421.2755662753507
 30
0.0
 10
911.0698657350495
 20
-419.1603157701838
 30
0.0
 10
908.360515149112
 20
-416.6971282765353
 30
0.0
 10
905.661782201777
 20
-416.7088771568342
 30
0.0
 10
831.3285494576858
 20
-417.0325124905203
 30
0.0
 10
756.9960293067888
 20
-417.5737782396045
 30
0.0
 10
682.6653618982
 20
-418.2774506583437
 30
0.0
 10
679.9365575180436
 20
-418.3032843885094
 30
0.0
 10
677.2266368575511
 20
-420.328850586403
 30
0.0
 10
672.6120971060045
 20
-422.185104641213
 30
0.0
  0
SPLINE
  5
60
330
45
100
AcDbEntity
  8
Layer 1
370
     0
100
AcDbSpline
210
0.0
220
0.0
230
1.0
 70
    11
 71
     3
 72
    32
 73
    28
 74
     0
 42
0.0000000001
 43
0.0000000001
 12
1.0
 22
0.0
 32
0.0
 13
1.0
 23
0.0
 33
0.0
 40
0.0
 40
0.0
 40
0.0
 40
0.0
 40
1.0
 40
1.0
 40
1.0
 40
2.0
 40
2.0
 40
2.0
 40
3.0
 40
3.0
 40
3.0
 40
4.0
 40
4.0
 40
4.0
 40
5.0
 40
5.0
 40
5.0
 40
6.0
 40
6.0
 40
6.0
 40
7.0
 40
7.0
 40
7.0
 40
8.0
 40
8.0
 40
8.0
 40
9.0
 40
9.0
 40
9.0
 40
9.0
 10
1714.29201697335
 20
-577.0566579750957
 30
0.0
 10
1712.942507981044
 20
-578.6399509797857
 30
0.0
 10
1711.592998988737
 20
-580.223261799305
 30
0.0
 10
1710.24348999643
 20
-581.806554803994
 30
0.0
 10
1713.367783599699
 20
-585.9598864250383
 30
0.0
 10
1716.029461700904
 20
-590.5833870360093
 30
0.0
 10
1719.693045833994
 20
-594.1885741567858
 30
0.0
 10
1740.095444112865
 20
-614.2651570121661
 30
0.0
 10
1760.899032360407
 20
-633.9348491533165
 30
0.0
 10
1781.24613340736
 20
-654.0662660550352
 30
0.0
 10
1794.432100402522
 20
-667.1125291543576
 30
0.0
 10
1806.858728089308
 20
-680.9270033473294
 30
0.0
 10
1820.069920883565
 20
-693.9464194980374
 30
0.0
 10
1824.917549869131
 20
-698.7236086462972
 30
0.0
 10
1830.562285602395
 20
-704.5766710000607
 30
0.0
 10
1836.679185586532
 20
-705.8167613073056
 30
0.0
 10
1853.049589050603
 20
-709.135485963774
 30
0.0
 10
1869.849401173858
 20
-709.6903822845625
 30
0.0
 10
1886.715484464228
 20
-705.37930034502
 30
0.0
 10
1886.485744418227
 20
-701.8667147099077
 30
0.0
 10
1887.246651431631
 20
-698.6111970698175
 30
0.0
 10
1886.064601840102
 20
-697.577224344167
 30
0.0
 10
1841.732183930837
 20
-658.801180612013
 30
0.0
 10
1789.578058078205
 20
-630.8861438731865
 30
0.0
 10
1743.167575894273
 20
-594.9418920526659
 30
0.0
 10
1734.265006593036
 20
-588.0470540777687
 30
0.0
 10
1723.953498027045
 20
-582.9715021588481
 30
0.0
 10
1714.29201697335
 20
-577.0566579750957
 30
0.0
  0
SPLINE
  5
61
330
45
100
AcDbEntity
  8
Layer 1
370
     0
100
AcDbSpline
210
0.0
220
0.0
230
1.0
 70
    11
 71
     3
 72
    26
 73
    22
 74
     0
 42
0.0000000001
 43
0.0000000001
 12
1.0
 22
0.0
 32
0.0
 13
1.0
 23
0.0
 33
0.0
 40
0.0
 40
0.0
 40
0.0
 40
0.0
 40
1.0
 40
1.0
 40
1.0
 40
2.0
 40
2.0
 40
2.0
 40
3.0
 40
3.0
 40
3.0
 40
4.0
 40
4.0
 40
4.0
 40
5.0
 40
5.0
 40
5.0
 40
6.0
 40
6.0
 40
6.0
 40
7.0
 40
7.0
 40
7.0
 40
7.0
 10
136.1777521511021
 20
-705.1279687252154
 30
0.0
 10
154.261140581315
 20
-713.3483725610731
 30
0.0
 10
169.2071014249386
 20
-709.282137643263
 30
0.0
 10
181.9899010053141
 20
-697.9276776773686
 30
0.0
 10
197.5341328267523
 20
-684.1203294163433
 30
0.0
 10
212.0313781893192
 20
-669.1285265617571
 30
0.0
 10
226.8827823697011
 20
-654.548495684784
 30
0.0
 10
243.4144545811687
 20
-638.318882821176
 30
0.0
 10
259.9344491716565
 20
-622.0742342411577
 30
0.0
 10
276.2133556695153
 20
-605.5929869056363
 30
0.0
 10
279.1791507314301
 20
-602.5903329607199
 30
0.0
 10
280.9633059429034
 20
-598.4205760665363
 30
0.0
 10
285.7875618716789
 20
-590.901399564018
 30
0.0
 10
277.5573776942219
 20
-594.2984560274235
 30
0.0
 10
272.9634497008346
 20
-595.184690368963
 30
0.0
 10
269.6284422898652
 20
-597.7241943669205
 30
0.0
 10
226.6238972620313
 20
-630.4707732999395
 30
0.0
 10
183.7683554712285
 20
-663.4137072877847
 30
0.0
 10
141.0199698820934
 20
-696.4941539473957
 30
0.0
 10
138.9276893731903
 20
-698.1132013156339
 30
0.0
 10
138.1701716311691
 20
-701.4571517711975
 30
0.0
 10
136.1777521511021
 20
-705.1279687252154
 30
0.0
  0
SPLINE
  5
62
330
45
100
AcDbEntity
  8
Layer 1
370
     0
100
AcDbSpline
210
0.0
220
0.0
230
1.0
 70
    11
 71
     3
 72
    23
 73
    19
 74
     0
 42
0.0000000001
 43
0.0000000001
 12
1.0
 22
0.0
 32
0.0
 13
1.0
 23
0.0
 33
0.0
 40
0.0
 40
0.0
 40
0.0
 40
0.0
 40
1.0
 40
1.0
 40
1.0
 40
2.0
 40
2.0
 40
2.0
 40
3.0
 40
3.0
 40
3.0
 40
4.0
 40
4.0
 40
4.0
 40
5.0
 40
5.0
 40
5.0
 40
6.0
 40
6.0
 40
6.0
 40
6.0
 10
1530.799554350413
 20
-454.5917899814367
 30
0.0
 10
1531.016325200269
 20
-452.9158821299607
 30
0.0
 10
1531.233096050128
 20
-451.2399742784846
 30
0.0
 10
1531.449724381346
 20
-449.5640708807168
 30
0.0
 10
1504.528523556472
 20
-431.9482638363916
 30
0.0
 10
1481.263353376824
 20
-406.083845399964
 30
0.0
 10
1443.370070094385
 20
-413.3608137024248
 30
0.0
 10
1439.106339972637
 20
-414.1796077786375
 30
0.0
 10
1434.07129897684
 20
-410.8759344265554
 30
0.0
 10
1429.767663636183
 20
-411.6264108570704
 30
0.0
 10
1426.456670615878
 20
-412.2037805857399
 30
0.0
 10
1423.732854388087
 20
-416.1487054195513
 30
0.0
 10
1417.935338673858
 20
-420.9022542885723
 30
0.0
 10
1455.04619462841
 20
-433.5024652239035
 30
0.0
 10
1488.559880135628
 20
-444.9771619302983
 30
0.0
 10
1522.189860852237
 20
-456.1001359968632
 30
0.0
 10
1524.626929578442
 20
-456.9061813354501
 30
0.0
 10
1527.909846426872
 20
-455.1543689476057
 30
0.0
 10
1530.799554350413
 20
-454.5917899814367
 30
0.0
  0
SPLINE
  5
63
330
45
100
AcDbEntity
  8
Layer 1
370
     0
100
AcDbSpline
210
0.0
220
0.0
230
1.0
 70
    11
 71
     3
 72
    11
 73
     7
 74
     0
 42
0.0000000001
 43
0.0000000001
 12
1.0
 22
0.0
 32
0.0
 13
1.0
 23
0.0
 33
0.0
 40
0.0
 40
0.0
 40
0.0
 40
0.0
 40
1.0
 40
1.0
 40
1.0
 40
2.0
 40
2.0
 40
2.0
 40
2.0
 10
472.0766855617467
 20
-452.4190220711807
 30
0.0
 10
490.7230404306792
 20
-454.9573057532925
 30
0.0
 10
546.4267355052343
 20
-433.6828982745337
 30
0.0
 10
557.4494120796317
 20
-420.6808849857553
 30
0.0
 10
522.4656111818886
 20
-412.9290980227715
 30
0.0
 10
494.3551635742188
 20
-422.744570465863
 30
0.0
 10
472.0766855617467
 20
-452.4190220711807
 30
0.0
  0
HATCH
  5
64
330
45
100
AcDbEntity
  8
Layer 1
 62
     7
420
 16777215
100
AcDbHatch
 10
0.0
 20
0.0
 30
0.0
210
0.0
220
0.0
230
1.0
  2
SOLID
 70
     1
 71
     0
 91
       27
 92
        1
 93
        1
 72
     4
 94
        3
 73
     0
 74
     1
 95
      113
 96
      109
 40
0.0
 40
0.0
 40
0.0
 40
0.0
 40
1.0
 40
1.0
 40
1.0
 40
2.0
 40
2.0
 40
2.0
 40
3.0
 40
3.0
 40
3.0
 40
4.0
 40
4.0
 40
4.0
 40
5.0
 40
5.0
 40
5.0
 40
6.0
 40
6.0
 40
6.0
 40
7.0
 40
7.0
 40
7.0
 40
8.0
 40
8.0
 40
8.0
 40
9.0
 40
9.0
 40
9.0
 40
10.0
 40
10.0
 40
10.0
 40
11.0
 40
11.0
 40
11.0
 40
12.0
 40
12.0
 40
12.0
 40
13.0
 40
13.0
 40
13.0
 40
14.0
 40
14.0
 40
14.0
 40
15.0
 40
15.0
 40
15.0
 40
16.0
 40
16.0
 40
16.0
 40
17.0
 40
17.0
 40
17.0
 40
18.0
 40
18.0
 40
18.0
 40
19.0
 40
19.0
 40
19.0
 40
20.0
 40
20.0
 40
20.0
 40
21.0
 40
21.0
 40
21.0
 40
22.0
 40
22.0
 40
22.0
 40
23.0
 40
23.0
 40
23.0
 40
24.0
 40
24.0
 40
24.0
 40
25.0
 40
25.0
 40
25.0
 40
26.0
 40
26.0
 40
26.0
 40
27.0
 40
27.0
 40
27.0
 40
28.0
 40
28.0
 40
28.0
 40
29.0
 40
29.0
 40
29.0
 40
30.0
 40
30.0
 40
30.0
 40
31.0
 40
31.0
 40
31.0
 40
32.0
 40
32.0
 40
32.0
 40
33.0
 40
33.0
 40
33.0
 40
34.0
 40
34.0
 40
34.0
 40
35.0
 40
35.0
 40
35.0
 40
36.0
 40
36.0
 40
36.0
 40
36.0
 10
1025.743498051832
 20
-1542.801720633724
 10
1007.594034417632
 20
-1542.172287064761
 10
996.6488167235093
 20
-1533.248268708361
 10
985.402670923223
 20
-1522.970964615721
 10
951.0023769630388
 20
-1491.533846937462
 10
915.5991793404983
 20
-1461.196189299453
 10
880.6973622898158
 20
-1430.305345564326
 10
862.0849981162755
 20
-1413.831829864968
 10
843.7317328283625
 20
-1397.066150955743
 10
825.2095829532836
 20
-1380.490378132932
 10
777.1701127260467
 20
-1337.498633060359
 10
729.2880543355404
 20
-1294.328525911129
 10
680.9908391497465
 20
-1251.628017677269
 10
636.2186443503133
 20
-1212.043964521534
 10
590.8669331352121
 20
-1173.115782142291
 10
546.0167806402678
 20
-1133.619092912239
 10
524.449221228585
 20
-1114.625918935399
 10
503.7008945833004
 20
-1094.70266832071
 10
482.1356867291597
 20
-1075.706786489729
 10
447.1923254952217
 20
-1044.926608477754
 10
411.772381932602
 20
-1014.688072553141
 10
376.7599704180875
 20
-983.9855315697387
 10
347.5711198990721
 20
-958.3898253465068
 10
318.7438391670967
 20
-932.382240256683
 10
289.6397872382613
 20
-906.6891581733826
 10
241.3312061910101
 20
-864.0424507257303
 10
192.9224968924736
 20
-821.50918811469
 10
144.5701982527216
 20
-778.9119346347561
 10
130.0003708195563
 20
-766.0762784541566
 10
115.21904795303
 20
-753.4652672782167
 10
101.0030052262518
 20
-740.2475898858866
 10
85.4496221493946
 20
-725.7864373686361
 10
86.11278809871783
 20
-714.6277980126715
 10
103.3362624850979
 20
-702.1842462375089
 10
171.2698004088425
 20
-653.1038198713122
 10
239.6029539156689
 20
-604.5733373032017
 10
307.3126507289517
 20
-555.1873153454162
 10
359.9573257368829
 20
-516.7894537291559
 10
411.795006766537
 20
-477.2869390497362
 10
464.2167469934766
 20
-438.5806181079852
 10
478.5572218531888
 20
-427.992144608862
 10
493.5000873701219
 20
-418.1676445007333
 10
508.6239515585339
 20
-408.7252557919119
 10
512.8876816802822
 20
-406.0632581371956
 10
518.7667180559965
 20
-404.9429603131302
 10
523.9169853713911
 20
-404.9081590429787
 10
576.0313128940952
 20
-404.5560121875133
 10
628.1509136064406
 20
-404.8855308687635
 10
680.2635665351363
 20
-404.4155110780366
 10
749.452232709391
 20
-403.7914765159503
 10
818.6343430262532
 20
-402.4654285411552
 10
887.8225816445911
 20
-401.760656056671
 10
921.259520864729
 20
-401.4200565512419
 10
954.7046549066072
 20
-401.9803117955407
 10
988.1448007961217
 20
-401.8383309417577
 10
1136.731170809209
 20
-401.2074610521358
 10
1285.317042007058
 20
-400.4596735475034
 10
1433.903269501507
 20
-399.7912087997211
 10
1445.571840547667
 20
-399.7387123930885
 10
1457.264354725174
 20
-400.4741369625044
 10
1468.905277155378
 20
-399.9479275282274
 10
1484.922519432106
 20
-399.2239038932148
 10
1497.276177575746
 20
-402.516348892058
 10
1509.41277983225
 20
-415.7485910212336
 10
1522.769626675523
 20
-430.3113125641339
 10
1541.497430946622
 20
-439.9828278207542
 10
1558.00764519551
 20
-451.6115960832785
 10
1610.679826300762
 20
-488.7107966853891
 10
1663.13865700349
 20
-526.1214227821629
 10
1716.191220356122
 20
-562.6695617056139
 10
1769.908348122224
 20
-599.6754704974037
 10
1824.262961760391
 20
-635.7549368766367
 10
1878.266837028077
 20
-672.3460095400751
 10
1887.903234801317
 20
-678.8753762801898
 10
1897.166091221843
 20
-685.954579929411
 10
1906.644435824477
 20
-692.719476535236
 10
1924.014607540847
 20
-705.1166741230772
 10
1923.450091211929
 20
-728.7098153206307
 10
1908.952240145147
 20
-740.8765602692747
 10
1885.166449377379
 20
-760.8376495826069
 10
1862.418621857154
 20
-782.0391142404633
 10
1839.319343373256
 20
-802.8134861670178
 10
1817.362636817894
 20
-822.5602630770154
 10
1795.480610029346
 20
-842.3904133908045
 10
1773.629367266814
 20
-862.2538418067907
 10
1721.32488425008
 20
-909.8001619135675
 10
1669.040638880077
 20
-957.3687505576827
 10
1616.784897237865
 20
-1004.968728932028
 10
1598.40042036802
 20
-1021.715310343632
 10
1580.213759369051
 20
-1038.679802754205
 10
1561.778973419654
 20
-1055.370445600016
 10
1516.313389812025
 20
-1096.534389127935
 10
1470.607519779109
 20
-1137.433889321266
 10
1425.285309922272
 20
-1178.754603352039
 10
1391.465066822653
 20
-1209.588938446821
 10
1358.270338029426
 20
-1241.108788194997
 10
1324.47432309843
 20
-1271.969988053221
 10
1287.210544644273
 20
-1305.997809550485
 10
1249.552345856797
 20
-1339.593443275104
 10
1212.124100893281
 20
-1373.44154876864
 10
1202.316965790569
 20
-1382.310554930402
 10
1192.725461388603
 20
-1391.417994775144
 10
1183.034336458002
 20
-1400.415338971288
 10
1139.181707546795
 20
-1441.128353525541
 10
1095.417297673104
 20
-1481.937140605172
 10
1051.395214100176
 20
-1522.466021077887
 10
1043.427210773913
 20
-1529.801740462406
 10
1034.401861665212
 20
-1535.988973394869
 10
1025.743498051832
 20
-1542.801720633724
 97
        0
 97
        0
 92
        1
 93
        1
 72
     4
 94
        3
 73
     0
 74
     1
 95
       50
 96
       46
 40
0.0
 40
0.0
 40
0.0
 40
0.0
 40
1.0
 40
1.0
 40
1.0
 40
2.0
 40
2.0
 40
2.0
 40
3.0
 40
3.0
 40
3.0
 40
4.0
 40
4.0
 40
4.0
 40
5.0
 40
5.0
 40
5.0
 40
6.0
 40
6.0
 40
6.0
 40
7.0
 40
7.0
 40
7.0
 40
8.0
 40
8.0
 40
8.0
 40
9.0
 40
9.0
 40
9.0
 40
10.0
 40
10.0
 40
10.0
 40
11.0
 40
11.0
 40
11.0
 40
12.0
 40
12.0
 40
12.0
 40
13.0
 40
13.0
 40
13.0
 40
14.0
 40
14.0
 40
14.0
 40
15.0
 40
15.0
 40
15.0
 40
15.0
 10
1094.937579934367
 20
-1314.260968978031
 10
1096.869990160018
 20
-1314.765057404031
 10
1098.802400385668
 20
-1315.26907457071
 10
1100.734810611319
 20
-1315.773162996709
 10
1104.186897084193
 20
-1310.197976359257
 10
1108.570200344027
 20
-1304.991271662835
 10
1110.945629758884
 20
-1298.989883035574
 10
1132.383354690475
 20
-1244.830021117545
 10
1153.455234275856
 20
-1190.525360262334
 10
1174.661223900499
 20
-1136.273716340816
 10
1211.985786554173
 20
-1040.785586904149
 10
1249.271370360089
 20
-945.2822792324323
 10
1286.69762006266
 20
-849.8340906443336
 10
1299.172276530775
 20
-818.0199042770473
 10
1312.010498046875
 20
-786.3481296597411
 10
1324.721877974302
 20
-754.6269723340347
 10
1327.678142102237
 20
-747.2496018772808
 10
1330.642814829869
 20
-739.9476237805375
 10
1322.968328640545
 20
-733.1339858001875
 10
1320.914635053141
 20
-732.7666440082694
 10
1318.642460392211
 20
-732.0041692898367
 10
1316.37057076856
 20
-732.0051312906498
 10
1223.041669971446
 20
-732.0439676197657
 10
1129.712769174334
 20
-732.1467591881155
 10
1036.383868377221
 20
-732.267080549057
 10
1032.500948058772
 20
-732.2721043310803
 10
1028.539571229576
 20
-732.0763906101292
 10
1024.750641953522
 20
-732.74462487855
 10
1014.3969478704
 20
-734.5707874588561
 10
1010.423100660295
 20
-740.1249525970625
 10
1011.846505566902
 20
-750.6029229333562
 10
1017.486823222358
 20
-792.1228067620768
 10
1022.956118511065
 20
-833.6685220941081
 10
1028.987863608423
 20
-875.1320041714598
 10
1036.245411519472
 20
-925.0223283332016
 10
1044.187618972081
 20
-974.812818188353
 10
1051.497186186351
 20
-1024.69580264019
 10
1056.785340284938
 20
-1060.783944841569
 10
1061.361970078522
 20
-1096.975983130751
 10
1066.553710317854
 20
-1133.078876011263
 10
1072.295643762889
 20
-1173.008038051237
 10
1078.219644769193
 20
-1212.912686885313
 10
1084.37516730449
 20
-1252.779995835977
 10
1087.547703467044
 20
-1273.32747808931
 10
1091.395136644393
 20
-1293.770636698922
 10
1094.937579934367
 20
-1314.260968978031
 97
        0
 97
        0
 92
        1
 93
        1
 72
     4
 94
        3
 73
     0
 74
     1
 95
       53
 96
       49
 40
0.0
 40
0.0
 40
0.0
 40
0.0
 40
1.0
 40
1.0
 40
1.0
 40
2.0
 40
2.0
 40
2.0
 40
3.0
 40
3.0
 40
3.0
 40
4.0
 40
4.0
 40
4.0
 40
5.0
 40
5.0
 40
5.0
 40
6.0
 40
6.0
 40
6.0
 40
7.0
 40
7.0
 40
7.0
 40
8.0
 40
8.0
 40
8.0
 40
9.0
 40
9.0
 40
9.0
 40
10.0
 40
10.0
 40
10.0
 40
11.0
 40
11.0
 40
11.0
 40
12.0
 40
12.0
 40
12.0
 40
13.0
 40
13.0
 40
13.0
 40
14.0
 40
14.0
 40
14.0
 40
15.0
 40
15.0
 40
15.0
 40
16.0
 40
16.0
 40
16.0
 40
16.0
 10
689.5031924175128
 20
-736.921703667811
 10
691.4960305460818
 20
-747.4413607060014
 10
691.9106172668144
 20
-754.2517920169739
 10
694.1335517379839
 20
-760.4094523318536
 10
698.880776342402
 20
-773.5598252969357
 10
704.6095980726523
 20
-786.3538660349586
 10
709.8572768777758
 20
-799.325841293723
 10
734.343831793306
 20
-859.8556806690203
 10
758.5086508813847
 20
-920.5177060819533
 10
783.3624050701937
 20
-980.8962262923351
 10
804.6608180322019
 20
-1032.637440018243
 10
826.8936544505468
 20
-1083.993176455426
 10
848.4238027195033
 20
-1135.640007212683
 10
868.7510936756426
 20
-1184.40133434625
 10
888.5982393371269
 20
-1233.362828908233
 10
908.9513974262372
 20
-1282.113182106599
 10
911.4136206922194
 20
-1288.010888424018
 10
912.4917029366279
 20
-1296.390058023677
 10
923.5344746391183
 20
-1295.555753911209
 10
924.52440910533
 20
-1292.352790019235
 10
926.1805469493574
 20
-1288.913458964547
 10
926.6041836036638
 20
-1285.328402601524
 10
930.9765841876188
 20
-1248.330136371749
 10
935.0263938322887
 20
-1211.293746406052
 10
939.4131887987787
 20
-1174.297261659265
 10
943.7996274686702
 20
-1137.304268619131
 10
948.7555706198445
 20
-1100.377190449517
 10
952.9312242227161
 20
-1063.361323167832
 10
957.1090156051714
 20
-1026.325859573288
 10
960.0123340587324
 20
-989.1400388146421
 10
964.5755671002535
 20
-952.1559888191041
 10
972.6558751140146
 20
-886.6669996232558
 10
981.5884445887532
 20
-821.2832960719388
 10
990.0887550315274
 20
-755.8457204750957
 10
990.5872852306074
 20
-752.0077647872395
 10
990.7331530575821
 20
-748.0617443413912
 10
990.4835316614453
 20
-744.2022327093919
 10
990.0142177833513
 20
-736.9475708007822
 10
985.852459747779
 20
-732.8638060903795
 10
978.6353158708753
 20
-732.243315566011
 10
974.7720631246029
 20
-731.9111758779154
 10
970.8646296002535
 20
-732.0531957016392
 10
966.9771486853588
 20
-732.0500959212413
 10
906.2711919019666
 20
-732.0018533619532
 10
845.5594631136973
 20
-731.4563632713362
 10
784.8616298927263
 20
-732.14070214596
 10
754.7120968581457
 20
-732.4806447295377
 10
724.5881459192578
 20
-735.0833557438737
 10
689.5031924175128
 20
-736.921703667811
 97
        0
 97
        0
 92
        1
 93
        1
 72
     4
 94
        3
 73
     0
 74
     1
 95
       50
 96
       46
 40
0.0
 40
0.0
 40
0.0
 40
0.0
 40
1.0
 40
1.0
 40
1.0
 40
2.0
 40
2.0
 40
2.0
 40
3.0
 40
3.0
 40
3.0
 40
4.0
 40
4.0
 40
4.0
 40
5.0
 40
5.0
 40
5.0
 40
6.0
 40
6.0
 40
6.0
 40
7.0
 40
7.0
 40
7.0
 40
8.0
 40
8.0
 40
8.0
 40
9.0
 40
9.0
 40
9.0
 40
10.0
 40
10.0
 40
10.0
 40
11.0
 40
11.0
 40
11.0
 40
12.0
 40
12.0
 40
12.0
 40
13.0
 40
13.0
 40
13.0
 40
14.0
 40
14.0
 40
14.0
 40
15.0
 40
15.0
 40
15.0
 40
15.0
 10
370.2202532618176
 20
-734.6206333528326
 10
374.6043403741669
 20
-742.0435741443935
 10
375.9924897324618
 20
-745.6984290108467
 10
378.4529137006266
 20
-748.3633137814295
 10
413.1630075522489
 20
-785.9574860703533
 10
447.487873522763
 20
-823.9279075661298
 10
482.9560596446699
 20
-860.7971231683268
 10
545.9858897252734
 20
-926.3166113529114
 10
609.6751535483427
 20
-991.2025685576627
 10
673.1926824114653
 20
-1056.251852122661
 10
723.724126670566
 20
-1108.002008893163
 10
774.4404532340577
 20
-1159.571452029466
 10
825.0121946383251
 20
-1211.282273655615
 10
842.37353019908
 20
-1229.034609102357
 10
859.4236050523477
 20
-1247.093074585582
 10
876.9122097576937
 20
-1264.717642072494
 10
880.223559074595
 20
-1268.054716003728
 10
884.9330874990083
 20
-1270.004513503332
 10
893.9739711393559
 20
-1275.765615705306
 10
889.6711909105325
 20
-1263.013047891222
 10
887.6673075874442
 20
-1255.728207660812
 10
884.790853897327
 20
-1248.805863588595
 10
876.7406885757064
 20
-1229.432663660969
 10
868.0647951697338
 20
-1210.317921285097
 10
860.1166731936073
 20
-1190.904246064008
 10
843.6420173451379
 20
-1150.664322131783
 10
827.8488856281729
 20
-1110.142496331695
 10
811.1107128162676
 20
-1070.013808197178
 10
774.9320712791477
 20
-983.2777840086655
 10
738.3784632029265
 20
-896.6979958781139
 10
701.8736677605484
 20
-810.0983976567468
 10
694.0296556501826
 20
-791.4901308940762
 10
685.4786085719388
 20
-773.177732825885
 10
677.764074645067
 20
-754.5178743159113
 10
673.4507836666207
 20
-744.0850111288473
 10
666.1573566882134
 20
-738.1237058687948
 10
655.1754760742188
 20
-736.9034256523646
 10
638.2100929221524
 20
-735.0183316148486
 10
621.2134981881545
 20
-732.1889803349077
 10
604.2127704136265
 20
-732.0607491895034
 10
533.4198788095855
 20
-731.5266249603437
 10
462.6203957184925
 20
-731.8008664513609
 10
391.8236917408594
 20
-731.9604160676763
 10
385.9932542210299
 20
-731.9735277824602
 10
380.1659164815992
 20
-733.3515048728987
 10
370.2202532618176
 20
-734.6206333528326
 97
        0
 97
        0
 92
        1
 93
        1
 72
     4
 94
        3
 73
     0
 74
     1
 95
       47
 96
       43
 40
0.0
 40
0.0
 40
0.0
 40
0.0
 40
1.0
 40
1.0
 40
1.0
 40
2.0
 40
2.0
 40
2.0
 40
3.0
 40
3.0
 40
3.0
 40
4.0
 40
4.0
 40
4.0
 40
5.0
 40
5.0
 40
5.0
 40
6.0
 40
6.0
 40
6.0
 40
7.0
 40
7.0
 40
7.0
 40
8.0
 40
8.0
 40
8.0
 40
9.0
 40
9.0
 40
9.0
 40
10.0
 40
10.0
 40
10.0
 40
11.0
 40
11.0
 40
11.0
 40
12.0
 40
12.0
 40
12.0
 40
13.0
 40
13.0
 40
13.0
 40
14.0
 40
14.0
 40
14.0
 40
14.0
 10
1634.475450854616
 20
-735.8315073390913
 10
1624.533778156725
 20
-728.7065730215945
 10
1613.894619239769
 20
-731.1590693904673
 10
1604.461738082962
 20
-732.2644439542364
 10
1587.398836552189
 20
-734.2638735698574
 10
1570.658739738657
 20
-732.7310143485292
 10
1553.693748512849
 20
-732.4287679449562
 10
1489.156320639673
 20
-731.2790344548112
 10
1424.586255998176
 20
-732.0620674869142
 10
1360.030585739212
 20
-731.7240845346223
 10
1348.958882753013
 20
-731.6661507078843
 10
1343.243885330743
 20
-736.1858443052042
 10
1339.384623106362
 20
-746.3759626204601
 10
1325.363496886897
 20
-783.3983857595385
 10
1310.678233809882
 20
-820.1699048347291
 10
1296.170833994289
 20
-857.007481299077
 10
1260.597112820233
 20
-947.3378968214638
 10
1225.056954785652
 20
-1037.681673466253
 10
1189.355608170408
 20
-1127.961601760788
 10
1170.215426217481
 20
-1176.362285478466
 10
1150.634149076976
 20
-1224.588811419339
 10
1131.623801604141
 20
-1273.039946735209
 10
1129.07777737845
 20
-1279.528962885668
 10
1124.597418925483
 20
-1286.498195590102
 10
1129.144974916719
 20
-1296.172574580625
 10
1134.351252057226
 20
-1291.589816485566
 10
1138.711752334828
 20
-1288.481556229181
 10
1142.165477772049
 20
-1284.572269962524
 10
1151.93199506266
 20
-1273.517312916403
 10
1161.058247367742
 20
-1261.892566351722
 10
1170.914622660215
 20
-1250.921624043267
 10
1215.040744839585
 20
-1201.806066832567
 10
1259.374231638642
 20
-1152.876924001626
 10
1303.554867197414
 20
-1103.81017942477
 10
1357.610476731044
 20
-1043.776411802031
 10
1411.242093313769
 20
-983.3567037049897
 10
1465.696327480568
 20
-923.6873562420697
 10
1521.161731390785
 20
-862.910068879879
 10
1577.411557889831
 20
-802.8487595301604
 10
1633.230265506028
 20
-742.393136736101
 10
1634.093785939483
 20
-741.4579650569094
 10
1633.831124087881
 20
-739.4831555361689
 10
1634.475450854616
 20
-735.8315073390913
 97
        0
 97
        0
 92
        1
 93
        1
 72
     4
 94
        3
 73
     0
 74
     1
 95
       44
 96
       40
 40
0.0
 40
0.0
 40
0.0
 40
0.0
 40
1.0
 40
1.0
 40
1.0
 40
2.0
 40
2.0
 40
2.0
 40
3.0
 40
3.0
 40
3.0
 40
4.0
 40
4.0
 40
4.0
 40
5.0
 40
5.0
 40
5.0
 40
6.0
 40
6.0
 40
6.0
 40
7.0
 40
7.0
 40
7.0
 40
8.0
 40
8.0
 40
8.0
 40
9.0
 40
9.0
 40
9.0
 40
10.0
 40
10.0
 40
10.0
 40
11.0
 40
11.0
 40
11.0
 40
12.0
 40
12.0
 40
12.0
 40
13.0
 40
13.0
 40
13.0
 40
13.0
 10
763.5979914786249
 20
-485.1975608089861
 10
766.6848026798461
 20
-490.2257698175272
 10
767.4704366771093
 20
-492.6276809769852
 10
769.1129639911169
 20
-494.0151177420839
 10
801.6747675087245
 20
-521.520074912135
 10
834.4475698713122
 20
-548.7759362235292
 10
866.9485179300837
 20
-576.3522952316989
 10
907.7250245379919
 20
-610.9504050627584
 10
948.4570653305436
 20
-645.605059163825
 10
988.8722871886894
 20
-680.6230467200894
 10
1004.346889747581
 20
-694.0310399399204
 10
1009.740650157639
 20
-694.6913287942189
 10
1024.282967039777
 20
-681.2912631736799
 10
1032.849833686945
 20
-673.3972270210388
 10
1040.967624102752
 20
-664.993597659969
 10
1049.787318815434
 20
-657.3998482796151
 10
1112.02250059486
 20
-603.8156904036632
 10
1174.409607243417
 20
-550.4079706027433
 10
1236.634812718115
 20
-496.8123043466958
 10
1239.302405342838
 20
-494.5146455716367
 10
1240.856713619329
 20
-490.9245921488346
 10
1243.169933648278
 20
-487.5902171643265
 10
1234.26629545725
 20
-478.2033873427345
 10
1223.061622580901
 20
-477.3088601978907
 10
1212.888570872659
 20
-474.3888937858164
 10
1152.5287918633
 20
-457.0640786262948
 10
1091.929296503213
 20
-440.5441330265885
 10
1031.814079478307
 20
-422.4146799000391
 10
1010.272529718235
 20
-415.9182015627175
 10
989.2258046726283
 20
-414.741763642598
 10
967.662592079434
 20
-419.0919958976328
 10
959.3963685011504
 20
-420.7596488023173
 10
951.5896250148717
 20
-424.5958809053845
 10
943.4644236298382
 20
-427.0886343360562
 10
888.6358642578125
 20
-443.909692870785
 10
833.7582072146652
 20
-460.5714356088401
 10
778.9638523159902
 20
-477.5029438619094
 10
774.128907489292
 20
-478.9969489392906
 10
769.7763169961536
 20
-482.0520675581729
 10
763.5979914786249
 20
-485.1975608089861
 97
        0
 97
        0
 92
        1
 93
        1
 72
     4
 94
        3
 73
     0
 74
     1
 95
       59
 96
       55
 40
0.0
 40
0.0
 40
0.0
 40
0.0
 40
1.0
 40
1.0
 40
1.0
 40
2.0
 40
2.0
 40
2.0
 40
3.0
 40
3.0
 40
3.0
 40
4.0
 40
4.0
 40
4.0
 40
5.0
 40
5.0
 40
5.0
 40
6.0
 40
6.0
 40
6.0
 40
7.0
 40
7.0
 40
7.0
 40
8.0
 40
8.0
 40
8.0
 40
9.0
 40
9.0
 40
9.0
 40
10.0
 40
10.0
 40
10.0
 40
11.0
 40
11.0
 40
11.0
 40
12.0
 40
12.0
 40
12.0
 40
13.0
 40
13.0
 40
13.0
 40
14.0
 40
14.0
 40
14.0
 40
15.0
 40
15.0
 40
15.0
 40
16.0
 40
16.0
 40
16.0
 40
17.0
 40
17.0
 40
17.0
 40
18.0
 40
18.0
 40
18.0
 40
18.0
 10
1012.680880938689
 20
-1524.014343571544
 10
1014.690750044614
 20
-1524.283133724621
 10
1016.70054789122
 20
-1524.551923877698
 10
1018.710345737825
 20
-1524.820714030775
 10
1021.891789315316
 20
-1519.881160523082
 10
1026.035732521019
 20
-1515.312084217363
 10
1028.10225278593
 20
-1509.943335828444
 10
1044.569640183812
 20
-1467.16109315514
 10
1059.513004515982
 20
-1423.75126965518
 10
1077.287857907679
 20
-1381.529267751626
 10
1086.976845058693
 20
-1358.514004005394
 10
1085.894914811033
 20
-1336.212117306473
 10
1082.20981036346
 20
-1313.017351334471
 10
1081.358404014316
 20
-1307.657652879125
 10
1079.947897044534
 20
-1302.38132782757
 10
1079.210933162476
 20
-1297.009586547232
 10
1071.296873141062
 20
-1239.321818240403
 10
1063.645403711929
 20
-1181.597565162001
 10
1055.565737032044
 20
-1123.933169911961
 10
1046.30109912853
 20
-1057.811362329474
 10
1036.71130495023
 20
-991.7348756741758
 10
1027.196048020107
 20
-925.6483414548311
 10
1021.219813932623
 20
-884.1418900078334
 10
1015.216216266457
 20
-842.6387164895314
 10
1008.924517171637
 20
-801.1796168603278
 10
1008.31738776967
 20
-797.1790474054178
 10
1005.581172420289
 20
-793.5016389643488
 10
1002.909446755037
 20
-787.6513557240451
 10
993.9005585491359
 20
-802.2751576380087
 10
992.5348024319874
 20
-816.2109151927361
 10
990.9155769154504
 20
-829.9824556457215
 10
986.6564786494682
 20
-866.2084846302951
 10
982.9871937708203
 20
-902.5070556020983
 10
978.4123454602232
 20
-938.691967959332
 10
973.6435292820033
 20
-976.4122336140754
 10
967.3744906507773
 20
-1013.951607486319
 10
963.0610927833513
 20
-1051.718547995322
 10
957.6023438739294
 20
-1099.513313719464
 10
954.4875990194714
 20
-1147.584850640467
 10
945.108803686152
 20
-1194.889067209313
 10
944.5079451042984
 20
-1197.919726066784
 10
944.6543117465098
 20
-1201.091193339547
 10
944.3068513047274
 20
-1204.18064113559
 10
940.3159018579472
 20
-1239.657734672432
 10
936.7763089407517
 20
-1275.196253742664
 10
932.0051412049888
 20
-1310.568596079871
 10
930.4888854050996
 20
-1321.810608839627
 10
930.9633299541956
 20
-1331.792044237787
 10
935.4802444380548
 20
-1342.271012204554
 10
957.6345530863337
 20
-1393.666440082687
 10
979.3333009051794
 20
-1445.258258645306
 10
1001.186538928656
 20
-1496.783378484892
 10
1005.033544550088
 20
-1505.853834742822
 10
1008.850193701419
 20
-1514.937046418941
 10
1012.680880938689
 20
-1524.014343571544
 97
        0
 97
        0
 92
        1
 93
        1
 72
     4
 94
        3
 73
     0
 74
     1
 95
       56
 96
       52
 40
0.0
 40
0.0
 40
0.0
 40
0.0
 40
1.0
 40
1.0
 40
1.0
 40
2.0
 40
2.0
 40
2.0
 40
3.0
 40
3.0
 40
3.0
 40
4.0
 40
4.0
 40
4.0
 40
5.0
 40
5.0
 40
5.0
 40
6.0
 40
6.0
 40
6.0
 40
7.0
 40
7.0
 40
7.0
 40
8.0
 40
8.0
 40
8.0
 40
9.0
 40
9.0
 40
9.0
 40
10.0
 40
10.0
 40
10.0
 40
11.0
 40
11.0
 40
11.0
 40
12.0
 40
12.0
 40
12.0
 40
13.0
 40
13.0
 40
13.0
 40
14.0
 40
14.0
 40
14.0
 40
15.0
 40
15.0
 40
15.0
 40
16.0
 40
16.0
 40
16.0
 40
17.0
 40
17.0
 40
17.0
 40
17.0
 10
1041.81432733681
 20
-1507.068734880631
 10
1042.972291278355
 20
-1508.01270708578
 10
1044.130255219899
 20
-1508.956750550247
 10
1045.288219161444
 20
-1509.900722755394
 10
1049.760881607908
 20
-1507.017428170606
 10
1054.728440028157
 20
-1504.681405159423
 10
1058.623901986834
 20
-1501.159627072098
 10
1079.939274666878
 20
-1481.889040564523
 10
1100.987709936151
 20
-1462.323155437025
 10
1122.134981881543
 20
-1442.866582105609
 10
1159.858810502261
 20
-1408.158946700509
 10
1197.716107828363
 20
-1373.594400008924
 10
1235.216752260469
 20
-1338.647262031052
 10
1243.687846382258
 20
-1330.752940841134
 10
1251.83499563769
 20
-1322.185860416006
 10
1258.552326647763
 20
-1312.798585223669
 10
1275.701736992385
 20
-1288.832579636937
 10
1292.197699377379
 20
-1264.387141348747
 10
1308.526202361596
 20
-1239.847997055442
 10
1342.953717381821
 20
-1188.109384294694
 10
1377.129401967006
 20
-1136.203169614531
 10
1411.367367197414
 20
-1084.338570376944
 10
1465.721838316942
 20
-1002.000707016379
 10
1520.042675037674
 20
-919.6405751184775
 10
1574.378191178221
 20
-837.2901344880247
 10
1579.35380190157
 20
-829.7492238930645
 10
1583.824896643004
 20
-822.0058655714638
 10
1584.233782618179
 20
-812.027743731659
 10
1575.68066901967
 20
-817.8159601046964
 10
1568.397396494289
 20
-824.5056424988106
 10
1561.851372888246
 20
-831.8523358185284
 10
1512.765530813769
 20
-886.9419537074682
 10
1463.884630542116
 20
-942.2141379729146
 10
1414.816460778871
 20
-997.3194685418002
 10
1386.928698544574
 20
-1028.638153231084
 10
1358.693618387135
 20
-1059.647572473827
 10
1330.820393054013
 20
-1090.979083840619
 10
1286.952728426397
 20
-1140.289392771456
 10
1243.250385419971
 20
-1189.74670967838
 10
1199.493742812103
 20
-1239.155784026016
 10
1172.75468080782
 20
-1269.34878524548
 10
1146.72201243754
 20
-1300.20927251051
 10
1118.998574193964
 20
-1329.468420348192
 10
1107.45634592124
 20
-1341.650129753927
 10
1098.697007852157
 20
-1354.485073341331
 10
1092.841415792553
 20
-1369.981338733345
 10
1078.018194673024
 20
-1409.209879144195
 10
1062.669721109613
 20
-1448.239677313017
 10
1047.71032343056
 20
-1487.417338569758
 10
1045.277316485564
 20
-1493.789204398994
 10
1043.756713867188
 20
-1500.509457041166
 10
1041.81432733681
 20
-1507.068734880631
 97
        0
 97
        0
 92
        1
 93
        1
 72
     4
 94
        3
 73
     0
 74
     1
 95
       53
 96
       49
 40
0.0
 40
0.0
 40
0.0
 40
0.0
 40
1.0
 40
1.0
 40
1.0
 40
2.0
 40
2.0
 40
2.0
 40
3.0
 40
3.0
 40
3.0
 40
4.0
 40
4.0
 40
4.0
 40
5.0
 40
5.0
 40
5.0
 40
6.0
 40
6.0
 40
6.0
 40
7.0
 40
7.0
 40
7.0
 40
8.0
 40
8.0
 40
8.0
 40
9.0
 40
9.0
 40
9.0
 40
10.0
 40
10.0
 40
10.0
 40
11.0
 40
11.0
 40
11.0
 40
12.0
 40
12.0
 40
12.0
 40
13.0
 40
13.0
 40
13.0
 40
14.0
 40
14.0
 40
14.0
 40
15.0
 40
15.0
 40
15.0
 40
16.0
 40
16.0
 40
16.0
 40
16.0
 10
455.2490466742347
 20
-848.4682276382064
 10
453.7260568686552
 20
-849.5080792577146
 10
452.2030670630747
 20
-850.5479665068815
 10
450.6800772574952
 20
-851.5878537560484
 10
454.1467718908625
 20
-858.2737950358905
 10
456.9094957070911
 20
-865.4533139921095
 10
461.1947461433219
 20
-871.5653327128621
 10
488.3695588862229
 20
-910.3245948752783
 10
516.0962037991749
 20
-948.6972395998582
 10
543.2390567372895
 20
-987.4785921513139
 10
610.4373788591565
 20
-1083.490584475136
 10
677.2118861784184
 20
-1179.800048828125
 10
744.6606135489374
 20
-1275.635353669299
 10
758.426916441942
 20
-1295.195395532599
 10
770.8239002518239
 20
-1315.853971065
 10
789.8792836145703
 20
-1331.559026263089
 10
820.9715774458673
 20
-1357.184590141182
 10
851.2450304370241
 20
-1383.819471020384
 10
881.4862029564565
 20
-1410.457416050325
 10
912.3447662198605
 20
-1437.639354725176
 10
942.6929702371508
 20
-1465.400204111478
 10
973.4569723836057
 20
-1492.690741989214
 10
975.8570575230015
 20
-1494.819827936628
 10
979.7704768301874
 20
-1495.242965775698
 10
985.9421039716844
 20
-1497.580841529189
 10
983.9769144590737
 20
-1489.483502538073
 10
983.3672909809247
 20
-1484.267320352159
 10
981.4437169108896
 20
-1479.591711363817
 10
977.0145939086296
 20
-1468.825853376826
 10
971.6405723300686
 20
-1458.44921379283
 10
967.1942758318128
 20
-1447.689697885273
 10
952.6677785185993
 20
-1412.537689363897
 10
938.7355839298461
 20
-1377.135346853189
 10
923.8063289429329
 20
-1342.157211071344
 10
918.9897690206617
 20
-1330.872371460582
 10
913.3831570233187
 20
-1319.197672112945
 10
905.3724693646891
 20
-1310.149662540649
 10
886.8922912287835
 20
-1289.276382678658
 10
866.6711766586686
 20
-1269.948361159582
 10
847.2400429043064
 20
-1249.912307042156
 10
798.575770963872
 20
-1199.732990710265
 10
750.0303595683299
 20
-1149.438163021496
 10
701.3043770572258
 20
-1099.318847036604
 10
630.3546080613496
 20
-1026.340325215142
 10
559.325848109831
 20
-953.4384071621198
 10
488.231280176773
 20
-880.600907533908
 10
477.5134509711097
 20
-869.6203452173231
 10
466.2565450135826
 20
-859.1659973454362
 10
455.2490466742347
 20
-848.4682276382064
 97
        0
 97
        0
 92
        1
 93
        1
 72
     4
 94
        3
 73
     0
 74
     1
 95
       44
 96
       40
 40
0.0
 40
0.0
 40
0.0
 40
0.0
 40
1.0
 40
1.0
 40
1.0
 40
2.0
 40
2.0
 40
2.0
 40
3.0
 40
3.0
 40
3.0
 40
4.0
 40
4.0
 40
4.0
 40
5.0
 40
5.0
 40
5.0
 40
6.0
 40
6.0
 40
6.0
 40
7.0
 40
7.0
 40
7.0
 40
8.0
 40
8.0
 40
8.0
 40
9.0
 40
9.0
 40
9.0
 40
10.0
 40
10.0
 40
10.0
 40
11.0
 40
11.0
 40
11.0
 40
12.0
 40
12.0
 40
12.0
 40
13.0
 40
13.0
 40
13.0
 40
13.0
 10
196.8376798678173
 20
-736.1617586552202
 10
200.4250788809686
 20
-741.6313033515435
 10
201.4018036508314
 20
-743.8199977197028
 10
202.9762604999059
 20
-745.4207670724945
 10
283.062462976136
 20
-826.8450146980103
 10
363.1408714642985
 20
-908.2771008486689
 10
443.3574339581019
 20
-989.5728679211625
 10
480.4882068924489
 20
-1027.203133055402
 10
517.8981382108577
 20
-1064.557909660534
 10
555.1832588311981
 20
-1102.035893629047
 10
579.8526651605134
 20
-1126.83285414023
 10
606.4192083523358
 20
-1150.052988429965
 10
628.6825437594189
 20
-1176.848701593235
 10
652.6380385965258
 20
-1205.681077366553
 10
680.5425467708992
 20
-1230.257632802586
 10
706.2935983105963
 20
-1257.099807042156
 10
709.0386498155931
 20
-1259.961153756543
 10
713.3066554965098
 20
-1261.36147064364
 10
717.0072232164102
 20
-1263.520628023874
 10
722.1045448574314
 20
-1254.766705663073
 10
716.5963419802902
 20
-1250.622619938731
 10
713.1104785899824
 20
-1245.69496673739
 10
688.007245523675
 20
-1210.209749638128
 10
662.8500691525223
 20
-1174.761373607036
 10
637.9885120682302
 20
-1139.107129401968
 10
563.8457554851084
 20
-1032.777820877618
 10
489.918700862052
 20
-926.2979770408674
 10
415.7006588078993
 20
-820.0213291536138
 10
398.3696084579233
 20
-795.204095366038
 10
380.1435054256226
 20
-771.0133735153286
 10
362.4869959487523
 20
-746.4210697696908
 10
355.738934357154
 20
-737.0222861972561
 10
347.7930036051021
 20
-731.537420747245
 10
335.3238341045862
 20
-731.7008183668113
 10
294.900595572999
 20
-732.2304532588441
 10
254.4645659935659
 20
-731.7173148992715
 10
214.0357959573039
 20
-731.975416154427
 10
209.1246303810085
 20
-732.0067702549977
 10
204.2278502798326
 20
-734.2919497417324
 10
196.8376798678173
 20
-736.1617586552202
 97
        0
 97
        0
 92
        1
 93
        1
 72
     4
 94
        3
 73
     0
 74
     1
 95
       44
 96
       40
 40
0.0
 40
0.0
 40
0.0
 40
0.0
 40
1.0
 40
1.0
 40
1.0
 40
2.0
 40
2.0
 40
2.0
 40
3.0
 40
3.0
 40
3.0
 40
4.0
 40
4.0
 40
4.0
 40
5.0
 40
5.0
 40
5.0
 40
6.0
 40
6.0
 40
6.0
 40
7.0
 40
7.0
 40
7.0
 40
8.0
 40
8.0
 40
8.0
 40
9.0
 40
9.0
 40
9.0
 40
10.0
 40
10.0
 40
10.0
 40
11.0
 40
11.0
 40
11.0
 40
12.0
 40
12.0
 40
12.0
 40
13.0
 40
13.0
 40
13.0
 40
13.0
 10
1809.267008050443
 20
-736.7588404931403
 10
1804.506172916006
 20
-734.0546918375248
 10
1803.190868397049
 20
-732.6580091757223
 10
1801.866300166561
 20
-732.6493867980653
 10
1759.091040906567
 20
-732.3702284140036
 10
1716.314641497462
 20
-732.0830889861609
 10
1673.53909720019
 20
-732.1475786702895
 10
1660.995034154901
 20
-732.166498019611
 10
1651.156544951618
 20
-738.3569019917923
 10
1644.02362959034
 20
-748.4470791114782
 10
1631.914675949794
 20
-765.5768218839239
 10
1619.571991741355
 20
-782.5756612864861
 10
1608.25031106242
 20
-800.2215709395832
 10
1566.287835600413
 20
-865.6246213961385
 10
1525.070305064244
 20
-931.5074252210907
 10
1482.881224966291
 20
-996.7628619973439
 10
1430.985770443369
 20
-1077.031497238857
 10
1378.36945664459
 20
-1156.833811493696
 10
1326.182551504997
 20
-1236.914464650421
 10
1323.098020601999
 20
-1241.647722428221
 10
1321.062569400381
 20
-1247.06464211711
 10
1315.985057850174
 20
-1257.323490046003
 10
1325.731907568606
 20
-1252.125550245877
 10
1331.276595217321
 20
-1250.690458810875
 10
1334.592718908629
 20
-1247.161269754324
 10
1363.308514435279
 20
-1216.599359037913
 10
1391.590910780853
 20
-1185.630842644552
 10
1420.065707289023
 20
-1154.8419709956
 10
1457.53485510192
 20
-1114.327769942696
 10
1494.798633556074
 20
-1073.619315984892
 10
1532.623650410453
 20
-1033.439677436945
 10
1591.259238925682
 20
-971.1540084296685
 10
1650.315114907202
 20
-909.2641493124411
 10
1709.151654703363
 20
-847.1675669094038
 10
1739.642234840974
 20
-814.9874639365889
 10
1770.109299403157
 20
-782.7842373146032
 10
1800.396505442972
 20
-750.4132306249021
 10
1803.773057037199
 20
-746.8042667601931
 10
1805.900575279584
 20
-742.0267213153365
 10
1809.267008050443
 20
-736.7588404931403
 97
        0
 97
        0
 92
        1
 93
        1
 72
     4
 94
        3
 73
     0
 74
     1
 95
       41
 96
       37
 40
0.0
 40
0.0
 40
0.0
 40
0.0
 40
1.0
 40
1.0
 40
1.0
 40
2.0
 40
2.0
 40
2.0
 40
3.0
 40
3.0
 40
3.0
 40
4.0
 40
4.0
 40
4.0
 40
5.0
 40
5.0
 40
5.0
 40
6.0
 40
6.0
 40
6.0
 40
7.0
 40
7.0
 40
7.0
 40
8.0
 40
8.0
 40
8.0
 40
9.0
 40
9.0
 40
9.0
 40
10.0
 40
10.0
 40
10.0
 40
11.0
 40
11.0
 40
11.0
 40
12.0
 40
12.0
 40
12.0
 40
12.0
 10
386.3525793395065
 20
-691.0935882723279
 10
401.780685192437
 20
-681.8881134188123
 10
414.920974963813
 20
-673.9361078097745
 10
428.1668710466565
 20
-666.164049797253
 10
479.6195201583323
 20
-635.9739523950575
 10
531.2187140605174
 20
-606.0316949060125
 10
582.5453766953524
 20
-575.6291734724491
 10
627.2024520641653
 20
-549.1772687108396
 10
671.6570440766773
 20
-522.3794266754003
 10
715.9996164389677
 20
-495.4031780262294
 10
728.2257204007374
 20
-487.9652460553325
 10
728.3365999018479
 20
-481.1793813947506
 10
716.6051781359056
 20
-472.8175990690443
 10
695.7747963842403
 20
-457.970292299533
 10
673.6593953243973
 20
-444.7774665948709
 10
653.8124634408705
 20
-428.7492681977719
 10
639.8350904435674
 20
-417.4612530935847
 10
625.6362434813218
 20
-417.0243867012459
 10
610.27116649647
 20
-420.8827292350352
 10
598.3068692744682
 20
-423.8871089915947
 10
586.8280617960818
 20
-428.7908524643963
 10
575.0707728971684
 20
-432.6598905766687
 10
540.4876631528596
 20
-444.0403067496836
 10
505.8197548183689
 20
-455.1656947256961
 10
471.2965385320831
 20
-466.7239029008133
 10
456.5960972200191
 20
-471.6455257822427
 10
442.0475451474258
 20
-477.0838678040491
 10
427.6661318086735
 20
-482.8739725490523
 10
417.6139359062699
 20
-486.9211010618264
 10
412.5434077693726
 20
-494.4769315768026
 10
410.7068769580819
 20
-505.7895355999171
 10
402.6398588074044
 20
-555.4798526667109
 10
393.4575610475495
 20
-604.9883159501915
 10
385.2124302278316
 20
-654.6511625493249
 10
383.3799968274116
 20
-665.6884650990451
 10
379.428382524984
 20
-677.1879734097411
 10
386.3525793395065
 20
-691.0935882723279
 97
        0
 97
        0
 92
        1
 93
        1
 72
     4
 94
        3
 73
     0
 74
     1
 95
       38
 96
       34
 40
0.0
 40
0.0
 40
0.0
 40
0.0
 40
1.0
 40
1.0
 40
1.0
 40
2.0
 40
2.0
 40
2.0
 40
3.0
 40
3.0
 40
3.0
 40
4.0
 40
4.0
 40
4.0
 40
5.0
 40
5.0
 40
5.0
 40
6.0
 40
6.0
 40
6.0
 40
7.0
 40
7.0
 40
7.0
 40
8.0
 40
8.0
 40
8.0
 40
9.0
 40
9.0
 40
9.0
 40
10.0
 40
10.0
 40
10.0
 40
11.0
 40
11.0
 40
11.0
 40
11.0
 10
1274.357429930402
 20
-480.0021239924563
 10
1278.705744864372
 20
-484.5086078934264
 10
1281.36443007416
 20
-488.3681106180111
 10
1284.974712236279
 20
-490.8344847393528
 10
1320.733208825746
 20
-515.2637382546063
 10
1616.522092867624
 20
-679.1891666935189
 10
1632.426887938214
 20
-683.6353028583053
 10
1636.76059471169
 20
-670.70047151982
 10
1636.821592689166
 20
-670.68399280219
 10
1633.835827202965
 20
-659.6378540968544
 10
1628.361543761897
 20
-639.3849756850814
 10
1622.467115373176
 20
-619.2389862525288
 10
1617.366373284818
 20
-598.8933638364542
 10
1609.634309565356
 20
-568.0506379568042
 10
1602.251131474064
 20
-537.1169673706681
 10
1595.067764514593
 20
-506.141244878625
 10
1590.572441604538
 20
-486.7570175713099
 10
1577.042434614927
 20
-478.1599904171717
 10
1559.0307865046
 20
-474.5131165944995
 10
1552.213834965894
 20
-473.132885928082
 10
1545.124387789499
 20
-472.7831630029059
 10
1538.502116711612
 20
-470.811658133106
 10
1511.023382971129
 20
-462.6308922937078
 10
1483.712821224619
 20
-453.887079848857
 10
1456.269432106599
 20
-445.5848480456989
 10
1428.063568270147
 20
-437.0520166309961
 10
1399.698653632615
 20
-429.0380733122083
 10
1371.569037268004
 20
-420.2653073151105
 10
1363.023619676
 20
-417.6002221276922
 10
1356.81935576618
 20
-420.0308418854856
 10
1350.11542150817
 20
-424.9917420130705
 10
1325.828250168544
 20
-442.9641752291463
 10
1301.242644798936
 20
-460.533721614006
 10
1274.357429930402
 20
-480.0021239924563
 97
        0
 97
        0
 92
        1
 93
        1
 72
     4
 94
        3
 73
     0
 74
     1
 95
       38
 96
       34
 40
0.0
 40
0.0
 40
0.0
 40
0.0
 40
1.0
 40
1.0
 40
1.0
 40
2.0
 40
2.0
 40
2.0
 40
3.0
 40
3.0
 40
3.0
 40
4.0
 40
4.0
 40
4.0
 40
5.0
 40
5.0
 40
5.0
 40
6.0
 40
6.0
 40
6.0
 40
7.0
 40
7.0
 40
7.0
 40
8.0
 40
8.0
 40
8.0
 40
9.0
 40
9.0
 40
9.0
 40
10.0
 40
10.0
 40
10.0
 40
11.0
 40
11.0
 40
11.0
 40
11.0
 10
748.1213223994682
 20
-494.932510221066
 10
734.5687262055835
 20
-518.9111821518345
 10
732.4616593878891
 20
-542.5237147917005
 10
724.5356990601204
 20
-564.0058699089877
 10
716.2141069906011
 20
-586.5604421547832
 10
709.4927854586376
 20
-609.7221081728876
 10
702.5334577996109
 20
-632.7578589734703
 10
695.9105453878492
 20
-654.6802363516726
 10
689.8830045903396
 20
-676.7825256967317
 10
683.8052972319165
 20
-698.0648874970266
 10
694.4311306561312
 20
-707.2401305842532
 10
705.0516908907048
 20
-708.7932274523127
 10
716.130448549532
 20
-708.7837499628222
 10
795.4942329522919
 20
-708.7156973127185
 10
874.858729948247
 20
-708.7551393460508
 10
954.2208041273398
 20
-708.3485336691001
 10
961.7469996728269
 20
-708.3099823772609
 10
969.5325791412197
 20
-706.2025236333093
 10
976.6849482967164
 20
-703.6300978297513
 10
981.8159755958513
 20
-701.7846239738665
 10
982.3551948663544
 20
-696.4558520631754
 10
979.394370141973
 20
-691.9219066019596
 10
977.7672348409742
 20
-689.4303066815228
 10
975.0141310328763
 20
-687.6484139534432
 10
972.6833812113337
 20
-685.6457954832749
 10
943.2240659452327
 20
-660.333772610893
 10
913.697268103585
 20
-635.1001171751077
 10
884.2916111050527
 20
-609.7259739909687
 10
848.4186720485013
 20
-578.7711750166072
 10
812.7253777363576
 20
-547.60769312515
 10
776.765217272763
 20
-516.7549464036983
 10
768.6685196155222
 20
-509.8082850887095
 10
759.7896084083513
 20
-503.7734580257829
 10
748.1213223994682
 20
-494.932510221066
 97
        0
 97
        0
 92
        1
 93
        1
 72
     4
 94
        3
 73
     0
 74
     1
 95
       41
 96
       37
 40
0.0
 40
0.0
 40
0.0
 40
0.0
 40
1.0
 40
1.0
 40
1.0
 40
2.0
 40
2.0
 40
2.0
 40
3.0
 40
3.0
 40
3.0
 40
4.0
 40
4.0
 40
4.0
 40
5.0
 40
5.0
 40
5.0
 40
6.0
 40
6.0
 40
6.0
 40
7.0
 40
7.0
 40
7.0
 40
8.0
 40
8.0
 40
8.0
 40
9.0
 40
9.0
 40
9.0
 40
10.0
 40
10.0
 40
10.0
 40
11.0
 40
11.0
 40
11.0
 40
12.0
 40
12.0
 40
12.0
 40
12.0
 10
1258.158690166958
 20
-504.5570967621015
 10
1249.568521722318
 20
-500.5526882113545
 10
1244.289560075944
 20
-504.7700641457814
 10
1238.854540519907
 20
-509.7307638565308
 10
1222.820979859018
 20
-524.3649429088928
 10
1206.766326439561
 20
-538.9884776004083
 10
1190.346896563689
 20
-553.1848215790578
 10
1161.573024691665
 20
-578.0629642699587
 10
1132.381003132932
 20
-602.4577371819987
 10
1103.630290539737
 20
-627.3621745617875
 10
1080.159394704751
 20
-647.6930641135596
 10
1056.993773794416
 20
-668.3801255589215
 10
1033.940172534303
 20
-689.1833575098653
 10
1031.417450106084
 20
-691.459789915134
 10
1028.471233542195
 20
-696.3437611536337
 10
1029.350217247978
 20
-698.612052181652
 10
1030.767351334471
 20
-702.2689379387102
 10
1034.762291303141
 20
-706.3317524091854
 10
1038.468987324515
 20
-707.3731004744022
 10
1044.286598166838
 20
-709.0074329666686
 10
1050.770483646296
 20
-708.5011711314255
 10
1056.972253479933
 20
-708.5015274280231
 10
1134.701990427704
 20
-708.5061949134488
 10
1212.431656116156
 20
-708.4434510826468
 10
1290.161393063927
 20
-708.3809566594628
 10
1296.38019387492
 20
-708.3759685071
 10
1302.612533956615
 20
-708.4826793380207
 10
1308.815230161406
 20
-708.1278079270114
 10
1326.544548847953
 20
-707.1134315142181
 10
1331.458021444718
 20
-700.5231558707774
 10
1326.164594156488
 20
-684.3713581840411
 10
1322.546473469225
 20
-673.3316506322881
 10
1318.349727107789
 20
-662.4756852358132
 10
1314.217826727077
 20
-651.6113290544699
 10
1295.744418226523
 20
-603.0374495607957
 10
1277.201318111516
 20
-554.490025089478
 10
1258.158690166958
 20
-504.5570967621015
 97
        0
 97
        0
 92
        1
 93
        1
 72
     4
 94
        3
 73
     0
 74
     1
 95
       38
 96
       34
 40
0.0
 40
0.0
 40
0.0
 40
0.0
 40
1.0
 40
1.0
 40
1.0
 40
2.0
 40
2.0
 40
2.0
 40
3.0
 40
3.0
 40
3.0
 40
4.0
 40
4.0
 40
4.0
 40
5.0
 40
5.0
 40
5.0
 40
6.0
 40
6.0
 40
6.0
 40
7.0
 40
7.0
 40
7.0
 40
8.0
 40
8.0
 40
8.0
 40
9.0
 40
9.0
 40
9.0
 40
10.0
 40
10.0
 40
10.0
 40
11.0
 40
11.0
 40
11.0
 40
11.0
 10
1625.402286742545
 20
-699.1911410414032
 10
1622.158277482551
 20
-696.0346025960707
 10
1619.140587821224
 20
-691.5658594121796
 10
1614.937285602395
 20
-689.2340763305056
 10
1526.060097011818
 20
-639.9302163680804
 10
1437.03924963317
 20
-590.8852058836655
 10
1348.084388384359
 20
-541.7212279653795
 10
1341.309194806869
 20
-537.9766576157017
 10
1334.786544257615
 20
-533.7699438569516
 10
1328.195912317577
 20
-529.6978122304545
 10
1313.038912545606
 20
-520.3326185197402
 10
1298.020725927981
 20
-510.733818944942
 10
1282.671611030695
 20
-501.6962755851946
 10
1279.96746237508
 20
-500.104173147135
 10
1275.930764445193
 20
-500.7754982885381
 10
1271.176841464745
 20
-500.2559198679664
 10
1271.8541612964
 20
-505.355904826054
 10
1271.691975085263
 20
-508.5225888169971
 10
1272.721173436508
 20
-511.2376935929824
 10
1294.176000604775
 20
-567.8397103711441
 10
1315.757455583756
 20
-624.3937607198814
 10
1337.333352335818
 20
-680.949859774053
 10
1345.731833211057
 20
-702.9644645264925
 10
1352.833536990403
 20
-708.0725463247545
 10
1377.674963316942
 20
-708.2398275772339
 10
1415.746537416719
 20
-708.4961473494022
 10
1453.821531963833
 20
-708.2695783431163
 10
1491.894958805917
 20
-708.2494475853637
 10
1528.414789964705
 20
-708.230136309784
 10
1564.935761272605
 20
-708.3733675419389
 10
1601.45331213317
 20
-708.0696959519755
 10
1609.526993030218
 20
-708.0025696730263
 10
1618.981394501507
 20
-710.7729894957574
 10
1625.402286742545
 20
-699.1911410414032
 97
        0
 97
        0
 92
        1
 93
        1
 72
     4
 94
        3
 73
     0
 74
     1
 95
       35
 96
       31
 40
0.0
 40
0.0
 40
0.0
 40
0.0
 40
1.0
 40
1.0
 40
1.0
 40
2.0
 40
2.0
 40
2.0
 40
3.0
 40
3.0
 40
3.0
 40
4.0
 40
4.0
 40
4.0
 40
5.0
 40
5.0
 40
5.0
 40
6.0
 40
6.0
 40
6.0
 40
7.0
 40
7.0
 40
7.0
 40
8.0
 40
8.0
 40
8.0
 40
9.0
 40
9.0
 40
9.0
 40
10.0
 40
10.0
 40
10.0
 40
10.0
 10
728.5299976949154
 20
-502.9059916075121
 10
721.9571093254281
 20
-505.396843305095
 10
717.588628004045
 20
-506.3947499076739
 10
713.903238519194
 20
-508.5568467348367
 10
691.8205454869922
 20
-521.5118533681498
 10
670.0024026783594
 20
-534.9185906424746
 10
647.8960515520903
 20
-547.832355944639
 10
588.2315140932342
 20
-582.6863758067802
 10
528.4247074030372
 20
-617.2969025742595
 10
468.764481133011
 20
-652.1582443314765
 10
447.9784583077217
 20
-664.3041637440028
 10
427.3785291952527
 20
-676.7749900236959
 10
406.8604057815473
 20
-689.3691840002393
 10
400.6356904470376
 20
-693.1900018217611
 10
392.7166066435993
 20
-696.3515640491169
 10
394.3789440484215
 20
-707.1513058425217
 10
397.6928230711655
 20
-707.8414523516822
 10
400.6346571869053
 20
-708.9889411732638
 10
403.5764556729855
 20
-708.9888342842842
 10
485.2908356177622
 20
-708.985912652186
 10
567.0057143777758
 20
-708.9884779876875
 10
648.719239210719
 20
-708.6663146043193
 10
665.5981135489374
 20
-708.5997583999251
 10
669.1794644273477
 20
-705.3552859543552
 10
674.6431658594738
 20
-687.7286697620075
 10
692.1328038249521
 20
-631.3048280047897
 10
709.4910752349697
 20
-574.8400299537007
 10
726.723146390189
 20
-518.3370458147865
 10
727.9609920288704
 20
-514.2779902734137
 10
727.7708009051794
 20
-509.7833888639661
 10
728.5299976949154
 20
-502.9059916075121
 97
        0
 97
        0
 92
        1
 93
        1
 72
     4
 94
        3
 73
     0
 74
     1
 95
       35
 96
       31
 40
0.0
 40
0.0
 40
0.0
 40
0.0
 40
1.0
 40
1.0
 40
1.0
 40
2.0
 40
2.0
 40
2.0
 40
3.0
 40
3.0
 40
3.0
 40
4.0
 40
4.0
 40
4.0
 40
5.0
 40
5.0
 40
5.0
 40
6.0
 40
6.0
 40
6.0
 40
7.0
 40
7.0
 40
7.0
 40
8.0
 40
8.0
 40
8.0
 40
9.0
 40
9.0
 40
9.0
 40
10.0
 40
10.0
 40
10.0
 40
10.0
 10
199.4328730239476
 20
-707.0347612255127
 10
208.028706584485
 20
-708.0866912996717
 10
211.7666854471117
 20
-708.9373137963012
 10
215.5056084957223
 20
-708.9414468368304
 10
257.4957414811033
 20
-708.988192950409
 10
299.486453448455
 20
-709.0015184431522
 10
341.4760965260157
 20
-708.8147477667953
 10
362.0259659665489
 20
-708.7233576895633
 10
365.5871860872066
 20
-705.6702165167953
 10
368.9868257009439
 20
-685.6004032967667
 10
371.9671932936926
 20
-668.0057112795457
 10
374.3658710615282
 20
-650.312164771376
 10
377.3732815660196
 20
-632.7224252768592
 10
383.7742033827726
 20
-595.2847740831721
 10
390.5722355721564
 20
-557.9135365752409
 10
396.6516175245879
 20
-520.4249260607112
 10
397.1976420601004
 20
-517.0578430485612
 10
393.7006265862947
 20
-513.0351119452935
 10
391.146478798184
 20
-507.1705412114343
 10
378.8139312279409
 20
-517.9588458840626
 10
367.724359967382
 20
-526.4424460164191
 10
358.06095491206
 20
-536.3211343833045
 10
312.9592748341829
 20
-582.4275619584296
 10
268.2550614255333
 20
-628.9227714732224
 10
223.3965626827958
 20
-675.2671962679951
 10
219.071513916635
 20
-679.7355118959695
 10
214.213864089269
 20
-683.773635012245
 10
210.422342755468
 20
-688.6483781688721
 10
206.830623646073
 20
-693.2662136639447
 10
204.316060409933
 20
-698.7217915336505
 10
199.4328730239476
 20
-707.0347612255127
 97
        0
 97
        0
 92
        1
 93
        1
 72
     4
 94
        3
 73
     0
 74
     1
 95
       35
 96
       31
 40
0.0
 40
0.0
 40
0.0
 40
0.0
 40
1.0
 40
1.0
 40
1.0
 40
2.0
 40
2.0
 40
2.0
 40
3.0
 40
3.0
 40
3.0
 40
4.0
 40
4.0
 40
4.0
 40
5.0
 40
5.0
 40
5.0
 40
6.0
 40
6.0
 40
6.0
 40
7.0
 40
7.0
 40
7.0
 40
8.0
 40
8.0
 40
8.0
 40
9.0
 40
9.0
 40
9.0
 40
10.0
 40
10.0
 40
10.0
 40
10.0
 10
1609.109270899429
 20
-510.4037279622817
 10
1609.723668751983
 20
-516.1176564947609
 10
1609.649131503807
 20
-520.5182312321549
 10
1610.73213064126
 20
-524.6125868589152
 10
1615.292299532042
 20
-541.8540018924004
 10
1620.588577193052
 20
-558.9067133404887
 10
1624.896915648795
 20
-576.2074428500264
 10
1634.074830960501
 20
-613.0627806997545
 10
1643.247330563927
 20
-649.9312302642675
 10
1651.491748790449
 20
-687.0011655546095
 10
1654.57613717481
 20
-700.8700462380048
 10
1662.986447097081
 20
-706.3454698281857
 10
1675.65920447335
 20
-707.8878065390036
 10
1678.725635509199
 20
-708.2610628544389
 10
1681.86603371867
 20
-708.1250644432112
 10
1684.970232193846
 20
-708.0767862542643
 10
1722.673538130552
 20
-707.4905358329042
 10
1760.365300057503
 20
-705.878899433892
 10
1798.094829423779
 20
-707.2171850833802
 10
1801.160262829157
 20
-707.3259624345665
 10
1804.352395304568
 20
-703.8616193587413
 10
1809.435465081693
 20
-700.9350703670298
 10
1804.729357104616
 20
-695.032874712485
 10
1801.453851225413
 20
-689.9925248973877
 10
1797.290169188214
 20
-685.8437895024499
 10
1742.282107590419
 20
-631.0358775182431
 10
1687.156610634122
 20
-576.3460065967547
 10
1632.036101830186
 20
-521.6511297080733
 10
1626.616830583756
 20
-516.273696589592
 10
1621.694664350016
 20
-509.9281788937342
 10
1609.109270899429
 20
-510.4037279622817
 97
        0
 97
        0
 92
        1
 93
        1
 72
     4
 94
        3
 73
     0
 74
     1
 95
       26
 96
       22
 40
0.0
 40
0.0
 40
0.0
 40
0.0
 40
1.0
 40
1.0
 40
1.0
 40
2.0
 40
2.0
 40
2.0
 40
3.0
 40
3.0
 40
3.0
 40
4.0
 40
4.0
 40
4.0
 40
5.0
 40
5.0
 40
5.0
 40
6.0
 40
6.0
 40
6.0
 40
7.0
 40
7.0
 40
7.0
 40
7.0
 10
541.7498794788035
 20
-1105.881117767491
 10
538.3996225734654
 20
-1101.23828806611
 10
535.5653187708203
 20
-1096.093008903079
 10
531.6141676539701
 20
-1092.035289473946
 10
508.3491756226204
 20
-1068.14260972696
 10
484.7978280159423
 20
-1044.529052734375
 10
461.3920988286209
 20
-1020.773048362153
 10
412.3269932161129
 20
-970.9736867217252
 10
363.3495365665649
 20
-921.0878875267699
 10
314.224733459163
 20
-871.347564232532
 10
283.1193279130812
 20
-839.8524058385556
 10
251.9628650645918
 20
-808.404456743735
 10
220.5235561622585
 20
-777.2438608547163
 10
207.8543884742076
 20
-764.687006761581
 10
194.7581013326117
 20
-752.4936820867715
 10
181.1446229576459
 20
-740.9759313902887
 10
167.5350816600821
 20
-729.4615655114812
 10
140.9403286851602
 20
-728.2371166248622
 10
119.8380837222649
 20
-739.0867755715626
 10
260.8713845190059
 20
-862.2068106559336
 10
398.9417495340258
 20
-986.3467803800177
 10
541.7498794788035
 20
-1105.881117767491
 97
        0
 97
        0
 92
        1
 93
        1
 72
     4
 94
        3
 73
     0
 74
     1
 95
       41
 96
       37
 40
0.0
 40
0.0
 40
0.0
 40
0.0
 40
1.0
 40
1.0
 40
1.0
 40
2.0
 40
2.0
 40
2.0
 40
3.0
 40
3.0
 40
3.0
 40
4.0
 40
4.0
 40
4.0
 40
5.0
 40
5.0
 40
5.0
 40
6.0
 40
6.0
 40
6.0
 40
7.0
 40
7.0
 40
7.0
 40
8.0
 40
8.0
 40
8.0
 40
9.0
 40
9.0
 40
9.0
 40
10.0
 40
10.0
 40
10.0
 40
11.0
 40
11.0
 40
11.0
 40
12.0
 40
12.0
 40
12.0
 40
12.0
 10
1894.908595980727
 20
-729.8921143197786
 10
1876.26416511342
 20
-730.7216084281818
 10
1863.18622724659
 20
-730.6665606038832
 10
1850.283587305679
 20
-732.1431249628222
 10
1843.718893757932
 20
-732.8943407087772
 10
1836.349682493259
 20
-734.9760392087373
 10
1831.300104596288
 20
-738.9448270071589
 10
1819.126875049571
 20
-748.5124595370999
 10
1807.450607996907
 20
-758.9176028488864
 10
1796.734631533551
 20
-770.0977625193336
 10
1754.275621133407
 20
-814.3962966221852
 10
1712.344927327887
 20
-859.200593745044
 10
1670.061927446859
 20
-903.6688675468959
 10
1624.008169416244
 20
-952.102936255751
 10
1577.666808772208
 20
-1000.263689844743
 10
1531.694713921715
 20
-1048.774825507615
 10
1516.636194529267
 20
-1064.665154936351
 10
1502.340719929807
 20
-1081.278766457806
 10
1487.696359702173
 20
-1097.561592218235
 10
1491.887262799413
 20
-1098.769223905458
 10
1494.238820342243
 20
-1098.243330127698
 10
1495.823485088833
 20
-1096.847003762494
 10
1524.945031180599
 20
-1071.186309039897
 10
1554.251708984375
 20
-1045.72542544912
 10
1582.947124345654
 20
-1019.59406292136
 10
1612.240405397366
 20
-992.9183504520952
 10
1640.601329513007
 20
-965.2178577093919
 10
1669.935798451381
 20
-938.5888200943855
 10
1709.023530446939
 20
-903.1062395899435
 10
1748.714543841212
 20
-868.289221129442
 10
1788.038999296081
 20
-833.0662383258659
 10
1819.841748542593
 20
-804.580396623177
 10
1851.590055669019
 20
-776.03124101513
 10
1883.073420645622
 20
-747.1945540529832
 10
1887.21515481242
 20
-743.4011710694613
 10
1889.642532271177
 20
-737.7359839115052
 10
1894.908595980727
 20
-729.8921143197786
 97
        0
 97
        0
 92
        1
 93
        1
 72
     4
 94
        3
 73
     0
 74
     1
 95
       35
 96
       31
 40
0.0
 40
0.0
 40
0.0
 40
0.0
 40
1.0
 40
1.0
 40
1.0
 40
2.0
 40
2.0
 40
2.0
 40
3.0
 40
3.0
 40
3.0
 40
4.0
 40
4.0
 40
4.0
 40
5.0
 40
5.0
 40
5.0
 40
6.0
 40
6.0
 40
6.0
 40
7.0
 40
7.0
 40
7.0
 40
8.0
 40
8.0
 40
8.0
 40
9.0
 40
9.0
 40
9.0
 40
10.0
 40
10.0
 40
10.0
 40
10.0
 10
1080.998544450944
 20
-421.6641477981811
 10
1083.448796151253
 20
-423.6579457007092
 10
1085.426456044774
 20
-426.4271808372541
 10
1087.976969607591
 20
-427.1365272793073
 10
1097.681277512294
 20
-429.8354784583089
 10
1107.631501328522
 20
-431.636428600641
 10
1117.380275048581
 20
-434.1912845282395
 10
1163.024719548104
 20
-446.1532435538211
 10
1208.693178438292
 20
-458.033953594073
 10
1254.198524746193
 20
-470.507256135119
 10
1262.472016775064
 20
-472.7750661627297
 10
1269.071912426634
 20
-472.3055741363378
 10
1275.918507842243
 20
-467.2540722377416
 10
1292.753949625238
 20
-454.8327088331826
 10
1309.970628767449
 20
-442.9237177505111
 10
1326.674668365324
 20
-430.33208910947
 10
1330.51397798025
 20
-427.4378985293633
 10
1332.90800607749
 20
-422.6262911297954
 10
1337.707463763087
 20
-416.4618923555181
 10
1329.472879322653
 20
-415.3367967750828
 10
1324.344773655615
 20
-414.0683430318313
 10
1319.208544426157
 20
-414.0345683412515
 10
1299.032038190038
 20
-413.901896849502
 10
1278.853109137055
 20
-414.1923787848
 10
1258.674750158629
 20
-414.2632795808286
 10
1206.670411395542
 20
-414.4460018370974
 10
1154.66536003926
 20
-414.5148472471292
 10
1102.662018906647
 20
-414.8500421785466
 10
1095.336917160732
 20
-414.8972581582639
 10
1086.936726061826
 20
-412.5598233218134
 10
1080.998544450944
 20
-421.6641477981811
 97
        0
 97
        0
 92
        1
 93
        1
 72
     4
 94
        3
 73
     0
 74
     1
 95
       29
 96
       25
 40
0.0
 40
0.0
 40
0.0
 40
0.0
 40
1.0
 40
1.0
 40
1.0
 40
2.0
 40
2.0
 40
2.0
 40
3.0
 40
3.0
 40
3.0
 40
4.0
 40
4.0
 40
4.0
 40
5.0
 40
5.0
 40
5.0
 40
6.0
 40
6.0
 40
6.0
 40
7.0
 40
7.0
 40
7.0
 40
8.0
 40
8.0
 40
8.0
 40
8.0
 10
672.6120971060045
 20
-422.185104641213
 10
675.4705934476124
 20
-426.7201479413188
 10
676.2447903241
 20
-429.2248751645166
 10
677.9423654624052
 20
-430.4458234370668
 10
696.7884602038384
 20
-444.0007711884946
 10
715.7983088614374
 20
-457.3276980250021
 10
734.718014479894
 20
-470.7808741070903
 10
742.5299598964939
 20
-476.3356894865865
 10
749.9362260072967
 20
-474.85884009037
 10
758.7621202807741
 20
-472.0972475158387
 10
797.1056912030062
 20
-460.0997389972526
 10
835.8763904861989
 20
-449.473767508106
 10
874.2959238429967
 20
-437.7091210844565
 10
887.7874508000868
 20
-433.5777907783013
 10
902.7933095554408
 20
-432.4954196136023
 10
915.4374919445982
 20
-421.2755662753507
 10
911.0698657350495
 20
-419.1603157701838
 10
908.360515149112
 20
-416.6971282765353
 10
905.661782201777
 20
-416.7088771568342
 10
831.3285494576858
 20
-417.0325124905203
 10
756.9960293067888
 20
-417.5737782396045
 10
682.6653618982
 20
-418.2774506583437
 10
679.9365575180436
 20
-418.3032843885094
 10
677.2266368575511
 20
-420.328850586403
 10
672.6120971060045
 20
-422.185104641213
 97
        0
 97
        0
 92
        1
 93
        1
 72
     4
 94
        3
 73
     0
 74
     1
 95
       32
 96
       28
 40
0.0
 40
0.0
 40
0.0
 40
0.0
 40
1.0
 40
1.0
 40
1.0
 40
2.0
 40
2.0
 40
2.0
 40
3.0
 40
3.0
 40
3.0
 40
4.0
 40
4.0
 40
4.0
 40
5.0
 40
5.0
 40
5.0
 40
6.0
 40
6.0
 40
6.0
 40
7.0
 40
7.0
 40
7.0
 40
8.0
 40
8.0
 40
8.0
 40
9.0
 40
9.0
 40
9.0
 40
9.0
 10
1714.29201697335
 20
-577.0566579750957
 10
1712.942507981044
 20
-578.6399509797857
 10
1711.592998988737
 20
-580.223261799305
 10
1710.24348999643
 20
-581.806554803994
 10
1713.367783599699
 20
-585.9598864250383
 10
1716.029461700904
 20
-590.5833870360093
 10
1719.693045833994
 20
-594.1885741567858
 10
1740.095444112865
 20
-614.2651570121661
 10
1760.899032360407
 20
-633.9348491533165
 10
1781.24613340736
 20
-654.0662660550352
 10
1794.432100402522
 20
-667.1125291543576
 10
1806.858728089308
 20
-680.9270033473294
 10
1820.069920883565
 20
-693.9464194980374
 10
1824.917549869131
 20
-698.7236086462972
 10
1830.562285602395
 20
-704.5766710000607
 10
1836.679185586532
 20
-705.8167613073056
 10
1853.049589050603
 20
-709.135485963774
 10
1869.849401173858
 20
-709.6903822845625
 10
1886.715484464228
 20
-705.37930034502
 10
1886.485744418227
 20
-701.8667147099077
 10
1887.246651431631
 20
-698.6111970698175
 10
1886.064601840102
 20
-697.577224344167
 10
1841.732183930837
 20
-658.801180612013
 10
1789.578058078205
 20
-630.8861438731865
 10
1743.167575894273
 20
-594.9418920526659
 10
1734.265006593036
 20
-588.0470540777687
 10
1723.953498027045
 20
-582.9715021588481
 10
1714.29201697335
 20
-577.0566579750957
 97
        0
 97
        0
 92
        1
 93
        1
 72
     4
 94
        3
 73
     0
 74
     1
 95
       26
 96
       22
 40
0.0
 40
0.0
 40
0.0
 40
0.0
 40
1.0
 40
1.0
 40
1.0
 40
2.0
 40
2.0
 40
2.0
 40
3.0
 40
3.0
 40
3.0
 40
4.0
 40
4.0
 40
4.0
 40
5.0
 40
5.0
 40
5.0
 40
6.0
 40
6.0
 40
6.0
 40
7.0
 40
7.0
 40
7.0
 40
7.0
 10
136.1777521511021
 20
-705.1279687252154
 10
154.261140581315
 20
-713.3483725610731
 10
169.2071014249386
 20
-709.282137643263
 10
181.9899010053141
 20
-697.9276776773686
 10
197.5341328267523
 20
-684.1203294163433
 10
212.0313781893192
 20
-669.1285265617571
 10
226.8827823697011
 20
-654.548495684784
 10
243.4144545811687
 20
-638.318882821176
 10
259.9344491716565
 20
-622.0742342411577
 10
276.2133556695153
 20
-605.5929869056363
 10
279.1791507314301
 20
-602.5903329607199
 10
280.9633059429034
 20
-598.4205760665363
 10
285.7875618716789
 20
-590.901399564018
 10
277.5573776942219
 20
-594.2984560274235
 10
272.9634497008346
 20
-595.184690368963
 10
269.6284422898652
 20
-597.7241943669205
 10
226.6238972620313
 20
-630.4707732999395
 10
183.7683554712285
 20
-663.4137072877847
 10
141.0199698820934
 20
-696.4941539473957
 10
138.9276893731903
 20
-698.1132013156339
 10
138.1701716311691
 20
-701.4571517711975
 10
136.1777521511021
 20
-705.1279687252154
 97
        0
 97
        0
 92
        1
 93
        1
 72
     4
 94
        3
 73
     0
 74
     1
 95
       23
 96
       19
 40
0.0
 40
0.0
 40
0.0
 40
0.0
 40
1.0
 40
1.0
 40
1.0
 40
2.0
 40
2.0
 40
2.0
 40
3.0
 40
3.0
 40
3.0
 40
4.0
 40
4.0
 40
4.0
 40
5.0
 40
5.0
 40
5.0
 40
6.0
 40
6.0
 40
6.0
 40
6.0
 10
1530.799554350413
 20
-454.5917899814367
 10
1531.016325200269
 20
-452.9158821299607
 10
1531.233096050128
 20
-451.2399742784846
 10
1531.449724381346
 20
-449.5640708807168
 10
1504.528523556472
 20
-431.9482638363916
 10
1481.263353376824
 20
-406.083845399964
 10
1443.370070094385
 20
-413.3608137024248
 10
1439.106339972637
 20
-414.1796077786375
 10
1434.07129897684
 20
-410.8759344265554
 10
1429.767663636183
 20
-411.6264108570704
 10
1426.456670615878
 20
-412.2037805857399
 10
1423.732854388087
 20
-416.1487054195513
 10
1417.935338673858
 20
-420.9022542885723
 10
1455.04619462841
 20
-433.5024652239035
 10
1488.559880135628
 20
-444.9771619302983
 10
1522.189860852237
 20
-456.1001359968632
 10
1524.626929578442
 20
-456.9061813354501
 10
1527.909846426872
 20
-455.1543689476057
 10
1530.799554350413
 20
-454.5917899814367
 97
        0
 97
        0
 92
        1
 93
        1
 72
     4
 94
        3
 73
     0
 74
     1
 95
       11
 96
        7
 40
0.0
 40
0.0
 40
0.0
 40
0.0
 40
1.0
 40
1.0
 40
1.0
 40
2.0
 40
2.0
 40
2.0
 40
2.0
 10
472.0766855617467
 20
-452.4190220711807
 10
490.7230404306792
 20
-454.9573057532925
 10
546.4267355052343
 20
-433.6828982745337
 10
557.4494120796317
 20
-420.6808849857553
 10
522.4656111818886
 20
-412.9290980227715
 10
494.3551635742188
 20
-422.744570465863
 10
472.0766855617467
 20
-452.4190220711807
 97
        0
 97
        0
 75
     2
 76
     1
 98
        0
  0
ENDBLK
  5
48
330
45
100
AcDbEntity
  8
0
100
AcDbBlockEnd
  0
ENDSEC
  0
SECTION
  2
ENTITIES
  0
INSERT
  5
42
330
1F
100
AcDbEntity
  8
Layer 1
100
AcDbBlockReference
  2
block 2
 10
0.0
 20
0.0
 30
0.0
  0
ENDSEC
  0
SECTION
  2
OBJECTS
  0
DICTIONARY
  5
C
330
0
100
AcDbDictionary
281
     1
  3
ACAD_GROUP
350
D
  3
ACAD_LAYOUT
350
1A
  3
ACAD_MATERIAL
350
3B
  3
ACAD_MLEADERSTYLE
350
66
  3
ACAD_MLINESTYLE
350
17
  3
ACAD_PLOTSETTINGS
350
19
  3
ACAD_PLOTSTYLENAME
350
E
  3
ACAD_TABLESTYLE
350
65
  3
ACAD_VISUALSTYLE
350
2A
  0
SUN
  5
3F
330
29
100
AcDbSun
 90
        1
290
     0
 63
     7
421
 16777215
 40
1.0
291
     1
 91
  2455826
 92
 54000000
292
     0
 70
     2
 71
   256
280
     1
  0
DICTIONARY
  5
D
102
{ACAD_REACTORS
330
C
102
}
330
C
100
AcDbDictionary
281
     1
  0
DICTIONARY
  5
1A
102
{ACAD_REACTORS
330
C
102
}
330
C
100
AcDbDictionary
281
     1
  3
Layout1
350
1E
  3
Layout2
350
26
  3
Model
350
22
  0
DICTIONARY
  5
3B
102
{ACAD_REACTORS
330
C
102
}
330
C
100
AcDbDictionary
281
     1
  3
ByBlock
350
3D
  3
ByLayer
350
3C
  3
Global
350
3E
  0
DICTIONARY
  5
66
102
{ACAD_REACTORS
330
C
102
}
330
C
100
AcDbDictionary
281
     1
  0
DICTIONARY
  5
17
102
{ACAD_REACTORS
330
C
102
}
330
C
100
AcDbDictionary
281
     1
  3
Standard
350
18
  0
DICTIONARY
  5
19
102
{ACAD_REACTORS
330
C
102
}
330
C
100
AcDbDictionary
281
     1
  0
ACDBDICTIONARYWDFLT
  5
E
102
{ACAD_REACTORS
330
C
102
}
330
C
100
AcDbDictionary
281
     1
  3
Normal
350
F
100
AcDbDictionaryWithDefault
340
F
  0
DICTIONARY
  5
65
102
{ACAD_REACTORS
330
C
102
}
330
C
100
AcDbDictionary
281
     1
  0
DICTIONARY
  5
2A
102
{ACAD_REACTORS
330
C
102
}
330
C
100
AcDbDictionary
281
     1
  3
2dWireframe
350
2F
  3
3D Hidden
350
31
  3
3dWireframe
350
30
  3
Basic
350
32
  3
Brighten
350
36
  3
ColorChange
350
3A
  3
Conceptual
350
34
  3
Dim
350
35
  3
Facepattern
350
39
  3
Flat
350
2B
  3
FlatWithEdges
350
2C
  3
Gouraud
350
2D
  3
GouraudWithEdges
350
2E
  3
Linepattern
350
38
  3
Realistic
350
33
  3
Thicken
350
37
  0
LAYOUT
  5
1E
102
{ACAD_REACTORS
330
1A
102
}
330
1A
100
AcDbPlotSettings
  1

  2
none_device
  4

  6

 40
0.0
 41
0.0
 42
0.0
 43
0.0
 44
0.0
 45
0.0
 46
0.0
 47
0.0
 48
0.0
 49
0.0
140
0.0
141
0.0
142
1.0
143
1.0
 70
   688
 72
     0
 73
     0
 74
     5
  7

 75
    16
 76
     0
 77
     2
 78
   300
147
1.0
148
0.0
149
0.0
100
AcDbLayout
  1
Layout1
 70
     1
 71
     1
 10
0.0
 20
0.0
 11
12.0
 21
9.0
 12
0.0
 22
0.0
 32
0.0
 14
1.000000000000000E+20
 24
1.000000000000000E+20
 34
1.000000000000000E+20
 15
-1.000000000000000E+20
 25
-1.000000000000000E+20
 35
-1.000000000000000E+20
146
0.0
 13
0.0
 23
0.0
 33
0.0
 16
1.0
 26
0.0
 36
0.0
 17
0.0
 27
1.0
 37
0.0
 76
     0
330
1B
  0
LAYOUT
  5
26
102
{ACAD_REACTORS
330
1A
102
}
330
1A
100
AcDbPlotSettings
  1

  2
none_device
  4

  6

 40
0.0
 41
0.0
 42
0.0
 43
0.0
 44
0.0
 45
0.0
 46
0.0
 47
0.0
 48
0.0
 49
0.0
140
0.0
141
0.0
142
1.0
143
1.0
 70
   688
 72
     0
 73
     0
 74
     5
  7

 75
    16
 76
     0
 77
     2
 78
   300
147
1.0
148
0.0
149
0.0
100
AcDbLayout
  1
Layout2
 70
     1
 71
     2
 10
0.0
 20
0.0
 11
0.0
 21
0.0
 12
0.0
 22
0.0
 32
0.0
 14
0.0
 24
0.0
 34
0.0
 15
0.0
 25
0.0
 35
0.0
146
0.0
 13
0.0
 23
0.0
 33
0.0
 16
1.0
 26
0.0
 36
0.0
 17
0.0
 27
1.0
 37
0.0
 76
     0
330
23
  0
LAYOUT
  5
22
102
{ACAD_REACTORS
330
1A
102
}
330
1A
100
AcDbPlotSettings
  1

  2
none_device
  4

  6

 40
0.0
 41
0.0
 42
0.0
 43
0.0
 44
0.0
 45
0.0
 46
0.0
 47
0.0
 48
0.0
 49
0.0
140
0.0
141
0.0
142
1.0
143
1.0
 70
  1712
 72
     0
 73
     0
 74
     0
  7

 75
     0
 76
     0
 77
     2
 78
   300
147
1.0
148
0.0
149
0.0
100
AcDbLayout
  1
Model
 70
     1
 71
     0
 10
0.0
 20
0.0
 11
12.0
 21
9.0
 12
0.0
 22
0.0
 32
0.0
 14
1.000000000000000E+20
 24
1.000000000000000E+20
 34
1.000000000000000E+20
 15
-1.000000000000000E+20
 25
-1.000000000000000E+20
 35
-1.000000000000000E+20
146
0.0
 13
0.0
 23
0.0
 33
0.0
 16
1.0
 26
0.0
 36
0.0
 17
0.0
 27
1.0
 37
0.0
 76
     0
330
1F
331
29
  0
MATERIAL
  5
3D
102
{ACAD_REACTORS
330
3B
102
}
330
3B
100
AcDbMaterial
  1
ByBlock
 72
     1
 94
      127
  0
MATERIAL
  5
3C
102
{ACAD_REACTORS
330
3B
102
}
330
3B
100
AcDbMaterial
  1
ByLayer
 72
     1
 94
      127
  0
MATERIAL
  5
3E
102
{ACAD_REACTORS
330
3B
102
}
330
3B
100
AcDbMaterial
  1
Global
 72
     1
 94
      127
  0
MLINESTYLE
  5
18
102
{ACAD_REACTORS
330
17
102
}
330
17
100
AcDbMlineStyle
  2
Standard
 70
     0
  3

 62
   256
 51
90.0
 52
90.0
 71
     2
 49
0.5
 62
   256
  6
BYLAYER
 49
-0.5
 62
   256
  6
BYLAYER
  0
ACDBPLACEHOLDER
  5
F
102
{ACAD_REACTORS
330
E
102
}
330
E
  0
VISUALSTYLE
  5
2F
102
{ACAD_REACTORS
330
2A
102
}
330
2A
100
AcDbVisualStyle
  2
2dWireframe
 70
     4
177
     2
291
     0
 71
     0
176
     1
 72
     2
176
     1
 73
     0
176
     1
 90
        0
176
     1
 40
-0.6
176
     1
 41
-30.0
176
     1
 62
     5
 63
     7
421
 16777215
176
     1
 74
     1
176
     1
 91
        4
176
     1
 64
     7
176
     1
 65
   257
176
     1
 75
     1
176
     1
175
     1
176
     1
 42
1.0
176
     1
 92
        0
176
     1
 66
   257
176
     1
 43
1.0
176
     1
 76
     1
176
     1
 77
     6
176
     1
 78
     2
176
     1
 67
     7
176
     1
 79
     5
176
     1
170
     0
176
     1
171
     0
176
     1
290
     0
176
     1
 93
        1
176
     1
 44
0.0
176
     1
173
     0
176
     1
  0
VISUALSTYLE
  5
31
102
{ACAD_REACTORS
330
2A
102
}
330
2A
100
AcDbVisualStyle
  2
3D Hidden
 70
     6
177
     2
291
     0
 71
     1
176
     1
 72
     2
176
     1
 73
     2
176
     1
 90
        0
176
     1
 40
-0.6
176
     1
 41
-30.0
176
     1
 62
     5
 63
     7
421
 16777215
176
     1
 74
     2
176
     1
 91
        2
176
     1
 64
     7
176
     1
 65
   257
176
     1
 75
     2
176
     1
175
     1
176
     1
 42
40.0
176
     1
 92
        0
176
     1
 66
   257
176
     1
 43
1.0
176
     1
 76
     1
176
     1
 77
     6
176
     1
 78
     2
176
     1
 67
     7
176
     1
 79
     3
176
     1
170
     0
176
     1
171
     0
176
     1
290
     0
176
     1
 93
        1
176
     1
 44
0.0
176
     1
173
     0
176
     1
  0
VISUALSTYLE
  5
30
102
{ACAD_REACTORS
330
2A
102
}
330
2A
100
AcDbVisualStyle
  2
3dWireframe
 70
     5
177
     2
291
     0
 71
     0
176
     1
 72
     2
176
     1
 73
     0
176
     1
 90
        0
176
     1
 40
-0.6
176
     1
 41
-30.0
176
     1
 62
     5
 63
     7
421
 16777215
176
     1
 74
     1
176
     1
 91
        4
176
     1
 64
     7
176
     1
 65
   257
176
     1
 75
     1
176
     1
175
     1
176
     1
 42
1.0
176
     1
 92
        0
176
     1
 66
   257
176
     1
 43
1.0
176
     1
 76
     1
176
     1
 77
     6
176
     1
 78
     2
176
     1
 67
     7
176
     1
 79
     5
176
     1
170
     0
176
     1
171
     0
176
     1
290
     0
176
     1
 93
        1
176
     1
 44
0.0
176
     1
173
     0
176
     1
  0
VISUALSTYLE
  5
32
102
{ACAD_REACTORS
330
2A
102
}
330
2A
100
AcDbVisualStyle
  2
Basic
 70
     7
177
     2
291
     1
 71
     1
176
     1
 72
     0
176
     1
 73
     1
176
     1
 90
        0
176
     1
 40
-0.6
176
     1
 41
-30.0
176
     1
 62
     5
 63
     7
421
 16777215
176
     1
 74
     0
176
     1
 91
        4
176
     1
 64
     7
176
     1
 65
   257
176
     1
 75
     1
176
     1
175
     1
176
     1
 42
1.0
176
     1
 92
        8
176
     1
 66
     7
176
     1
 43
1.0
176
     1
 76
     1
176
     1
 77
     6
176
     1
 78
     2
176
     1
 67
     7
176
     1
 79
     5
176
     1
170
     0
176
     1
171
     0
176
     1
290
     0
176
     1
 93
        1
176
     1
 44
0.0
176
     1
173
     0
176
     1
  0
VISUALSTYLE
  5
36
102
{ACAD_REACTORS
330
2A
102
}
330
2A
100
AcDbVisualStyle
  2
Brighten
 70
    12
177
     2
291
     1
 71
     2
176
     1
 72
     2
176
     1
 73
     0
176
     1
 90
        0
176
     1
 40
-0.6
176
     1
 41
-30.0
176
     1
 62
     5
 63
     7
421
 16777215
176
     1
 74
     1
176
     1
 91
        4
176
     1
 64
     7
176
     1
 65
   257
176
     1
 75
     1
176
     1
175
     1
176
     1
 42
1.0
176
     1
 92
        8
176
     1
 66
     7
176
     1
 43
1.0
176
     1
 76
     1
176
     1
 77
     6
176
     1
 78
     2
176
     1
 67
     7
176
     1
 79
     5
176
     1
170
     0
176
     1
171
     0
176
     1
290
     0
176
     1
 93
        1
176
     1
 44
50.0
176
     1
173
     0
176
     1
  0
VISUALSTYLE
  5
3A
102
{ACAD_REACTORS
330
2A
102
}
330
2A
100
AcDbVisualStyle
  2
ColorChange
 70
    16
177
     2
291
     1
 71
     2
176
     1
 72
     2
176
     1
 73
     3
176
     1
 90
        0
176
     1
 40
-0.6
176
     1
 41
-30.0
176
     1
 62
     5
 63
     8
421
  8421504
176
     1
 74
     1
176
     1
 91
        4
176
     1
 64
     7
176
     1
 65
   257
176
     1
 75
     1
176
     1
175
     1
176
     1
 42
1.0
176
     1
 92
        8
176
     1
 66
     8
424
  8421504
176
     1
 43
1.0
176
     1
 76
     1
176
     1
 77
     6
176
     1
 78
     2
176
     1
 67
     7
176
     1
 79
     5
176
     1
170
     0
176
     1
171
     0
176
     1
290
     0
176
     1
 93
        1
176
     1
 44
0.0
176
     1
173
     0
176
     1
  0
VISUALSTYLE
  5
34
102
{ACAD_REACTORS
330
2A
102
}
330
2A
100
AcDbVisualStyle
  2
Conceptual
 70
     9
177
     2
291
     0
 71
     3
176
     1
 72
     2
176
     1
 73
     0
176
     1
 90
        0
176
     1
 40
-0.6
176
     1
 41
-30.0
176
     1
 62
     5
 63
     7
421
 16777215
176
     1
 74
     2
176
     1
 91
        2
176
     1
 64
     7
176
     1
 65
   257
176
     1
 75
     1
176
     1
175
     1
176
     1
 42
40.0
176
     1
 92
        8
176
     1
 66
     7
176
     1
 43
1.0
176
     1
 76
     1
176
     1
 77
     6
176
     1
 78
     2
176
     1
 67
     7
176
     1
 79
     3
176
     1
170
     0
176
     1
171
     0
176
     1
290
     0
176
     1
 93
        1
176
     1
 44
0.0
176
     1
173
     0
176
     1
  0
VISUALSTYLE
  5
35
102
{ACAD_REACTORS
330
2A
102
}
330
2A
100
AcDbVisualStyle
  2
Dim
 70
    11
177
     2
291
     1
 71
     2
176
     1
 72
     2
176
     1
 73
     0
176
     1
 90
        0
176
     1
 40
-0.6
176
     1
 41
-30.0
176
     1
 62
     5
 63
     7
421
 16777215
176
     1
 74
     1
176
     1
 91
        4
176
     1
 64
     7
176
     1
 65
   257
176
     1
 75
     1
176
     1
175
     1
176
     1
 42
1.0
176
     1
 92
        8
176
     1
 66
     7
176
     1
 43
1.0
176
     1
 76
     1
176
     1
 77
     6
176
     1
 78
     2
176
     1
 67
     7
176
     1
 79
     5
176
     1
170
     0
176
     1
171
     0
176
     1
290
     0
176
     1
 93
        1
176
     1
 44
-50.0
176
     1
173
     0
176
     1
  0
VISUALSTYLE
  5
39
102
{ACAD_REACTORS
330
2A
102
}
330
2A
100
AcDbVisualStyle
  2
Facepattern
 70
    15
177
     2
291
     1
 71
     2
176
     1
 72
     2
176
     1
 73
     0
176
     1
 90
        0
176
     1
 40
-0.6
176
     1
 41
-30.0
176
     1
 62
     5
 63
     7
421
 16777215
176
     1
 74
     1
176
     1
 91
        4
176
     1
 64
     7
176
     1
 65
   257
176
     1
 75
     1
176
     1
175
     1
176
     1
 42
1.0
176
     1
 92
        8
176
     1
 66
     7
176
     1
 43
1.0
176
     1
 76
     1
176
     1
 77
     6
176
     1
 78
     2
176
     1
 67
     7
176
     1
 79
     5
176
     1
170
     0
176
     1
171
     0
176
     1
290
     0
176
     1
 93
        1
176
     1
 44
0.0
176
     1
173
     0
176
     1
  0
VISUALSTYLE
  5
2B
102
{ACAD_REACTORS
330
2A
102
}
330
2A
100
AcDbVisualStyle
  2
Flat
 70
     0
177
     2
291
     1
 71
     2
176
     1
 72
     1
176
     1
 73
     1
176
     1
 90
        2
176
     1
 40
-0.6
176
     1
 41
30.0
176
     1
 62
     5
 63
     7
421
 16777215
176
     1
 74
     0
176
     1
 91
        4
176
     1
 64
     7
176
     1
 65
   257
176
     1
 75
     1
176
     1
175
     1
176
     1
 42
1.0
176
     1
 92
        8
176
     1
 66
     7
176
     1
 43
1.0
176
     1
 76
     1
176
     1
 77
     6
176
     1
 78
     2
176
     1
 67
     7
176
     1
 79
     5
176
     1
170
     0
176
     1
171
     0
176
     1
290
     0
176
     1
 93
       13
176
     1
 44
0.0
176
     1
173
     0
176
     1
  0
VISUALSTYLE
  5
2C
102
{ACAD_REACTORS
330
2A
102
}
330
2A
100
AcDbVisualStyle
  2
FlatWithEdges
 70
     1
177
     2
291
     1
 71
     2
176
     1
 72
     1
176
     1
 73
     1
176
     1
 90
        2
176
     1
 40
-0.6
176
     1
 41
30.0
176
     1
 62
     5
 63
     7
421
 16777215
176
     1
 74
     1
176
     1
 91
        4
176
     1
 64
     7
176
     1
 65
   257
176
     1
 75
     1
176
     1
175
     1
176
     1
 42
1.0
176
     1
 92
        0
176
     1
 66
   257
176
     1
 43
1.0
176
     1
 76
     1
176
     1
 77
     6
176
     1
 78
     2
176
     1
 67
     7
176
     1
 79
     5
176
     1
170
     0
176
     1
171
     0
176
     1
290
     0
176
     1
 93
       13
176
     1
 44
0.0
176
     1
173
     0
176
     1
  0
VISUALSTYLE
  5
2D
102
{ACAD_REACTORS
330
2A
102
}
330
2A
100
AcDbVisualStyle
  2
Gouraud
 70
     2
177
     2
291
     1
 71
     2
176
     1
 72
     2
176
     1
 73
     1
176
     1
 90
        2
176
     1
 40
-0.6
176
     1
 41
30.0
176
     1
 62
     5
 63
     7
421
 16777215
176
     1
 74
     0
176
     1
 91
        4
176
     1
 64
     7
176
     1
 65
   257
176
     1
 75
     1
176
     1
175
     1
176
     1
 42
1.0
176
     1
 92
        0
176
     1
 66
     7
176
     1
 43
1.0
176
     1
 76
     1
176
     1
 77
     6
176
     1
 78
     2
176
     1
 67
     7
176
     1
 79
     5
176
     1
170
     0
176
     1
171
     0
176
     1
290
     0
176
     1
 93
       13
176
     1
 44
0.0
176
     1
173
     0
176
     1
  0
VISUALSTYLE
  5
2E
102
{ACAD_REACTORS
330
2A
102
}
330
2A
100
AcDbVisualStyle
  2
GouraudWithEdges
 70
     3
177
     2
291
     1
 71
     2
176
     1
 72
     2
176
     1
 73
     1
176
     1
 90
        2
176
     1
 40
-0.6
176
     1
 41
30.0
176
     1
 62
     5
 63
     7
421
 16777215
176
     1
 74
     1
176
     1
 91
        4
176
     1
 64
     7
176
     1
 65
   257
176
     1
 75
     1
176
     1
175
     1
176
     1
 42
1.0
176
     1
 92
        0
176
     1
 66
   257
176
     1
 43
1.0
176
     1
 76
     1
176
     1
 77
     6
176
     1
 78
     2
176
     1
 67
     7
176
     1
 79
     5
176
     1
170
     0
176
     1
171
     0
176
     1
290
     0
176
     1
 93
       13
176
     1
 44
0.0
176
     1
173
     0
176
     1
  0
VISUALSTYLE
  5
38
102
{ACAD_REACTORS
330
2A
102
}
330
2A
100
AcDbVisualStyle
  2
Linepattern
 70
    14
177
     2
291
     1
 71
     2
176
     1
 72
     2
176
     1
 73
     0
176
     1
 90
        0
176
     1
 40
-0.6
176
     1
 41
-30.0
176
     1
 62
     5
 63
     7
421
 16777215
176
     1
 74
     1
176
     1
 91
        4
176
     1
 64
     7
176
     1
 65
   257
176
     1
 75
     7
176
     1
175
     7
176
     1
 42
1.0
176
     1
 92
        8
176
     1
 66
     7
176
     1
 43
1.0
176
     1
 76
     1
176
     1
 77
     6
176
     1
 78
     2
176
     1
 67
     7
176
     1
 79
     5
176
     1
170
     0
176
     1
171
     0
176
     1
290
     0
176
     1
 93
        1
176
     1
 44
0.0
176
     1
173
     0
176
     1
  0
VISUALSTYLE
  5
33
102
{ACAD_REACTORS
330
2A
102
}
330
2A
100
AcDbVisualStyle
  2
Realistic
 70
     8
177
     2
291
     0
 71
     2
176
     1
 72
     2
176
     1
 73
     0
176
     1
 90
        0
176
     1
 40
-0.6
176
     1
 41
-30.0
176
     1
 62
     5
 63
     7
421
 16777215
176
     1
 74
     1
176
     1
 91
        0
176
     1
 64
     7
176
     1
 65
   257
176
     1
 75
     1
176
     1
175
     1
176
     1
 42
1.0
176
     1
 92
        8
176
     1
 66
     8
424
  7895160
176
     1
 43
1.0
176
     1
 76
     1
176
     1
 77
     6
176
     1
 78
     2
176
     1
 67
     7
176
     1
 79
     5
176
     1
170
     0
176
     1
171
     0
176
     1
290
     0
176
     1
 93
       13
176
     1
 44
0.0
176
     1
173
     0
176
     1
  0
VISUALSTYLE
  5
37
102
{ACAD_REACTORS
330
2A
102
}
330
2A
100
AcDbVisualStyle
  2
Thicken
 70
    13
177
     2
291
     1
 71
     2
176
     1
 72
     2
176
     1
 73
     0
176
     1
 90
        0
176
     1
 40
-0.6
176
     1
 41
-30.0
176
     1
 62
     5
 63
     7
421
 16777215
176
     1
 74
     1
176
     1
 91
        4
176
     1
 64
     7
176
     1
 65
   257
176
     1
 75
     1
176
     1
175
     1
176
     1
 42
1.0
176
     1
 92
       12
176
     1
 66
     7
176
     1
 43
1.0
176
     1
 76
     1
176
     1
 77
     6
176
     1
 78
     2
176
     1
 67
     7
176
     1
 79
     5
176
     1
170
     0
176
     1
171
     0
176
     1
290
     0
176
     1
 93
        1
176
     1
 44
0.0
176
     1
173
     0
176
     1
  0
ENDSEC
  0
EOF
