<?xml version="1.0" encoding="utf-8"?>
<svg version="1.1" id="Layer_1" xmlns="http://www.w3.org/2000/svg" xmlns:xlink="http://www.w3.org/1999/xlink" x="0px" y="0px"
	 viewBox="0 0 2000 2000" style="enable-background:new 0 0 2000 2000;" xml:space="preserve">
<g>
	<g>
		<path d="M717.3,90c156.8,0,313.6,0,470.3,0c2.5,0.3,5,0.8,7.5,1c28.8,2.1,57.6,4.1,86.4,6.1c33.7,2.4,67.4,4.9,101.1,7.3
			c29.9,2.1,59.8,4.2,89.7,6.5c2.1,0.2,4.6,1.3,6.2,2.8c56.1,52.4,112,104.9,168,157.4c96.4,90.5,192.9,180.9,289.3,271.4
			c7.2,6.7,14.6,13.2,21.9,19.8c0,0.6,0,1.3,0,1.9c-1.2,1.3-2.4,2.5-3.6,3.8c-35,42.5-70,85-105.1,127.4
			c-97.2,118-194.5,235.9-291.7,353.9c-2.7,3.2-5.3,6.5-8.2,10.2c1.5,0.4,2.2,0.7,3,0.9c41.3,10.9,82.8,21,123.8,32.8
			c23.7,6.8,46.5,16.4,69.7,24.8c8.5,3.1,12.4,9.5,12.7,18.4c0.8,21.3,2.3,42.7,2.4,64c0.2,27.3-0.5,54.6-1.3,81.8
			c-1,35.9-2,71.7-3.9,107.6c-1.6,28.5-4.7,56.9-6.8,85.3c-1.2,15.3-8.4,25.5-23.4,29.5c-12.3,3.2-24.6,7.3-37.2,8.5
			c-34.9,3.3-69.9,5.8-104.9,7.6c-43.5,2.3-87,3.5-130.5,5.3c-1.8,0.1-3.6,0.4-5.4,0.6c1.1,1.5,2.1,2,3.3,2.6
			c15.2,7,30.5,13.7,45.6,21c43.6,20.9,86,44,125,72.9c30.6,22.6,58.5,48,79.6,80c15.4,23.4,25.6,48.7,28,76.9
			c1.7,20.5,3.6,41,5.3,61.5c0.5,5.7,0.8,11.3,1.2,17c-1.3-0.8-1.7-1.6-2.1-2.5c-9.3-22.6-18.5-45.1-27.8-67.7
			c-12-29.4-32.7-50.6-61.2-64.4c-10.6-5.1-21.8-8.4-34.4-8.8c1,1.6,1.7,2.6,2.4,3.7c8.3,14.3,17.6,28.2,24.8,43
			c10.7,22.1,17.5,45.6,17,70.5c-0.6,29.2-12.8,50.8-41,61.9c-7.3,2.9-14.4,6.1-21.5,9.3c-5.5,2.4-10.9,5.1-16.3,7.6
			c-0.6,0-1.3,0-1.9,0c1-1.4,1.9-2.9,3-4.3c9.2-12.1,18.7-23.9,27.5-36.2c12.7-17.6,11.9-32.6-2.8-48.3
			c-6.2-6.6-13.2-12.6-20.5-17.8c-24.7-17.6-52.1-30.3-79.8-41.9c-42.6-17.9-85.6-35-128.2-52.9c-31-13-61.5-27.3-89.3-46.6
			c-14.8-10.3-28.3-21.9-37.8-37.5c-7.5-12.2-10.8-25.3-9.5-39.7c2-21.4,3.1-42.9,5.1-64.3c2.4-25.2,5.4-50.4,8.2-75.6
			c1-8.7,2.3-17.4,3.5-26.1c-0.3-0.1-0.5-0.2-0.8-0.2c-69.9,84.9-139.9,169.7-210.1,254.9c-70.1-76.4-139.8-152.3-209.4-228.2
			c-0.8,2.1-0.8,3.5-0.6,4.9c4.6,40.7,9.3,81.4,13.8,122.2c1.5,14.1,2.3,28.3-3.5,41.9c-6.9,16-18.3,28.3-31.6,39
			c-24.5,19.8-52.4,34.2-81.1,46.5c-44.6,19.2-89.8,37.2-134.6,55.9c-29.9,12.5-59.5,25.6-86.8,43.2c-12.1,7.8-23.6,16.5-31.9,28.5
			c-5.6,8.1-8.7,17.1-5.2,26.7c2.4,6.6,6.1,13,10.2,18.8c9,12.6,18.6,24.7,27.9,37.1c-0.6,0-1.3,0-1.9,0c-1.3-0.8-2.6-1.7-4-2.3
			c-12.6-5.5-25.2-10.9-37.7-16.3c-18.4-8-29.8-21.9-34.7-41.2c-3.5-13.9-3-27.9-0.5-41.8c5.9-33.1,20-62.7,39.4-89.9
			c0.9-1.3,1.8-2.7,3.2-4.8c-4.3,0.5-7.5,0.7-10.6,1.4c-35,7.5-61.4,27.4-78.3,58.4c-9.7,17.8-16.3,37.3-24.2,56.1
			c-3.9,9.3-7.7,18.7-11.6,28c-0.7-2.1-0.8-4-0.7-5.8c1.3-15.7,2.5-31.5,4-47.2c1.5-14.7,2.3-29.7,5.2-44.1
			c7-34.6,25.5-63.3,48.9-89.1c26.1-28.7,56.8-51.8,89.3-72.4c43.2-27.4,89.1-49.6,135.8-70.3c1.6-0.7,3.1-1.5,4.7-2.2
			c-2.2-1.2-4.1-1.4-5.9-1.5c-45.7-1.8-91.5-3.3-137.2-5.6c-32.6-1.7-65.2-4.2-97.8-7.1c-15.5-1.4-30.8-5-45.1-12
			c-7.4-3.6-12.5-8.9-13.6-17.2c-2.3-17.9-5.3-35.7-6.3-53.6c-2.7-51.6-5-103.2-6.7-154.9c-1-32.5-0.8-65.1-0.6-97.6
			c0.1-14,1.4-28,2.1-42c0.4-8.5,4.2-14.5,12.2-17.7c3.1-1.3,6-3.1,9.2-4.1c31.2-10.3,62.3-20.7,93.6-30.5
			c15.8-4.9,31.9-8.7,48.5-13.1c-148.3-161.6-296.4-323-444.5-484.4c1.1-1.5,1.9-2.7,2.7-3.9c103.8-140.9,207.7-281.8,311.3-422.9
			c3.2-4.4,6.8-6.2,12-7.1c49.3-8.6,98.6-17.4,147.8-26.2c54.9-9.8,109.9-19.5,164.8-29.3C693.9,94.6,705.6,92.2,717.3,90z
			 M534.9,1107.2c-57.4,23.1-116.1,46.8-174.9,70.5c0.2,0.6,0.4,1.1,0.6,1.7c57.8-16.5,115.4-34,174.3-46.2
			c-59.8,21.2-117.9,46.3-176.1,71.4c58-16.3,115.7-33.8,174.8-45.7c-58.6,20.3-115.3,44.9-171.9,69.8c19-4.9,37.7-10.5,56.5-15.8
			c19-5.3,38.1-10.5,57.2-15.4c18.8-4.9,37.6-9.9,57.8-12.8c-59.8,20-116.6,44.8-173.2,69.8c14.1-3.7,28.1-7.9,42.1-11.9
			c14.1-4,28.2-8,42.4-11.8c14.2-3.8,28.3-7.6,42.6-11c14-3.4,28.1-6.2,42.2-9.3c-57.5,19.8-113,44.2-168.4,68.9
			c13.7-3.6,27.2-7.7,40.8-11.7c13.8-4,27.6-7.9,41.4-11.6c13.7-3.7,27.4-7.3,41.2-10.5c13.8-3.2,27.7-6,41.5-9
			c-55.5,19.1-109,42.6-162.2,66.8c52.5-15,104.8-30.7,158.7-40c-54.9,18.3-107.8,41.6-160.3,65.7c52.3-15.2,104.5-31,158.4-39.8
			c-54.2,17.6-106,40.7-157.6,64.6c51.6-15.1,103-30.7,156.2-38.8c-53,16.7-103.5,39.4-153.6,63c10.2-2.5,20.2-5.6,30.2-8.5
			c10.1-3,20.2-5.9,30.3-8.7c10.1-2.8,20.3-5.5,30.5-8c10.2-2.5,20.5-4.9,30.8-7c10.1-2,20.3-3.7,30.5-5.4
			c-53.2,16.6-103.5,39.5-153.5,63.2c49.5-14.6,98.8-29.6,150.2-36.6c-51.2,15.6-99.6,37.6-147.6,60.8c48.3-14.1,96.3-28.8,146.4-35
			c-50.8,14.7-98.5,36.8-145.8,59.9c2-0.1,3.7-0.6,5.5-1.2c39-12.1,78.2-23.5,118.5-30.4c8.4-1.4,17.2-1.1,25.6-2.9
			c29.3-6.2,58.4-13.2,87.8-19.3c44.2-9.1,88.9-15.6,133.8-20.4c40.6-4.3,81.2-8.8,121.9-11.7c46.1-3.3,92.3-5.4,138.5-7.2
			c28.7-1.1,57.5-0.7,86.2-0.7c27.4,0.1,54.9,0.2,82.3,1c24.7,0.7,49.5,1.3,74.1,3.6c38.1,3.6,76.1,8.5,114,13.2
			c52.6,6.5,104.3,18.1,156,29c23.1,4.8,45.9,11.2,69.1,15c44.6,7.3,88.4,17.8,131.5,31.2c1.3,0.4,2.7,0.7,4.1,1.1
			c-47.2-23.4-94.9-45.6-145.6-60.3c50.1,6.1,98.2,21,146.6,35c-48.3-23.1-96.8-45.4-148.2-60.9c50.8,6.8,99.7,21.7,148.8,36
			c-49.4-23.5-99.2-46.1-151.7-62c52,7.3,102.1,22.6,152.4,37.2c-50.1-23.6-100.5-46.2-153.4-63c53.2,8.3,104.6,23.8,156.1,38.9
			c-51.6-23.9-103.5-47-157.7-64.6c26.7,3.6,52.8,10.2,78.7,17.3c25.9,7.1,51.7,14.6,77.6,21.9c-51.7-24-103.8-47-158-65
			c27.4,4,54.2,10.9,80.8,18.2c26.6,7.3,53.1,15,79.7,22.6c-54.1-24.6-108.4-48.6-165-67.3c56.3,10.1,111,26.6,165.9,42.4
			c-55.5-24.7-111.1-49.2-168.8-68.7c18.8,3.8,37.6,8,56.3,12.6c18.7,4.7,37.3,9.8,55.9,15c18.3,5.1,36.5,10.6,54.8,15.9
			c-55.7-25.2-111.5-49.7-169.4-69.3c58.4,11.3,115.2,28.6,172.3,44.7c-57.3-24.9-114.6-50-173.8-70.4
			c59.1,11.8,116.7,29.4,174.7,45.6c-58.4-25.1-116.6-50.4-176.6-71.6c59.1,12.2,116.8,29.8,174.7,46.4c0.2-0.6,0.4-1.1,0.6-1.7
			c-58.8-23.7-117.5-47.4-174.9-70.5c58.8,13.1,117.8,31.1,177.3,47.6c-1.2-0.9-2.4-1.5-3.7-2.1c-37-15.2-73.9-30.6-111-45.6
			c-15.9-6.5-31.8-13.6-48.3-18c-26.3-7-53.1-12.2-79.8-17.6c-74.6-15.2-149.9-26.2-225.7-33c-45.4-4.1-91-7.2-136.5-8.8
			c-47.8-1.6-95.7-2.1-143.5-0.6c-49.5,1.5-99.1,5.1-148.5,9.2c-36.7,3-73.3,7.8-109.8,12.7c-53.2,7.3-106.1,16.8-158.6,28.4
			c-15.5,3.4-31.6,5.8-46.3,11.5c-49.2,19-97.9,39.3-146.8,59.1c-1.8,0.7-3.6,1.4-5.3,2.2c-1.7,0.7-3.4,1.5-5,2.3
			C417.1,1138.2,476.2,1120.3,534.9,1107.2z M739.5,127.3c100.9,174.1,201.4,347.3,301.8,520.5c1.7-2.2,2.3-4,2.7-5.8
			c20.7-86.8,41.3-173.6,61.9-260.4c19.5-82.2,39.1-164.3,58.6-246.5c1.5-6.2,0.2-7.8-6-7.8c-137.7,0-275.5,0-413.2,0
			C743.7,127.3,742.1,127.3,739.5,127.3z M401.5,666.7c1.1,1.8,1.8,3,2.6,4.2c8.7,13.2,17.4,26.4,26.1,39.5
			c70.9,107.1,141.8,214.1,212.6,321.3c3,4.6,5.8,5.2,10.7,4.4c44.6-6.5,89.3-12.7,134-19c7.7-1.1,15.5-1.8,23.6-2.8
			c-38.8-116.3-77.4-232.1-116-347.7C597.1,666.7,499.8,666.7,401.5,666.7z M735.7,668.3c0.7,2.1,1.1,3.7,1.6,5.1
			c36.6,109.9,73.3,219.8,110,329.7c2.6,7.9,2.6,7.9,10.2,7.3c50.6-4.3,101.2-6.8,151.9-7.4c9.2-0.1,18.4,0,28.3,0
			c0-106.3,0-211.8,0-317.9C937.2,679.5,836.7,673.9,735.7,668.3z M1333.6,668.4c-2.6,0.1-4.5,0.2-6.4,0.3
			c-36.6,2.2-73.2,4.3-109.8,6.5c-54.3,3.2-108.6,6.4-162.8,9.5c-3.7,0.2-3.5,2.2-3.5,4.8c-0.1,19.5-0.2,38.9-0.2,58.4
			c-0.1,72-0.2,144-0.3,216c0,1.6-0.2,3.2-0.2,4.8c0,11.3,0,22.6,0,32.9c58.4,2.5,116.3,5,174.7,7.5
			C1260.9,896.2,1297.1,782.7,1333.6,668.4z M1263.1,1013.6c2.9,0.3,5.1,0.6,7.3,0.9c13,1.4,26,2.6,39,4.3
			c29.1,3.8,58.1,7.9,87.2,12c3.4,0.5,5.1-0.4,6.8-3.3c79.4-127.7,158.9-255.4,238.3-383.1c1-1.6,1.9-3.2,3.1-5.3
			c-17.3,1.7-33.8,3.2-50.3,4.8c-34.3,3.4-68.6,6.8-102.8,10.2c-37.5,3.7-74.9,7.3-112.4,10.8c-3.8,0.4-5.6,1.7-6.9,5.6
			c-26.1,82.5-52.5,164.9-78.8,247.3C1283.6,949.5,1273.4,981.2,1263.1,1013.6z M740.2,154.3c-0.4,0.1-0.8,0.2-1.2,0.2
			c-3.7,158.4-7.3,316.9-11,475.5c99.2,5.5,197.9,11,297.7,16.5C930.2,482,835.2,318.1,740.2,154.3z M386.8,624.4
			c0.4,0.1,0.9,0.2,1.3,0.2c103.6-164,207.2-328,311.2-492.5c-1.8,0.1-2.9,0.1-4,0.3c-17.7,3.1-35.5,6.3-53.2,9.5
			c-85.1,15.2-170.1,30.4-255.2,45.7c-4.7,0.8-7.3,4.1-7.3,8.9c0.7,37.6,1.3,75.3,1.9,112.9c0.6,36.2,1.3,72.4,1.9,108.6
			c0.6,37.5,1.3,75,1.9,112.5c0.4,26.2,0.9,52.3,1.2,78.5C386.9,614,386.8,619.2,386.8,624.4z M632.3,1039.4c-1-1.7-1.8-3.1-2.7-4.4
			c-30.7-46.4-61.5-92.8-92.2-139.2c-48.8-73.7-97.6-147.3-146.3-221.1c-3.2-4.9-5.9-10-13.1-8.2c-0.8,0.2-1.9-0.3-2.8-0.5
			c-22.8-4.6-45.6-9.2-68.4-13.8c-46.9-9.5-93.7-19-140.6-28.4c-14.6-3-29.2-5.8-44.8-8.9c1.6,1.8,2.4,2.9,3.4,4
			c86.1,93.8,172.2,187.6,258.2,281.4c48.2,52.5,96.4,105.1,144.6,157.7c1.8,1.9,3.3,2.7,6.2,2c7.6-2,15.2-3.5,22.9-5.1
			C581.7,1049.6,606.7,1044.6,632.3,1039.4z M701.2,155.3c-0.4-0.1-0.7-0.1-1.1-0.2c-99.6,157.7-199.3,315.4-299.4,473.8
			c97.1,0,193.3,0,289.6,0C694,470.9,697.6,313.1,701.2,155.3z M1334.1,630.5c-53.7-158.7-107.1-316.3-160.4-474
			c-0.4,0.1-0.8,0.2-1.1,0.3C1133.8,319.9,1095,483,1056,647C1148.9,641.5,1241.1,636.1,1334.1,630.5z M1414.9,1033.2
			c1.6,0.4,2.8,0.9,4.1,1.1c28.1,5.2,56.1,10.3,84.2,15.6c3.5,0.7,5.4-0.3,7.6-3c32.6-39.7,65.3-79.3,98-119
			c85.1-103.2,170.1-206.4,255.1-309.6c6.6-8,13.1-15.9,20.3-24.8c-13.3,2.6-25.4,4.9-37.6,7.3c-59.4,11.6-118.9,23.3-178.3,34.8
			c-4.7,0.9-7.7,2.7-10.4,6.9c-76.6,123.4-153.4,246.8-230.2,370.1C1423.4,1019.5,1419.2,1026.2,1414.9,1033.2z M1632,602.3
			c-139.4-148.4-278.1-296.2-416.9-444c-0.4,1.5-0.2,2.6,0.2,3.6c7.6,22.3,15.2,44.6,22.7,67c44.4,131.3,88.9,262.6,133.2,394
			c1.4,4.1,3.2,4.9,7.1,4.5c15.4-1.7,30.8-3.1,46.2-4.6c27.5-2.7,54.9-5.4,82.4-8c27.9-2.7,55.9-5.5,83.8-8.2
			C1604.2,605,1617.6,603.7,1632,602.3z M1206.4,129.7c1.7,2,2.4,2.8,3.1,3.6c20.3,21.6,40.6,43.2,60.9,64.9
			c61.7,65.7,123.3,131.4,185,197.1c63.4,67.6,126.9,135.1,190.2,202.7c2.2,2.4,4.4,3.3,7.7,1.6c-0.7-2-1.3-3.7-2.1-5.5
			c-57.3-139.8-114.6-279.5-171.7-419.4c-4-9.9-8.9-18.6-17.6-24.8c-1.7-1.2-3.8-2.4-5.8-2.5c-19.7-1.5-39.4-2.8-59.2-4.2
			c-55.8-4-111.6-8.1-167.5-12.1C1222.3,130.7,1215,130.3,1206.4,129.7z M367.1,212.4c-0.4-0.1-0.8-0.2-1.1-0.4
			c-88.3,119.8-176.5,239.6-265.2,360c91.8,18.5,182.5,36.9,273.6,55.3C371.9,488.8,369.5,350.6,367.1,212.4z M1497.9,183.6
			c-0.3,0.2-0.5,0.4-0.8,0.5c56.5,137.8,112.9,275.6,169.4,413.5c75.2-14.7,150-29.3,225.8-44.2
			C1760.5,429.8,1629.2,306.7,1497.9,183.6z M1262.6,1598.6c0.6,6.3,3.2,13.4,9.6,19.8c9,8.9,18.3,17.8,28.7,25.1
			c26.6,18.7,56.3,31.9,86.2,44.4c42.3,17.7,85,34.8,127.3,52.5c25.2,10.5,49.7,22.4,72.7,37.2c15.1,9.7,29,20.8,40.3,34.9
			c-9.3-45.4-31.7-83-67.9-112.7c20.4-7.3,39.9-12.6,60.8-9.6c20.5,3,38.9,11,56.7,21.6c-7.7-10.1-15.6-20-24.2-29
			c-26.4-27.5-57.3-49.2-89.8-68.8c-49.2-29.8-101.6-53.2-154.4-75.9c-0.6-0.3-1.3-0.4-2-0.6c-0.2,0.4-0.4,0.9-0.6,1.3
			c18.2,9.9,36.1,20.3,54.5,29.7c18.4,9.4,37.2,17.8,55.8,26.7c-43.6-13.1-86.4-28.4-127.1-49c31.3,21.8,65.2,38.8,99.6,55
			c-42.2-13-83.3-28.4-122-50c29.3,22.5,61.6,39.6,94.5,55.9c-39.8-12.5-78.4-27.8-114.2-49.5c27.5,23.4,58.6,40.9,90.6,57.1
			c-13.4-4.4-26.8-9-39.8-14.5c-13.1-5.5-26-11.4-38.5-18c-12.3-6.6-24.1-14.3-35.9-21.3c12.2,12.5,26.2,23.3,41.2,32.8
			c14.8,9.3,30.1,18,45.1,26.9c-38.5-13.2-75.5-29.4-107.5-55.5c7.9,8.4,15.8,16.6,24.6,23.9c9,7.4,18.5,14.2,28.2,20.6
			c9.4,6.2,19.3,11.6,29,17.3c-36.6-12.5-71-28.8-99.5-55.7c18.5,27,44.4,45.4,72.1,61.9c-34.1-12.3-65.6-28.8-90.3-56.4
			c4.2,9.8,10.3,18.2,17.7,25.6c7.3,7.3,14.9,14.4,23,20.8c8.1,6.3,17,11.6,26,17.8C1306.4,1631.9,1283,1618,1262.6,1598.6z
			 M567.1,1595.3c37.6-17.1,75-34.7,109.7-57.4c-0.9-0.1-1.6,0.1-2.3,0.3c-46.8,20.2-93.5,40.9-137.8,66.3
			c-38.5,22-75.3,46.4-106.2,78.5c-8.7,9-16.4,18.9-24.6,28.3c0.3,0.4,0.6,0.9,0.9,1.3c36.5-24.4,75-30.8,116.6-12.5
			c-17.1,14.7-32.3,30.8-43.8,50.2c-11.7,19.8-24.3,51.9-23.2,62.3c3.3-3.7,6.4-7.6,9.8-11.1c13.8-14.2,30.3-24.8,47.5-34.4
			c35.3-19.7,72.8-34.5,110.2-49.7c42-17,84.3-33.1,124.6-53.9c19.5-10,38.4-21,54.5-36.1c6.1-5.7,11.6-12,15.4-20.8
			c-25.3,20.9-57.2,39.4-67.5,39.2c36.6-23.6,63.8-50.6,65.7-65.1c-22.7,25.2-71.9,56.4-89.5,57.5c12.4-8.7,26.1-17.7,39.1-27.6
			c12.9-9.9,24.4-21.4,32.6-35.6c-28.7,27.6-63.6,44.1-100.6,56.9c30.7-17,59.9-35.9,82.4-63.5c-32.5,26.8-70.2,43.4-109.6,56.5
			c33.3-17.3,65.2-36.6,91.5-63.9c-34.9,25.9-74.4,42.1-115.3,55.5c34.1-17.5,67.4-36.3,96-62.2c-38.1,25.3-80.1,41.6-123.2,55.6
			c17.1-9.2,34.5-18,51.5-27.4c17.1-9.4,33.6-20,48.7-32.7c-39.6,22.8-82.1,38.7-125.6,52.2c8.7-4.6,17.6-8.7,26.4-13
			c9-4.4,18-8.9,26.8-13.7c8.7-4.7,17.3-9.5,25.8-14.6c8.4-5.1,16.6-10.6,24.9-15.9c-0.2-0.4-0.5-0.8-0.7-1.2
			C656.1,1566.1,612,1581.7,567.1,1595.3z M1034.6,1564.7c0.4-0.1,0.7-0.1,1.1-0.2c0-59.6,0-119.2,0-179.1
			c-20.1,0.6-39.8,1.2-60.4,1.9C995.3,1447,1014.9,1505.9,1034.6,1564.7z M1048.9,1385c0,58.2,0,115.7,0,173.3
			c0.2,0,0.5,0.1,0.7,0.1c18.4-57.7,36.8-115.3,55.3-173.4C1085.8,1385,1067.6,1385,1048.9,1385z M991.3,1558c0.4,0,0.8-0.1,1.1-0.1
			c-18.8-56.3-37.6-112.5-56.4-168.9c-18.1,1-35.9,2-54.6,3C918.4,1447.8,954.8,1502.9,991.3,1558z M1090,1555.6
			c0.3,0.2,0.5,0.3,0.8,0.5c46-55.8,92-111.6,138.5-168.1c-10.5-0.6-19.8-0.9-29.2-1.6c-3.7-0.3-5.8,0.7-7.7,3.9
			c-33.2,53.5-66.5,107-99.8,160.5C1091.8,1552.3,1090.9,1554,1090,1555.6z M1108,1499.9c0.3,0.1,0.6,0.3,0.9,0.4
			c23.6-37.9,47.2-75.8,70.8-113.8c-0.1-0.5-0.3-1.1-0.4-1.6c-9.5,0-19,0.3-28.5-0.1c-4.8-0.2-6.8,1.3-8.3,5.9
			c-8,26-16.5,51.9-24.7,77.9C1114.5,1479,1111.2,1489.5,1108,1499.9z M943.3,1510.6c0.2-0.2,0.5-0.4,0.7-0.6
			c-23.9-36.2-48.1-72.2-71.7-108.6c-4-6.2-7.7-9.5-15.4-8c-6.1,1.2-12.5,1.1-19.7,1.6C873.1,1434.1,908.2,1472.3,943.3,1510.6z"/>
	</g>
</g>
</svg>
