<?xml version="1.0" encoding="utf-8"?>
<!-- Generator: Adobe Illustrator 22.0.1, SVG Export Plug-In . SVG Version: 6.00 Build 0)  -->
<svg version="1.1" id="Layer_1" xmlns="http://www.w3.org/2000/svg" xmlns:xlink="http://www.w3.org/1999/xlink" x="0px" y="0px"
	 viewBox="0 0 2000 2000" style="enable-background:new 0 0 2000 2000;" xml:space="preserve">
<g>
	<g>
		<path d="M1522.2,422c6.6,3.7,13,7.6,19.7,11.2c18.5,9.9,37.2,19.6,55.8,29.5c18.8,10,37.6,20.2,56.4,30.3c0.7,0.4,1.2,1,2.4,2.1
			c-8.6,5.2-16.9,10.2-25.2,15.2c-23.2,14-46.4,28-69.6,42c-21.7,13-43.5,25.8-65.2,38.8c-6.1,3.6-11.8,8.1-18.3,10.9
			c-5.8,2.5-12.2,3.5-18.5,4.5c-13.6,2.2-27.2,4.2-40.8,6c-11.2,1.5-22.4,2.7-33.6,4.2c-12.2,1.6-24.3,3.4-36.5,4.9
			c-9.9,1.2-19.8,2-29.8,3.2c-11,1.3-22.1,2.7-33.1,3.9c-7.9,0.9-15.9,1.3-23.9,2.1c-12.2,1.2-24.4,2.7-36.7,3.9
			c-8.3,0.8-16.6,1.4-24.9,2.1c-16.6,1.4-33.2,2.7-49.8,4c-5,0.4-10,0.8-15,1c-8.2,0.4-16.4,0.7-24.6,1c-22.3,1-44.5,2-66.8,3
			c-6.7,0.3-13.4,0.9-20.1,1c-47.2,0.4-94.4,0.9-141.6,0.9c-18.6,0-37.2-1.1-55.8-2c-14.8-0.7-29.7-1.7-44.5-3.1
			c-18.7-1.7-37.4-3.9-56-6c-16.8-1.9-33.7-3.5-50.4-6.2c-20.8-3.4-41.6-7.3-62.2-12.1c-22.3-5.1-44.4-11.1-66.4-17.4
			c-25.3-7.2-47.1-21-68.6-35.7c-33.8-23.1-68.1-45.6-102.2-68.4c-1-0.6-1.8-1.4-3-2.4c21.5-10.8,42.6-21.4,63.7-31.9
			c25.7-12.8,51.3-25.7,77-38.5c1.1-0.6,2.2-1.4,3.2-2C852.3,422,1187.2,422,1522.2,422z"/>
		<path d="M1037,1630.5c0.3-29.1,0.7-58.3,1-87.4c0.3-26.6,0.7-53.2,1-79.8c0.3-27.5,0.7-54.9,1-82.4c0.3-26.4,0.7-52.9,1-79.3
			c0.3-27.6,0.7-55.2,1-82.9c0.3-25.6,0.7-51.2,1-76.8c0.4-28.5,0.7-56.9,1-85.4c0.3-25.9,0.8-51.9,1-77.8c0.2-24.9,0-49.8,0-75.5
			c152.9-18.4,304.7-36.6,457.4-54.9c-7,12-13.5,23.2-20.1,34.4c-10.4,17.5-20.8,34.9-31.2,52.4c-13.6,22.8-27.4,45.6-40.9,68.5
			c-12.7,21.5-25.2,43.1-37.9,64.5c-10.6,17.9-21.2,35.8-31.9,53.7c-10.4,17.5-20.8,34.9-31.2,52.4c-13.6,22.8-27.4,45.6-40.9,68.5
			c-13.6,22.9-26.9,45.9-40.5,68.8c-15.4,26-31,51.9-46.5,77.9c-13.7,23-27.2,46.1-40.8,69.2c-10.7,18.1-21.3,36.1-32.1,54.2
			c-11.3,19-22.7,38-34.1,57c-11.8,19.7-23.5,39.4-35.3,59.2c-0.2,0.4-0.1,1-0.1,1.5C1038.3,1630.5,1037.6,1630.5,1037,1630.5z"/>
		<path d="M964,1630.5c-5.3-9.1-10.4-18.3-15.8-27.4c-11.4-19.3-23-38.6-34.5-57.9c-12.4-20.9-24.9-41.7-37.3-62.6
			c-12.6-21.3-25.1-42.8-37.7-64.1c-10.9-18.5-22.1-36.8-33-55.3c-11.2-18.9-22.3-37.9-33.5-56.8c-12.5-21-25.1-42-37.6-63
			c-12.6-21.3-25.1-42.7-37.7-64.1c-10.8-18.2-21.6-36.4-32.4-54.6c-10.3-17.3-20.5-34.7-30.9-52c-13.6-22.9-27.4-45.6-40.9-68.5
			c-13.5-22.7-26.7-45.6-40.2-68.4c-10.1-17.1-20.5-34-30.6-51c-7-11.8-13.8-23.7-21.2-36.5c152.5,18.3,304.2,36.5,456.3,54.7
			c0,2.3,0,4.1,0,5.9c0,19.4-0.1,38.8,0,58.2c0.2,28.1,0.6,56.3,1,84.4c0.3,22.1,0.7,44.1,1,66.2c0.4,31.8,0.7,63.7,1,95.5
			c0.3,26.8,0.7,53.6,1,80.3c0.3,27.3,0.7,54.6,1,81.9c0.3,26.6,0.7,53.2,1,79.8c0.3,27.5,0.7,54.9,1,82.4c0.3,26.4,0.6,52.9,1,79.3
			c0.1,4.5,0.6,9,1,13.5C965.4,1630.5,964.7,1630.5,964,1630.5z"/>
		<path d="M1974,705.7c-7.6,7.8-15.2,15.6-22.9,23.3c-0.5,0.5-1,1-1.4,1.4c-13,13.4-26.1,26.7-39.1,40.2
			c-15.2,15.7-30.2,31.5-45.3,47.3c-14.4,15.1-28.8,30.1-43.2,45.2c-15.3,16-30.7,32-46,48.1c-13.6,14.2-27.1,28.5-40.7,42.7
			c-15.8,16.5-31.7,33-47.5,49.5c-13.2,13.8-26.4,27.8-39.6,41.6c-16.4,17.1-32.8,34.2-49.3,51.3c-14.7,15.3-29.3,30.6-43.9,45.9
			c-15.1,15.8-30.2,31.6-45.3,47.4c-14.3,14.9-28.5,29.9-42.8,44.8c-15.1,15.8-30.2,31.6-45.3,47.4c-14.2,14.8-28.3,29.7-42.5,44.5
			c-15.6,16.3-31.2,32.5-46.8,48.8c-14.4,15.1-28.8,30.1-43.2,45.2c-15,15.7-30,31.3-45,47c-14.4,15.1-28.8,30.1-43.2,45.2
			c-5.9,6.2-11.6,12.5-18.4,18.1c3-5.2,5.8-10.5,8.9-15.7c12.4-20.9,24.8-41.7,37.3-62.6c11.5-19.3,23.1-38.6,34.5-57.9
			c11.5-19.5,22.8-39.1,34.4-58.6c14.5-24.4,29.2-48.8,43.7-73.2c12.5-21,24.7-42.2,37.2-63.3c12.5-21.2,25.3-42.2,37.8-63.4
			c12.5-21,24.7-42.2,37.2-63.2c13.6-22.9,27.3-45.7,40.9-68.5c14.6-24.6,29-49.3,43.6-73.9c11.4-19.2,22.8-38.3,34.2-57.5
			c5.7-9.7,11.2-19.5,17.2-29c1.6-2.6,4.4-5.1,7.2-6.1c35.7-12.8,71.5-25.3,107.2-38c23.3-8.3,46.5-16.8,69.8-25.1
			c39.3-14,78.6-27.9,117.9-41.9c26.4-9.4,52.7-18.9,79.1-28.4c1.1-0.4,2.2-0.5,3.4-0.7C1974,704.3,1974,705,1974,705.7z"/>
		<path d="M29,703.6c8.5,2.7,17,5.3,25.4,8.2c19,6.6,37.9,13.4,56.8,20.2c39.9,14.3,79.7,28.8,119.6,43.1
			c35.7,12.8,71.5,25.3,107.2,38c23.3,8.3,46.6,16.6,69.7,25.4c3.2,1.2,5.9,5,7.9,8.2c14.8,24.7,29.3,49.5,43.9,74.2
			c9.9,16.8,20.1,33.4,30,50.2c12.4,21,24.7,42.2,37.1,63.2c13.6,22.9,27.3,45.6,40.9,68.5c12.5,21,24.7,42.2,37.2,63.2
			c13.6,22.9,27.3,45.6,40.9,68.5c13.4,22.6,26.6,45.3,40,67.9c12.6,21.3,25.5,42.5,38.1,63.9c14.6,24.6,29,49.3,43.6,73.9
			c11.4,19.2,22.8,38.3,34.2,57.5c6.1,10.2,12,20.6,17.9,30.8c0.4,0.6,0.6,1.4,0,2.7c-5.9-6.4-11.7-12.8-17.7-19.1
			c-20.6-21.3-41.2-42.5-61.8-63.9c-14.2-14.8-28.3-29.7-42.5-44.5c-15.2-15.9-30.5-31.8-45.7-47.7c-14.4-15.1-28.8-30.1-43.2-45.2
			c-15.3-16-30.7-32-46-48.1c-13.9-14.6-27.8-29.2-41.8-43.8c-15.4-16.2-30.9-32.3-46.4-48.4c-14.2-14.8-28.3-29.7-42.5-44.5
			c-15.2-15.9-30.5-31.8-45.7-47.7c-14-14.7-28.1-29.4-42.1-44.1c-15.7-16.4-31.4-32.7-47.1-49.1c-12.9-13.5-25.6-27.1-38.5-40.5
			c-16.5-17.3-33.1-34.4-49.6-51.7c-12.7-13.2-25.2-26.6-37.8-39.8c-17-17.7-34-35.4-51-53.1c-14.3-14.9-28.5-29.9-42.8-44.8
			c-15.2-15.9-30.5-31.8-45.7-47.7c-0.9-0.9-1.7-2-2.5-3C29,704.3,29,704,29,703.6z"/>
		<path d="M956.8,730.4c0,36.6,0,73,0,110.1c-152-18.2-303.8-36.4-455.7-54.7c6.2-37,12.2-73.1,18.4-110.1
			C665.3,694,810.8,712.2,956.8,730.4z"/>
		<path d="M1492.7,676c6.1,36.5,12.1,72.5,18.3,109.6c-4.8,0.7-9.6,1.5-14.5,2.1c-13,1.7-26,3.4-39,5c-9.9,1.2-19.8,2-29.8,3.2
			c-9.9,1.1-19.7,2.5-29.6,3.7c-6.4,0.8-12.9,1.5-19.3,2.3c-13.3,1.6-26.7,3.4-40,5c-9.6,1.1-19.2,2-28.7,3.2
			c-9.9,1.2-19.7,2.6-29.6,3.8c-9.7,1.2-19.5,2.1-29.2,3.3c-10.2,1.2-20.4,2.6-30.6,3.8c-9.6,1.1-19.2,2.1-28.7,3.3
			c-10,1.2-20.1,2.6-30.1,3.8c-9.6,1.2-19.2,2.1-28.7,3.2c-10.4,1.2-20.7,2.7-31.1,3.9c-9.6,1.1-19.2,2.1-28.7,3.2
			c-5.9,0.7-11.7,1.4-17.9,2.2c-0.1-2.1-0.2-3.6-0.2-5.1c0-33.2,0.1-66.5-0.1-99.7c0-4.2,1-5.5,5.5-6c14.8-1.5,29.6-3.9,44.4-5.8
			c12-1.5,24.1-2.7,36.1-4.2c12.2-1.5,24.3-3.4,36.5-4.9c9.2-1.2,18.5-2,27.7-3.2c9.5-1.2,19.1-2.5,28.6-3.7
			c9.2-1.2,18.5-2.2,27.7-3.4c9.7-1.2,19.4-2.6,29.1-3.8c9.2-1.2,18.5-2.2,27.7-3.3c9.7-1.2,19.4-2.6,29.1-3.8
			c9.2-1.2,18.5-2.1,27.7-3.3c9.7-1.2,19.4-2.6,29.1-3.8c9.2-1.2,18.5-2.1,27.7-3.3c9.5-1.2,19.1-2.5,28.6-3.6
			C1471.1,678.5,1481.7,677.3,1492.7,676z"/>
		<path d="M73.3,649.4c4.9-3.3,9.3-6.4,13.9-9.3c23-14.7,46-29.2,69-43.9c37.5-23.9,75-47.8,112.4-71.7c3.8-2.4,6.6-3.1,11.1,0.3
			c29.3,22.2,58.9,43.9,88.6,65.7c24.8,18.2,49.7,36.3,74.5,54.5c1.6,1.2,3,2.5,5,4.1c-5.1,13.4-10.3,26.9-15.5,40.4
			c-9.1,23.7-18.2,47.4-27.3,71.1c-0.5,1.4-1.4,2.7-1.7,4.1c-0.6,3.1-2,3.1-4.6,2.1c-30.7-11.2-61.4-22.3-92-33.4
			c-40.1-14.5-80.3-29-120.5-43.5c-36.6-13.2-73.1-26.5-109.7-39.7C75.6,650,74.8,649.8,73.3,649.4z"/>
		<path d="M1939.1,649.2C1828.8,689,1719.5,728.5,1610,768c-13.9-36.5-27.6-72.4-41.3-108.2c-0.6-1.7-1-3.6-2.1-5
			c-3.7-4.8-0.8-7.2,2.8-9.9c22.9-16.9,45.8-33.8,68.7-50.7c22.1-16.3,44.4-32.4,66.5-48.7c9.9-7.3,19.7-14.6,29.4-22
			c2.4-1.9,4-2.1,6.8-0.3c33.1,21.3,66.3,42.4,99.4,63.5c27,17.2,54.1,34.5,81.1,51.7C1927.1,641.9,1932.7,645.3,1939.1,649.2z"/>
	</g>
</g>
</svg>
