  0
SECTION
  2
HEADER
  9
$ACADVER
  1
AC1024
  9
$ACADMAINTVER
 70
     6
  9
$DWGCODEPAGE
  3
ANSI_1252
  9
$INSBASE
 10
0.0
 20
0.0
 30
0.0
  9
$EXTMIN
 10
1.000000000000000E+20
 20
1.000000000000000E+20
 30
1.000000000000000E+20
  9
$EXTMAX
 10
-1.000000000000000E+20
 20
-1.000000000000000E+20
 30
-1.000000000000000E+20
  9
$LIMMIN
 10
0.0
 20
0.0
  9
$LIMMAX
 10
12.0
 20
9.0
  9
$ORTHOMODE
 70
     0
  9
$REGENMODE
 70
     1
  9
$FILLMODE
 70
     1
  9
$QTEXTMODE
 70
     0
  9
$MIRRTEXT
 70
     1
  9
$LTSCALE
 40
1.0
  9
$ATTMODE
 70
     1
  9
$TEXTSIZE
 40
0.2
  9
$TRACEWID
 40
0.05
  9
$TEXTSTYLE
  7
Standard
  9
$CLAYER
  8
0
  9
$CELTYPE
  6
ByLayer
  9
$CECOLOR
 62
   256
  9
$CELTSCALE
 40
1.0
  9
$DISPSILH
 70
     0
  9
$DIMSCALE
 40
1.0
  9
$DIMASZ
 40
0.18
  9
$DIMEXO
 40
0.0625
  9
$DIMDLI
 40
0.38
  9
$DIMRND
 40
0.0
  9
$DIMDLE
 40
0.0
  9
$DIMEXE
 40
0.18
  9
$DIMTP
 40
0.0
  9
$DIMTM
 40
0.0
  9
$DIMTXT
 40
0.18
  9
$DIMCEN
 40
0.09
  9
$DIMTSZ
 40
0.0
  9
$DIMTOL
 70
     0
  9
$DIMLIM
 70
     0
  9
$DIMTIH
 70
     1
  9
$DIMTOH
 70
     1
  9
$DIMSE1
 70
     0
  9
$DIMSE2
 70
     0
  9
$DIMTAD
 70
     0
  9
$DIMZIN
 70
     0
  9
$DIMBLK
  1

  9
$DIMASO
 70
     1
  9
$DIMSHO
 70
     1
  9
$DIMPOST
  1

  9
$DIMAPOST
  1

  9
$DIMALT
 70
     0
  9
$DIMALTD
 70
     2
  9
$DIMALTF
 40
25.4
  9
$DIMLFAC
 40
1.0
  9
$DIMTOFL
 70
     0
  9
$DIMTVP
 40
0.0
  9
$DIMTIX
 70
     0
  9
$DIMSOXD
 70
     0
  9
$DIMSAH
 70
     0
  9
$DIMBLK1
  1

  9
$DIMBLK2
  1

  9
$DIMSTYLE
  2
Standard
  9
$DIMCLRD
 70
     0
  9
$DIMCLRE
 70
     0
  9
$DIMCLRT
 70
     0
  9
$DIMTFAC
 40
1.0
  9
$DIMGAP
 40
0.09
  9
$DIMJUST
 70
     0
  9
$DIMSD1
 70
     0
  9
$DIMSD2
 70
     0
  9
$DIMTOLJ
 70
     1
  9
$DIMTZIN
 70
     0
  9
$DIMALTZ
 70
     0
  9
$DIMALTTZ
 70
     0
  9
$DIMUPT
 70
     0
  9
$DIMDEC
 70
     4
  9
$DIMTDEC
 70
     4
  9
$DIMALTU
 70
     2
  9
$DIMALTTD
 70
     2
  9
$DIMTXSTY
  7
Standard
  9
$DIMAUNIT
 70
     0
  9
$DIMADEC
 70
     0
  9
$DIMALTRND
 40
0.0
  9
$DIMAZIN
 70
     0
  9
$DIMDSEP
 70
    46
  9
$DIMATFIT
 70
     3
  9
$DIMFRAC
 70
     0
  9
$DIMLDRBLK
  1

  9
$DIMLUNIT
 70
     2
  9
$DIMLWD
 70
    -2
  9
$DIMLWE
 70
    -2
  9
$DIMTMOVE
 70
     0
  9
$DIMFXL
 40
1.0
  9
$DIMFXLON
 70
     0
  9
$DIMJOGANG
 40
0.7853981633974483
  9
$DIMTFILL
 70
     0
  9
$DIMTFILLCLR
 70
     0
  9
$DIMARCSYM
 70
     0
  9
$DIMLTYPE
  6

  9
$DIMLTEX1
  6

  9
$DIMLTEX2
  6

  9
$DIMTXTDIRECTION
 70
     0
  9
$LUNITS
 70
     2
  9
$LUPREC
 70
     4
  9
$SKETCHINC
 40
0.1
  9
$FILLETRAD
 40
0.5
  9
$AUNITS
 70
     0
  9
$AUPREC
 70
     0
  9
$MENU
  1
.
  9
$ELEVATION
 40
0.0
  9
$PELEVATION
 40
0.0
  9
$THICKNESS
 40
0.0
  9
$LIMCHECK
 70
     0
  9
$CHAMFERA
 40
0.5
  9
$CHAMFERB
 40
0.5
  9
$CHAMFERC
 40
1.0
  9
$CHAMFERD
 40
0.0
  9
$SKPOLY
 70
     0
  9
$TDCREATE
 40
2458128.814957523
  9
$TDUCREATE
 40
2458129.023290856
  9
$TDUPDATE
 40
2458128.814957569
  9
$TDUUPDATE
 40
2458129.023290903
  9
$TDINDWG
 40
0.0000000116
  9
$TDUSRTIMER
 40
0.0000000116
  9
$USRTIMER
 70
     1
  9
$ANGBASE
 50
0.0
  9
$ANGDIR
 70
     0
  9
$PDMODE
 70
     0
  9
$PDSIZE
 40
0.0
  9
$PLINEWID
 40
0.0
  9
$SPLFRAME
 70
     0
  9
$SPLINETYPE
 70
     6
  9
$SPLINESEGS
 70
     8
  9
$HANDSEED
  5
5D
  9
$SURFTAB1
 70
     6
  9
$SURFTAB2
 70
     6
  9
$SURFTYPE
 70
     6
  9
$SURFU
 70
     6
  9
$SURFV
 70
     6
  9
$UCSBASE
  2

  9
$UCSNAME
  2

  9
$UCSORG
 10
0.0
 20
0.0
 30
0.0
  9
$UCSXDIR
 10
1.0
 20
0.0
 30
0.0
  9
$UCSYDIR
 10
0.0
 20
1.0
 30
0.0
  9
$UCSORTHOREF
  2

  9
$UCSORTHOVIEW
 70
     0
  9
$UCSORGTOP
 10
0.0
 20
0.0
 30
0.0
  9
$UCSORGBOTTOM
 10
0.0
 20
0.0
 30
0.0
  9
$UCSORGLEFT
 10
0.0
 20
0.0
 30
0.0
  9
$UCSORGRIGHT
 10
0.0
 20
0.0
 30
0.0
  9
$UCSORGFRONT
 10
0.0
 20
0.0
 30
0.0
  9
$UCSORGBACK
 10
0.0
 20
0.0
 30
0.0
  9
$PUCSBASE
  2

  9
$PUCSNAME
  2

  9
$PUCSORG
 10
0.0
 20
0.0
 30
0.0
  9
$PUCSXDIR
 10
1.0
 20
0.0
 30
0.0
  9
$PUCSYDIR
 10
0.0
 20
1.0
 30
0.0
  9
$PUCSORTHOREF
  2

  9
$PUCSORTHOVIEW
 70
     0
  9
$PUCSORGTOP
 10
0.0
 20
0.0
 30
0.0
  9
$PUCSORGBOTTOM
 10
0.0
 20
0.0
 30
0.0
  9
$PUCSORGLEFT
 10
0.0
 20
0.0
 30
0.0
  9
$PUCSORGRIGHT
 10
0.0
 20
0.0
 30
0.0
  9
$PUCSORGFRONT
 10
0.0
 20
0.0
 30
0.0
  9
$PUCSORGBACK
 10
0.0
 20
0.0
 30
0.0
  9
$USERI1
 70
     0
  9
$USERI2
 70
     0
  9
$USERI3
 70
     0
  9
$USERI4
 70
     0
  9
$USERI5
 70
     0
  9
$USERR1
 40
0.0
  9
$USERR2
 40
0.0
  9
$USERR3
 40
0.0
  9
$USERR4
 40
0.0
  9
$USERR5
 40
0.0
  9
$WORLDVIEW
 70
     1
  9
$SHADEDGE
 70
     3
  9
$SHADEDIF
 70
    70
  9
$TILEMODE
 70
     1
  9
$MAXACTVP
 70
    64
  9
$PINSBASE
 10
0.0
 20
0.0
 30
0.0
  9
$PLIMCHECK
 70
     0
  9
$PEXTMIN
 10
1.000000000000000E+20
 20
1.000000000000000E+20
 30
1.000000000000000E+20
  9
$PEXTMAX
 10
-1.000000000000000E+20
 20
-1.000000000000000E+20
 30
-1.000000000000000E+20
  9
$PLIMMIN
 10
0.0
 20
0.0
  9
$PLIMMAX
 10
12.0
 20
9.0
  9
$UNITMODE
 70
     0
  9
$VISRETAIN
 70
     1
  9
$PLINEGEN
 70
     0
  9
$PSLTSCALE
 70
     1
  9
$TREEDEPTH
 70
  3020
  9
$CMLSTYLE
  2
Standard
  9
$CMLJUST
 70
     0
  9
$CMLSCALE
 40
1.0
  9
$PROXYGRAPHICS
 70
     1
  9
$MEASUREMENT
 70
     0
  9
$CELWEIGHT
370
    -1
  9
$ENDCAPS
280
     0
  9
$JOINSTYLE
280
     0
  9
$LWDISPLAY
290
     1
  9
$INSUNITS
 70
     1
  9
$HYPERLINKBASE
  1

  9
$STYLESHEET
  1

  9
$XEDIT
290
     1
  9
$CEPSNTYPE
380
     0
  9
$PSTYLEMODE
290
     1
  9
$FINGERPRINTGUID
  2
{D0AEFBCB-0937-4C2C-8E20-396FD141EB83}
  9
$VERSIONGUID
  2
{FAEB1C32-E019-11D5-929B-00C0DF256EC4}
  9
$EXTNAMES
290
     1
  9
$PSVPSCALE
 40
0.0
  9
$OLESTARTUP
290
     0
  9
$SORTENTS
280
   127
  9
$INDEXCTL
280
     0
  9
$HIDETEXT
280
     1
  9
$XCLIPFRAME
280
     2
  9
$HALOGAP
280
     0
  9
$OBSCOLOR
 70
   257
  9
$OBSLTYPE
280
     0
  9
$INTERSECTIONDISPLAY
280
     0
  9
$INTERSECTIONCOLOR
 70
   257
  9
$DIMASSOC
280
     2
  9
$PROJECTNAME
  1

  9
$CAMERADISPLAY
290
     0
  9
$LENSLENGTH
 40
50.0
  9
$CAMERAHEIGHT
 40
0.0
  9
$STEPSPERSEC
 40
2.0
  9
$STEPSIZE
 40
6.0
  9
$3DDWFPREC
 40
2.0
  9
$PSOLWIDTH
 40
0.25
  9
$PSOLHEIGHT
 40
4.0
  9
$LOFTANG1
 40
1.570796326794897
  9
$LOFTANG2
 40
1.570796326794897
  9
$LOFTMAG1
 40
0.0
  9
$LOFTMAG2
 40
0.0
  9
$LOFTPARAM
 70
     7
  9
$LOFTNORMALS
280
     1
  9
$LATITUDE
 40
37.795
  9
$LONGITUDE
 40
-122.394
  9
$NORTHDIRECTION
 40
0.0
  9
$TIMEZONE
 70
 -8000
  9
$LIGHTGLYPHDISPLAY
280
     1
  9
$TILEMODELIGHTSYNCH
280
     1
  9
$CMATERIAL
347
3C
  9
$SOLIDHIST
280
     1
  9
$SHOWHIST
280
     1
  9
$DWFFRAME
280
     2
  9
$DGNFRAME
280
     2
  9
$REALWORLDSCALE
290
     1
  9
$INTERFERECOLOR
 62
   256
  9
$CSHADOW
280
     0
  9
$SHADOWPLANELOCATION
 40
0.0
  0
ENDSEC
  0
SECTION
  2
CLASSES
  0
CLASS
  1
ACDBDICTIONARYWDFLT
  2
AcDbDictionaryWithDefault
  3
ObjectDBX Classes
 90
        0
 91
        4
280
     0
281
     0
  0
CLASS
  1
VISUALSTYLE
  2
AcDbVisualStyle
  3
ObjectDBX Classes
 90
     4095
 91
        4
280
     0
281
     0
  0
CLASS
  1
MATERIAL
  2
AcDbMaterial
  3
ObjectDBX Classes
 90
     1153
 91
        4
280
     0
281
     0
  0
CLASS
  1
SUN
  2
AcDbSun
  3
SCENEOE
 90
     1024
 91
        4
280
     0
281
     0
  0
ENDSEC
  0
SECTION
  2
TABLES
  0
TABLE
  2
VPORT
  5
8
330
0
100
AcDbSymbolTable
 70
     1
  0
VPORT
  5
29
330
8
100
AcDbSymbolTableRecord
100
AcDbViewportTableRecord
  2
*Active
 70
     0
 10
0.0
 20
0.0
 11
1.0
 21
1.0
 12
0.0
 22
0.0
 13
0.0
 23
0.0
 14
0.5
 24
0.5
 15
0.5
 25
0.5
 16
0.0
 26
0.0
 36
1.0
 17
1000.0
 27
-1000.0
 37
0.0
 40
2000.0
 41
1.0
 42
50.0
 43
0.0
 44
0.0
 50
0.0
 51
0.0
 71
     0
 72
   100
 73
     1
 74
     3
 75
     0
 76
     0
 77
     0
 78
     0
281
     0
 65
     1
110
0.0
120
0.0
130
0.0
111
1.0
121
0.0
131
0.0
112
0.0
122
1.0
132
0.0
 79
     0
146
0.0
 60
     3
 61
     5
292
     1
282
     1
141
0.0
142
0.0
 63
   250
361
3F
  0
ENDTAB
  0
TABLE
  2
LTYPE
  5
5
330
0
100
AcDbSymbolTable
 70
     1
  0
LTYPE
  5
14
330
5
100
AcDbSymbolTableRecord
100
AcDbLinetypeTableRecord
  2
ByBlock
 70
     0
  3

 72
    65
 73
     0
 40
0.0
  0
LTYPE
  5
15
330
5
100
AcDbSymbolTableRecord
100
AcDbLinetypeTableRecord
  2
ByLayer
 70
     0
  3

 72
    65
 73
     0
 40
0.0
  0
LTYPE
  5
16
330
5
100
AcDbSymbolTableRecord
100
AcDbLinetypeTableRecord
  2
Continuous
 70
     0
  3
Solid line
 72
    65
 73
     0
 40
0.0
  0
ENDTAB
  0
TABLE
  2
LAYER
  5
2
330
0
100
AcDbSymbolTable
 70
     2
  0
LAYER
  5
10
330
2
100
AcDbSymbolTableRecord
100
AcDbLayerTableRecord
  2
0
 70
     0
 62
     7
  6
Continuous
370
    -3
390
F
347
3E
  0
LAYER
  5
40
330
2
100
AcDbSymbolTableRecord
100
AcDbLayerTableRecord
  2
Layer 1
 70
     0
 62
     7
  6
Continuous
370
    -3
390
F
347
3E
  0
ENDTAB
  0
TABLE
  2
STYLE
  5
3
330
0
100
AcDbSymbolTable
 70
     1
  0
STYLE
  5
11
330
3
100
AcDbSymbolTableRecord
100
AcDbTextStyleTableRecord
  2
Standard
 70
     0
 40
0.0
 41
1.0
 50
0.0
 71
     0
 42
0.2
  3
txt
  4

  0
ENDTAB
  0
TABLE
  2
VIEW
  5
6
330
0
100
AcDbSymbolTable
 70
     0
  0
ENDTAB
  0
TABLE
  2
UCS
  5
7
330
0
100
AcDbSymbolTable
 70
     0
  0
ENDTAB
  0
TABLE
  2
APPID
  5
9
330
0
100
AcDbSymbolTable
 70
     1
  0
APPID
  5
12
330
9
100
AcDbSymbolTableRecord
100
AcDbRegAppTableRecord
  2
ACAD
 70
     0
  0
ENDTAB
  0
TABLE
  2
DIMSTYLE
  5
A
330
0
100
AcDbSymbolTable
 70
     1
100
AcDbDimStyleTable
  0
DIMSTYLE
105
27
330
A
100
AcDbSymbolTableRecord
100
AcDbDimStyleTableRecord
  2
Standard
 70
     0
178
     0
340
11
  0
ENDTAB
  0
TABLE
  2
BLOCK_RECORD
  5
1
330
0
100
AcDbSymbolTable
 70
     3
  0
BLOCK_RECORD
  5
1F
330
1
100
AcDbSymbolTableRecord
100
AcDbBlockTableRecord
  2
*Model_Space
340
22
 70
     0
280
     1
281
     0
  0
BLOCK_RECORD
  5
1B
330
1
100
AcDbSymbolTableRecord
100
AcDbBlockTableRecord
  2
*Paper_Space
340
1E
 70
     0
280
     1
281
     0
  0
BLOCK_RECORD
  5
23
330
1
100
AcDbSymbolTableRecord
100
AcDbBlockTableRecord
  2
*Paper_Space0
340
26
 70
     0
280
     1
281
     0
  0
BLOCK_RECORD
  5
41
330
1
100
AcDbSymbolTableRecord
100
AcDbBlockTableRecord
  2
block 2
340
0
102
{BLKREFS
331
42
102
}
 70
     0
280
     1
281
     0
  0
BLOCK_RECORD
  5
45
330
1
100
AcDbSymbolTableRecord
100
AcDbBlockTableRecord
  2
block 3
340
0
102
{BLKREFS
331
46
102
}
 70
     0
280
     1
281
     0
  0
ENDTAB
  0
ENDSEC
  0
SECTION
  2
BLOCKS
  0
BLOCK
  5
20
330
1F
100
AcDbEntity
  8
0
100
AcDbBlockBegin
  2
*Model_Space
 70
     0
 10
0.0
 20
0.0
 30
0.0
  3
*Model_Space
  1

  0
ENDBLK
  5
21
330
1F
100
AcDbEntity
  8
0
100
AcDbBlockEnd
  0
BLOCK
  5
1C
330
1B
100
AcDbEntity
 67
     1
  8
0
100
AcDbBlockBegin
  2
*Paper_Space
 70
     0
 10
0.0
 20
0.0
 30
0.0
  3
*Paper_Space
  1

  0
ENDBLK
  5
1D
330
1B
100
AcDbEntity
 67
     1
  8
0
100
AcDbBlockEnd
  0
BLOCK
  5
24
330
23
100
AcDbEntity
  8
0
100
AcDbBlockBegin
  2
*Paper_Space0
 70
     0
 10
0.0
 20
0.0
 30
0.0
  3
*Paper_Space0
  1

  0
ENDBLK
  5
25
330
23
100
AcDbEntity
  8
0
100
AcDbBlockEnd
  0
BLOCK
  5
43
330
41
100
AcDbEntity
  8
0
100
AcDbBlockBegin
  2
block 2
 70
     0
 10
0.0
 20
0.0
 30
0.0
  3
block 2
  1

  0
INSERT
  5
46
330
41
100
AcDbEntity
  8
Layer 1
100
AcDbBlockReference
  2
block 3
 10
0.0
 20
0.0
 30
0.0
  0
ENDBLK
  5
44
330
41
100
AcDbEntity
  8
0
100
AcDbBlockEnd
  0
BLOCK
  5
47
330
45
100
AcDbEntity
  8
0
100
AcDbBlockBegin
  2
block 3
 70
     0
 10
0.0
 20
0.0
 30
0.0
  3
block 3
  1

  0
SPLINE
  5
49
330
45
100
AcDbEntity
  8
Layer 1
370
     0
100
AcDbSpline
210
0.0
220
0.0
230
1.0
 70
    11
 71
     3
 72
   113
 73
   109
 74
     0
 42
0.0000000001
 43
0.0000000001
 12
1.0
 22
0.0
 32
0.0
 13
1.0
 23
0.0
 33
0.0
 40
0.0
 40
0.0
 40
0.0
 40
0.0
 40
1.0
 40
1.0
 40
1.0
 40
2.0
 40
2.0
 40
2.0
 40
3.0
 40
3.0
 40
3.0
 40
4.0
 40
4.0
 40
4.0
 40
5.0
 40
5.0
 40
5.0
 40
6.0
 40
6.0
 40
6.0
 40
7.0
 40
7.0
 40
7.0
 40
8.0
 40
8.0
 40
8.0
 40
9.0
 40
9.0
 40
9.0
 40
10.0
 40
10.0
 40
10.0
 40
11.0
 40
11.0
 40
11.0
 40
12.0
 40
12.0
 40
12.0
 40
13.0
 40
13.0
 40
13.0
 40
14.0
 40
14.0
 40
14.0
 40
15.0
 40
15.0
 40
15.0
 40
16.0
 40
16.0
 40
16.0
 40
17.0
 40
17.0
 40
17.0
 40
18.0
 40
18.0
 40
18.0
 40
19.0
 40
19.0
 40
19.0
 40
20.0
 40
20.0
 40
20.0
 40
21.0
 40
21.0
 40
21.0
 40
22.0
 40
22.0
 40
22.0
 40
23.0
 40
23.0
 40
23.0
 40
24.0
 40
24.0
 40
24.0
 40
25.0
 40
25.0
 40
25.0
 40
26.0
 40
26.0
 40
26.0
 40
27.0
 40
27.0
 40
27.0
 40
28.0
 40
28.0
 40
28.0
 40
29.0
 40
29.0
 40
29.0
 40
30.0
 40
30.0
 40
30.0
 40
31.0
 40
31.0
 40
31.0
 40
32.0
 40
32.0
 40
32.0
 40
33.0
 40
33.0
 40
33.0
 40
34.0
 40
34.0
 40
34.0
 40
35.0
 40
35.0
 40
35.0
 40
36.0
 40
36.0
 40
36.0
 40
36.0
 10
1522.205729166668
 20
-422.0130167274428
 30
0.0
 10
1528.761551856996
 20
-425.7552422496183
 30
0.0
 10
1535.233162244162
 20
-429.6551810751362
 30
0.0
 10
1541.889273007711
 20
-433.209544462462
 30
0.0
 10
1560.437743822735
 20
-443.1141809523106
 30
0.0
 10
1579.088357607525
 20
-452.8268230905132
 30
0.0
 10
1597.650060017904
 20
-462.7069044212503
 30
0.0
 10
1616.496179898581
 20
-472.7385056813555
 30
0.0
 10
1635.286900202434
 20
-482.87469219168
 30
0.0
 10
1654.087265968325
 20
-492.9920978744822
 30
0.0
 10
1654.781615575155
 20
-493.365774512291
 30
0.0
 10
1655.32188510895
 20
-494.0253911813097
 30
0.0
 10
1656.506545702618
 20
-495.0442317525549
 30
0.0
 10
1647.868787129721
 20
-500.2438854773836
 30
0.0
 10
1639.59718513489
 20
-505.2181383570032
 30
0.0
 10
1631.330405871075
 20
-510.2003441055613
 30
0.0
 10
1608.121692975363
 20
-524.1877557039261
 30
0.0
 10
1584.945502599081
 20
-538.2291602492332
 30
0.0
 10
1561.698826154074
 20
-552.1530725558596
 30
0.0
 10
1540.010386466982
 20
-565.1437013943996
 30
0.0
 10
1518.239342053732
 20
-577.9967587391538
 30
0.0
 10
1496.523449897768
 20
-590.9416643778486
 30
0.0
 10
1490.422818819683
 20
-594.5782508850098
 30
0.0
 10
1484.693785349529
 20
-599.0384732882185
 30
0.0
 10
1478.231820424398
 20
-601.8086530764904
 30
0.0
 10
1472.477313041689
 20
-604.2754645347595
 30
0.0
 10
1466.002487500509
 20
-605.2773869037628
 30
0.0
 10
1459.743942896526
 20
-606.3084775209427
 30
0.0
 10
1446.187122344973
 20
-608.5419429938001
 30
0.0
 10
1432.579106648764
 20
-610.4820256630583
 30
0.0
 10
1418.96552626292
 20
-612.3489017486572
 30
0.0
 10
1407.784580866497
 20
-613.882190148036
 30
0.0
 10
1396.557015736898
 20
-615.0714106957121
 30
0.0
 10
1385.365682919821
 20
-616.5323272148771
 30
0.0
 10
1373.20597044627
 20
-618.119639476141
 30
0.0
 10
1361.079275131227
 20
-619.9665754238767
 30
0.0
 10
1348.909917195639
 20
-621.471329331398
 30
0.0
 10
1339.009716033937
 20
-622.6954837640133
 30
0.0
 10
1329.060174624126
 20
-623.5136940876646
 30
0.0
 10
1319.146494547527
 20
-624.6356437206268
 30
0.0
 10
1308.097370465597
 20
-625.8860449393596
 30
0.0
 10
1297.074833234152
 20
-627.3728372653331
 30
0.0
 10
1286.020762761435
 20
-628.5732953945799
 30
0.0
 10
1278.071665445965
 20
-629.4365487893429
 30
0.0
 10
1270.080647468567
 20
-629.9077852567043
 30
0.0
 10
1262.124872525534
 20
-630.7166283528013
 30
0.0
 10
1249.892200787863
 20
-631.9602591991425
 30
0.0
 10
1237.681045850119
 20
-633.4151009321213
 30
0.0
 10
1225.446890195211
 20
-634.6426869233455
 30
0.0
 10
1217.153895060223
 20
-635.4748244285583
 30
0.0
 10
1208.838517506918
 20
-636.0896762609482
 30
0.0
 10
1200.530559539795
 20
-636.7687538862228
 30
0.0
 10
1183.915632883709
 20
-638.1268473068876
 30
0.0
 10
1167.299840609234
 20
-639.4763154586162
 30
0.0
 10
1150.682069778442
 20
-640.7985475460691
 30
0.0
 10
1145.68819363912
 20
-641.1958818435669
 30
0.0
 10
1140.689989407858
 20
-641.5691797733307
 30
0.0
 10
1135.687086105347
 20
-641.8158500989284
 30
0.0
 10
1127.484486262005
 20
-642.2202948331833
 30
0.0
 10
1119.275085131329
 20
-642.4870444138851
 30
0.0
 10
1111.070630391439
 20
-642.8564161459608
 30
0.0
 10
1088.815457979839
 20
-643.8584003448486
 30
0.0
 10
1066.561027526855
 20
-644.8771249850597
 30
0.0
 10
1044.306906223297
 20
-645.9038720528288
 30
0.0
 10
1037.619014898937
 20
-646.2124495506287
 30
0.0
 10
1030.935266176861
 20
-646.8073303302135
 30
0.0
 10
1024.246200084686
 20
-646.8653885920849
 30
0.0
 10
977.0456369717922
 20
-647.2750734090805
 30
0.0
 10
929.8441464106254
 20
-647.8025286992397
 30
0.0
 10
882.6429649988813
 20
-647.8054965337124
 30
0.0
 10
864.036497751872
 20
-647.8066713015241
 30
0.0
 10
845.4210033416757
 20
-646.742687185606
 30
0.0
 10
826.8260982831325
 20
-645.8283777634306
 30
0.0
 10
811.985936641694
 20
-645.0987078348799
 30
0.0
 10
797.1447857220974
 20
-644.1412411530819
 30
0.0
 10
782.3508728345241
 20
-642.7772584358854
 30
0.0
 10
763.6515989303598
 20
-641.053209384283
 30
0.0
 10
744.9897939364118
 20
-638.9013748168945
 30
0.0
 10
726.3304003079738
 20
-636.77152077357
 30
0.0
 10
709.5132899284372
 20
-634.8519347111387
 30
0.0
 10
692.6292177836103
 20
-633.2731549739838
 30
0.0
 10
675.9415173530588
 20
-630.5292374293012
 30
0.0
 10
655.0972410837812
 20
-627.1018368800487
 30
0.0
 10
634.2918558120728
 20
-623.2081153392792
 30
0.0
 10
613.7121496200562
 20
-618.4636918703718
 30
0.0
 10
591.4092445373535
 20
-613.3219959338512
 30
0.0
 10
569.2875628471375
 20
-607.314078768095
 30
0.0
 10
547.2657364209499
 20
-601.0546221733093
 30
0.0
 10
522.0075483322144
 20
-593.875276009242
 30
0.0
 10
500.139029105505
 20
-580.0374386310577
 30
0.0
 10
478.6395106315613
 20
-565.3448649247493
 30
0.0
 10
444.7979124387111
 20
-542.2177752057714
 30
0.0
 10
410.5208463668823
 20
-519.7279661099119
 30
0.0
 10
376.4378333886471
 20
-496.9538245598478
 30
0.0
 10
375.4845402240753
 20
-496.3168298999472
 30
0.0
 10
374.6416443188991
 20
-495.5145871440573
 30
0.0
 10
373.3971942265835
 20
-494.5055079658823
 30
0.0
 10
394.8541119098663
 20
-483.7454231381416
 30
0.0
 10
415.9618762334194
 20
-473.146930714448
 30
0.0
 10
437.0818519592285
 20
-462.5727954010172
 30
0.0
 10
462.7363386948909
 20
-449.7283594608307
 30
0.0
 10
488.4033768971767
 20
-436.9090051998692
 30
0.0
 10
514.0538756052656
 20
-424.0566178398831
 30
0.0
 10
515.1886703968048
 20
-423.4880092063295
 30
0.0
 10
516.2131915887203
 20
-422.699226888828
 30
0.0
 10
517.2890625
 20
-422.0130167878233
 30
0.0
 10
852.2613053321847
 20
-422.013020833333
 30
0.0
 10
1187.233548164368
 20
-422.013020833333
 30
0.0
 10
1522.205729166668
 20
-422.0130167274428
 30
0.0
  0
HATCH
  5
4A
330
45
100
AcDbEntity
  8
Layer 1
 62
     7
420
 16777215
100
AcDbHatch
 10
0.0
 20
0.0
 30
0.0
210
0.0
220
0.0
230
1.0
  2
SOLID
 70
     1
 71
     0
 91
        1
 92
        1
 93
        1
 72
     4
 94
        3
 73
     0
 74
     1
 95
      113
 96
      109
 40
0.0
 40
0.0
 40
0.0
 40
0.0
 40
1.0
 40
1.0
 40
1.0
 40
2.0
 40
2.0
 40
2.0
 40
3.0
 40
3.0
 40
3.0
 40
4.0
 40
4.0
 40
4.0
 40
5.0
 40
5.0
 40
5.0
 40
6.0
 40
6.0
 40
6.0
 40
7.0
 40
7.0
 40
7.0
 40
8.0
 40
8.0
 40
8.0
 40
9.0
 40
9.0
 40
9.0
 40
10.0
 40
10.0
 40
10.0
 40
11.0
 40
11.0
 40
11.0
 40
12.0
 40
12.0
 40
12.0
 40
13.0
 40
13.0
 40
13.0
 40
14.0
 40
14.0
 40
14.0
 40
15.0
 40
15.0
 40
15.0
 40
16.0
 40
16.0
 40
16.0
 40
17.0
 40
17.0
 40
17.0
 40
18.0
 40
18.0
 40
18.0
 40
19.0
 40
19.0
 40
19.0
 40
20.0
 40
20.0
 40
20.0
 40
21.0
 40
21.0
 40
21.0
 40
22.0
 40
22.0
 40
22.0
 40
23.0
 40
23.0
 40
23.0
 40
24.0
 40
24.0
 40
24.0
 40
25.0
 40
25.0
 40
25.0
 40
26.0
 40
26.0
 40
26.0
 40
27.0
 40
27.0
 40
27.0
 40
28.0
 40
28.0
 40
28.0
 40
29.0
 40
29.0
 40
29.0
 40
30.0
 40
30.0
 40
30.0
 40
31.0
 40
31.0
 40
31.0
 40
32.0
 40
32.0
 40
32.0
 40
33.0
 40
33.0
 40
33.0
 40
34.0
 40
34.0
 40
34.0
 40
35.0
 40
35.0
 40
35.0
 40
36.0
 40
36.0
 40
36.0
 40
36.0
 10
1522.205729166668
 20
-422.0130167274428
 10
1528.761551856996
 20
-425.7552422496183
 10
1535.233162244162
 20
-429.6551810751362
 10
1541.889273007711
 20
-433.209544462462
 10
1560.437743822735
 20
-443.1141809523106
 10
1579.088357607525
 20
-452.8268230905132
 10
1597.650060017904
 20
-462.7069044212503
 10
1616.496179898581
 20
-472.7385056813555
 10
1635.286900202434
 20
-482.87469219168
 10
1654.087265968325
 20
-492.9920978744822
 10
1654.781615575155
 20
-493.365774512291
 10
1655.32188510895
 20
-494.0253911813097
 10
1656.506545702618
 20
-495.0442317525549
 10
1647.868787129721
 20
-500.2438854773836
 10
1639.59718513489
 20
-505.2181383570032
 10
1631.330405871075
 20
-510.2003441055613
 10
1608.121692975363
 20
-524.1877557039261
 10
1584.945502599081
 20
-538.2291602492332
 10
1561.698826154074
 20
-552.1530725558596
 10
1540.010386466982
 20
-565.1437013943996
 10
1518.239342053732
 20
-577.9967587391538
 10
1496.523449897768
 20
-590.9416643778486
 10
1490.422818819683
 20
-594.5782508850098
 10
1484.693785349529
 20
-599.0384732882185
 10
1478.231820424398
 20
-601.8086530764904
 10
1472.477313041689
 20
-604.2754645347595
 10
1466.002487500509
 20
-605.2773869037628
 10
1459.743942896526
 20
-606.3084775209427
 10
1446.187122344973
 20
-608.5419429938001
 10
1432.579106648764
 20
-610.4820256630583
 10
1418.96552626292
 20
-612.3489017486572
 10
1407.784580866497
 20
-613.882190148036
 10
1396.557015736898
 20
-615.0714106957121
 10
1385.365682919821
 20
-616.5323272148771
 10
1373.20597044627
 20
-618.119639476141
 10
1361.079275131227
 20
-619.9665754238767
 10
1348.909917195639
 20
-621.471329331398
 10
1339.009716033937
 20
-622.6954837640133
 10
1329.060174624126
 20
-623.5136940876646
 10
1319.146494547527
 20
-624.6356437206268
 10
1308.097370465597
 20
-625.8860449393596
 10
1297.074833234152
 20
-627.3728372653331
 10
1286.020762761435
 20
-628.5732953945799
 10
1278.071665445965
 20
-629.4365487893429
 10
1270.080647468567
 20
-629.9077852567043
 10
1262.124872525534
 20
-630.7166283528013
 10
1249.892200787863
 20
-631.9602591991425
 10
1237.681045850119
 20
-633.4151009321213
 10
1225.446890195211
 20
-634.6426869233455
 10
1217.153895060223
 20
-635.4748244285583
 10
1208.838517506918
 20
-636.0896762609482
 10
1200.530559539795
 20
-636.7687538862228
 10
1183.915632883709
 20
-638.1268473068876
 10
1167.299840609234
 20
-639.4763154586162
 10
1150.682069778442
 20
-640.7985475460691
 10
1145.68819363912
 20
-641.1958818435669
 10
1140.689989407858
 20
-641.5691797733307
 10
1135.687086105347
 20
-641.8158500989284
 10
1127.484486262005
 20
-642.2202948331833
 10
1119.275085131329
 20
-642.4870444138851
 10
1111.070630391439
 20
-642.8564161459608
 10
1088.815457979839
 20
-643.8584003448486
 10
1066.561027526855
 20
-644.8771249850597
 10
1044.306906223297
 20
-645.9038720528288
 10
1037.619014898937
 20
-646.2124495506287
 10
1030.935266176861
 20
-646.8073303302135
 10
1024.246200084686
 20
-646.8653885920849
 10
977.0456369717922
 20
-647.2750734090805
 10
929.8441464106254
 20
-647.8025286992397
 10
882.6429649988813
 20
-647.8054965337124
 10
864.036497751872
 20
-647.8066713015241
 10
845.4210033416757
 20
-646.742687185606
 10
826.8260982831325
 20
-645.8283777634306
 10
811.985936641694
 20
-645.0987078348799
 10
797.1447857220974
 20
-644.1412411530819
 10
782.3508728345241
 20
-642.7772584358854
 10
763.6515989303598
 20
-641.053209384283
 10
744.9897939364118
 20
-638.9013748168945
 10
726.3304003079738
 20
-636.77152077357
 10
709.5132899284372
 20
-634.8519347111387
 10
692.6292177836103
 20
-633.2731549739838
 10
675.9415173530588
 20
-630.5292374293012
 10
655.0972410837812
 20
-627.1018368800487
 10
634.2918558120728
 20
-623.2081153392792
 10
613.7121496200562
 20
-618.4636918703718
 10
591.4092445373535
 20
-613.3219959338512
 10
569.2875628471375
 20
-607.314078768095
 10
547.2657364209499
 20
-601.0546221733093
 10
522.0075483322144
 20
-593.875276009242
 10
500.139029105505
 20
-580.0374386310577
 10
478.6395106315613
 20
-565.3448649247493
 10
444.7979124387111
 20
-542.2177752057714
 10
410.5208463668823
 20
-519.7279661099119
 10
376.4378333886471
 20
-496.9538245598478
 10
375.4845402240753
 20
-496.3168298999472
 10
374.6416443188991
 20
-495.5145871440573
 10
373.3971942265835
 20
-494.5055079658823
 10
394.8541119098663
 20
-483.7454231381416
 10
415.9618762334194
 20
-473.146930714448
 10
437.0818519592285
 20
-462.5727954010172
 10
462.7363386948909
 20
-449.7283594608307
 10
488.4033768971767
 20
-436.9090051998692
 10
514.0538756052656
 20
-424.0566178398831
 10
515.1886703968048
 20
-423.4880092063295
 10
516.2131915887203
 20
-422.699226888828
 10
517.2890625
 20
-422.0130167878233
 10
852.2613053321847
 20
-422.013020833333
 10
1187.233548164368
 20
-422.013020833333
 10
1522.205729166668
 20
-422.0130167274428
 97
        0
 97
        0
 75
     2
 76
     1
 98
        0
  0
SPLINE
  5
4B
330
45
100
AcDbEntity
  8
Layer 1
370
     0
100
AcDbSpline
210
0.0
220
0.0
230
1.0
 70
    11
 71
     3
 72
    80
 73
    76
 74
     0
 42
0.0000000001
 43
0.0000000001
 12
1.0
 22
0.0
 32
0.0
 13
1.0
 23
0.0
 33
0.0
 40
0.0
 40
0.0
 40
0.0
 40
0.0
 40
1.0
 40
1.0
 40
1.0
 40
2.0
 40
2.0
 40
2.0
 40
3.0
 40
3.0
 40
3.0
 40
4.0
 40
4.0
 40
4.0
 40
5.0
 40
5.0
 40
5.0
 40
6.0
 40
6.0
 40
6.0
 40
7.0
 40
7.0
 40
7.0
 40
8.0
 40
8.0
 40
8.0
 40
9.0
 40
9.0
 40
9.0
 40
10.0
 40
10.0
 40
10.0
 40
11.0
 40
11.0
 40
11.0
 40
12.0
 40
12.0
 40
12.0
 40
13.0
 40
13.0
 40
13.0
 40
14.0
 40
14.0
 40
14.0
 40
15.0
 40
15.0
 40
15.0
 40
16.0
 40
16.0
 40
16.0
 40
17.0
 40
17.0
 40
17.0
 40
18.0
 40
18.0
 40
18.0
 40
19.0
 40
19.0
 40
19.0
 40
20.0
 40
20.0
 40
20.0
 40
21.0
 40
21.0
 40
21.0
 40
22.0
 40
22.0
 40
22.0
 40
23.0
 40
23.0
 40
23.0
 40
24.0
 40
24.0
 40
24.0
 40
25.0
 40
25.0
 40
25.0
 40
25.0
 10
1036.96875
 20
-1630.546875
 30
0.0
 10
1037.306588490805
 20
-1601.407068570456
 30
0.0
 10
1037.632926623028
 20
-1572.267014821371
 30
0.0
 10
1037.985418796539
 20
-1543.127332051596
 30
0.0
 10
1038.307243347168
 20
-1516.518841107687
 30
0.0
 10
1038.661404927572
 20
-1489.910721143087
 30
0.0
 10
1038.993740558624
 20
-1463.302353858948
 30
0.0
 10
1039.336649099987
 20
-1435.849946816763
 30
0.0
 10
1039.665769577026
 20
-1408.397416114807
 30
0.0
 10
1040.009729226431
 20
-1380.945009072622
 30
0.0
 10
1040.340951919556
 20
-1354.505437374115
 30
0.0
 10
1040.689054171246
 20
-1328.066112995148
 30
0.0
 10
1041.019225756329
 20
-1301.626541296642
 30
0.0
 10
1041.364174683889
 20
-1274.005338668823
 30
0.0
 10
1041.687112172445
 20
-1246.383888721466
 30
0.0
 10
1042.037316640219
 20
-1218.762809753418
 30
0.0
 10
1042.361799875896
 20
-1193.167215983074
 30
0.0
 10
1042.72387568156
 20
-1167.572116851807
 30
0.0
 10
1043.042917887371
 20
-1141.976461251577
 30
0.0
 10
1043.397759596508
 20
-1113.511342525482
 30
0.0
 10
1043.71148443222
 20
-1085.045667330425
 30
0.0
 10
1044.064347585043
 20
-1056.580486774445
 30
0.0
 10
1044.385739326477
 20
-1030.647178173065
 30
0.0
 10
1044.8618294398
 20
-1004.715229829153
 30
0.0
 10
1045.036622524261
 20
-978.7810556093855
 30
0.0
 10
1045.204428831737
 20
-953.8708461125698
 30
0.0
 10
1045.072916666668
 20
-928.9586580594387
 30
0.0
 10
1045.072916666668
 20
-903.2789447307587
 30
0.0
 10
1197.972533543905
 20
-884.9176329771681
 30
0.0
 10
1349.781842231752
 20
-866.687215089798
 30
0.0
 10
1502.44700018565
 20
-848.3540359338131
 30
0.0
 10
1495.441426912945
 20
-860.3166965643568
 30
0.0
 10
1488.921712875368
 20
-871.5526087284088
 30
0.0
 10
1482.302329063417
 20
-882.729504267375
 30
0.0
 10
1471.94730726878
 20
-900.2139755090084
 30
0.0
 10
1461.540595690411
 20
-917.6678100426998
 30
0.0
 10
1451.127206484478
 20
-935.1176256338758
 30
0.0
 10
1437.492603937786
 20
-957.9649119377136
 30
0.0
 10
1423.76241238912
 20
-980.75528383255
 30
0.0
 10
1410.20002714793
 20
-1003.645263671875
 30
0.0
 10
1397.480630556744
 20
-1025.112723350525
 30
0.0
 10
1384.961191813152
 20
-1046.698649088543
 30
0.0
 10
1372.288414955141
 20
-1068.194055875143
 30
0.0
 10
1361.715628306072
 20
-1086.127566655477
 30
0.0
 10
1351.057269096376
 20
-1104.010686079662
 30
0.0
 10
1340.420426686605
 20
-1121.906418800354
 30
0.0
 10
1330.037828763327
 20
-1139.374474207561
 30
0.0
 10
1319.649418830873
 20
-1156.839067141216
 30
0.0
 10
1309.236276944479
 20
-1174.288882732391
 30
0.0
 10
1295.602045377096
 20
-1197.136385440826
 30
0.0
 10
1281.879768053692
 20
-1219.931641896566
 30
0.0
 10
1268.308973948162
 20
-1242.816737174988
 30
0.0
 10
1254.739416440329
 20
-1265.700039386749
 30
0.0
 10
1241.374515851339
 20
-1288.704590002697
 30
0.0
 10
1227.801619529724
 20
-1311.585913658142
 30
0.0
 10
1212.376052538555
 20
-1337.590450286865
 30
0.0
 10
1196.76635615031
 20
-1363.485609849295
 30
0.0
 10
1181.335719108582
 20
-1389.48711681366
 30
0.0
 10
1167.672427495321
 20
-1412.510401884716
 30
0.0
 10
1154.159506162008
 20
-1435.623031139374
 30
0.0
 10
1140.552850723267
 20
-1458.680075327557
 30
0.0
 10
1129.889545122784
 20
-1476.749611854553
 30
0.0
 10
1119.214491844177
 20
-1494.812470753988
 30
0.0
 10
1108.489232699078
 20
-1512.845280329388
 30
0.0
 10
1097.171148618063
 20
-1531.87441666921
 30
0.0
 10
1085.783320426941
 20
-1550.862126986187
 30
0.0
 10
1074.433208465576
 20
-1569.872219721477
 30
0.0
 10
1062.657768726349
 20
-1589.594840049744
 30
0.0
 10
1050.887831846874
 20
-1609.320675532024
 30
0.0
 10
1039.144110838573
 20
-1629.062092145285
 30
0.0
 10
1038.913670857748
 20
-1629.449518203735
 30
0.0
 10
1039.036712328594
 20
-1630.047289530437
 30
0.0
 10
1038.994791666668
 20
-1630.546875
 30
0.0
 10
1038.319423834484
 20
-1630.546875
 30
0.0
 10
1037.644117832184
 20
-1630.546875
 30
0.0
 10
1036.96875
 20
-1630.546875
 30
0.0
  0
HATCH
  5
4C
330
45
100
AcDbEntity
  8
Layer 1
 62
     7
420
 16777215
100
AcDbHatch
 10
0.0
 20
0.0
 30
0.0
210
0.0
220
0.0
230
1.0
  2
SOLID
 70
     1
 71
     0
 91
        1
 92
        1
 93
        1
 72
     4
 94
        3
 73
     0
 74
     1
 95
       80
 96
       76
 40
0.0
 40
0.0
 40
0.0
 40
0.0
 40
1.0
 40
1.0
 40
1.0
 40
2.0
 40
2.0
 40
2.0
 40
3.0
 40
3.0
 40
3.0
 40
4.0
 40
4.0
 40
4.0
 40
5.0
 40
5.0
 40
5.0
 40
6.0
 40
6.0
 40
6.0
 40
7.0
 40
7.0
 40
7.0
 40
8.0
 40
8.0
 40
8.0
 40
9.0
 40
9.0
 40
9.0
 40
10.0
 40
10.0
 40
10.0
 40
11.0
 40
11.0
 40
11.0
 40
12.0
 40
12.0
 40
12.0
 40
13.0
 40
13.0
 40
13.0
 40
14.0
 40
14.0
 40
14.0
 40
15.0
 40
15.0
 40
15.0
 40
16.0
 40
16.0
 40
16.0
 40
17.0
 40
17.0
 40
17.0
 40
18.0
 40
18.0
 40
18.0
 40
19.0
 40
19.0
 40
19.0
 40
20.0
 40
20.0
 40
20.0
 40
21.0
 40
21.0
 40
21.0
 40
22.0
 40
22.0
 40
22.0
 40
23.0
 40
23.0
 40
23.0
 40
24.0
 40
24.0
 40
24.0
 40
25.0
 40
25.0
 40
25.0
 40
25.0
 10
1036.96875
 20
-1630.546875
 10
1037.306588490805
 20
-1601.407068570456
 10
1037.632926623028
 20
-1572.267014821371
 10
1037.985418796539
 20
-1543.127332051596
 10
1038.307243347168
 20
-1516.518841107687
 10
1038.661404927572
 20
-1489.910721143087
 10
1038.993740558624
 20
-1463.302353858948
 10
1039.336649099987
 20
-1435.849946816763
 10
1039.665769577026
 20
-1408.397416114807
 10
1040.009729226431
 20
-1380.945009072622
 10
1040.340951919556
 20
-1354.505437374115
 10
1040.689054171246
 20
-1328.066112995148
 10
1041.019225756329
 20
-1301.626541296642
 10
1041.364174683889
 20
-1274.005338668823
 10
1041.687112172445
 20
-1246.383888721466
 10
1042.037316640219
 20
-1218.762809753418
 10
1042.361799875896
 20
-1193.167215983074
 10
1042.72387568156
 20
-1167.572116851807
 10
1043.042917887371
 20
-1141.976461251577
 10
1043.397759596508
 20
-1113.511342525482
 10
1043.71148443222
 20
-1085.045667330425
 10
1044.064347585043
 20
-1056.580486774445
 10
1044.385739326477
 20
-1030.647178173065
 10
1044.8618294398
 20
-1004.715229829153
 10
1045.036622524261
 20
-978.7810556093855
 10
1045.204428831737
 20
-953.8708461125698
 10
1045.072916666668
 20
-928.9586580594387
 10
1045.072916666668
 20
-903.2789447307587
 10
1197.972533543905
 20
-884.9176329771681
 10
1349.781842231752
 20
-866.687215089798
 10
1502.44700018565
 20
-848.3540359338131
 10
1495.441426912945
 20
-860.3166965643568
 10
1488.921712875368
 20
-871.5526087284088
 10
1482.302329063417
 20
-882.729504267375
 10
1471.94730726878
 20
-900.2139755090084
 10
1461.540595690411
 20
-917.6678100426998
 10
1451.127206484478
 20
-935.1176256338758
 10
1437.492603937786
 20
-957.9649119377136
 10
1423.76241238912
 20
-980.75528383255
 10
1410.20002714793
 20
-1003.645263671875
 10
1397.480630556744
 20
-1025.112723350525
 10
1384.961191813152
 20
-1046.698649088543
 10
1372.288414955141
 20
-1068.194055875143
 10
1361.715628306072
 20
-1086.127566655477
 10
1351.057269096376
 20
-1104.010686079662
 10
1340.420426686605
 20
-1121.906418800354
 10
1330.037828763327
 20
-1139.374474207561
 10
1319.649418830873
 20
-1156.839067141216
 10
1309.236276944479
 20
-1174.288882732391
 10
1295.602045377096
 20
-1197.136385440826
 10
1281.879768053692
 20
-1219.931641896566
 10
1268.308973948162
 20
-1242.816737174988
 10
1254.739416440329
 20
-1265.700039386749
 10
1241.374515851339
 20
-1288.704590002697
 10
1227.801619529724
 20
-1311.585913658142
 10
1212.376052538555
 20
-1337.590450286865
 10
1196.76635615031
 20
-1363.485609849295
 10
1181.335719108582
 20
-1389.48711681366
 10
1167.672427495321
 20
-1412.510401884716
 10
1154.159506162008
 20
-1435.623031139374
 10
1140.552850723267
 20
-1458.680075327557
 10
1129.889545122784
 20
-1476.749611854553
 10
1119.214491844177
 20
-1494.812470753988
 10
1108.489232699078
 20
-1512.845280329388
 10
1097.171148618063
 20
-1531.87441666921
 10
1085.783320426941
 20
-1550.862126986187
 10
1074.433208465576
 20
-1569.872219721477
 10
1062.657768726349
 20
-1589.594840049744
 10
1050.887831846874
 20
-1609.320675532024
 10
1039.144110838573
 20
-1629.062092145285
 10
1038.913670857748
 20
-1629.449518203735
 10
1039.036712328594
 20
-1630.047289530437
 10
1038.994791666668
 20
-1630.546875
 10
1038.319423834484
 20
-1630.546875
 10
1037.644117832184
 20
-1630.546875
 10
1036.96875
 20
-1630.546875
 97
        0
 97
        0
 75
     2
 76
     1
 98
        0
  0
SPLINE
  5
4D
330
45
100
AcDbEntity
  8
Layer 1
370
     0
100
AcDbSpline
210
0.0
220
0.0
230
1.0
 70
    11
 71
     3
 72
    86
 73
    82
 74
     0
 42
0.0000000001
 43
0.0000000001
 12
1.0
 22
0.0
 32
0.0
 13
1.0
 23
0.0
 33
0.0
 40
0.0
 40
0.0
 40
0.0
 40
0.0
 40
1.0
 40
1.0
 40
1.0
 40
2.0
 40
2.0
 40
2.0
 40
3.0
 40
3.0
 40
3.0
 40
4.0
 40
4.0
 40
4.0
 40
5.0
 40
5.0
 40
5.0
 40
6.0
 40
6.0
 40
6.0
 40
7.0
 40
7.0
 40
7.0
 40
8.0
 40
8.0
 40
8.0
 40
9.0
 40
9.0
 40
9.0
 40
10.0
 40
10.0
 40
10.0
 40
11.0
 40
11.0
 40
11.0
 40
12.0
 40
12.0
 40
12.0
 40
13.0
 40
13.0
 40
13.0
 40
14.0
 40
14.0
 40
14.0
 40
15.0
 40
15.0
 40
15.0
 40
16.0
 40
16.0
 40
16.0
 40
17.0
 40
17.0
 40
17.0
 40
18.0
 40
18.0
 40
18.0
 40
19.0
 40
19.0
 40
19.0
 40
20.0
 40
20.0
 40
20.0
 40
21.0
 40
21.0
 40
21.0
 40
22.0
 40
22.0
 40
22.0
 40
23.0
 40
23.0
 40
23.0
 40
24.0
 40
24.0
 40
24.0
 40
25.0
 40
25.0
 40
25.0
 40
26.0
 40
26.0
 40
26.0
 40
27.0
 40
27.0
 40
27.0
 40
27.0
 10
964.0312500000009
 20
-1630.546875
 30
0.0
 10
958.7761425971994
 20
-1621.415961265564
 30
0.0
 10
953.6124197642021
 20
-1612.231008211773
 30
0.0
 10
948.2470078468332
 20
-1603.165386835735
 30
0.0
 10
936.8010595639553
 20
-1583.82586447398
 30
0.0
 10
925.249629497529
 20
-1564.548790295919
 30
0.0
 10
913.7430879275016
 20
-1545.245252927145
 30
0.0
 10
901.3076141675319
 20
-1524.383107821148
 30
0.0
 10
888.8260771433515
 20
-1503.548415184021
 30
0.0
 10
876.4531133969631
 20
-1482.649295806885
 30
0.0
 10
863.8242975870771
 20
-1461.317985534668
 30
0.0
 10
851.355312029521
 20
-1439.89226102829
 30
0.0
 10
838.7188293139143
 20
-1418.565649827322
 30
0.0
 10
827.7706116040554
 20
-1400.088407039642
 30
0.0
 10
816.6443238258371
 20
-1381.716707865398
 30
0.0
 10
805.6730435689296
 20
-1363.253067652386
 30
0.0
 10
794.4468386967983
 20
-1344.360575358074
 30
0.0
 10
783.351836840312
 20
-1325.390053749084
 30
0.0
 10
772.1289707819624
 20
-1306.495521068573
 30
0.0
 10
759.6402614911403
 20
-1285.469835917156
 30
0.0
 10
747.0178141593942
 20
-1264.523540337881
 30
0.0
 10
734.5537749926252
 20
-1243.483263333639
 30
0.0
 10
721.9190853436794
 20
-1222.154797236126
 30
0.0
 10
709.4364972114572
 20
-1200.736368656158
 30
0.0
 10
696.8321660359707
 20
-1179.389848232269
 30
0.0
 10
686.0798872311916
 20
-1161.180143356323
 30
0.0
 10
675.2477242151899
 20
-1143.017614682516
 30
0.0
 10
664.4540193875637
 20
-1124.8322707812
 30
0.0
 10
654.166886806488
 20
-1107.500302950542
 30
0.0
 10
643.9115966161098
 20
-1090.149353345236
 30
0.0
 10
633.5924979845686
 20
-1072.83642911911
 30
0.0
 10
619.9701995849609
 20
-1049.981692314148
 30
0.0
 10
606.2336395581569
 20
-1027.194906552633
 30
0.0
 10
592.6677300135298
 20
-1004.306781609854
 30
0.0
 10
579.1886296272278
 20
-981.5653789838161
 30
0.0
 10
565.9199363390608
 20
-958.6992654800415
 30
0.0
 10
552.4460296630859
 20
-935.9547713597622
 30
0.0
 10
542.3394094308223
 20
-918.8944531281795
 30
0.0
 10
531.9925800959272
 20
-901.9765291213989
 30
0.0
 10
521.8689257303877
 20
-884.9261964162197
 30
0.0
 10
514.8771096070614
 20
-873.1505711873378
 30
0.0
 10
508.0836746692657
 20
-861.2571600278225
 30
0.0
 10
500.6310713291168
 20
-848.434662103653
 30
0.0
 10
653.0975389480591
 20
-866.7173262437191
 30
0.0
 10
804.8288801511135
 20
-884.9118518829346
 30
0.0
 10
956.9401041666679
 20
-903.1519152323408
 30
0.0
 10
956.9401041666679
 20
-905.4476897716522
 30
0.0
 10
956.9401041666679
 20
-907.2734644412994
 30
0.0
 10
956.9401041666679
 20
-909.0992700258894
 30
0.0
 10
956.9401041666679
 20
-928.5139775276184
 30
0.0
 10
956.8158260981254
 20
-947.9296743075056
 30
0.0
 10
956.9695970217399
 20
-967.3431452115383
 30
0.0
 10
957.1923700968437
 20
-995.4719093640651
 30
0.0
 10
957.5887614885978
 20
-1023.599436918896
 30
0.0
 10
957.9630177815761
 20
-1051.72677898407
 30
0.0
 10
958.2565242449455
 20
-1073.777603626251
 30
0.0
 10
958.683645089468
 20
-1095.826573371887
 30
0.0
 10
958.953037897747
 20
-1117.877645333609
 30
0.0
 10
959.3418860435495
 20
-1149.718984921774
 30
0.0
 10
959.6211716334037
 20
-1181.561684767406
 30
0.0
 10
959.9858442942314
 20
-1213.403333504995
 30
0.0
 10
960.2925823529567
 20
-1240.18092918396
 30
0.0
 10
960.6571313540153
 20
-1266.957844734192
 30
0.0
 10
960.9916310310373
 20
-1293.735131263733
 30
0.0
 10
961.3324991861991
 20
-1321.018866380056
 30
0.0
 10
961.6646493275966
 20
-1348.30260149638
 30
0.0
 10
962.0065067609157
 20
-1375.586274782818
 30
0.0
 10
962.3398316701259
 20
-1402.194765726726
 30
0.0
 10
962.6846569379177
 20
-1428.803071180981
 30
0.0
 10
963.0171162287406
 20
-1455.411562124889
 30
0.0
 10
963.3600247701015
 20
-1482.864092826843
 30
0.0
 10
963.6892689069118
 20
-1510.316685358684
 30
0.0
 10
964.0331667264309
 20
-1537.769277890524
 30
0.0
 10
964.3644512494411
 20
-1564.208849589031
 30
0.0
 10
964.6678504943857
 20
-1590.649163246155
 30
0.0
 10
965.0820488929758
 20
-1617.087498346966
 30
0.0
 10
965.1524113019314
 20
-1621.577955563864
 30
0.0
 10
965.7195768356332
 20
-1626.060622215271
 30
0.0
 10
966.0572916666679
 20
-1630.546875
 30
0.0
 10
965.381923834484
 20
-1630.546875
 30
0.0
 10
964.7066178321847
 20
-1630.546875
 30
0.0
 10
964.0312500000009
 20
-1630.546875
 30
0.0
  0
HATCH
  5
4E
330
45
100
AcDbEntity
  8
Layer 1
 62
     7
420
 16777215
100
AcDbHatch
 10
0.0
 20
0.0
 30
0.0
210
0.0
220
0.0
230
1.0
  2
SOLID
 70
     1
 71
     0
 91
        1
 92
        1
 93
        1
 72
     4
 94
        3
 73
     0
 74
     1
 95
       86
 96
       82
 40
0.0
 40
0.0
 40
0.0
 40
0.0
 40
1.0
 40
1.0
 40
1.0
 40
2.0
 40
2.0
 40
2.0
 40
3.0
 40
3.0
 40
3.0
 40
4.0
 40
4.0
 40
4.0
 40
5.0
 40
5.0
 40
5.0
 40
6.0
 40
6.0
 40
6.0
 40
7.0
 40
7.0
 40
7.0
 40
8.0
 40
8.0
 40
8.0
 40
9.0
 40
9.0
 40
9.0
 40
10.0
 40
10.0
 40
10.0
 40
11.0
 40
11.0
 40
11.0
 40
12.0
 40
12.0
 40
12.0
 40
13.0
 40
13.0
 40
13.0
 40
14.0
 40
14.0
 40
14.0
 40
15.0
 40
15.0
 40
15.0
 40
16.0
 40
16.0
 40
16.0
 40
17.0
 40
17.0
 40
17.0
 40
18.0
 40
18.0
 40
18.0
 40
19.0
 40
19.0
 40
19.0
 40
20.0
 40
20.0
 40
20.0
 40
21.0
 40
21.0
 40
21.0
 40
22.0
 40
22.0
 40
22.0
 40
23.0
 40
23.0
 40
23.0
 40
24.0
 40
24.0
 40
24.0
 40
25.0
 40
25.0
 40
25.0
 40
26.0
 40
26.0
 40
26.0
 40
27.0
 40
27.0
 40
27.0
 40
27.0
 10
964.0312500000009
 20
-1630.546875
 10
958.7761425971994
 20
-1621.415961265564
 10
953.6124197642021
 20
-1612.231008211773
 10
948.2470078468332
 20
-1603.165386835735
 10
936.8010595639553
 20
-1583.82586447398
 10
925.249629497529
 20
-1564.548790295919
 10
913.7430879275016
 20
-1545.245252927145
 10
901.3076141675319
 20
-1524.383107821148
 10
888.8260771433515
 20
-1503.548415184021
 10
876.4531133969631
 20
-1482.649295806885
 10
863.8242975870771
 20
-1461.317985534668
 10
851.355312029521
 20
-1439.89226102829
 10
838.7188293139143
 20
-1418.565649827322
 10
827.7706116040554
 20
-1400.088407039642
 10
816.6443238258371
 20
-1381.716707865398
 10
805.6730435689296
 20
-1363.253067652386
 10
794.4468386967983
 20
-1344.360575358074
 10
783.351836840312
 20
-1325.390053749084
 10
772.1289707819624
 20
-1306.495521068573
 10
759.6402614911403
 20
-1285.469835917156
 10
747.0178141593942
 20
-1264.523540337881
 10
734.5537749926252
 20
-1243.483263333639
 10
721.9190853436794
 20
-1222.154797236126
 10
709.4364972114572
 20
-1200.736368656158
 10
696.8321660359707
 20
-1179.389848232269
 10
686.0798872311916
 20
-1161.180143356323
 10
675.2477242151899
 20
-1143.017614682516
 10
664.4540193875637
 20
-1124.8322707812
 10
654.166886806488
 20
-1107.500302950542
 10
643.9115966161098
 20
-1090.149353345236
 10
633.5924979845686
 20
-1072.83642911911
 10
619.9701995849609
 20
-1049.981692314148
 10
606.2336395581569
 20
-1027.194906552633
 10
592.6677300135298
 20
-1004.306781609854
 10
579.1886296272278
 20
-981.5653789838161
 10
565.9199363390608
 20
-958.6992654800415
 10
552.4460296630859
 20
-935.9547713597622
 10
542.3394094308223
 20
-918.8944531281795
 10
531.9925800959272
 20
-901.9765291213989
 10
521.8689257303877
 20
-884.9261964162197
 10
514.8771096070614
 20
-873.1505711873378
 10
508.0836746692657
 20
-861.2571600278225
 10
500.6310713291168
 20
-848.434662103653
 10
653.0975389480591
 20
-866.7173262437191
 10
804.8288801511135
 20
-884.9118518829346
 10
956.9401041666679
 20
-903.1519152323408
 10
956.9401041666679
 20
-905.4476897716522
 10
956.9401041666679
 20
-907.2734644412994
 10
956.9401041666679
 20
-909.0992700258894
 10
956.9401041666679
 20
-928.5139775276184
 10
956.8158260981254
 20
-947.9296743075056
 10
956.9695970217399
 20
-967.3431452115383
 10
957.1923700968437
 20
-995.4719093640651
 10
957.5887614885978
 20
-1023.599436918896
 10
957.9630177815761
 20
-1051.72677898407
 10
958.2565242449455
 20
-1073.777603626251
 10
958.683645089468
 20
-1095.826573371887
 10
958.953037897747
 20
-1117.877645333609
 10
959.3418860435495
 20
-1149.718984921774
 10
959.6211716334037
 20
-1181.561684767406
 10
959.9858442942314
 20
-1213.403333504995
 10
960.2925823529567
 20
-1240.18092918396
 10
960.6571313540153
 20
-1266.957844734192
 10
960.9916310310373
 20
-1293.735131263733
 10
961.3324991861991
 20
-1321.018866380056
 10
961.6646493275966
 20
-1348.30260149638
 10
962.0065067609157
 20
-1375.586274782818
 10
962.3398316701259
 20
-1402.194765726726
 10
962.6846569379177
 20
-1428.803071180981
 10
963.0171162287406
 20
-1455.411562124889
 10
963.3600247701015
 20
-1482.864092826843
 10
963.6892689069118
 20
-1510.316685358684
 10
964.0331667264309
 20
-1537.769277890524
 10
964.3644512494411
 20
-1564.208849589031
 10
964.6678504943857
 20
-1590.649163246155
 10
965.0820488929758
 20
-1617.087498346966
 10
965.1524113019314
 20
-1621.577955563864
 10
965.7195768356332
 20
-1626.060622215271
 10
966.0572916666679
 20
-1630.546875
 10
965.381923834484
 20
-1630.546875
 10
964.7066178321847
 20
-1630.546875
 10
964.0312500000009
 20
-1630.546875
 97
        0
 97
        0
 75
     2
 76
     1
 98
        0
  0
SPLINE
  5
4F
330
45
100
AcDbEntity
  8
Layer 1
370
     0
100
AcDbSpline
210
0.0
220
0.0
230
1.0
 70
    11
 71
     3
 72
   122
 73
   118
 74
     0
 42
0.0000000001
 43
0.0000000001
 12
1.0
 22
0.0
 32
0.0
 13
1.0
 23
0.0
 33
0.0
 40
0.0
 40
0.0
 40
0.0
 40
0.0
 40
1.0
 40
1.0
 40
1.0
 40
2.0
 40
2.0
 40
2.0
 40
3.0
 40
3.0
 40
3.0
 40
4.0
 40
4.0
 40
4.0
 40
5.0
 40
5.0
 40
5.0
 40
6.0
 40
6.0
 40
6.0
 40
7.0
 40
7.0
 40
7.0
 40
8.0
 40
8.0
 40
8.0
 40
9.0
 40
9.0
 40
9.0
 40
10.0
 40
10.0
 40
10.0
 40
11.0
 40
11.0
 40
11.0
 40
12.0
 40
12.0
 40
12.0
 40
13.0
 40
13.0
 40
13.0
 40
14.0
 40
14.0
 40
14.0
 40
15.0
 40
15.0
 40
15.0
 40
16.0
 40
16.0
 40
16.0
 40
17.0
 40
17.0
 40
17.0
 40
18.0
 40
18.0
 40
18.0
 40
19.0
 40
19.0
 40
19.0
 40
20.0
 40
20.0
 40
20.0
 40
21.0
 40
21.0
 40
21.0
 40
22.0
 40
22.0
 40
22.0
 40
23.0
 40
23.0
 40
23.0
 40
24.0
 40
24.0
 40
24.0
 40
25.0
 40
25.0
 40
25.0
 40
26.0
 40
26.0
 40
26.0
 40
27.0
 40
27.0
 40
27.0
 40
28.0
 40
28.0
 40
28.0
 40
29.0
 40
29.0
 40
29.0
 40
30.0
 40
30.0
 40
30.0
 40
31.0
 40
31.0
 40
31.0
 40
32.0
 40
32.0
 40
32.0
 40
33.0
 40
33.0
 40
33.0
 40
34.0
 40
34.0
 40
34.0
 40
35.0
 40
35.0
 40
35.0
 40
36.0
 40
36.0
 40
36.0
 40
37.0
 40
37.0
 40
37.0
 40
38.0
 40
38.0
 40
38.0
 40
39.0
 40
39.0
 40
39.0
 40
39.0
 10
1974.013020833336
 20
-705.658854166667
 30
0.0
 10
1966.391621907555
 20
-713.4418454964962
 30
0.0
 10
1958.770099322002
 20
-721.2249295711517
 30
0.0
 10
1951.148329416912
 20
-729.0074880917873
 30
0.0
 10
1950.675825436912
 20
-729.4898230234785
 30
0.0
 10
1950.194788932802
 20
-729.9637490908308
 30
0.0
 10
1949.723521550499
 20
-730.4471969604492
 30
0.0
 10
1936.678405125938
 20
-743.8311102390289
 30
0.0
 10
1923.579249382021
 20
-757.1630554993953
 30
0.0
 10
1910.603506088259
 20
-770.6139923731489
 30
0.0
 10
1895.433049201967
 20
-786.339959859848
 30
0.0
 10
1880.363498687746
 20
-802.1633403301239
 30
0.0
 10
1865.262662251793
 20
-817.9563314119978
 30
0.0
 10
1850.861492792767
 20
-833.0176585515346
 30
0.0
 10
1836.486415545147
 20
-848.1036558151245
 30
0.0
 10
1822.081783612572
 20
-863.1615204811096
 30
0.0
 10
1806.744015057884
 20
-879.1948752403259
 30
0.0
 10
1791.368777592979
 20
-895.1925232410431
 30
0.0
 10
1776.03991254171
 20
-911.234441439311
 30
0.0
 10
1762.459720293682
 20
-925.44622596105
 30
0.0
 10
1748.943212827047
 20
-939.7187274297085
 30
0.0
 10
1735.357826868694
 20
-953.9255037307739
 30
0.0
 10
1719.556581497194
 20
-970.4497259457912
 30
0.0
 10
1703.688559850058
 20
-986.9101397196455
 30
0.0
 10
1687.891024271648
 20
-1003.438133557638
 30
0.0
 10
1674.65893427531
 20
-1017.282092094421
 30
0.0
 10
1661.518228848776
 20
-1031.21360174815
 30
0.0
 10
1648.279955863954
 20
-1045.051562786102
 30
0.0
 10
1631.891573905947
 20
-1062.1822125117
 30
0.0
 10
1615.430850982668
 20
-1079.243489106497
 30
0.0
 10
1599.026393254599
 20
-1096.358743190765
 30
0.0
 10
1584.373823483786
 20
-1111.646367708843
 30
0.0
 10
1569.758351643881
 20
-1126.969544410706
 30
0.0
 10
1555.120621045431
 20
-1142.271451632183
 30
0.0
 10
1540.016198476156
 20
-1158.061258474987
 30
0.0
 10
1524.898420651754
 20
-1173.838328361511
 30
0.0
 10
1509.798326174419
 20
-1189.632092316946
 30
0.0
 10
1495.514509836834
 20
-1204.571985562643
 30
0.0
 10
1481.252704938253
 20
-1219.532777309418
 30
0.0
 10
1466.969012260439
 20
-1234.472670555115
 30
0.0
 10
1451.868917783102
 20
-1250.266496340435
 30
0.0
 10
1436.746317227682
 20
-1266.038805325827
 30
0.0
 10
1421.648324966432
 20
-1281.834671497345
 30
0.0
 10
1407.483098347982
 20
-1296.654429276785
 30
0.0
 10
1393.350641568502
 20
-1311.505658467611
 30
0.0
 10
1379.1791083018
 20
-1326.319233258566
 30
0.0
 10
1363.607622782391
 20
-1342.596259593964
 30
0.0
 10
1347.996813456219
 20
-1358.83587884903
 30
0.0
 10
1332.423225720724
 20
-1375.110864798229
 30
0.0
 10
1318.016244252523
 20
-1390.166565418243
 30
0.0
 10
1303.642156283062
 20
-1405.253675619762
 30
0.0
 10
1289.241852442425
 20
-1420.315621058147
 30
0.0
 10
1274.258369127911
 20
-1435.987394650778
 30
0.0
 10
1259.254729270935
 20
-1451.639877319336
 30
0.0
 10
1244.271369616192
 20
-1467.311774571737
 30
0.0
 10
1229.871065775555
 20
-1482.373658180237
 30
0.0
 10
1215.4577776591
 20
-1497.423423131308
 30
0.0
 10
1201.106937726339
 20
-1512.532668431601
 30
0.0
 10
1195.220361709595
 20
-1518.730372428894
 30
0.0
 10
1189.482919375103
 20
-1525.069914182028
 30
0.0
 10
1182.680766423544
 20
-1530.650679588318
 30
0.0
 10
1185.637595176697
 20
-1525.429022153219
 30
0.0
 10
1188.505759874981
 20
-1520.154809316
 30
0.0
 10
1191.567081133526
 20
-1514.995229085287
 30
0.0
 10
1203.95976861318
 20
-1494.108104705811
 30
0.0
 10
1216.408102989197
 20
-1473.253997484844
 30
0.0
 10
1228.843082110088
 20
-1452.3920378685
 30
0.0
 10
1240.348510742188
 20
-1433.089613437653
 30
0.0
 10
1251.920839309692
 20
-1413.826698303223
 30
0.0
 10
1263.357760429382
 20
-1394.483775297802
 30
0.0
 10
1274.879264831543
 20
-1374.997839768728
 30
0.0
 10
1286.193639119467
 20
-1355.389295578003
 30
0.0
 10
1297.7385152181
 20
-1335.917395432791
 30
0.0
 10
1312.232429504396
 20
-1311.471528371176
 30
0.0
 10
1326.93322658539
 20
-1287.148455460867
 30
0.0
 10
1341.423307418825
 20
-1262.700486183167
 30
0.0
 10
1353.890438079836
 20
-1241.665588378906
 30
0.0
 10
1366.120512962343
 20
-1220.490398565929
 30
0.0
 10
1378.577627182009
 20
-1199.449503262838
 30
0.0
 10
1391.121550559999
 20
-1178.262194792431
 30
0.0
 10
1403.881631215414
 20
-1157.202874183655
 30
0.0
 10
1416.425801912945
 20
-1136.015689373016
 30
0.0
 10
1428.883287111919
 20
-1114.975103219351
 30
0.0
 10
1441.117566426596
 20
-1093.802324771881
 30
0.0
 10
1453.582223892214
 20
-1072.766066710155
 30
0.0
 10
1467.144485473635
 20
-1049.877261638641
 30
0.0
 10
1480.91894721985
 20
-1027.114156723022
 30
0.0
 10
1494.491719881695
 20
-1004.23147281011
 30
0.0
 10
1509.07479286194
 20
-979.6452519098921
 30
0.0
 10
1523.497602780661
 20
-954.96393664678
 30
0.0
 10
1538.053223292034
 20
-930.3612999121351
 30
0.0
 10
1549.410012880962
 20
-911.165532032649
 30
0.0
 10
1560.883660952251
 20
-892.0388899644222
 30
0.0
 10
1572.26481151581
 20
-872.8575284481049
 30
0.0
 10
1577.997060139975
 20
-863.196547110876
 30
0.0
 10
1583.454289436342
 20
-853.3654099305477
 30
0.0
 10
1589.44399770101
 20
-843.868679682414
 30
0.0
 10
1591.066290219625
 20
-841.2964018980665
 30
0.0
 10
1593.845914522808
 20
-838.7449607849121
 30
0.0
 10
1596.652249336244
 20
-837.7360825538635
 30
0.0
 10
1632.325867017111
 20
-824.9115751584377
 30
0.0
 10
1668.122649828594
 20
-812.4304091135664
 30
0.0
 10
1703.843258221945
 20
-799.7356517314911
 30
0.0
 10
1727.141871770224
 20
-791.4556408723201
 30
0.0
 10
1750.34081554413
 20
-782.8957879543304
 30
0.0
 10
1773.631391207378
 20
-774.5931782722473
 30
0.0
 10
1812.91241168976
 20
-760.5902860164642
 30
0.0
 10
1852.244379997255
 20
-746.7298189004268
 30
0.0
 10
1891.528862953188
 20
-732.7367266813917
 30
0.0
 10
1917.92564837138
 20
-723.3342560927076
 30
0.0
 10
1944.275937716167
 20
-713.8013862768812
 30
0.0
 10
1970.656771024071
 20
-704.3539653619137
 30
0.0
 10
1971.724573135378
 20
-703.9715166091919
 30
0.0
 10
1972.892045021059
 20
-703.8668386141462
 30
0.0
 10
1974.013020833336
 20
-703.6328125
 30
0.0
 10
1974.013020833336
 20
-704.308149417242
 30
0.0
 10
1974.013020833336
 20
-704.9835172494259
 30
0.0
 10
1974.013020833336
 20
-705.658854166667
 30
0.0
  0
HATCH
  5
50
330
45
100
AcDbEntity
  8
Layer 1
 62
     7
420
 16777215
100
AcDbHatch
 10
0.0
 20
0.0
 30
0.0
210
0.0
220
0.0
230
1.0
  2
SOLID
 70
     1
 71
     0
 91
        1
 92
        1
 93
        1
 72
     4
 94
        3
 73
     0
 74
     1
 95
      122
 96
      118
 40
0.0
 40
0.0
 40
0.0
 40
0.0
 40
1.0
 40
1.0
 40
1.0
 40
2.0
 40
2.0
 40
2.0
 40
3.0
 40
3.0
 40
3.0
 40
4.0
 40
4.0
 40
4.0
 40
5.0
 40
5.0
 40
5.0
 40
6.0
 40
6.0
 40
6.0
 40
7.0
 40
7.0
 40
7.0
 40
8.0
 40
8.0
 40
8.0
 40
9.0
 40
9.0
 40
9.0
 40
10.0
 40
10.0
 40
10.0
 40
11.0
 40
11.0
 40
11.0
 40
12.0
 40
12.0
 40
12.0
 40
13.0
 40
13.0
 40
13.0
 40
14.0
 40
14.0
 40
14.0
 40
15.0
 40
15.0
 40
15.0
 40
16.0
 40
16.0
 40
16.0
 40
17.0
 40
17.0
 40
17.0
 40
18.0
 40
18.0
 40
18.0
 40
19.0
 40
19.0
 40
19.0
 40
20.0
 40
20.0
 40
20.0
 40
21.0
 40
21.0
 40
21.0
 40
22.0
 40
22.0
 40
22.0
 40
23.0
 40
23.0
 40
23.0
 40
24.0
 40
24.0
 40
24.0
 40
25.0
 40
25.0
 40
25.0
 40
26.0
 40
26.0
 40
26.0
 40
27.0
 40
27.0
 40
27.0
 40
28.0
 40
28.0
 40
28.0
 40
29.0
 40
29.0
 40
29.0
 40
30.0
 40
30.0
 40
30.0
 40
31.0
 40
31.0
 40
31.0
 40
32.0
 40
32.0
 40
32.0
 40
33.0
 40
33.0
 40
33.0
 40
34.0
 40
34.0
 40
34.0
 40
35.0
 40
35.0
 40
35.0
 40
36.0
 40
36.0
 40
36.0
 40
37.0
 40
37.0
 40
37.0
 40
38.0
 40
38.0
 40
38.0
 40
39.0
 40
39.0
 40
39.0
 40
39.0
 10
1974.013020833336
 20
-705.658854166667
 10
1966.391621907555
 20
-713.4418454964962
 10
1958.770099322002
 20
-721.2249295711517
 10
1951.148329416912
 20
-729.0074880917873
 10
1950.675825436912
 20
-729.4898230234785
 10
1950.194788932802
 20
-729.9637490908308
 10
1949.723521550499
 20
-730.4471969604492
 10
1936.678405125938
 20
-743.8311102390289
 10
1923.579249382021
 20
-757.1630554993953
 10
1910.603506088259
 20
-770.6139923731489
 10
1895.433049201967
 20
-786.339959859848
 10
1880.363498687746
 20
-802.1633403301239
 10
1865.262662251793
 20
-817.9563314119978
 10
1850.861492792767
 20
-833.0176585515346
 10
1836.486415545147
 20
-848.1036558151245
 10
1822.081783612572
 20
-863.1615204811096
 10
1806.744015057884
 20
-879.1948752403259
 10
1791.368777592979
 20
-895.1925232410431
 10
1776.03991254171
 20
-911.234441439311
 10
1762.459720293682
 20
-925.44622596105
 10
1748.943212827047
 20
-939.7187274297085
 10
1735.357826868694
 20
-953.9255037307739
 10
1719.556581497194
 20
-970.4497259457912
 10
1703.688559850058
 20
-986.9101397196455
 10
1687.891024271648
 20
-1003.438133557638
 10
1674.65893427531
 20
-1017.282092094421
 10
1661.518228848776
 20
-1031.21360174815
 10
1648.279955863954
 20
-1045.051562786102
 10
1631.891573905947
 20
-1062.1822125117
 10
1615.430850982668
 20
-1079.243489106497
 10
1599.026393254599
 20
-1096.358743190765
 10
1584.373823483786
 20
-1111.646367708843
 10
1569.758351643881
 20
-1126.969544410706
 10
1555.120621045431
 20
-1142.271451632183
 10
1540.016198476156
 20
-1158.061258474987
 10
1524.898420651754
 20
-1173.838328361511
 10
1509.798326174419
 20
-1189.632092316946
 10
1495.514509836834
 20
-1204.571985562643
 10
1481.252704938253
 20
-1219.532777309418
 10
1466.969012260439
 20
-1234.472670555115
 10
1451.868917783102
 20
-1250.266496340435
 10
1436.746317227682
 20
-1266.038805325827
 10
1421.648324966432
 20
-1281.834671497345
 10
1407.483098347982
 20
-1296.654429276785
 10
1393.350641568502
 20
-1311.505658467611
 10
1379.1791083018
 20
-1326.319233258566
 10
1363.607622782391
 20
-1342.596259593964
 10
1347.996813456219
 20
-1358.83587884903
 10
1332.423225720724
 20
-1375.110864798229
 10
1318.016244252523
 20
-1390.166565418243
 10
1303.642156283062
 20
-1405.253675619762
 10
1289.241852442425
 20
-1420.315621058147
 10
1274.258369127911
 20
-1435.987394650778
 10
1259.254729270935
 20
-1451.639877319336
 10
1244.271369616192
 20
-1467.311774571737
 10
1229.871065775555
 20
-1482.373658180237
 10
1215.4577776591
 20
-1497.423423131308
 10
1201.106937726339
 20
-1512.532668431601
 10
1195.220361709595
 20
-1518.730372428894
 10
1189.482919375103
 20
-1525.069914182028
 10
1182.680766423544
 20
-1530.650679588318
 10
1185.637595176697
 20
-1525.429022153219
 10
1188.505759874981
 20
-1520.154809316
 10
1191.567081133526
 20
-1514.995229085287
 10
1203.95976861318
 20
-1494.108104705811
 10
1216.408102989197
 20
-1473.253997484844
 10
1228.843082110088
 20
-1452.3920378685
 10
1240.348510742188
 20
-1433.089613437653
 10
1251.920839309692
 20
-1413.826698303223
 10
1263.357760429382
 20
-1394.483775297802
 10
1274.879264831543
 20
-1374.997839768728
 10
1286.193639119467
 20
-1355.389295578003
 10
1297.7385152181
 20
-1335.917395432791
 10
1312.232429504396
 20
-1311.471528371176
 10
1326.93322658539
 20
-1287.148455460867
 10
1341.423307418825
 20
-1262.700486183167
 10
1353.890438079836
 20
-1241.665588378906
 10
1366.120512962343
 20
-1220.490398565929
 10
1378.577627182009
 20
-1199.449503262838
 10
1391.121550559999
 20
-1178.262194792431
 10
1403.881631215414
 20
-1157.202874183655
 10
1416.425801912945
 20
-1136.015689373016
 10
1428.883287111919
 20
-1114.975103219351
 10
1441.117566426596
 20
-1093.802324771881
 10
1453.582223892214
 20
-1072.766066710155
 10
1467.144485473635
 20
-1049.877261638641
 10
1480.91894721985
 20
-1027.114156723022
 10
1494.491719881695
 20
-1004.23147281011
 10
1509.07479286194
 20
-979.6452519098921
 10
1523.497602780661
 20
-954.96393664678
 10
1538.053223292034
 20
-930.3612999121351
 10
1549.410012880962
 20
-911.165532032649
 10
1560.883660952251
 20
-892.0388899644222
 10
1572.26481151581
 20
-872.8575284481049
 10
1577.997060139975
 20
-863.196547110876
 10
1583.454289436342
 20
-853.3654099305477
 10
1589.44399770101
 20
-843.868679682414
 10
1591.066290219625
 20
-841.2964018980665
 10
1593.845914522808
 20
-838.7449607849121
 10
1596.652249336244
 20
-837.7360825538635
 10
1632.325867017111
 20
-824.9115751584377
 10
1668.122649828594
 20
-812.4304091135664
 10
1703.843258221945
 20
-799.7356517314911
 10
1727.141871770224
 20
-791.4556408723201
 10
1750.34081554413
 20
-782.8957879543304
 10
1773.631391207378
 20
-774.5931782722473
 10
1812.91241168976
 20
-760.5902860164642
 10
1852.244379997255
 20
-746.7298189004268
 10
1891.528862953188
 20
-732.7367266813917
 10
1917.92564837138
 20
-723.3342560927076
 10
1944.275937716167
 20
-713.8013862768812
 10
1970.656771024071
 20
-704.3539653619137
 10
1971.724573135378
 20
-703.9715166091919
 10
1972.892045021059
 20
-703.8668386141462
 10
1974.013020833336
 20
-703.6328125
 10
1974.013020833336
 20
-704.308149417242
 10
1974.013020833336
 20
-704.9835172494259
 10
1974.013020833336
 20
-705.658854166667
 97
        0
 97
        0
 75
     2
 76
     1
 98
        0
  0
SPLINE
  5
51
330
45
100
AcDbEntity
  8
Layer 1
370
     0
100
AcDbSpline
210
0.0
220
0.0
230
1.0
 70
    11
 71
     3
 72
   119
 73
   115
 74
     0
 42
0.0000000001
 43
0.0000000001
 12
1.0
 22
0.0
 32
0.0
 13
1.0
 23
0.0
 33
0.0
 40
0.0
 40
0.0
 40
0.0
 40
0.0
 40
1.0
 40
1.0
 40
1.0
 40
2.0
 40
2.0
 40
2.0
 40
3.0
 40
3.0
 40
3.0
 40
4.0
 40
4.0
 40
4.0
 40
5.0
 40
5.0
 40
5.0
 40
6.0
 40
6.0
 40
6.0
 40
7.0
 40
7.0
 40
7.0
 40
8.0
 40
8.0
 40
8.0
 40
9.0
 40
9.0
 40
9.0
 40
10.0
 40
10.0
 40
10.0
 40
11.0
 40
11.0
 40
11.0
 40
12.0
 40
12.0
 40
12.0
 40
13.0
 40
13.0
 40
13.0
 40
14.0
 40
14.0
 40
14.0
 40
15.0
 40
15.0
 40
15.0
 40
16.0
 40
16.0
 40
16.0
 40
17.0
 40
17.0
 40
17.0
 40
18.0
 40
18.0
 40
18.0
 40
19.0
 40
19.0
 40
19.0
 40
20.0
 40
20.0
 40
20.0
 40
21.0
 40
21.0
 40
21.0
 40
22.0
 40
22.0
 40
22.0
 40
23.0
 40
23.0
 40
23.0
 40
24.0
 40
24.0
 40
24.0
 40
25.0
 40
25.0
 40
25.0
 40
26.0
 40
26.0
 40
26.0
 40
27.0
 40
27.0
 40
27.0
 40
28.0
 40
28.0
 40
28.0
 40
29.0
 40
29.0
 40
29.0
 40
30.0
 40
30.0
 40
30.0
 40
31.0
 40
31.0
 40
31.0
 40
32.0
 40
32.0
 40
32.0
 40
33.0
 40
33.0
 40
33.0
 40
34.0
 40
34.0
 40
34.0
 40
35.0
 40
35.0
 40
35.0
 40
36.0
 40
36.0
 40
36.0
 40
37.0
 40
37.0
 40
37.0
 40
38.0
 40
38.0
 40
38.0
 40
38.0
 10
29.01302107485662
 20
-703.6328125
 30
0.0
 10
37.47059552868177
 20
-706.3534201780958
 30
0.0
 10
45.99021844565868
 20
-708.8967615763349
 30
0.0
 10
54.37316253781319
 20
-711.8306205272675
 30
0.0
 10
73.35181477665901
 20
-718.4726959069576
 30
0.0
 10
92.27725467085838
 20
-725.2678929964704
 30
0.0
 10
111.1987722317381
 20
-732.071900844574
 30
0.0
 10
151.0597338477774
 20
-746.405613899231
 30
0.0
 10
190.8760542869568
 20
-760.8638832569122
 30
0.0
 10
230.7639041741695
 20
-775.1221947669983
 30
0.0
 10
266.4594405492153
 20
-787.8819044431057
 30
0.0
 10
302.246145089468
 20
-800.3864421844482
 30
0.0
 10
337.9548512299862
 20
-813.1095485687256
 30
0.0
 10
361.2419953346252
 20
-821.4068099657698
 30
0.0
 10
384.5331583817806
 20
-829.7059262593593
 30
0.0
 10
407.6294645468397
 20
-838.5107182661695
 30
0.0
 10
410.852192719778
 20
-839.739308993022
 30
0.0
 10
413.575211763382
 20
-843.5075931549072
 30
0.0
 10
415.4996360143032
 20
-846.717677116394
 30
0.0
 10
430.2828214168549
 20
-871.3774137496948
 30
0.0
 10
444.7712637583418
 20
-896.2135819594068
 30
0.0
 10
459.4330770969391
 20
-920.946494261424
 30
0.0
 10
469.3717364470167
 20
-937.7119766871137
 30
0.0
 10
479.5152072906494
 20
-954.3560870488491
 30
0.0
 10
489.4364924430847
 20
-971.1317714055385
 30
0.0
 10
501.8829100926723
 20
-992.1770566304531
 30
0.0
 10
514.1222594579067
 20
-1013.344765027365
 30
0.0
 10
526.586020390193
 20
-1034.379662831625
 30
0.0
 10
540.1472926934566
 20
-1057.266798496246
 30
0.0
 10
553.9307506879177
 20
-1080.022112846375
 30
0.0
 10
567.492455800375
 20
-1102.908939361572
 30
0.0
 10
579.956618626913
 20
-1123.943528016409
 30
0.0
 10
592.1817471186323
 20
-1145.11964527766
 30
0.0
 10
604.6454771359768
 20
-1166.15441942215
 30
0.0
 10
618.206811269125
 20
-1189.041555086773
 30
0.0
 10
631.9854774475098
 20
-1211.799837271374
 30
0.0
 10
645.5513251622524
 20
-1234.684314250946
 30
0.0
 10
658.9454712867737
 20
-1257.279056390127
 30
0.0
 10
672.1350223223371
 20
-1279.995108763378
 30
0.0
 10
685.5198939641323
 20
-1302.595415592194
 30
0.0
 10
698.1507501602182
 20
-1323.922521432241
 30
0.0
 10
710.9745155970259
 20
-1345.135303815206
 30
0.0
 10
723.6121112505598
 20
-1366.458452542623
 30
0.0
 10
738.1856624285383
 20
-1391.048012256622
 30
0.0
 10
752.6140988667812
 20
-1415.723453680675
 30
0.0
 10
767.1695957183847
 20
-1440.323771794638
 30
0.0
 10
778.5261379877729
 20
-1459.517251968384
 30
0.0
 10
790.0170984268198
 20
-1478.631095250448
 30
0.0
 10
801.3768558502206
 20
-1497.82284418742
 30
0.0
 10
807.433587710063
 20
-1508.05519549052
 30
0.0
 10
813.3434117635097
 20
-1518.374726931255
 30
0.0
 10
819.300721168519
 20
-1528.665692965191
 30
0.0
 10
819.6718859672555
 20
-1529.306992530823
 30
0.0
 10
819.8793870608015
 20
-1530.042768160503
 30
0.0
 10
819.3400449752817
 20
-1531.31658744812
 30
0.0
 10
813.4406083424892
 20
-1524.95219008128
 30
0.0
 10
807.644242127737
 20
-1518.488493919373
 30
0.0
 10
801.6230624516811
 20
-1512.241449673971
 30
0.0
 10
781.0728491147365
 20
-1490.92003218333
 30
0.0
 10
760.4044170379648
 20
-1469.712752660116
 30
0.0
 10
739.857789834341
 20
-1448.387996355694
 30
0.0
 10
725.634690443675
 20
-1433.626296838125
 30
0.0
 10
711.5480496088667
 20
-1418.733085155487
 30
0.0
 10
697.3818337122602
 20
-1403.916357040405
 30
0.0
 10
682.1661173502607
 20
-1388.001839319866
 30
0.0
 10
666.9209699630746
 20
-1372.115577856701
 30
0.0
 10
651.7028422355652
 20
-1356.2033478419
 30
0.0
 10
637.3011163075771
 20
-1341.14480304718
 30
0.0
 10
622.9274611473083
 20
-1326.059424082439
 30
0.0
 10
608.5238803227749
 20
-1311.002672354382
 30
0.0
 10
593.1872247060146
 20
-1294.970368703207
 30
0.0
 10
577.8171191215515
 20
-1278.970154762268
 30
0.0
 10
562.4854098955793
 20
-1262.933090209961
 30
0.0
 10
548.5529727935791
 20
-1248.359848181408
 30
0.0
 10
534.6671245098114
 20
-1233.742026805878
 30
0.0
 10
520.7337290445967
 20
-1219.169650395712
 30
0.0
 10
505.2843266328182
 20
-1203.011646588644
 30
0.0
 10
489.7930035591125
 20
-1186.893646717072
 30
0.0
 10
474.3410970369978
 20
-1170.737992445629
 30
0.0
 10
460.172253370285
 20
-1155.92373752594
 30
0.0
 10
446.0419915517177
 20
-1141.072631994884
 30
0.0
 10
431.8757447401686
 20
-1126.255903879803
 30
0.0
 10
416.6599974632263
 20
-1110.341447989147
 30
0.0
 10
401.4111402829494
 20
-1094.458710829418
 30
0.0
 10
386.1971242427826
 20
-1078.542647361755
 30
0.0
 10
372.149034341177
 20
-1063.846363862356
 30
0.0
 10
358.1446890830994
 20
-1049.108221530914
 30
0.0
 10
344.0905089378357
 20
-1034.417811870575
 30
0.0
 10
328.4032469590511
 20
-1018.020279089611
 30
0.0
 10
312.6570301850643
 20
-1001.679196993511
 30
0.0
 10
296.9825669924421
 20
-985.2694837252302
 30
0.0
 10
284.1054887374248
 20
-971.7884047826137
 30
0.0
 10
271.3335522015896
 20
-958.2069141070051
 30
0.0
 10
258.4468130270643
 20
-944.7351096471157
 30
0.0
 10
241.9439839522047
 20
-927.4829641977949
 30
0.0
 10
225.3415778477993
 20
-910.3260986010237
 30
0.0
 10
208.8411601384487
 20
-893.0716036160793
 30
0.0
 10
196.1896373033524
 20
-879.8419249852504
 30
0.0
 10
183.6742947896319
 20
-866.4819398721065
 30
0.0
 10
171.0180110534029
 20
-853.2568366527557
 30
0.0
 10
154.0445947249727
 20
-835.5205941200256
 30
0.0
 10
136.9732630451517
 20
-817.8780856927242
 30
0.0
 10
119.9821788271265
 20
-800.1586918036146
 30
0.0
 10
105.6776262919111
 20
-785.2409336566925
 30
0.0
 10
91.43517801165581
 20
-770.2636333306637
 30
0.0
 10
77.15145441889763
 20
-755.3258732159939
 30
0.0
 10
61.93465216954519
 20
-739.4122829437256
 30
0.0
 10
46.69840248922537
 20
-723.5172725518551
 30
0.0
 10
31.4841070069624
 20
-707.6013018290205
 30
0.0
 10
30.59874628856778
 20
-706.6750901540127
 30
0.0
 10
29.83394201099873
 20
-705.6336584885921
 30
0.0
 10
29.01302228247096
 20
-704.6458333333339
 30
0.0
 10
29.01302083333303
 20
-704.308149417242
 30
0.0
 10
29.01302083333303
 20
-703.9704964160919
 30
0.0
 10
29.01302107485662
 20
-703.6328125
 30
0.0
  0
HATCH
  5
52
330
45
100
AcDbEntity
  8
Layer 1
 62
     7
420
 16777215
100
AcDbHatch
 10
0.0
 20
0.0
 30
0.0
210
0.0
220
0.0
230
1.0
  2
SOLID
 70
     1
 71
     0
 91
        1
 92
        1
 93
        1
 72
     4
 94
        3
 73
     0
 74
     1
 95
      119
 96
      115
 40
0.0
 40
0.0
 40
0.0
 40
0.0
 40
1.0
 40
1.0
 40
1.0
 40
2.0
 40
2.0
 40
2.0
 40
3.0
 40
3.0
 40
3.0
 40
4.0
 40
4.0
 40
4.0
 40
5.0
 40
5.0
 40
5.0
 40
6.0
 40
6.0
 40
6.0
 40
7.0
 40
7.0
 40
7.0
 40
8.0
 40
8.0
 40
8.0
 40
9.0
 40
9.0
 40
9.0
 40
10.0
 40
10.0
 40
10.0
 40
11.0
 40
11.0
 40
11.0
 40
12.0
 40
12.0
 40
12.0
 40
13.0
 40
13.0
 40
13.0
 40
14.0
 40
14.0
 40
14.0
 40
15.0
 40
15.0
 40
15.0
 40
16.0
 40
16.0
 40
16.0
 40
17.0
 40
17.0
 40
17.0
 40
18.0
 40
18.0
 40
18.0
 40
19.0
 40
19.0
 40
19.0
 40
20.0
 40
20.0
 40
20.0
 40
21.0
 40
21.0
 40
21.0
 40
22.0
 40
22.0
 40
22.0
 40
23.0
 40
23.0
 40
23.0
 40
24.0
 40
24.0
 40
24.0
 40
25.0
 40
25.0
 40
25.0
 40
26.0
 40
26.0
 40
26.0
 40
27.0
 40
27.0
 40
27.0
 40
28.0
 40
28.0
 40
28.0
 40
29.0
 40
29.0
 40
29.0
 40
30.0
 40
30.0
 40
30.0
 40
31.0
 40
31.0
 40
31.0
 40
32.0
 40
32.0
 40
32.0
 40
33.0
 40
33.0
 40
33.0
 40
34.0
 40
34.0
 40
34.0
 40
35.0
 40
35.0
 40
35.0
 40
36.0
 40
36.0
 40
36.0
 40
37.0
 40
37.0
 40
37.0
 40
38.0
 40
38.0
 40
38.0
 40
38.0
 10
29.01302107485662
 20
-703.6328125
 10
37.47059552868177
 20
-706.3534201780958
 10
45.99021844565868
 20
-708.8967615763349
 10
54.37316253781319
 20
-711.8306205272675
 10
73.35181477665901
 20
-718.4726959069576
 10
92.27725467085838
 20
-725.2678929964704
 10
111.1987722317381
 20
-732.071900844574
 10
151.0597338477774
 20
-746.405613899231
 10
190.8760542869568
 20
-760.8638832569122
 10
230.7639041741695
 20
-775.1221947669983
 10
266.4594405492153
 20
-787.8819044431057
 10
302.246145089468
 20
-800.3864421844482
 10
337.9548512299862
 20
-813.1095485687256
 10
361.2419953346252
 20
-821.4068099657698
 10
384.5331583817806
 20
-829.7059262593593
 10
407.6294645468397
 20
-838.5107182661695
 10
410.852192719778
 20
-839.739308993022
 10
413.575211763382
 20
-843.5075931549072
 10
415.4996360143032
 20
-846.717677116394
 10
430.2828214168549
 20
-871.3774137496948
 10
444.7712637583418
 20
-896.2135819594068
 10
459.4330770969391
 20
-920.946494261424
 10
469.3717364470167
 20
-937.7119766871137
 10
479.5152072906494
 20
-954.3560870488491
 10
489.4364924430847
 20
-971.1317714055385
 10
501.8829100926723
 20
-992.1770566304531
 10
514.1222594579067
 20
-1013.344765027365
 10
526.586020390193
 20
-1034.379662831625
 10
540.1472926934566
 20
-1057.266798496246
 10
553.9307506879177
 20
-1080.022112846375
 10
567.492455800375
 20
-1102.908939361572
 10
579.956618626913
 20
-1123.943528016409
 10
592.1817471186323
 20
-1145.11964527766
 10
604.6454771359768
 20
-1166.15441942215
 10
618.206811269125
 20
-1189.041555086773
 10
631.9854774475098
 20
-1211.799837271374
 10
645.5513251622524
 20
-1234.684314250946
 10
658.9454712867737
 20
-1257.279056390127
 10
672.1350223223371
 20
-1279.995108763378
 10
685.5198939641323
 20
-1302.595415592194
 10
698.1507501602182
 20
-1323.922521432241
 10
710.9745155970259
 20
-1345.135303815206
 10
723.6121112505598
 20
-1366.458452542623
 10
738.1856624285383
 20
-1391.048012256622
 10
752.6140988667812
 20
-1415.723453680675
 10
767.1695957183847
 20
-1440.323771794638
 10
778.5261379877729
 20
-1459.517251968384
 10
790.0170984268198
 20
-1478.631095250448
 10
801.3768558502206
 20
-1497.82284418742
 10
807.433587710063
 20
-1508.05519549052
 10
813.3434117635097
 20
-1518.374726931255
 10
819.300721168519
 20
-1528.665692965191
 10
819.6718859672555
 20
-1529.306992530823
 10
819.8793870608015
 20
-1530.042768160503
 10
819.3400449752817
 20
-1531.31658744812
 10
813.4406083424892
 20
-1524.95219008128
 10
807.644242127737
 20
-1518.488493919373
 10
801.6230624516811
 20
-1512.241449673971
 10
781.0728491147365
 20
-1490.92003218333
 10
760.4044170379648
 20
-1469.712752660116
 10
739.857789834341
 20
-1448.387996355694
 10
725.634690443675
 20
-1433.626296838125
 10
711.5480496088667
 20
-1418.733085155487
 10
697.3818337122602
 20
-1403.916357040405
 10
682.1661173502607
 20
-1388.001839319866
 10
666.9209699630746
 20
-1372.115577856701
 10
651.7028422355652
 20
-1356.2033478419
 10
637.3011163075771
 20
-1341.14480304718
 10
622.9274611473083
 20
-1326.059424082439
 10
608.5238803227749
 20
-1311.002672354382
 10
593.1872247060146
 20
-1294.970368703207
 10
577.8171191215515
 20
-1278.970154762268
 10
562.4854098955793
 20
-1262.933090209961
 10
548.5529727935791
 20
-1248.359848181408
 10
534.6671245098114
 20
-1233.742026805878
 10
520.7337290445967
 20
-1219.169650395712
 10
505.2843266328182
 20
-1203.011646588644
 10
489.7930035591125
 20
-1186.893646717072
 10
474.3410970369978
 20
-1170.737992445629
 10
460.172253370285
 20
-1155.92373752594
 10
446.0419915517177
 20
-1141.072631994884
 10
431.8757447401686
 20
-1126.255903879803
 10
416.6599974632263
 20
-1110.341447989147
 10
401.4111402829494
 20
-1094.458710829418
 10
386.1971242427826
 20
-1078.542647361755
 10
372.149034341177
 20
-1063.846363862356
 10
358.1446890830994
 20
-1049.108221530914
 10
344.0905089378357
 20
-1034.417811870575
 10
328.4032469590511
 20
-1018.020279089611
 10
312.6570301850643
 20
-1001.679196993511
 10
296.9825669924421
 20
-985.2694837252302
 10
284.1054887374248
 20
-971.7884047826137
 10
271.3335522015896
 20
-958.2069141070051
 10
258.4468130270643
 20
-944.7351096471157
 10
241.9439839522047
 20
-927.4829641977949
 10
225.3415778477993
 20
-910.3260986010237
 10
208.8411601384487
 20
-893.0716036160793
 10
196.1896373033524
 20
-879.8419249852504
 10
183.6742947896319
 20
-866.4819398721065
 10
171.0180110534029
 20
-853.2568366527557
 10
154.0445947249727
 20
-835.5205941200256
 10
136.9732630451517
 20
-817.8780856927242
 10
119.9821788271265
 20
-800.1586918036146
 10
105.6776262919111
 20
-785.2409336566925
 10
91.43517801165581
 20
-770.2636333306637
 10
77.15145441889763
 20
-755.3258732159939
 10
61.93465216954519
 20
-739.4122829437256
 10
46.69840248922537
 20
-723.5172725518551
 10
31.4841070069624
 20
-707.6013018290205
 10
30.59874628856778
 20
-706.6750901540127
 10
29.83394201099873
 20
-705.6336584885921
 10
29.01302228247096
 20
-704.6458333333339
 10
29.01302083333303
 20
-704.308149417242
 10
29.01302083333303
 20
-703.9704964160919
 10
29.01302107485662
 20
-703.6328125
 97
        0
 97
        0
 75
     2
 76
     1
 98
        0
  0
SPLINE
  5
53
330
45
100
AcDbEntity
  8
Layer 1
370
     0
100
AcDbSpline
210
0.0
220
0.0
230
1.0
 70
    11
 71
     3
 72
    17
 73
    13
 74
     0
 42
0.0000000001
 43
0.0000000001
 12
1.0
 22
0.0
 32
0.0
 13
1.0
 23
0.0
 33
0.0
 40
0.0
 40
0.0
 40
0.0
 40
0.0
 40
1.0
 40
1.0
 40
1.0
 40
2.0
 40
2.0
 40
2.0
 40
3.0
 40
3.0
 40
3.0
 40
4.0
 40
4.0
 40
4.0
 40
4.0
 10
956.7573350270595
 20
-730.4433325926466
 30
0.0
 10
956.7573350270595
 20
-766.99657313029
 30
0.0
 10
956.7573350270595
 20
-803.3934458891554
 30
0.0
 10
956.7573350270595
 20
-840.5844616889954
 30
0.0
 10
804.7344040870676
 20
-822.3448002338409
 30
0.0
 10
652.9857505162563
 20
-804.1380322774257
 30
0.0
 10
501.0316053231563
 20
-785.9066251118984
 30
0.0
 10
507.208936373393
 20
-748.9123210906982
 30
0.0
 10
513.2429148356123
 20
-712.7764631907148
 30
0.0
 10
519.4146193663282
 20
-675.8157482544584
 30
0.0
 10
665.2970698674526
 20
-694.0376181602478
 30
0.0
 10
810.7677642504377
 20
-712.2080610593166
 30
0.0
 10
956.7573350270595
 20
-730.4433325926466
 30
0.0
  0
HATCH
  5
54
330
45
100
AcDbEntity
  8
Layer 1
 62
     7
420
 16777215
100
AcDbHatch
 10
0.0
 20
0.0
 30
0.0
210
0.0
220
0.0
230
1.0
  2
SOLID
 70
     1
 71
     0
 91
        1
 92
        1
 93
        1
 72
     4
 94
        3
 73
     0
 74
     1
 95
       17
 96
       13
 40
0.0
 40
0.0
 40
0.0
 40
0.0
 40
1.0
 40
1.0
 40
1.0
 40
2.0
 40
2.0
 40
2.0
 40
3.0
 40
3.0
 40
3.0
 40
4.0
 40
4.0
 40
4.0
 40
4.0
 10
956.7573350270595
 20
-730.4433325926466
 10
956.7573350270595
 20
-766.99657313029
 10
956.7573350270595
 20
-803.3934458891554
 10
956.7573350270595
 20
-840.5844616889954
 10
804.7344040870676
 20
-822.3448002338409
 10
652.9857505162563
 20
-804.1380322774257
 10
501.0316053231563
 20
-785.9066251118984
 10
507.208936373393
 20
-748.9123210906982
 10
513.2429148356123
 20
-712.7764631907148
 10
519.4146193663282
 20
-675.8157482544584
 10
665.2970698674526
 20
-694.0376181602478
 10
810.7677642504377
 20
-712.2080610593166
 10
956.7573350270595
 20
-730.4433325926466
 97
        0
 97
        0
 75
     2
 76
     1
 98
        0
  0
SPLINE
  5
55
330
45
100
AcDbEntity
  8
Layer 1
370
     0
100
AcDbSpline
210
0.0
220
0.0
230
1.0
 70
    11
 71
     3
 72
   107
 73
   103
 74
     0
 42
0.0000000001
 43
0.0000000001
 12
1.0
 22
0.0
 32
0.0
 13
1.0
 23
0.0
 33
0.0
 40
0.0
 40
0.0
 40
0.0
 40
0.0
 40
1.0
 40
1.0
 40
1.0
 40
2.0
 40
2.0
 40
2.0
 40
3.0
 40
3.0
 40
3.0
 40
4.0
 40
4.0
 40
4.0
 40
5.0
 40
5.0
 40
5.0
 40
6.0
 40
6.0
 40
6.0
 40
7.0
 40
7.0
 40
7.0
 40
8.0
 40
8.0
 40
8.0
 40
9.0
 40
9.0
 40
9.0
 40
10.0
 40
10.0
 40
10.0
 40
11.0
 40
11.0
 40
11.0
 40
12.0
 40
12.0
 40
12.0
 40
13.0
 40
13.0
 40
13.0
 40
14.0
 40
14.0
 40
14.0
 40
15.0
 40
15.0
 40
15.0
 40
16.0
 40
16.0
 40
16.0
 40
17.0
 40
17.0
 40
17.0
 40
18.0
 40
18.0
 40
18.0
 40
19.0
 40
19.0
 40
19.0
 40
20.0
 40
20.0
 40
20.0
 40
21.0
 40
21.0
 40
21.0
 40
22.0
 40
22.0
 40
22.0
 40
23.0
 40
23.0
 40
23.0
 40
24.0
 40
24.0
 40
24.0
 40
25.0
 40
25.0
 40
25.0
 40
26.0
 40
26.0
 40
26.0
 40
27.0
 40
27.0
 40
27.0
 40
28.0
 40
28.0
 40
28.0
 40
29.0
 40
29.0
 40
29.0
 40
30.0
 40
30.0
 40
30.0
 40
31.0
 40
31.0
 40
31.0
 40
32.0
 40
32.0
 40
32.0
 40
33.0
 40
33.0
 40
33.0
 40
34.0
 40
34.0
 40
34.0
 40
34.0
 10
1492.746880531313
 20
-675.9721005757656
 30
0.0
 10
1498.845780372621
 20
-712.4747024377193
 30
0.0
 10
1504.856881777447
 20
-748.4520903428402
 30
0.0
 10
1511.064354896547
 20
-785.6045242945356
 30
0.0
 10
1506.303948402407
 20
-786.29470038414
 30
0.0
 10
1501.421737035116
 20
-787.0628439585371
 30
0.0
 10
1496.522584279379
 20
-787.7012375195827
 30
0.0
 10
1483.534104029339
 20
-789.3936760425568
 30
0.0
 10
1470.548220634462
 20
-791.113165140152
 30
0.0
 10
1457.542304356894
 20
-792.6616946061458
 30
0.0
 10
1447.638146082561
 20
-793.8409759998322
 30
0.0
 10
1437.694911321005
 20
-794.6906731923427
 30
0.0
 10
1427.787043253582
 20
-795.8417910734815
 30
0.0
 10
1417.904649098715
 20
-796.9899720350904
 30
0.0
 10
1408.046615918478
 20
-798.3483127752943
 30
0.0
 10
1398.173743565878
 20
-799.5811079343166
 30
0.0
 10
1391.748876571657
 20
-800.3833506902065
 30
0.0
 10
1385.31386947632
 20
-801.1050909360256
 30
0.0
 10
1378.888013203939
 20
-801.8995431264248
 30
0.0
 10
1365.556253433229
 20
-803.5477423667908
 30
0.0
 10
1352.234262784323
 20
-805.2774952252712
 30
0.0
 10
1338.895083427431
 20
-806.8636172612514
 30
0.0
 10
1329.323817253115
 20
-808.0017508665724
 30
0.0
 10
1319.721759796144
 20
-808.8824557463331
 30
0.0
 10
1310.150617281597
 20
-810.0221041838331
 30
0.0
 10
1300.273664156597
 20
-811.1981704235077
 30
0.0
 10
1290.425029118856
 20
-812.6134874025984
 30
0.0
 10
1280.549683570862
 20
-813.8044855594635
 30
0.0
 10
1270.81889629364
 20
-814.9781095186872
 30
0.0
 10
1261.06350072225
 20
-815.946025451025
 30
0.0
 10
1251.331105868023
 20
-817.1064178148908
 30
0.0
 10
1241.122497240704
 20
-818.323600927989
 30
0.0
 10
1230.934416135153
 20
-819.7117436726894
 30
0.0
 10
1220.726302146912
 20
-820.9336258570356
 30
0.0
 10
1211.159735043844
 20
-822.0787153244019
 30
0.0
 10
1201.571280161541
 20
-823.0412211418152
 30
0.0
 10
1192.006444295248
 20
-824.1994803746547
 30
0.0
 10
1181.967125892639
 20
-825.4151795705166
 30
0.0
 10
1171.952168464661
 20
-826.8307747840881
 30
0.0
 10
1161.912479082745
 20
-828.0427023569746
 30
0.0
 10
1152.346282958984
 20
-829.1975300312042
 30
0.0
 10
1142.755231221518
 20
-830.146247784297
 30
0.0
 10
1133.187427520752
 20
-831.2883694171906
 30
0.0
 10
1122.814969698589
 20
-832.5265437761946
 30
0.0
 10
1112.463410377502
 20
-833.9400058587398
 30
0.0
 10
1102.090334256491
 20
-835.1719663143158
 30
0.0
 10
1092.520304679871
 20
-836.3085541725159
 30
0.0
 10
1082.93073685964
 20
-837.2804272174835
 30
0.0
 10
1073.355513572693
 20
-838.3740123907728
 30
0.0
 10
1067.479324976604
 20
-839.0451757907867
 30
0.0
 10
1061.613523801168
 20
-839.8088057835903
 30
0.0
 10
1055.427011013031
 20
-840.5697770913448
 30
0.0
 10
1055.334451675415
 20
-838.4777011076612
 30
0.0
 10
1055.211966673534
 20
-836.9946185747785
 30
0.0
 10
1055.211472034454
 20
-835.5115051269531
 30
0.0
 10
1055.200651804607
 20
-802.2630101044979
 30
0.0
 10
1055.267366250357
 20
-769.0142677625026
 30
0.0
 10
1055.122993469238
 20
-735.7663910388947
 30
0.0
 10
1055.104629993439
 20
-731.5394837061567
 30
0.0
 10
1056.107201576233
 20
-730.2404069105787
 30
0.0
 10
1060.656149864197
 20
-729.7799597581234
 30
0.0
 10
1075.485429445904
 20
-728.2789465586347
 30
0.0
 10
1090.219243685406
 20
-725.8597595691681
 30
0.0
 10
1105.014022191366
 20
-723.9847992261257
 30
0.0
 10
1117.040429433187
 20
-722.4606925646467
 30
0.0
 10
1129.115063985189
 20
-721.3170870145168
 30
0.0
 10
1141.143944422405
 20
-719.8101999759674
 30
0.0
 10
1153.308603286743
 20
-718.2863406340284
 30
0.0
 10
1165.432949066162
 20
-716.4420169989271
 30
0.0
 10
1177.59451643626
 20
-714.8916326363887
 30
0.0
 10
1186.822379430136
 20
-713.7152263323469
 30
0.0
 10
1196.089318911236
 20
-712.8483713467922
 30
0.0
 10
1205.323364893597
 20
-711.7178119023647
 30
0.0
 10
1214.865818341574
 20
-710.5494743982954
 30
0.0
 10
1224.38452911377
 20
-709.1889386971798
 30
0.0
 10
1233.923025449118
 20
-707.9865947564449
 30
0.0
 10
1243.146189371746
 20
-706.8240383466091
 30
0.0
 10
1252.385800043743
 20
-705.7931795914974
 30
0.0
 10
1261.609705924988
 20
-704.6359405517578
 30
0.0
 10
1271.313164393108
 20
-703.4185101191206
 30
0.0
 10
1281.001783688864
 20
-702.0809442202253
 30
0.0
 10
1290.705736796062
 20
-700.8680891990662
 30
0.0
 10
1299.930260976156
 20
-699.7151782512665
 30
0.0
 10
1309.171973864239
 20
-698.6999933719635
 30
0.0
 10
1318.395879745485
 20
-697.5426306724548
 30
0.0
 10
1328.099090894064
 20
-696.3251074949903
 30
0.0
 10
1337.784495035809
 20
-694.9649736881256
 30
0.0
 10
1347.488200823467
 20
-693.7520259221401
 30
0.0
 10
1356.713714281719
 20
-692.5988058249159
 30
0.0
 10
1365.959384282431
 20
-691.6070853869123
 30
0.0
 10
1375.184279441835
 20
-690.4494444529219
 30
0.0
 10
1384.886501312258
 20
-689.2318903605146
 30
0.0
 10
1394.567948341371
 20
-687.8489104111995
 30
0.0
 10
1404.270664850872
 20
-686.6359317302704
 30
0.0
 10
1413.497167587282
 20
-685.4825261433925
 30
0.0
 10
1422.743950525921
 20
-684.491702238719
 30
0.0
 10
1431.973544756573
 20
-683.362348477046
 30
0.0
 10
1441.520202636721
 20
-682.194227377574
 30
0.0
 10
1451.051897684734
 20
-680.9042704900112
 30
0.0
 10
1460.599421183269
 20
-679.7430743376417
 30
0.0
 10
1471.120765368145
 20
-678.4634275833769
 30
0.0
 10
1481.652744293215
 20
-677.2696161667509
 30
0.0
 10
1492.746880531313
 20
-675.9721005757656
 30
0.0
  0
HATCH
  5
56
330
45
100
AcDbEntity
  8
Layer 1
 62
     7
420
 16777215
100
AcDbHatch
 10
0.0
 20
0.0
 30
0.0
210
0.0
220
0.0
230
1.0
  2
SOLID
 70
     1
 71
     0
 91
        1
 92
        1
 93
        1
 72
     4
 94
        3
 73
     0
 74
     1
 95
      107
 96
      103
 40
0.0
 40
0.0
 40
0.0
 40
0.0
 40
1.0
 40
1.0
 40
1.0
 40
2.0
 40
2.0
 40
2.0
 40
3.0
 40
3.0
 40
3.0
 40
4.0
 40
4.0
 40
4.0
 40
5.0
 40
5.0
 40
5.0
 40
6.0
 40
6.0
 40
6.0
 40
7.0
 40
7.0
 40
7.0
 40
8.0
 40
8.0
 40
8.0
 40
9.0
 40
9.0
 40
9.0
 40
10.0
 40
10.0
 40
10.0
 40
11.0
 40
11.0
 40
11.0
 40
12.0
 40
12.0
 40
12.0
 40
13.0
 40
13.0
 40
13.0
 40
14.0
 40
14.0
 40
14.0
 40
15.0
 40
15.0
 40
15.0
 40
16.0
 40
16.0
 40
16.0
 40
17.0
 40
17.0
 40
17.0
 40
18.0
 40
18.0
 40
18.0
 40
19.0
 40
19.0
 40
19.0
 40
20.0
 40
20.0
 40
20.0
 40
21.0
 40
21.0
 40
21.0
 40
22.0
 40
22.0
 40
22.0
 40
23.0
 40
23.0
 40
23.0
 40
24.0
 40
24.0
 40
24.0
 40
25.0
 40
25.0
 40
25.0
 40
26.0
 40
26.0
 40
26.0
 40
27.0
 40
27.0
 40
27.0
 40
28.0
 40
28.0
 40
28.0
 40
29.0
 40
29.0
 40
29.0
 40
30.0
 40
30.0
 40
30.0
 40
31.0
 40
31.0
 40
31.0
 40
32.0
 40
32.0
 40
32.0
 40
33.0
 40
33.0
 40
33.0
 40
34.0
 40
34.0
 40
34.0
 40
34.0
 10
1492.746880531313
 20
-675.9721005757656
 10
1498.845780372621
 20
-712.4747024377193
 10
1504.856881777447
 20
-748.4520903428402
 10
1511.064354896547
 20
-785.6045242945356
 10
1506.303948402407
 20
-786.29470038414
 10
1501.421737035116
 20
-787.0628439585371
 10
1496.522584279379
 20
-787.7012375195827
 10
1483.534104029339
 20
-789.3936760425568
 10
1470.548220634462
 20
-791.113165140152
 10
1457.542304356894
 20
-792.6616946061458
 10
1447.638146082561
 20
-793.8409759998322
 10
1437.694911321005
 20
-794.6906731923427
 10
1427.787043253582
 20
-795.8417910734815
 10
1417.904649098715
 20
-796.9899720350904
 10
1408.046615918478
 20
-798.3483127752943
 10
1398.173743565878
 20
-799.5811079343166
 10
1391.748876571657
 20
-800.3833506902065
 10
1385.31386947632
 20
-801.1050909360256
 10
1378.888013203939
 20
-801.8995431264248
 10
1365.556253433229
 20
-803.5477423667908
 10
1352.234262784323
 20
-805.2774952252712
 10
1338.895083427431
 20
-806.8636172612514
 10
1329.323817253115
 20
-808.0017508665724
 10
1319.721759796144
 20
-808.8824557463331
 10
1310.150617281597
 20
-810.0221041838331
 10
1300.273664156597
 20
-811.1981704235077
 10
1290.425029118856
 20
-812.6134874025984
 10
1280.549683570862
 20
-813.8044855594635
 10
1270.81889629364
 20
-814.9781095186872
 10
1261.06350072225
 20
-815.946025451025
 10
1251.331105868023
 20
-817.1064178148908
 10
1241.122497240704
 20
-818.323600927989
 10
1230.934416135153
 20
-819.7117436726894
 10
1220.726302146912
 20
-820.9336258570356
 10
1211.159735043844
 20
-822.0787153244019
 10
1201.571280161541
 20
-823.0412211418152
 10
1192.006444295248
 20
-824.1994803746547
 10
1181.967125892639
 20
-825.4151795705166
 10
1171.952168464661
 20
-826.8307747840881
 10
1161.912479082745
 20
-828.0427023569746
 10
1152.346282958984
 20
-829.1975300312042
 10
1142.755231221518
 20
-830.146247784297
 10
1133.187427520752
 20
-831.2883694171906
 10
1122.814969698589
 20
-832.5265437761946
 10
1112.463410377502
 20
-833.9400058587398
 10
1102.090334256491
 20
-835.1719663143158
 10
1092.520304679871
 20
-836.3085541725159
 10
1082.93073685964
 20
-837.2804272174835
 10
1073.355513572693
 20
-838.3740123907728
 10
1067.479324976604
 20
-839.0451757907867
 10
1061.613523801168
 20
-839.8088057835903
 10
1055.427011013031
 20
-840.5697770913448
 10
1055.334451675415
 20
-838.4777011076612
 10
1055.211966673534
 20
-836.9946185747785
 10
1055.211472034454
 20
-835.5115051269531
 10
1055.200651804607
 20
-802.2630101044979
 10
1055.267366250357
 20
-769.0142677625026
 10
1055.122993469238
 20
-735.7663910388947
 10
1055.104629993439
 20
-731.5394837061567
 10
1056.107201576233
 20
-730.2404069105787
 10
1060.656149864197
 20
-729.7799597581234
 10
1075.485429445904
 20
-728.2789465586347
 10
1090.219243685406
 20
-725.8597595691681
 10
1105.014022191366
 20
-723.9847992261257
 10
1117.040429433187
 20
-722.4606925646467
 10
1129.115063985189
 20
-721.3170870145168
 10
1141.143944422405
 20
-719.8101999759674
 10
1153.308603286743
 20
-718.2863406340284
 10
1165.432949066162
 20
-716.4420169989271
 10
1177.59451643626
 20
-714.8916326363887
 10
1186.822379430136
 20
-713.7152263323469
 10
1196.089318911236
 20
-712.8483713467922
 10
1205.323364893597
 20
-711.7178119023647
 10
1214.865818341574
 20
-710.5494743982954
 10
1224.38452911377
 20
-709.1889386971798
 10
1233.923025449118
 20
-707.9865947564449
 10
1243.146189371746
 20
-706.8240383466091
 10
1252.385800043743
 20
-705.7931795914974
 10
1261.609705924988
 20
-704.6359405517578
 10
1271.313164393108
 20
-703.4185101191206
 10
1281.001783688864
 20
-702.0809442202253
 10
1290.705736796062
 20
-700.8680891990662
 10
1299.930260976156
 20
-699.7151782512665
 10
1309.171973864239
 20
-698.6999933719635
 10
1318.395879745485
 20
-697.5426306724548
 10
1328.099090894064
 20
-696.3251074949903
 10
1337.784495035809
 20
-694.9649736881256
 10
1347.488200823467
 20
-693.7520259221401
 10
1356.713714281719
 20
-692.5988058249159
 10
1365.959384282431
 20
-691.6070853869123
 10
1375.184279441835
 20
-690.4494444529219
 10
1384.886501312258
 20
-689.2318903605146
 10
1394.567948341371
 20
-687.8489104111995
 10
1404.270664850872
 20
-686.6359317302704
 10
1413.497167587282
 20
-685.4825261433925
 10
1422.743950525921
 20
-684.491702238719
 10
1431.973544756573
 20
-683.362348477046
 10
1441.520202636721
 20
-682.194227377574
 10
1451.051897684734
 20
-680.9042704900112
 10
1460.599421183269
 20
-679.7430743376417
 10
1471.120765368145
 20
-678.4634275833769
 10
1481.652744293215
 20
-677.2696161667509
 10
1492.746880531313
 20
-675.9721005757656
 97
        0
 97
        0
 75
     2
 76
     1
 98
        0
  0
SPLINE
  5
57
330
45
100
AcDbEntity
  8
Layer 1
370
     0
100
AcDbSpline
210
0.0
220
0.0
230
1.0
 70
    11
 71
     3
 72
    50
 73
    46
 74
     0
 42
0.0000000001
 43
0.0000000001
 12
1.0
 22
0.0
 32
0.0
 13
1.0
 23
0.0
 33
0.0
 40
0.0
 40
0.0
 40
0.0
 40
0.0
 40
1.0
 40
1.0
 40
1.0
 40
2.0
 40
2.0
 40
2.0
 40
3.0
 40
3.0
 40
3.0
 40
4.0
 40
4.0
 40
4.0
 40
5.0
 40
5.0
 40
5.0
 40
6.0
 40
6.0
 40
6.0
 40
7.0
 40
7.0
 40
7.0
 40
8.0
 40
8.0
 40
8.0
 40
9.0
 40
9.0
 40
9.0
 40
10.0
 40
10.0
 40
10.0
 40
11.0
 40
11.0
 40
11.0
 40
12.0
 40
12.0
 40
12.0
 40
13.0
 40
13.0
 40
13.0
 40
14.0
 40
14.0
 40
14.0
 40
15.0
 40
15.0
 40
15.0
 40
15.0
 10
73.30298462510109
 20
-649.4222552776337
 30
0.0
 10
78.19762766361237
 20
-646.1156857808437
 30
0.0
 10
82.61194137732218
 20
-642.9851614236832
 30
0.0
 10
87.16967723766993
 20
-640.0796360174818
 30
0.0
 10
110.1557329893112
 20
-625.4262006282806
 30
0.0
 10
133.195750772953
 20
-610.8574412663784
 30
0.0
 10
156.1856940786047
 20
-596.2100961208344
 30
0.0
 10
193.6740884383516
 20
-572.3255207538605
 30
0.0
 10
231.140432715416
 20
-548.4063592950506
 30
0.0
 10
268.609605709712
 20
-524.4916341304779
 30
0.0
 10
272.393053650856
 20
-522.0768447915716
 30
0.0
 10
275.1682262023296
 20
-521.403872867425
 30
0.0
 10
279.6666131019592
 20
-524.8182273109751
 30
0.0
 10
308.9359531402588
 20
-547.0342073043184
 30
0.0
 10
338.6115464369459
 20
-568.7164021730423
 30
0.0
 10
368.2203634579982
 20
-590.4832730690641
 30
0.0
 10
393.0174860954285
 20
-608.712840795517
 30
0.0
 10
417.9088065624237
 20
-626.8142660856247
 30
0.0
 10
442.7423160870876
 20
-644.9944471915569
 30
0.0
 10
444.3336627483368
 20
-646.1594613393154
 30
0.0
 10
445.7862940629329
 20
-647.5140613714857
 30
0.0
 10
447.7122949759168
 20
-649.1217311223354
 30
0.0
 10
442.5778176784515
 20
-662.4774963458385
 30
0.0
 10
437.3777697881069
 20
-675.9981464147568
 30
0.0
 10
432.1819881598158
 20
-689.5204504330959
 30
0.0
 10
423.0764865080519
 20
-713.2180831432343
 30
0.0
 10
413.975807587306
 20
-736.9175707499189
 30
0.0
 10
404.863968372345
 20
-760.6127302646637
 30
0.0
 10
404.3313039143886
 20
-761.997967004776
 30
0.0
 10
403.4636451403303
 20
-763.3038760026302
 30
0.0
 10
403.1934794584913
 20
-764.7302914460506
 30
0.0
 10
402.6156173547115
 20
-767.7816890080776
 30
0.0
 10
401.150310913722
 20
-767.8156026999159
 30
0.0
 10
398.5829795201626
 20
-766.878849029541
 30
0.0
 10
367.9229926268263
 20
-755.6916897296906
 30
0.0
 10
337.2328018347425
 20
-744.5872279008236
 30
0.0
 10
306.5401996771498
 20
-733.489721934001
 30
0.0
 10
266.391211271286
 20
-718.9730851650238
 30
0.0
 10
226.2281101942062
 20
-704.495432138443
 30
0.0
 10
186.0802038113279
 20
-689.9758893648786
 30
0.0
 10
149.5020226438837
 20
-676.7472927570343
 30
0.0
 10
112.9364006717997
 20
-663.4839632113781
 30
0.0
 10
76.36156218250562
 20
-650.2461384932203
 30
0.0
 10
75.60260421037674
 20
-649.971443772316
 30
0.0
 10
74.79876933495234
 20
-649.8207179705305
 30
0.0
 10
73.30298462510109
 20
-649.4222552776337
 30
0.0
  0
HATCH
  5
58
330
45
100
AcDbEntity
  8
Layer 1
 62
     7
420
 16777215
100
AcDbHatch
 10
0.0
 20
0.0
 30
0.0
210
0.0
220
0.0
230
1.0
  2
SOLID
 70
     1
 71
     0
 91
        1
 92
        1
 93
        1
 72
     4
 94
        3
 73
     0
 74
     1
 95
       50
 96
       46
 40
0.0
 40
0.0
 40
0.0
 40
0.0
 40
1.0
 40
1.0
 40
1.0
 40
2.0
 40
2.0
 40
2.0
 40
3.0
 40
3.0
 40
3.0
 40
4.0
 40
4.0
 40
4.0
 40
5.0
 40
5.0
 40
5.0
 40
6.0
 40
6.0
 40
6.0
 40
7.0
 40
7.0
 40
7.0
 40
8.0
 40
8.0
 40
8.0
 40
9.0
 40
9.0
 40
9.0
 40
10.0
 40
10.0
 40
10.0
 40
11.0
 40
11.0
 40
11.0
 40
12.0
 40
12.0
 40
12.0
 40
13.0
 40
13.0
 40
13.0
 40
14.0
 40
14.0
 40
14.0
 40
15.0
 40
15.0
 40
15.0
 40
15.0
 10
73.30298462510109
 20
-649.4222552776337
 10
78.19762766361237
 20
-646.1156857808437
 10
82.61194137732218
 20
-642.9851614236832
 10
87.16967723766993
 20
-640.0796360174818
 10
110.1557329893112
 20
-625.4262006282806
 10
133.195750772953
 20
-610.8574412663784
 10
156.1856940786047
 20
-596.2100961208344
 10
193.6740884383516
 20
-572.3255207538605
 10
231.140432715416
 20
-548.4063592950506
 10
268.609605709712
 20
-524.4916341304779
 10
272.393053650856
 20
-522.0768447915716
 10
275.1682262023296
 20
-521.403872867425
 10
279.6666131019592
 20
-524.8182273109751
 10
308.9359531402588
 20
-547.0342073043184
 10
338.6115464369459
 20
-568.7164021730423
 10
368.2203634579982
 20
-590.4832730690641
 10
393.0174860954285
 20
-608.712840795517
 10
417.9088065624237
 20
-626.8142660856247
 10
442.7423160870876
 20
-644.9944471915569
 10
444.3336627483368
 20
-646.1594613393154
 10
445.7862940629329
 20
-647.5140613714857
 10
447.7122949759168
 20
-649.1217311223354
 10
442.5778176784515
 20
-662.4774963458385
 10
437.3777697881069
 20
-675.9981464147568
 10
432.1819881598158
 20
-689.5204504330959
 10
423.0764865080519
 20
-713.2180831432343
 10
413.975807587306
 20
-736.9175707499189
 10
404.863968372345
 20
-760.6127302646637
 10
404.3313039143886
 20
-761.997967004776
 10
403.4636451403303
 20
-763.3038760026302
 10
403.1934794584913
 20
-764.7302914460506
 10
402.6156173547115
 20
-767.7816890080776
 10
401.150310913722
 20
-767.8156026999159
 10
398.5829795201626
 20
-766.878849029541
 10
367.9229926268263
 20
-755.6916897296906
 10
337.2328018347425
 20
-744.5872279008236
 10
306.5401996771498
 20
-733.489721934001
 10
266.391211271286
 20
-718.9730851650238
 10
226.2281101942062
 20
-704.495432138443
 10
186.0802038113279
 20
-689.9758893648786
 10
149.5020226438837
 20
-676.7472927570343
 10
112.9364006717997
 20
-663.4839632113781
 10
76.36156218250562
 20
-650.2461384932203
 10
75.60260421037674
 20
-649.971443772316
 10
74.79876933495234
 20
-649.8207179705305
 10
73.30298462510109
 20
-649.4222552776337
 97
        0
 97
        0
 75
     2
 76
     1
 98
        0
  0
SPLINE
  5
59
330
45
100
AcDbEntity
  8
Layer 1
370
     0
100
AcDbSpline
210
0.0
220
0.0
230
1.0
 70
    11
 71
     3
 72
    38
 73
    34
 74
     0
 42
0.0000000001
 43
0.0000000001
 12
1.0
 22
0.0
 32
0.0
 13
1.0
 23
0.0
 33
0.0
 40
0.0
 40
0.0
 40
0.0
 40
0.0
 40
1.0
 40
1.0
 40
1.0
 40
2.0
 40
2.0
 40
2.0
 40
3.0
 40
3.0
 40
3.0
 40
4.0
 40
4.0
 40
4.0
 40
5.0
 40
5.0
 40
5.0
 40
6.0
 40
6.0
 40
6.0
 40
7.0
 40
7.0
 40
7.0
 40
8.0
 40
8.0
 40
8.0
 40
9.0
 40
9.0
 40
9.0
 40
10.0
 40
10.0
 40
10.0
 40
11.0
 40
11.0
 40
11.0
 40
11.0
 10
1939.108566919964
 20
-649.2253580093384
 30
0.0
 10
1828.796880086265
 20
-689.0479155381527
 30
0.0
 10
1719.534322738649
 20
-728.4917031923933
 30
0.0
 10
1609.9899447759
 20
-768.0372628370924
 30
0.0
 10
1596.070182800295
 20
-731.5320641199751
 30
0.0
 10
1582.395390828451
 20
-695.6661245822906
 30
0.0
 10
1568.714910507204
 20
-659.8022718032207
 30
0.0
 10
1568.068169911703
 20
-658.1066799561186
 30
0.0
 10
1567.707207043966
 20
-656.1680657466259
 30
0.0
 10
1566.635324160259
 20
-654.7928609053297
 30
0.0
 10
1562.928004264833
 20
-650.036658843359
 30
0.0
 10
1565.844396273296
 20
-647.5766641298933
 30
0.0
 10
1569.466885566713
 20
-644.9166806538906
 30
0.0
 10
1592.41492366791
 20
-628.0662748813629
 30
0.0
 10
1615.275286992392
 20
-611.0966610908508
 30
0.0
 10
1638.216523806255
 20
-594.2369190057125
 30
0.0
 10
1660.352488199871
 20
-577.9689352909727
 30
0.0
 10
1682.57217025757
 20
-561.8148267666502
 30
0.0
 10
1704.712710062664
 20
-545.5528405507403
 30
0.0
 10
1714.592012723288
 20
-538.2966089248657
 30
0.0
 10
1724.424077351889
 20
-530.9725267291069
 30
0.0
 10
1734.149423599245
 20
-523.5123260418577
 30
0.0
 10
1736.577483177187
 20
-521.6498476068182
 30
0.0
 10
1738.167376836142
 20
-521.38441191117
 30
0.0
 10
1740.986448605856
 20
-523.1990340153379
 30
0.0
 10
1774.052329063417
 20
-544.4838172992067
 30
0.0
 10
1807.250896453859
 20
-565.5626143217087
 30
0.0
 10
1840.412242253624
 20
-586.6991449991865
 30
0.0
 10
1867.444020589195
 20
-603.9287225405378
 30
0.0
 10
1894.463680267336
 20
-621.1774828036632
 30
0.0
 10
1921.510792414349
 20
-638.3827612002697
 30
0.0
 10
1927.059406280519
 20
-641.9123356342316
 30
0.0
 10
1932.706576983135
 20
-645.286979834239
 30
0.0
 10
1939.108566919964
 20
-649.2253580093384
 30
0.0
  0
HATCH
  5
5A
330
45
100
AcDbEntity
  8
Layer 1
 62
     7
420
 16777215
100
AcDbHatch
 10
0.0
 20
0.0
 30
0.0
210
0.0
220
0.0
230
1.0
  2
SOLID
 70
     1
 71
     0
 91
        1
 92
        1
 93
        1
 72
     4
 94
        3
 73
     0
 74
     1
 95
       38
 96
       34
 40
0.0
 40
0.0
 40
0.0
 40
0.0
 40
1.0
 40
1.0
 40
1.0
 40
2.0
 40
2.0
 40
2.0
 40
3.0
 40
3.0
 40
3.0
 40
4.0
 40
4.0
 40
4.0
 40
5.0
 40
5.0
 40
5.0
 40
6.0
 40
6.0
 40
6.0
 40
7.0
 40
7.0
 40
7.0
 40
8.0
 40
8.0
 40
8.0
 40
9.0
 40
9.0
 40
9.0
 40
10.0
 40
10.0
 40
10.0
 40
11.0
 40
11.0
 40
11.0
 40
11.0
 10
1939.108566919964
 20
-649.2253580093384
 10
1828.796880086265
 20
-689.0479155381527
 10
1719.534322738649
 20
-728.4917031923933
 10
1609.9899447759
 20
-768.0372628370924
 10
1596.070182800295
 20
-731.5320641199751
 10
1582.395390828451
 20
-695.6661245822906
 10
1568.714910507204
 20
-659.8022718032207
 10
1568.068169911703
 20
-658.1066799561186
 10
1567.707207043966
 20
-656.1680657466259
 10
1566.635324160259
 20
-654.7928609053297
 10
1562.928004264833
 20
-650.036658843359
 10
1565.844396273296
 20
-647.5766641298933
 10
1569.466885566713
 20
-644.9166806538906
 10
1592.41492366791
 20
-628.0662748813629
 10
1615.275286992392
 20
-611.0966610908508
 10
1638.216523806255
 20
-594.2369190057125
 10
1660.352488199871
 20
-577.9689352909727
 10
1682.57217025757
 20
-561.8148267666502
 10
1704.712710062664
 20
-545.5528405507403
 10
1714.592012723288
 20
-538.2966089248657
 10
1724.424077351889
 20
-530.9725267291069
 10
1734.149423599245
 20
-523.5123260418577
 10
1736.577483177187
 20
-521.6498476068182
 10
1738.167376836142
 20
-521.38441191117
 10
1740.986448605856
 20
-523.1990340153379
 10
1774.052329063417
 20
-544.4838172992067
 10
1807.250896453859
 20
-565.5626143217087
 10
1840.412242253624
 20
-586.6991449991865
 10
1867.444020589195
 20
-603.9287225405378
 10
1894.463680267336
 20
-621.1774828036632
 10
1921.510792414349
 20
-638.3827612002697
 10
1927.059406280519
 20
-641.9123356342316
 10
1932.706576983135
 20
-645.286979834239
 10
1939.108566919964
 20
-649.2253580093384
 97
        0
 97
        0
 75
     2
 76
     1
 98
        0
  0
ENDBLK
  5
48
330
45
100
AcDbEntity
  8
0
100
AcDbBlockEnd
  0
ENDSEC
  0
SECTION
  2
ENTITIES
  0
INSERT
  5
42
330
1F
100
AcDbEntity
  8
Layer 1
100
AcDbBlockReference
  2
block 2
 10
0.0
 20
0.0
 30
0.0
  0
ENDSEC
  0
SECTION
  2
OBJECTS
  0
DICTIONARY
  5
C
330
0
100
AcDbDictionary
281
     1
  3
ACAD_GROUP
350
D
  3
ACAD_LAYOUT
350
1A
  3
ACAD_MATERIAL
350
3B
  3
ACAD_MLEADERSTYLE
350
5C
  3
ACAD_MLINESTYLE
350
17
  3
ACAD_PLOTSETTINGS
350
19
  3
ACAD_PLOTSTYLENAME
350
E
  3
ACAD_TABLESTYLE
350
5B
  3
ACAD_VISUALSTYLE
350
2A
  0
SUN
  5
3F
330
29
100
AcDbSun
 90
        1
290
     0
 63
     7
421
 16777215
 40
1.0
291
     1
 91
  2455826
 92
 54000000
292
     0
 70
     2
 71
   256
280
     1
  0
DICTIONARY
  5
D
102
{ACAD_REACTORS
330
C
102
}
330
C
100
AcDbDictionary
281
     1
  0
DICTIONARY
  5
1A
102
{ACAD_REACTORS
330
C
102
}
330
C
100
AcDbDictionary
281
     1
  3
Layout1
350
1E
  3
Layout2
350
26
  3
Model
350
22
  0
DICTIONARY
  5
3B
102
{ACAD_REACTORS
330
C
102
}
330
C
100
AcDbDictionary
281
     1
  3
ByBlock
350
3D
  3
ByLayer
350
3C
  3
Global
350
3E
  0
DICTIONARY
  5
5C
102
{ACAD_REACTORS
330
C
102
}
330
C
100
AcDbDictionary
281
     1
  0
DICTIONARY
  5
17
102
{ACAD_REACTORS
330
C
102
}
330
C
100
AcDbDictionary
281
     1
  3
Standard
350
18
  0
DICTIONARY
  5
19
102
{ACAD_REACTORS
330
C
102
}
330
C
100
AcDbDictionary
281
     1
  0
ACDBDICTIONARYWDFLT
  5
E
102
{ACAD_REACTORS
330
C
102
}
330
C
100
AcDbDictionary
281
     1
  3
Normal
350
F
100
AcDbDictionaryWithDefault
340
F
  0
DICTIONARY
  5
5B
102
{ACAD_REACTORS
330
C
102
}
330
C
100
AcDbDictionary
281
     1
  0
DICTIONARY
  5
2A
102
{ACAD_REACTORS
330
C
102
}
330
C
100
AcDbDictionary
281
     1
  3
2dWireframe
350
2F
  3
3D Hidden
350
31
  3
3dWireframe
350
30
  3
Basic
350
32
  3
Brighten
350
36
  3
ColorChange
350
3A
  3
Conceptual
350
34
  3
Dim
350
35
  3
Facepattern
350
39
  3
Flat
350
2B
  3
FlatWithEdges
350
2C
  3
Gouraud
350
2D
  3
GouraudWithEdges
350
2E
  3
Linepattern
350
38
  3
Realistic
350
33
  3
Thicken
350
37
  0
LAYOUT
  5
1E
102
{ACAD_REACTORS
330
1A
102
}
330
1A
100
AcDbPlotSettings
  1

  2
none_device
  4

  6

 40
0.0
 41
0.0
 42
0.0
 43
0.0
 44
0.0
 45
0.0
 46
0.0
 47
0.0
 48
0.0
 49
0.0
140
0.0
141
0.0
142
1.0
143
1.0
 70
   688
 72
     0
 73
     0
 74
     5
  7

 75
    16
 76
     0
 77
     2
 78
   300
147
1.0
148
0.0
149
0.0
100
AcDbLayout
  1
Layout1
 70
     1
 71
     1
 10
0.0
 20
0.0
 11
12.0
 21
9.0
 12
0.0
 22
0.0
 32
0.0
 14
1.000000000000000E+20
 24
1.000000000000000E+20
 34
1.000000000000000E+20
 15
-1.000000000000000E+20
 25
-1.000000000000000E+20
 35
-1.000000000000000E+20
146
0.0
 13
0.0
 23
0.0
 33
0.0
 16
1.0
 26
0.0
 36
0.0
 17
0.0
 27
1.0
 37
0.0
 76
     0
330
1B
  0
LAYOUT
  5
26
102
{ACAD_REACTORS
330
1A
102
}
330
1A
100
AcDbPlotSettings
  1

  2
none_device
  4

  6

 40
0.0
 41
0.0
 42
0.0
 43
0.0
 44
0.0
 45
0.0
 46
0.0
 47
0.0
 48
0.0
 49
0.0
140
0.0
141
0.0
142
1.0
143
1.0
 70
   688
 72
     0
 73
     0
 74
     5
  7

 75
    16
 76
     0
 77
     2
 78
   300
147
1.0
148
0.0
149
0.0
100
AcDbLayout
  1
Layout2
 70
     1
 71
     2
 10
0.0
 20
0.0
 11
0.0
 21
0.0
 12
0.0
 22
0.0
 32
0.0
 14
0.0
 24
0.0
 34
0.0
 15
0.0
 25
0.0
 35
0.0
146
0.0
 13
0.0
 23
0.0
 33
0.0
 16
1.0
 26
0.0
 36
0.0
 17
0.0
 27
1.0
 37
0.0
 76
     0
330
23
  0
LAYOUT
  5
22
102
{ACAD_REACTORS
330
1A
102
}
330
1A
100
AcDbPlotSettings
  1

  2
none_device
  4

  6

 40
0.0
 41
0.0
 42
0.0
 43
0.0
 44
0.0
 45
0.0
 46
0.0
 47
0.0
 48
0.0
 49
0.0
140
0.0
141
0.0
142
1.0
143
1.0
 70
  1712
 72
     0
 73
     0
 74
     0
  7

 75
     0
 76
     0
 77
     2
 78
   300
147
1.0
148
0.0
149
0.0
100
AcDbLayout
  1
Model
 70
     1
 71
     0
 10
0.0
 20
0.0
 11
12.0
 21
9.0
 12
0.0
 22
0.0
 32
0.0
 14
1.000000000000000E+20
 24
1.000000000000000E+20
 34
1.000000000000000E+20
 15
-1.000000000000000E+20
 25
-1.000000000000000E+20
 35
-1.000000000000000E+20
146
0.0
 13
0.0
 23
0.0
 33
0.0
 16
1.0
 26
0.0
 36
0.0
 17
0.0
 27
1.0
 37
0.0
 76
     0
330
1F
331
29
  0
MATERIAL
  5
3D
102
{ACAD_REACTORS
330
3B
102
}
330
3B
100
AcDbMaterial
  1
ByBlock
 72
     1
 94
      127
  0
MATERIAL
  5
3C
102
{ACAD_REACTORS
330
3B
102
}
330
3B
100
AcDbMaterial
  1
ByLayer
 72
     1
 94
      127
  0
MATERIAL
  5
3E
102
{ACAD_REACTORS
330
3B
102
}
330
3B
100
AcDbMaterial
  1
Global
 72
     1
 94
      127
  0
MLINESTYLE
  5
18
102
{ACAD_REACTORS
330
17
102
}
330
17
100
AcDbMlineStyle
  2
Standard
 70
     0
  3

 62
   256
 51
90.0
 52
90.0
 71
     2
 49
0.5
 62
   256
  6
BYLAYER
 49
-0.5
 62
   256
  6
BYLAYER
  0
ACDBPLACEHOLDER
  5
F
102
{ACAD_REACTORS
330
E
102
}
330
E
  0
VISUALSTYLE
  5
2F
102
{ACAD_REACTORS
330
2A
102
}
330
2A
100
AcDbVisualStyle
  2
2dWireframe
 70
     4
177
     2
291
     0
 71
     0
176
     1
 72
     2
176
     1
 73
     0
176
     1
 90
        0
176
     1
 40
-0.6
176
     1
 41
-30.0
176
     1
 62
     5
 63
     7
421
 16777215
176
     1
 74
     1
176
     1
 91
        4
176
     1
 64
     7
176
     1
 65
   257
176
     1
 75
     1
176
     1
175
     1
176
     1
 42
1.0
176
     1
 92
        0
176
     1
 66
   257
176
     1
 43
1.0
176
     1
 76
     1
176
     1
 77
     6
176
     1
 78
     2
176
     1
 67
     7
176
     1
 79
     5
176
     1
170
     0
176
     1
171
     0
176
     1
290
     0
176
     1
 93
        1
176
     1
 44
0.0
176
     1
173
     0
176
     1
  0
VISUALSTYLE
  5
31
102
{ACAD_REACTORS
330
2A
102
}
330
2A
100
AcDbVisualStyle
  2
3D Hidden
 70
     6
177
     2
291
     0
 71
     1
176
     1
 72
     2
176
     1
 73
     2
176
     1
 90
        0
176
     1
 40
-0.6
176
     1
 41
-30.0
176
     1
 62
     5
 63
     7
421
 16777215
176
     1
 74
     2
176
     1
 91
        2
176
     1
 64
     7
176
     1
 65
   257
176
     1
 75
     2
176
     1
175
     1
176
     1
 42
40.0
176
     1
 92
        0
176
     1
 66
   257
176
     1
 43
1.0
176
     1
 76
     1
176
     1
 77
     6
176
     1
 78
     2
176
     1
 67
     7
176
     1
 79
     3
176
     1
170
     0
176
     1
171
     0
176
     1
290
     0
176
     1
 93
        1
176
     1
 44
0.0
176
     1
173
     0
176
     1
  0
VISUALSTYLE
  5
30
102
{ACAD_REACTORS
330
2A
102
}
330
2A
100
AcDbVisualStyle
  2
3dWireframe
 70
     5
177
     2
291
     0
 71
     0
176
     1
 72
     2
176
     1
 73
     0
176
     1
 90
        0
176
     1
 40
-0.6
176
     1
 41
-30.0
176
     1
 62
     5
 63
     7
421
 16777215
176
     1
 74
     1
176
     1
 91
        4
176
     1
 64
     7
176
     1
 65
   257
176
     1
 75
     1
176
     1
175
     1
176
     1
 42
1.0
176
     1
 92
        0
176
     1
 66
   257
176
     1
 43
1.0
176
     1
 76
     1
176
     1
 77
     6
176
     1
 78
     2
176
     1
 67
     7
176
     1
 79
     5
176
     1
170
     0
176
     1
171
     0
176
     1
290
     0
176
     1
 93
        1
176
     1
 44
0.0
176
     1
173
     0
176
     1
  0
VISUALSTYLE
  5
32
102
{ACAD_REACTORS
330
2A
102
}
330
2A
100
AcDbVisualStyle
  2
Basic
 70
     7
177
     2
291
     1
 71
     1
176
     1
 72
     0
176
     1
 73
     1
176
     1
 90
        0
176
     1
 40
-0.6
176
     1
 41
-30.0
176
     1
 62
     5
 63
     7
421
 16777215
176
     1
 74
     0
176
     1
 91
        4
176
     1
 64
     7
176
     1
 65
   257
176
     1
 75
     1
176
     1
175
     1
176
     1
 42
1.0
176
     1
 92
        8
176
     1
 66
     7
176
     1
 43
1.0
176
     1
 76
     1
176
     1
 77
     6
176
     1
 78
     2
176
     1
 67
     7
176
     1
 79
     5
176
     1
170
     0
176
     1
171
     0
176
     1
290
     0
176
     1
 93
        1
176
     1
 44
0.0
176
     1
173
     0
176
     1
  0
VISUALSTYLE
  5
36
102
{ACAD_REACTORS
330
2A
102
}
330
2A
100
AcDbVisualStyle
  2
Brighten
 70
    12
177
     2
291
     1
 71
     2
176
     1
 72
     2
176
     1
 73
     0
176
     1
 90
        0
176
     1
 40
-0.6
176
     1
 41
-30.0
176
     1
 62
     5
 63
     7
421
 16777215
176
     1
 74
     1
176
     1
 91
        4
176
     1
 64
     7
176
     1
 65
   257
176
     1
 75
     1
176
     1
175
     1
176
     1
 42
1.0
176
     1
 92
        8
176
     1
 66
     7
176
     1
 43
1.0
176
     1
 76
     1
176
     1
 77
     6
176
     1
 78
     2
176
     1
 67
     7
176
     1
 79
     5
176
     1
170
     0
176
     1
171
     0
176
     1
290
     0
176
     1
 93
        1
176
     1
 44
50.0
176
     1
173
     0
176
     1
  0
VISUALSTYLE
  5
3A
102
{ACAD_REACTORS
330
2A
102
}
330
2A
100
AcDbVisualStyle
  2
ColorChange
 70
    16
177
     2
291
     1
 71
     2
176
     1
 72
     2
176
     1
 73
     3
176
     1
 90
        0
176
     1
 40
-0.6
176
     1
 41
-30.0
176
     1
 62
     5
 63
     8
421
  8421504
176
     1
 74
     1
176
     1
 91
        4
176
     1
 64
     7
176
     1
 65
   257
176
     1
 75
     1
176
     1
175
     1
176
     1
 42
1.0
176
     1
 92
        8
176
     1
 66
     8
424
  8421504
176
     1
 43
1.0
176
     1
 76
     1
176
     1
 77
     6
176
     1
 78
     2
176
     1
 67
     7
176
     1
 79
     5
176
     1
170
     0
176
     1
171
     0
176
     1
290
     0
176
     1
 93
        1
176
     1
 44
0.0
176
     1
173
     0
176
     1
  0
VISUALSTYLE
  5
34
102
{ACAD_REACTORS
330
2A
102
}
330
2A
100
AcDbVisualStyle
  2
Conceptual
 70
     9
177
     2
291
     0
 71
     3
176
     1
 72
     2
176
     1
 73
     0
176
     1
 90
        0
176
     1
 40
-0.6
176
     1
 41
-30.0
176
     1
 62
     5
 63
     7
421
 16777215
176
     1
 74
     2
176
     1
 91
        2
176
     1
 64
     7
176
     1
 65
   257
176
     1
 75
     1
176
     1
175
     1
176
     1
 42
40.0
176
     1
 92
        8
176
     1
 66
     7
176
     1
 43
1.0
176
     1
 76
     1
176
     1
 77
     6
176
     1
 78
     2
176
     1
 67
     7
176
     1
 79
     3
176
     1
170
     0
176
     1
171
     0
176
     1
290
     0
176
     1
 93
        1
176
     1
 44
0.0
176
     1
173
     0
176
     1
  0
VISUALSTYLE
  5
35
102
{ACAD_REACTORS
330
2A
102
}
330
2A
100
AcDbVisualStyle
  2
Dim
 70
    11
177
     2
291
     1
 71
     2
176
     1
 72
     2
176
     1
 73
     0
176
     1
 90
        0
176
     1
 40
-0.6
176
     1
 41
-30.0
176
     1
 62
     5
 63
     7
421
 16777215
176
     1
 74
     1
176
     1
 91
        4
176
     1
 64
     7
176
     1
 65
   257
176
     1
 75
     1
176
     1
175
     1
176
     1
 42
1.0
176
     1
 92
        8
176
     1
 66
     7
176
     1
 43
1.0
176
     1
 76
     1
176
     1
 77
     6
176
     1
 78
     2
176
     1
 67
     7
176
     1
 79
     5
176
     1
170
     0
176
     1
171
     0
176
     1
290
     0
176
     1
 93
        1
176
     1
 44
-50.0
176
     1
173
     0
176
     1
  0
VISUALSTYLE
  5
39
102
{ACAD_REACTORS
330
2A
102
}
330
2A
100
AcDbVisualStyle
  2
Facepattern
 70
    15
177
     2
291
     1
 71
     2
176
     1
 72
     2
176
     1
 73
     0
176
     1
 90
        0
176
     1
 40
-0.6
176
     1
 41
-30.0
176
     1
 62
     5
 63
     7
421
 16777215
176
     1
 74
     1
176
     1
 91
        4
176
     1
 64
     7
176
     1
 65
   257
176
     1
 75
     1
176
     1
175
     1
176
     1
 42
1.0
176
     1
 92
        8
176
     1
 66
     7
176
     1
 43
1.0
176
     1
 76
     1
176
     1
 77
     6
176
     1
 78
     2
176
     1
 67
     7
176
     1
 79
     5
176
     1
170
     0
176
     1
171
     0
176
     1
290
     0
176
     1
 93
        1
176
     1
 44
0.0
176
     1
173
     0
176
     1
  0
VISUALSTYLE
  5
2B
102
{ACAD_REACTORS
330
2A
102
}
330
2A
100
AcDbVisualStyle
  2
Flat
 70
     0
177
     2
291
     1
 71
     2
176
     1
 72
     1
176
     1
 73
     1
176
     1
 90
        2
176
     1
 40
-0.6
176
     1
 41
30.0
176
     1
 62
     5
 63
     7
421
 16777215
176
     1
 74
     0
176
     1
 91
        4
176
     1
 64
     7
176
     1
 65
   257
176
     1
 75
     1
176
     1
175
     1
176
     1
 42
1.0
176
     1
 92
        8
176
     1
 66
     7
176
     1
 43
1.0
176
     1
 76
     1
176
     1
 77
     6
176
     1
 78
     2
176
     1
 67
     7
176
     1
 79
     5
176
     1
170
     0
176
     1
171
     0
176
     1
290
     0
176
     1
 93
       13
176
     1
 44
0.0
176
     1
173
     0
176
     1
  0
VISUALSTYLE
  5
2C
102
{ACAD_REACTORS
330
2A
102
}
330
2A
100
AcDbVisualStyle
  2
FlatWithEdges
 70
     1
177
     2
291
     1
 71
     2
176
     1
 72
     1
176
     1
 73
     1
176
     1
 90
        2
176
     1
 40
-0.6
176
     1
 41
30.0
176
     1
 62
     5
 63
     7
421
 16777215
176
     1
 74
     1
176
     1
 91
        4
176
     1
 64
     7
176
     1
 65
   257
176
     1
 75
     1
176
     1
175
     1
176
     1
 42
1.0
176
     1
 92
        0
176
     1
 66
   257
176
     1
 43
1.0
176
     1
 76
     1
176
     1
 77
     6
176
     1
 78
     2
176
     1
 67
     7
176
     1
 79
     5
176
     1
170
     0
176
     1
171
     0
176
     1
290
     0
176
     1
 93
       13
176
     1
 44
0.0
176
     1
173
     0
176
     1
  0
VISUALSTYLE
  5
2D
102
{ACAD_REACTORS
330
2A
102
}
330
2A
100
AcDbVisualStyle
  2
Gouraud
 70
     2
177
     2
291
     1
 71
     2
176
     1
 72
     2
176
     1
 73
     1
176
     1
 90
        2
176
     1
 40
-0.6
176
     1
 41
30.0
176
     1
 62
     5
 63
     7
421
 16777215
176
     1
 74
     0
176
     1
 91
        4
176
     1
 64
     7
176
     1
 65
   257
176
     1
 75
     1
176
     1
175
     1
176
     1
 42
1.0
176
     1
 92
        0
176
     1
 66
     7
176
     1
 43
1.0
176
     1
 76
     1
176
     1
 77
     6
176
     1
 78
     2
176
     1
 67
     7
176
     1
 79
     5
176
     1
170
     0
176
     1
171
     0
176
     1
290
     0
176
     1
 93
       13
176
     1
 44
0.0
176
     1
173
     0
176
     1
  0
VISUALSTYLE
  5
2E
102
{ACAD_REACTORS
330
2A
102
}
330
2A
100
AcDbVisualStyle
  2
GouraudWithEdges
 70
     3
177
     2
291
     1
 71
     2
176
     1
 72
     2
176
     1
 73
     1
176
     1
 90
        2
176
     1
 40
-0.6
176
     1
 41
30.0
176
     1
 62
     5
 63
     7
421
 16777215
176
     1
 74
     1
176
     1
 91
        4
176
     1
 64
     7
176
     1
 65
   257
176
     1
 75
     1
176
     1
175
     1
176
     1
 42
1.0
176
     1
 92
        0
176
     1
 66
   257
176
     1
 43
1.0
176
     1
 76
     1
176
     1
 77
     6
176
     1
 78
     2
176
     1
 67
     7
176
     1
 79
     5
176
     1
170
     0
176
     1
171
     0
176
     1
290
     0
176
     1
 93
       13
176
     1
 44
0.0
176
     1
173
     0
176
     1
  0
VISUALSTYLE
  5
38
102
{ACAD_REACTORS
330
2A
102
}
330
2A
100
AcDbVisualStyle
  2
Linepattern
 70
    14
177
     2
291
     1
 71
     2
176
     1
 72
     2
176
     1
 73
     0
176
     1
 90
        0
176
     1
 40
-0.6
176
     1
 41
-30.0
176
     1
 62
     5
 63
     7
421
 16777215
176
     1
 74
     1
176
     1
 91
        4
176
     1
 64
     7
176
     1
 65
   257
176
     1
 75
     7
176
     1
175
     7
176
     1
 42
1.0
176
     1
 92
        8
176
     1
 66
     7
176
     1
 43
1.0
176
     1
 76
     1
176
     1
 77
     6
176
     1
 78
     2
176
     1
 67
     7
176
     1
 79
     5
176
     1
170
     0
176
     1
171
     0
176
     1
290
     0
176
     1
 93
        1
176
     1
 44
0.0
176
     1
173
     0
176
     1
  0
VISUALSTYLE
  5
33
102
{ACAD_REACTORS
330
2A
102
}
330
2A
100
AcDbVisualStyle
  2
Realistic
 70
     8
177
     2
291
     0
 71
     2
176
     1
 72
     2
176
     1
 73
     0
176
     1
 90
        0
176
     1
 40
-0.6
176
     1
 41
-30.0
176
     1
 62
     5
 63
     7
421
 16777215
176
     1
 74
     1
176
     1
 91
        0
176
     1
 64
     7
176
     1
 65
   257
176
     1
 75
     1
176
     1
175
     1
176
     1
 42
1.0
176
     1
 92
        8
176
     1
 66
     8
424
  7895160
176
     1
 43
1.0
176
     1
 76
     1
176
     1
 77
     6
176
     1
 78
     2
176
     1
 67
     7
176
     1
 79
     5
176
     1
170
     0
176
     1
171
     0
176
     1
290
     0
176
     1
 93
       13
176
     1
 44
0.0
176
     1
173
     0
176
     1
  0
VISUALSTYLE
  5
37
102
{ACAD_REACTORS
330
2A
102
}
330
2A
100
AcDbVisualStyle
  2
Thicken
 70
    13
177
     2
291
     1
 71
     2
176
     1
 72
     2
176
     1
 73
     0
176
     1
 90
        0
176
     1
 40
-0.6
176
     1
 41
-30.0
176
     1
 62
     5
 63
     7
421
 16777215
176
     1
 74
     1
176
     1
 91
        4
176
     1
 64
     7
176
     1
 65
   257
176
     1
 75
     1
176
     1
175
     1
176
     1
 42
1.0
176
     1
 92
       12
176
     1
 66
     7
176
     1
 43
1.0
176
     1
 76
     1
176
     1
 77
     6
176
     1
 78
     2
176
     1
 67
     7
176
     1
 79
     5
176
     1
170
     0
176
     1
171
     0
176
     1
290
     0
176
     1
 93
        1
176
     1
 44
0.0
176
     1
173
     0
176
     1
  0
ENDSEC
  0
EOF
