<?xml version="1.0" encoding="utf-8"?>
<!-- Generator: Adobe Illustrator 22.0.1, SVG Export Plug-In . SVG Version: 6.00 Build 0)  -->
<svg version="1.1" id="Layer_1" xmlns="http://www.w3.org/2000/svg" xmlns:xlink="http://www.w3.org/1999/xlink" x="0px" y="0px"
	 viewBox="0 0 2000 2000" style="enable-background:new 0 0 2000 2000;" xml:space="preserve">
<g>
	<g>
		<path d="M666.4,606.5c105.6,0,210.4,0,315.1,0c0.9,0,1.9,0.2,2.8,0.3c0.1,0.6,0.4,1.1,0.3,1.5c-25.5,191.9-51.1,383.7-76.7,575.5
			c-2.4,1.3-4.6,2-7,2.3c-1.7-0.8-1.9-2.6-2.5-4c-4.3-10.7-8.6-21.3-12.9-32c-20.8-51.6-41.6-103.1-62.5-154.7
			C800.8,940,778.4,884.6,756,829.2C731.4,768.1,706.7,707,682.1,646c-4.6-11.4-9.2-22.8-13.9-34.2
			C667.6,610.3,667.2,608.8,666.4,606.5z"/>
		<path d="M1104.7,1176.2c-2.7,0.4-4.8-0.4-7.1-1.1c-0.4-2.5-0.9-5-1.2-7.6c-26.3-186.3-52.6-372.6-79-559c1.1-0.2,1.8-0.4,2.6-0.4
			c14-0.6,309.3-0.2,313.3,0.4c0,0.3,0.2,0.7,0.1,0.9C1257.2,798.2,1181,987.1,1104.7,1176.2z"/>
		<path d="M868.6,1170.7c-2.2,1.3-4.1,2.3-6.2,3.5c-155.6-189.2-311-378.2-466.4-567.1c-0.5-0.6-0.9-1.3-1.2-1.8
			c0.5-1.2,1.4-0.9,2.1-0.9c1.3,0,2.6,0,3.8,0c49.3,0,98.5,0,147.8,0c15.7,0,31.3,0.1,47,0.3c11.3,0.1,22.7,0.4,34,0.5
			c2.3,0,4.4,0.6,6.4,1.7c5.5,3,9.7,7.1,12,13.1c5.1,13.1,10.5,26.1,15.7,39.2c26.1,65.1,52.3,130.2,78.4,195.3
			c27.5,68.5,54.9,137.1,82.3,205.7c14.2,35.5,28.4,70.9,42.5,106.4C867.5,1167.7,867.9,1168.9,868.6,1170.7z"/>
		<path d="M1129.6,1182.9c-0.1-0.8-0.3-1.2-0.2-1.6c0.7-4.9,1.5-9.8,2.1-14.7c0.5-3.7,1.6-7.1,3-10.6
			c41.6-100.4,83.1-200.9,124.8-301.3c28.8-69.2,57.8-138.4,86.7-207.5c2.2-5.3,4.4-10.6,6.7-15.9c4.8-11.1,13.3-18.6,24.2-23.4
			c2.5-1.1,5.1-1.7,7.9-1.7c4,0,8-0.2,12-0.3c13.9-0.3,27.8-0.7,41.7-0.7c26.1-0.2,52.1-0.2,78.2-0.2c27,0,54.1,0.1,81.1,0.2
			c1.4,0,2.8,0.1,4.5,0.2c-0.4,1.9-1.7,3-2.7,4.2c-9.7,11.9-19.5,23.8-29.2,35.6c-45.2,55.2-90.4,110.4-135.6,165.6
			c-48.6,59.3-97.1,118.5-145.7,177.8c-44.3,54.1-88.6,108.2-132.9,162.2c-7.8,9.5-15.6,19.1-23.4,28.6
			C1132.1,1180.5,1131.2,1181.9,1129.6,1182.9z"/>
		<path d="M1002.8,1446.9c-1.9-0.9-1.9-2.7-2.4-4.1c-4.4-11.3-8.8-22.7-13.2-34c-12.1-31.3-24.3-62.6-36.3-94
			c-8.8-23-16.8-46.3-24.2-69.8c-2.3-7.2-3.3-14.6-3.4-22.2c-0.2-12.2,1.6-24.2,3.4-36.2c1.9-12.5,3.6-25,5.4-37.5
			c1.5-10.9,2.9-21.9,4.4-32.8c1.4-10.6,2.8-21.2,4.2-31.9c1.4-10.6,2.8-21.2,4.2-31.9c1.4-10.8,2.9-21.5,4.4-32.3
			c1.8-13.5,3.7-26.9,5.5-40.4c1.7-12.5,3.4-25,5.1-37.5c1.8-12.7,3.6-25.3,5.4-38c1.4-9.8,2.8-19.6,4.2-29.4
			c2.1-14.4,4.1-28.8,6.2-43.2c1.8-12.2,3.6-24.4,5.4-36.5c1.8-11.7,3.6-23.4,5.4-35.1c2-13.3,4-26.6,6.1-39.8
			c2.1-13.3,4.2-26.5,6.3-39.8c1.4-8.8,2.8-17.7,4.3-26.5c0.3-2,0.7-4.1,1.3-7c1.6,5.1,1.8,9.5,2.5,13.8c2.2,14.5,4.3,29.1,6.4,43.7
			c1.8,12,3.5,24,5.2,36.1c2,13.9,4.1,27.8,6.1,41.8c1.8,12.7,3.6,25.3,5.4,38c1.8,13,3.6,26,5.4,38.9c1.8,12.8,3.5,25.7,5.2,38.5
			c1.8,12.8,3.6,25.6,5.3,38.5c1.4,10.3,2.8,20.6,4.2,30.9c1.8,13.1,3.6,26.3,5.4,39.4c1.4,10.3,2.8,20.6,4.2,30.9
			c1.5,11.1,3,22.2,4.5,33.3c1.4,10.6,2.8,21.2,4.2,31.9c1.7,12.7,3.4,25.4,5.1,38c1.4,10.6,2.9,21.2,4.3,31.8
			c1.5,11.1,3,22.2,4.5,33.3c0.7,5.1,1.3,10.1,1.9,15.2c0.7,6-0.1,11.7-2.2,17.4c-18.5,48.7-36.9,97.5-55.4,146.2
			c-7.2,19-14.5,37.9-21.8,56.9C1004.3,1443.3,1003.5,1445.1,1002.8,1446.9z"/>
		<path d="M765.9,396.3c1.9-0.9,3.2-1.6,4.7-2.3c53.4-23.5,106.7-47.1,160.1-70.6c17.8-7.8,35.8-15.4,53.6-23.3
			c6.9-3.1,13.9-3.3,21.1-1.7c3.1,0.7,6.2,1.7,9.1,3c40.6,17.2,81.2,34.4,121.8,51.7c27.6,11.8,55.2,23.7,82.8,35.5
			c1.6,0.7,3.1,1.5,5.1,2.4c-1.2,1.1-2.1,2-3,2.8c-16.3,12.9-32.6,25.8-49,38.7c-40.2,31.7-80.4,63.3-120.7,95
			c-13.3,10.5-26.8,20.8-40.1,31.3c-5.5,4.3-11.7,5.6-18.5,5.1c-2.2-0.2-3.9-1.2-5.6-2.5c-7.8-5.8-15.7-11.5-23.6-17.3
			c-37.3-27.8-74.7-55.5-112-83.4c-26.9-20.1-53.8-40.2-80.7-60.4C769.5,399.1,767.9,397.8,765.9,396.3z"/>
		<path d="M304.9,400.8c1.8-0.8,3-1.4,4.4-1.8c89.2-32.8,178.4-65.7,267.6-98.5c4.7-1.7,9.5-2.7,14.5-2.5c4.5,0.1,8.5,1.3,12.1,4
			c8.5,6.3,17.1,12.4,25.5,18.7c30.7,23,61.4,46.1,92.1,69.2c1.5,1.1,3,2.3,4.9,3.8c-2.4,1.3-4.3,2.4-6.3,3.4
			c-19.8,10-39.6,20-59.5,30.1c-27.1,13.7-54.2,27.5-81.2,41.2c-21.5,10.9-43,21.8-64.6,32.8c-27.1,13.7-54.2,27.5-81.2,41.2
			c-21.5,10.9-43,21.8-64.6,32.8c-2.4,1.2-4.8,2.5-7.3,3.7c-0.8,0.4-1.7,0.6-2.6,0.9c-0.4-0.6-0.7-1-0.8-1.4
			C340.3,519.2,322.7,460.3,304.9,400.8z"/>
		<path d="M971.3,1440.6c-2-1.8-3.3-2.9-4.6-4.1c-10.7-10.3-21.3-20.7-32-31.1c-10.8-10.4-21.7-20.8-32.5-31.3
			c-6.1-5.9-12.2-11.8-18.2-17.7c-16.9-16.6-33.8-33.2-50.6-49.9c-32.4-32.1-64.7-64.3-96.9-96.5c-7.7-7.7-14.4-16.3-19.9-25.7
			c-53.2-91.2-106.5-182.3-159.7-273.4c-43.4-74.3-86.7-148.7-129.9-223c-2.5-4.3-4.5-8.8-6.6-13.2c1.1-2.2,2.8-3.4,4.4-5
			c1.2,1.3,2.2,2.3,3.1,3.4c38,46,75.9,92.1,113.9,138.1c30.9,37.5,61.9,75,92.9,112.5c36.6,44.4,73.2,88.9,109.8,133.4
			c30.7,37.3,61.3,74.7,91.9,112c20.4,24.8,38.4,51.2,54.7,78.8c28.4,48.3,51.2,99.1,68.6,152.3c3.8,11.7,7.1,23.6,10.6,35.4
			C970.6,1436.9,970.8,1438.3,971.3,1440.6z"/>
		<path d="M1268.1,385.9c1.5-1.1,2.5-1.9,3.5-2.6c37.2-26,74.5-52.1,111.7-78.1c4.1-2.8,8.2-5.5,12.3-8.4c7.1-5.1,14.7-5.6,22.8-2.5
			c14.5,5.6,28.9,11.2,43.4,16.8c54.6,21.3,109.3,42.6,163.9,63.9c21.9,8.5,43.7,17.1,65.6,25.7c1.5,0.6,2.9,1.2,4.5,1.9
			c0,1.8-0.7,3.2-1.1,4.7c-9.5,28.3-19,56.7-28.5,85c-7.2,21.5-14.4,43-21.7,64.6c-0.4,1.2-0.9,2.4-1.4,3.8c-1.9,0.1-3.4-1-4.9-1.7
			c-26.7-12.4-53.3-24.9-79.9-37.3c-56.2-26.2-112.4-52.5-168.6-78.7c-39.1-18.3-78.2-36.5-117.3-54.8
			C1271.2,387.5,1269.9,386.8,1268.1,385.9z"/>
		<path d="M1032,1442.7c0.3-0.9,0.5-1.8,0.8-2.6c10.2-28.4,20.3-56.9,30.7-85.3c10.4-28.7,21.7-57.1,34.7-84.7
			c15.3-32.3,33-63.2,54.6-91.8c9.9-13.2,20.9-25.5,31.7-37.9c29.5-33.7,58.5-67.8,87.3-102.1c41.7-49.8,82.8-100,123.8-150.4
			c36.8-45.3,73.5-90.7,110.3-136c18.1-22.3,36.4-44.6,54.7-66.9c2.8-3.4,5.9-6.7,9.1-9.8c3-2.9,6.5-5.2,10.3-7
			c0.5-0.2,1.1-0.3,1.6-0.5c0.8,0.9,0.3,1.4,0,1.9c-4.5,9.2-9.2,18.3-14.4,27.1c-32.6,54.1-65.1,108.3-97.6,162.4
			c-24.9,41.4-49.8,82.8-74.7,124.1c-32,53.2-64,106.3-95.9,159.5c-21.6,35.9-43.2,71.8-64.7,107.7c-4.6,7.7-10.2,14.6-16.8,20.8
			c-33.7,31.4-67.3,62.9-100.9,94.3c-27.2,25.4-54.6,50.7-81.8,76.1c-0.6,0.5-1.2,1-1.8,1.5C1032.5,1443,1032.3,1442.9,1032,1442.7z
			"/>
		<path d="M1305.9,1175.4c-1.6-1.6-3-3-4.7-4.6c0.6-1.3,1.1-2.4,1.8-3.5c12.7-21.1,25.4-42.2,38.2-63.3
			c18.8-31.1,37.6-62.1,56.4-93.2c25.1-41.5,50.1-82.9,75.2-124.4c20.7-34.2,41.4-68.4,62-102.6c26.6-43.9,53.1-87.9,79.7-131.8
			c5.9-9.7,12.1-19.2,18.1-28.8c3.5-5.6,8-10.4,13.3-14.4c4.3-3.3,9-5.3,14.6-5.2c8,0,16-0.4,24-0.5c14.2-0.2,28.5-0.3,42.7-0.4
			c31.8-0.1,63.7,0,95.5,0c1.1,0,2.2,0.1,3.2,0.2c0.5,1.7-0.7,2.2-1.4,3c-13.5,14.9-27.1,29.8-40.7,44.7c-38,41.7-76,83.5-114,125.2
			c-46.3,50.8-92.6,101.7-138.9,152.5c-41.3,45.4-82.7,90.8-124,136.2c-32.5,35.7-65,71.4-97.5,107.1
			C1308.3,1172.9,1307.2,1174,1305.9,1175.4z"/>
		<path d="M660.6,1124.1c-1.4,1.9-3,3.4-4.8,4.4c-0.6-0.2-0.9-0.3-1.1-0.5C499.7,955.1,344.8,782.2,189.9,609.3
			c-0.3-0.3-0.4-0.8-0.8-1.5c0.7-0.2,1.2-0.4,1.8-0.5c1-0.1,1.9,0,2.9,0c30.9,0,61.7-0.1,92.6-0.1c10.2,0,20.5,0,30.7,0.2
			c9.1,0.1,18.2,0.5,27.3,0.6c6.5,0.1,11.6,3.2,16.3,7.2c2.9,2.5,5.2,5.6,7.1,9c21,35.9,42.2,71.7,63.2,107.5
			c56.4,96.3,112.8,192.6,169.2,288.9c19.3,33,38.6,66,57.9,99C658.8,1120.9,659.7,1122.5,660.6,1124.1z"/>
		<path d="M1244.5,398.3c0.6,0.6,1,0.9,1.2,1.3c31.9,57.8,63.7,115.6,95.6,173.4c0.1,0.2,0,0.6,0.1,0.9c-0.2,0.2-0.5,0.5-0.7,0.5
			c-107.5,0-214.9,0-322.4,0c-0.6-1.7,0.9-2,1.6-2.6c8.4-6.6,16.9-13.1,25.4-19.7c43.1-33.3,86.3-66.7,129.4-100.1
			c21.8-16.8,43.5-33.6,65.3-50.5C1241.4,400.6,1242.8,399.6,1244.5,398.3z"/>
		<path d="M971.6,573.6c-5.5,0.8-227.1,1.2-291.8,0.6c-1.2,0-2.5-0.2-3.6-0.2c-0.8-1.8,0.4-3,0.9-4.3c5.6-12.7,11.3-25.4,17-38.1
			c18.2-40.9,36.5-81.7,54.7-122.6c0.8-1.7,1.6-3.4,2.5-5.2c1.9,0.3,2.9,1.6,4.1,2.5c21,16.2,42,32.4,63,48.6
			c49,37.8,98,75.6,146.9,113.4C967.3,569.9,969.5,571.3,971.6,573.6z"/>
		<path d="M1611.7,568.4c-0.4,2.8-0.8,5.2-1.2,7.7c-1.2,0.1-2.3,0.3-3.3,0.4c-0.2,0-0.3,0-0.5,0c-45.4,0.1-90.9,0.2-136.3,0.2
			c-16.3,0-32.6-0.1-48.9-0.2c-14.6-0.1-29.1-0.3-43.7-0.3c-4,0-7.6-1-10.9-3.2c-5.2-3.4-9.4-7.7-12.3-13.2
			c-10-18.6-20.1-37.1-30-55.8c-17.1-32.3-34.1-64.8-51.2-97.2c-0.6-1.2-1.2-2.5-1.7-3.7c1.3-0.9,2.1-0.1,2.9,0.3
			c10.8,5.2,21.5,10.5,32.3,15.8c24.3,11.9,48.5,23.7,72.8,35.6c15.9,7.8,31.8,15.6,47.8,23.4c23.4,11.4,46.8,22.8,70.2,34.3
			c15.8,7.7,31.6,15.5,47.4,23.2c20.2,9.9,40.5,19.8,60.7,29.7C1607.7,566.2,1609.5,567.2,1611.7,568.4z"/>
		<path d="M414.7,569.6c0.3-1.3,1.3-1.5,2.1-1.9c9.8-5,19.6-10.1,29.4-15.1c30.5-15.5,61-31,91.4-46.6c28.3-14.4,56.7-28.9,85-43.4
			c19.2-9.8,38.5-19.5,57.7-29.3c11.7-5.9,23.3-11.9,35-17.9c1.3-0.7,2.6-1.2,4-1.9c2.3,0.9,3.6,3,5.6,4.4c-1.1,2.4-2,4.4-2.9,6.4
			c-12.6,26.6-25.1,53.2-37.9,79.7c-9.1,18.9-18.6,37.5-27.9,56.3c-1.9,3.8-4.6,6.9-8.2,9.2c-6.3,4-13.1,6.6-20.7,6.7
			c-8,0.1-16,0.3-24,0.3c-17.9,0-35.8,0.1-53.8,0c-9.1,0-18.2-0.1-27.3-0.4c-15.3-0.5-30.7-0.9-46-1.8c-18.2-1-36.4-2.5-54.5-3.8
			C419.4,570.3,417.1,569.9,414.7,569.6z"/>
		<path d="M1378.5,1121.6c-1.1-1.6-2-2.9-2.9-4.3c4.1-4.4,8-8.6,11.9-12.8c22-23.6,44.1-47.2,66.1-70.8c24-25.7,48-51.4,72-77.1
			c25.5-27.4,51-54.7,76.6-82c20.6-22.1,41.3-44.1,62-66.1c18-19.2,36.1-38.5,54.2-57.7c18.1-19.2,36.2-38.4,54.3-57.5
			c15.4-16.3,30.8-32.5,46.2-48.8c7.2-7.5,14.4-15,21.5-22.6c4.3-4.5,9.4-7.6,15.1-9.9c6.1-2.4,12.5-3.9,18.9-5.4
			c9-2,18.1-4.1,27.1-6.1c0.5-0.1,0.9-0.1,1.5-0.1c1.6,1.4,2.1,3.5,3,5.3c0.9,1.7,1.6,3.5,2.5,5.4c-0.8,1-1.6,2-2.4,2.8
			c-7,6.8-14,13.5-21.1,20.3c-7.7,7.4-15.4,14.8-23.2,22.3c-9.9,9.5-19.8,19-29.7,28.6c-9.3,9-18.6,18-28,27
			c-10,9.6-20.1,19.3-30.1,28.9c-9.4,9.1-18.9,18.2-28.3,27.3c-10,9.7-20.1,19.3-30.1,28.9c-9.6,9.2-19.1,18.4-28.7,27.6
			c-9.9,9.5-19.8,19-29.8,28.6c-7.4,7.1-14.7,14.2-22.1,21.3c-9.9,9.5-19.8,19-29.8,28.6c-7,6.8-14,13.6-21.1,20.3
			c-10.3,9.9-20.5,19.7-30.8,29.6c-9.6,9.2-19.1,18.4-28.6,27.7c-9.8,9.4-19.6,18.8-29.4,28.2c-9.6,9.2-19.1,18.4-28.6,27.6
			c-9.8,9.4-19.6,18.8-29.4,28.3c-9.4,9.1-18.9,18.2-28.3,27.3c-9.6,9.2-19.1,18.4-28.6,27.7
			C1380,1120.4,1379.5,1120.8,1378.5,1121.6z"/>
		<path d="M552.7,1047.6c-1.5-1.1-2.5-1.8-3.4-2.7c-12.1-11.6-24.2-23.3-36.4-34.9c-15.9-15.3-31.9-30.5-47.9-45.7
			c-12.2-11.7-24.4-23.5-36.7-35.2c-12.1-11.6-24.3-23.2-36.4-34.8c-10.4-10-20.7-20-31.1-29.9c-14.1-13.5-28.2-26.9-42.3-40.4
			c-14.1-13.5-28.1-27-42.2-40.5c-12.1-11.6-24.3-23.2-36.4-34.8c-10.3-9.8-20.5-19.7-30.8-29.6c-10.4-10-20.8-19.9-31.2-29.8
			c-10.1-9.6-20.1-19.3-30.1-28.9c-10.5-10.1-21-20.1-31.5-30.2c-6.1-5.9-12.3-11.7-18.4-17.6c-0.7-0.6-1.2-1.4-2-2.3
			c1.1-0.5,2-0.9,2.9-1.1c9.7-2.5,19.4-3.8,29.4-3.5c13.8,0.4,26.3,4.7,37.7,12.4c7.6,5.1,14.4,11.2,20.5,18.1
			c15.8,17.6,31.4,35.4,47.2,53c32.2,35.8,64.3,71.6,96.7,107.3c41.7,46,83.5,91.7,125.3,137.6c28.5,31.3,57.1,62.7,85.6,94
			c3.8,4.2,7.3,8.5,9.6,13.7C551.6,1043.3,552.4,1045,552.7,1047.6z"/>
		<path d="M623.3,295.9c1.9-0.3,2.5-0.4,3.1-0.4c1.4,0,2.9,0,4.3,0c101.4,0,202.7,0,304.1,0c1.1,0,2.2,0,3.4,0
			c4.2,0.1,4.3,0.2,4.4,5c-0.7,0.4-1.6,0.9-2.4,1.2c-61.2,26.8-122.2,53.9-183.6,80c-4.9,2.1-9.5,2.2-14.5,0.8
			c-4-1.2-7.7-3.1-11.1-5.6c-18.3-13.7-36.7-27.2-55-40.9c-15.6-11.7-31.1-23.5-46.7-35.3C627.6,299.4,625.9,298,623.3,295.9z"/>
		<path d="M1711,411.8c0.5,0.2,0.9,0.2,1.1,0.4c40.7,53.6,81.5,107.3,122.2,160.9c0.2,0.2,0.1,0.6,0.1,1.1c-0.6,0.1-1.1,0.3-1.7,0.3
			c-18.7,0.6-167.4,0.2-171.8-0.4c-0.1-0.3-0.2-0.7-0.2-0.9c16.5-53.1,32.9-106.2,49.4-159.4C1710.4,413.2,1710.7,412.5,1711,411.8z
			"/>
		<path d="M1359.8,296c0.9,1.8,1.7,3.5,2.6,5.4c-0.9,0.8-1.7,1.7-2.5,2.3c-30.8,21.2-61.6,42.4-92.5,63.6c-3.8,2.6-7.8,5-11.6,7.6
			c-3,2-6.3,2.9-9.9,2.9c-6,0.1-11.7-1.2-17.3-3.4c-22.2-9-44.4-18-66.6-27.1c-35.9-14.8-71.8-29.7-107.6-44.5
			c-1.6-0.7-3.2-1.4-4.7-2c-0.9-1.6-0.2-2.9,0-4.1c0.5-0.3,0.8-0.6,1.1-0.6c1.6-0.1,3.2-0.2,4.8-0.2c99.6,0,199.3,0,298.9,0
			C1356.1,295.9,1357.9,295.9,1359.8,296z"/>
		<path d="M290.3,415.3c0.4,0.5,0.9,0.9,1,1.3c14.5,52.3,28.9,104.7,43.3,156.8c-0.8,1.4-1.9,1-2.7,1.1c-1.1,0.1-2.2,0-3.4,0
			c-53.4,0-106.8,0-160.3,0c-1.7,0-3.5,0-5.2,0c-0.4-1.8,0.8-2.6,1.6-3.5c6.8-8.5,13.6-16.9,20.5-25.4
			c19.2-23.8,38.4-47.5,57.5-71.3c15.1-18.7,30.1-37.4,45.2-56C288.5,417.2,289.4,416.3,290.3,415.3z"/>
		<path d="M365.7,358.9c0.9-1,1.7-2,2.6-2.9c10-9.9,20.2-19.6,30.9-28.7c7.7-6.5,15.7-12.6,24.4-17.7c13.7-8.1,28.4-12.8,44.2-14.6
			c10.7-1.2,21.4-1.7,32.1-1.4c15.2,0.4,30.3,1.2,45.5,2.5c0.2,0,0.4,0.3,0.8,0.5c-0.4,0.3-0.7,0.8-1,0.9
			c-59.4,20.6-118.9,41.2-178.3,61.7C366.5,359.3,366.2,359.1,365.7,358.9z"/>
		<path d="M1469.3,295.7c2.4-0.9,4.9-1,7.4-1.4c9.4-1.2,18.7-2.1,28.2-2c28.5,0.2,54.9,7.5,79.2,22.5c10.5,6.5,20.2,14.1,29.3,22.4
			c8.6,7.9,16.5,16.6,24,25.5c0.7,0.8,1.3,1.8,1.9,2.7c0,0.1-0.1,0.2-0.1,0.4c-0.4,0-0.9,0.1-1.3,0c-56.2-23-112.3-46.1-168.5-69.2
			C1469.3,296.4,1469.3,296.1,1469.3,295.7z"/>
		<path d="M88.6,574.3c3.5-3.7,84.8-67.2,124.6-97.4c0.9-0.7,1.8-1.2,3-2c2.1,2.7,4,5.2,5.9,7.6c-0.4,0.6-0.6,1.1-1,1.3
			c-8.9,5.9-16.2,13.5-22.8,21.8c-6.3,8-12.4,16.3-18.6,24.4c-5.6,7.4-11.5,14.5-18.1,21c-12.6,12.3-27.3,20.4-44.8,23
			C107.6,575.6,98.4,576,88.6,574.3z"/>
		<path d="M1910.5,575.1c-11.1,1.3-21.9,1.2-32.7-1.1c-15.9-3.4-28.8-11.7-39.8-23.5c-8.1-8.7-14.7-18.5-21.4-28.3
			c-4.3-6.3-8.7-12.6-13.3-18.8c-5.7-7.6-12.2-14.4-20-19.8c-0.4-0.3-0.7-0.6-1.1-1c0.2-0.5,0.2-1,0.5-1.3c1.7-2.1,3.4-4.2,5.1-6.5
			c0.9,0.5,1.6,0.8,2.2,1.3c40.1,32.5,80.1,65,120.1,97.6C1910.4,574,1910.4,574.4,1910.5,575.1z"/>
	</g>
</g>
</svg>
