  0
SECTION
  2
HEADER
  9
$ACADVER
  1
AC1024
  9
$ACADMAINTVER
 70
     6
  9
$DWGCODEPAGE
  3
ANSI_1252
  9
$INSBASE
 10
0.0
 20
0.0
 30
0.0
  9
$EXTMIN
 10
1.000000000000000E+20
 20
1.000000000000000E+20
 30
1.000000000000000E+20
  9
$EXTMAX
 10
-1.000000000000000E+20
 20
-1.000000000000000E+20
 30
-1.000000000000000E+20
  9
$LIMMIN
 10
0.0
 20
0.0
  9
$LIMMAX
 10
12.0
 20
9.0
  9
$ORTHOMODE
 70
     0
  9
$REGENMODE
 70
     1
  9
$FILLMODE
 70
     1
  9
$QTEXTMODE
 70
     0
  9
$MIRRTEXT
 70
     1
  9
$LTSCALE
 40
1.0
  9
$ATTMODE
 70
     1
  9
$TEXTSIZE
 40
0.2
  9
$TRACEWID
 40
0.05
  9
$TEXTSTYLE
  7
Standard
  9
$CLAYER
  8
0
  9
$CELTYPE
  6
ByLayer
  9
$CECOLOR
 62
   256
  9
$CELTSCALE
 40
1.0
  9
$DISPSILH
 70
     0
  9
$DIMSCALE
 40
1.0
  9
$DIMASZ
 40
0.18
  9
$DIMEXO
 40
0.0625
  9
$DIMDLI
 40
0.38
  9
$DIMRND
 40
0.0
  9
$DIMDLE
 40
0.0
  9
$DIMEXE
 40
0.18
  9
$DIMTP
 40
0.0
  9
$DIMTM
 40
0.0
  9
$DIMTXT
 40
0.18
  9
$DIMCEN
 40
0.09
  9
$DIMTSZ
 40
0.0
  9
$DIMTOL
 70
     0
  9
$DIMLIM
 70
     0
  9
$DIMTIH
 70
     1
  9
$DIMTOH
 70
     1
  9
$DIMSE1
 70
     0
  9
$DIMSE2
 70
     0
  9
$DIMTAD
 70
     0
  9
$DIMZIN
 70
     0
  9
$DIMBLK
  1

  9
$DIMASO
 70
     1
  9
$DIMSHO
 70
     1
  9
$DIMPOST
  1

  9
$DIMAPOST
  1

  9
$DIMALT
 70
     0
  9
$DIMALTD
 70
     2
  9
$DIMALTF
 40
25.4
  9
$DIMLFAC
 40
1.0
  9
$DIMTOFL
 70
     0
  9
$DIMTVP
 40
0.0
  9
$DIMTIX
 70
     0
  9
$DIMSOXD
 70
     0
  9
$DIMSAH
 70
     0
  9
$DIMBLK1
  1

  9
$DIMBLK2
  1

  9
$DIMSTYLE
  2
Standard
  9
$DIMCLRD
 70
     0
  9
$DIMCLRE
 70
     0
  9
$DIMCLRT
 70
     0
  9
$DIMTFAC
 40
1.0
  9
$DIMGAP
 40
0.09
  9
$DIMJUST
 70
     0
  9
$DIMSD1
 70
     0
  9
$DIMSD2
 70
     0
  9
$DIMTOLJ
 70
     1
  9
$DIMTZIN
 70
     0
  9
$DIMALTZ
 70
     0
  9
$DIMALTTZ
 70
     0
  9
$DIMUPT
 70
     0
  9
$DIMDEC
 70
     4
  9
$DIMTDEC
 70
     4
  9
$DIMALTU
 70
     2
  9
$DIMALTTD
 70
     2
  9
$DIMTXSTY
  7
Standard
  9
$DIMAUNIT
 70
     0
  9
$DIMADEC
 70
     0
  9
$DIMALTRND
 40
0.0
  9
$DIMAZIN
 70
     0
  9
$DIMDSEP
 70
    46
  9
$DIMATFIT
 70
     3
  9
$DIMFRAC
 70
     0
  9
$DIMLDRBLK
  1

  9
$DIMLUNIT
 70
     2
  9
$DIMLWD
 70
    -2
  9
$DIMLWE
 70
    -2
  9
$DIMTMOVE
 70
     0
  9
$DIMFXL
 40
1.0
  9
$DIMFXLON
 70
     0
  9
$DIMJOGANG
 40
0.7853981633974483
  9
$DIMTFILL
 70
     0
  9
$DIMTFILLCLR
 70
     0
  9
$DIMARCSYM
 70
     0
  9
$DIMLTYPE
  6

  9
$DIMLTEX1
  6

  9
$DIMLTEX2
  6

  9
$DIMTXTDIRECTION
 70
     0
  9
$LUNITS
 70
     2
  9
$LUPREC
 70
     4
  9
$SKETCHINC
 40
0.1
  9
$FILLETRAD
 40
0.5
  9
$AUNITS
 70
     0
  9
$AUPREC
 70
     0
  9
$MENU
  1
.
  9
$ELEVATION
 40
0.0
  9
$PELEVATION
 40
0.0
  9
$THICKNESS
 40
0.0
  9
$LIMCHECK
 70
     0
  9
$CHAMFERA
 40
0.5
  9
$CHAMFERB
 40
0.5
  9
$CHAMFERC
 40
1.0
  9
$CHAMFERD
 40
0.0
  9
$SKPOLY
 70
     0
  9
$TDCREATE
 40
2458128.819046979
  9
$TDUCREATE
 40
2458129.027380312
  9
$TDUPDATE
 40
2458128.819047014
  9
$TDUUPDATE
 40
2458129.027380347
  9
$TDINDWG
 40
0.0000000116
  9
$TDUSRTIMER
 40
0.0000000116
  9
$USRTIMER
 70
     1
  9
$ANGBASE
 50
0.0
  9
$ANGDIR
 70
     0
  9
$PDMODE
 70
     0
  9
$PDSIZE
 40
0.0
  9
$PLINEWID
 40
0.0
  9
$SPLFRAME
 70
     0
  9
$SPLINETYPE
 70
     6
  9
$SPLINESEGS
 70
     8
  9
$HANDSEED
  5
4D
  9
$SURFTAB1
 70
     6
  9
$SURFTAB2
 70
     6
  9
$SURFTYPE
 70
     6
  9
$SURFU
 70
     6
  9
$SURFV
 70
     6
  9
$UCSBASE
  2

  9
$UCSNAME
  2

  9
$UCSORG
 10
0.0
 20
0.0
 30
0.0
  9
$UCSXDIR
 10
1.0
 20
0.0
 30
0.0
  9
$UCSYDIR
 10
0.0
 20
1.0
 30
0.0
  9
$UCSORTHOREF
  2

  9
$UCSORTHOVIEW
 70
     0
  9
$UCSORGTOP
 10
0.0
 20
0.0
 30
0.0
  9
$UCSORGBOTTOM
 10
0.0
 20
0.0
 30
0.0
  9
$UCSORGLEFT
 10
0.0
 20
0.0
 30
0.0
  9
$UCSORGRIGHT
 10
0.0
 20
0.0
 30
0.0
  9
$UCSORGFRONT
 10
0.0
 20
0.0
 30
0.0
  9
$UCSORGBACK
 10
0.0
 20
0.0
 30
0.0
  9
$PUCSBASE
  2

  9
$PUCSNAME
  2

  9
$PUCSORG
 10
0.0
 20
0.0
 30
0.0
  9
$PUCSXDIR
 10
1.0
 20
0.0
 30
0.0
  9
$PUCSYDIR
 10
0.0
 20
1.0
 30
0.0
  9
$PUCSORTHOREF
  2

  9
$PUCSORTHOVIEW
 70
     0
  9
$PUCSORGTOP
 10
0.0
 20
0.0
 30
0.0
  9
$PUCSORGBOTTOM
 10
0.0
 20
0.0
 30
0.0
  9
$PUCSORGLEFT
 10
0.0
 20
0.0
 30
0.0
  9
$PUCSORGRIGHT
 10
0.0
 20
0.0
 30
0.0
  9
$PUCSORGFRONT
 10
0.0
 20
0.0
 30
0.0
  9
$PUCSORGBACK
 10
0.0
 20
0.0
 30
0.0
  9
$USERI1
 70
     0
  9
$USERI2
 70
     0
  9
$USERI3
 70
     0
  9
$USERI4
 70
     0
  9
$USERI5
 70
     0
  9
$USERR1
 40
0.0
  9
$USERR2
 40
0.0
  9
$USERR3
 40
0.0
  9
$USERR4
 40
0.0
  9
$USERR5
 40
0.0
  9
$WORLDVIEW
 70
     1
  9
$SHADEDGE
 70
     3
  9
$SHADEDIF
 70
    70
  9
$TILEMODE
 70
     1
  9
$MAXACTVP
 70
    64
  9
$PINSBASE
 10
0.0
 20
0.0
 30
0.0
  9
$PLIMCHECK
 70
     0
  9
$PEXTMIN
 10
1.000000000000000E+20
 20
1.000000000000000E+20
 30
1.000000000000000E+20
  9
$PEXTMAX
 10
-1.000000000000000E+20
 20
-1.000000000000000E+20
 30
-1.000000000000000E+20
  9
$PLIMMIN
 10
0.0
 20
0.0
  9
$PLIMMAX
 10
12.0
 20
9.0
  9
$UNITMODE
 70
     0
  9
$VISRETAIN
 70
     1
  9
$PLINEGEN
 70
     0
  9
$PSLTSCALE
 70
     1
  9
$TREEDEPTH
 70
  3020
  9
$CMLSTYLE
  2
Standard
  9
$CMLJUST
 70
     0
  9
$CMLSCALE
 40
1.0
  9
$PROXYGRAPHICS
 70
     1
  9
$MEASUREMENT
 70
     0
  9
$CELWEIGHT
370
    -1
  9
$ENDCAPS
280
     0
  9
$JOINSTYLE
280
     0
  9
$LWDISPLAY
290
     1
  9
$INSUNITS
 70
     1
  9
$HYPERLINKBASE
  1

  9
$STYLESHEET
  1

  9
$XEDIT
290
     1
  9
$CEPSNTYPE
380
     0
  9
$PSTYLEMODE
290
     1
  9
$FINGERPRINTGUID
  2
{32880C04-8FFE-4CE5-AA1C-B9CE855FC8E1}
  9
$VERSIONGUID
  2
{FAEB1C32-E019-11D5-929B-00C0DF256EC4}
  9
$EXTNAMES
290
     1
  9
$PSVPSCALE
 40
0.0
  9
$OLESTARTUP
290
     0
  9
$SORTENTS
280
   127
  9
$INDEXCTL
280
     0
  9
$HIDETEXT
280
     1
  9
$XCLIPFRAME
280
     2
  9
$HALOGAP
280
     0
  9
$OBSCOLOR
 70
   257
  9
$OBSLTYPE
280
     0
  9
$INTERSECTIONDISPLAY
280
     0
  9
$INTERSECTIONCOLOR
 70
   257
  9
$DIMASSOC
280
     2
  9
$PROJECTNAME
  1

  9
$CAMERADISPLAY
290
     0
  9
$LENSLENGTH
 40
50.0
  9
$CAMERAHEIGHT
 40
0.0
  9
$STEPSPERSEC
 40
2.0
  9
$STEPSIZE
 40
6.0
  9
$3DDWFPREC
 40
2.0
  9
$PSOLWIDTH
 40
0.25
  9
$PSOLHEIGHT
 40
4.0
  9
$LOFTANG1
 40
1.570796326794897
  9
$LOFTANG2
 40
1.570796326794897
  9
$LOFTMAG1
 40
0.0
  9
$LOFTMAG2
 40
0.0
  9
$LOFTPARAM
 70
     7
  9
$LOFTNORMALS
280
     1
  9
$LATITUDE
 40
37.795
  9
$LONGITUDE
 40
-122.394
  9
$NORTHDIRECTION
 40
0.0
  9
$TIMEZONE
 70
 -8000
  9
$LIGHTGLYPHDISPLAY
280
     1
  9
$TILEMODELIGHTSYNCH
280
     1
  9
$CMATERIAL
347
3C
  9
$SOLIDHIST
280
     1
  9
$SHOWHIST
280
     1
  9
$DWFFRAME
280
     2
  9
$DGNFRAME
280
     2
  9
$REALWORLDSCALE
290
     1
  9
$INTERFERECOLOR
 62
   256
  9
$CSHADOW
280
     0
  9
$SHADOWPLANELOCATION
 40
0.0
  0
ENDSEC
  0
SECTION
  2
CLASSES
  0
CLASS
  1
ACDBDICTIONARYWDFLT
  2
AcDbDictionaryWithDefault
  3
ObjectDBX Classes
 90
        0
 91
        4
280
     0
281
     0
  0
CLASS
  1
VISUALSTYLE
  2
AcDbVisualStyle
  3
ObjectDBX Classes
 90
     4095
 91
        4
280
     0
281
     0
  0
CLASS
  1
MATERIAL
  2
AcDbMaterial
  3
ObjectDBX Classes
 90
     1153
 91
        4
280
     0
281
     0
  0
CLASS
  1
SUN
  2
AcDbSun
  3
SCENEOE
 90
     1024
 91
        4
280
     0
281
     0
  0
ENDSEC
  0
SECTION
  2
TABLES
  0
TABLE
  2
VPORT
  5
8
330
0
100
AcDbSymbolTable
 70
     1
  0
VPORT
  5
29
330
8
100
AcDbSymbolTableRecord
100
AcDbViewportTableRecord
  2
*Active
 70
     0
 10
0.0
 20
0.0
 11
1.0
 21
1.0
 12
0.0
 22
0.0
 13
0.0
 23
0.0
 14
0.5
 24
0.5
 15
0.5
 25
0.5
 16
0.0
 26
0.0
 36
1.0
 17
1000.0
 27
-1000.0
 37
0.0
 40
2000.0
 41
1.0
 42
50.0
 43
0.0
 44
0.0
 50
0.0
 51
0.0
 71
     0
 72
   100
 73
     1
 74
     3
 75
     0
 76
     0
 77
     0
 78
     0
281
     0
 65
     1
110
0.0
120
0.0
130
0.0
111
1.0
121
0.0
131
0.0
112
0.0
122
1.0
132
0.0
 79
     0
146
0.0
 60
     3
 61
     5
292
     1
282
     1
141
0.0
142
0.0
 63
   250
361
3F
  0
ENDTAB
  0
TABLE
  2
LTYPE
  5
5
330
0
100
AcDbSymbolTable
 70
     1
  0
LTYPE
  5
14
330
5
100
AcDbSymbolTableRecord
100
AcDbLinetypeTableRecord
  2
ByBlock
 70
     0
  3

 72
    65
 73
     0
 40
0.0
  0
LTYPE
  5
15
330
5
100
AcDbSymbolTableRecord
100
AcDbLinetypeTableRecord
  2
ByLayer
 70
     0
  3

 72
    65
 73
     0
 40
0.0
  0
LTYPE
  5
16
330
5
100
AcDbSymbolTableRecord
100
AcDbLinetypeTableRecord
  2
Continuous
 70
     0
  3
Solid line
 72
    65
 73
     0
 40
0.0
  0
ENDTAB
  0
TABLE
  2
LAYER
  5
2
330
0
100
AcDbSymbolTable
 70
     2
  0
LAYER
  5
10
330
2
100
AcDbSymbolTableRecord
100
AcDbLayerTableRecord
  2
0
 70
     0
 62
     7
  6
Continuous
370
    -3
390
F
347
3E
  0
LAYER
  5
40
330
2
100
AcDbSymbolTableRecord
100
AcDbLayerTableRecord
  2
Layer 1
 70
     0
 62
     7
  6
Continuous
370
    -3
390
F
347
3E
  0
ENDTAB
  0
TABLE
  2
STYLE
  5
3
330
0
100
AcDbSymbolTable
 70
     1
  0
STYLE
  5
11
330
3
100
AcDbSymbolTableRecord
100
AcDbTextStyleTableRecord
  2
Standard
 70
     0
 40
0.0
 41
1.0
 50
0.0
 71
     0
 42
0.2
  3
txt
  4

  0
ENDTAB
  0
TABLE
  2
VIEW
  5
6
330
0
100
AcDbSymbolTable
 70
     0
  0
ENDTAB
  0
TABLE
  2
UCS
  5
7
330
0
100
AcDbSymbolTable
 70
     0
  0
ENDTAB
  0
TABLE
  2
APPID
  5
9
330
0
100
AcDbSymbolTable
 70
     1
  0
APPID
  5
12
330
9
100
AcDbSymbolTableRecord
100
AcDbRegAppTableRecord
  2
ACAD
 70
     0
  0
ENDTAB
  0
TABLE
  2
DIMSTYLE
  5
A
330
0
100
AcDbSymbolTable
 70
     1
100
AcDbDimStyleTable
  0
DIMSTYLE
105
27
330
A
100
AcDbSymbolTableRecord
100
AcDbDimStyleTableRecord
  2
Standard
 70
     0
178
     0
340
11
  0
ENDTAB
  0
TABLE
  2
BLOCK_RECORD
  5
1
330
0
100
AcDbSymbolTable
 70
     3
  0
BLOCK_RECORD
  5
1F
330
1
100
AcDbSymbolTableRecord
100
AcDbBlockTableRecord
  2
*Model_Space
340
22
 70
     0
280
     1
281
     0
  0
BLOCK_RECORD
  5
1B
330
1
100
AcDbSymbolTableRecord
100
AcDbBlockTableRecord
  2
*Paper_Space
340
1E
 70
     0
280
     1
281
     0
  0
BLOCK_RECORD
  5
23
330
1
100
AcDbSymbolTableRecord
100
AcDbBlockTableRecord
  2
*Paper_Space0
340
26
 70
     0
280
     1
281
     0
  0
BLOCK_RECORD
  5
41
330
1
100
AcDbSymbolTableRecord
100
AcDbBlockTableRecord
  2
block 2
340
0
102
{BLKREFS
331
42
102
}
 70
     0
280
     1
281
     0
  0
BLOCK_RECORD
  5
45
330
1
100
AcDbSymbolTableRecord
100
AcDbBlockTableRecord
  2
block 3
340
0
102
{BLKREFS
331
46
102
}
 70
     0
280
     1
281
     0
  0
ENDTAB
  0
ENDSEC
  0
SECTION
  2
BLOCKS
  0
BLOCK
  5
20
330
1F
100
AcDbEntity
  8
0
100
AcDbBlockBegin
  2
*Model_Space
 70
     0
 10
0.0
 20
0.0
 30
0.0
  3
*Model_Space
  1

  0
ENDBLK
  5
21
330
1F
100
AcDbEntity
  8
0
100
AcDbBlockEnd
  0
BLOCK
  5
1C
330
1B
100
AcDbEntity
 67
     1
  8
0
100
AcDbBlockBegin
  2
*Paper_Space
 70
     0
 10
0.0
 20
0.0
 30
0.0
  3
*Paper_Space
  1

  0
ENDBLK
  5
1D
330
1B
100
AcDbEntity
 67
     1
  8
0
100
AcDbBlockEnd
  0
BLOCK
  5
24
330
23
100
AcDbEntity
  8
0
100
AcDbBlockBegin
  2
*Paper_Space0
 70
     0
 10
0.0
 20
0.0
 30
0.0
  3
*Paper_Space0
  1

  0
ENDBLK
  5
25
330
23
100
AcDbEntity
  8
0
100
AcDbBlockEnd
  0
BLOCK
  5
43
330
41
100
AcDbEntity
  8
0
100
AcDbBlockBegin
  2
block 2
 70
     0
 10
0.0
 20
0.0
 30
0.0
  3
block 2
  1

  0
INSERT
  5
46
330
41
100
AcDbEntity
  8
Layer 1
100
AcDbBlockReference
  2
block 3
 10
0.0
 20
0.0
 30
0.0
  0
ENDBLK
  5
44
330
41
100
AcDbEntity
  8
0
100
AcDbBlockEnd
  0
BLOCK
  5
47
330
45
100
AcDbEntity
  8
0
100
AcDbBlockBegin
  2
block 3
 70
     0
 10
0.0
 20
0.0
 30
0.0
  3
block 3
  1

  0
SPLINE
  5
49
330
45
100
AcDbEntity
  8
Layer 1
370
     0
100
AcDbSpline
210
0.0
220
0.0
230
1.0
 70
    11
 71
     3
 72
   245
 73
   241
 74
     0
 42
0.0000000001
 43
0.0000000001
 12
1.0
 22
0.0
 32
0.0
 13
1.0
 23
0.0
 33
0.0
 40
0.0
 40
0.0
 40
0.0
 40
0.0
 40
1.0
 40
1.0
 40
1.0
 40
2.0
 40
2.0
 40
2.0
 40
3.0
 40
3.0
 40
3.0
 40
4.0
 40
4.0
 40
4.0
 40
5.0
 40
5.0
 40
5.0
 40
6.0
 40
6.0
 40
6.0
 40
7.0
 40
7.0
 40
7.0
 40
8.0
 40
8.0
 40
8.0
 40
9.0
 40
9.0
 40
9.0
 40
10.0
 40
10.0
 40
10.0
 40
11.0
 40
11.0
 40
11.0
 40
12.0
 40
12.0
 40
12.0
 40
13.0
 40
13.0
 40
13.0
 40
14.0
 40
14.0
 40
14.0
 40
15.0
 40
15.0
 40
15.0
 40
16.0
 40
16.0
 40
16.0
 40
17.0
 40
17.0
 40
17.0
 40
18.0
 40
18.0
 40
18.0
 40
19.0
 40
19.0
 40
19.0
 40
20.0
 40
20.0
 40
20.0
 40
21.0
 40
21.0
 40
21.0
 40
22.0
 40
22.0
 40
22.0
 40
23.0
 40
23.0
 40
23.0
 40
24.0
 40
24.0
 40
24.0
 40
25.0
 40
25.0
 40
25.0
 40
26.0
 40
26.0
 40
26.0
 40
27.0
 40
27.0
 40
27.0
 40
28.0
 40
28.0
 40
28.0
 40
29.0
 40
29.0
 40
29.0
 40
30.0
 40
30.0
 40
30.0
 40
31.0
 40
31.0
 40
31.0
 40
32.0
 40
32.0
 40
32.0
 40
33.0
 40
33.0
 40
33.0
 40
34.0
 40
34.0
 40
34.0
 40
35.0
 40
35.0
 40
35.0
 40
36.0
 40
36.0
 40
36.0
 40
37.0
 40
37.0
 40
37.0
 40
38.0
 40
38.0
 40
38.0
 40
39.0
 40
39.0
 40
39.0
 40
40.0
 40
40.0
 40
40.0
 40
41.0
 40
41.0
 40
41.0
 40
42.0
 40
42.0
 40
42.0
 40
43.0
 40
43.0
 40
43.0
 40
44.0
 40
44.0
 40
44.0
 40
45.0
 40
45.0
 40
45.0
 40
46.0
 40
46.0
 40
46.0
 40
47.0
 40
47.0
 40
47.0
 40
48.0
 40
48.0
 40
48.0
 40
49.0
 40
49.0
 40
49.0
 40
50.0
 40
50.0
 40
50.0
 40
51.0
 40
51.0
 40
51.0
 40
52.0
 40
52.0
 40
52.0
 40
53.0
 40
53.0
 40
53.0
 40
54.0
 40
54.0
 40
54.0
 40
55.0
 40
55.0
 40
55.0
 40
56.0
 40
56.0
 40
56.0
 40
57.0
 40
57.0
 40
57.0
 40
58.0
 40
58.0
 40
58.0
 40
59.0
 40
59.0
 40
59.0
 40
60.0
 40
60.0
 40
60.0
 40
61.0
 40
61.0
 40
61.0
 40
62.0
 40
62.0
 40
62.0
 40
63.0
 40
63.0
 40
63.0
 40
64.0
 40
64.0
 40
64.0
 40
65.0
 40
65.0
 40
65.0
 40
66.0
 40
66.0
 40
66.0
 40
67.0
 40
67.0
 40
67.0
 40
68.0
 40
68.0
 40
68.0
 40
69.0
 40
69.0
 40
69.0
 40
70.0
 40
70.0
 40
70.0
 40
71.0
 40
71.0
 40
71.0
 40
72.0
 40
72.0
 40
72.0
 40
73.0
 40
73.0
 40
73.0
 40
74.0
 40
74.0
 40
74.0
 40
75.0
 40
75.0
 40
75.0
 40
76.0
 40
76.0
 40
76.0
 40
77.0
 40
77.0
 40
77.0
 40
78.0
 40
78.0
 40
78.0
 40
79.0
 40
79.0
 40
79.0
 40
80.0
 40
80.0
 40
80.0
 40
80.0
 10
1960.759833377902
 20
-642.9630880945042
 30
0.0
 10
1960.759833377902
 20
-660.2942950706292
 30
0.0
 10
1960.759833377902
 20
-677.6254410192278
 30
0.0
 10
1960.759833377902
 20
-694.9566174815891
 30
0.0
 10
1960.008218373438
 20
-695.2139095292359
 30
0.0
 10
1959.078891214622
 20
-695.271611054628
 30
0.0
 10
1958.531718420692
 20
-695.758549680856
 30
0.0
 10
1951.626820071784
 20
-701.9044181809477
 30
0.0
 10
1944.77525978019
 20
-708.1102157111127
 30
0.0
 10
1937.913935084513
 20
-714.3049367453932
 30
0.0
 10
1930.929212732206
 20
-720.611277123875
 30
0.0
 10
1924.014549979212
 20
-726.9971668818871
 30
0.0
 10
1916.951834449275
 20
-733.2148952932948
 30
0.0
 10
1903.975673750239
 20
-744.6383021464317
 30
0.0
 10
1890.864276054621
 20
-755.9079501489878
 30
0.0
 10
1877.903250181917
 20
-767.3480480303579
 30
0.0
 10
1867.882164324241
 20
-776.1931944985381
 30
0.0
 10
1858.052094621484
 20
-785.2544699483933
 30
0.0
 10
1848.051636067437
 20
-794.1231425276674
 30
0.0
 10
1834.246233351458
 20
-806.3657523697966
 30
0.0
 10
1820.343674814831
 20
-818.4986652347798
 30
0.0
 10
1806.516180134608
 20
-830.716406360255
 30
0.0
 10
1799.963166497922
 20
-836.5065454140149
 30
0.0
 10
1793.537090114347
 20
-842.4408314830835
 30
0.0
 10
1786.966256440206
 20
-848.2104652882645
 30
0.0
 10
1773.975571190093
 20
-859.6173336819811
 30
0.0
 10
1760.874792283917
 20
-870.8990956483558
 30
0.0
 10
1747.913644356162
 20
-882.3392545572515
 30
0.0
 10
1737.892558498486
 20
-891.1843399979061
 30
0.0
 10
1728.062610850779
 20
-900.2458290441009
 30
0.0
 10
1718.062030241681
 20
-909.1142880270354
 30
0.0
 10
1704.256627525703
 20
-921.3568978691646
 30
0.0
 10
1690.354191044125
 20
-933.4897802203859
 30
0.0
 10
1676.526818418955
 20
-945.7076128871486
 30
0.0
 10
1669.97380478227
 20
-951.4977824546713
 30
0.0
 10
1663.547728398693
 20
-957.4320990375027
 30
0.0
 10
1656.977016779603
 20
-963.2017023289209
 30
0.0
 10
1643.98633152949
 20
-974.6086622639259
 30
0.0
 10
1630.885552623315
 20
-985.8904547440634
 30
0.0
 10
1617.924404695559
 20
-997.3305526254335
 30
0.0
 10
1607.903318837883
 20
-1006.175577038563
 30
0.0
 10
1598.075324070993
 20
-1015.239202048151
 30
0.0
 10
1588.072180305824
 20
-1024.104853764911
 30
0.0
 10
1574.387734145452
 20
-1036.233159051717
 30
0.0
 10
1560.598808861367
 20
-1048.243315049091
 30
0.0
 10
1546.894345672619
 20
-1060.349101178976
 30
0.0
 10
1540.215859443437
 20
-1066.248571044727
 30
0.0
 10
1533.680665844207
 20
-1072.310435155923
 30
0.0
 10
1526.98655656849
 20
-1078.191840874118
 30
0.0
 10
1513.999166804755
 20
-1089.602340405603
 30
0.0
 10
1500.896068852611
 20
-1100.881508702143
 30
0.0
 10
1487.934920924856
 20
-1112.321728638564
 30
0.0
 10
1477.913835067178
 20
-1121.166814079219
 30
0.0
 10
1468.108664594838
 20
-1130.256680924787
 30
0.0
 10
1458.078180498231
 20
-1139.090842438372
 30
0.0
 10
1442.509936679704
 20
-1152.802323792555
 30
0.0
 10
1426.776430322036
 20
-1166.326206533251
 30
0.0
 10
1411.219537623258
 20
-1180.050442640271
 30
0.0
 10
1400.822278098196
 20
-1189.223062810463
 30
0.0
 10
1390.692807355173
 20
-1198.699355947705
 30
0.0
 10
1380.295425775061
 20
-1207.871976117895
 30
0.0
 10
1364.738411021233
 20
-1221.596151197389
 30
0.0
 10
1348.991966828149
 20
-1235.105387331958
 30
0.0
 10
1333.44056660667
 20
-1248.835848246581
 30
0.0
 10
1322.922350526002
 20
-1258.122467834468
 30
0.0
 10
1312.534001019669
 20
-1267.559215135165
 30
0.0
 10
1302.206434928765
 20
-1277.058210511907
 30
0.0
 10
1284.189034455547
 20
-1293.630235070399
 30
0.0
 10
1266.273427894919
 20
-1310.312963560211
 30
0.0
 10
1248.294474762788
 20
-1326.926791973694
 30
0.0
 10
1240.283147375965
 20
-1334.329796986003
 30
0.0
 10
1232.199807509012
 20
-1341.654930875733
 30
0.0
 10
1224.186527241374
 20
-1349.055983007225
 30
0.0
 10
1206.325601343622
 20
-1365.552211379007
 30
0.0
 10
1188.496287704098
 20
-1382.082981330239
 30
0.0
 10
1170.637436742214
 20
-1398.581528747991
 30
0.0
 10
1162.502833753817
 20
-1406.096458242127
 30
0.0
 10
1154.310864891417
 20
-1413.549505825375
 30
0.0
 10
1146.176506013118
 20
-1421.064557374562
 30
0.0
 10
1128.317777106287
 20
-1437.563470957466
 30
0.0
 10
1110.490660457681
 20
-1454.096315844568
 30
0.0
 10
1092.628269899316
 20
-1470.591201610787
 30
0.0
 10
1080.118237440303
 20
-1482.143468084087
 30
0.0
 10
1067.529967693554
 20
-1493.6113945171
 30
0.0
 10
1055.050693107407
 20
-1505.19685996429
 30
0.0
 10
1037.6241611364
 20
-1521.375256983096
 30
0.0
 10
1020.266651296772
 20
-1537.628107583052
 30
0.0
 10
1002.879604134785
 20
-1553.849223869729
 30
0.0
 10
1001.879729156452
 20
-1553.849223869729
 30
0.0
 10
1000.879854178118
 20
-1553.849223869729
 30
0.0
 10
999.8799791997853
 20
-1553.849223869729
 30
0.0
 10
995.611469953903
 20
-1549.747441823605
 30
0.0
 10
991.3995332241902
 20
-1545.584632251945
 30
0.0
 10
987.0639547277478
 20
-1541.555106796051
 30
0.0
 10
973.735726233911
 20
-1529.167861718408
 30
0.0
 10
960.370148894448
 20
-1516.820528642464
 30
0.0
 10
947.0001165456215
 20
-1504.478199823614
 30
0.0
 10
934.364184301432
 20
-1492.813520648282
 30
0.0
 10
921.6945648631481
 20
-1481.185213878169
 30
0.0
 10
909.057228985871
 20
-1469.5221214185
 30
0.0
 10
895.8081531926509
 20
-1457.2944022926
 30
0.0
 10
882.5878213639571
 20
-1445.03568118373
 30
0.0
 10
869.3400881762982
 20
-1432.806497397218
 30
0.0
 10
856.5815516333132
 20
-1421.028917299651
 30
0.0
 10
843.7957357864143
 20
-1409.280996579491
 30
0.0
 10
831.037260270954
 20
-1397.503294426873
 30
0.0
 10
817.7895881108207
 20
-1385.274110640361
 30
0.0
 10
804.5683408692439
 20
-1373.0163659719
 30
0.0
 10
791.3206076815859
 20
-1360.787304240439
 30
0.0
 10
778.5621321661256
 20
-1349.009785170396
 30
0.0
 10
765.7761332366499
 20
-1337.261925477764
 30
0.0
 10
753.017596693664
 20
-1325.484406407721
 30
0.0
 10
739.7699855610572
 20
-1313.255222621208
 30
0.0
 10
726.5588688887183
 20
-1300.986370943099
 30
0.0
 10
713.2983199206983
 20
-1288.77122348746
 30
0.0
 10
701.2621661974472
 20
-1277.683986758722
 30
0.0
 10
689.266107558471
 20
-1266.55104041336
 30
0.0
 10
677.0980123250174
 20
-1255.609964608273
 30
0.0
 10
662.5097485115002
 20
-1242.49289135278
 30
0.0
 10
647.765498342721
 20
-1229.549136269803
 30
0.0
 10
633.074708286309
 20
-1216.546367569634
 30
0.0
 10
618.7575287412101
 20
-1203.874307030328
 30
0.0
 10
604.4225291586554
 20
-1191.222324546923
 30
0.0
 10
590.0953410993689
 20
-1178.561554099842
 30
0.0
 10
575.7682140676079
 20
-1165.900661597709
 30
0.0
 10
561.4333365401035
 20
-1153.248679114304
 30
0.0
 10
547.1161569950045
 20
-1140.576496519949
 30
0.0
 10
532.4254279661181
 20
-1127.573666792254
 30
0.0
 10
517.7595981676486
 20
-1114.542581320238
 30
0.0
 10
503.0687775974739
 20
-1101.539812620069
 30
0.0
 10
488.7516895936624
 20
-1088.867691053238
 30
0.0
 10
474.4166594973449
 20
-1076.215708569833
 30
0.0
 10
460.0895019518211
 20
-1063.55493812275
 30
0.0
 10
445.7623749200602
 20
-1050.894167675669
 30
0.0
 10
431.4274363650311
 20
-1038.242063137213
 30
0.0
 10
417.1103483612205
 20
-1025.569941570382
 30
0.0
 10
402.4195277910449
 20
-1012.567111842687
 30
0.0
 10
387.7538810751521
 20
-999.5359043156204
 30
0.0
 10
373.0630605049773
 20
-986.5330745879264
 30
0.0
 10
358.7459114736412
 20
-973.8609530210961
 30
0.0
 10
344.280770692887
 20
-961.3525072777447
 30
0.0
 10
330.1199131544408
 20
-948.508349116436
 30
0.0
 10
315.6808921546153
 20
-935.4119031645741
 30
0.0
 10
301.5992483443106
 20
-921.9222568657024
 30
0.0
 10
287.2338112833959
 20
-908.7435458094224
 30
0.0
 10
278.3645436857487
 20
-900.6069289126799
 30
0.0
 10
269.3045040432853
 20
-892.6757306668824
 30
0.0
 10
260.2454408412304
 20
-884.7490484579739
 30
0.0
 10
247.7335165289242
 20
-873.8010765425024
 30
0.0
 10
235.1271521208546
 20
-862.9610623196986
 30
0.0
 10
222.5907710276906
 20
-852.0409189558704
 30
0.0
 10
216.7487128065841
 20
-846.9520777117732
 30
0.0
 10
211.0208981132746
 20
-841.7317221501526
 30
0.0
 10
205.1624234877991
 20
-836.6621045765987
 30
0.0
 10
193.3446262509051
 20
-826.435630581741
 30
0.0
 10
181.4117616146186
 20
-816.3414337484755
 30
0.0
 10
169.6425575449302
 20
-806.0596688154856
 30
0.0
 10
160.0765615735945
 20
-797.7026510102805
 30
0.0
 10
150.7235364094877
 20
-789.1023774883015
 30
0.0
 10
141.1980932288689
 20
-780.6983379746744
 30
0.0
 10
127.8586356703345
 20
-768.9294237857321
 30
0.0
 10
114.3845590189148
 20
-757.312529162893
 30
0.0
 10
101.0933589761953
 20
-745.4897581826681
 30
0.0
 10
94.9048780064004
 20
-739.9849838383006
 30
0.0
 10
89.19682860292323
 20
-733.9349285532962
 30
0.0
 10
82.9447645799628
 20
-728.5078727626951
 30
0.0
 10
70.03898387474783
 20
-717.3051109281223
 30
0.0
 10
56.86439980488103
 20
-706.4120027581048
 30
0.0
 10
43.96033597559926
 20
-695.2072880427158
 30
0.0
 10
42.72964392981703
 20
-694.1386350431076
 30
0.0
 10
42.10440763356837
 20
-691.7776936765731
 30
0.0
 10
42.08332834482735
 20
-690.0061256378758
 30
0.0
 10
41.92868483351594
 20
-677.0097038003623
 30
0.0
 10
41.98754337881019
 20
-664.0105662379628
 30
0.0
 10
42.00716885362726
 20
-651.0123135746835
 30
0.0
 10
42.01311856058965
 20
-647.0717052234904
 30
0.0
 10
40.92310461590569
 20
-642.7509259019889
 30
0.0
 10
45.46246319807142
 20
-639.9634936732682
 30
0.0
 10
43.97493371202927
 20
-639.9634936732682
 30
0.0
 10
42.48740446437569
 20
-639.9634936732682
 30
0.0
 10
40.99987497833354
 20
-639.9634936732682
 30
0.0
 10
40.99987497833354
 20
-639.6301918425688
 30
0.0
 10
40.99987497833354
 20
-639.2969205256331
 30
0.0
 10
40.99987497833354
 20
-638.9636186949347
 30
0.0
 10
46.46527035829513
 20
-639.8709454307973
 30
0.0
 10
50.08149357240291
 20
-637.1170478273561
 30
0.0
 10
54.07798311232727
 20
-633.6469922117858
 30
0.0
 10
66.82640911073122
 20
-622.5779721994195
 30
0.0
 10
80.1224398635186
 20
-612.1423873883232
 30
0.0
 10
93.0977843194014
 20
-601.3311018731638
 30
0.0
 10
106.0948164321699
 20
-590.5017369535653
 30
0.0
 10
118.8924716190222
 20
-579.4328695100121
 30
0.0
 10
131.9033874938496
 20
-568.6204549856311
 30
0.0
 10
144.5101333239536
 20
-558.1439359617834
 30
0.0
 10
157.311335735727
 20
-547.9017931497447
 30
0.0
 10
169.9635165585896
 20
-537.4794970823332
 30
0.0
 10
181.8390610915194
 20
-527.6969525650848
 30
0.0
 10
193.6518540713196
 20
-517.83791004458
 30
0.0
 10
205.4548216195099
 20
-507.9677605144279
 30
0.0
 10
218.0508266051193
 20
-497.4344248643092
 30
0.0
 10
230.616943360099
 20
-486.8652355429394
 30
0.0
 10
243.170030738378
 20
-476.280774083305
 30
0.0
 10
254.121542250331
 20
-467.0467220802248
 30
0.0
 10
264.9748299599378
 20
-457.6952226042567
 30
0.0
 10
275.9841803092149
 20
-448.5309479481821
 30
0.0
 10
288.9646129350385
 20
-437.7259253828315
 30
0.0
 10
302.1762025706994
 20
-427.1967472328888
 30
0.0
 10
315.0814492850668
 20
-416.3037840032448
 30
0.0
 10
325.8893325156778
 20
-407.1811530049063
 30
0.0
 10
336.7500045558745
 20
-398.0720281608128
 30
0.0
 10
346.9567666599851
 20
-388.298412733393
 30
0.0
 10
360.2820353188326
 20
-375.5386327545748
 30
0.0
 10
372.985647088839
 20
-362.1295733031702
 30
0.0
 10
385.9567425032556
 20
-348.9998706873348
 30
0.0
 10
796.572087281228
 20
-348.9998749783335
 30
0.0
 10
1207.1874320592
 20
-348.9998749783335
 30
0.0
 10
1617.802715809647
 20
-348.9998398755861
 30
0.0
 10
1635.261836479289
 20
-366.2974901158714
 30
0.0
 10
1652.381522051915
 20
-383.9568459110078
 30
0.0
 10
1670.295786006982
 20
-400.7694447893728
 30
0.0
 10
1682.861597624335
 20
-412.5624610366795
 30
0.0
 10
1696.447545358496
 20
-423.2768577266143
 30
0.0
 10
1709.69479032595
 20
-434.3329704173311
 30
0.0
 10
1722.665092382536
 20
-445.1580481532601
 30
0.0
 10
1735.841179255218
 20
-455.7362695484089
 30
0.0
 10
1748.820147220429
 20
-466.5510031187605
 30
0.0
 10
1761.82084098473
 20
-477.383831350433
 30
0.0
 10
1774.631983254725
 20
-488.4443990505133
 30
0.0
 10
1787.632799074077
 20
-499.2771052271346
 30
0.0
 10
1800.611767039289
 20
-510.0916709717912
 30
0.0
 10
1813.781507049314
 20
-520.6776123489199
 30
0.0
 10
1826.760597069577
 20
-531.4923001486277
 30
0.0
 10
1839.761290833878
 20
-542.3250520958927
 30
0.0
 10
1852.563034864941
 20
-553.3967878331459
 30
0.0
 10
1865.572638647969
 20
-564.2186311102223
 30
0.0
 10
1882.47189279837
 20
-578.2761537910592
 30
0.0
 10
1899.509679431732
 20
-592.1668729877338
 30
0.0
 10
1916.451774905057
 20
-606.1731630608865
 30
0.0
 10
1931.247288195285
 20
-618.404879489708
 30
0.0
 10
1945.992514804473
 20
-630.697409847724
 30
0.0
 10
1960.759833377902
 20
-642.9630880945042
 30
0.0
  0
HATCH
  5
4A
330
45
100
AcDbEntity
  8
Layer 1
 62
     7
420
 16777215
100
AcDbHatch
 10
0.0
 20
0.0
 30
0.0
210
0.0
220
0.0
230
1.0
  2
SOLID
 70
     1
 71
     0
 91
        1
 92
        1
 93
        1
 72
     4
 94
        3
 73
     0
 74
     1
 95
      245
 96
      241
 40
0.0
 40
0.0
 40
0.0
 40
0.0
 40
1.0
 40
1.0
 40
1.0
 40
2.0
 40
2.0
 40
2.0
 40
3.0
 40
3.0
 40
3.0
 40
4.0
 40
4.0
 40
4.0
 40
5.0
 40
5.0
 40
5.0
 40
6.0
 40
6.0
 40
6.0
 40
7.0
 40
7.0
 40
7.0
 40
8.0
 40
8.0
 40
8.0
 40
9.0
 40
9.0
 40
9.0
 40
10.0
 40
10.0
 40
10.0
 40
11.0
 40
11.0
 40
11.0
 40
12.0
 40
12.0
 40
12.0
 40
13.0
 40
13.0
 40
13.0
 40
14.0
 40
14.0
 40
14.0
 40
15.0
 40
15.0
 40
15.0
 40
16.0
 40
16.0
 40
16.0
 40
17.0
 40
17.0
 40
17.0
 40
18.0
 40
18.0
 40
18.0
 40
19.0
 40
19.0
 40
19.0
 40
20.0
 40
20.0
 40
20.0
 40
21.0
 40
21.0
 40
21.0
 40
22.0
 40
22.0
 40
22.0
 40
23.0
 40
23.0
 40
23.0
 40
24.0
 40
24.0
 40
24.0
 40
25.0
 40
25.0
 40
25.0
 40
26.0
 40
26.0
 40
26.0
 40
27.0
 40
27.0
 40
27.0
 40
28.0
 40
28.0
 40
28.0
 40
29.0
 40
29.0
 40
29.0
 40
30.0
 40
30.0
 40
30.0
 40
31.0
 40
31.0
 40
31.0
 40
32.0
 40
32.0
 40
32.0
 40
33.0
 40
33.0
 40
33.0
 40
34.0
 40
34.0
 40
34.0
 40
35.0
 40
35.0
 40
35.0
 40
36.0
 40
36.0
 40
36.0
 40
37.0
 40
37.0
 40
37.0
 40
38.0
 40
38.0
 40
38.0
 40
39.0
 40
39.0
 40
39.0
 40
40.0
 40
40.0
 40
40.0
 40
41.0
 40
41.0
 40
41.0
 40
42.0
 40
42.0
 40
42.0
 40
43.0
 40
43.0
 40
43.0
 40
44.0
 40
44.0
 40
44.0
 40
45.0
 40
45.0
 40
45.0
 40
46.0
 40
46.0
 40
46.0
 40
47.0
 40
47.0
 40
47.0
 40
48.0
 40
48.0
 40
48.0
 40
49.0
 40
49.0
 40
49.0
 40
50.0
 40
50.0
 40
50.0
 40
51.0
 40
51.0
 40
51.0
 40
52.0
 40
52.0
 40
52.0
 40
53.0
 40
53.0
 40
53.0
 40
54.0
 40
54.0
 40
54.0
 40
55.0
 40
55.0
 40
55.0
 40
56.0
 40
56.0
 40
56.0
 40
57.0
 40
57.0
 40
57.0
 40
58.0
 40
58.0
 40
58.0
 40
59.0
 40
59.0
 40
59.0
 40
60.0
 40
60.0
 40
60.0
 40
61.0
 40
61.0
 40
61.0
 40
62.0
 40
62.0
 40
62.0
 40
63.0
 40
63.0
 40
63.0
 40
64.0
 40
64.0
 40
64.0
 40
65.0
 40
65.0
 40
65.0
 40
66.0
 40
66.0
 40
66.0
 40
67.0
 40
67.0
 40
67.0
 40
68.0
 40
68.0
 40
68.0
 40
69.0
 40
69.0
 40
69.0
 40
70.0
 40
70.0
 40
70.0
 40
71.0
 40
71.0
 40
71.0
 40
72.0
 40
72.0
 40
72.0
 40
73.0
 40
73.0
 40
73.0
 40
74.0
 40
74.0
 40
74.0
 40
75.0
 40
75.0
 40
75.0
 40
76.0
 40
76.0
 40
76.0
 40
77.0
 40
77.0
 40
77.0
 40
78.0
 40
78.0
 40
78.0
 40
79.0
 40
79.0
 40
79.0
 40
80.0
 40
80.0
 40
80.0
 40
80.0
 10
1960.759833377902
 20
-642.9630880945042
 10
1960.759833377902
 20
-660.2942950706292
 10
1960.759833377902
 20
-677.6254410192278
 10
1960.759833377902
 20
-694.9566174815891
 10
1960.008218373438
 20
-695.2139095292359
 10
1959.078891214622
 20
-695.271611054628
 10
1958.531718420692
 20
-695.758549680856
 10
1951.626820071784
 20
-701.9044181809477
 10
1944.77525978019
 20
-708.1102157111127
 10
1937.913935084513
 20
-714.3049367453932
 10
1930.929212732206
 20
-720.611277123875
 10
1924.014549979212
 20
-726.9971668818871
 10
1916.951834449275
 20
-733.2148952932948
 10
1903.975673750239
 20
-744.6383021464317
 10
1890.864276054621
 20
-755.9079501489878
 10
1877.903250181917
 20
-767.3480480303579
 10
1867.882164324241
 20
-776.1931944985381
 10
1858.052094621484
 20
-785.2544699483933
 10
1848.051636067437
 20
-794.1231425276674
 10
1834.246233351458
 20
-806.3657523697966
 10
1820.343674814831
 20
-818.4986652347798
 10
1806.516180134608
 20
-830.716406360255
 10
1799.963166497922
 20
-836.5065454140149
 10
1793.537090114347
 20
-842.4408314830835
 10
1786.966256440206
 20
-848.2104652882645
 10
1773.975571190093
 20
-859.6173336819811
 10
1760.874792283917
 20
-870.8990956483558
 10
1747.913644356162
 20
-882.3392545572515
 10
1737.892558498486
 20
-891.1843399979061
 10
1728.062610850779
 20
-900.2458290441009
 10
1718.062030241681
 20
-909.1142880270354
 10
1704.256627525703
 20
-921.3568978691646
 10
1690.354191044125
 20
-933.4897802203859
 10
1676.526818418955
 20
-945.7076128871486
 10
1669.97380478227
 20
-951.4977824546713
 10
1663.547728398693
 20
-957.4320990375027
 10
1656.977016779603
 20
-963.2017023289209
 10
1643.98633152949
 20
-974.6086622639259
 10
1630.885552623315
 20
-985.8904547440634
 10
1617.924404695559
 20
-997.3305526254335
 10
1607.903318837883
 20
-1006.175577038563
 10
1598.075324070993
 20
-1015.239202048151
 10
1588.072180305824
 20
-1024.104853764911
 10
1574.387734145452
 20
-1036.233159051717
 10
1560.598808861367
 20
-1048.243315049091
 10
1546.894345672619
 20
-1060.349101178976
 10
1540.215859443437
 20
-1066.248571044727
 10
1533.680665844207
 20
-1072.310435155923
 10
1526.98655656849
 20
-1078.191840874118
 10
1513.999166804755
 20
-1089.602340405603
 10
1500.896068852611
 20
-1100.881508702143
 10
1487.934920924856
 20
-1112.321728638564
 10
1477.913835067178
 20
-1121.166814079219
 10
1468.108664594838
 20
-1130.256680924787
 10
1458.078180498231
 20
-1139.090842438372
 10
1442.509936679704
 20
-1152.802323792555
 10
1426.776430322036
 20
-1166.326206533251
 10
1411.219537623258
 20
-1180.050442640271
 10
1400.822278098196
 20
-1189.223062810463
 10
1390.692807355173
 20
-1198.699355947705
 10
1380.295425775061
 20
-1207.871976117895
 10
1364.738411021233
 20
-1221.596151197389
 10
1348.991966828149
 20
-1235.105387331958
 10
1333.44056660667
 20
-1248.835848246581
 10
1322.922350526002
 20
-1258.122467834468
 10
1312.534001019669
 20
-1267.559215135165
 10
1302.206434928765
 20
-1277.058210511907
 10
1284.189034455547
 20
-1293.630235070399
 10
1266.273427894919
 20
-1310.312963560211
 10
1248.294474762788
 20
-1326.926791973694
 10
1240.283147375965
 20
-1334.329796986003
 10
1232.199807509012
 20
-1341.654930875733
 10
1224.186527241374
 20
-1349.055983007225
 10
1206.325601343622
 20
-1365.552211379007
 10
1188.496287704098
 20
-1382.082981330239
 10
1170.637436742214
 20
-1398.581528747991
 10
1162.502833753817
 20
-1406.096458242127
 10
1154.310864891417
 20
-1413.549505825375
 10
1146.176506013118
 20
-1421.064557374562
 10
1128.317777106287
 20
-1437.563470957466
 10
1110.490660457681
 20
-1454.096315844568
 10
1092.628269899316
 20
-1470.591201610787
 10
1080.118237440303
 20
-1482.143468084087
 10
1067.529967693554
 20
-1493.6113945171
 10
1055.050693107407
 20
-1505.19685996429
 10
1037.6241611364
 20
-1521.375256983096
 10
1020.266651296772
 20
-1537.628107583052
 10
1002.879604134785
 20
-1553.849223869729
 10
1001.879729156452
 20
-1553.849223869729
 10
1000.879854178118
 20
-1553.849223869729
 10
999.8799791997853
 20
-1553.849223869729
 10
995.611469953903
 20
-1549.747441823605
 10
991.3995332241902
 20
-1545.584632251945
 10
987.0639547277478
 20
-1541.555106796051
 10
973.735726233911
 20
-1529.167861718408
 10
960.370148894448
 20
-1516.820528642464
 10
947.0001165456215
 20
-1504.478199823614
 10
934.364184301432
 20
-1492.813520648282
 10
921.6945648631481
 20
-1481.185213878169
 10
909.057228985871
 20
-1469.5221214185
 10
895.8081531926509
 20
-1457.2944022926
 10
882.5878213639571
 20
-1445.03568118373
 10
869.3400881762982
 20
-1432.806497397218
 10
856.5815516333132
 20
-1421.028917299651
 10
843.7957357864143
 20
-1409.280996579491
 10
831.037260270954
 20
-1397.503294426873
 10
817.7895881108207
 20
-1385.274110640361
 10
804.5683408692439
 20
-1373.0163659719
 10
791.3206076815859
 20
-1360.787304240439
 10
778.5621321661256
 20
-1349.009785170396
 10
765.7761332366499
 20
-1337.261925477764
 10
753.017596693664
 20
-1325.484406407721
 10
739.7699855610572
 20
-1313.255222621208
 10
726.5588688887183
 20
-1300.986370943099
 10
713.2983199206983
 20
-1288.77122348746
 10
701.2621661974472
 20
-1277.683986758722
 10
689.266107558471
 20
-1266.55104041336
 10
677.0980123250174
 20
-1255.609964608273
 10
662.5097485115002
 20
-1242.49289135278
 10
647.765498342721
 20
-1229.549136269803
 10
633.074708286309
 20
-1216.546367569634
 10
618.7575287412101
 20
-1203.874307030328
 10
604.4225291586554
 20
-1191.222324546923
 10
590.0953410993689
 20
-1178.561554099842
 10
575.7682140676079
 20
-1165.900661597709
 10
561.4333365401035
 20
-1153.248679114304
 10
547.1161569950045
 20
-1140.576496519949
 10
532.4254279661181
 20
-1127.573666792254
 10
517.7595981676486
 20
-1114.542581320238
 10
503.0687775974739
 20
-1101.539812620069
 10
488.7516895936624
 20
-1088.867691053238
 10
474.4166594973449
 20
-1076.215708569833
 10
460.0895019518211
 20
-1063.55493812275
 10
445.7623749200602
 20
-1050.894167675669
 10
431.4274363650311
 20
-1038.242063137213
 10
417.1103483612205
 20
-1025.569941570382
 10
402.4195277910449
 20
-1012.567111842687
 10
387.7538810751521
 20
-999.5359043156204
 10
373.0630605049773
 20
-986.5330745879264
 10
358.7459114736412
 20
-973.8609530210961
 10
344.280770692887
 20
-961.3525072777447
 10
330.1199131544408
 20
-948.508349116436
 10
315.6808921546153
 20
-935.4119031645741
 10
301.5992483443106
 20
-921.9222568657024
 10
287.2338112833959
 20
-908.7435458094224
 10
278.3645436857487
 20
-900.6069289126799
 10
269.3045040432853
 20
-892.6757306668824
 10
260.2454408412304
 20
-884.7490484579739
 10
247.7335165289242
 20
-873.8010765425024
 10
235.1271521208546
 20
-862.9610623196986
 10
222.5907710276906
 20
-852.0409189558704
 10
216.7487128065841
 20
-846.9520777117732
 10
211.0208981132746
 20
-841.7317221501526
 10
205.1624234877991
 20
-836.6621045765987
 10
193.3446262509051
 20
-826.435630581741
 10
181.4117616146186
 20
-816.3414337484755
 10
169.6425575449302
 20
-806.0596688154856
 10
160.0765615735945
 20
-797.7026510102805
 10
150.7235364094877
 20
-789.1023774883015
 10
141.1980932288689
 20
-780.6983379746744
 10
127.8586356703345
 20
-768.9294237857321
 10
114.3845590189148
 20
-757.312529162893
 10
101.0933589761953
 20
-745.4897581826681
 10
94.9048780064004
 20
-739.9849838383006
 10
89.19682860292323
 20
-733.9349285532962
 10
82.9447645799628
 20
-728.5078727626951
 10
70.03898387474783
 20
-717.3051109281223
 10
56.86439980488103
 20
-706.4120027581048
 10
43.96033597559926
 20
-695.2072880427158
 10
42.72964392981703
 20
-694.1386350431076
 10
42.10440763356837
 20
-691.7776936765731
 10
42.08332834482735
 20
-690.0061256378758
 10
41.92868483351594
 20
-677.0097038003623
 10
41.98754337881019
 20
-664.0105662379628
 10
42.00716885362726
 20
-651.0123135746835
 10
42.01311856058965
 20
-647.0717052234904
 10
40.92310461590569
 20
-642.7509259019889
 10
45.46246319807142
 20
-639.9634936732682
 10
43.97493371202927
 20
-639.9634936732682
 10
42.48740446437569
 20
-639.9634936732682
 10
40.99987497833354
 20
-639.9634936732682
 10
40.99987497833354
 20
-639.6301918425688
 10
40.99987497833354
 20
-639.2969205256331
 10
40.99987497833354
 20
-638.9636186949347
 10
46.46527035829513
 20
-639.8709454307973
 10
50.08149357240291
 20
-637.1170478273561
 10
54.07798311232727
 20
-633.6469922117858
 10
66.82640911073122
 20
-622.5779721994195
 10
80.1224398635186
 20
-612.1423873883232
 10
93.0977843194014
 20
-601.3311018731638
 10
106.0948164321699
 20
-590.5017369535653
 10
118.8924716190222
 20
-579.4328695100121
 10
131.9033874938496
 20
-568.6204549856311
 10
144.5101333239536
 20
-558.1439359617834
 10
157.311335735727
 20
-547.9017931497447
 10
169.9635165585896
 20
-537.4794970823332
 10
181.8390610915194
 20
-527.6969525650848
 10
193.6518540713196
 20
-517.83791004458
 10
205.4548216195099
 20
-507.9677605144279
 10
218.0508266051193
 20
-497.4344248643092
 10
230.616943360099
 20
-486.8652355429394
 10
243.170030738378
 20
-476.280774083305
 10
254.121542250331
 20
-467.0467220802248
 10
264.9748299599378
 20
-457.6952226042567
 10
275.9841803092149
 20
-448.5309479481821
 10
288.9646129350385
 20
-437.7259253828315
 10
302.1762025706994
 20
-427.1967472328888
 10
315.0814492850668
 20
-416.3037840032448
 10
325.8893325156778
 20
-407.1811530049063
 10
336.7500045558745
 20
-398.0720281608128
 10
346.9567666599851
 20
-388.298412733393
 10
360.2820353188326
 20
-375.5386327545748
 10
372.985647088839
 20
-362.1295733031702
 10
385.9567425032556
 20
-348.9998706873348
 10
796.572087281228
 20
-348.9998749783335
 10
1207.1874320592
 20
-348.9998749783335
 10
1617.802715809647
 20
-348.9998398755861
 10
1635.261836479289
 20
-366.2974901158714
 10
1652.381522051915
 20
-383.9568459110078
 10
1670.295786006982
 20
-400.7694447893728
 10
1682.861597624335
 20
-412.5624610366795
 10
1696.447545358496
 20
-423.2768577266143
 10
1709.69479032595
 20
-434.3329704173311
 10
1722.665092382536
 20
-445.1580481532601
 10
1735.841179255218
 20
-455.7362695484089
 10
1748.820147220429
 20
-466.5510031187605
 10
1761.82084098473
 20
-477.383831350433
 10
1774.631983254725
 20
-488.4443990505133
 10
1787.632799074077
 20
-499.2771052271346
 10
1800.611767039289
 20
-510.0916709717912
 10
1813.781507049314
 20
-520.6776123489199
 10
1826.760597069577
 20
-531.4923001486277
 10
1839.761290833878
 20
-542.3250520958927
 10
1852.563034864941
 20
-553.3967878331459
 10
1865.572638647969
 20
-564.2186311102223
 10
1882.47189279837
 20
-578.2761537910592
 10
1899.509679431732
 20
-592.1668729877338
 10
1916.451774905057
 20
-606.1731630608865
 10
1931.247288195285
 20
-618.404879489708
 10
1945.992514804473
 20
-630.697409847724
 10
1960.759833377902
 20
-642.9630880945042
 97
        0
 97
        0
 75
     2
 76
     1
 98
        0
  0
ENDBLK
  5
48
330
45
100
AcDbEntity
  8
0
100
AcDbBlockEnd
  0
ENDSEC
  0
SECTION
  2
ENTITIES
  0
INSERT
  5
42
330
1F
100
AcDbEntity
  8
Layer 1
100
AcDbBlockReference
  2
block 2
 10
0.0
 20
0.0
 30
0.0
  0
ENDSEC
  0
SECTION
  2
OBJECTS
  0
DICTIONARY
  5
C
330
0
100
AcDbDictionary
281
     1
  3
ACAD_GROUP
350
D
  3
ACAD_LAYOUT
350
1A
  3
ACAD_MATERIAL
350
3B
  3
ACAD_MLEADERSTYLE
350
4C
  3
ACAD_MLINESTYLE
350
17
  3
ACAD_PLOTSETTINGS
350
19
  3
ACAD_PLOTSTYLENAME
350
E
  3
ACAD_TABLESTYLE
350
4B
  3
ACAD_VISUALSTYLE
350
2A
  0
SUN
  5
3F
330
29
100
AcDbSun
 90
        1
290
     0
 63
     7
421
 16777215
 40
1.0
291
     1
 91
  2455826
 92
 54000000
292
     0
 70
     2
 71
   256
280
     1
  0
DICTIONARY
  5
D
102
{ACAD_REACTORS
330
C
102
}
330
C
100
AcDbDictionary
281
     1
  0
DICTIONARY
  5
1A
102
{ACAD_REACTORS
330
C
102
}
330
C
100
AcDbDictionary
281
     1
  3
Layout1
350
1E
  3
Layout2
350
26
  3
Model
350
22
  0
DICTIONARY
  5
3B
102
{ACAD_REACTORS
330
C
102
}
330
C
100
AcDbDictionary
281
     1
  3
ByBlock
350
3D
  3
ByLayer
350
3C
  3
Global
350
3E
  0
DICTIONARY
  5
4C
102
{ACAD_REACTORS
330
C
102
}
330
C
100
AcDbDictionary
281
     1
  0
DICTIONARY
  5
17
102
{ACAD_REACTORS
330
C
102
}
330
C
100
AcDbDictionary
281
     1
  3
Standard
350
18
  0
DICTIONARY
  5
19
102
{ACAD_REACTORS
330
C
102
}
330
C
100
AcDbDictionary
281
     1
  0
ACDBDICTIONARYWDFLT
  5
E
102
{ACAD_REACTORS
330
C
102
}
330
C
100
AcDbDictionary
281
     1
  3
Normal
350
F
100
AcDbDictionaryWithDefault
340
F
  0
DICTIONARY
  5
4B
102
{ACAD_REACTORS
330
C
102
}
330
C
100
AcDbDictionary
281
     1
  0
DICTIONARY
  5
2A
102
{ACAD_REACTORS
330
C
102
}
330
C
100
AcDbDictionary
281
     1
  3
2dWireframe
350
2F
  3
3D Hidden
350
31
  3
3dWireframe
350
30
  3
Basic
350
32
  3
Brighten
350
36
  3
ColorChange
350
3A
  3
Conceptual
350
34
  3
Dim
350
35
  3
Facepattern
350
39
  3
Flat
350
2B
  3
FlatWithEdges
350
2C
  3
Gouraud
350
2D
  3
GouraudWithEdges
350
2E
  3
Linepattern
350
38
  3
Realistic
350
33
  3
Thicken
350
37
  0
LAYOUT
  5
1E
102
{ACAD_REACTORS
330
1A
102
}
330
1A
100
AcDbPlotSettings
  1

  2
none_device
  4

  6

 40
0.0
 41
0.0
 42
0.0
 43
0.0
 44
0.0
 45
0.0
 46
0.0
 47
0.0
 48
0.0
 49
0.0
140
0.0
141
0.0
142
1.0
143
1.0
 70
   688
 72
     0
 73
     0
 74
     5
  7

 75
    16
 76
     0
 77
     2
 78
   300
147
1.0
148
0.0
149
0.0
100
AcDbLayout
  1
Layout1
 70
     1
 71
     1
 10
0.0
 20
0.0
 11
12.0
 21
9.0
 12
0.0
 22
0.0
 32
0.0
 14
1.000000000000000E+20
 24
1.000000000000000E+20
 34
1.000000000000000E+20
 15
-1.000000000000000E+20
 25
-1.000000000000000E+20
 35
-1.000000000000000E+20
146
0.0
 13
0.0
 23
0.0
 33
0.0
 16
1.0
 26
0.0
 36
0.0
 17
0.0
 27
1.0
 37
0.0
 76
     0
330
1B
  0
LAYOUT
  5
26
102
{ACAD_REACTORS
330
1A
102
}
330
1A
100
AcDbPlotSettings
  1

  2
none_device
  4

  6

 40
0.0
 41
0.0
 42
0.0
 43
0.0
 44
0.0
 45
0.0
 46
0.0
 47
0.0
 48
0.0
 49
0.0
140
0.0
141
0.0
142
1.0
143
1.0
 70
   688
 72
     0
 73
     0
 74
     5
  7

 75
    16
 76
     0
 77
     2
 78
   300
147
1.0
148
0.0
149
0.0
100
AcDbLayout
  1
Layout2
 70
     1
 71
     2
 10
0.0
 20
0.0
 11
0.0
 21
0.0
 12
0.0
 22
0.0
 32
0.0
 14
0.0
 24
0.0
 34
0.0
 15
0.0
 25
0.0
 35
0.0
146
0.0
 13
0.0
 23
0.0
 33
0.0
 16
1.0
 26
0.0
 36
0.0
 17
0.0
 27
1.0
 37
0.0
 76
     0
330
23
  0
LAYOUT
  5
22
102
{ACAD_REACTORS
330
1A
102
}
330
1A
100
AcDbPlotSettings
  1

  2
none_device
  4

  6

 40
0.0
 41
0.0
 42
0.0
 43
0.0
 44
0.0
 45
0.0
 46
0.0
 47
0.0
 48
0.0
 49
0.0
140
0.0
141
0.0
142
1.0
143
1.0
 70
  1712
 72
     0
 73
     0
 74
     0
  7

 75
     0
 76
     0
 77
     2
 78
   300
147
1.0
148
0.0
149
0.0
100
AcDbLayout
  1
Model
 70
     1
 71
     0
 10
0.0
 20
0.0
 11
12.0
 21
9.0
 12
0.0
 22
0.0
 32
0.0
 14
1.000000000000000E+20
 24
1.000000000000000E+20
 34
1.000000000000000E+20
 15
-1.000000000000000E+20
 25
-1.000000000000000E+20
 35
-1.000000000000000E+20
146
0.0
 13
0.0
 23
0.0
 33
0.0
 16
1.0
 26
0.0
 36
0.0
 17
0.0
 27
1.0
 37
0.0
 76
     0
330
1F
331
29
  0
MATERIAL
  5
3D
102
{ACAD_REACTORS
330
3B
102
}
330
3B
100
AcDbMaterial
  1
ByBlock
 72
     1
 94
      127
  0
MATERIAL
  5
3C
102
{ACAD_REACTORS
330
3B
102
}
330
3B
100
AcDbMaterial
  1
ByLayer
 72
     1
 94
      127
  0
MATERIAL
  5
3E
102
{ACAD_REACTORS
330
3B
102
}
330
3B
100
AcDbMaterial
  1
Global
 72
     1
 94
      127
  0
MLINESTYLE
  5
18
102
{ACAD_REACTORS
330
17
102
}
330
17
100
AcDbMlineStyle
  2
Standard
 70
     0
  3

 62
   256
 51
90.0
 52
90.0
 71
     2
 49
0.5
 62
   256
  6
BYLAYER
 49
-0.5
 62
   256
  6
BYLAYER
  0
ACDBPLACEHOLDER
  5
F
102
{ACAD_REACTORS
330
E
102
}
330
E
  0
VISUALSTYLE
  5
2F
102
{ACAD_REACTORS
330
2A
102
}
330
2A
100
AcDbVisualStyle
  2
2dWireframe
 70
     4
177
     2
291
     0
 71
     0
176
     1
 72
     2
176
     1
 73
     0
176
     1
 90
        0
176
     1
 40
-0.6
176
     1
 41
-30.0
176
     1
 62
     5
 63
     7
421
 16777215
176
     1
 74
     1
176
     1
 91
        4
176
     1
 64
     7
176
     1
 65
   257
176
     1
 75
     1
176
     1
175
     1
176
     1
 42
1.0
176
     1
 92
        0
176
     1
 66
   257
176
     1
 43
1.0
176
     1
 76
     1
176
     1
 77
     6
176
     1
 78
     2
176
     1
 67
     7
176
     1
 79
     5
176
     1
170
     0
176
     1
171
     0
176
     1
290
     0
176
     1
 93
        1
176
     1
 44
0.0
176
     1
173
     0
176
     1
  0
VISUALSTYLE
  5
31
102
{ACAD_REACTORS
330
2A
102
}
330
2A
100
AcDbVisualStyle
  2
3D Hidden
 70
     6
177
     2
291
     0
 71
     1
176
     1
 72
     2
176
     1
 73
     2
176
     1
 90
        0
176
     1
 40
-0.6
176
     1
 41
-30.0
176
     1
 62
     5
 63
     7
421
 16777215
176
     1
 74
     2
176
     1
 91
        2
176
     1
 64
     7
176
     1
 65
   257
176
     1
 75
     2
176
     1
175
     1
176
     1
 42
40.0
176
     1
 92
        0
176
     1
 66
   257
176
     1
 43
1.0
176
     1
 76
     1
176
     1
 77
     6
176
     1
 78
     2
176
     1
 67
     7
176
     1
 79
     3
176
     1
170
     0
176
     1
171
     0
176
     1
290
     0
176
     1
 93
        1
176
     1
 44
0.0
176
     1
173
     0
176
     1
  0
VISUALSTYLE
  5
30
102
{ACAD_REACTORS
330
2A
102
}
330
2A
100
AcDbVisualStyle
  2
3dWireframe
 70
     5
177
     2
291
     0
 71
     0
176
     1
 72
     2
176
     1
 73
     0
176
     1
 90
        0
176
     1
 40
-0.6
176
     1
 41
-30.0
176
     1
 62
     5
 63
     7
421
 16777215
176
     1
 74
     1
176
     1
 91
        4
176
     1
 64
     7
176
     1
 65
   257
176
     1
 75
     1
176
     1
175
     1
176
     1
 42
1.0
176
     1
 92
        0
176
     1
 66
   257
176
     1
 43
1.0
176
     1
 76
     1
176
     1
 77
     6
176
     1
 78
     2
176
     1
 67
     7
176
     1
 79
     5
176
     1
170
     0
176
     1
171
     0
176
     1
290
     0
176
     1
 93
        1
176
     1
 44
0.0
176
     1
173
     0
176
     1
  0
VISUALSTYLE
  5
32
102
{ACAD_REACTORS
330
2A
102
}
330
2A
100
AcDbVisualStyle
  2
Basic
 70
     7
177
     2
291
     1
 71
     1
176
     1
 72
     0
176
     1
 73
     1
176
     1
 90
        0
176
     1
 40
-0.6
176
     1
 41
-30.0
176
     1
 62
     5
 63
     7
421
 16777215
176
     1
 74
     0
176
     1
 91
        4
176
     1
 64
     7
176
     1
 65
   257
176
     1
 75
     1
176
     1
175
     1
176
     1
 42
1.0
176
     1
 92
        8
176
     1
 66
     7
176
     1
 43
1.0
176
     1
 76
     1
176
     1
 77
     6
176
     1
 78
     2
176
     1
 67
     7
176
     1
 79
     5
176
     1
170
     0
176
     1
171
     0
176
     1
290
     0
176
     1
 93
        1
176
     1
 44
0.0
176
     1
173
     0
176
     1
  0
VISUALSTYLE
  5
36
102
{ACAD_REACTORS
330
2A
102
}
330
2A
100
AcDbVisualStyle
  2
Brighten
 70
    12
177
     2
291
     1
 71
     2
176
     1
 72
     2
176
     1
 73
     0
176
     1
 90
        0
176
     1
 40
-0.6
176
     1
 41
-30.0
176
     1
 62
     5
 63
     7
421
 16777215
176
     1
 74
     1
176
     1
 91
        4
176
     1
 64
     7
176
     1
 65
   257
176
     1
 75
     1
176
     1
175
     1
176
     1
 42
1.0
176
     1
 92
        8
176
     1
 66
     7
176
     1
 43
1.0
176
     1
 76
     1
176
     1
 77
     6
176
     1
 78
     2
176
     1
 67
     7
176
     1
 79
     5
176
     1
170
     0
176
     1
171
     0
176
     1
290
     0
176
     1
 93
        1
176
     1
 44
50.0
176
     1
173
     0
176
     1
  0
VISUALSTYLE
  5
3A
102
{ACAD_REACTORS
330
2A
102
}
330
2A
100
AcDbVisualStyle
  2
ColorChange
 70
    16
177
     2
291
     1
 71
     2
176
     1
 72
     2
176
     1
 73
     3
176
     1
 90
        0
176
     1
 40
-0.6
176
     1
 41
-30.0
176
     1
 62
     5
 63
     8
421
  8421504
176
     1
 74
     1
176
     1
 91
        4
176
     1
 64
     7
176
     1
 65
   257
176
     1
 75
     1
176
     1
175
     1
176
     1
 42
1.0
176
     1
 92
        8
176
     1
 66
     8
424
  8421504
176
     1
 43
1.0
176
     1
 76
     1
176
     1
 77
     6
176
     1
 78
     2
176
     1
 67
     7
176
     1
 79
     5
176
     1
170
     0
176
     1
171
     0
176
     1
290
     0
176
     1
 93
        1
176
     1
 44
0.0
176
     1
173
     0
176
     1
  0
VISUALSTYLE
  5
34
102
{ACAD_REACTORS
330
2A
102
}
330
2A
100
AcDbVisualStyle
  2
Conceptual
 70
     9
177
     2
291
     0
 71
     3
176
     1
 72
     2
176
     1
 73
     0
176
     1
 90
        0
176
     1
 40
-0.6
176
     1
 41
-30.0
176
     1
 62
     5
 63
     7
421
 16777215
176
     1
 74
     2
176
     1
 91
        2
176
     1
 64
     7
176
     1
 65
   257
176
     1
 75
     1
176
     1
175
     1
176
     1
 42
40.0
176
     1
 92
        8
176
     1
 66
     7
176
     1
 43
1.0
176
     1
 76
     1
176
     1
 77
     6
176
     1
 78
     2
176
     1
 67
     7
176
     1
 79
     3
176
     1
170
     0
176
     1
171
     0
176
     1
290
     0
176
     1
 93
        1
176
     1
 44
0.0
176
     1
173
     0
176
     1
  0
VISUALSTYLE
  5
35
102
{ACAD_REACTORS
330
2A
102
}
330
2A
100
AcDbVisualStyle
  2
Dim
 70
    11
177
     2
291
     1
 71
     2
176
     1
 72
     2
176
     1
 73
     0
176
     1
 90
        0
176
     1
 40
-0.6
176
     1
 41
-30.0
176
     1
 62
     5
 63
     7
421
 16777215
176
     1
 74
     1
176
     1
 91
        4
176
     1
 64
     7
176
     1
 65
   257
176
     1
 75
     1
176
     1
175
     1
176
     1
 42
1.0
176
     1
 92
        8
176
     1
 66
     7
176
     1
 43
1.0
176
     1
 76
     1
176
     1
 77
     6
176
     1
 78
     2
176
     1
 67
     7
176
     1
 79
     5
176
     1
170
     0
176
     1
171
     0
176
     1
290
     0
176
     1
 93
        1
176
     1
 44
-50.0
176
     1
173
     0
176
     1
  0
VISUALSTYLE
  5
39
102
{ACAD_REACTORS
330
2A
102
}
330
2A
100
AcDbVisualStyle
  2
Facepattern
 70
    15
177
     2
291
     1
 71
     2
176
     1
 72
     2
176
     1
 73
     0
176
     1
 90
        0
176
     1
 40
-0.6
176
     1
 41
-30.0
176
     1
 62
     5
 63
     7
421
 16777215
176
     1
 74
     1
176
     1
 91
        4
176
     1
 64
     7
176
     1
 65
   257
176
     1
 75
     1
176
     1
175
     1
176
     1
 42
1.0
176
     1
 92
        8
176
     1
 66
     7
176
     1
 43
1.0
176
     1
 76
     1
176
     1
 77
     6
176
     1
 78
     2
176
     1
 67
     7
176
     1
 79
     5
176
     1
170
     0
176
     1
171
     0
176
     1
290
     0
176
     1
 93
        1
176
     1
 44
0.0
176
     1
173
     0
176
     1
  0
VISUALSTYLE
  5
2B
102
{ACAD_REACTORS
330
2A
102
}
330
2A
100
AcDbVisualStyle
  2
Flat
 70
     0
177
     2
291
     1
 71
     2
176
     1
 72
     1
176
     1
 73
     1
176
     1
 90
        2
176
     1
 40
-0.6
176
     1
 41
30.0
176
     1
 62
     5
 63
     7
421
 16777215
176
     1
 74
     0
176
     1
 91
        4
176
     1
 64
     7
176
     1
 65
   257
176
     1
 75
     1
176
     1
175
     1
176
     1
 42
1.0
176
     1
 92
        8
176
     1
 66
     7
176
     1
 43
1.0
176
     1
 76
     1
176
     1
 77
     6
176
     1
 78
     2
176
     1
 67
     7
176
     1
 79
     5
176
     1
170
     0
176
     1
171
     0
176
     1
290
     0
176
     1
 93
       13
176
     1
 44
0.0
176
     1
173
     0
176
     1
  0
VISUALSTYLE
  5
2C
102
{ACAD_REACTORS
330
2A
102
}
330
2A
100
AcDbVisualStyle
  2
FlatWithEdges
 70
     1
177
     2
291
     1
 71
     2
176
     1
 72
     1
176
     1
 73
     1
176
     1
 90
        2
176
     1
 40
-0.6
176
     1
 41
30.0
176
     1
 62
     5
 63
     7
421
 16777215
176
     1
 74
     1
176
     1
 91
        4
176
     1
 64
     7
176
     1
 65
   257
176
     1
 75
     1
176
     1
175
     1
176
     1
 42
1.0
176
     1
 92
        0
176
     1
 66
   257
176
     1
 43
1.0
176
     1
 76
     1
176
     1
 77
     6
176
     1
 78
     2
176
     1
 67
     7
176
     1
 79
     5
176
     1
170
     0
176
     1
171
     0
176
     1
290
     0
176
     1
 93
       13
176
     1
 44
0.0
176
     1
173
     0
176
     1
  0
VISUALSTYLE
  5
2D
102
{ACAD_REACTORS
330
2A
102
}
330
2A
100
AcDbVisualStyle
  2
Gouraud
 70
     2
177
     2
291
     1
 71
     2
176
     1
 72
     2
176
     1
 73
     1
176
     1
 90
        2
176
     1
 40
-0.6
176
     1
 41
30.0
176
     1
 62
     5
 63
     7
421
 16777215
176
     1
 74
     0
176
     1
 91
        4
176
     1
 64
     7
176
     1
 65
   257
176
     1
 75
     1
176
     1
175
     1
176
     1
 42
1.0
176
     1
 92
        0
176
     1
 66
     7
176
     1
 43
1.0
176
     1
 76
     1
176
     1
 77
     6
176
     1
 78
     2
176
     1
 67
     7
176
     1
 79
     5
176
     1
170
     0
176
     1
171
     0
176
     1
290
     0
176
     1
 93
       13
176
     1
 44
0.0
176
     1
173
     0
176
     1
  0
VISUALSTYLE
  5
2E
102
{ACAD_REACTORS
330
2A
102
}
330
2A
100
AcDbVisualStyle
  2
GouraudWithEdges
 70
     3
177
     2
291
     1
 71
     2
176
     1
 72
     2
176
     1
 73
     1
176
     1
 90
        2
176
     1
 40
-0.6
176
     1
 41
30.0
176
     1
 62
     5
 63
     7
421
 16777215
176
     1
 74
     1
176
     1
 91
        4
176
     1
 64
     7
176
     1
 65
   257
176
     1
 75
     1
176
     1
175
     1
176
     1
 42
1.0
176
     1
 92
        0
176
     1
 66
   257
176
     1
 43
1.0
176
     1
 76
     1
176
     1
 77
     6
176
     1
 78
     2
176
     1
 67
     7
176
     1
 79
     5
176
     1
170
     0
176
     1
171
     0
176
     1
290
     0
176
     1
 93
       13
176
     1
 44
0.0
176
     1
173
     0
176
     1
  0
VISUALSTYLE
  5
38
102
{ACAD_REACTORS
330
2A
102
}
330
2A
100
AcDbVisualStyle
  2
Linepattern
 70
    14
177
     2
291
     1
 71
     2
176
     1
 72
     2
176
     1
 73
     0
176
     1
 90
        0
176
     1
 40
-0.6
176
     1
 41
-30.0
176
     1
 62
     5
 63
     7
421
 16777215
176
     1
 74
     1
176
     1
 91
        4
176
     1
 64
     7
176
     1
 65
   257
176
     1
 75
     7
176
     1
175
     7
176
     1
 42
1.0
176
     1
 92
        8
176
     1
 66
     7
176
     1
 43
1.0
176
     1
 76
     1
176
     1
 77
     6
176
     1
 78
     2
176
     1
 67
     7
176
     1
 79
     5
176
     1
170
     0
176
     1
171
     0
176
     1
290
     0
176
     1
 93
        1
176
     1
 44
0.0
176
     1
173
     0
176
     1
  0
VISUALSTYLE
  5
33
102
{ACAD_REACTORS
330
2A
102
}
330
2A
100
AcDbVisualStyle
  2
Realistic
 70
     8
177
     2
291
     0
 71
     2
176
     1
 72
     2
176
     1
 73
     0
176
     1
 90
        0
176
     1
 40
-0.6
176
     1
 41
-30.0
176
     1
 62
     5
 63
     7
421
 16777215
176
     1
 74
     1
176
     1
 91
        0
176
     1
 64
     7
176
     1
 65
   257
176
     1
 75
     1
176
     1
175
     1
176
     1
 42
1.0
176
     1
 92
        8
176
     1
 66
     8
424
  7895160
176
     1
 43
1.0
176
     1
 76
     1
176
     1
 77
     6
176
     1
 78
     2
176
     1
 67
     7
176
     1
 79
     5
176
     1
170
     0
176
     1
171
     0
176
     1
290
     0
176
     1
 93
       13
176
     1
 44
0.0
176
     1
173
     0
176
     1
  0
VISUALSTYLE
  5
37
102
{ACAD_REACTORS
330
2A
102
}
330
2A
100
AcDbVisualStyle
  2
Thicken
 70
    13
177
     2
291
     1
 71
     2
176
     1
 72
     2
176
     1
 73
     0
176
     1
 90
        0
176
     1
 40
-0.6
176
     1
 41
-30.0
176
     1
 62
     5
 63
     7
421
 16777215
176
     1
 74
     1
176
     1
 91
        4
176
     1
 64
     7
176
     1
 65
   257
176
     1
 75
     1
176
     1
175
     1
176
     1
 42
1.0
176
     1
 92
       12
176
     1
 66
     7
176
     1
 43
1.0
176
     1
 76
     1
176
     1
 77
     6
176
     1
 78
     2
176
     1
 67
     7
176
     1
 79
     5
176
     1
170
     0
176
     1
171
     0
176
     1
290
     0
176
     1
 93
        1
176
     1
 44
0.0
176
     1
173
     0
176
     1
  0
ENDSEC
  0
EOF
